<svg xmlns="http://www.w3.org/2000/svg" width="15.832" height="20.029" viewBox="0 0 15.832 20.029">
  <g id="article" transform="translate(-7723.777 -269.712)">
    <path id="Path_946" data-name="Path 946" d="M7733.894,275.427h3.833l-3.833-3.834Z" fill="#b3b3b3" stroke="#b3b3b3" stroke-linecap="round" stroke-linejoin="round" stroke-width="0.763"/>
    <path id="Path_947" data-name="Path 947" d="M7725.077,270.1h9.437a3.17,3.17,0,0,1,.344.261q2.063,2.064,4.126,4.117a.759.759,0,0,1,.239.581v13.125a1.082,1.082,0,0,1-1.167,1.174h-12.723a1.079,1.079,0,0,1-1.167-1.172V271.23a1.064,1.064,0,0,1,.853-1.1.46.46,0,0,0,.058-.03Z" fill="none" stroke="#b3b3b3" stroke-miterlimit="10" stroke-width="0.771"/>
  </g>
</svg>
