<svg xmlns="http://www.w3.org/2000/svg" width="38.709" height="32.416" viewBox="0 0 38.709 32.416">
  <g id="icon-11" transform="translate(-11208.441 -993.065)">
    <circle id="Ellipse_46" data-name="Ellipse 46" cx="1.178" cy="1.178" r="1.178" transform="translate(11218.988 1018.805)" fill="#fff"/>
    <circle id="Ellipse_47" data-name="Ellipse 47" cx="1.178" cy="1.178" r="1.178" transform="translate(11213.187 1016.401)" fill="#fff"/>
    <path id="Path_786" data-name="Path 786" d="M11221.668,1015.18a1.177,1.177,0,1,0,1.178,1.177,1.176,1.176,0,0,0-1.178-1.177Z" fill="#fff" fill-rule="evenodd"/>
    <path id="Path_787" data-name="Path 787" d="M11215.867,1012.775a1.176,1.176,0,1,0,.833.345,1.177,1.177,0,0,0-.833-.345Z" fill="#fff" fill-rule="evenodd"/>
    <circle id="Ellipse_48" data-name="Ellipse 48" cx="1.178" cy="1.178" r="1.178" transform="translate(11221.993 1011.553)" fill="#fff"/>
    <circle id="Ellipse_49" data-name="Ellipse 49" cx="1.178" cy="1.178" r="1.178" transform="translate(11216.192 1009.149)" fill="#fff"/>
    <path id="Path_788" data-name="Path 788" d="M11216.3,1005.341a3.941,3.941,0,0,0-3.6,2.424l-3.448,8.325a3.935,3.935,0,0,0,2.125,5.131l8.327,3.45a3.937,3.937,0,0,0,5.131-2.127l3.448-8.324a3.935,3.935,0,0,0-2.126-5.131l-8.327-3.451a3.919,3.919,0,0,0-1.528-.3Z" fill="none" stroke="#fff" stroke-linecap="round" stroke-linejoin="round" stroke-width="1" fill-rule="evenodd"/>
    <path id="Path_790" data-name="Path 790" d="M11239.289,993.565a3.919,3.919,0,0,0-1.528.3l-8.327,3.451a3.936,3.936,0,0,0-2.126,5.131l3.448,8.324a3.937,3.937,0,0,0,5.131,2.127l8.327-3.45a3.935,3.935,0,0,0,2.125-5.131l-3.448-8.325a3.939,3.939,0,0,0-3.6-2.424Z" fill="none" stroke="#fff" stroke-linecap="round" stroke-linejoin="round" stroke-width="1" fill-rule="evenodd"/>
    <path id="Path_789" data-name="Path 789" d="M11236.807,1002.2a1.178,1.178,0,1,0,.85.345A1.176,1.176,0,0,0,11236.807,1002.2Z" fill="#fff" fill-rule="evenodd"/>
  </g>
</svg>
