<svg xmlns="http://www.w3.org/2000/svg" width="26.853" height="27.139" viewBox="0 0 26.853 27.139">
  <g id="icon-5" transform="translate(-11214.846 -586.891)">
    <path id="Path_811" data-name="Path 811" d="M11241.031,599.279l-3.182-4.28,1.71-5.044h0a.743.743,0,0,0-.951-.943l-5.044,1.724-4.266-3.2a.733.733,0,0,0-.453-.149.743.743,0,0,0-.743.743l.067,5.32-4.347,3.083a.743.743,0,0,0,.208,1.323l4.279,1.33.81.245.253.81,1.33,4.28h0a.745.745,0,0,0,.595.52h.112a.744.744,0,0,0,.616-.32l3.068-4.346,5.334.067a.743.743,0,0,0,.669-.409.7.7,0,0,0-.066-.757Z" fill="none" stroke="#fff" stroke-linecap="round" stroke-linejoin="round" stroke-width="1"/>
    <line id="Line_53" data-name="Line 53" x1="13.508" y2="13.508" transform="translate(11215.553 599.815)" fill="none" stroke="#fff" stroke-linecap="round" stroke-linejoin="round" stroke-width="1"/>
  </g>
</svg>
