<svg xmlns="http://www.w3.org/2000/svg" width="23.219" height="24.026" viewBox="0 0 23.219 24.026">
  <g id="icon-1" transform="translate(-11216.906 -320.62)">
    <path id="Path_782" data-name="Path 782" d="M11225.176,340.388a.654.654,0,0,0-.582.664v.143a3.953,3.953,0,0,0,7.842,0v-.143a.65.65,0,0,0-.187-.468.654.654,0,0,0-1.12.468v.143a2.665,2.665,0,0,1-5.228,0v-.143a.653.653,0,0,0-.726-.664Z" fill="#fff"/>
    <path id="Path_783" data-name="Path 783" d="M11228.515,321.12c-3.755,0-6.235,2.866-6.86,6.086l-1.135,5.82a2.486,2.486,0,0,1-1.46,1.96,4.516,4.516,0,0,0-1.071.8,2.363,2.363,0,0,0-.582,1.593v1.388a.653.653,0,0,0,.652.654h20.912a.653.653,0,0,0,.654-.654v-1.388a2.363,2.363,0,0,0-.582-1.593,4.5,4.5,0,0,0-1.072-.8,2.489,2.489,0,0,1-1.46-1.96l-1.134-5.82C11234.752,323.986,11232.27,321.12,11228.515,321.12Z" fill="none" stroke="#fff" stroke-miterlimit="10" stroke-width="1"/>
  </g>
</svg>
