<svg xmlns="http://www.w3.org/2000/svg" width="24.587" height="24" viewBox="0 0 24.587 24">
  <path id="Path_865" data-name="Path 865" d="M10578.869,222.024h15.8V230.8h-15.8Zm16.1-6.146a.878.878,0,1,0,.878.878A.878.878,0,0,0,10594.966,215.878Zm-2.927,0a.878.878,0,1,0,.878.878A.878.878,0,0,0,10592.039,215.878Zm-15.512-1.463h20.487a1.454,1.454,0,0,1,1.463,1.463v8.781a1.454,1.454,0,0,1-1.463,1.463h-1.756v-4.39a.3.3,0,0,0-.293-.293h-16.39a.3.3,0,0,0-.293.293v4.39h-1.756a1.454,1.454,0,0,1-1.463-1.463v-8.781A1.454,1.454,0,0,1,10576.527,214.415Zm2.342-6.439h15.8v5.853h-15.8Zm-.293-.586a.3.3,0,0,0-.293.293v6.146h-1.756a2.052,2.052,0,0,0-2.05,2.049v8.781a2.052,2.052,0,0,0,2.05,2.048h1.756V231.1a.3.3,0,0,0,.293.292h16.39a.3.3,0,0,0,.293-.292v-4.391h1.756a2.052,2.052,0,0,0,2.05-2.048v-8.781a2.052,2.052,0,0,0-2.05-2.049h-1.756v-6.146a.3.3,0,0,0-.293-.293Z" transform="translate(-10574.478 -207.39)" fill="#b3b3b3"/>
</svg>
