<svg xmlns="http://www.w3.org/2000/svg" width="36.009" height="36.385" viewBox="0 0 36.009 36.385">
  <g id="icon-12" transform="translate(-11210.924 -1056.993)">
    <path id="Path_791" data-name="Path 791" d="M11246.272,1084.019a3.588,3.588,0,0,1-4.4,2.536,3.551,3.551,0,0,1-2.383-2.126l-2.092-.561-2.417,9.01-23.561-6.319,2.417-9.011,3.48.934a3.551,3.551,0,0,0,2.383,2.126,3.589,3.589,0,1,0-1.269-6.284l-3.479-.933,2.788-10.392,9.01,2.417.563-2.092a3.547,3.547,0,0,1-.648-3.128,3.588,3.588,0,1,1,4.8,4.243l-.561,2.092,10.392,2.787-2.788,10.393,2.093.561a3.581,3.581,0,0,1,5.664,3.746Z" fill="none" stroke="#fff" stroke-linecap="round" stroke-linejoin="round" stroke-width="1"/>
  </g>
</svg>
