<svg xmlns="http://www.w3.org/2000/svg" width="25.329" height="30.852" viewBox="0 0 25.329 30.852">
  <g id="icon-2" transform="translate(-11214.976 -381.727)">
    <path id="Path_796" data-name="Path 796" d="M11232.034,399.531a7.442,7.442,0,0,0-2.278,5.375v.972a.672.672,0,0,1-.671.671h-2.89a.671.671,0,0,1-.67-.671V404.9a7.6,7.6,0,0,0-2.32-5.414,6.368,6.368,0,0,1,3.707-10.9,6.589,6.589,0,0,1,.727-.04,6.376,6.376,0,0,1,6.369,6.368,6.311,6.311,0,0,1-1.974,4.609Zm-4.395-12.007a7.682,7.682,0,0,0-.841.047,7.4,7.4,0,0,0-4.31,12.658,6.565,6.565,0,0,1,2.007,4.676v.974a1.7,1.7,0,0,0,1.7,1.7h2.89a1.7,1.7,0,0,0,1.7-1.7v-.973a6.411,6.411,0,0,1,1.959-4.63,7.4,7.4,0,0,0-5.1-12.752Z" fill="#fff"/>
    <path id="Path_797" data-name="Path 797" d="M11230.13,408.285h-4.979a.514.514,0,1,0,0,1.028h4.978a.514.514,0,0,0,0-1.028Z" fill="#fff"/>
    <path id="Path_798" data-name="Path 798" d="M11230.644,410.433a.514.514,0,0,0-.514-.515h-4.979a.514.514,0,1,0,0,1.029h4.978a.514.514,0,0,0,.515-.514Z" fill="#fff"/>
    <path id="Path_799" data-name="Path 799" d="M11229.4,412.065a.515.515,0,0,0-.516-.514h-2.489a.514.514,0,0,0,0,1.028h2.489A.515.515,0,0,0,11229.4,412.065Z" fill="#fff"/>
    <path id="Path_800" data-name="Path 800" d="M11215.49,394.906h2.978a.514.514,0,1,0,0-1.028h-2.978a.514.514,0,1,0,0,1.028Z" fill="#fff"/>
    <path id="Path_801" data-name="Path 801" d="M11239.791,393.878h-2.978a.514.514,0,1,0,0,1.028h2.978a.514.514,0,0,0,0-1.028Z" fill="#fff"/>
    <path id="Path_802" data-name="Path 802" d="M11227.126,382.241v2.978a.515.515,0,1,0,1.029,0v-2.978a.515.515,0,0,0-1.029,0Z" fill="#fff"/>
    <path id="Path_803" data-name="Path 803" d="M11236.6,385.436a.513.513,0,0,0-.727,0l-2.105,2.1a.515.515,0,0,0,.729.727l2.1-2.105a.514.514,0,0,0,0-.727Z" fill="#fff"/>
    <path id="Path_804" data-name="Path 804" d="M11219.412,403.346l2.1-2.105a.514.514,0,0,0-.727-.727l-2.105,2.1a.515.515,0,0,0,0,.727.516.516,0,0,0,.728,0Z" fill="#fff"/>
    <path id="Path_805" data-name="Path 805" d="M11220.791,388.27a.515.515,0,0,0,.729-.727l-2.1-2.105a.514.514,0,0,0-.727.727Z" fill="#fff"/>
    <path id="Path_806" data-name="Path 806" d="M11236.6,402.619l-2.1-2.1a.514.514,0,1,0-.728.727l2.105,2.105a.516.516,0,0,0,.728,0,.514.514,0,0,0,0-.727Z" fill="#fff"/>
  </g>
</svg>
