<svg xmlns="http://www.w3.org/2000/svg" width="30.705" height="18.055" viewBox="0 0 30.705 18.055">
  <g id="icon-7" transform="translate(-11211.718 -730.93)">
    <path id="Rectangle_346" data-name="Rectangle 346" d="M1.455,0h17.7a1.455,1.455,0,0,1,1.455,1.455V15.6a1.456,1.456,0,0,1-1.456,1.456H1.455A1.455,1.455,0,0,1,0,15.6V1.455A1.455,1.455,0,0,1,1.455,0Z" transform="translate(11212.218 731.43)" fill="none" stroke="#fff" stroke-linecap="round" stroke-linejoin="round" stroke-width="1"/>
    <path id="Path_812" data-name="Path 812" d="M11241.476,748.04a.829.829,0,0,1-.888,0l-6.143-3.6v-9.092l6.1-3.638a.834.834,0,0,1,.888,0,.93.93,0,0,1,.445.768l.041,14.791a.87.87,0,0,1-.446.768Z" fill="none" stroke="#fff" stroke-linecap="round" stroke-linejoin="round" stroke-width="1"/>
  </g>
</svg>
