<svg xmlns="http://www.w3.org/2000/svg" width="45.937" height="45.938" viewBox="0 0 45.937 45.938">
  <g id="youtube-icon" transform="translate(-1329.15 -4478.963)">
    <path id="Path_519" data-name="Path 519" d="M1374.227,4501.934a22.109,22.109,0,1,1-22.11-22.111,22.109,22.109,0,0,1,22.11,22.111" fill="none" stroke="#fff" stroke-miterlimit="10" stroke-width="1.72"/>
    <path id="Path_520" data-name="Path 520" d="M1356.915,4502l-7.943,4.68v-9.361Zm6.7-.07a30.284,30.284,0,0,0-.481-5.572,2.888,2.888,0,0,0-2.034-2.047c-1.793-.485-8.988-.485-8.988-.485s-7.193,0-8.986.485a2.9,2.9,0,0,0-2.036,2.047,32.523,32.523,0,0,0,0,11.145,2.9,2.9,0,0,0,2.036,2.047c1.793.485,8.986.485,8.986.485s7.2,0,8.988-.485a2.891,2.891,0,0,0,2.034-2.047,30.3,30.3,0,0,0,.481-5.573" fill="#fff"/>
  </g>
</svg>
