<svg xmlns="http://www.w3.org/2000/svg" width="32" height="32" viewBox="0 0 32 32">
  <g id="Group_9" data-name="Group 9" transform="translate(-107 -545)">
    <rect id="Rectangle_8" data-name="Rectangle 8" width="32" height="32" transform="translate(107 545)" fill="none"/>
    <g id="delivery-box" transform="translate(108.333 546.333)">
      <path id="Path_16" data-name="Path 16" d="M19.5,2.358,6.191,9.173.9,6.569,13.977.112a1.072,1.072,0,0,1,.953,0Z" transform="translate(0.2 -0.001)"/>
      <path id="Path_17" data-name="Path 17" d="M26.606,5.916l-13.545,6.71-5.072-2.5-.733-.373L20.582,2.94l.733.372Z" transform="translate(1.612 0.653)"/>
      <path id="Path_18" data-name="Path 18" d="M13.589,13.667l-.015,14.12L.6,21.017a1.133,1.133,0,0,1-.6-1V6.957L5.5,9.665v4.762a1.1,1.1,0,1,0,2.2,0V10.767l.733.357Z" transform="translate(0 1.545)"/>
      <path id="Path_19" data-name="Path 19" d="M26.451,6.969,12.921,13.65l-.015,14.12,13.559-7.08Z" transform="translate(2.868 1.548)"/>
    </g>
  </g>
</svg>
