<svg xmlns="http://www.w3.org/2000/svg" width="32" height="32" viewBox="0 0 32 32"><defs><style>.a{fill:none;}.b{fill:#e10098;}.b,.c,.d{fill-rule:evenodd;}.c{fill:#fefefe;}.d{fill:#fbfbfb;}</style></defs><g transform="translate(-12401 -889)"><rect class="a" width="32" height="32" transform="translate(12401 889)"/><g transform="translate(12301.617 771.444)"><path class="b" d="M130.373,136.73c0,2.323.024,4.645,0,6.967a4.119,4.119,0,0,1-4.46,4.435c-2.209.027-4.419-.017-6.627.014a2.161,2.161,0,0,1-2.451-1.624,2,2,0,0,1,3.624-1.536c.34.483.75.423,1.185.426,1.416.009,2.833-.013,4.248.008,1.2.018,1.776-.529,1.769-1.739-.014-2.719,0-5.438-.007-8.157,0-.48.166-1.03-.7-1.014s-.644.6-.654,1.053c-.023,1.019.028,2.041-.021,3.058a4,4,0,0,1-3.984,4.032q-6.88.106-13.764,0a4.023,4.023,0,0,1-4-4.021c-.022-.4-.011-.793-.008-1.189.012-1.534.543-3.43-2.159-3.059-.142.02-.314-.117-.461-.2-1.754-.99-1.619-2.4-1.374-5.552a2.48,2.48,0,0,1,2.906-2.247c.918.05,1.151-.269,1.106-1.135a6.07,6.07,0,0,1,.459-3.486,4.193,4.193,0,0,1,3.923-2.21c4.192.016,8.383,0,12.575.008,3.247.008,4.817,1.543,4.775,4.78-.017,1.282-.116,2.172,1.731,2.124,1.519-.04,2.353,1.21,2.365,2.785C130.387,131.745,130.372,134.238,130.373,136.73Z" transform="translate(0 0)"/><path class="c" d="M236.4,308.428c-1.127,0-2.259.058-3.381-.014a1.9,1.9,0,0,1-1.965-2.082,1.849,1.849,0,0,1,1.923-1.947q3.464-.1,6.933,0a2.016,2.016,0,0,1,.041,4.028C238.767,308.484,237.579,308.427,236.4,308.428Z" transform="translate(-121.054 -171.186)"/><path class="d" d="M235.118,214.53c-.153,1.222-.787,2.021-2.048,2.02a2.011,2.011,0,0,1-.017-4.021C234.317,212.516,234.954,213.312,235.118,214.53Z" transform="translate(-121.059 -86.134)"/><path class="d" d="M325.5,211.764c1.288.2,2.073.853,2.035,2.115a2.011,2.011,0,0,1-4.022-.1A2,2,0,0,1,325.5,211.764Z" transform="translate(-206.72 -85.425)"/></g></g></svg>