<svg xmlns="http://www.w3.org/2000/svg" width="32" height="32" viewBox="0 0 32 32"><defs><style>.a{fill:#e10098;}.b{fill:none;}</style></defs><g transform="translate(-12882 -940)"><g transform="translate(12883 866)"><g transform="translate(19.886 83.802)"><path class="a" d="M339.392,151.56l10.114,6.394V144.9Z" transform="translate(-339.392 -144.896)"/></g><g transform="translate(0 83.802)"><path class="a" d="M0,144.9v13.057l10.114-6.394Z" transform="translate(0 -144.896)"/></g><g transform="translate(0.056 80)"><g transform="translate(0 0)"><path class="a" d="M29.029,80H2.779A1.852,1.852,0,0,0,.96,81.6L15.9,91.441,30.847,81.6A1.852,1.852,0,0,0,29.029,80Z" transform="translate(-0.96 -80)"/></g></g><g transform="translate(0.06 91.597)"><g transform="translate(0 0)"><path class="a" d="M19.133,277.922l-2.653,1.747a.942.942,0,0,1-1.031,0L12.8,277.92,1.024,285.366a1.849,1.849,0,0,0,1.815,1.582h26.25a1.849,1.849,0,0,0,1.815-1.582Z" transform="translate(-1.024 -277.92)"/></g></g></g><rect class="b" width="32" height="32" transform="translate(12882 940)"/></g></svg>