<svg xmlns="http://www.w3.org/2000/svg" width="25.4" height="20.6" viewBox="0 0 25.4 20.6">
  <path id="Path_263" data-name="Path 263" d="M171.2,353.3v.6a14.511,14.511,0,0,1-14.4,14.6h-.2a14.422,14.422,0,0,1-8-2.4h1.2a10.334,10.334,0,0,0,6.4-2.2,4.922,4.922,0,0,1-4.8-3.6h1a3.4,3.4,0,0,0,1.4-.2,5.135,5.135,0,0,1-4.2-5h0a5.325,5.325,0,0,0,2.4.6,5.218,5.218,0,0,1-2.2-4.2,4.02,4.02,0,0,1,.8-2.6,14.514,14.514,0,0,0,10.6,5.4c0-.4-.2-.8-.2-1.2a5.164,5.164,0,0,1,5.2-5.2h0a5.464,5.464,0,0,1,3.8,1.6,8.836,8.836,0,0,0,3.2-1.2,5.173,5.173,0,0,1-2.2,2.8,16.666,16.666,0,0,0,3-.8,8.017,8.017,0,0,1-2.8,3Z" transform="translate(-148.6 -347.9)"/>
</svg>
