<svg xmlns="http://www.w3.org/2000/svg" width="24.027" height="24.171" viewBox="0 0 24.027 24.171">
  <g id="Group_288" data-name="Group 288" transform="translate(-12762.911 -1989.911)">
    <path id="Path_209" data-name="Path 209" d="M33.825,353.952a6.868,6.868,0,0,0-1.939-5.042,7.754,7.754,0,0,0-5.042-1.939,84.132,84.132,0,0,0-9.891,0,6.868,6.868,0,0,0-5.042,1.939,7.754,7.754,0,0,0-1.939,5.042,84.145,84.145,0,0,0,0,9.891,6.868,6.868,0,0,0,1.939,5.042,7.754,7.754,0,0,0,5.042,1.939,84.159,84.159,0,0,0,9.891,0,6.868,6.868,0,0,0,5.042-1.939,7.754,7.754,0,0,0,1.939-5.042Z" transform="translate(12753.1 1643.1)" stroke="#fff" stroke-miterlimit="10" stroke-width="0.027"/>
    <circle id="Ellipse_312" data-name="Ellipse 312" cx="1.358" cy="1.358" r="1.358" transform="translate(12779.941 1994.143)" fill="#fff" stroke="#fff" stroke-miterlimit="10" stroke-width="0.027"/>
    <path id="Path_210" data-name="Path 210" d="M18.448,360.3a4.848,4.848,0,1,1,4.848-4.848,4.8,4.8,0,0,1-4.848,4.848Z" transform="translate(12756.646 1646.646)" stroke="#fff" stroke-miterlimit="10" stroke-width="1"/>
  </g>
</svg>
