<svg xmlns="http://www.w3.org/2000/svg" width="18.646" height="24.2" viewBox="0 0 18.646 24.2">
  <path id="Path_262" data-name="Path 262" d="M81.3,356.53a7.959,7.959,0,0,1,.6-2.975,8.32,8.32,0,0,1,1.785-2.777,6.666,6.666,0,0,1,3.174-1.984A10.676,10.676,0,0,1,91.218,348a9.356,9.356,0,0,1,6.348,2.38,7.2,7.2,0,0,1,2.38,5.554,10.21,10.21,0,0,1-2.182,6.744,6.326,6.326,0,0,1-5.356,2.777,3.351,3.351,0,0,1-1.984-.6c-.6-.2-.992-.793-1.389-1.19l-.992,3.769c0,.4-.2.6-.4.992s-.2.6-.4.992-.4.6-.4.793-.4.6-.4.793-.2.4-.4.6l-.4.4-.2.2h-.2v-4.166a2.516,2.516,0,0,1,.2-1.19c.2-.793.793-3.372,1.785-7.538-.2-.2-.2-.6-.4-.992,0-.2-.2-.6-.2-.793v-.4a3.986,3.986,0,0,1,.793-2.579,2.441,2.441,0,0,1,1.984-.992,1.8,1.8,0,0,1,1.389.6,1.543,1.543,0,0,1,.4,1.587,3.376,3.376,0,0,1-.2,1.389l-.6,1.785a5.792,5.792,0,0,0-.4,1.785,2.443,2.443,0,0,0,.4,1.984,2.154,2.154,0,0,0,1.785.793,3.725,3.725,0,0,0,3.174-2.182,9.426,9.426,0,0,0,1.19-5.157,5.419,5.419,0,0,0-1.587-3.769,6.74,6.74,0,0,0-9.125.4,6.927,6.927,0,0,0-1.984,4.761,3.712,3.712,0,0,0,.992,2.777,1.192,1.192,0,0,1,.2.793c0,.2-.2.4-.2.6a.729.729,0,0,1-.2.6c0,.2-.2.2-.2.4h-.4a3.606,3.606,0,0,1-2.182-1.984A18.928,18.928,0,0,1,81.3,356.53Z" transform="translate(-81.3 -348)"/>
</svg>
