<svg xmlns="http://www.w3.org/2000/svg" width="9.4" height="12.2" viewBox="0 0 9.4 12.2">
  <path id="Path_206" data-name="Path 206" d="M81.3,352.3a4.012,4.012,0,0,1,.3-1.5,4.194,4.194,0,0,1,.9-1.4,3.36,3.36,0,0,1,1.6-1,5.382,5.382,0,0,1,2.2-.4,4.717,4.717,0,0,1,3.2,1.2,3.631,3.631,0,0,1,1.2,2.8,5.147,5.147,0,0,1-1.1,3.4,3.189,3.189,0,0,1-2.7,1.4,1.69,1.69,0,0,1-1-.3c-.3-.1-.5-.4-.7-.6l-.5,1.9c0,.2-.1.3-.2.5s-.1.3-.2.5-.2.3-.2.4-.2.3-.2.4-.1.2-.2.3l-.2.2-.1.1h-.1v-2.1a1.268,1.268,0,0,1,.1-.6c.1-.4.4-1.7.9-3.8-.1-.1-.1-.3-.2-.5,0-.1-.1-.3-.1-.4v-.2a2.01,2.01,0,0,1,.4-1.3,1.231,1.231,0,0,1,1-.5.908.908,0,0,1,.7.3.778.778,0,0,1,.2.8,1.7,1.7,0,0,1-.1.7l-.3.9a2.92,2.92,0,0,0-.2.9,1.232,1.232,0,0,0,.2,1,1.086,1.086,0,0,0,.9.4,1.878,1.878,0,0,0,1.6-1.1,4.752,4.752,0,0,0,.6-2.6,2.732,2.732,0,0,0-.8-1.9,3.4,3.4,0,0,0-4.6.2,3.492,3.492,0,0,0-1,2.4,1.872,1.872,0,0,0,.5,1.4.6.6,0,0,1,.1.4c0,.1-.1.2-.1.3a.367.367,0,0,1-.1.3c0,.1-.1.1-.1.2h-.2a1.818,1.818,0,0,1-1.1-1A9.542,9.542,0,0,1,81.3,352.3Z" transform="translate(-81.3 -348)"/>
</svg>
