<svg xmlns="http://www.w3.org/2000/svg" width="12.402" height="12.474" viewBox="0 0 12.402 12.474">
  <g id="Group_286" data-name="Group 286" transform="translate(-12762.911 -1989.912)">
    <path id="Path_209" data-name="Path 209" d="M22.2,350.5a3.541,3.541,0,0,0-1-2.6,4,4,0,0,0-2.6-1,43.385,43.385,0,0,0-5.1,0,3.541,3.541,0,0,0-2.6,1,4,4,0,0,0-1,2.6,43.387,43.387,0,0,0,0,5.1,3.541,3.541,0,0,0,1,2.6,4,4,0,0,0,2.6,1,43.385,43.385,0,0,0,5.1,0,3.541,3.541,0,0,0,2.6-1,4,4,0,0,0,1-2.6Z" transform="translate(12753.1 1643.1)" stroke="#fff" stroke-miterlimit="10" stroke-width="0.027"/>
    <circle id="Ellipse_312" data-name="Ellipse 312" cx="0.7" cy="0.7" r="0.7" transform="translate(12771.699 1992.1)" fill="#fff" stroke="#fff" stroke-miterlimit="10" stroke-width="0.027"/>
    <path id="Path_210" data-name="Path 210" d="M16.1,355.6a2.5,2.5,0,1,1,2.5-2.5,2.476,2.476,0,0,1-2.5,2.5Z" transform="translate(12753.1 1643.1)" stroke="#fff" stroke-miterlimit="10" stroke-width="1"/>
  </g>
</svg>
