<svg xmlns="http://www.w3.org/2000/svg" width="12.7" height="10.3" viewBox="0 0 12.7 10.3">
  <path id="Path_205" data-name="Path 205" d="M159.9,350.6v.3a7.256,7.256,0,0,1-7.2,7.3h-.1a7.211,7.211,0,0,1-4-1.2h.6a5.167,5.167,0,0,0,3.2-1.1,2.461,2.461,0,0,1-2.4-1.8h.5a1.7,1.7,0,0,0,.7-.1,2.568,2.568,0,0,1-2.1-2.5h0a2.662,2.662,0,0,0,1.2.3,2.609,2.609,0,0,1-1.1-2.1,2.01,2.01,0,0,1,.4-1.3,7.257,7.257,0,0,0,5.3,2.7c0-.2-.1-.4-.1-.6a2.582,2.582,0,0,1,2.6-2.6h0a2.732,2.732,0,0,1,1.9.8,4.418,4.418,0,0,0,1.6-.6,2.586,2.586,0,0,1-1.1,1.4,8.333,8.333,0,0,0,1.5-.4,4.009,4.009,0,0,1-1.4,1.5Z" transform="translate(-148.6 -347.9)"/>
</svg>
