<svg xmlns="http://www.w3.org/2000/svg" width="250" height="20.75" viewBox="0 0 250 20.75"><path d="M12.8,1V9.558H2.584V1H0V20.942H2.584V11.98H12.8v8.962h2.624V1Z" transform="translate(0 -0.596)"/><path d="M57.715,18.246a7.657,7.657,0,0,1-7.63-7.912,7.731,7.731,0,1,1,15.461,0,7.765,7.765,0,0,1-7.831,7.912M57.715,0A10.15,10.15,0,0,0,47.3,10.334a10.476,10.476,0,0,0,20.951,0A10.206,10.206,0,0,0,57.715,0" transform="translate(-28.206)"/><path d="M124.063,1V12.666c0,4.158-2.1,8.437-7.831,8.437s-7.831-4.279-7.831-8.437V1h2.584V12.666c0,3.754,1.978,6.055,5.329,6.055,1.453,0,5.086-.525,5.086-6.055V1h2.664" transform="translate(-64.641 -0.596)"/><path d="M211.115,1V3.5H203.4V9.679h6.055v2.382H203.4v6.378h7.71v2.5H200.7V1Z" transform="translate(-119.681 -0.596)"/><path d="M329.82,1V3.5h-8.437V9.679h6.7v2.382h-6.7v8.881H318.8V1Z" transform="translate(-190.106 -0.596)"/><path d="M421.809,10.669h-2.826V3.241h3.028c2.826,0,4.4,1.453,4.4,3.956,0,2.22-1.655,3.472-4.6,3.472m3.472,1.736.121-.121a5.5,5.5,0,0,0,3.633-5.127C429.035,3,426.411.9,421.406.9H416.4V20.8h2.624V12.93h3.835s3.673,7.71,3.754,7.912h3.229c-.283-.4-4.562-8.437-4.562-8.437" transform="translate(-248.307 -0.537)"/><path d="M462.15,13.958l3.431-9.89.2-.4L469.214,14H462.15ZM467.357,1H464.33c-.121.2-7.508,19.5-7.63,19.9h2.907c0-.2,1.776-4.6,1.776-4.6h8.639s1.655,4.36,1.776,4.6H474.7c-.161-.4-7.266-19.659-7.347-19.9" transform="translate(-272.339 -0.596)"/><path d="M389.342,1V3.5h-8.558V9.679h6.7v2.382h-6.7v8.881H378.2V1Z" transform="translate(-225.528 -0.596)"/><path d="M266.536,18.246a7.72,7.72,0,0,1-7.71-7.912,7.711,7.711,0,1,1,15.421,0,7.6,7.6,0,0,1-7.71,7.912m0-18.246A10.256,10.256,0,0,0,256,10.334a10.377,10.377,0,0,0,10.536,10.415,10.269,10.269,0,0,0,10.536-10.415A10.206,10.206,0,0,0,266.536,0" transform="translate(-152.657)"/><path d="M560.034,1V3.5h-7.71V9.679h6.055v2.382h-6.055V18.52h7.71v2.422H549.7V1Z" transform="translate(-327.796 -0.596)"/><path d="M591.35,10.809l-2.584-.121h-.2V3.422h3.028c2.826,0,4.36,1.373,4.36,3.875,0,1.332-.646,3.512-4.6,3.512m3.431,1.655h.121a5.77,5.77,0,0,0,3.633-5.207c0-4.158-2.624-6.257-7.63-6.257H585.9V20.9h2.624V13.11H592.4s3.633,7.63,3.754,7.831h3.229c-.2-.444-4.6-8.477-4.6-8.477" transform="translate(-349.383 -0.596)"/><path d="M167.659,15.017c0-2.18-2.3-2.907-4.683-3.754-2.7-1.05-5.611-1.978-5.611-5.329C157.365.283,162.9,0,164.026,0a13.965,13.965,0,0,1,5.732,1.251,20.669,20.669,0,0,0-.605,2.5A9.615,9.615,0,0,0,164.147,2.3c-2.826,0-4.077,1.655-4.077,3.229,0,2.1,2.1,2.7,4.36,3.431,2.826.928,5.934,1.857,5.934,5.853,0,3.431-2.826,5.853-6.782,5.853A14.176,14.176,0,0,1,156.8,18.69c.121-.081.727-2.1.848-2.382a11.047,11.047,0,0,0,6.257,2.1c2.7-.04,3.754-1.817,3.754-3.391" transform="translate(-93.503)"/><path d="M516.719,15.017c0-2.18-2.3-2.907-4.683-3.754-2.7-1.05-5.611-1.978-5.611-5.329,0-5.652,5.53-5.934,6.661-5.934a13.965,13.965,0,0,1,5.732,1.251,20.652,20.652,0,0,0-.605,2.5A9.475,9.475,0,0,0,513.207,2.3c-2.826,0-4.077,1.655-4.077,3.229,0,2.1,2.1,2.7,4.279,3.431,2.906.928,6.055,1.857,6.055,5.853,0,3.431-2.826,5.853-6.782,5.853A14.176,14.176,0,0,1,505.9,18.69c.121-.081.727-2.1.848-2.382a11.047,11.047,0,0,0,6.257,2.1c2.664-.04,3.714-1.817,3.714-3.391" transform="translate(-301.677)"/></svg>