<svg xmlns="http://www.w3.org/2000/svg" width="32" height="32" viewBox="0 0 32 32"><defs><style>.a{fill:#e10098;}.b{fill:none;}</style></defs><g transform="translate(-12621 -905)"><g transform="translate(12622 906)"><path class="a" d="M15,0H15A14.991,14.991,0,0,0,2.856,23.792L.986,29.364l5.766-1.843A15,15,0,1,0,15,0Zm8.728,21.182A4.233,4.233,0,0,1,20.788,23.3c-.784.167-1.808.3-5.254-1.129-4.408-1.826-7.247-6.306-7.468-6.6a8.567,8.567,0,0,1-1.781-4.524A4.789,4.789,0,0,1,7.819,7.4a2.179,2.179,0,0,1,1.534-.538c.186,0,.353.009.5.017.441.019.662.045.952.741.362.872,1.243,3.024,1.348,3.246a.893.893,0,0,1,.064.812,2.592,2.592,0,0,1-.486.688c-.221.255-.431.45-.653.724-.2.238-.431.493-.176.934a13.314,13.314,0,0,0,2.434,3.024,11.028,11.028,0,0,0,3.518,2.169.948.948,0,0,0,1.057-.167A18.149,18.149,0,0,0,19.086,17.5a.837.837,0,0,1,1.076-.326c.405.141,2.548,1.2,2.989,1.419s.731.326.838.512A3.736,3.736,0,0,1,23.732,21.182Z"/></g><rect class="b" width="32" height="32" transform="translate(12621 905)"/></g></svg>