<svg xmlns="http://www.w3.org/2000/svg" width="74.685" height="75" viewBox="0 0 74.685 75">
  <g id="approvals" transform="translate(-0.14 -0.03)">
    <g id="Group_27579" data-name="Group 27579" transform="translate(0.14 0.03)" opacity="0.01">
      <rect id="Rectangle_3794" data-name="Rectangle 3794" width="74.685" height="75" fill="#fff"/>
    </g>
    <path id="Path_11746" data-name="Path 11746" d="M64.347,20.562a23.488,23.488,0,0,0-45.7,1.1,17.585,17.585,0,0,1-5.672,9.591A21.85,21.85,0,1,0,47.889,54.927a18.7,18.7,0,0,1,7.1-9.11A23.487,23.487,0,0,0,64.347,20.562Z" transform="translate(2.574 1.475)" fill="#f6f0e2"/>
    <path id="Path_11747" data-name="Path 11747" d="M47.524,13.241a.612.612,0,0,1-.358-.119,10.555,10.555,0,0,0-5.539-2.329.6.6,0,0,1-.463-.343.552.552,0,0,1,.09-.567A10.749,10.749,0,0,0,43.6,4.343a.537.537,0,0,1,.343-.448.552.552,0,0,1,.567.075A10.555,10.555,0,0,0,50.047,6.3a.582.582,0,0,1,.463.343.567.567,0,0,1-.09.567,10.69,10.69,0,0,0-2.344,5.539.567.567,0,0,1-.343.448ZM42.687,9.822a11.809,11.809,0,0,1,4.479,1.851,11.944,11.944,0,0,1,1.866-4.4,11.854,11.854,0,0,1-4.479-1.851,11.66,11.66,0,0,1-1.866,4.4Z" transform="translate(20.657 1.882)" fill="#c29b40"/>
    <path id="Path_11748" data-name="Path 11748" d="M49.994,33.671l-.254-15.8-10.2-9.308L32.079,1.37H2.22V64.785H36.364a19.332,19.332,0,0,1-2.506-19.7A19.086,19.086,0,0,1,49.994,33.671Z" transform="translate(1.025 0.661)" fill="#fff"/>
    <path id="Path_11749" data-name="Path 11749" d="M32.39,65.52H16.5a.55.55,0,0,1-.4-.158.558.558,0,0,1-.167-.4.569.569,0,0,1,.567-.571H31.27A19.922,19.922,0,0,1,45.453,33.327l-.239-15.036L35.241,9.165,27.926,2.128H10.757a.572.572,0,0,1,0-1.128H28.15a.625.625,0,0,1,.388.15L36,8.338,46.2,17.63a.6.6,0,0,1,.179.406l.254,15.8a.555.555,0,0,1-.523.571A18.548,18.548,0,0,0,30.453,45.5a18.783,18.783,0,0,0,2.415,19.122.56.56,0,0,1,.075.586.567.567,0,0,1-.552.316Z" transform="translate(5.181 0.478)" fill="#525666"/>
    <path id="Path_11750" data-name="Path 11750" d="M15.874,65.522H2.437a.55.55,0,0,1-.4-.158.558.558,0,0,1-.167-.4V1.559A.569.569,0,0,1,2.422,1H10.23a.566.566,0,0,1,.567.252.575.575,0,0,1,0,.624.566.566,0,0,1-.567.252H2.975V64.394h12.9a.569.569,0,0,1,.567.571.558.558,0,0,1-.167.4.55.55,0,0,1-.4.158Z" transform="translate(0.853 0.476)" fill="#525666"/>
    <path id="Path_11751" data-name="Path 11751" d="M39.864,54.4l.388-33.173A20.8,20.8,0,0,0,20.62,41.639a25.694,25.694,0,0,0,3.628,12.227" transform="translate(10.351 10.908)" fill="#eadcbc"/>
    <circle id="Ellipse_695" data-name="Ellipse 695" cx="19.11" cy="19.11" r="19.11" transform="translate(33.709 34.482)" fill="#fff"/>
    <path id="Path_11752" data-name="Path 11752" d="M40.8,22.8A18.811,18.811,0,0,0,22.321,41.91,18.8,18.8,0,0,0,40.8,61.019c10.2,0,18.229-8.555,18.229-19.11S51,22.8,40.8,22.8Z" transform="translate(11.388 11.682)" fill="#d6bc7f"/>
    <path id="Path_11753" data-name="Path 11753" d="M37.447,59.264A19.408,19.408,0,0,1,30.773,58.1a.562.562,0,0,1,.373-1.06A18.542,18.542,0,0,0,52.2,28.419a.552.552,0,0,1,.1-.791.567.567,0,0,1,.791.1A19.677,19.677,0,0,1,37.447,59.264Z" transform="translate(15.372 14.005)" fill="#525666"/>
    <path id="Path_11754" data-name="Path 11754" d="M31.753,59.051a.522.522,0,0,1-.284-.09,19.662,19.662,0,1,1,22.588-32.1.567.567,0,1,1-.761.836,18.557,18.557,0,1,0-21.26,30.277.567.567,0,0,1-.284,1.045Z" transform="translate(11.286 11.56)" fill="#525666"/>
    <path id="Path_11755" data-name="Path 11755" d="M35.3,42.911a.427.427,0,0,1-.552-.493V26.638a.567.567,0,1,1,1.12,0V41.343L43.337,36.7a.567.567,0,0,1,.6.955l-8.316,5.181A.687.687,0,0,1,35.3,42.911Z" transform="translate(17.421 13.099)" fill="#fff"/>
    <path id="Path_11756" data-name="Path 11756" d="M33.165,17.572H6.218a.567.567,0,1,1,0-1.12H33.091a.567.567,0,1,1,0,1.12Z" transform="translate(2.671 8.244)" fill="#727890"/>
    <path id="Path_11757" data-name="Path 11757" d="M33.135,23.59H6.187a.567.567,0,0,1-.567-.567.552.552,0,0,1,.567-.552H33.06a.552.552,0,0,1,.567.552.567.567,0,0,1-.493.567Z" transform="translate(2.701 11.27)" fill="#727890"/>
    <path id="Path_11758" data-name="Path 11758" d="M23,29.6H6.218a.567.567,0,1,1,0-1.12H22.939a.567.567,0,0,1,0,1.12Z" transform="translate(2.671 14.286)" fill="#727890"/>
    <path id="Path_11759" data-name="Path 11759" d="M22.535,1.73,20.714,18a1.493,1.493,0,0,0,1.672,1.672L40.3,18.182l.254-1.224Z" transform="translate(10.393 0.838)" fill="#eadcbc"/>
    <path id="Path_11760" data-name="Path 11760" d="M22.32,1.63l.1,15.721,17.258.149Z" transform="translate(11.199 0.789)" fill="#fff"/>
    <path id="Path_11761" data-name="Path 11761" d="M39.945,18.255h0l-17.258-.149a.552.552,0,0,1-.552-.552L21.94,1.818a.582.582,0,0,1,.328-.523.567.567,0,0,1,.612.1L40.258,17.3a.567.567,0,0,1-.373.97ZM23.224,16.986l15.228.134L23.075,3.087Z" transform="translate(11.012 0.601)" fill="#525666"/>
    <circle id="Ellipse_696" data-name="Ellipse 696" cx="1.254" cy="1.254" r="1.254" transform="translate(9.993 69.327)" fill="#c29b40"/>
    <circle id="Ellipse_697" data-name="Ellipse 697" cx="2.06" cy="2.06" r="2.06" transform="translate(58.803 25.019)" fill="#c29b40"/>
  </g>
</svg>
