<svg width="80" height="80" viewBox="0 0 80 80" fill="none" xmlns="http://www.w3.org/2000/svg">
<path d="M71.6666 18.3333H66.6666V13.3333C66.6666 12.4133 65.92 11.6666 65 11.6666H48.3333C44.8566 11.6666 41.7933 13.4516 40 16.15C38.2066 13.4516 35.1433 11.6666 31.6666 11.6666H15C14.08 11.6666 13.3333 12.4133 13.3333 13.3333V18.3333H8.33329C7.41329 18.3333 6.66663 19.08 6.66663 20V66.6666C6.66663 67.5866 7.41329 68.3333 8.33329 68.3333H71.6666C72.5866 68.3333 73.3333 67.5866 73.3333 66.6666V20C73.3333 19.08 72.5866 18.3333 71.6666 18.3333ZM48.3333 15H63.3333V56.6666H48.3333C45.77 56.6666 43.4383 57.6433 41.6666 59.2333V26.6666V21.6666C41.6666 17.99 44.6566 15 48.3333 15ZM16.6666 15H31.6666C35.3433 15 38.3333 17.99 38.3333 21.6666V26.6666V59.22C36.5616 57.6333 34.225 56.6666 31.6666 56.6666H16.6666V15ZM9.99996 21.6666H13.3333V58.3333C13.3333 59.2533 14.08 60 15 60H31.6666C34.7633 60 37.3516 62.1333 38.0966 65H9.99996V21.6666ZM70 65H41.9033C42.6483 62.1333 45.2366 60 48.3333 60H65C65.92 60 66.6666 59.2533 66.6666 58.3333V21.6666H70V65Z" fill="#00253E"/>
</svg>
