<svg xmlns="http://www.w3.org/2000/svg" width="75" height="75.088" viewBox="0 0 75 75.088">
  <g id="change" transform="translate(-4.128 -3.454)">
    <path id="Path_11762" data-name="Path 11762" d="M70.585,23.2a26.475,26.475,0,0,0-51.507,1.25,19.718,19.718,0,0,1-6.388,10.8A24.632,24.632,0,1,0,52.045,61.96a21.125,21.125,0,0,1,8-10.293A26.417,26.417,0,0,0,70.585,23.2Z" transform="translate(0 0)" fill="#f6f0e2"/>
    <circle id="Ellipse_698" data-name="Ellipse 698" cx="2.514" cy="2.514" r="2.514" transform="translate(20.275 70.977)" fill="#c29b40"/>
    <path id="Path_11763" data-name="Path 11763" d="M48.476,14.587a.607.607,0,0,1-.416-.139,12.4,12.4,0,0,0-6.433-2.635.624.624,0,0,1-.538-.4.659.659,0,0,1,.1-.659,12.363,12.363,0,0,0,2.722-6.433.642.642,0,0,1,1.058-.416,12.38,12.38,0,0,0,6.4,2.688.676.676,0,0,1,.537.416.624.624,0,0,1-.1.642,12.484,12.484,0,0,0-2.688,6.433.676.676,0,0,1-.4.538Zm-5.618-3.9a13.472,13.472,0,0,1,5.2,2.167,13.871,13.871,0,0,1,2.1-5.2,13.767,13.767,0,0,1-5.115-2.081,13.542,13.542,0,0,1-2.185,5.115Z" transform="translate(27.174 0.217)" fill="#c29b40"/>
    <path id="Path_11764" data-name="Path 11764" d="M15.062,10.063,11.45,19.027,35,26.726l26.242-7.49L60.982,8.26,35,15.716Z" transform="translate(5.373 3.527)" fill="#fff"/>
    <path id="Path_11765" data-name="Path 11765" d="M9.54,8.26v9.692l26.823,8.773,23.962-7.057L60.95,8.624,36.363,15.716Z" transform="translate(3.972 3.527)" fill="#fff"/>
    <path id="Path_11766" data-name="Path 11766" d="M37.711,26.207,11.14,17.33s2.275,38.007,23.654,44.509c19.347-5.618,27.214-42.48,27.214-42.48Z" transform="translate(5.146 10.265)" fill="#fff"/>
    <path id="Path_11767" data-name="Path 11767" d="M36.068,26.207,9.54,17.33s5.046,38.007,26.39,44.509c19.7-8.548,25.02-42.654,25.02-42.654Z" transform="translate(3.972 10.265)" fill="#d6bc7f"/>
    <path id="Path_11768" data-name="Path 11768" d="M36.632,27.514a3.468,3.468,0,0,1-1.023-.156L9.6,18.827a.624.624,0,0,1-.451-.607V8.528a.624.624,0,0,1,.295-.451.642.642,0,0,1,.555-.1l12.588,3.468a.648.648,0,1,1-.347,1.248L10.485,9.378v8.357L36.06,26.127a2.1,2.1,0,0,0,1.179,0l24.708-7.282V9.395l-24.4,6.936a3.294,3.294,0,0,1-1.734,0l-6.589-1.838a.648.648,0,1,1,.347-1.248l6.589,1.821a1.89,1.89,0,0,0,1.075,0L62.415,7.9a.676.676,0,0,1,.572.173.659.659,0,0,1,.26.52v10.75a.659.659,0,0,1-.468.624L37.62,27.393A3.468,3.468,0,0,1,36.632,27.514Z" transform="translate(3.685 3.259)" fill="#525666"/>
    <path id="Path_11769" data-name="Path 11769" d="M36.355,62.618a2.74,2.74,0,0,1-.9-.156c-8.669-2.948-15.969-11.669-21.1-25.176a102.611,102.611,0,0,1-5.2-19.61.659.659,0,0,1,.884-.659l26.008,8.669a1.422,1.422,0,0,0,.85,0L62.5,18.473a.659.659,0,0,1,.607.139.624.624,0,0,1,.208.572A89.763,89.763,0,0,1,59.849,33.42a.647.647,0,0,1-1.231-.4A93.3,93.3,0,0,0,61.791,20L37.17,26.935a2.757,2.757,0,0,1-1.63,0L10.624,18.543c1.023,6.051,7.04,36.412,25.228,42.688a1.6,1.6,0,0,0,.988,0c7.542-2.6,13.784-9.259,18.6-19.94a.648.648,0,1,1,1.179.537c-4.959,11.01-11.478,17.946-19.35,20.616a2.774,2.774,0,0,1-.919.173Z" transform="translate(3.685 10.006)" fill="#525666"/>
  </g>
</svg>
