<svg xmlns="http://www.w3.org/2000/svg" width="48" height="48" fill="currentColor"><path d="M35.968 38.752c-1.016-9.974-12.469-10.75-15.955-10.75-3.718 0-15.846.781-16.005 10.882A1 1 0 005 40.01h29.994a1.002 1.002 0 00.968-1.257h.005zM6.066 38.01c.354-2.94 2.612-8.005 13.947-8.005 10.553 0 13.185 5.024 13.816 8.005H6.066z" fill="currentColor"></path><path d="M43.966 38.751h.007c-.248-2.426-1.73-8.272-10.113-10.157a1 1 0 10-.44 1.952c6.053 1.362 7.894 4.94 8.416 7.463h-2.838a1 1 0 100 2.001H43a1.001 1.001 0 00.966-1.259zM28.018 9.991a5.009 5.009 0 015.003 5.003v3.002A5.009 5.009 0 0128.018 23a1 1 0 100 2.002c3.861 0 7.004-3.142 7.004-7.005v-3.002c0-3.862-3.143-7.004-7.004-7.004a1 1 0 100 2.001z" fill="currentColor"></path><path d="M20.013 25c3.861 0 7.004-3.141 7.004-7.004v-3.002c0-3.862-3.143-7.004-7.004-7.004-3.862 0-7.005 3.142-7.005 7.004v3.002c0 3.863 3.143 7.005 7.005 7.005zM15.01 14.995a5.009 5.009 0 015.003-5.003 5.009 5.009 0 015.003 5.003v3.002A5.009 5.009 0 0120.013 23a5.009 5.009 0 01-5.003-5.003v-3.002z" fill="currentColor"></path></svg>