<svg width="80" height="80" viewBox="0 0 80 80" fill="none" xmlns="http://www.w3.org/2000/svg">
<path d="M40.0002 8.33337C22.5385 8.33337 8.3335 22.5384 8.3335 40C8.3335 57.4617 22.5385 71.6667 40.0002 71.6667C57.4618 71.6667 71.6668 57.4617 71.6668 40C71.6668 22.5384 57.4618 8.33337 40.0002 8.33337ZM41.6668 68.2484V66.6667C41.6668 65.7467 40.9202 65 40.0002 65C39.0802 65 38.3335 65.7467 38.3335 66.6667V68.2484C24.0418 67.4117 12.5885 55.9584 11.7518 41.6667H13.3335C14.2535 41.6667 15.0002 40.92 15.0002 40C15.0002 39.08 14.2535 38.3334 13.3335 38.3334H11.7518C12.5885 24.0417 24.0418 12.5884 38.3335 11.7517V13.3334C38.3335 14.2534 39.0802 15 40.0002 15C40.9202 15 41.6668 14.2534 41.6668 13.3334V11.7517C55.9585 12.5884 67.4118 24.0417 68.2485 38.3334H66.6668C65.7468 38.3334 65.0002 39.08 65.0002 40C65.0002 40.92 65.7468 41.6667 66.6668 41.6667H68.2485C67.4118 55.9584 55.9585 67.4117 41.6668 68.2484Z" fill="#00253E"/>
<path d="M48.6133 24.0744L39.1083 38.3327H26.6667C25.7467 38.3327 25 39.0794 25 39.9994C25 40.9194 25.7467 41.6661 26.6667 41.6661H40C40.5567 41.6661 41.0767 41.3877 41.3867 40.9244L51.3867 25.9244C51.8967 25.1594 51.69 24.1227 50.925 23.6127C50.1583 23.1011 49.1233 23.3077 48.6133 24.0744Z" fill="#00253E"/>
</svg>
