<svg width="48" height="48" viewBox="0 0 48 48" fill="none" xmlns="http://www.w3.org/2000/svg">
<path d="M24 4C12.972 4 4 12.972 4 24C4 35.028 12.972 44 24 44C35.028 44 44 35.028 44 24C44 12.972 35.028 4 24 4ZM24 42C14.075 42 6 33.925 6 24C6 14.075 14.075 6 24 6C33.925 6 42 14.075 42 24C42 33.925 33.925 42 24 42Z" fill="#00253E"/>
<path d="M34.078 12.622L21.538 17.639C19.768 18.346 18.347 19.767 17.638 21.538L12.622 34.078C12.474 34.45 12.56 34.874 12.844 35.157C13.035 35.348 13.291 35.45 13.551 35.45C13.676 35.45 13.802 35.427 13.922 35.378L26.462 30.362C28.232 29.654 29.653 28.233 30.362 26.463L35.378 13.922C35.526 13.55 35.44 13.126 35.156 12.843C34.873 12.56 34.448 12.474 34.078 12.622ZM28.505 25.719C27.999 26.984 26.984 27.999 25.72 28.505L15.346 32.655L19.495 22.281C20.001 21.016 21.016 20.001 22.28 19.496L32.654 15.346L28.505 25.719Z" fill="#00253E"/>
<path d="M22.547 25.454C22.947 25.855 23.474 26.055 24 26.055C24.526 26.055 25.053 25.855 25.453 25.454C25.453 25.454 25.453 25.454 25.454 25.454C26.254 24.653 26.254 23.349 25.453 22.547C24.652 21.745 23.349 21.746 22.546 22.547C21.746 23.348 21.746 24.652 22.547 25.454Z" fill="#00253E"/>
</svg>
