<svg width="24" height="24" viewBox="0 0 24 24" fill="none" xmlns="http://www.w3.org/2000/svg">
<path d="M20.925 3.05744C19.538 1.67044 17.12 1.67144 15.734 3.05744L3.07497 15.7164C2.96497 15.8264 2.89197 15.9664 2.86597 16.1194L2.01097 21.1044C1.96997 21.3444 2.04797 21.5894 2.21997 21.7614C2.36197 21.9044 2.55297 21.9824 2.74997 21.9824C2.79197 21.9824 2.83397 21.9794 2.87697 21.9714L7.86197 21.1164C8.01497 21.0904 8.15597 21.0174 8.26497 20.9074L20.925 8.24844C21.618 7.55544 22 6.63344 22 5.65344C22 4.67244 21.619 3.75144 20.925 3.05744ZM8.16197 18.8904L7.15797 17.8864L16.781 8.26344L17.785 9.26744L8.16197 18.8904ZM6.09697 16.8254L5.09197 15.8204L14.715 6.19744L15.72 7.20244L6.09697 16.8254ZM4.22397 17.0744L6.90797 19.7584L3.66897 20.3144L4.22397 17.0744ZM19.865 7.18744L18.845 8.20744L15.776 5.13744L16.796 4.11744C17.643 3.27044 19.019 3.27144 19.866 4.11744C20.276 4.52744 20.502 5.07244 20.502 5.65244C20.5 6.23244 20.275 6.77744 19.865 7.18744Z" fill="#00253E"/>
</svg>
