<svg width="80" height="80" viewBox="0 0 80 80" fill="none" xmlns="http://www.w3.org/2000/svg">
<path d="M72.8232 70.4883L58.9566 56.6216C63.7199 51.3116 66.6449 44.3216 66.6449 36.6433C66.6449 20.1133 53.1982 6.66663 36.6682 6.66663C20.1382 6.66663 6.68823 20.1133 6.68823 36.6433C6.68823 53.1733 20.1366 66.6216 36.6666 66.6216C44.3216 66.6216 51.2932 63.7133 56.5966 58.975L70.4666 72.845C70.7916 73.17 71.2182 73.3333 71.6449 73.3333C72.0716 73.3333 72.4982 73.17 72.8232 72.845C73.4749 72.1933 73.4749 71.14 72.8232 70.4883ZM10.0216 36.6433C10.0216 21.9533 21.9749 9.99996 36.6682 9.99996C51.3582 9.99996 63.3116 21.9533 63.3116 36.6433C63.3116 43.9783 60.3316 50.6283 55.5199 55.4516C55.5032 55.4666 55.4816 55.4716 55.4666 55.4866C55.4532 55.5 55.4499 55.5166 55.4382 55.53C50.6182 60.32 43.9849 63.2883 36.6682 63.2883C21.9749 63.29 10.0216 51.3366 10.0216 36.6433Z" fill="#00253E"/>
</svg>
