<svg width="80" height="80" viewBox="0 0 80 80" fill="none" xmlns="http://www.w3.org/2000/svg">
<path d="M66.3463 61.0616C61.5896 55.9333 52.7246 53.3333 39.9963 53.3333C27.2696 53.3333 18.4063 55.9332 13.6496 61.0583C11.7846 63.0699 9.6396 66.5033 9.99793 71.5866C9.98793 71.7966 10.0179 72.0099 10.0896 72.2166C10.3229 72.8849 10.9546 73.3333 11.6629 73.3333H68.3296C69.0363 73.3333 69.6663 72.8866 69.9013 72.2216C69.9813 71.9966 70.0079 71.7616 69.9913 71.5333H69.9979C70.3763 66.5399 68.2213 63.0833 66.3463 61.0616ZM13.2913 69.9999C13.3813 67.4799 14.3196 65.2383 16.0963 63.3249C20.1363 58.9683 28.4013 56.6666 39.9963 56.6666C51.5929 56.6666 59.8596 58.9699 63.9013 63.3283C65.6746 65.2416 66.6146 67.4816 66.7029 69.9999H13.2913Z" fill="#00253E"/>
<path d="M24.4079 40H27.7646C29.8179 44.7233 34.5246 48.0366 39.9946 48.0366C44.0563 48.0366 47.6929 46.2066 50.1396 43.3333H50.5696C52.6313 43.3333 54.3529 41.91 54.8413 40H55.5813C57.4963 40 59.1629 39.0916 60.2729 37.44C61.1713 36.1116 61.6629 34.3566 61.6629 32.5C61.6629 29.13 59.9396 25.7516 56.6629 25.13V23.3333C56.6629 14.1433 49.1863 6.66663 39.9963 6.66663C30.8063 6.66663 23.3296 14.1433 23.3296 23.3333V25.13C21.8746 25.41 20.6096 26.23 19.7163 27.5583C18.8213 28.8883 18.3296 30.6433 18.3296 32.5C18.3296 36.2266 20.4179 40 24.4079 40ZM39.9963 44.7033C34.4813 44.7033 29.9963 40.2183 29.9963 34.7033V28.3333C29.9963 22.8183 34.4813 18.3333 39.9963 18.3333C45.5113 18.3333 49.9963 22.8183 49.9963 28.3333V34.7033C49.9963 36.65 49.4279 38.4616 48.4629 40H43.3296C43.3296 39.08 42.5846 38.3333 41.6629 38.3333H38.3296C37.4079 38.3333 36.6629 39.08 36.6629 40V41.6666C36.6629 42.5866 37.4079 43.3333 38.3296 43.3333H45.0246C43.5463 44.1983 41.8313 44.7033 39.9963 44.7033ZM58.3296 32.5C58.3296 33.6833 58.0313 34.805 57.5113 35.58C57.0196 36.3116 56.3896 36.6666 55.5846 36.6666H53.1696C53.2646 36.025 53.3296 35.3716 53.3296 34.7033V28.3333H55.5846C57.7563 28.3333 58.3296 31.0583 58.3296 32.5ZM39.9963 9.99996C47.3479 9.99996 53.3296 15.9816 53.3296 23.3333V25H52.8913C51.4046 19.2583 46.1946 15 39.9963 15C33.7979 15 28.5879 19.2583 27.1013 25H26.6629V23.3333C26.6629 15.9816 32.6446 9.99996 39.9963 9.99996ZM22.4813 29.42C22.9729 28.6883 23.6029 28.3333 24.4079 28.3333H26.6629V34.7033C26.6629 35.3716 26.7279 36.0233 26.8246 36.6666H24.4096C22.2363 36.6666 21.6629 33.9416 21.6629 32.5C21.6629 31.3166 21.9613 30.195 22.4813 29.42Z" fill="#00253E"/>
</svg>
