<svg width="80" height="80" viewBox="0 0 80 80" fill="none" xmlns="http://www.w3.org/2000/svg">
<path d="M46.1788 23.8218C45.5271 23.1701 44.4738 23.1701 43.8221 23.8218L23.8221 43.8218C23.1705 44.4734 23.1705 45.5268 23.8221 46.1784L33.8221 56.1784C34.1471 56.5034 34.5738 56.6668 35.0005 56.6668C35.4271 56.6668 35.8538 56.5034 36.1788 56.1784L56.1788 36.1784C56.8305 35.5268 56.8305 34.4734 56.1788 33.8218L46.1788 23.8218ZM35.0005 52.6434L27.3571 45.0001L45.0005 27.3568L52.6438 35.0001L35.0005 52.6434Z" fill="#00253E"/>
<path d="M72.8454 27.8051L68.7337 23.6951C68.2237 23.1834 67.4404 23.0601 66.7954 23.3901C63.8787 24.8834 60.3787 24.3501 58.087 22.0568C55.7954 19.7634 55.2604 16.2651 56.7554 13.3484C57.0854 12.7034 56.9637 11.9218 56.4504 11.4084L52.1954 7.15342C51.5437 6.50176 50.4904 6.50176 49.8387 7.15342L7.15538 49.8368C6.50371 50.4884 6.50371 51.5418 7.15538 52.1934L11.3437 56.3818C11.8537 56.8934 12.6337 57.0151 13.2787 56.6884C16.192 55.2051 19.6837 55.7434 21.9704 58.0284C24.257 60.3151 24.7954 63.8084 23.3104 66.7201C22.982 67.3634 23.1054 68.1451 23.617 68.6551L27.8054 72.8434C28.1304 73.1701 28.557 73.3334 28.9837 73.3334C29.4104 73.3334 29.837 73.1701 30.162 72.8451L72.8454 30.1618C73.1587 29.8501 73.3337 29.4251 73.3337 28.9834C73.3337 28.5418 73.1587 28.1184 72.8454 27.8051ZM28.9837 69.3101L26.7804 67.1051C28.2654 63.1551 27.3454 58.6917 24.327 55.6734C21.3087 52.6534 16.8454 51.7351 12.8954 53.2201L10.6904 51.0168L51.017 10.6901L53.287 12.9601C51.7887 16.9168 52.7037 21.3884 55.7304 24.4151C58.7554 27.4434 63.2287 28.3601 67.1854 26.8601L69.3104 28.9851L28.9837 69.3101Z" fill="#00253E"/>
</svg>
