<svg width="80" height="80" viewBox="0 0 80 80" fill="none" xmlns="http://www.w3.org/2000/svg">
<path d="M66.3886 54.395C61.6319 49.2666 52.7669 46.6666 40.0386 46.6666C27.3103 46.6666 18.4453 49.2666 13.6886 54.395C11.8236 56.4083 9.67858 59.8433 10.0403 64.9233C10.0303 65.1333 10.0603 65.3466 10.1336 65.555C10.3686 66.22 10.9986 66.6666 11.7053 66.6666H28.3719C29.2936 66.6666 30.0386 65.92 30.0386 65C30.0386 64.08 29.2936 63.3333 28.3719 63.3333H13.3336C13.4219 60.815 14.3603 58.575 16.1353 56.6616C20.1753 52.3033 28.4419 50 40.0386 50C51.6353 50 59.9019 52.3033 63.9436 56.6616C65.7169 58.575 66.6569 60.815 66.7452 63.3333H51.7053C50.7836 63.3333 50.0386 64.08 50.0386 65C50.0386 65.92 50.7836 66.6666 51.7053 66.6666H68.3719C69.0786 66.6666 69.7086 66.22 69.9436 65.555C70.0236 65.33 70.0503 65.095 70.0336 64.8666H70.0402C70.4186 59.8733 68.2636 56.4166 66.3886 54.395Z" fill="#00253E"/>
<path d="M44.5704 61.0733L37.9038 68.3033L36.1504 66.6316C35.4838 65.9983 34.4304 66.0216 33.7938 66.6883C33.1588 67.3549 33.1838 68.4099 33.8488 69.0449L36.8288 71.8866C37.1404 72.1833 37.5521 72.3466 37.9788 72.3466C37.9971 72.3466 38.0138 72.3466 38.0321 72.3466C38.4788 72.3316 38.9004 72.1383 39.2038 71.8099L47.0188 63.3349C47.6421 62.6583 47.6004 61.6033 46.9221 60.9799C46.2488 60.3533 45.1971 60.3966 44.5704 61.0733Z" fill="#00253E"/>
<path d="M40 40C47.3515 40 53.3334 33.8687 53.3334 26.33V20.3366C53.3334 12.7979 47.3515 6.66663 40 6.66663C32.6486 6.66663 26.6667 12.7979 26.6667 20.3366V26.33C26.6667 33.8687 32.6486 40 40 40ZM29.9471 20.3366C29.9471 14.6544 34.4561 10.0299 40 10.0299C45.544 10.0299 50.0529 14.6544 50.0529 20.3366V26.33C50.0529 32.0122 45.544 36.6367 40 36.6367C34.4561 36.6367 29.9471 32.0122 29.9471 26.33V20.3366Z" fill="#00253E"/>
</svg>
