<?xml version="1.0" encoding="UTF-8"?>
<svg width="51px" height="66px" viewBox="0 0 51 66" version="1.1" xmlns="http://www.w3.org/2000/svg" xmlns:xlink="http://www.w3.org/1999/xlink">
    <title>Asset 7 Copy</title>
    <g id="Cognito-16---Support-V2" stroke="none" stroke-width="1" fill="none" fill-rule="evenodd">
        <g id="Support-2" transform="translate(-984.000000, -397.000000)">
            <g id="Asset-7-Copy" transform="translate(984.000000, 397.000000)">
                <path d="M3.33,65.31 L47.46,65.31 C49.2991082,65.31 50.79,63.8191082 50.79,61.98 L50.79,3.33 C50.79,1.49089178 49.2991082,0 47.46,0 L3.33,0 C1.49089178,0 0,1.49089178 0,3.33 L0,61.98 C0,63.8191082 1.49089178,65.31 3.33,65.31 Z" id="Path" fill="#045EB8"></path>
                <polygon id="Path" fill="#FFFFFF" points="45.48 4.74 45.48 60.57 5.31 60.57 5.31 4.74"></polygon>
                <path d="M15.84,9.45 L15.84,0 L34.95,0 L34.95,9.45 L15.84,9.45 Z M32.79,7.59 L32.79,1.86 L18,1.86 L18,7.59 L32.79,7.59 Z" id="Shape" fill="#666666"></path>
                <path d="M11.49,18.45 L11.49,18.45 C12.2785948,18.4659361 12.9140639,19.1014052 12.93,19.89 L12.93,19.89 C12.9140639,20.6785948 12.2785948,21.3140639 11.49,21.33 L11.49,21.33 C10.7014052,21.3140639 10.0659361,20.6785948 10.05,19.89 L10.05,19.89 C10.0659361,19.1014052 10.7014052,18.4659361 11.49,18.45 Z" id="Path" fill="#E02828"></path>
                <path d="M11.49,26.16 L11.49,26.16 C11.8719117,26.16 12.2381814,26.3117139 12.5082338,26.5817662 C12.7782861,26.8518186 12.93,27.2180883 12.93,27.6 L12.93,27.6 C12.9136725,28.38355 12.2737201,29.0101701 11.49,29.01 L11.49,29.01 C10.7062799,29.0101701 10.0663275,28.38355 10.05,27.6 L10.05,27.6 C10.05,26.80471 10.69471,26.16 11.49,26.16 L11.49,26.16 Z" id="Path" fill="#FFCB05"></path>
                <path d="M11.49,34.32 L11.49,34.32 C12.2785948,34.3359361 12.9140639,34.9714052 12.93,35.76 L12.93,35.76 C12.9140639,36.5485948 12.2785948,37.1840639 11.49,37.2 L11.49,37.2 C10.7014052,37.1840639 10.0659361,36.5485948 10.05,35.76 L10.05,35.76 C10.0659361,34.9714052 10.7014052,34.3359361 11.49,34.32 Z" id="Path" fill="#6699FF"></path>
                <rect id="Rectangle" fill="#2C3E50" fill-rule="nonzero" x="15.84" y="19.17" width="22.23" height="1.44"></rect>
                <rect id="Rectangle" fill="#2C3E50" fill-rule="nonzero" x="15.84" y="26.88" width="24.03" height="1.44"></rect>
                <rect id="Rectangle" fill="#2C3E50" fill-rule="nonzero" x="15.84" y="35.04" width="18.93" height="1.44"></rect>
                <polygon id="Path" fill="#999999" points="15.84 4.71 15.84 0 34.95 0 34.95 4.71 32.79 4.71 32.79 1.86 18 1.86 18 4.86"></polygon>
            </g>
        </g>
    </g>
</svg>