<svg xmlns="http://www.w3.org/2000/svg" width="59.924" height="48.569" viewBox="0 0 59.924 48.569">
  <g id="r1" transform="translate(-50.069 -1123.349)">
    <path id="Path_183" data-name="Path 183" d="M50.848,1147.78a2.28,2.28,0,0,0,.407,2.9l2.006,1.809a12.673,12.673,0,0,0-.184,5.039l-2.132,1.647a2.278,2.278,0,0,0-.612,2.86l1.19,2.2a2.273,2.273,0,0,0,2.722,1.089l2.534-.79a12.472,12.472,0,0,0,4.272,2.664l.371,2.68a2.278,2.278,0,0,0,2.159,1.972l2.5.067a2.279,2.279,0,0,0,2.311-1.8l.6-2.613a12.488,12.488,0,0,0,4.417-2.4l2.538,1.058a2.276,2.276,0,0,0,2.793-.89l1.347-2.107a2.277,2.277,0,0,0-.4-2.9l-2.006-1.809a12.693,12.693,0,0,0,.184-5.039l2.132-1.658a2.274,2.274,0,0,0,.612-2.858l-1.19-2.2a2.275,2.275,0,0,0-2.721-1.09l-2.605.779a12.483,12.483,0,0,0-4.231-2.713l-.371-2.679a2.278,2.278,0,0,0-2.205-1.929l-2.5-.118a2.276,2.276,0,0,0-2.31,1.8l-.551,2.659a12.47,12.47,0,0,0-4.456,2.345l-2.5-1a2.276,2.276,0,0,0-2.793.888Z" fill="#00bbd8"/>
    <path id="Path_184" data-name="Path 184" d="M69.058,1159.335a5.29,5.29,0,1,1,.273-7.477,5.289,5.289,0,0,1-.273,7.477" fill="#00bbd8"/>
    <path id="Path_185" data-name="Path 185" d="M73.951,1158.193a8.924,8.924,0,1,1-5.762-11.229,8.924,8.924,0,0,1,5.762,11.229" fill="#fff"/>
    <path id="Path_186" data-name="Path 186" d="M100.256,1145.7a10.025,10.025,0,1,1-6.473-12.613,10.024,10.024,0,0,1,6.473,12.613" fill="#273c88"/>
    <path id="Path_187" data-name="Path 187" d="M108.783,1144.8l-2.659-1.4a15.186,15.186,0,0,0-.325-3.977l2.4-1.81a2.276,2.276,0,0,0,.648-2.855l-1.14-2.254a2.277,2.277,0,0,0-2.7-1.135l-2.869.89a15.37,15.37,0,0,0-3.041-2.582l.395-2.981a2.274,2.274,0,0,0-1.556-2.472l-2.382-.766a2.275,2.275,0,0,0-2.708,1.1l-1.406,2.655a15.13,15.13,0,0,0-3.976.327l-1.795-2.385a2.28,2.28,0,0,0-2.853-.652l-2.234,1.148v0a2.271,2.271,0,0,0-1.137,2.693l.892,2.87h0a15.262,15.262,0,0,0-2.58,3.039l-2.976-.4a2.277,2.277,0,0,0-2.472,1.556l-.765,2.381a2.277,2.277,0,0,0,1.1,2.7l2.657,1.4a15.4,15.4,0,0,0,.219,3.384l.928-.278a2.9,2.9,0,0,1,3.469,1.385l1.192,2.2a2.9,2.9,0,0,1-.78,3.646l-1.022.795a15.432,15.432,0,0,0,3.007,2.555l-.415,2.975a2.284,2.284,0,0,0,1.559,2.473l2.382.766a2.279,2.279,0,0,0,2.706-1.1l1.4-2.659h0a15.325,15.325,0,0,0,3.976-.327l1.811,2.4a2.279,2.279,0,0,0,2.854.647l2.235-1.146a2.274,2.274,0,0,0,1.137-2.7l-.891-2.87a15.3,15.3,0,0,0,2.6-3.009l2.982.394a2.277,2.277,0,0,0,2.473-1.558l.766-2.381a2.279,2.279,0,0,0-1.105-2.695m-21.144,7.4a10.05,10.05,0,1,1,12.645-6.491,10.052,10.052,0,0,1-12.645,6.491" fill="#00bbd8"/>
    <path id="Path_188" data-name="Path 188" d="M95.693,1144.231a5.231,5.231,0,1,1-3.378-6.582,5.23,5.23,0,0,1,3.378,6.582" fill="#fff"/>
    <path id="Path_189" data-name="Path 189" d="M69.058,1159.335a5.29,5.29,0,1,1,.273-7.477,5.289,5.289,0,0,1-.273,7.477" fill="#00bbd8"/>
  </g>
</svg>
