<svg xmlns="http://www.w3.org/2000/svg" width="59.925" height="48.569" viewBox="0 0 59.925 48.569">
  <g id="_13" data-name="13" transform="translate(-7468.647 -4169.904)">
    <path id="Path_131" data-name="Path 131" d="M7469.426,4194.336a2.28,2.28,0,0,0,.408,2.9l2.006,1.809a12.659,12.659,0,0,0-.184,5.039l-2.132,1.648a2.275,2.275,0,0,0-.613,2.858l1.191,2.2a2.273,2.273,0,0,0,2.721,1.09l2.535-.791a12.489,12.489,0,0,0,4.272,2.665l.371,2.678a2.28,2.28,0,0,0,2.158,1.974l2.5.065a2.277,2.277,0,0,0,2.31-1.8l.595-2.612a12.5,12.5,0,0,0,4.418-2.4l2.537,1.057a2.275,2.275,0,0,0,2.794-.889l1.348-2.107a2.276,2.276,0,0,0-.4-2.9l-2.005-1.809a12.714,12.714,0,0,0,.184-5.039l2.132-1.658a2.277,2.277,0,0,0,.612-2.859l-1.19-2.2a2.275,2.275,0,0,0-2.722-1.09l-2.6.779a12.483,12.483,0,0,0-4.23-2.713l-.371-2.678a2.28,2.28,0,0,0-2.205-1.931l-2.5-.117a2.276,2.276,0,0,0-2.31,1.8l-.552,2.658a12.493,12.493,0,0,0-4.455,2.346l-2.5-1.006a2.278,2.278,0,0,0-2.794.889Z" fill="#4cb7bf"/>
    <circle id="Ellipse_11" data-name="Ellipse 11" cx="5.29" cy="5.29" r="5.29" transform="translate(7478.745 4196.727)" fill="#4cb7bf"/>
    <circle id="Ellipse_12" data-name="Ellipse 12" cx="8.924" cy="8.924" r="8.924" transform="translate(7475.111 4193.092)" fill="#fff"/>
    <circle id="Ellipse_13" data-name="Ellipse 13" cx="10.024" cy="10.024" r="10.024" transform="translate(7499.268 4179.161)" fill="#0f0e71"/>
    <path id="Path_132" data-name="Path 132" d="M7499.867,4189.768a6.262,6.262,0,0,1-.659.273A1.069,1.069,0,0,0,7499.867,4189.768Z" fill="none"/>
    <path id="Path_133" data-name="Path 133" d="M7512.37,4179.617a10.05,10.05,0,1,0,6.49,12.646A10.051,10.051,0,0,0,7512.37,4179.617Z" fill="none"/>
    <path id="Path_134" data-name="Path 134" d="M7527.362,4191.356l-2.658-1.4a15.127,15.127,0,0,0-.326-3.976l2.4-1.811a2.276,2.276,0,0,0,.648-2.854l-1.141-2.254a2.277,2.277,0,0,0-2.7-1.137l-2.87.892a15.371,15.371,0,0,0-3.04-2.583l.394-2.981a2.276,2.276,0,0,0-1.556-2.473l-2.382-.766a2.276,2.276,0,0,0-2.708,1.1l-1.406,2.656a15.168,15.168,0,0,0-3.976.325l-1.795-2.384a2.278,2.278,0,0,0-2.853-.651l-2.235,1.147v0a2.273,2.273,0,0,0-1.136,2.695l.892,2.869,0,0a15.286,15.286,0,0,0-2.58,3.038l-2.975-.4a2.276,2.276,0,0,0-2.472,1.556l-.767,2.382a2.278,2.278,0,0,0,1.1,2.7h0l2.659,1.4a15.335,15.335,0,0,0,.218,3.383l.929-.278a2.9,2.9,0,0,1,3.467,1.387l1.194,2.2a2.9,2.9,0,0,1-.782,3.645l-1.022.795a15.445,15.445,0,0,0,3.007,2.555l-.413,2.976a2.281,2.281,0,0,0,1.558,2.473l2.383.766a2.277,2.277,0,0,0,2.705-1.1l1.4-2.659h0a15.324,15.324,0,0,0,3.975-.325l1.812,2.4a2.28,2.28,0,0,0,2.854.649l2.235-1.147a2.277,2.277,0,0,0,1.137-2.7l-.892-2.869a15.314,15.314,0,0,0,2.6-3.01l2.982.394a2.278,2.278,0,0,0,2.473-1.558l.766-2.382A2.277,2.277,0,0,0,7527.362,4191.356Zm-21.144,7.4a10.051,10.051,0,1,1,12.646-6.49A10.052,10.052,0,0,1,7506.218,4198.76Z" fill="#4cb7bf"/>
    <circle id="Ellipse_14" data-name="Ellipse 14" cx="5.231" cy="5.231" r="5.231" transform="translate(7504.061 4183.954)" fill="#fff"/>
    <circle id="Ellipse_15" data-name="Ellipse 15" cx="5.29" cy="5.29" r="5.29" transform="translate(7478.745 4196.727)" fill="#4cb7bf"/>
  </g>
</svg>
