<svg xmlns="http://www.w3.org/2000/svg" width="38.903" height="39.383" viewBox="0 0 38.903 39.383">
  <g id="_17" data-name="17" transform="translate(-7472.472 -4919.946)">
    <path id="Path_152" data-name="Path 152" d="M7473.946,4940.468a17.073,17.073,0,0,1,15.823,10.915,17.5,17.5,0,0,1,1.086,5.977,1.488,1.488,0,0,0,2.974,0,19.866,19.866,0,0,0-19.881-19.866,1.488,1.488,0,0,0,0,2.974Z" fill="#4cb7bf"/>
    <path id="Path_153" data-name="Path 153" d="M7473.946,4931.784a26.442,26.442,0,0,1,24.417,16.654,26.843,26.843,0,0,1,1.783,8.922c.044,1.9,3.018,1.917,2.974,0a29.2,29.2,0,0,0-5.518-16.447,29.619,29.619,0,0,0-13.679-10.352,29.306,29.306,0,0,0-9.98-1.754,1.489,1.489,0,0,0,0,2.977Z" fill="#4cb7bf"/>
    <path id="Path_154" data-name="Path 154" d="M7473.946,4922.9a34.445,34.445,0,0,1,32.329,22.512,35.156,35.156,0,0,1,2.126,11.94,1.488,1.488,0,0,0,2.974,0,37.444,37.444,0,0,0-6.84-21.562,37.355,37.355,0,0,0-30.589-15.849,1.481,1.481,0,0,0,0,2.96Z" fill="#4cb7bf"/>
    <path id="Path_155" data-name="Path 155" d="M7482.481,4953.6a4.268,4.268,0,1,1-4.269-4.269,4.268,4.268,0,0,1,4.269,4.269" fill="#0f0e71"/>
    <path id="Path_156" data-name="Path 156" d="M7480.994,4953.6a2.78,2.78,0,1,1-2.779-2.779,2.8,2.8,0,0,1,2.779,2.779c.044,1.9,3.018,1.917,2.974,0a5.841,5.841,0,0,0-3.793-5.4,5.754,5.754,0,0,0-6.915,8.33,5.748,5.748,0,0,0,10.691-2.928c.061-1.908-2.913-1.908-2.957,0Z" fill="#0f0e71"/>
  </g>
</svg>
