<svg xmlns="http://www.w3.org/2000/svg" width="38.902" height="39.382" viewBox="0 0 38.902 39.382">
  <g id="n2" transform="translate(-318.87 -1390.67)">
    <path id="Path_197" data-name="Path 197" d="M320.343,1411.191a17.071,17.071,0,0,1,15.823,10.915,17.454,17.454,0,0,1,1.086,5.978,1.488,1.488,0,0,0,2.974,0,19.865,19.865,0,0,0-19.88-19.867A1.488,1.488,0,0,0,320.343,1411.191Z" fill="#00bbd8"/>
    <path id="Path_198" data-name="Path 198" d="M320.343,1402.507a26.444,26.444,0,0,1,24.417,16.654,26.85,26.85,0,0,1,1.784,8.923c.043,1.9,3.017,1.916,2.974,0A29.2,29.2,0,0,0,344,1411.636a29.612,29.612,0,0,0-13.679-10.351,29.3,29.3,0,0,0-9.979-1.755A1.489,1.489,0,0,0,320.343,1402.507Z" fill="#00bbd8"/>
    <path id="Path_199" data-name="Path 199" d="M320.343,1393.629a34.441,34.441,0,0,1,32.329,22.511,35.146,35.146,0,0,1,2.126,11.941,1.488,1.488,0,0,0,2.974,0,37.439,37.439,0,0,0-6.839-21.563,37.84,37.84,0,0,0-17.668-13.559,37.451,37.451,0,0,0-12.922-2.289A1.48,1.48,0,0,0,320.343,1393.629Z" fill="#00bbd8"/>
    <path id="Path_200" data-name="Path 200" d="M328.879,1424.323a4.268,4.268,0,1,1-4.269-4.27,4.268,4.268,0,0,1,4.269,4.27" fill="#273c88"/>
    <path id="Path_201" data-name="Path 201" d="M327.392,1424.323a2.78,2.78,0,1,1-2.781-2.78,2.8,2.8,0,0,1,2.781,2.78c.043,1.9,3.018,1.917,2.974,0a5.842,5.842,0,0,0-3.793-5.4,5.755,5.755,0,0,0-6.915,8.33,5.748,5.748,0,0,0,10.691-2.927c.061-1.908-2.914-1.908-2.957,0" fill="#273c88"/>
  </g>
</svg>
