<svg xmlns="http://www.w3.org/2000/svg" width="34.361" height="25.977" viewBox="0 0 34.361 25.977">
  <g id="icon-13" transform="translate(-11211.109 -1131.918)">
    <path id="Path_792" data-name="Path 792" d="M11221.106,1154.2a19.511,19.511,0,0,1,7.177,3.12v-21.508a19.668,19.668,0,0,0-7.2-3.125c-4.106-.789-9.471.77-9.471.77v21.508s5.382-1.556,9.5-.765Z" fill="none" stroke="#fff" stroke-linecap="round" stroke-linejoin="round" stroke-width="1" fill-rule="evenodd"/>
    <line id="Line_50" data-name="Line 50" x2="8.767" transform="translate(11215.61 1139.348)" fill="none" stroke="#fff" stroke-linecap="round" stroke-linejoin="round" stroke-width="1"/>
    <line id="Line_51" data-name="Line 51" x2="8.767" transform="translate(11215.61 1143.314)" fill="none" stroke="#fff" stroke-linecap="round" stroke-linejoin="round" stroke-width="1"/>
    <line id="Line_52" data-name="Line 52" x2="8.767" transform="translate(11215.61 1147.489)" fill="none" stroke="#fff" stroke-linecap="round" stroke-linejoin="round" stroke-width="1"/>
    <path id="Path_814" data-name="Path 814" d="M11244.971,1155.04v-21.508s-4.918-1.56-9.022-.77a20.7,20.7,0,0,0-7.307,3.125V1157.4a20.527,20.527,0,0,1,7.28-3.122c4.115-.79,9.048.767,9.048.767Z" fill="none" stroke="#fff" stroke-linecap="round" stroke-linejoin="round" stroke-width="1" fill-rule="evenodd"/>
    <line id="Line_54" data-name="Line 54" x2="8.767" transform="translate(11232.936 1139.348)" fill="none" stroke="#fff" stroke-linecap="round" stroke-linejoin="round" stroke-width="1"/>
    <line id="Line_55" data-name="Line 55" x2="8.767" transform="translate(11232.936 1143.314)" fill="none" stroke="#fff" stroke-linecap="round" stroke-linejoin="round" stroke-width="1"/>
    <line id="Line_56" data-name="Line 56" x2="8.767" transform="translate(11232.936 1147.489)" fill="none" stroke="#fff" stroke-linecap="round" stroke-linejoin="round" stroke-width="1"/>
  </g>
</svg>
