<svg xmlns="http://www.w3.org/2000/svg" width="85.812" height="89.059" viewBox="0 0 85.812 89.059">
  <g id="_5" data-name="5" transform="translate(-7534.583 -3346.031)">
    <rect id="Rectangle_37" data-name="Rectangle 37" width="60.369" height="79.559" rx="2.133" transform="translate(7534.583 3346.031)" fill="#6b3791"/>
    <path id="Path_107" data-name="Path 107" d="M7582.233,3358v9.215h9.216A9.218,9.218,0,0,0,7582.233,3358Z" fill="#f2eeea"/>
    <path id="Path_108" data-name="Path 108" d="M7570.787,3369.448a9.215,9.215,0,0,0,18.431,0H7580v-9.216A9.215,9.215,0,0,0,7570.787,3369.448Z" fill="#09023c"/>
    <rect id="Rectangle_38" data-name="Rectangle 38" width="24.279" height="1.982" rx="0.874" transform="translate(7543.059 3362.057)" fill="#f2eeea"/>
    <rect id="Rectangle_39" data-name="Rectangle 39" width="24.279" height="1.982" rx="0.874" transform="translate(7543.059 3367.388)" fill="#f2eeea"/>
    <path id="Path_109" data-name="Path 109" d="M7559.18,3372.72h-15.13a.991.991,0,0,0,0,1.982h15.13a.991.991,0,0,0,0-1.982Z" fill="#f2eeea"/>
    <rect id="Rectangle_40" data-name="Rectangle 40" width="24.279" height="1.982" rx="0.874" transform="translate(7565.517 3394.04)" fill="#f2eeea"/>
    <path id="Path_110" data-name="Path 110" d="M7581.638,3399.371h-15.131a.991.991,0,0,0,0,1.982h15.131a.991.991,0,0,0,0-1.982Z" fill="#f2eeea"/>
    <rect id="Rectangle_41" data-name="Rectangle 41" width="4.352" height="9.964" transform="translate(7545.065 3397.159)" fill="#09023c"/>
    <rect id="Rectangle_42" data-name="Rectangle 42" width="4.352" height="17.503" transform="translate(7550.833 3389.619)" fill="#f2eeea"/>
    <rect id="Rectangle_43" data-name="Rectangle 43" width="4.352" height="15.262" transform="translate(7556.602 3391.86)" fill="#09023c"/>
    <rect id="Rectangle_44" data-name="Rectangle 44" width="2.135" height="5.218" rx="1.067" transform="matrix(0.397, -0.918, 0.918, 0.397, 7594.742, 3423.142)" fill="#f2eeea"/>
    <circle id="Ellipse_9" data-name="Ellipse 9" cx="11.797" cy="11.797" r="11.797" transform="translate(7572.282 3405.624)" fill="#f2eeea"/>
    <path id="Path_111" data-name="Path 111" d="M7591.657,3414.068a1.907,1.907,0,0,0,.229.861l-3.786,3.9a2.149,2.149,0,0,0-1.033-.286,2.118,2.118,0,0,0-1.205.344l-3.442-3.1a2.478,2.478,0,0,1,.057-.287,2.126,2.126,0,0,0-4.246,0,.428.428,0,0,0,.058.287l-3.1,2.754c-.115,0-.287-.058-.459-.058a2.059,2.059,0,0,0-2.123,2.008,2.126,2.126,0,0,0,4.245,0,1.725,1.725,0,0,0-.287-.918l2.7-2.409a2.22,2.22,0,0,0,2.18,0l3.558,3.155v.172a2.126,2.126,0,0,0,4.245,0,.731.731,0,0,0-.057-.344l4.131-4.246a1.576,1.576,0,0,0,.516.058,2.059,2.059,0,0,0,2.123-2.008,2.1,2.1,0,0,0-2.123-2.008,2.247,2.247,0,0,0-2.18,2.122Z" fill="#91439d"/>
    <g id="Ellipse_10" data-name="Ellipse 10" transform="translate(7570.808 3404.062)" fill="none" stroke="#3a126c" stroke-miterlimit="10" stroke-width="2.194">
      <circle cx="13.322" cy="13.322" r="13.322" stroke="none"/>
      <circle cx="13.322" cy="13.322" r="12.225" fill="none"/>
    </g>
    <rect id="Rectangle_45" data-name="Rectangle 45" width="5.376" height="23.166" rx="2.688" transform="translate(7597 3425.886) rotate(-66.589)" fill="#3a126c"/>
  </g>
</svg>
