<svg xmlns="http://www.w3.org/2000/svg" width="76.668" height="76.989" viewBox="0 0 76.668 76.989">
  <g id="_4" data-name="4" transform="translate(-7812.434 -3180.584)">
    <path id="Path_66" data-name="Path 66" d="M7878.7,3257.573h-26.577a10.4,10.4,0,0,1-10.4-10.4v-31.431a8.486,8.486,0,0,1,1.916-5.371L7855.389,3196a8.48,8.48,0,0,1,6.565-3.112h6.914a8.481,8.481,0,0,1,6.565,3.112l11.753,14.367a8.488,8.488,0,0,1,1.916,5.371v31.431A10.4,10.4,0,0,1,7878.7,3257.573Z" fill="#243695"/>
    <path id="Path_67" data-name="Path 67" d="M7874.472,3237.691c0,2.855-1.712,5.049-4.7,6.02a11,11,0,0,1-2.012.439v3.285a1.128,1.128,0,0,1-1.177,1.062h-1.976a1.127,1.127,0,0,1-1.177-1.062v-3.256a.918.918,0,0,1,.007-.117c-2.7-.415-5.244-1.472-6.617-2.969a1.736,1.736,0,0,1,.273-2.616,2.215,2.215,0,0,1,2.9.246,7.1,7.1,0,0,0,3.564,1.577,10.052,10.052,0,0,0,4.818-.085,2.434,2.434,0,0,0,1.974-2.524c0-2.423-1.62-3.2-5.6-4.522a19.919,19.919,0,0,1-5.229-2.3,6.732,6.732,0,0,1,.968-11.638,10.116,10.116,0,0,1,2.94-.819v-3.281a1.127,1.127,0,0,1,1.177-1.062h1.976a1.128,1.128,0,0,1,1.177,1.062v3.257a.8.8,0,0,1-.006.1,14.416,14.416,0,0,1,5.427,1.826,1.746,1.746,0,0,1,.476,2.593,2.206,2.206,0,0,1-2.874.429c-1.666-1.077-6.028-1.905-8.41-.8a2.763,2.763,0,0,0-1.639,2.855c0,2.26,1.574,3.007,5.439,4.289a19.973,19.973,0,0,1,5.336,2.363A6.617,6.617,0,0,1,7874.472,3237.691Z" fill="#f2eeea"/>
    <path id="Path_68" data-name="Path 68" d="M7834.273,3241.3l-18.792-18.793a10.4,10.4,0,0,1,0-14.712l22.225-22.225a8.483,8.483,0,0,1,5.153-2.442l18.469-1.85a8.481,8.481,0,0,1,6.843,2.443l4.889,4.888a8.486,8.486,0,0,1,2.442,6.843l-1.849,18.47a8.483,8.483,0,0,1-2.442,5.153l-22.226,22.225A10.4,10.4,0,0,1,7834.273,3241.3Z" fill="#397ab6"/>
    <g id="Group_52" data-name="Group 52">
      <path id="Path_69" data-name="Path 69" d="M7824.986,3212.447a2.193,2.193,0,0,1,1.555-.644h32.468a2.2,2.2,0,1,1,0,4.4h-32.468a2.2,2.2,0,0,1-1.555-3.754Z" fill="#f2eeea"/>
      <circle id="Ellipse_2" data-name="Ellipse 2" cx="3.595" cy="3.595" r="3.595" transform="translate(7839.392 3221.845)" fill="#f2eeea"/>
      <circle id="Ellipse_3" data-name="Ellipse 3" cx="3.595" cy="3.595" r="3.595" transform="translate(7839.18 3198.757)" fill="#f2eeea"/>
    </g>
    <circle id="Ellipse_4" data-name="Ellipse 4" cx="4.218" cy="4.218" r="4.218" transform="translate(7860.063 3188.107)" fill="#0f0e71"/>
    <path id="Path_70" data-name="Path 70" d="M7875.7,3181.373l-.3-.3a1.672,1.672,0,0,0-2.365,0l-9.281,9.281h0l-1,1a1.673,1.673,0,0,0,0,2.365l.3.3a1.671,1.671,0,0,0,2.364,0l1-1,9.282-9.282A1.672,1.672,0,0,0,7875.7,3181.373Z" fill="#243695"/>
  </g>
</svg>
