<svg xmlns="http://www.w3.org/2000/svg" width="74.725" height="71.305" viewBox="0 0 74.725 71.305">
  <g id="_2" data-name="2" transform="translate(-7813.503 -3012.109)">
    <path id="Path_21" data-name="Path 21" d="M7888.018,3060.433l-2.954-7.821-.528-1.4.009,0-13.951-36.938a3.4,3.4,0,0,0-4.335-1.954l-50.56,18.506a3.314,3.314,0,0,0-1.985,4.268l7.985,21.143-.009,0,6.234,16.507,3.214,8.509a3.4,3.4,0,0,0,4.335,1.954l50.56-18.507A3.313,3.313,0,0,0,7888.018,3060.433Z" fill="#65b829"/>
    <g id="Group_30" data-name="Group 30">
      <path id="Path_22" data-name="Path 22" d="M7860.9,3074.006a.032.032,0,0,1-.041-.013l-.073-.194c-.005-.013,0-.029.022-.036a.032.032,0,0,1,.041.013l.073.194A.031.031,0,0,1,7860.9,3074.006Zm-.146-.388a.031.031,0,0,1-.041-.012l-.073-.194a.03.03,0,0,1,.022-.036.031.031,0,0,1,.041.013l.073.193A.03.03,0,0,1,7860.75,3073.618Zm-.147-.387a.03.03,0,0,1-.04-.013l-.074-.194c0-.013.005-.029.023-.035a.031.031,0,0,1,.041.012l.073.194C7860.631,3073.208,7860.621,3073.224,7860.6,3073.231Zm-.146-.388a.031.031,0,0,1-.041-.012l-.073-.194c0-.013.005-.029.023-.036a.03.03,0,0,1,.04.013l.074.194C7860.485,3072.821,7860.475,3072.837,7860.457,3072.843Zm-.146-.387c-.018.006-.036,0-.041-.013l-.073-.193a.03.03,0,0,1,.022-.036.029.029,0,0,1,.041.013l.073.193A.03.03,0,0,1,7860.311,3072.456Zm-.146-.387a.032.032,0,0,1-.041-.013l-.073-.194c0-.013.005-.029.022-.036a.031.031,0,0,1,.041.013l.073.194A.031.031,0,0,1,7860.165,3072.069Zm-.147-.388a.03.03,0,0,1-.04-.012l-.073-.194a.031.031,0,0,1,.022-.036c.018-.006.036,0,.041.013l.073.193A.03.03,0,0,1,7860.018,3071.681Zm-.146-.387a.03.03,0,0,1-.04-.013l-.074-.194a.03.03,0,0,1,.023-.035.031.031,0,0,1,.041.012l.073.194C7859.9,3071.271,7859.89,3071.287,7859.872,3071.294Zm-.146-.388a.031.031,0,0,1-.041-.012l-.073-.194c0-.013.005-.029.023-.036a.03.03,0,0,1,.04.013l.074.194C7859.754,3070.884,7859.744,3070.9,7859.726,3070.906Zm-.146-.387c-.018.006-.036,0-.041-.013l-.073-.193a.035.035,0,0,1,.063-.024l.073.194A.03.03,0,0,1,7859.58,3070.519Zm-.146-.387a.032.032,0,0,1-.041-.013l-.073-.194a.034.034,0,0,1,.063-.023l.073.194A.031.031,0,0,1,7859.434,3070.132Zm-.147-.388a.029.029,0,0,1-.04-.013l-.073-.193a.031.031,0,0,1,.022-.036c.018-.006.036,0,.041.013l.073.193A.03.03,0,0,1,7859.287,3069.744Zm-.146-.387a.031.031,0,0,1-.04-.013l-.074-.194c0-.013.005-.029.023-.036a.032.032,0,0,1,.041.013l.073.194C7859.169,3069.334,7859.159,3069.35,7859.141,3069.357Zm-.146-.388a.031.031,0,0,1-.041-.012l-.073-.194c0-.013.005-.029.023-.036a.03.03,0,0,1,.04.013l.074.194C7859.023,3068.947,7859.013,3068.963,7859,3068.969Zm-.146-.387c-.018.006-.036,0-.041-.013l-.073-.193a.035.035,0,0,1,.063-.024l.073.194A.03.03,0,0,1,7858.849,3068.582Zm-.146-.387a.032.032,0,0,1-.041-.013l-.073-.194a.034.034,0,0,1,.063-.023l.073.194A.031.031,0,0,1,7858.7,3068.2Zm-.147-.388a.029.029,0,0,1-.04-.013l-.073-.193a.031.031,0,0,1,.022-.036c.018-.006.036,0,.041.013l.073.193A.03.03,0,0,1,7858.556,3067.807Zm-.146-.387a.031.031,0,0,1-.04-.013l-.074-.194c0-.013,0-.029.023-.036a.032.032,0,0,1,.041.013l.073.194C7858.438,3067.4,7858.428,3067.413,7858.41,3067.42Zm-.146-.388a.031.031,0,0,1-.041-.012l-.073-.194a.035.035,0,0,1,.063-.023l.074.193A.03.03,0,0,1,7858.264,3067.032Zm-.146-.387c-.018.006-.036,0-.041-.013l-.073-.193a.03.03,0,0,1,.022-.036.031.031,0,0,1,.041.012l.073.194A.031.031,0,0,1,7858.118,3066.645Zm-.146-.387a.032.032,0,0,1-.041-.013l-.073-.194a.031.031,0,0,1,.022-.036.032.032,0,0,1,.041.013l.073.194A.031.031,0,0,1,7857.972,3066.258Zm-.147-.388a.03.03,0,0,1-.04-.013l-.073-.193a.034.034,0,0,1,.063-.023l.073.193A.031.031,0,0,1,7857.825,3065.87Zm-.146-.387a.031.031,0,0,1-.04-.013l-.074-.194c0-.013,0-.029.023-.036a.032.032,0,0,1,.041.013l.073.194C7857.707,3065.46,7857.7,3065.476,7857.679,3065.483Zm-.146-.388a.031.031,0,0,1-.041-.012l-.073-.194a.035.035,0,0,1,.063-.023l.074.193A.03.03,0,0,1,7857.533,3065.095Zm-.146-.387a.031.031,0,0,1-.041-.013l-.073-.194a.029.029,0,0,1,.022-.035.031.031,0,0,1,.041.012l.073.194C7857.414,3064.685,7857.4,3064.7,7857.387,3064.708Zm-.146-.388a.031.031,0,0,1-.041-.012l-.073-.194a.031.031,0,0,1,.022-.036.032.032,0,0,1,.041.013l.073.194A.03.03,0,0,1,7857.241,3064.32Zm-.147-.387a.03.03,0,0,1-.04-.013l-.073-.193a.034.034,0,0,1,.063-.023l.073.193A.031.031,0,0,1,7857.094,3063.933Zm-.146-.387a.031.031,0,0,1-.04-.013l-.074-.194c0-.013,0-.029.023-.036a.032.032,0,0,1,.041.013l.073.194C7856.976,3063.523,7856.966,3063.539,7856.948,3063.546Zm-.146-.388a.03.03,0,0,1-.041-.012l-.073-.194a.035.035,0,0,1,.063-.023l.074.193A.03.03,0,0,1,7856.8,3063.158Zm-.146-.387a.03.03,0,0,1-.041-.013l-.073-.194a.029.029,0,0,1,.022-.035.031.031,0,0,1,.041.012l.073.194C7856.683,3062.748,7856.673,3062.764,7856.656,3062.771Zm-.146-.388a.03.03,0,0,1-.041-.012l-.073-.194a.031.031,0,0,1,.022-.036c.018-.006.036,0,.041.013l.073.194A.03.03,0,0,1,7856.51,3062.383Zm-.147-.387a.03.03,0,0,1-.04-.013l-.073-.193a.03.03,0,0,1,.022-.036.031.031,0,0,1,.041.012l.073.194A.03.03,0,0,1,7856.363,3062Zm-.146-.387a.031.031,0,0,1-.04-.013l-.074-.194c0-.013,0-.029.023-.036a.032.032,0,0,1,.041.013l.073.194C7856.245,3061.586,7856.235,3061.6,7856.217,3061.609Zm-.146-.388a.031.031,0,0,1-.041-.013l-.073-.193a.035.035,0,0,1,.063-.023l.074.193A.03.03,0,0,1,7856.071,3061.221Zm-.146-.387a.032.032,0,0,1-.041-.013l-.073-.194a.031.031,0,0,1,.022-.036.032.032,0,0,1,.041.013l.073.194C7855.952,3060.811,7855.942,3060.827,7855.925,3060.834Zm-.146-.388a.031.031,0,0,1-.041-.012l-.073-.194a.031.031,0,0,1,.022-.036c.018-.006.036,0,.041.013l.073.194A.029.029,0,0,1,7855.779,3060.446Zm-.147-.387a.03.03,0,0,1-.04-.013l-.073-.193a.03.03,0,0,1,.022-.036.031.031,0,0,1,.041.012l.073.194A.03.03,0,0,1,7855.632,3060.059Zm-.146-.387a.033.033,0,0,1-.041-.013l-.073-.194c0-.013,0-.029.023-.036a.032.032,0,0,1,.041.013l.073.194C7855.514,3059.649,7855.5,3059.665,7855.486,3059.672Zm-.146-.388a.031.031,0,0,1-.041-.013l-.073-.193a.035.035,0,0,1,.063-.023l.074.193A.029.029,0,0,1,7855.34,3059.284Zm-.146-.387a.032.032,0,0,1-.041-.013l-.073-.194a.031.031,0,0,1,.022-.036.032.032,0,0,1,.041.013l.073.194C7855.221,3058.874,7855.211,3058.89,7855.194,3058.9Zm-.146-.388a.031.031,0,0,1-.041-.012l-.073-.194a.03.03,0,0,1,.022-.036.031.031,0,0,1,.041.013l.073.193A.03.03,0,0,1,7855.048,3058.509Zm-.147-.387a.03.03,0,0,1-.04-.013l-.073-.193a.03.03,0,0,1,.022-.036.031.031,0,0,1,.041.012l.073.194A.03.03,0,0,1,7854.9,3058.122Zm-.146-.387a.033.033,0,0,1-.041-.013l-.073-.194c0-.013,0-.029.023-.036a.032.032,0,0,1,.041.013l.073.194C7854.783,3057.712,7854.773,3057.728,7854.755,3057.735Zm-.146-.388a.031.031,0,0,1-.041-.013l-.073-.193a.03.03,0,0,1,.023-.036.029.029,0,0,1,.04.013l.074.193A.029.029,0,0,1,7854.609,3057.347Zm-.146-.387a.032.032,0,0,1-.041-.013l-.073-.194a.031.031,0,0,1,.022-.036.032.032,0,0,1,.041.013l.073.194C7854.49,3056.937,7854.48,3056.953,7854.463,3056.96Zm-.146-.388a.031.031,0,0,1-.041-.012l-.073-.194a.03.03,0,0,1,.022-.036.031.031,0,0,1,.041.013l.073.193A.03.03,0,0,1,7854.317,3056.572Zm-.147-.387a.03.03,0,0,1-.04-.013l-.073-.194a.029.029,0,0,1,.022-.035.031.031,0,0,1,.041.012l.073.194C7854.2,3056.162,7854.188,3056.178,7854.17,3056.185Zm-.146-.388a.031.031,0,0,1-.041-.012l-.073-.194c-.005-.013,0-.029.023-.036a.032.032,0,0,1,.041.013l.073.194A.03.03,0,0,1,7854.024,3055.8Zm-.146-.387a.031.031,0,0,1-.041-.013l-.073-.193a.03.03,0,0,1,.023-.036.029.029,0,0,1,.04.013l.074.193A.03.03,0,0,1,7853.878,3055.41Zm-.146-.387a.032.032,0,0,1-.041-.013l-.073-.194c-.005-.013,0-.029.022-.036a.032.032,0,0,1,.041.013l.073.194A.031.031,0,0,1,7853.732,3055.023Zm-.146-.388a.031.031,0,0,1-.041-.012l-.073-.194a.03.03,0,0,1,.022-.036.031.031,0,0,1,.041.013l.073.193A.03.03,0,0,1,7853.586,3054.635Zm-.147-.387a.03.03,0,0,1-.04-.013l-.073-.194a.029.029,0,0,1,.022-.035.031.031,0,0,1,.041.012l.073.194C7853.467,3054.225,7853.457,3054.241,7853.439,3054.248Zm-.146-.388a.031.031,0,0,1-.041-.012l-.073-.194c-.005-.013,0-.029.023-.036a.031.031,0,0,1,.041.013l.073.194A.03.03,0,0,1,7853.293,3053.86Zm-.146-.387a.031.031,0,0,1-.041-.013l-.073-.193a.03.03,0,0,1,.023-.036.03.03,0,0,1,.04.012l.073.194A.028.028,0,0,1,7853.147,3053.473Zm-.146-.387a.032.032,0,0,1-.041-.013l-.073-.194c-.005-.013,0-.029.022-.036a.032.032,0,0,1,.041.013l.073.194A.031.031,0,0,1,7853,3053.086Zm-.146-.388a.03.03,0,0,1-.041-.013l-.073-.193a.03.03,0,0,1,.022-.036.031.031,0,0,1,.041.013l.073.193A.03.03,0,0,1,7852.855,3052.7Zm-.147-.387a.031.031,0,0,1-.04-.013l-.073-.194c-.005-.013,0-.029.022-.036a.033.033,0,0,1,.041.013l.073.194C7852.736,3052.288,7852.726,3052.3,7852.708,3052.311Zm-.146-.388a.031.031,0,0,1-.041-.012l-.073-.194a.03.03,0,0,1,.023-.036.032.032,0,0,1,.041.013l.073.193A.03.03,0,0,1,7852.562,3051.923Zm-.146-.387a.031.031,0,0,1-.041-.013l-.073-.193a.035.035,0,0,1,.063-.024l.073.194A.029.029,0,0,1,7852.416,3051.536Zm-.146-.387a.032.032,0,0,1-.041-.013l-.073-.194c0-.013.005-.029.022-.036a.032.032,0,0,1,.041.013l.073.194A.031.031,0,0,1,7852.27,3051.149Zm-.146-.388a.03.03,0,0,1-.041-.013l-.073-.193a.035.035,0,0,1,.063-.023l.073.193A.03.03,0,0,1,7852.124,3050.761Zm-.147-.387a.031.031,0,0,1-.04-.013l-.073-.194c-.006-.013.005-.029.022-.036a.032.032,0,0,1,.041.013l.073.194C7852,3050.351,7852,3050.367,7851.977,3050.374Zm-.146-.388a.031.031,0,0,1-.041-.012l-.073-.194a.035.035,0,0,1,.064-.023l.073.193A.03.03,0,0,1,7851.831,3049.986Zm-.146-.387a.031.031,0,0,1-.041-.013l-.073-.194c0-.013.005-.029.023-.035a.03.03,0,0,1,.04.012l.073.194C7851.713,3049.576,7851.7,3049.593,7851.685,3049.6Zm-.146-.388a.031.031,0,0,1-.041-.012l-.073-.194c0-.013.005-.029.022-.036a.032.032,0,0,1,.041.013l.073.194A.029.029,0,0,1,7851.539,3049.211Zm-.146-.387a.031.031,0,0,1-.041-.013l-.073-.193a.03.03,0,0,1,.022-.036.03.03,0,0,1,.041.013l.073.193A.03.03,0,0,1,7851.393,3048.824Zm-.147-.387a.031.031,0,0,1-.04-.013l-.073-.194c-.006-.013.005-.029.022-.036a.032.032,0,0,1,.041.013l.073.194C7851.274,3048.414,7851.264,3048.43,7851.246,3048.437Zm-.146-.388a.031.031,0,0,1-.041-.013l-.073-.193a.031.031,0,0,1,.023-.036.032.032,0,0,1,.041.013l.073.193A.03.03,0,0,1,7851.1,3048.049Zm-.146-.387a.031.031,0,0,1-.041-.013l-.073-.194a.035.035,0,0,1,.063-.023l.073.194C7850.982,3047.639,7850.971,3047.655,7850.954,3047.662Zm-.146-.388a.031.031,0,0,1-.041-.012l-.073-.194a.031.031,0,0,1,.022-.036.031.031,0,0,1,.041.013l.073.194A.029.029,0,0,1,7850.808,3047.274Zm-.146-.387a.031.031,0,0,1-.041-.013l-.073-.193a.035.035,0,0,1,.063-.024l.073.194A.03.03,0,0,1,7850.662,3046.887Zm-.147-.387a.031.031,0,0,1-.04-.013l-.073-.194c-.006-.013,0-.029.022-.036a.032.032,0,0,1,.041.013l.073.194C7850.543,3046.477,7850.533,3046.493,7850.515,3046.5Zm-.146-.388a.031.031,0,0,1-.041-.013l-.073-.193a.03.03,0,0,1,.023-.036.03.03,0,0,1,.041.013l.073.193A.03.03,0,0,1,7850.369,3046.112Zm-.146-.387a.032.032,0,0,1-.041-.013l-.073-.194c0-.013,0-.029.023-.036a.031.031,0,0,1,.04.013l.073.194A.031.031,0,0,1,7850.223,3045.725Zm-.146-.388a.031.031,0,0,1-.041-.012l-.073-.194a.03.03,0,0,1,.022-.036c.018-.006.036,0,.041.013l.073.193A.03.03,0,0,1,7850.077,3045.337Zm-.146-.387a.031.031,0,0,1-.041-.013l-.073-.193a.03.03,0,0,1,.022-.036.031.031,0,0,1,.041.012l.073.194A.03.03,0,0,1,7849.931,3044.95Zm-.147-.387a.031.031,0,0,1-.04-.013l-.073-.194c-.006-.013,0-.029.022-.036a.032.032,0,0,1,.041.013l.073.194C7849.812,3044.54,7849.8,3044.556,7849.784,3044.563Zm-.146-.388a.031.031,0,0,1-.041-.013l-.073-.193a.03.03,0,0,1,.023-.036.03.03,0,0,1,.041.013l.073.193A.03.03,0,0,1,7849.638,3044.175Zm-.146-.387a.032.032,0,0,1-.041-.013l-.073-.194c0-.013,0-.029.023-.036a.031.031,0,0,1,.04.013l.073.194A.032.032,0,0,1,7849.492,3043.788Zm-.146-.388a.031.031,0,0,1-.041-.012l-.073-.194a.03.03,0,0,1,.022-.036c.018-.006.036,0,.041.013l.073.193A.03.03,0,0,1,7849.346,3043.4Zm-.146-.387a.031.031,0,0,1-.041-.013l-.073-.194a.029.029,0,0,1,.022-.035.031.031,0,0,1,.041.012l.073.194A.031.031,0,0,1,7849.2,3043.013Zm-.147-.388a.03.03,0,0,1-.04-.012l-.073-.194c-.006-.013,0-.029.022-.036a.031.031,0,0,1,.041.013l.073.194A.03.03,0,0,1,7849.053,3042.625Zm-.146-.387a.031.031,0,0,1-.041-.013l-.073-.193a.03.03,0,0,1,.023-.036.031.031,0,0,1,.041.012l.073.194A.03.03,0,0,1,7848.907,3042.238Zm-.146-.387a.032.032,0,0,1-.041-.013l-.073-.194c0-.013,0-.029.023-.036a.031.031,0,0,1,.04.013l.073.194A.032.032,0,0,1,7848.761,3041.851Zm-.146-.388a.03.03,0,0,1-.041-.013l-.073-.193a.03.03,0,0,1,.022-.036c.018-.006.036,0,.041.013l.073.193A.03.03,0,0,1,7848.615,3041.463Zm-.146-.387a.032.032,0,0,1-.041-.013l-.073-.194a.029.029,0,0,1,.022-.035.031.031,0,0,1,.041.012l.073.194A.031.031,0,0,1,7848.469,3041.076Zm-.147-.388a.029.029,0,0,1-.04-.012l-.074-.194a.03.03,0,0,1,.023-.036.031.031,0,0,1,.041.013l.073.194C7848.35,3040.666,7848.34,3040.682,7848.322,3040.688Zm-.146-.387a.032.032,0,0,1-.041-.013l-.073-.193a.03.03,0,0,1,.023-.036.031.031,0,0,1,.041.012l.073.194A.03.03,0,0,1,7848.176,3040.3Zm-.146-.387a.032.032,0,0,1-.041-.013l-.073-.194c0-.013,0-.029.023-.036a.031.031,0,0,1,.04.013l.073.194C7848.057,3039.891,7848.047,3039.907,7848.03,3039.914Zm-.146-.388a.03.03,0,0,1-.041-.013l-.073-.193a.034.034,0,0,1,.063-.023l.073.193A.03.03,0,0,1,7847.884,3039.526Zm-.146-.387a.032.032,0,0,1-.041-.013l-.073-.194a.031.031,0,0,1,.022-.036.032.032,0,0,1,.041.013l.073.194C7847.765,3039.116,7847.755,3039.132,7847.738,3039.139Zm-.147-.388a.03.03,0,0,1-.04-.012l-.074-.194a.03.03,0,0,1,.023-.036.031.031,0,0,1,.041.013l.073.193A.029.029,0,0,1,7847.591,3038.751Zm-.146-.387a.032.032,0,0,1-.041-.013l-.073-.194a.029.029,0,0,1,.023-.035.03.03,0,0,1,.04.012l.074.194A.03.03,0,0,1,7847.445,3038.364Zm-.146-.388a.031.031,0,0,1-.041-.012l-.073-.194c0-.013,0-.029.023-.036a.031.031,0,0,1,.04.013l.073.194A.029.029,0,0,1,7847.3,3037.976Zm-.146-.387a.031.031,0,0,1-.041-.013l-.073-.193a.034.034,0,0,1,.063-.023l.073.193A.03.03,0,0,1,7847.153,3037.589Zm-.146-.387a.032.032,0,0,1-.041-.013l-.073-.194a.031.031,0,0,1,.022-.036.032.032,0,0,1,.041.013l.073.194C7847.034,3037.179,7847.024,3037.2,7847.007,3037.2Zm-.147-.388a.03.03,0,0,1-.04-.012l-.074-.194a.03.03,0,0,1,.023-.036.031.031,0,0,1,.041.013l.073.193A.029.029,0,0,1,7846.86,3036.814Zm-.146-.387a.031.031,0,0,1-.041-.013l-.073-.194a.029.029,0,0,1,.023-.035.03.03,0,0,1,.04.012l.074.194C7846.742,3036.4,7846.732,3036.42,7846.714,3036.427Zm-.146-.388a.031.031,0,0,1-.041-.012l-.073-.194c0-.013,0-.029.023-.036a.03.03,0,0,1,.04.013l.073.194A.029.029,0,0,1,7846.568,3036.039Zm-.146-.387a.031.031,0,0,1-.041-.013l-.073-.193a.03.03,0,0,1,.022-.036.031.031,0,0,1,.041.012l.073.194A.03.03,0,0,1,7846.422,3035.652Zm-.146-.387a.032.032,0,0,1-.041-.013l-.073-.194a.031.031,0,0,1,.022-.036.032.032,0,0,1,.041.013l.073.194C7846.3,3035.242,7846.293,3035.258,7846.276,3035.265Zm-.147-.388a.029.029,0,0,1-.04-.013l-.074-.193a.03.03,0,0,1,.023-.036.031.031,0,0,1,.041.013l.073.193A.029.029,0,0,1,7846.129,3034.877Zm-.146-.387a.032.032,0,0,1-.041-.013l-.073-.194c-.005-.013,0-.029.023-.036a.031.031,0,0,1,.04.013l.074.194C7846.011,3034.467,7846,3034.483,7845.983,3034.49Zm-.146-.388a.031.031,0,0,1-.041-.012l-.073-.194a.03.03,0,0,1,.022-.036.031.031,0,0,1,.041.013l.073.194A.03.03,0,0,1,7845.837,3034.1Zm-.146-.387c-.018.006-.036,0-.041-.013l-.073-.193a.03.03,0,0,1,.022-.036.031.031,0,0,1,.041.012l.073.194A.03.03,0,0,1,7845.691,3033.715Zm-.146-.387a.032.032,0,0,1-.041-.013l-.073-.194c-.005-.013,0-.029.022-.036a.032.032,0,0,1,.041.013l.073.194A.031.031,0,0,1,7845.545,3033.328Zm-.147-.388a.029.029,0,0,1-.04-.013l-.074-.193a.03.03,0,0,1,.023-.036.03.03,0,0,1,.041.013l.073.193A.03.03,0,0,1,7845.4,3032.94Zm-.146-.387a.032.032,0,0,1-.041-.013l-.073-.194c-.005-.013,0-.029.023-.036a.031.031,0,0,1,.04.013l.074.194C7845.28,3032.53,7845.27,3032.546,7845.252,3032.553Zm-.146-.388a.031.031,0,0,1-.041-.012l-.073-.194a.03.03,0,0,1,.022-.036.031.031,0,0,1,.041.013l.073.193A.03.03,0,0,1,7845.106,3032.165Zm-.146-.387c-.018.006-.036,0-.041-.013l-.073-.194a.029.029,0,0,1,.022-.035.031.031,0,0,1,.041.012l.073.194A.031.031,0,0,1,7844.96,3031.778Zm-.147-.388a.03.03,0,0,1-.04-.012l-.073-.194c-.005-.013,0-.029.022-.036a.031.031,0,0,1,.041.013l.073.194A.029.029,0,0,1,7844.813,3031.39Zm-.146-.387a.03.03,0,0,1-.04-.013l-.074-.193a.03.03,0,0,1,.023-.036.031.031,0,0,1,.041.012l.073.194A.03.03,0,0,1,7844.667,3031Zm-.146-.387a.032.032,0,0,1-.041-.013l-.073-.194c-.005-.013,0-.029.023-.036a.031.031,0,0,1,.04.013l.074.194C7844.549,3030.593,7844.539,3030.609,7844.521,3030.616Zm-.146-.388a.031.031,0,0,1-.041-.012l-.073-.194a.03.03,0,0,1,.022-.036.031.031,0,0,1,.041.013l.073.193A.03.03,0,0,1,7844.375,3030.228Zm-.146-.387c-.018.006-.036,0-.041-.013l-.073-.194a.029.029,0,0,1,.022-.035.031.031,0,0,1,.041.012l.073.194A.031.031,0,0,1,7844.229,3029.841Zm-.147-.388a.03.03,0,0,1-.04-.012l-.073-.194c-.005-.013,0-.029.022-.036a.031.031,0,0,1,.041.013l.073.194A.029.029,0,0,1,7844.082,3029.453Zm-.146-.387a.03.03,0,0,1-.04-.013l-.074-.193a.03.03,0,0,1,.023-.036.031.031,0,0,1,.041.012l.073.194A.03.03,0,0,1,7843.936,3029.066Zm-.146-.387a.032.032,0,0,1-.041-.013l-.073-.194c0-.013.005-.029.023-.036a.03.03,0,0,1,.04.013l.074.194C7843.818,3028.656,7843.808,3028.672,7843.79,3028.679Zm-.146-.388a.03.03,0,0,1-.041-.013l-.073-.193a.03.03,0,0,1,.022-.036.03.03,0,0,1,.041.013l.073.193A.03.03,0,0,1,7843.644,3028.291Zm-.146-.387a.032.032,0,0,1-.041-.013l-.073-.194a.034.034,0,0,1,.063-.023l.073.194A.031.031,0,0,1,7843.5,3027.9Zm-.147-.388a.03.03,0,0,1-.04-.012l-.073-.194a.031.031,0,0,1,.022-.036c.018-.006.036,0,.041.013l.073.193A.03.03,0,0,1,7843.351,3027.516Zm-.146-.387a.03.03,0,0,1-.04-.013l-.074-.193a.03.03,0,0,1,.023-.036.031.031,0,0,1,.041.012l.073.194A.03.03,0,0,1,7843.205,3027.129Zm-.146-.387a.032.032,0,0,1-.041-.013l-.073-.194c0-.013.005-.029.023-.036a.031.031,0,0,1,.04.013l.074.194C7843.087,3026.719,7843.077,3026.735,7843.059,3026.742Zm-.146-.388a.031.031,0,0,1-.041-.013l-.073-.193a.03.03,0,0,1,.022-.036.03.03,0,0,1,.041.013l.073.193A.03.03,0,0,1,7842.913,3026.354Zm-.146-.387a.032.032,0,0,1-.041-.013l-.073-.194a.031.031,0,0,1,.022-.036.032.032,0,0,1,.041.013l.073.194A.031.031,0,0,1,7842.767,3025.967Zm-.147-.388a.03.03,0,0,1-.04-.012l-.073-.194a.031.031,0,0,1,.022-.036c.018-.006.036,0,.041.013l.073.193A.03.03,0,0,1,7842.62,3025.579Zm-.146-.387a.031.031,0,0,1-.041-.013l-.073-.194a.03.03,0,0,1,.023-.035.031.031,0,0,1,.041.012l.073.194C7842.5,3025.169,7842.492,3025.185,7842.474,3025.192Zm-.146-.388a.031.031,0,0,1-.041-.012l-.073-.194c0-.013.005-.029.023-.036a.03.03,0,0,1,.04.013l.074.194A.029.029,0,0,1,7842.328,3024.8Zm-.146-.387a.031.031,0,0,1-.041-.013l-.073-.193a.035.035,0,0,1,.063-.024l.073.194A.03.03,0,0,1,7842.182,3024.417Zm-.146-.387a.032.032,0,0,1-.041-.013l-.073-.194a.031.031,0,0,1,.022-.036.032.032,0,0,1,.041.013l.073.194A.031.031,0,0,1,7842.036,3024.03Zm-.147-.388a.029.029,0,0,1-.04-.013l-.073-.193a.03.03,0,0,1,.022-.036.031.031,0,0,1,.041.013l.073.193A.03.03,0,0,1,7841.889,3023.642Zm-.146-.387a.033.033,0,0,1-.041-.013l-.073-.194a.03.03,0,0,1,.023-.035.031.031,0,0,1,.041.012l.073.194C7841.771,3023.232,7841.761,3023.248,7841.743,3023.255Zm-.146-.388a.031.031,0,0,1-.041-.012l-.073-.194a.03.03,0,0,1,.023-.036.03.03,0,0,1,.04.013l.073.194C7841.625,3022.845,7841.615,3022.861,7841.6,3022.867Zm-.146-.387a.031.031,0,0,1-.041-.013l-.073-.193a.03.03,0,0,1,.022-.036.031.031,0,0,1,.041.012l.073.194A.03.03,0,0,1,7841.451,3022.48Zm-.146-.387a.032.032,0,0,1-.041-.013l-.073-.194a.031.031,0,0,1,.022-.036.032.032,0,0,1,.041.013l.073.194A.031.031,0,0,1,7841.305,3022.093Z" fill="#f2eeea"/>
      <path id="Path_23" data-name="Path 23" d="M7841.159,3021.705a.031.031,0,0,1-.041-.012l-.037-.1a.029.029,0,0,1,.023-.035.03.03,0,0,1,.04.012l.037.1A.031.031,0,0,1,7841.159,3021.705Z" fill="#f2eeea"/>
    </g>
    <g id="Group_31" data-name="Group 31">
      <path id="Path_24" data-name="Path 24" d="M7876.554,3029.9l-.127.046a.035.035,0,0,1-.043-.02.032.032,0,0,1,.02-.042l.126-.047a.035.035,0,0,1,.043.02A.034.034,0,0,1,7876.554,3029.9Z" fill="#f2eeea"/>
      <path id="Path_25" data-name="Path 25" d="M7876.174,3030.04l-.254.092a.033.033,0,1,1-.023-.062l.253-.093a.035.035,0,0,1,.044.02A.034.034,0,0,1,7876.174,3030.04Zm-.507.185-.253.093a.035.035,0,0,1-.044-.02.033.033,0,0,1,.02-.042l.254-.093a.033.033,0,0,1,.043.019A.034.034,0,0,1,7875.667,3030.225Zm-.507.185-.253.093a.033.033,0,0,1-.043-.019.033.033,0,0,1,.019-.043l.254-.093a.035.035,0,0,1,.043.02A.032.032,0,0,1,7875.16,3030.41Zm-.506.186-.254.093a.034.034,0,0,1-.043-.02.033.033,0,0,1,.02-.043l.253-.092a.033.033,0,1,1,.024.062Zm-.507.185-.254.093a.033.033,0,1,1-.023-.062l.253-.093a.035.035,0,0,1,.044.02A.033.033,0,0,1,7874.147,3030.781Zm-.507.186-.253.093a.036.036,0,0,1-.044-.02.035.035,0,0,1,.02-.043l.254-.092a.033.033,0,1,1,.023.062Zm-.507.185-.253.093a.033.033,0,0,1-.043-.019.032.032,0,0,1,.019-.043l.254-.093a.034.034,0,0,1,.043.02A.031.031,0,0,1,7873.133,3031.152Zm-.506.186-.254.093a.034.034,0,0,1-.043-.02.033.033,0,0,1,.02-.043l.253-.092a.033.033,0,0,1,.043.019A.033.033,0,0,1,7872.627,3031.338Zm-.507.185-.253.093a.035.035,0,0,1-.044-.019.034.034,0,0,1,.02-.043l.253-.093a.036.036,0,0,1,.044.02A.033.033,0,0,1,7872.12,3031.523Zm-.507.186-.253.093a.035.035,0,0,1-.044-.02.035.035,0,0,1,.02-.043l.254-.092a.033.033,0,0,1,.043.019A.033.033,0,0,1,7871.613,3031.709Zm-.507.185-.253.093a.034.034,0,0,1-.043-.019.032.032,0,0,1,.02-.043l.253-.093a.033.033,0,0,1,.043.02A.032.032,0,0,1,7871.106,3031.894Zm-.506.186-.254.093a.034.034,0,0,1-.043-.02.033.033,0,0,1,.02-.043l.253-.092a.034.034,0,0,1,.044.019A.035.035,0,0,1,7870.6,3032.08Zm-.507.185-.253.093a.034.034,0,0,1-.044-.02.033.033,0,0,1,.02-.042l.253-.093a.035.035,0,0,1,.044.02A.033.033,0,0,1,7870.093,3032.265Zm-.507.186-.253.093a.034.034,0,1,1-.024-.063l.254-.092a.033.033,0,1,1,.023.062Zm-.507.185-.253.093a.033.033,0,0,1-.043-.02.031.031,0,0,1,.02-.042l.253-.093a.033.033,0,0,1,.043.02A.032.032,0,0,1,7869.079,3032.636Zm-.506.186-.254.092a.033.033,0,1,1-.023-.062l.253-.092a.034.034,0,0,1,.044.019A.034.034,0,0,1,7868.573,3032.822Zm-.507.185-.253.093a.035.035,0,0,1-.044-.02.033.033,0,0,1,.02-.042l.253-.093a.034.034,0,0,1,.044.02A.033.033,0,0,1,7868.066,3033.007Zm-.507.186-.253.092a.032.032,0,0,1-.043-.019.033.033,0,0,1,.019-.043l.254-.093a.034.034,0,0,1,.043.02A.033.033,0,0,1,7867.559,3033.193Zm-.506.185-.254.093a.033.033,0,0,1-.043-.02.032.032,0,0,1,.02-.042l.253-.093a.033.033,0,0,1,.043.02A.032.032,0,0,1,7867.053,3033.378Zm-.507.186-.254.092a.033.033,0,0,1-.043-.019.034.034,0,0,1,.02-.043l.253-.093a.035.035,0,0,1,.044.02A.035.035,0,0,1,7866.546,3033.564Zm-.507.185-.253.093a.034.034,0,0,1-.044-.02.033.033,0,0,1,.02-.042l.254-.093a.033.033,0,1,1,.023.062Zm-.507.186-.253.092a.033.033,0,0,1-.024-.062l.254-.093a.034.034,0,0,1,.043.02A.033.033,0,0,1,7865.532,3033.935Zm-.506.185-.254.093a.034.034,0,0,1-.043-.02.032.032,0,0,1,.02-.042l.253-.093a.032.032,0,0,1,.043.019A.033.033,0,0,1,7865.026,3034.12Zm-.507.186-.254.092a.033.033,0,0,1-.043-.019.034.034,0,0,1,.02-.043l.253-.093a.035.035,0,0,1,.044.02A.035.035,0,0,1,7864.519,3034.306Zm-.507.185-.253.093a.035.035,0,0,1-.044-.02.033.033,0,0,1,.02-.042l.254-.093a.034.034,0,0,1,.043.019A.033.033,0,0,1,7864.012,3034.491Zm-.507.186-.253.092a.033.033,0,1,1-.023-.062l.253-.093a.034.034,0,0,1,.043.02A.033.033,0,0,1,7863.5,3034.677Zm-.506.185-.254.093a.034.034,0,0,1-.043-.02.031.031,0,0,1,.02-.042l.253-.093a.032.032,0,0,1,.043.019A.033.033,0,0,1,7863,3034.862Zm-.507.186-.253.092a.034.034,0,0,1-.044-.019.035.035,0,0,1,.02-.043l.253-.093a.036.036,0,0,1,.044.02A.035.035,0,0,1,7862.492,3035.048Zm-.507.185-.253.093a.035.035,0,0,1-.044-.02.033.033,0,0,1,.02-.042l.254-.093a.033.033,0,1,1,.023.062Zm-.507.185-.253.093a.033.033,0,0,1-.043-.019.032.032,0,0,1,.02-.043l.253-.093a.034.034,0,0,1,.043.02A.032.032,0,0,1,7861.478,3035.418Zm-.506.186-.254.093a.035.035,0,0,1-.043-.02.033.033,0,0,1,.02-.043l.253-.092a.034.034,0,0,1,.044.019A.035.035,0,0,1,7860.972,3035.6Zm-.507.185-.253.093a.034.034,0,0,1-.044-.019.034.034,0,0,1,.02-.043l.253-.093a.035.035,0,0,1,.044.02A.033.033,0,0,1,7860.465,3035.789Zm-.507.186-.253.093a.034.034,0,0,1-.043-.02.033.033,0,0,1,.019-.043l.254-.092a.033.033,0,1,1,.023.062Zm-.507.185-.253.093a.033.033,0,0,1-.043-.019.033.033,0,0,1,.02-.043l.253-.093a.035.035,0,0,1,.043.02A.032.032,0,0,1,7859.451,3036.16Zm-.506.186-.254.093a.034.034,0,1,1-.023-.063l.253-.092a.033.033,0,1,1,.024.062Zm-.507.185-.253.093a.035.035,0,0,1-.044-.019.033.033,0,0,1,.02-.043l.254-.093a.033.033,0,0,1,.043.02A.033.033,0,0,1,7858.438,3036.531Zm-.507.186-.253.093a.035.035,0,0,1-.043-.02.034.034,0,0,1,.019-.043l.254-.092a.033.033,0,1,1,.023.062Zm-.506.185-.254.093a.034.034,0,0,1-.043-.019.032.032,0,0,1,.02-.043l.253-.093a.033.033,0,0,1,.043.02A.032.032,0,0,1,7857.425,3036.9Zm-.507.186-.254.093a.034.034,0,0,1-.043-.02.034.034,0,0,1,.02-.043l.253-.092a.034.034,0,0,1,.044.019A.035.035,0,0,1,7856.918,3037.088Zm-.507.185-.253.093a.035.035,0,0,1-.044-.02.034.034,0,0,1,.02-.042l.254-.093a.034.034,0,0,1,.043.02A.032.032,0,0,1,7856.411,3037.273Zm-.507.186-.253.092a.032.032,0,0,1-.043-.019.033.033,0,0,1,.019-.043l.254-.092a.033.033,0,1,1,.023.062Zm-.506.185-.254.093a.033.033,0,0,1-.043-.02.032.032,0,0,1,.02-.042l.253-.093a.033.033,0,0,1,.043.02A.032.032,0,0,1,7855.4,3037.644Zm-.507.186-.254.092a.033.033,0,1,1-.023-.062l.253-.093a.035.035,0,0,1,.044.02A.035.035,0,0,1,7854.891,3037.83Zm-.507.185-.253.093a.034.034,0,0,1-.044-.02.033.033,0,0,1,.02-.042l.254-.093a.034.034,0,0,1,.043.02A.032.032,0,0,1,7854.384,3038.015Zm-.507.186-.253.092a.033.033,0,0,1-.043-.019.033.033,0,0,1,.02-.043l.253-.093a.034.034,0,0,1,.043.02A.033.033,0,0,1,7853.877,3038.2Zm-.506.185-.254.093a.033.033,0,0,1-.043-.02.031.031,0,0,1,.02-.042l.253-.093a.035.035,0,0,1,.044.019A.034.034,0,0,1,7853.371,3038.386Zm-.507.186-.253.092a.034.034,0,0,1-.044-.019.035.035,0,0,1,.02-.043l.253-.093a.035.035,0,0,1,.044.02A.034.034,0,0,1,7852.864,3038.572Zm-.507.185-.253.093a.035.035,0,0,1-.044-.02.033.033,0,0,1,.02-.042l.254-.093a.033.033,0,1,1,.023.062Zm-.507.186-.253.092a.033.033,0,1,1-.023-.062l.253-.093a.035.035,0,0,1,.043.02A.033.033,0,0,1,7851.85,3038.943Zm-.506.185-.254.093a.034.034,0,0,1-.043-.02.032.032,0,0,1,.02-.042l.253-.093a.034.034,0,0,1,.044.019A.033.033,0,0,1,7851.344,3039.128Zm-.507.186-.253.092a.034.034,0,0,1-.044-.019.034.034,0,0,1,.02-.043l.253-.093a.035.035,0,0,1,.044.02A.035.035,0,0,1,7850.837,3039.314Zm-.507.185-.253.093a.034.034,0,0,1-.043-.02.031.031,0,0,1,.019-.042l.254-.093a.033.033,0,0,1,.043.019A.032.032,0,0,1,7850.33,3039.5Zm-.506.186-.254.092a.033.033,0,0,1-.043-.019.033.033,0,0,1,.02-.043l.253-.093a.034.034,0,0,1,.043.02A.033.033,0,0,1,7849.824,3039.685Zm-.507.185-.254.093a.034.034,0,0,1-.043-.02.033.033,0,0,1,.02-.042l.253-.093a.034.034,0,0,1,.044.019A.034.034,0,0,1,7849.317,3039.87Zm-.507.185-.253.093a.033.033,0,1,1-.024-.062l.254-.093a.035.035,0,0,1,.043.02A.033.033,0,0,1,7848.81,3040.055Zm-.507.186-.253.093a.034.034,0,0,1-.043-.02.033.033,0,0,1,.019-.043l.254-.092a.034.034,0,0,1,.043.019A.033.033,0,0,1,7848.3,3040.241Zm-.506.185-.254.093a.033.033,0,0,1-.043-.019.032.032,0,0,1,.02-.043l.253-.093a.034.034,0,0,1,.043.02A.032.032,0,0,1,7847.8,3040.426Zm-.507.186-.254.093a.035.035,0,0,1-.043-.02.033.033,0,0,1,.02-.043l.253-.092a.034.034,0,0,1,.044.019A.034.034,0,0,1,7847.29,3040.612Zm-.507.185-.253.093a.033.033,0,1,1-.024-.062l.254-.093a.035.035,0,0,1,.043.02A.034.034,0,0,1,7846.783,3040.8Zm-.507.186-.253.093a.034.034,0,0,1-.043-.02.033.033,0,0,1,.019-.043l.254-.092a.033.033,0,0,1,.043.019A.032.032,0,0,1,7846.276,3040.983Zm-.506.185-.254.093a.033.033,0,0,1-.043-.019.032.032,0,0,1,.02-.043l.253-.093a.034.034,0,0,1,.043.02A.032.032,0,0,1,7845.77,3041.168Zm-.507.186-.254.093a.034.034,0,1,1-.023-.063l.253-.092a.034.034,0,0,1,.044.019A.035.035,0,0,1,7845.263,3041.354Zm-.507.185-.253.093a.035.035,0,0,1-.044-.019.034.034,0,0,1,.02-.043l.254-.093a.033.033,0,0,1,.043.02A.032.032,0,0,1,7844.756,3041.539Zm-.507.186-.253.093a.034.034,0,0,1-.043-.02.033.033,0,0,1,.02-.043l.253-.092a.033.033,0,0,1,.043.019A.033.033,0,0,1,7844.249,3041.725Zm-.506.185-.254.093a.034.034,0,0,1-.043-.019.033.033,0,0,1,.02-.043l.253-.093a.033.033,0,0,1,.043.02A.032.032,0,0,1,7843.743,3041.91Zm-.507.186-.253.093a.034.034,0,1,1-.024-.063l.253-.092a.033.033,0,1,1,.024.062Zm-.507.185-.253.093a.034.034,0,0,1-.044-.02.033.033,0,0,1,.02-.042l.254-.093a.033.033,0,0,1,.043.02A.032.032,0,0,1,7842.729,3042.281Zm-.507.186-.253.092a.034.034,0,0,1-.043-.019.033.033,0,0,1,.02-.043l.253-.092a.033.033,0,1,1,.023.062Zm-.506.185-.254.093a.033.033,0,0,1-.043-.02.032.032,0,0,1,.02-.042l.253-.093a.034.034,0,0,1,.044.02A.033.033,0,0,1,7841.716,3042.652Zm-.507.186-.253.092a.034.034,0,0,1-.044-.019.034.034,0,0,1,.02-.043l.253-.093a.035.035,0,0,1,.044.02A.035.035,0,0,1,7841.209,3042.838Zm-.507.185-.253.093a.035.035,0,0,1-.044-.02.034.034,0,0,1,.02-.042l.254-.093a.034.034,0,0,1,.043.02A.032.032,0,0,1,7840.7,3043.023Zm-.507.186-.253.092a.033.033,0,0,1-.043-.019.033.033,0,0,1,.02-.043l.253-.093a.034.034,0,0,1,.043.02A.033.033,0,0,1,7840.195,3043.209Zm-.506.185-.254.093a.033.033,0,0,1-.043-.02.032.032,0,0,1,.02-.042l.253-.093a.035.035,0,0,1,.044.019A.034.034,0,0,1,7839.689,3043.394Zm-.507.186-.253.092a.033.033,0,1,1-.024-.062l.253-.093a.035.035,0,0,1,.044.02A.035.035,0,0,1,7839.182,3043.58Zm-.507.185-.253.093a.034.034,0,0,1-.043-.02.032.032,0,0,1,.019-.042l.254-.093a.034.034,0,0,1,.043.019A.032.032,0,0,1,7838.675,3043.765Zm-.507.186-.253.092a.033.033,0,0,1-.043-.019.033.033,0,0,1,.02-.043l.253-.093a.034.034,0,0,1,.043.02A.033.033,0,0,1,7838.168,3043.951Zm-.506.185-.254.093a.034.034,0,0,1-.043-.02.032.032,0,0,1,.02-.042l.253-.093a.033.033,0,1,1,.024.062Zm-.507.186-.253.092a.033.033,0,1,1-.024-.062l.254-.093a.034.034,0,0,1,.023.063Zm-.507.185-.253.093a.034.034,0,0,1-.043-.02.032.032,0,0,1,.019-.042l.254-.093a.033.033,0,1,1,.023.062Zm-.506.186-.254.092a.033.033,0,1,1-.023-.062l.253-.093a.035.035,0,0,1,.043.02A.034.034,0,0,1,7836.142,3044.693Zm-.507.185-.254.093a.034.034,0,0,1-.043-.02.032.032,0,0,1,.02-.042l.253-.093a.034.034,0,0,1,.044.019A.033.033,0,0,1,7835.635,3044.878Zm-.507.186-.253.092a.034.034,0,0,1-.044-.019.034.034,0,0,1,.02-.043l.254-.093a.035.035,0,0,1,.043.02A.034.034,0,0,1,7835.128,3045.064Zm-.507.185-.253.093a.034.034,0,0,1-.043-.02.033.033,0,0,1,.019-.043l.254-.092a.033.033,0,1,1,.023.062Zm-.506.185-.254.093a.033.033,0,0,1-.043-.019.032.032,0,0,1,.02-.043l.253-.093a.034.034,0,0,1,.043.02A.032.032,0,0,1,7834.115,3045.434Zm-.507.186-.254.093a.034.034,0,0,1-.043-.02.035.035,0,0,1,.02-.043l.253-.092a.034.034,0,0,1,.044.019A.034.034,0,0,1,7833.608,3045.62Zm-.507.185-.253.093a.033.033,0,1,1-.024-.062l.254-.093a.035.035,0,0,1,.043.02A.032.032,0,0,1,7833.1,3045.8Zm-.507.186-.253.093a.034.034,0,0,1-.043-.02.033.033,0,0,1,.02-.043l.253-.092a.033.033,0,0,1,.043.019A.032.032,0,0,1,7832.594,3045.991Zm-.506.185-.254.093a.033.033,0,0,1-.043-.019.032.032,0,0,1,.02-.043l.253-.093a.034.034,0,0,1,.043.02A.032.032,0,0,1,7832.088,3046.176Zm-.507.186-.253.093a.035.035,0,0,1-.044-.02.034.034,0,0,1,.02-.043l.253-.092a.034.034,0,0,1,.044.019A.035.035,0,0,1,7831.581,3046.362Zm-.507.185-.253.093a.035.035,0,0,1-.044-.019.034.034,0,0,1,.02-.043l.254-.093a.035.035,0,0,1,.043.02A.032.032,0,0,1,7831.074,3046.547Zm-.507.186-.253.093a.034.034,0,0,1-.043-.02.033.033,0,0,1,.02-.043l.253-.092a.033.033,0,0,1,.043.019A.033.033,0,0,1,7830.567,3046.733Zm-.506.185-.254.093a.033.033,0,0,1-.043-.019.032.032,0,0,1,.02-.043l.253-.093a.034.034,0,0,1,.044.02A.033.033,0,0,1,7830.061,3046.918Zm-.507.186-.253.093a.036.036,0,0,1-.044-.02.035.035,0,0,1,.02-.043l.253-.092a.034.034,0,0,1,.044.019A.035.035,0,0,1,7829.554,3047.1Zm-.507.185-.253.093a.035.035,0,0,1-.044-.02.033.033,0,0,1,.02-.042l.254-.093a.033.033,0,0,1,.043.02A.031.031,0,0,1,7829.047,3047.289Zm-.507.186-.253.093a.034.034,0,0,1-.043-.02.033.033,0,0,1,.02-.043l.253-.092a.033.033,0,0,1,.043.019A.033.033,0,0,1,7828.54,3047.475Zm-.506.185-.254.093a.033.033,0,0,1-.043-.02.032.032,0,0,1,.02-.042l.253-.093a.035.035,0,0,1,.044.02A.033.033,0,0,1,7828.034,3047.66Zm-.507.186-.253.092a.034.034,0,0,1-.044-.019.035.035,0,0,1,.02-.043l.253-.092a.033.033,0,1,1,.024.062Zm-.507.185-.253.093a.033.033,0,0,1-.043-.02.031.031,0,0,1,.019-.042l.254-.093a.033.033,0,0,1,.043.02A.032.032,0,0,1,7827.02,3048.031Zm-.507.186-.253.092a.033.033,0,1,1-.023-.062l.253-.093a.034.034,0,0,1,.043.02A.033.033,0,0,1,7826.513,3048.217Zm-.506.185-.254.093a.034.034,0,0,1-.043-.02.032.032,0,0,1,.02-.042l.253-.093a.035.035,0,0,1,.044.019A.034.034,0,0,1,7826.007,3048.4Zm-.507.186-.253.092a.034.034,0,0,1-.044-.019.034.034,0,0,1,.02-.043l.254-.093a.034.034,0,0,1,.023.063Zm-.507.185-.253.093a.033.033,0,0,1-.043-.02.032.032,0,0,1,.019-.042l.254-.093a.034.034,0,0,1,.043.019A.032.032,0,0,1,7824.993,3048.773Zm-.506.186-.254.092a.033.033,0,0,1-.043-.019.033.033,0,0,1,.02-.043l.253-.093a.034.034,0,0,1,.043.02A.033.033,0,0,1,7824.487,3048.959Zm-.507.185-.254.093a.035.035,0,0,1-.043-.02.032.032,0,0,1,.02-.042l.253-.093a.035.035,0,0,1,.044.019A.034.034,0,0,1,7823.98,3049.144Zm-.507.186-.253.092a.033.033,0,1,1-.024-.062l.254-.093a.035.035,0,0,1,.043.02A.034.034,0,0,1,7823.473,3049.33Zm-.507.185-.253.093a.034.034,0,0,1-.043-.02.032.032,0,0,1,.019-.042l.254-.093a.033.033,0,0,1,.043.019A.032.032,0,0,1,7822.966,3049.515Zm-.506.186-.254.092a.033.033,0,1,1-.023-.062l.253-.093a.034.034,0,0,1,.043.02A.033.033,0,0,1,7822.46,3049.7Zm-.507.185-.254.093a.035.035,0,0,1-.043-.02.034.034,0,0,1,.02-.042l.253-.093a.033.033,0,1,1,.024.062Zm-.507.186-.253.092a.033.033,0,1,1-.024-.062l.254-.093a.034.034,0,0,1,.043.02A.033.033,0,0,1,7821.446,3050.072Zm-.507.185-.253.093a.034.034,0,0,1-.043-.02.032.032,0,0,1,.019-.042l.254-.093a.033.033,0,1,1,.023.062Zm-.506.185-.254.093a.033.033,0,1,1-.023-.062l.253-.093a.036.036,0,0,1,.044.02A.033.033,0,0,1,7820.433,3050.442Z" fill="#f2eeea"/>
      <path id="Path_26" data-name="Path 26" d="M7819.926,3050.628l-.126.046a.034.034,0,0,1-.044-.019.034.034,0,0,1,.02-.043l.126-.046a.034.034,0,0,1,.044.019A.034.034,0,0,1,7819.926,3050.628Z" fill="#f2eeea"/>
    </g>
    <g id="Group_32" data-name="Group 32">
      <path id="Path_27" data-name="Path 27" d="M7882.428,3045.455l-.126.046a.034.034,0,0,1-.044-.019.035.035,0,0,1,.02-.043l.127-.046a.033.033,0,1,1,.023.062Z" fill="#f2eeea"/>
      <path id="Path_28" data-name="Path 28" d="M7882.048,3045.594l-.253.093a.034.034,0,0,1-.043-.02.032.032,0,0,1,.02-.042l.253-.093a.033.033,0,0,1,.043.019A.032.032,0,0,1,7882.048,3045.594Zm-.506.186-.254.092a.033.033,0,0,1-.043-.019.032.032,0,0,1,.02-.043l.253-.093a.034.034,0,0,1,.024.063Zm-.507.185-.253.093a.036.036,0,0,1-.044-.02.033.033,0,0,1,.02-.042l.253-.093a.033.033,0,1,1,.024.062Zm-.507.186-.253.092a.034.034,0,0,1-.044-.019.034.034,0,0,1,.02-.043l.254-.093a.034.034,0,0,1,.043.02A.033.033,0,0,1,7880.528,3046.151Zm-.507.185-.253.093a.034.034,0,0,1-.043-.02.031.031,0,0,1,.02-.042l.253-.093a.033.033,0,1,1,.023.062Zm-.506.185-.254.093a.033.033,0,1,1-.023-.062l.253-.093a.035.035,0,0,1,.044.02A.033.033,0,0,1,7879.515,3046.521Zm-.507.186-.253.093a.035.035,0,0,1-.044-.02.033.033,0,0,1,.02-.042l.253-.093a.033.033,0,1,1,.024.062Zm-.507.185-.253.093a.033.033,0,1,1-.024-.062l.254-.093a.034.034,0,0,1,.043.02A.032.032,0,0,1,7878.5,3046.892Zm-.507.186-.253.093a.034.034,0,0,1-.043-.02.033.033,0,0,1,.02-.043l.253-.092a.033.033,0,0,1,.043.019A.033.033,0,0,1,7877.994,3047.078Zm-.506.185-.254.093a.033.033,0,0,1-.043-.019.033.033,0,0,1,.02-.043l.253-.093a.035.035,0,0,1,.044.02A.033.033,0,0,1,7877.488,3047.263Zm-.507.186-.253.093a.035.035,0,0,1-.044-.02.035.035,0,0,1,.02-.043l.254-.092a.033.033,0,0,1,.043.019A.035.035,0,0,1,7876.981,3047.449Zm-.507.185-.253.093a.033.033,0,0,1-.043-.019.032.032,0,0,1,.019-.043l.254-.093a.034.034,0,0,1,.043.02A.032.032,0,0,1,7876.474,3047.634Zm-.506.186-.254.093a.034.034,0,0,1-.043-.02.033.033,0,0,1,.02-.043l.253-.092a.033.033,0,1,1,.024.062Zm-.507.185-.254.093a.034.034,0,0,1-.043-.019.033.033,0,0,1,.02-.043l.253-.093a.035.035,0,0,1,.044.02A.033.033,0,0,1,7875.461,3048Zm-.507.186-.253.093a.035.035,0,0,1-.044-.02.034.034,0,0,1,.02-.043l.254-.092a.033.033,0,1,1,.023.062Zm-.507.185-.253.093a.033.033,0,0,1-.043-.02.032.032,0,0,1,.019-.042l.254-.093a.033.033,0,0,1,.043.02A.031.031,0,0,1,7874.447,3048.376Zm-.506.186-.254.093a.034.034,0,0,1-.043-.02.033.033,0,0,1,.02-.043l.253-.092a.032.032,0,0,1,.043.019A.033.033,0,0,1,7873.941,3048.562Zm-.507.185-.254.093a.034.034,0,0,1-.043-.02.033.033,0,0,1,.02-.042l.253-.093a.034.034,0,0,1,.044.02A.033.033,0,0,1,7873.434,3048.747Zm-.507.186-.253.092a.034.034,0,0,1-.044-.019.035.035,0,0,1,.02-.043l.254-.092a.033.033,0,0,1,.043.019A.034.034,0,0,1,7872.927,3048.933Zm-.507.185-.253.093a.033.033,0,0,1-.043-.02.032.032,0,0,1,.02-.042l.253-.093a.033.033,0,0,1,.043.02A.032.032,0,0,1,7872.42,3049.118Zm-.506.186-.254.092a.033.033,0,1,1-.023-.062l.253-.092a.033.033,0,0,1,.043.019A.033.033,0,0,1,7871.914,3049.3Zm-.507.185-.253.093a.035.035,0,0,1-.044-.02.033.033,0,0,1,.02-.042l.253-.093a.034.034,0,0,1,.044.02A.033.033,0,0,1,7871.407,3049.489Zm-.507.186-.253.092a.034.034,0,0,1-.044-.019.035.035,0,0,1,.02-.043l.254-.093a.034.034,0,0,1,.023.063Zm-.507.185-.253.093a.033.033,0,0,1-.043-.02.031.031,0,0,1,.02-.042l.253-.093a.034.034,0,0,1,.043.019A.033.033,0,0,1,7870.393,3049.86Zm-.506.186-.254.092a.033.033,0,1,1-.023-.062l.253-.093a.036.036,0,0,1,.044.02A.035.035,0,0,1,7869.887,3050.046Zm-.507.185-.253.093a.035.035,0,0,1-.044-.02.033.033,0,0,1,.02-.042l.253-.093a.035.035,0,0,1,.044.019A.034.034,0,0,1,7869.38,3050.231Zm-.507.186-.253.092a.032.032,0,0,1-.043-.019.033.033,0,0,1,.019-.043l.254-.093a.034.034,0,0,1,.043.02A.033.033,0,0,1,7868.873,3050.417Zm-.507.185-.253.093a.035.035,0,0,1-.043-.02.032.032,0,0,1,.02-.042l.253-.093a.033.033,0,0,1,.043.019A.033.033,0,0,1,7868.366,3050.6Zm-.506.186-.254.092a.033.033,0,1,1-.023-.062l.253-.093a.035.035,0,0,1,.044.02A.034.034,0,0,1,7867.86,3050.788Zm-.507.185-.253.093a.035.035,0,0,1-.044-.02.033.033,0,0,1,.02-.042l.254-.093a.033.033,0,0,1,.043.019A.034.034,0,0,1,7867.353,3050.973Zm-.507.186-.253.092a.033.033,0,0,1-.043-.019.033.033,0,0,1,.019-.043l.254-.093a.035.035,0,0,1,.043.02A.033.033,0,0,1,7866.846,3051.159Zm-.506.185-.254.093a.034.034,0,0,1-.043-.02.032.032,0,0,1,.02-.042l.253-.093a.033.033,0,1,1,.024.062Zm-.507.185-.254.093a.033.033,0,1,1-.023-.062l.253-.093a.035.035,0,0,1,.044.02A.033.033,0,0,1,7865.833,3051.529Zm-.507.186-.253.093a.036.036,0,0,1-.044-.02.035.035,0,0,1,.02-.043l.254-.092a.033.033,0,0,1,.043.019A.035.035,0,0,1,7865.326,3051.715Zm-.507.185-.253.093a.033.033,0,1,1-.024-.062l.254-.093a.034.034,0,0,1,.043.02A.031.031,0,0,1,7864.819,3051.9Zm-.506.186-.254.093a.034.034,0,0,1-.043-.02.033.033,0,0,1,.02-.043l.253-.092a.032.032,0,0,1,.043.019A.033.033,0,0,1,7864.313,3052.086Zm-.507.185-.253.093a.033.033,0,1,1-.024-.062l.253-.093a.035.035,0,0,1,.044.02A.033.033,0,0,1,7863.806,3052.271Zm-.507.186-.253.093a.035.035,0,0,1-.044-.02.035.035,0,0,1,.02-.043l.254-.092a.033.033,0,1,1,.023.062Zm-.507.185-.253.093a.034.034,0,0,1-.043-.019.032.032,0,0,1,.02-.043l.253-.093a.034.034,0,0,1,.043.02A.032.032,0,0,1,7862.792,3052.642Zm-.506.186-.254.093a.035.035,0,0,1-.043-.02.033.033,0,0,1,.02-.043l.253-.092a.034.034,0,0,1,.044.019A.035.035,0,0,1,7862.286,3052.828Zm-.507.185-.253.093a.035.035,0,0,1-.044-.019.034.034,0,0,1,.02-.043l.253-.093a.034.034,0,0,1,.044.02A.033.033,0,0,1,7861.779,3053.013Zm-.507.186-.253.093a.035.035,0,0,1-.044-.02.035.035,0,0,1,.02-.043l.254-.092a.033.033,0,0,1,.043.019A.033.033,0,0,1,7861.272,3053.2Zm-.507.185-.253.093a.033.033,0,0,1-.043-.02.031.031,0,0,1,.02-.042l.253-.093a.033.033,0,0,1,.043.02A.032.032,0,0,1,7860.765,3053.384Zm-.506.186-.254.093a.034.034,0,0,1-.043-.02.034.034,0,0,1,.02-.043l.253-.092a.034.034,0,0,1,.044.019A.034.034,0,0,1,7860.259,3053.57Zm-.507.185-.253.093a.034.034,0,0,1-.044-.02.033.033,0,0,1,.02-.042l.253-.093a.034.034,0,0,1,.044.02A.033.033,0,0,1,7859.752,3053.755Zm-.507.186-.253.092a.032.032,0,0,1-.043-.019.033.033,0,0,1,.019-.043l.254-.092a.033.033,0,0,1,.043.019A.033.033,0,0,1,7859.245,3053.941Zm-.506.185-.254.093a.033.033,0,0,1-.043-.02.032.032,0,0,1,.02-.042l.253-.093a.033.033,0,0,1,.043.02A.031.031,0,0,1,7858.739,3054.126Zm-.507.186-.254.092a.033.033,0,0,1-.043-.019.034.034,0,0,1,.02-.043l.253-.093a.034.034,0,1,1,.024.063Zm-.507.185-.253.093a.035.035,0,0,1-.044-.02.033.033,0,0,1,.02-.042l.254-.093a.034.034,0,0,1,.043.02A.033.033,0,0,1,7857.725,3054.5Zm-.507.186-.253.092a.033.033,0,0,1-.043-.019.034.034,0,0,1,.019-.043l.254-.093a.034.034,0,0,1,.043.02A.033.033,0,0,1,7857.218,3054.683Zm-.506.185-.254.093a.034.034,0,0,1-.043-.02.032.032,0,0,1,.02-.042l.253-.093a.033.033,0,0,1,.043.019A.032.032,0,0,1,7856.712,3054.868Zm-.507.186-.254.092a.033.033,0,0,1-.043-.019.033.033,0,0,1,.02-.043l.253-.093a.035.035,0,0,1,.044.02A.035.035,0,0,1,7856.205,3055.054Zm-.507.185-.253.093a.035.035,0,0,1-.044-.02.033.033,0,0,1,.02-.042l.254-.093a.033.033,0,1,1,.023.062Zm-.507.186-.253.092a.033.033,0,0,1-.043-.019.033.033,0,0,1,.02-.043l.253-.093a.034.034,0,0,1,.043.02A.033.033,0,0,1,7855.191,3055.425Zm-.506.185-.254.093a.034.034,0,0,1-.043-.02.031.031,0,0,1,.02-.042l.253-.093a.032.032,0,0,1,.043.019A.033.033,0,0,1,7854.685,3055.61Zm-.507.186-.253.092a.033.033,0,1,1-.024-.062l.253-.093a.036.036,0,0,1,.044.02A.035.035,0,0,1,7854.178,3055.8Zm-.507.185-.253.093a.035.035,0,0,1-.044-.02.033.033,0,0,1,.02-.042l.254-.093a.033.033,0,1,1,.023.062Zm-.507.185-.253.093a.033.033,0,0,1-.043-.019.032.032,0,0,1,.02-.043l.253-.093a.034.034,0,0,1,.043.02A.032.032,0,0,1,7853.164,3056.166Zm-.506.186-.254.093a.035.035,0,0,1-.043-.02.032.032,0,0,1,.02-.042l.253-.093a.033.033,0,1,1,.024.062Zm-.507.185-.253.093a.033.033,0,1,1-.024-.062l.253-.093a.035.035,0,0,1,.044.02A.033.033,0,0,1,7852.151,3056.537Zm-.507.186-.253.093a.035.035,0,0,1-.044-.02.034.034,0,0,1,.02-.043l.254-.092a.033.033,0,0,1,.043.019A.033.033,0,0,1,7851.644,3056.723Zm-.507.185-.253.093a.033.033,0,0,1-.043-.019.032.032,0,0,1,.02-.043l.253-.093a.035.035,0,0,1,.043.02A.032.032,0,0,1,7851.137,3056.908Zm-.506.186-.254.093a.034.034,0,0,1-.043-.02.033.033,0,0,1,.02-.043l.253-.092a.033.033,0,1,1,.024.062Zm-.507.185-.253.093a.034.034,0,0,1-.044-.019.033.033,0,0,1,.02-.043l.253-.093a.035.035,0,0,1,.044.02A.033.033,0,0,1,7850.124,3057.279Zm-.507.186-.253.093a.034.034,0,0,1-.043-.02.034.034,0,0,1,.019-.043l.254-.092a.033.033,0,0,1,.043.019A.033.033,0,0,1,7849.617,3057.465Zm-.507.185-.253.093a.034.034,0,0,1-.043-.019.033.033,0,0,1,.02-.043l.253-.093a.034.034,0,0,1,.043.02A.031.031,0,0,1,7849.11,3057.65Zm-.506.186-.254.093a.034.034,0,0,1-.043-.02.033.033,0,0,1,.02-.043l.253-.092a.034.034,0,0,1,.044.019A.035.035,0,0,1,7848.6,3057.836Zm-.507.185-.253.093a.035.035,0,0,1-.044-.019.034.034,0,0,1,.02-.043l.254-.093a.033.033,0,1,1,.023.062Zm-.507.186-.253.093a.034.034,0,0,1-.043-.02.033.033,0,0,1,.019-.043l.254-.092a.033.033,0,1,1,.023.062Zm-.506.185-.254.093a.033.033,0,0,1-.043-.02.031.031,0,0,1,.02-.042l.253-.093a.033.033,0,0,1,.043.02A.032.032,0,0,1,7847.084,3058.392Zm-.507.186-.254.093a.035.035,0,0,1-.043-.02.034.034,0,0,1,.02-.043l.253-.092a.034.034,0,0,1,.044.019A.035.035,0,0,1,7846.577,3058.578Zm-.507.185-.253.093a.034.034,0,0,1-.044-.02.033.033,0,0,1,.02-.042l.254-.093a.034.034,0,0,1,.043.02A.033.033,0,0,1,7846.07,3058.763Zm-.507.186-.253.092a.032.032,0,0,1-.043-.019.033.033,0,0,1,.019-.043l.254-.092a.033.033,0,0,1,.043.019A.033.033,0,0,1,7845.563,3058.949Zm-.506.185-.254.093a.034.034,0,0,1-.043-.02.032.032,0,0,1,.02-.042l.253-.093a.033.033,0,0,1,.043.02A.032.032,0,0,1,7845.057,3059.134Zm-.507.186-.254.092a.033.033,0,0,1-.043-.019.035.035,0,0,1,.02-.043l.253-.093a.035.035,0,0,1,.044.02A.034.034,0,0,1,7844.55,3059.32Zm-.507.185-.253.093a.034.034,0,0,1-.044-.02.033.033,0,0,1,.02-.042l.254-.093a.034.034,0,0,1,.043.02A.032.032,0,0,1,7844.043,3059.5Zm-.507.186-.253.092a.033.033,0,1,1-.023-.062l.253-.093a.035.035,0,0,1,.043.02A.033.033,0,0,1,7843.536,3059.691Zm-.506.185-.254.093a.033.033,0,0,1-.043-.02.032.032,0,0,1,.02-.042l.253-.093a.033.033,0,0,1,.043.019A.032.032,0,0,1,7843.03,3059.876Zm-.507.186-.253.092a.034.034,0,0,1-.044-.019.035.035,0,0,1,.02-.043l.253-.093a.034.034,0,1,1,.024.063Zm-.507.185-.253.093a.035.035,0,0,1-.044-.02.033.033,0,0,1,.02-.042l.254-.093a.034.034,0,0,1,.043.019A.033.033,0,0,1,7842.016,3060.247Zm-.507.186-.253.092a.033.033,0,0,1-.043-.019.033.033,0,0,1,.02-.043l.253-.093a.034.034,0,0,1,.043.02A.033.033,0,0,1,7841.509,3060.433Zm-.506.185-.254.093a.034.034,0,0,1-.043-.02.032.032,0,0,1,.02-.042l.253-.093a.034.034,0,0,1,.044.019A.034.034,0,0,1,7841,3060.618Zm-.507.186-.253.092a.033.033,0,1,1-.024-.062l.253-.093a.035.035,0,0,1,.044.02A.035.035,0,0,1,7840.5,3060.8Zm-.507.185-.253.093a.035.035,0,0,1-.044-.02.033.033,0,0,1,.02-.042l.254-.093a.033.033,0,0,1,.043.019A.032.032,0,0,1,7839.989,3060.989Zm-.507.186-.253.092a.033.033,0,0,1-.043-.019.033.033,0,0,1,.02-.043l.253-.093a.034.034,0,0,1,.043.02A.033.033,0,0,1,7839.482,3061.175Zm-.506.185-.254.093a.034.034,0,0,1-.043-.02.032.032,0,0,1,.02-.042l.253-.093a.034.034,0,0,1,.044.019A.034.034,0,0,1,7838.976,3061.36Zm-.507.185-.253.093a.033.033,0,1,1-.024-.062l.253-.093a.035.035,0,0,1,.044.02A.033.033,0,0,1,7838.469,3061.545Zm-.507.186-.253.093a.034.034,0,0,1-.024-.063l.254-.092a.033.033,0,1,1,.023.062Zm-.507.185-.253.093a.033.033,0,0,1-.043-.019.032.032,0,0,1,.02-.043l.253-.093a.034.034,0,0,1,.043.02A.032.032,0,0,1,7837.455,3061.916Zm-.506.186-.254.093a.035.035,0,0,1-.043-.02.034.034,0,0,1,.02-.043l.253-.092a.033.033,0,1,1,.024.062Zm-.507.185-.253.093a.033.033,0,1,1-.024-.062l.254-.093a.034.034,0,0,1,.043.02A.033.033,0,0,1,7836.442,3062.287Zm-.507.186-.253.093a.034.034,0,0,1-.043-.02.033.033,0,0,1,.019-.043l.254-.092a.033.033,0,1,1,.023.062Zm-.506.185-.254.093a.034.034,0,0,1-.043-.019.032.032,0,0,1,.02-.043l.253-.093a.035.035,0,0,1,.043.02A.032.032,0,0,1,7835.429,3062.658Zm-.507.186-.254.093a.034.034,0,0,1-.043-.02.034.034,0,0,1,.02-.043l.253-.092a.034.034,0,0,1,.044.019A.034.034,0,0,1,7834.922,3062.844Zm-.507.185-.253.093a.035.035,0,0,1-.044-.019.033.033,0,0,1,.02-.043l.254-.093a.034.034,0,0,1,.043.02A.033.033,0,0,1,7834.415,3063.029Zm-.507.186-.253.093a.035.035,0,0,1-.043-.02.033.033,0,0,1,.019-.043l.254-.092a.033.033,0,1,1,.023.062Zm-.506.185-.254.093a.033.033,0,0,1-.043-.02.032.032,0,0,1,.02-.042l.253-.093a.033.033,0,0,1,.043.02A.031.031,0,0,1,7833.4,3063.4Zm-.507.186-.254.093a.034.034,0,1,1-.023-.063l.253-.092a.034.034,0,0,1,.044.019A.035.035,0,0,1,7832.9,3063.586Zm-.507.185-.253.093a.035.035,0,0,1-.044-.02.034.034,0,0,1,.02-.042l.254-.093a.034.034,0,0,1,.043.02A.033.033,0,0,1,7832.388,3063.771Zm-.507.186-.253.092a.033.033,0,0,1-.043-.019.033.033,0,0,1,.019-.043l.254-.092a.033.033,0,1,1,.023.062Zm-.506.185-.254.093a.033.033,0,0,1-.043-.02.031.031,0,0,1,.02-.042l.253-.093a.033.033,0,0,1,.043.02A.032.032,0,0,1,7831.375,3064.142Zm-.507.186-.253.092a.034.034,0,0,1-.044-.019.035.035,0,0,1,.02-.043l.253-.093a.036.036,0,0,1,.044.02A.035.035,0,0,1,7830.868,3064.328Zm-.507.185-.253.093a.034.034,0,0,1-.044-.02.033.033,0,0,1,.02-.042l.254-.093a.033.033,0,0,1,.043.02A.032.032,0,0,1,7830.361,3064.513Zm-.507.186-.253.092a.033.033,0,1,1-.023-.062l.253-.093a.034.034,0,0,1,.043.02A.033.033,0,0,1,7829.854,3064.7Zm-.506.185-.254.093a.034.034,0,0,1-.043-.02.032.032,0,0,1,.02-.042l.253-.093a.035.035,0,0,1,.044.019A.034.034,0,0,1,7829.348,3064.884Zm-.507.186-.253.092a.034.034,0,0,1-.044-.019.035.035,0,0,1,.02-.043l.253-.093a.035.035,0,0,1,.044.02A.034.034,0,0,1,7828.841,3065.07Zm-.507.185-.253.093a.035.035,0,0,1-.044-.02.033.033,0,0,1,.02-.042l.254-.093a.034.034,0,0,1,.043.019A.032.032,0,0,1,7828.334,3065.255Zm-.507.186-.253.092a.033.033,0,1,1-.023-.062l.253-.093a.035.035,0,0,1,.043.02A.033.033,0,0,1,7827.827,3065.441Zm-.506.185-.254.093a.034.034,0,0,1-.043-.02.032.032,0,0,1,.02-.042l.253-.093a.034.034,0,0,1,.044.019A.033.033,0,0,1,7827.321,3065.626Zm-.507.186-.253.092a.033.033,0,1,1-.024-.062l.253-.093a.034.034,0,1,1,.024.063Zm-.507.185-.253.093a.034.034,0,0,1-.043-.02.032.032,0,0,1,.019-.042l.254-.093a.033.033,0,0,1,.043.019A.032.032,0,0,1,7826.307,3066Z" fill="#f2eeea"/>
      <path id="Path_29" data-name="Path 29" d="M7825.8,3066.182l-.127.047a.034.034,0,0,1-.043-.02.032.032,0,0,1,.02-.042l.126-.047a.034.034,0,0,1,.043.02A.031.031,0,0,1,7825.8,3066.182Z" fill="#f2eeea"/>
    </g>
    <g id="Group_33" data-name="Group 33">
      <path id="Path_30" data-name="Path 30" d="M7838.889,3038.514l-6.112,2.238-2.736-7.243,6.113-2.237a3.943,3.943,0,0,1,5.047,2.274,3.79,3.79,0,0,1,.246,1.444A3.87,3.87,0,0,1,7838.889,3038.514Z" fill="#f2eeea"/>
      <path id="Path_31" data-name="Path 31" d="M7831.065,3036.22l-.57-1.508-.454-1.2-6.114,2.238a3.847,3.847,0,0,0-2.311,4.968h0a3.944,3.944,0,0,0,5.047,2.275l6.113-2.238Z" fill="#1c5748"/>
    </g>
    <g id="Group_34" data-name="Group 34">
      <path id="Path_32" data-name="Path 32" d="M7844.852,3054.413l-6.112,2.238-2.736-7.243,6.113-2.237a3.943,3.943,0,0,1,5.047,2.274,3.788,3.788,0,0,1,.246,1.443A3.872,3.872,0,0,1,7844.852,3054.413Z" fill="#f2eeea"/>
      <path id="Path_33" data-name="Path 33" d="M7837.028,3052.119l-.57-1.508-.454-1.2-6.114,2.237a3.848,3.848,0,0,0-2.311,4.969h0a3.944,3.944,0,0,0,5.047,2.275l6.113-2.238Z" fill="#1c5748"/>
    </g>
    <g id="Group_35" data-name="Group 35">
      <path id="Path_34" data-name="Path 34" d="M7851.312,3069.823l-6.112,2.237-2.736-7.242,6.113-2.238a3.944,3.944,0,0,1,5.047,2.275,3.786,3.786,0,0,1,.246,1.443A3.872,3.872,0,0,1,7851.312,3069.823Z" fill="#f2eeea"/>
      <path id="Path_35" data-name="Path 35" d="M7843.488,3067.529l-.57-1.508-.454-1.2-6.114,2.238a3.847,3.847,0,0,0-2.311,4.968h0a3.943,3.943,0,0,0,5.047,2.275l6.113-2.237Z" fill="#1c5748"/>
    </g>
    <g id="Group_36" data-name="Group 36">
      <path id="Path_36" data-name="Path 36" d="M7866.717,3028.241l-6.113,2.238-2.735-7.243,6.112-2.237a3.944,3.944,0,0,1,5.048,2.274,3.778,3.778,0,0,1,.245,1.443A3.869,3.869,0,0,1,7866.717,3028.241Z" fill="#f2eeea"/>
      <path id="Path_37" data-name="Path 37" d="M7858.892,3025.947l-.569-1.508-.455-1.2-6.113,2.237a3.847,3.847,0,0,0-2.311,4.969h0a3.943,3.943,0,0,0,5.046,2.275l6.114-2.238Z" fill="#1c5748"/>
    </g>
    <g id="Group_37" data-name="Group 37">
      <path id="Path_38" data-name="Path 38" d="M7872.68,3044.14l-6.113,2.238-2.735-7.243,6.112-2.237a3.945,3.945,0,0,1,5.048,2.274,3.782,3.782,0,0,1,.245,1.443A3.869,3.869,0,0,1,7872.68,3044.14Z" fill="#f2eeea"/>
      <path id="Path_39" data-name="Path 39" d="M7864.855,3041.846l-.569-1.508-.455-1.2-6.113,2.237a3.846,3.846,0,0,0-2.311,4.968h0a3.941,3.941,0,0,0,5.046,2.275l6.114-2.237Z" fill="#1c5748"/>
    </g>
    <g id="Group_38" data-name="Group 38">
      <path id="Path_40" data-name="Path 40" d="M7879.14,3059.55l-6.113,2.237-2.735-7.242,6.112-2.238a3.946,3.946,0,0,1,5.048,2.275,3.783,3.783,0,0,1,.245,1.443A3.871,3.871,0,0,1,7879.14,3059.55Z" fill="#f2eeea"/>
      <path id="Path_41" data-name="Path 41" d="M7871.315,3057.256l-.569-1.508-.455-1.2-6.113,2.238a3.846,3.846,0,0,0-2.311,4.968h0a3.942,3.942,0,0,0,5.046,2.275l6.114-2.238Z" fill="#1c5748"/>
    </g>
  </g>
</svg>
