<svg xmlns="http://www.w3.org/2000/svg" width="64.739" height="78.899" viewBox="0 0 64.739 78.899">
  <g id="_1" data-name="1" transform="translate(-7546.32 -3009.322)">
    <rect id="Rectangle_29" data-name="Rectangle 29" width="47.422" height="50.296" rx="4.18" transform="translate(7546.32 3031.244)" fill="#397ab6"/>
    <path id="Path_57" data-name="Path 57" d="M7554.622,3022.2l-7.4,10.642h45.618l-8.53-11.118Z" fill="#397ab6"/>
    <rect id="Rectangle_30" data-name="Rectangle 30" width="47.422" height="23.31" transform="translate(7546.32 3044.193)" fill="#243695"/>
    <rect id="Rectangle_31" data-name="Rectangle 31" width="39.672" height="15.042" rx="1.951" transform="translate(7549.707 3009.322)" fill="#0f0e71"/>
    <g id="Group_44" data-name="Group 44">
      <line id="Line_7" data-name="Line 7" x1="0.012" y1="6.346" transform="translate(7559.927 3014.023)" fill="none" stroke="#f2eeea" stroke-linecap="round" stroke-miterlimit="10" stroke-width="1.726"/>
      <line id="Line_8" data-name="Line 8" x1="0.012" y1="6.346" transform="translate(7569.952 3014.023)" fill="none" stroke="#f2eeea" stroke-linecap="round" stroke-miterlimit="10" stroke-width="1.726"/>
      <line id="Line_9" data-name="Line 9" x1="0.012" y1="6.346" transform="translate(7579.977 3014.023)" fill="none" stroke="#f2eeea" stroke-linecap="round" stroke-miterlimit="10" stroke-width="1.726"/>
    </g>
    <g id="Group_45" data-name="Group 45">
      <rect id="Rectangle_32" data-name="Rectangle 32" width="5.702" height="13.799" rx="0.557" transform="translate(7567.31 3049.121)" fill="#f2eeea"/>
      <rect id="Rectangle_33" data-name="Rectangle 33" width="5.702" height="13.799" rx="0.557" transform="translate(7577.061 3053.17) rotate(90)" fill="#f2eeea"/>
    </g>
    <g id="Group_46" data-name="Group 46">
      <path id="Path_58" data-name="Path 58" d="M7608.535,3065.451l-10.122,10.122-12.183-12.183,10.123-10.122a8.614,8.614,0,1,1,12.182,12.183Z" fill="#243695"/>
      <path id="Path_59" data-name="Path 59" d="M7590.79,3067.951l-2.537-2.536-2.024-2.025-10.124,10.124a8.616,8.616,0,0,0,0,12.183h0a8.615,8.615,0,0,0,12.184,0l10.123-10.123Z" fill="#f2eeea"/>
    </g>
  </g>
</svg>
