<svg xmlns="http://www.w3.org/2000/svg" width="83.971" height="84.359" viewBox="0 0 83.971 84.359">
  <g id="_12" data-name="12" transform="translate(-7814.964 -3860.646)">
    <path id="Rectangle_48" data-name="Rectangle 48" d="M0,0H19.966a0,0,0,0,1,0,0V25.618A9.983,9.983,0,0,1,9.983,35.6h0A9.983,9.983,0,0,1,0,25.618V0A0,0,0,0,1,0,0Z" transform="translate(7838.94 3905.243) rotate(42.337)" fill="#65b829"/>
    <rect id="Rectangle_49" data-name="Rectangle 49" width="30.689" height="10.043" rx="5.022" transform="matrix(0.739, 0.673, -0.673, 0.739, 7841.74, 3894.208)" fill="#e5e5e5"/>
    <path id="Path_120" data-name="Path 120" d="M7856.446,3907.607l-6.726-6.129,26.137-28.687a24.094,24.094,0,0,0,2.8-3.751h0a18.717,18.717,0,0,1,3.517-4.248l4.09-3.67a1.8,1.8,0,0,1,2.41-.023l4.361,3.973a1.8,1.8,0,0,1,.2,2.4l-3.275,4.413a18.724,18.724,0,0,1-3.9,3.9h0a23.967,23.967,0,0,0-3.475,3.135Z" fill="#e5e5e5"/>
    <path id="Path_121" data-name="Path 121" d="M7883.66,3909.157a15.4,15.4,0,0,0-4.355.607l-32.624-29.729a15.72,15.72,0,0,0,0-6.262,15.189,15.189,0,0,0-15.849-12.19l-.13.007a1.249,1.249,0,0,0-.746,2.171l2.947,2.685a3.533,3.533,0,0,1,.231,4.991l-6.037,6.624a3.533,3.533,0,0,1-4.991.23l-3.676-3.351a1.252,1.252,0,0,0-2.091.835,15.553,15.553,0,0,0-.024,1.844,15.345,15.345,0,0,0,16.042,14.62,15.507,15.507,0,0,0,3.339-.524l32.812,29.9a15.191,15.191,0,0,0-.261,3.489,15.348,15.348,0,1,0,15.409-15.942Zm.232,21.859a6.519,6.519,0,1,1,6.206-6.817A6.516,6.516,0,0,1,7883.892,3931.016Z" fill="#65b829"/>
    <rect id="Rectangle_50" data-name="Rectangle 50" width="36.939" height="4.445" rx="2.222" transform="matrix(0.739, 0.673, -0.673, 0.739, 7844.609, 3886.419)" fill="#113630"/>
  </g>
</svg>
