<svg xmlns="http://www.w3.org/2000/svg" width="51.757" height="77.989" viewBox="0 0 51.757 77.989">
  <g id="_6" data-name="6" transform="translate(-7830.235 -3349.833)">
    <rect id="Rectangle_46" data-name="Rectangle 46" width="51.757" height="77.989" rx="5.619" transform="translate(7830.235 3349.833)" fill="#c6124d"/>
    <rect id="Rectangle_47" data-name="Rectangle 47" width="38.818" height="12.733" rx="1.405" transform="translate(7836.705 3357.791)" fill="#f2eeea"/>
    <path id="Path_112" data-name="Path 112" d="M7844.469,3396.525h-5.176a2.687,2.687,0,0,0-2.588,2.77v5.54a2.686,2.686,0,0,0,2.588,2.77h5.176a2.687,2.687,0,0,0,2.588-2.77v-5.54A2.687,2.687,0,0,0,7844.469,3396.525Z" fill="#850130"/>
    <path id="Path_113" data-name="Path 113" d="M7844.469,3410.375h-5.176a2.686,2.686,0,0,0-2.588,2.77v5.54a2.687,2.687,0,0,0,2.588,2.77h5.176a2.687,2.687,0,0,0,2.588-2.77v-5.54A2.687,2.687,0,0,0,7844.469,3410.375Z" fill="#850130"/>
    <path id="Path_114" data-name="Path 114" d="M7858.7,3382.675h-5.176a2.687,2.687,0,0,0-2.588,2.77v5.54a2.688,2.688,0,0,0,2.588,2.77h5.176a2.687,2.687,0,0,0,2.588-2.77v-5.54A2.686,2.686,0,0,0,7858.7,3382.675Z" fill="#850130"/>
    <path id="Path_115" data-name="Path 115" d="M7858.7,3396.525h-5.176a2.687,2.687,0,0,0-2.588,2.77v5.54a2.687,2.687,0,0,0,2.588,2.77h5.176a2.686,2.686,0,0,0,2.588-2.77v-5.54A2.687,2.687,0,0,0,7858.7,3396.525Z" fill="#850130"/>
    <path id="Path_116" data-name="Path 116" d="M7858.7,3410.375h-5.176a2.687,2.687,0,0,0-2.588,2.77v5.54a2.687,2.687,0,0,0,2.588,2.77h5.176a2.687,2.687,0,0,0,2.588-2.77v-5.54A2.686,2.686,0,0,0,7858.7,3410.375Z" fill="#850130"/>
    <path id="Path_117" data-name="Path 117" d="M7872.935,3382.675h-5.175a2.686,2.686,0,0,0-2.588,2.77v5.54a2.687,2.687,0,0,0,2.588,2.77h5.175a2.687,2.687,0,0,0,2.588-2.77v-5.54A2.686,2.686,0,0,0,7872.935,3382.675Z" fill="#850130"/>
    <path id="Path_118" data-name="Path 118" d="M7872.935,3396.525h-5.175a2.687,2.687,0,0,0-2.588,2.77v19.39a2.687,2.687,0,0,0,2.588,2.77h5.175a2.687,2.687,0,0,0,2.588-2.77v-19.39A2.687,2.687,0,0,0,7872.935,3396.525Z" fill="#f2eeea"/>
    <path id="Path_119" data-name="Path 119" d="M7844.469,3382.675h-5.176a2.686,2.686,0,0,0-2.588,2.77v5.54a2.687,2.687,0,0,0,2.588,2.77h5.176a2.688,2.688,0,0,0,2.588-2.77v-5.54A2.687,2.687,0,0,0,7844.469,3382.675Z" fill="#850130"/>
  </g>
</svg>
