<svg xmlns="http://www.w3.org/2000/svg" width="71.914" height="92.033" viewBox="0 0 71.914 92.033">
  <g id="_8" data-name="8" transform="translate(-7821.469 -3509.414)">
    <path id="Path_47" data-name="Path 47" d="M7867.531,3524.89" fill="#eae8e5"/>
    <g id="Group_42" data-name="Group 42">
      <path id="Path_48" data-name="Path 48" d="M7893.383,3589.973l-12.437,5.393-2.446-11.414-1.305,11.251-.434,3.455c-1.883.672-20.455,3.31-22.359,2.7l-18.823-5.593-2.248-11.322-.652,10.925-9.333-5.393-1.877-3.669c.395-1.729.887-10.255,1.476-12.521,1.205-4.622,6.028-5.839,10.294-6.506,2.026-.317,3.929-.511,5.257-.887a40.062,40.062,0,0,0,8.15-3.353h.007a13.63,13.63,0,0,0,1.268-.816,3.508,3.508,0,0,0,1.418-1.58l.013-.045a44.758,44.758,0,0,0,.932-7.84,7.909,7.909,0,0,0-.09-1.262,3.453,3.453,0,0,0-.117-.466h13.984a4.991,4.991,0,0,0-.207,1.43,43.659,43.659,0,0,0,.925,8.138l.026.084a.618.618,0,0,0,.058.149l.039.078a1.712,1.712,0,0,0,.175.272,1.04,1.04,0,0,0,.11.136l.084.1a3.592,3.592,0,0,0,.259.259,13.053,13.053,0,0,0,2.609,1.722c.628.336,1.308.666,2.014.984h.006a42.537,42.537,0,0,0,5.483,2.013,30.216,30.216,0,0,0,3.678.654c.356.052.725.1,1.094.155,3.618.544,7.768,1.405,9.8,4.409a6.892,6.892,0,0,1,.971,2.175c.537,2.046,1.029,10.6,1.463,12.521" fill="#6b3791"/>
      <path id="Path_49" data-name="Path 49" d="M7873.426,3566.334c-.984,3.017-1.386,5.218-3.386,8.06-.9,1.281-2.629,9.884-4.6,11.912,0,0-5.472,3.913-7.646,3.9s-6.821-3.01-7.813-3.9-4.15-10.126-5.51-12.132a32.071,32.071,0,0,1-4.059-7.84,62.346,62.346,0,0,0,6.241-3.295c.46-.292.887-.583,1.262-.861a4.018,4.018,0,0,0,1.425-1.535l.013-.045a38.071,38.071,0,0,0,.945-7.833,7.784,7.784,0,0,0-.1-1.269,3.455,3.455,0,0,0-.116-.466h13.983a5.266,5.266,0,0,0-.2,1.424,43.054,43.054,0,0,0,.926,8.144l.026.084a.673.673,0,0,0,.058.149l.039.078a2.16,2.16,0,0,0,.168.272c.033.045.072.084.111.129l.084.1c.084.091.168.175.265.266a13.222,13.222,0,0,0,2.583,1.709l.02.013c.595.414,1.249.815,1.89,1.184h.006a18.463,18.463,0,0,0,2.04,1.1" fill="#eae8e5"/>
      <path id="Path_50" data-name="Path 50" d="M7867.531,3524.89" fill="#eae8e5"/>
      <path id="Path_51" data-name="Path 51" d="M7868.933,3524.434c.831,3.651,1.084,10.607.74,16.5l-.025.033c-.525,4.24-1.716,7.438-4.195,9.944-5.031,4.965-5.438,4.829-8.488,4.855-.038,0-.045.013-.045.013h-.058c-3.049-.039-3.457.1-8.487-4.868a16.72,16.72,0,0,1-4.553-9.136,20.778,20.778,0,0,1-.381-2.663c-1.087-.055-2.337.163-3.207-.979a9.139,9.139,0,0,1-1.739-5.055c.109-1.522.218-2.609.815-2.935a3.137,3.137,0,0,1,2.012-.435c1.2.218,1.609,2.333,1.739,1.794.326-1.359,0-4.62,1.9-8.1a25.453,25.453,0,0,1,5.436-6.957,11.984,11.984,0,0,1,7.174-2.555C7864.1,3514.052,7867.639,3518.748,7868.933,3524.434Z" fill="#eae8e5"/>
      <path id="Path_52" data-name="Path 52" d="M7866.268,3538.62h-6.857a.565.565,0,0,1-.564-.563l-.646-4.327a.566.566,0,0,1,.564-.564h8.278a.565.565,0,0,1,.563.564l-.774,4.327A.565.565,0,0,1,7866.268,3538.62Z" fill="none" stroke="#09023c" stroke-miterlimit="10" stroke-width="0.646"/>
      <line id="Line_4" data-name="Line 4" y1="1.718" x2="2.061" transform="translate(7867.478 3531.663)" fill="none" stroke="#09023c" stroke-miterlimit="10" stroke-width="0.646"/>
      <path id="Path_53" data-name="Path 53" d="M7863.964,3552.4c-3.509,3.328-4.157,3.224-6.837,3.256-.039,0-.045.007-.045.007h-.117c-2.6-.032-3.275.065-6.564-3.01a22.77,22.77,0,0,1-.1,2.414c3.425,3.231,4.079,3.134,6.727,3.166h.058s.006-.006.045-.006c2.706-.026,3.341.064,6.934-3.354l-.039-.5c-.039-.55-.065-1.087-.065-1.573,0-.136,0-.265.007-.4" fill="#dfddd9"/>
      <path id="Path_54" data-name="Path 54" d="M7871.868,3515.411c-1.554-1.727-4.714-4.656-7.158-5.344-8.616-2.423-8.153,2.718-10.545,2.174-8.233-1.871-11.632,4.24-12.61,8.262-2.966,12.2-2.408,9.693-5.017,14.041,0,0-3.152,5.87-3.7,8.7s-1.413,7.066,1.305,9.783,5.435,5.653,5.326,9.567-1.413,10.327,1.631,12.718,5.762,3.153,8.262,2.609a8.282,8.282,0,0,0,3.587-1.521s-4.457-1.849-4.565-3.914a11.89,11.89,0,0,1,1.63-6.522c1.087-1.522,3.3-8.407,1.123-11.995s-7.029-7.35-7.029-11.378c0-3.121,2.158-11.337,4.4-13.735,5.607-5.994,14.837-4.07,14.876-3.875,1.1,5.5,2.9,12.8,5.186,14.973s-1.346,8.016-3.338,10.247a9.107,9.107,0,0,0-2.609,7.718c.326,2.827,2.935,8.045,3.914,9.784s3.587,4.566,4.022,5.87,1.087,4.022-.217,4.783a11.621,11.621,0,0,1-2.5,1.087,4.892,4.892,0,0,0,2.827.218c1.087-.435,4.457-2.609,4.783-5.87s-.435-8.7,1.087-10.545a44.026,44.026,0,0,0,5.544-6.088c1.631-2.5,2.826-6.522.326-11.632s-5.653-12.066-6.305-16.2S7875.114,3519.016,7871.868,3515.411Z" fill="#3a126c"/>
      <path id="Path_55" data-name="Path 55" d="M7844.2,3543.561s-.255-4.017-.2-4.451c-1.087-.055-2.338.163-3.207-.979a9.136,9.136,0,0,1-1.74-5.055,4.326,4.326,0,0,1,.835-2.744,2.252,2.252,0,0,1,1.992-.626c1.2.218,1.61,2.333,1.739,1.794.326-1.359,4.331-7.5,10.775-8.25" fill="#eae8e5"/>
      <g id="Group_41" data-name="Group 41">
        <path id="Path_56" data-name="Path 56" d="M7854.329,3538.62h-6.858a.564.564,0,0,1-.563-.563l-.646-4.327a.566.566,0,0,1,.564-.564h8.278a.565.565,0,0,1,.563.564l-.775,4.327A.564.564,0,0,1,7854.329,3538.62Z" fill="none" stroke="#09023c" stroke-miterlimit="10" stroke-width="0.646"/>
        <line id="Line_5" data-name="Line 5" x2="2.663" transform="translate(7855.539 3533.467)" fill="none" stroke="#09023c" stroke-miterlimit="10" stroke-width="0.646"/>
      </g>
      <line id="Line_6" data-name="Line 6" x1="2.523" y1="2.263" transform="translate(7843.61 3531.204)" fill="none" stroke="#09023c" stroke-miterlimit="10" stroke-width="0.646"/>
    </g>
  </g>
</svg>
