<svg xmlns="http://www.w3.org/2000/svg" width="120.635" height="73.372" viewBox="0 0 120.635 73.372">
  <g id="_9" data-name="9" transform="translate(-7518.298 -3686.104)">
    <path id="Path_71" data-name="Path 71" d="M7522.041,3686.1H7635.19a3.753,3.753,0,0,1,3.743,3.742v21.392a3.754,3.754,0,0,1-3.743,3.743H7522.041a3.755,3.755,0,0,1-3.743-3.743v-21.392a3.754,3.754,0,0,1,3.743-3.742" fill="#1c5748"/>
    <path id="Path_72" data-name="Path 72" d="M7539.588,3693.205h5.562a2.089,2.089,0,0,1,2.082,2.083v13.928a2.088,2.088,0,0,1-2.082,2.083h-5.562a2.088,2.088,0,0,1-2.082-2.083v-13.928a2.089,2.089,0,0,1,2.082-2.083" fill="#1c5748"/>
    <path id="Path_73" data-name="Path 73" d="M7612.174,3693.205h5.561a2.089,2.089,0,0,1,2.083,2.083v13.928a2.089,2.089,0,0,1-2.083,2.083h-5.561a2.089,2.089,0,0,1-2.083-2.083v-13.928a2.09,2.09,0,0,1,2.083-2.083" fill="#1c5748"/>
    <path id="Path_74" data-name="Path 74" d="M7575.5,3693.205h5.562a2.089,2.089,0,0,1,2.082,2.083v13.928a2.088,2.088,0,0,1-2.082,2.083H7575.5a2.088,2.088,0,0,1-2.082-2.083v-13.928a2.089,2.089,0,0,1,2.082-2.083" fill="#1c5748"/>
    <path id="Path_75" data-name="Path 75" d="M7578.4,3700.542a14.664,14.664,0,0,0-8.942,26.289h0l.016.009c.24.185.484.365.735.535a2.878,2.878,0,0,1,1.229,1.891.474.474,0,0,0,.069.264v.33c0,.5.483.934,1.152,1.094v23.908l5.414,4.371v-28.212h.018v-1.153c.1,0,.208.007.313.007a14.667,14.667,0,0,0,0-29.333" fill="#96ce17"/>
    <path id="Path_76" data-name="Path 76" d="M7628.883,3709.42l.019,0-12.8-9.358a1.843,1.843,0,0,0-1.039-.318c-.045,0-.089.006-.133.01s-.089-.01-.134-.01a1.848,1.848,0,0,0-1.039.318l-12.8,9.358.02,0a2.62,2.62,0,0,0-1.449,2.534l2.5,11.3a2.959,2.959,0,0,0,2.95,2.95h.132a2.258,2.258,0,0,1,1.074,1.354v1.833a1.728,1.728,0,0,0,1.723,1.723h.88v23.974l6.028,4.384v-33.268h10.06a2.959,2.959,0,0,0,2.95-2.95l2.5-11.3a2.623,2.623,0,0,0-1.449-2.534" fill="#96ce17"/>
    <path id="Path_77" data-name="Path 77" d="M7553.8,3705.163l.02-.006-10.28-5.1a1.83,1.83,0,0,0-1.286-.3l-.022-.011-.041.021a1.85,1.85,0,0,0-.7.269c-.034.022-.065.048-.1.072l-10.032,4.844a2.947,2.947,0,0,0-.4.191l-.03.014,0,0a2.949,2.949,0,0,0-1.453,2.533v15.528a2.953,2.953,0,0,0,2.945,2.945,2.2,2.2,0,0,1,1.164,1.4v1.833a1.728,1.728,0,0,0,1.723,1.723h.88v26.265l6.028,2.093v-33.311H7552.3a2.954,2.954,0,0,0,2.946-2.945v-15.528a2.949,2.949,0,0,0-1.447-2.529" fill="#96ce17"/>
    <path id="Path_78" data-name="Path 78" d="M7539.975,3705.774a2.395,2.395,0,1,1,2.394,2.394,2.394,2.394,0,0,1-2.394-2.394" fill="#96ce17"/>
    <path id="Path_79" data-name="Path 79" d="M7612.56,3705.774a2.395,2.395,0,1,1,2.4,2.394,2.4,2.4,0,0,1-2.4-2.394" fill="#96ce17"/>
    <path id="Path_80" data-name="Path 80" d="M7576.008,3705.774a2.395,2.395,0,1,1,2.4,2.394,2.4,2.4,0,0,1-2.4-2.394" fill="#96ce17"/>
    <path id="Path_81" data-name="Path 81" d="M7542.369,3706.18h0a.988.988,0,0,1-.986-.986v-7.485a.987.987,0,1,1,1.973,0v7.485a.989.989,0,0,1-.987.986" fill="#f2eeea" stroke="#dad6d2" stroke-miterlimit="10" stroke-width="0.209"/>
    <path id="Path_82" data-name="Path 82" d="M7542.369,3706.18h0a.988.988,0,0,1-.986-.986v-7.485a.987.987,0,1,1,1.973,0v7.485A.989.989,0,0,1,7542.369,3706.18Z" fill="#f2eeea" stroke="#f2eeea" stroke-miterlimit="10" stroke-width="0.624"/>
    <path id="Path_83" data-name="Path 83" d="M7578.4,3706.18h0a.989.989,0,0,1-.987-.986v-7.485a.987.987,0,1,1,1.973,0v7.485a.989.989,0,0,1-.986.986" fill="#f2eeea" stroke="#f2eeea" stroke-miterlimit="10" stroke-width="0.624"/>
    <path id="Path_84" data-name="Path 84" d="M7578.4,3706.18h0a.989.989,0,0,1-.987-.986v-7.485a.987.987,0,1,1,1.973,0v7.485A.989.989,0,0,1,7578.4,3706.18Z" fill="none" stroke="#f2eeea" stroke-miterlimit="10" stroke-width="0.624"/>
    <path id="Path_85" data-name="Path 85" d="M7614.955,3706.18h0a.989.989,0,0,1-.987-.986v-7.485a.987.987,0,1,1,1.973,0v7.485a.988.988,0,0,1-.986.986" fill="#f2eeea"/>
    <path id="Path_86" data-name="Path 86" d="M7614.955,3706.18h0a.989.989,0,0,1-.987-.986v-7.485a.987.987,0,1,1,1.973,0v7.485A.988.988,0,0,1,7614.955,3706.18Z" fill="none" stroke="#f2eeea" stroke-miterlimit="10" stroke-width="0.624"/>
    <path id="Path_87" data-name="Path 87" d="M7588.1,3726.208h-10.044v4.813h.017v28.129l5.312-4.288.138-.311-2.8-4.013,2.8-4.014-1.354-1.941-1.444-2.07,2.8-4.012-2.725-2.545,1.768-4.935h.351c.947,0,1.723-.523,1.723-1.161v-.33a.483.483,0,0,0,.068-.264,1.474,1.474,0,0,1,.371-1,14.677,14.677,0,0,0,3.021-2.057" fill="#1c5748"/>
    <path id="Path_88" data-name="Path 88" d="M7552.211,3726.208h-9.979v33.268l5.754-2.5v-7.5l-1.918-1.644-.137-3.014,2.055-2.328.137-3.7-2.192-3.014,2.192-2.329v-2.205h1.017a1.728,1.728,0,0,0,1.723-1.723v-.489a.988.988,0,0,0,.068-.391,2.382,2.382,0,0,1,1.3-2.349Z" fill="#1c5748"/>
    <path id="Path_89" data-name="Path 89" d="M7614.818,3726.208v33.268l5.753-4.8v-3.821l-1.917-1.644-.049-2.623,1.5-1.913-1.584-1.838,2.055-2.329.137-1.723-2.192-3.014,2.192-2.329v-2.329h1.017a1.728,1.728,0,0,0,1.723-1.723v-2.759a1.747,1.747,0,0,0-.056-.428Z" fill="#1c5748"/>
    <path id="Path_90" data-name="Path 90" d="M7536.068,3726.208v31.057l1.591.619v-31.676Z" fill="#f2eeea"/>
    <path id="Path_91" data-name="Path 91" d="M7572.62,3726.208v28.531l1.591,1.242v-29.773Z" fill="#f2eeea"/>
    <path id="Path_92" data-name="Path 92" d="M7608.785,3726.208v28.854l1.591,1.161v-30.014Z" fill="#f2eeea"/>
    <path id="Path_93" data-name="Path 93" d="M7542.346,3720.021h0a.773.773,0,0,1-.748-.792v-6.015a.748.748,0,1,1,1.494,0v6.015a.771.771,0,0,1-.746.792" fill="#f2eeea"/>
    <path id="Path_94" data-name="Path 94" d="M7542.346,3720.021h0a.773.773,0,0,1-.748-.792v-6.015a.748.748,0,1,1,1.494,0v6.015A.771.771,0,0,1,7542.346,3720.021Z" fill="none" stroke="#f2eeea" stroke-miterlimit="10" stroke-width="0.624"/>
    <path id="Path_95" data-name="Path 95" d="M7546.145,3716.222h0a.772.772,0,0,1-.792.747h-6.015a.748.748,0,1,1,0-1.494h6.015a.772.772,0,0,1,.792.747" fill="#f2eeea"/>
    <path id="Path_96" data-name="Path 96" d="M7546.145,3716.222h0a.772.772,0,0,1-.792.747h-6.015a.748.748,0,1,1,0-1.494h6.015A.772.772,0,0,1,7546.145,3716.222Z" fill="none" stroke="#f2eeea" stroke-miterlimit="10" stroke-width="0.624"/>
    <path id="Path_97" data-name="Path 97" d="M7578.239,3720.021h0a.772.772,0,0,1-.747-.792v-6.015a.748.748,0,1,1,1.494,0v6.015a.772.772,0,0,1-.747.792" fill="#f2eeea"/>
    <path id="Path_98" data-name="Path 98" d="M7578.239,3720.021h0a.772.772,0,0,1-.747-.792v-6.015a.748.748,0,1,1,1.494,0v6.015A.772.772,0,0,1,7578.239,3720.021Z" fill="none" stroke="#f2eeea" stroke-miterlimit="10" stroke-width="0.624"/>
    <path id="Path_99" data-name="Path 99" d="M7582.039,3716.222h0a.772.772,0,0,1-.792.747h-6.015a.748.748,0,1,1,0-1.494h6.015a.772.772,0,0,1,.792.747" fill="#f2eeea"/>
    <path id="Path_100" data-name="Path 100" d="M7582.039,3716.222h0a.772.772,0,0,1-.792.747h-6.015a.748.748,0,1,1,0-1.494h6.015A.772.772,0,0,1,7582.039,3716.222Z" fill="none" stroke="#f2eeea" stroke-miterlimit="10" stroke-width="0.624"/>
    <path id="Path_101" data-name="Path 101" d="M7615.283,3720.021h0a.773.773,0,0,1-.748-.792v-6.015a.749.749,0,1,1,1.495,0v6.015a.772.772,0,0,1-.747.792" fill="#f2eeea"/>
    <path id="Path_102" data-name="Path 102" d="M7615.283,3720.021h0a.773.773,0,0,1-.748-.792v-6.015a.749.749,0,1,1,1.495,0v6.015A.772.772,0,0,1,7615.283,3720.021Z" fill="none" stroke="#f2eeea" stroke-miterlimit="10" stroke-width="0.624"/>
    <path id="Path_103" data-name="Path 103" d="M7619.083,3716.222h0a.773.773,0,0,1-.793.747h-6.015a.748.748,0,1,1,0-1.494h6.015a.773.773,0,0,1,.793.747" fill="#f2eeea"/>
    <path id="Path_104" data-name="Path 104" d="M7619.083,3716.222h0a.773.773,0,0,1-.793.747h-6.015a.748.748,0,1,1,0-1.494h6.015A.773.773,0,0,1,7619.083,3716.222Z" fill="none" stroke="#f2eeea" stroke-miterlimit="10" stroke-width="0.624"/>
  </g>
</svg>
