<svg xmlns="http://www.w3.org/2000/svg" width="82.134" height="69.783" viewBox="0 0 82.134 69.783">
  <g id="_7" data-name="7" transform="translate(-7532.838 -3520.304)">
    <path id="Path_42" data-name="Path 42" d="M7536.893,3551.392h73.164s-6.968,33.21-7.857,35.582-1.631,3.113-4.893,3.113h-47.738c-1.631,0-4.448-.148-5.486-4.447S7536.893,3551.392,7536.893,3551.392Z" fill="#f37401"/>
    <rect id="Rectangle_27" data-name="Rectangle 27" width="82.134" height="8.95" rx="2.67" transform="translate(7532.838 3543.386)" fill="#da1b01"/>
    <circle id="Ellipse_1" data-name="Ellipse 1" cx="5.311" cy="5.311" r="5.311" transform="translate(7568.226 3538.405)" fill="#f2eeea"/>
    <path id="Path_43" data-name="Path 43" d="M7566.18,3582.366h0a2.9,2.9,0,0,1-3.02-2.756l-1.231-16.957a3.5,3.5,0,0,1,3.2-3.243h0a3.518,3.518,0,0,1,3.465,2.978l.342,16.958A2.9,2.9,0,0,1,7566.18,3582.366Z" fill="#f2eeea"/>
    <path id="Path_44" data-name="Path 44" d="M7580.7,3582.366h0a2.9,2.9,0,0,0,3.02-2.756l1.231-16.957a3.5,3.5,0,0,0-3.2-3.243h0a3.517,3.517,0,0,0-3.465,2.978l-.342,16.958A2.9,2.9,0,0,0,7580.7,3582.366Z" fill="#f2eeea"/>
    <path id="Path_45" data-name="Path 45" d="M7594.892,3582.2h0a2.9,2.9,0,0,0,3.352-2.341l3.418-16.655a3.5,3.5,0,0,0-2.753-3.63h0a3.517,3.517,0,0,0-3.822,2.5l-2.536,16.77A2.9,2.9,0,0,0,7594.892,3582.2Z" fill="#f2eeea"/>
    <path id="Path_46" data-name="Path 46" d="M7552.221,3582.2h0a2.9,2.9,0,0,1-3.352-2.341l-3.418-16.655a3.5,3.5,0,0,1,2.753-3.63h0a3.516,3.516,0,0,1,3.822,2.5l2.536,16.77A2.9,2.9,0,0,1,7552.221,3582.2Z" fill="#f2eeea"/>
    <rect id="Rectangle_28" data-name="Rectangle 28" width="33.172" height="8.634" rx="4.317" transform="translate(7567.588 3543.76) rotate(-45)" fill="#f37401"/>
  </g>
</svg>
