<svg xmlns="http://www.w3.org/2000/svg" width="69.99" height="73.189" viewBox="0 0 69.99 73.189">
  <g id="_11" data-name="11" transform="translate(-7532.147 -3857.459)">
    <path id="Path_122" data-name="Path 122" d="M7563.164,3858.37l2.51,2.365a1.493,1.493,0,0,0,2.092-.044l2.713-2.781a1.493,1.493,0,0,1,2.116-.021l2.864,2.824a1.491,1.491,0,0,0,2.09,0l2.9-2.832a1.491,1.491,0,0,1,2.115.03l2.635,2.726a1.492,1.492,0,0,0,2.137.009l2.7-2.745a1.492,1.492,0,0,1,2.115-.012l2.8,2.78a1.493,1.493,0,0,0,2.127-.024l2.493-2.589a1.493,1.493,0,0,1,2.568,1.041c-.058,15.128-1.41,71.547-18.34,71.547-14.555,0-17.553-20.763-17.553-20.763l-15.419-2.445s10.986-2.759,9.824-47.941A1.493,1.493,0,0,1,7563.164,3858.37Z" fill="#397ab6" fill-rule="evenodd"/>
    <path id="Path_123" data-name="Path 123" d="M7565.581,3907.44H7534.95a2.805,2.805,0,0,0-2.735,3.414c1.429,6.453,5.287,19.795,12.756,19.795H7583.8c-11.622,0-14.677-14.8-15.437-20.761A2.8,2.8,0,0,0,7565.581,3907.44Z" fill="#e5e5e5" fill-rule="evenodd"/>
    <rect id="Rectangle_51" data-name="Rectangle 51" width="18.822" height="2.442" rx="1.217" transform="translate(7566.958 3869.576)" fill="#f2eeea"/>
    <rect id="Rectangle_52" data-name="Rectangle 52" width="18.822" height="2.442" rx="1.217" transform="translate(7566.958 3876.391)" fill="#f2eeea"/>
    <rect id="Rectangle_53" data-name="Rectangle 53" width="18.822" height="2.442" rx="1.217" transform="translate(7566.958 3883.208)" fill="#f2eeea"/>
    <rect id="Rectangle_54" data-name="Rectangle 54" width="5.41" height="2.442" rx="1.217" transform="translate(7589.143 3869.684)" fill="#f2eeea"/>
    <rect id="Rectangle_55" data-name="Rectangle 55" width="5.41" height="2.442" rx="1.217" transform="translate(7589.143 3876.499)" fill="#f2eeea"/>
    <rect id="Rectangle_56" data-name="Rectangle 56" width="5.41" height="2.442" rx="1.217" transform="translate(7589.143 3883.316)" fill="#f2eeea"/>
    <path id="Path_124" data-name="Path 124" d="M7594.082,3901.189a2.21,2.21,0,0,1-1.677,2.151,3.909,3.909,0,0,1-.718.157v1.174a.4.4,0,0,1-.421.379h-.705a.4.4,0,0,1-.42-.379v-1.164c0-.014,0-.028,0-.041a4.176,4.176,0,0,1-2.362-1.061.621.621,0,0,1,.1-.935.79.79,0,0,1,1.035.088,2.539,2.539,0,0,0,1.272.563,3.584,3.584,0,0,0,1.72-.03.87.87,0,0,0,.7-.9c0-.866-.579-1.144-2-1.616a7.142,7.142,0,0,1-1.867-.822,2.407,2.407,0,0,1,.346-4.159,3.6,3.6,0,0,1,1.049-.293v-1.172a.4.4,0,0,1,.42-.38h.705a.4.4,0,0,1,.421.38v1.163a.226.226,0,0,1,0,.037,5.128,5.128,0,0,1,1.938.653.624.624,0,0,1,.17.926.787.787,0,0,1-1.026.153,3.938,3.938,0,0,0-3-.286.989.989,0,0,0-.586,1.021c0,.807.562,1.074,1.942,1.532a7.134,7.134,0,0,1,1.9.845A2.365,2.365,0,0,1,7594.082,3901.189Z" fill="#f2eeea"/>
  </g>
</svg>
