<svg xmlns="http://www.w3.org/2000/svg" width="76.203" height="76.212" viewBox="0 0 76.203 76.212">
  <g id="release-note" transform="translate(-5906.518 -927.29)">
    <path id="Path_1233" data-name="Path 1233" d="M5906.569,1003.451a.173.173,0,0,1-.012-.232c5.333-6.414,13.88-16,15.334-17.49,1.7-1.749,3.719-3.881,5.921-3.9a.37.37,0,0,1,.267.113.382.382,0,0,1,.113.283A5.316,5.316,0,0,1,5927.17,985c-.244.344-1.01,1.182-1.277,1.475-2.491,2.7-3.893,3.675-7.676,7.112-3.832,3.47-7.883,6.94-11.416,9.876a.172.172,0,0,1-.232-.011" fill="#5a0011"/>
    <path id="Path_1234" data-name="Path 1234" d="M5914.68,1003.4a.115.115,0,0,1-.008-.157c3.62-4.355,9.423-10.863,10.411-11.875,1.168-1.2,2.56-2.673,4.078-2.65a.126.126,0,0,1,.082.035l.083.084a.113.113,0,0,1,.035.081,3.552,3.552,0,0,1-.694,1.955c-.166.233-.686.8-.868,1-1.691,1.834-2.642,2.495-5.211,4.829-2.6,2.355-5.352,4.711-7.751,6.7a.115.115,0,0,1-.157-.008" fill="#5a0011"/>
    <path id="Path_1235" data-name="Path 1235" d="M5906.615,995.338a.117.117,0,0,1-.008-.158c3.621-4.355,9.424-10.863,10.411-11.875,1.169-1.2,2.561-2.673,4.079-2.65a.119.119,0,0,1,.081.036l.084.083a.118.118,0,0,1,.035.081,3.559,3.559,0,0,1-.694,1.955c-.166.233-.686.8-.868,1-1.691,1.835-2.643,2.5-5.212,4.83-2.6,2.354-5.351,4.711-7.751,6.7a.115.115,0,0,1-.157-.007" fill="#5a0011"/>
    <path id="Path_1236" data-name="Path 1236" d="M5958.724,973.791c-5.614,3.388-11.9,6.634-14.959,8.175l1.267,15.578,11.894-11.893a7.813,7.813,0,0,0,2.262-6.156Z" fill="#f37401"/>
    <path id="Path_1237" data-name="Path 1237" d="M5923.148,972.536l14.328,14.328,2.136-4.225L5927.374,970.4Z" fill="#f37401"/>
    <path id="Path_1238" data-name="Path 1238" d="M5970.089,945.252a.956.956,0,0,0-.143.009v.322h.121c.106,0,.285-.022.285-.165,0-.078-.03-.166-.263-.166" fill="#397ab6"/>
    <path id="Path_1239" data-name="Path 1239" d="M5936.222,951.289l-5.705-.465a7.814,7.814,0,0,0-6.156,2.262l-11.893,11.893,15.578,1.268c1.542-3.059,4.787-9.343,8.176-14.958" fill="#f37401"/>
    <path id="Path_1240" data-name="Path 1240" d="M5970.43,946.354l-.011-.013a.834.834,0,0,1-.1-.344c-.022-.1-.075-.164-.256-.164h-.114v.521h-.3v-1.309l.029-.005a2.421,2.421,0,0,1,.438-.038.649.649,0,0,1,.414.1.348.348,0,0,1,.142.289.335.335,0,0,1-.212.309.447.447,0,0,1,.174.294,1,1,0,0,0,.084.3l.037.055Zm-.3-1.631h-.007a.944.944,0,0,0,.014,1.888h.013a.848.848,0,0,0,.6-.245.963.963,0,0,0,.28-.7.905.905,0,0,0-.9-.948" fill="#397ab6"/>
    <path id="Path_1241" data-name="Path 1241" d="M5982.484,927.527a40.739,40.739,0,0,0-14.338,1,48.438,48.438,0,0,1,13.339,13.339,40.754,40.754,0,0,0,1-14.339" fill="#5a0011"/>
    <path id="Path_1242" data-name="Path 1242" d="M5965.414,929.309a48,48,0,0,0-22.069,15.29c-5.724,6.853-14.318,24.431-14.318,24.431l11.954,11.955s17.579-8.595,24.431-14.318A48.022,48.022,0,0,0,5980.7,944.6a45.869,45.869,0,0,0-15.29-15.289" fill="#f37401"/>
  </g>
</svg>
