<svg xmlns="http://www.w3.org/2000/svg" width="101.41" height="65.282" viewBox="0 0 101.41 65.282">
  <g id="map" transform="translate(-5064.618 -931.868)">
    <path id="Path_1071" data-name="Path 1071" d="M5121.637,950.656a.365.365,0,1,1,.016-.729h.076l.649.027h.021a.365.365,0,1,1-.048.729h-.017l-.621-.027Z" fill="#3a126c" fill-rule="evenodd"/>
    <path id="Path_1072" data-name="Path 1072" d="M5117.356,951.024a.366.366,0,0,1-.135-.719l.076-.016.621-.108.033-.006a.366.366,0,1,1,.108.724l-.027.006-.6.108-.075.016Z" fill="#3a126c" fill-rule="evenodd"/>
    <path id="Path_1073" data-name="Path 1073" d="M5113.248,952.289a.367.367,0,0,1-.286-.676l.021-.011.568-.243.086-.033a.364.364,0,1,1,.26.681l-.081.033-.341.13-.227.1-.021.011Z" fill="#3a126c" fill-rule="evenodd"/>
    <path id="Path_1074" data-name="Path 1074" d="M5109.5,954.4a.364.364,0,1,1-.421-.594l.1-.07.411-.281.1-.065a.367.367,0,0,1,.406.611l-.195.129-.389.281Z" fill="#3a126c" fill-rule="evenodd"/>
    <path id="Path_1075" data-name="Path 1075" d="M5106.287,957.25a.367.367,0,0,1-.541-.5l.054-.059.432-.46.027-.027a.368.368,0,0,1,.525.514l-.108.108-.244.259-.081.092-.054.06Z" fill="#3a126c" fill-rule="evenodd"/>
    <path id="Path_1076" data-name="Path 1076" d="M5102.5,960.363l-.016,36.787,31.728-11.519V931.883l.011-.015-31.728,11.518v16.988c0-.006,0-.006,0-.011" fill="#243695" fill-rule="evenodd"/>
    <path id="Path_1077" data-name="Path 1077" d="M5103.916,960.12" fill="#09023c" fill-rule="evenodd"/>
    <path id="Path_1078" data-name="Path 1078" d="M5102.059,964.677a.366.366,0,1,1-.7-.222l.038-.113.173-.5.032-.086a.364.364,0,0,1,.687.243l-.027.081-.087.249-.075.248-.038.114Z" fill="#3a126c" fill-rule="evenodd"/>
    <path id="Path_1079" data-name="Path 1079" d="M5100.1,969.028a.371.371,0,0,1-.184-.487l.038-.081.054-.113.146-.341.048-.119a.365.365,0,1,1,.676.276v.005l-.1.238-.163.357-.037.081a.371.371,0,0,1-.487.184Z" fill="#3a126c" fill-rule="evenodd"/>
    <path id="Path_1080" data-name="Path 1080" d="M5097.811,972.757a.369.369,0,0,1-.076-.513l.011-.011.351-.486.06-.087a.365.365,0,1,1,.6.416l-.06.087-.281.411-.076.1-.01.011a.37.37,0,0,1-.514.075Z" fill="#3a126c" fill-rule="evenodd"/>
    <path id="Path_1081" data-name="Path 1081" d="M5094.778,975.914a.364.364,0,0,1,.038-.514l.071-.059.346-.3.086-.081.032-.027a.367.367,0,1,1,.5.535l-.032.033-.087.081-.367.324-.071.06a.357.357,0,0,1-.513-.038Z" fill="#3a126c" fill-rule="evenodd"/>
    <path id="Path_1082" data-name="Path 1082" d="M5091.108,978.3a.367.367,0,0,1,.157-.492l.016-.011.514-.27.1-.054.006-.006a.365.365,0,1,1,.362.633l-.011.005-.411.238-.205.108-.016.011a.367.367,0,0,1-.492-.157Z" fill="#3a126c" fill-rule="evenodd"/>
    <path id="Path_1083" data-name="Path 1083" d="M5087.314,979.3l.227-.054.341-.1.07-.022a.366.366,0,0,1,.205.7l-.3.086-.238.065-.119.027-.065.016a.365.365,0,0,1-.178-.708l.064-.016Z" fill="#3a126c" fill-rule="evenodd"/>
    <path id="Path_1084" data-name="Path 1084" d="M5083.125,979.849h.119l.357-.016.108-.006a.365.365,0,0,1,.038.73l-.114.005-.373.017H5083a.365.365,0,1,1-.006-.73Z" fill="#3a126c" fill-rule="evenodd"/>
    <path id="Path_1085" data-name="Path 1085" d="M5102.432,943.4,5070.7,931.878v53.753l31.729,11.518Z" fill="#397ab6" fill-rule="evenodd"/>
    <path id="Path_1086" data-name="Path 1086" d="M5086.638,952.293a11.94,11.94,0,0,0-16.031-4.06.325.325,0,0,1-.173.1,11.977,11.977,0,0,0-5.816,10.253c0,2.638,2.854,7.238,6,11.729l.033.049c1.124,1.6,2.291,3.194,3.373,4.675l2.54,3.525.222-.281,4.972-6.665c.676-.957,1.33-1.908,1.935-2.832,1.746-2.649,4.7-7.427,4.735-10.2a11.847,11.847,0,0,0-1.794-6.291Z" fill="#0f0e71" fill-rule="evenodd"/>
    <path id="Path_1087" data-name="Path 1087" d="M5083.319,958.752a6.64,6.64,0,0,1-1.945,4.762,6.794,6.794,0,0,1-10.5-8.535l.843-1.032a6.805,6.805,0,0,1,11.6,4.8Z" fill="#f2eeea" fill-rule="evenodd"/>
    <path id="Path_1088" data-name="Path 1088" d="M5166.028,943.4l-31.739-11.524v53.749l31.739,11.524Z" fill="#397ab6" fill-rule="evenodd"/>
    <path id="Path_1089" data-name="Path 1089" d="M5125.361,952a.365.365,0,0,1,.017-.73h.075l.649.027h.021a.366.366,0,0,1-.048.73h-.016l-.622-.027Z" fill="#f2eeea" fill-rule="evenodd"/>
    <path id="Path_1090" data-name="Path 1090" d="M5121.08,952.37a.366.366,0,1,1-.135-.719l.076-.016.622-.108.032-.005a.366.366,0,0,1,.108.724l-.027.005-.595.108-.075.017Z" fill="#f2eeea" fill-rule="evenodd"/>
    <path id="Path_1091" data-name="Path 1091" d="M5116.972,953.635a.367.367,0,0,1-.286-.676l.022-.011.567-.243.087-.032a.364.364,0,1,1,.259.681l-.081.032-.341.13-.227.1-.021.011Z" fill="#f2eeea" fill-rule="evenodd"/>
    <path id="Path_1092" data-name="Path 1092" d="M5113.221,955.743a.365.365,0,0,1-.421-.595l.1-.07.411-.281.1-.065a.367.367,0,1,1,.406.611l-.195.13-.389.281Z" fill="#f2eeea" fill-rule="evenodd"/>
    <path id="Path_1093" data-name="Path 1093" d="M5110.011,958.6a.367.367,0,0,1-.541-.5l.054-.06.433-.459.027-.027a.367.367,0,1,1,.524.513l-.108.108-.243.26-.081.092-.055.059Z" fill="#f2eeea" fill-rule="evenodd"/>
    <path id="Path_1094" data-name="Path 1094" d="M5105.783,966.023a.366.366,0,0,1-.7-.221l.038-.114.173-.5.032-.087a.365.365,0,0,1,.687.244l-.027.081-.087.248-.075.249-.038.113Z" fill="#f2eeea" fill-rule="evenodd"/>
    <path id="Path_1095" data-name="Path 1095" d="M5107.4,962.182a.366.366,0,1,1-.646-.343l.058-.1.259-.458.048-.079a.364.364,0,1,1,.631.363l-.041.075-.13.229-.119.231-.058.1Z" fill="#f2eeea" fill-rule="evenodd"/>
    <path id="Path_1096" data-name="Path 1096" d="M5103.827,970.374a.37.37,0,0,1-.184-.486l.038-.081.054-.114.146-.34.048-.119a.365.365,0,0,1,.676.275v.006l-.1.238-.162.356-.038.081a.371.371,0,0,1-.487.184Z" fill="#f2eeea" fill-rule="evenodd"/>
    <path id="Path_1097" data-name="Path 1097" d="M5101.535,974.1a.37.37,0,0,1-.076-.514l.011-.011.351-.486.06-.086a.365.365,0,1,1,.6.416l-.06.086-.281.411-.075.1-.011.011a.37.37,0,0,1-.514.076Z" fill="#f2eeea" fill-rule="evenodd"/>
    <path id="Path_1098" data-name="Path 1098" d="M5098.5,977.26a.361.361,0,0,1,.037-.513l.071-.06.346-.3.086-.081.033-.027a.367.367,0,1,1,.5.535l-.032.032-.087.081-.367.324-.07.06a.358.358,0,0,1-.514-.038Z" fill="#f2eeea" fill-rule="evenodd"/>
    <path id="Path_1099" data-name="Path 1099" d="M5094.833,979.644a.367.367,0,0,1,.156-.492l.017-.011.513-.27.1-.054.006-.005a.364.364,0,1,1,.362.632l-.011.005-.411.238-.205.108-.016.011a.365.365,0,0,1-.492-.157Z" fill="#f2eeea" fill-rule="evenodd"/>
    <path id="Path_1100" data-name="Path 1100" d="M5091.038,980.649l.227-.054.341-.1.07-.022a.366.366,0,1,1,.205.7l-.3.087-.238.064-.119.027-.065.017a.365.365,0,1,1-.178-.708l.065-.017Z" fill="#f2eeea" fill-rule="evenodd"/>
    <path id="Path_1101" data-name="Path 1101" d="M5086.849,981.2h.119l.357-.016.108-.005a.365.365,0,1,1,.038.729l-.114.006-.373.016h-.259a.365.365,0,1,1,0-.73Z" fill="#f2eeea" fill-rule="evenodd"/>
  </g>
</svg>
