<svg xmlns="http://www.w3.org/2000/svg" width="90.88" height="57.675" viewBox="0 0 90.88 57.675">
  <g id="_10" data-name="10" transform="translate(-7817.596 -3706.588)">
    <path id="Path_105" data-name="Path 105" d="M7879.366,3710.35h10.528a8.124,8.124,0,0,1,6.859,4.117l10.878,17.8a5.928,5.928,0,0,1,.845,3.081V3746c0,2.937-2.047,5.318-4.573,5.318h-24.537Z" fill="#f37401"/>
    <path id="Rectangle_35" data-name="Rectangle 35" d="M1.594,0H61.77a0,0,0,0,1,0,0V3.369a0,0,0,0,1,0,0H1.594A1.594,1.594,0,0,1,0,1.774v-.18A1.594,1.594,0,0,1,1.594,0Z" transform="translate(7817.596 3747.947)" fill="#f37401"/>
    <circle id="Ellipse_5" data-name="Ellipse 5" cx="8.083" cy="8.083" r="8.083" transform="translate(7828.324 3747.947)" fill="#da1b01"/>
    <circle id="Ellipse_6" data-name="Ellipse 6" cx="8.083" cy="8.083" r="8.083" transform="translate(7881.94 3748.096)" fill="#da1b01"/>
    <circle id="Ellipse_7" data-name="Ellipse 7" cx="4.042" cy="4.042" r="4.042" transform="translate(7832.365 3751.988)" fill="#f2eeea"/>
    <circle id="Ellipse_8" data-name="Ellipse 8" cx="4.042" cy="4.042" r="4.042" transform="translate(7885.981 3752.138)" fill="#f2eeea"/>
    <path id="Rectangle_36" data-name="Rectangle 36" d="M5.4,0H54.23a5.4,5.4,0,0,1,5.4,5.4V41.358a0,0,0,0,1,0,0H0a0,0,0,0,1,0,0V5.4A5.4,5.4,0,0,1,5.4,0Z" transform="translate(7819.738 3706.588)" fill="#da1b01"/>
    <path id="Path_106" data-name="Path 106" d="M7895.311,3726.749h-10.855a2.7,2.7,0,0,1-2.662-2.736v-7.747a2.7,2.7,0,0,1,2.662-2.736h7.047a2.642,2.642,0,0,1,2.178,1.163l3.808,7.746A2.741,2.741,0,0,1,7895.311,3726.749Z" fill="#f2eeea"/>
  </g>
</svg>
