<svg xmlns="http://www.w3.org/2000/svg" width="77.633" height="73.463" viewBox="0 0 77.633 73.463">
  <g id="form" transform="translate(-5364.359 -922.522)">
    <rect id="Rectangle_475" data-name="Rectangle 475" width="55.743" height="73.463" rx="1.97" transform="translate(5364.359 922.522)" fill="#65b829"/>
    <rect id="Rectangle_476" data-name="Rectangle 476" width="42.268" height="1.83" rx="0.915" transform="translate(5372.382 931.369)" fill="#f2eeea"/>
    <rect id="Rectangle_477" data-name="Rectangle 477" width="33.857" height="1.83" rx="0.819" transform="translate(5380.793 940.576)" fill="#f2eeea"/>
    <rect id="Rectangle_478" data-name="Rectangle 478" width="33.857" height="1.83" rx="0.819" transform="translate(5380.793 953.528)" fill="#f2eeea"/>
    <rect id="Rectangle_479" data-name="Rectangle 479" width="33.857" height="1.83" rx="0.819" transform="translate(5380.793 966.48)" fill="#f2eeea"/>
    <rect id="Rectangle_480" data-name="Rectangle 480" width="4.954" height="4.954" rx="0.495" transform="translate(5372.382 939.61)" fill="#1c5748"/>
    <rect id="Rectangle_481" data-name="Rectangle 481" width="4.954" height="4.954" rx="0.495" transform="translate(5372.382 952.375)" fill="#1c5748"/>
    <rect id="Rectangle_482" data-name="Rectangle 482" width="4.954" height="4.954" rx="0.495" transform="translate(5372.382 965.14)" fill="#1c5748"/>
    <rect id="Rectangle_483" data-name="Rectangle 483" width="23.626" height="1.83" rx="0.684" transform="translate(5380.793 979.432)" fill="#f2eeea"/>
    <rect id="Rectangle_484" data-name="Rectangle 484" width="4.954" height="4.954" rx="0.495" transform="translate(5372.382 977.905)" fill="#1c5748"/>
    <path id="Path_1219" data-name="Path 1219" d="M5435.3,956.466l2.564-2.564,3.579,3.579a1.848,1.848,0,0,1,.545,1.3h0a1.881,1.881,0,0,1-.545,1.313l-10.786,10.774a1.8,1.8,0,0,1-1.313.545,1.824,1.824,0,0,1-1.313-.545,1.868,1.868,0,0,1,0-2.625l9.444-9.432-2.08-2.081" fill="#96ce17"/>
    <path id="Path_1220" data-name="Path 1220" d="M5432.131,947.813l-25.9,25.938,6.081,6.081,26.605-26.622Z" fill="#96ce17"/>
    <path id="Path_1221" data-name="Path 1221" d="M5439.506,952.624a2.477,2.477,0,0,0,0-3.492l-2.6-2.6a2.48,2.48,0,0,0-3.493,0l-1.474,1.474,6.106,6.068Z" fill="#f2eeea"/>
    <path id="Path_1222" data-name="Path 1222" d="M5435.4,956.733l-2.242,2.294-20.843,20.806-7.32,1.238,1.239-7.319.532-.533,4.062,4.05a1.752,1.752,0,0,0,1.313.545,1.779,1.779,0,0,0,1.313-.545,1.869,1.869,0,0,0,0-2.625l-4.062-4.063,13.078-13.115,6.8-6.8,5.957,5.883" fill="#1c5748"/>
  </g>
</svg>
