<svg xmlns="http://www.w3.org/2000/svg" width="27.021" height="41.242" viewBox="0 0 27.021 41.242">
  <g id="icon-9" transform="translate(-11215.283 -856.056)">
    <g id="Path_794" data-name="Path 794" fill="none" stroke-linecap="round" stroke-linejoin="round" fill-rule="evenodd">
      <path d="M11238.038,861.744h1.425a2.843,2.843,0,0,1,2.841,2.85v29.854a2.838,2.838,0,0,1-2.841,2.85h-21.339a2.843,2.843,0,0,1-2.841-2.85V864.594a2.838,2.838,0,0,1,2.841-2.85h1.425v1.415a2.849,2.849,0,0,0,2.849,2.852h12.792a2.846,2.846,0,0,0,2.848-2.852v-1.415Z" stroke="none"/>
      <path d="M 11218.1240234375 862.7440185546875 C 11217.109375 862.7440185546875 11216.283203125 863.5739135742188 11216.283203125 864.593994140625 L 11216.283203125 894.447998046875 C 11216.283203125 895.4680786132813 11217.109375 896.2979736328125 11218.1240234375 896.2979736328125 L 11239.462890625 896.2979736328125 C 11240.4775390625 896.2979736328125 11241.3037109375 895.4680786132813 11241.3037109375 894.447998046875 L 11241.3037109375 864.593994140625 C 11241.3037109375 863.5739135742188 11240.4775390625 862.7440185546875 11239.462890625 862.7440185546875 L 11239.037109375 862.7440185546875 L 11239.037109375 863.1589965820313 C 11239.037109375 865.282958984375 11237.3115234375 867.010986328125 11235.189453125 867.010986328125 L 11222.3974609375 867.010986328125 C 11220.275390625 867.010986328125 11218.548828125 865.282958984375 11218.548828125 863.1589965820313 L 11218.548828125 862.7440185546875 L 11218.1240234375 862.7440185546875 M 11218.1240234375 861.7440185546875 L 11219.548828125 861.7440185546875 L 11219.548828125 861.7509765625 L 11219.548828125 863.1589965820313 C 11219.548828125 864.7340087890625 11220.8212890625 866.010986328125 11222.3974609375 866.010986328125 L 11235.189453125 866.010986328125 C 11236.7626953125 866.010986328125 11238.037109375 864.739990234375 11238.037109375 863.1589965820313 L 11238.037109375 861.7509765625 L 11238.037109375 861.7440185546875 L 11238.0380859375 861.7440185546875 L 11239.462890625 861.7440185546875 C 11241.037109375 861.7440185546875 11242.3037109375 863.02099609375 11242.3037109375 864.593994140625 L 11242.3037109375 894.447998046875 C 11242.3037109375 896.031982421875 11241.033203125 897.2979736328125 11239.462890625 897.2979736328125 L 11218.1240234375 897.2979736328125 C 11216.55078125 897.2979736328125 11215.283203125 896.02197265625 11215.283203125 894.447998046875 L 11215.283203125 864.593994140625 C 11215.283203125 863.010009765625 11216.5537109375 861.7440185546875 11218.1240234375 861.7440185546875 Z" stroke="none" fill="#fff"/>
    </g>
    <g id="Path_795" data-name="Path 795" fill="none" stroke-linecap="round" stroke-linejoin="round" fill-rule="evenodd">
      <path d="M11225.238,860.322V858.9a2.85,2.85,0,0,1,2.852-2.84h1.408a2.842,2.842,0,0,1,2.851,2.84v1.426h2.852a1.417,1.417,0,0,1,1.415,1.42v1.426a1.413,1.413,0,0,1-1.415,1.42h-12.813a1.418,1.418,0,0,1-1.415-1.42v-1.426a1.415,1.415,0,0,1,1.415-1.42Z" stroke="none"/>
      <path d="M 11228.08984375 857.0560302734375 C 11227.0693359375 857.0560302734375 11226.23828125 857.8814086914063 11226.23828125 858.89599609375 L 11226.23828125 860.322021484375 C 11226.23828125 860.8743286132813 11225.791015625 861.322021484375 11225.23828125 861.322021484375 L 11222.38671875 861.322021484375 C 11222.154296875 861.322021484375 11221.9716796875 861.5065307617188 11221.9716796875 861.7420043945313 L 11221.9716796875 863.1680297851563 C 11221.9716796875 863.3995971679688 11222.158203125 863.5880126953125 11222.38671875 863.5880126953125 L 11235.2001953125 863.5880126953125 C 11235.4326171875 863.5880126953125 11235.615234375 863.4035034179688 11235.615234375 863.1680297851563 L 11235.615234375 861.7420043945313 C 11235.615234375 861.5104370117188 11235.4287109375 861.322021484375 11235.2001953125 861.322021484375 L 11232.3486328125 861.322021484375 C 11231.7958984375 861.322021484375 11231.3486328125 860.8743286132813 11231.3486328125 860.322021484375 L 11231.3486328125 858.89599609375 C 11231.3486328125 857.8814086914063 11230.5185546875 857.0560302734375 11229.498046875 857.0560302734375 L 11228.08984375 857.0560302734375 M 11228.08984375 856.0560302734375 L 11229.498046875 856.0560302734375 C 11231.078125 856.0560302734375 11232.3486328125 857.3280029296875 11232.3486328125 858.89599609375 L 11232.3486328125 860.322021484375 L 11235.2001953125 860.322021484375 C 11235.9833984375 860.322021484375 11236.615234375 860.9580078125 11236.615234375 861.7420043945313 L 11236.615234375 863.1680297851563 C 11236.615234375 863.958984375 11235.9814453125 864.5880126953125 11235.2001953125 864.5880126953125 L 11222.38671875 864.5880126953125 C 11221.60546875 864.5880126953125 11220.9716796875 863.9520263671875 11220.9716796875 863.1680297851563 L 11220.9716796875 861.7420043945313 C 11220.9716796875 860.9509887695313 11221.607421875 860.322021484375 11222.38671875 860.322021484375 L 11225.23828125 860.322021484375 L 11225.23828125 858.89599609375 C 11225.23828125 857.333984375 11226.5146484375 856.0560302734375 11228.08984375 856.0560302734375 Z" stroke="none" fill="#fff"/>
    </g>
  </g>
</svg>
