<svg xmlns="http://www.w3.org/2000/svg" width="45.374" height="40.725" viewBox="0 0 45.374 40.725">
  <g id="n1" transform="translate(-40.633 -1388.611)">
    <path id="Path_192" data-name="Path 192" d="M80.688,1429.336H45.951a5.322,5.322,0,0,1-4.607-7.983l17.368-30.081a5.32,5.32,0,0,1,9.216,0L85.3,1421.355a5.334,5.334,0,0,1,0,5.319h0a5.336,5.336,0,0,1-4.608,2.661" fill="#00bbd8"/>
    <path id="Path_193" data-name="Path 193" d="M63,1413.732h.411a1.876,1.876,0,0,0,1.873-1.822l.65-13.987a1.591,1.591,0,0,0-1.361-1.628,10.676,10.676,0,0,0-2.736,0,1.591,1.591,0,0,0-1.361,1.628l.65,13.987A1.877,1.877,0,0,0,63,1413.732" fill="#273c88"/>
    <path id="Path_214" data-name="Path 214" d="M63.32,1415.768a2.987,2.987,0,1,0,2.987,2.986,2.986,2.986,0,0,0-2.987-2.986" fill="#273c88"/>
  </g>
</svg>
