<svg xmlns="http://www.w3.org/2000/svg" width="45.375" height="40.725" viewBox="0 0 45.375 40.725">
  <g id="_16" data-name="16" transform="translate(-7469.236 -4755.821)">
    <path id="Path_149" data-name="Path 149" d="M7509.292,4796.546h-34.737a5.32,5.32,0,0,1-4.607-7.983l17.368-30.081a5.32,5.32,0,0,1,9.216,0l17.367,30.082a5.332,5.332,0,0,1,0,5.321h0a5.337,5.337,0,0,1-4.608,2.66" fill="#4cb7bf"/>
    <g id="Group_72" data-name="Group 72">
      <path id="Path_150" data-name="Path 150" d="M7491.6,4780.942h.411a1.877,1.877,0,0,0,1.873-1.822l.65-13.987a1.59,1.59,0,0,0-1.361-1.627,10.573,10.573,0,0,0-2.736,0,1.59,1.59,0,0,0-1.361,1.627l.651,13.987a1.875,1.875,0,0,0,1.873,1.822" fill="#0f0e71"/>
      <path id="Path_151" data-name="Path 151" d="M7491.923,4782.977a2.987,2.987,0,1,0,2.987,2.987,2.986,2.986,0,0,0-2.987-2.987" fill="#0f0e71"/>
    </g>
  </g>
</svg>
