<svg xmlns="http://www.w3.org/2000/svg" width="54.478" height="39.584" viewBox="0 0 54.478 39.584">
  <g id="r2" transform="translate(-425.85 -1128.391)">
    <path id="Path_202" data-name="Path 202" d="M472.407,1133.208a29.464,29.464,0,0,1,6.5-3.24q.551-.187,1.081-.38" fill="none" stroke="#bcbec0" stroke-miterlimit="10" stroke-width="1.956"/>
    <path id="Path_203" data-name="Path 203" d="M435.732,1161.775s-6.5,3.063-9.237,5.465" fill="none" stroke="#bcbec0" stroke-miterlimit="10" stroke-width="1.956"/>
    <line id="Line_11" data-name="Line 11" y1="0.637" x2="2.096" transform="translate(445.362 1149.699)" fill="#9a66ab"/>
    <path id="Path_204" data-name="Path 204" d="M447.515,1149.672l-.059.018h.063Z" fill="#573d83"/>
    <path id="Path_205" data-name="Path 205" d="M447.521,1149.693l-.008-.024-.083.051Z" fill="#573d83"/>
    <path id="Path_206" data-name="Path 206" d="M444.112,1150.35h0a1.02,1.02,0,0,1,.461-1.3l6.717-4.765a.978.978,0,0,1,1.358.012,1.02,1.02,0,0,1-.46,1.3l-6.718,4.765a.978.978,0,0,1-1.358-.011" fill="#bcbec0"/>
    <path id="Path_207" data-name="Path 207" d="M447.83,1155.79h0a1.019,1.019,0,0,1,.46-1.3l6.718-4.767a.98.98,0,0,1,1.358.013,1.021,1.021,0,0,1-.46,1.3l-6.718,4.764a.979.979,0,0,1-1.358-.011" fill="#bcbec0"/>
    <path id="Path_208" data-name="Path 208" d="M439.376,1164.86l-2.9,2.194c-1.188.9-3.042.388-4.142-1.137l-2.374-3.3c-1.1-1.528-1.027-3.492.161-4.391l2.9-2.194Z" fill="#273c88"/>
    <path id="Path_209" data-name="Path 209" d="M454.214,1159.785l-9.324,7.007a3.3,3.3,0,0,1-4.687-.737l-8.028-11.2a3.49,3.49,0,0,1,.719-4.8l9.325-7.007Z" fill="#00bbd8"/>
    <path id="Path_210" data-name="Path 210" d="M456.534,1160.73l-.284.214a1.1,1.1,0,0,1-1.553-.244l-13.186-18.4a1.156,1.156,0,0,1,.238-1.59l.285-.213a1.092,1.092,0,0,1,1.552.244l13.186,18.4a1.155,1.155,0,0,1-.238,1.59" fill="#255eab"/>
    <path id="Path_211" data-name="Path 211" d="M465.869,1131l2.6-1.975c1.066-.809,2.821-.227,3.922,1.3l2.378,3.3c1.1,1.524,1.129,3.417.064,4.224l-2.6,1.976Z" fill="#273c88"/>
    <path id="Path_212" data-name="Path 212" d="M451.04,1136.064l9.324-7.007a3.3,3.3,0,0,1,4.687.737l8.028,11.2a3.486,3.486,0,0,1-.721,4.8l-9.323,7.008Z" fill="#00bbd8"/>
    <path id="Path_213" data-name="Path 213" d="M448.719,1135.119l.284-.214a1.1,1.1,0,0,1,1.553.244l13.186,18.4a1.155,1.155,0,0,1-.239,1.59l-.284.213a1.093,1.093,0,0,1-1.552-.244l-13.187-18.4a1.156,1.156,0,0,1,.239-1.591" fill="#255eab"/>
  </g>
</svg>
