<svg xmlns="http://www.w3.org/2000/svg" width="54.479" height="39.583" viewBox="0 0 54.479 39.583">
  <g id="_14" data-name="14" transform="translate(-7470.465 -4334.313)">
    <path id="Path_135" data-name="Path 135" d="M7517.022,4339.129a29.462,29.462,0,0,1,6.5-3.24c.367-.125.729-.251,1.082-.38" fill="none" stroke="#b3b3b3" stroke-miterlimit="10" stroke-width="1.956"/>
    <path id="Path_136" data-name="Path 136" d="M7480.347,4367.7s-6.5,3.063-9.237,5.465" fill="none" stroke="#b3b3b3" stroke-miterlimit="10" stroke-width="1.956"/>
    <line id="Line_14" data-name="Line 14" y1="0.637" x2="2.096" transform="translate(7489.977 4355.62)" fill="#91439d"/>
    <path id="Path_137" data-name="Path 137" d="M7492.129,4355.594l-.059.018.064,0Z" fill="#3a126c"/>
    <path id="Path_138" data-name="Path 138" d="M7492.135,4355.614l-.007-.024-.083.052Z" fill="#3a126c"/>
    <g id="Group_61" data-name="Group 61">
      <path id="Path_139" data-name="Path 139" d="M7488.726,4356.271h0a1.021,1.021,0,0,1,.461-1.3l6.718-4.765a.98.98,0,0,1,1.358.011h0a1.022,1.022,0,0,1-.461,1.3l-6.717,4.765A.979.979,0,0,1,7488.726,4356.271Z" fill="#b3b3b3"/>
      <path id="Path_140" data-name="Path 140" d="M7492.444,4361.711h0a1.021,1.021,0,0,1,.461-1.3l6.718-4.766a.979.979,0,0,1,1.358.012h0a1.02,1.02,0,0,1-.461,1.3l-6.717,4.766A.982.982,0,0,1,7492.444,4361.711Z" fill="#b3b3b3"/>
    </g>
    <path id="Path_141" data-name="Path 141" d="M7483.991,4370.781l-2.9,2.2c-1.187.9-3.041.388-4.141-1.138l-2.374-3.3c-1.1-1.527-1.028-3.492.16-4.39l2.9-2.195Z" fill="#0f0e71"/>
    <path id="Path_142" data-name="Path 142" d="M7498.829,4365.706l-9.324,7.008a3.3,3.3,0,0,1-4.688-.737l-8.027-11.2a3.487,3.487,0,0,1,.719-4.8l9.324-7.008Z" fill="#4cb7bf"/>
    <path id="Path_143" data-name="Path 143" d="M7501.149,4366.652l-.284.213a1.094,1.094,0,0,1-1.553-.244l-13.186-18.4a1.157,1.157,0,0,1,.239-1.591l.284-.213a1.094,1.094,0,0,1,1.553.244l13.185,18.4A1.156,1.156,0,0,1,7501.149,4366.652Z" fill="#243695"/>
    <path id="Path_144" data-name="Path 144" d="M7510.484,4336.917l2.6-1.975c1.065-.808,2.821-.227,3.922,1.3l2.377,3.3c1.1,1.525,1.129,3.417.064,4.225l-2.6,1.975Z" fill="#0f0e71"/>
    <path id="Path_145" data-name="Path 145" d="M7495.654,4341.986l9.324-7.008a3.3,3.3,0,0,1,4.688.737l8.027,11.2a3.487,3.487,0,0,1-.719,4.8l-9.324,7.008Z" fill="#4cb7bf"/>
    <path id="Path_146" data-name="Path 146" d="M7493.334,4341.04l.284-.213a1.093,1.093,0,0,1,1.553.244l13.186,18.4a1.155,1.155,0,0,1-.239,1.59l-.284.214a1.1,1.1,0,0,1-1.553-.244l-13.186-18.4A1.156,1.156,0,0,1,7493.334,4341.04Z" fill="#243695"/>
  </g>
</svg>
