<svg xmlns="http://www.w3.org/2000/svg" width="45.938" height="45.94" viewBox="0 0 45.938 45.94">
  <g id="linedin-icon" transform="translate(-1275.388 -4478.963)">
    <path id="Path_517" data-name="Path 517" d="M1320.466,4501.934a22.109,22.109,0,1,1-22.111-22.111,22.111,22.111,0,0,1,22.111,22.111" fill="none" stroke="#fff" stroke-miterlimit="10" stroke-width="1.72"/>
    <path id="Path_518" data-name="Path 518" d="M1293.079,4511.079H1289.1v-12.744h3.983Zm-2.092-14.336h-.028a2.456,2.456,0,1,1,.028,0m18.022,14.336H1304.5v-6.593c0-1.728-.711-2.9-2.264-2.9a2.279,2.279,0,0,0-2.153,1.561,2.886,2.886,0,0,0-.1,1.042v6.894h-4.47s.056-11.68,0-12.744h4.47v2c.266-.872,1.693-2.122,3.976-2.122,2.827,0,5.051,1.834,5.051,5.781Z" fill="#fff"/>
  </g>
</svg>
