<svg xmlns="http://www.w3.org/2000/svg" width="40.175" height="40.179" viewBox="0 0 40.175 40.179">
  <g id="_18" data-name="18" transform="translate(-7471.836 -5080.267)">
    <path id="Path_157" data-name="Path 157" d="M7512.011,5100.356a20.088,20.088,0,1,1-20.09-20.089,20.09,20.09,0,0,1,20.09,20.089" fill="#4cb7bf"/>
    <path id="Path_158" data-name="Path 158" d="M7487.128,5108.666h-3.619v-11.579h3.619Zm-1.9-13.025h-.025a2.232,2.232,0,1,1,.025,0m16.374,13.025h-4.1v-5.99c0-1.571-.646-2.639-2.057-2.639a2.069,2.069,0,0,0-1.956,1.419,2.612,2.612,0,0,0-.09.946v6.264h-4.062s.051-10.613,0-11.579h4.062v1.818c.242-.793,1.538-1.928,3.613-1.928,2.568,0,4.588,1.667,4.588,5.252Z" fill="#0f0e71"/>
  </g>
</svg>
