<svg xmlns="http://www.w3.org/2000/svg" width="15.438" height="16.553" viewBox="0 0 15.438 16.553">
  <g id="search-result" transform="translate(-3848.348 -328.712)">
    <path id="Path_1296" data-name="Path 1296" d="M3861.439,329.217H3850.7a1.847,1.847,0,0,0-1.845,1.845v7.967a1.848,1.848,0,0,0,1.845,1.845h.441v3.152a.728.728,0,0,0,.3.592.741.741,0,0,0,.434.142.691.691,0,0,0,.221-.035,8.571,8.571,0,0,0,4.409-3.85h4.933a1.847,1.847,0,0,0,1.845-1.844v-7.969a1.843,1.843,0,0,0-1.841-1.845Z" fill="none" stroke="#b3b3b3" stroke-miterlimit="10" stroke-width="1.01"/>
    <line id="Line_89" data-name="Line 89" x2="8.431" transform="translate(3851.987 333.491)" fill="none" stroke="#b3b3b3" stroke-linecap="round" stroke-miterlimit="10" stroke-width="1.01"/>
    <line id="Line_90" data-name="Line 90" x2="6.938" transform="translate(3851.987 336.388)" fill="none" stroke="#b3b3b3" stroke-linecap="round" stroke-miterlimit="10" stroke-width="1.01"/>
  </g>
</svg>
