<svg xmlns="http://www.w3.org/2000/svg" width="42.347" height="45.398" viewBox="0 0 42.347 45.398">
  <g id="subsribe" transform="translate(-7472.187 -5249.251)">
    <path id="Path_159" data-name="Path 159" d="M7505.061,5273.078v16.836a4.737,4.737,0,0,0,9.473,0v-16.836Z" fill="#0f0e71"/>
    <path id="Path_160" data-name="Path 160" d="M7506.525,5289.9v-40.649h-34.338v40.51a4.874,4.874,0,0,0,4.875,4.874h31.659a6.171,6.171,0,0,1-2.2-4.735Z" fill="#f2eeea"/>
    <path id="Path_161" data-name="Path 161" d="M7502.9,5290a.736.736,0,0,1-.215.519.728.728,0,0,1-.517.213h-10.387a.731.731,0,0,1-.732-.732v-11.9a.731.731,0,0,1,.732-.732h10.387a.734.734,0,0,1,.732.732Z" fill="#4cb7bf"/>
    <path id="Path_162" data-name="Path 162" d="M7487.839,5265.938l0,0a.729.729,0,0,1-.732.732h-10.591a.731.731,0,0,1-.732-.732v-12.055a.731.731,0,0,1,.732-.732H7487.1a.726.726,0,0,1,.732.732Z" fill="#4cb7bf"/>
    <path id="Path_163" data-name="Path 163" d="M7486.9,5272.65l-10.388,0a.732.732,0,1,1,0-1.464H7486.9a.732.732,0,0,1,0,1.464Z" fill="#243695"/>
    <path id="Path_164" data-name="Path 164" d="M7486.9,5278.675l-10.388,0a.732.732,0,1,1,0-1.464H7486.9a.732.732,0,0,1,0,1.464Z" fill="#243695"/>
    <path id="Path_165" data-name="Path 165" d="M7486.9,5284.707l-10.388,0a.732.732,0,1,1,0-1.464H7486.9a.732.732,0,0,1,0,1.464Z" fill="#243695"/>
    <path id="Path_166" data-name="Path 166" d="M7486.9,5290.733h-10.388a.732.732,0,1,1,0-1.464H7486.9a.732.732,0,0,1,0,1.464Z" fill="#243695"/>
    <path id="Path_167" data-name="Path 167" d="M7491.782,5271.236l10.351,0a.732.732,0,1,1,0,1.464h-10.351a.732.732,0,1,1,0-1.464Z" fill="#243695"/>
    <path id="Path_168" data-name="Path 168" d="M7491.782,5265.211l10.351,0a.732.732,0,1,1,0,1.465h-10.351a.732.732,0,1,1,0-1.465Z" fill="#243695"/>
    <path id="Path_169" data-name="Path 169" d="M7491.782,5259.178l10.351,0a.732.732,0,1,1,0,1.464h-10.351a.732.732,0,1,1,0-1.464Z" fill="#243695"/>
    <path id="Path_170" data-name="Path 170" d="M7491.782,5253.153h10.351a.732.732,0,1,1,0,1.464h-10.351a.732.732,0,1,1,0-1.464Z" fill="#243695"/>
  </g>
</svg>
