<svg xmlns="http://www.w3.org/2000/svg" width="29.4" height="31.519" viewBox="0 0 29.4 31.519">
  <g id="n4" transform="translate(-880.552 -1398.038)">
    <path id="Path_170" data-name="Path 170" d="M903.375,1414.58v11.689a3.289,3.289,0,0,0,6.577,0V1414.58Z" fill="#273c88"/>
    <path id="Path_171" data-name="Path 171" d="M904.393,1426.259v-28.221H880.552v28.125a3.384,3.384,0,0,0,3.383,3.384h21.981A4.287,4.287,0,0,1,904.393,1426.259Z" fill="#efecea"/>
    <path id="Path_172" data-name="Path 172" d="M901.877,1426.329a.511.511,0,0,1-.15.36.5.5,0,0,1-.359.148h-7.212a.508.508,0,0,1-.509-.508v-8.263a.508.508,0,0,1,.509-.508h7.212a.512.512,0,0,1,.509.508Z" fill="#00bbd8"/>
    <path id="Path_173" data-name="Path 173" d="M891.418,1409.623v0a.505.505,0,0,1-.509.507h-7.353a.507.507,0,0,1-.509-.507v-8.371a.507.507,0,0,1,.509-.507h7.353a.511.511,0,0,1,.361.146.517.517,0,0,1,.148.361Z" fill="#00bbd8"/>
    <path id="Path_174" data-name="Path 174" d="M890.767,1414.283h-7.211a.508.508,0,1,1,0-1.016h7.211a.508.508,0,0,1,0,1.016Z" fill="#255eab"/>
    <path id="Path_175" data-name="Path 175" d="M890.767,1418.465l-7.211,0a.508.508,0,1,1,0-1.016h7.211a.508.508,0,0,1,0,1.016Z" fill="#255eab"/>
    <path id="Path_176" data-name="Path 176" d="M890.767,1422.654l-7.211,0a.508.508,0,1,1,0-1.017h7.211a.508.508,0,0,1,0,1.017Z" fill="#255eab"/>
    <path id="Path_177" data-name="Path 177" d="M890.767,1426.837h-7.211a.508.508,0,1,1,0-1.016h7.211a.508.508,0,0,1,0,1.016" fill="#255eab"/>
    <path id="Path_178" data-name="Path 178" d="M894.156,1413.3l7.187,0a.509.509,0,1,1,0,1.017h-7.187a.509.509,0,0,1,0-1.017Z" fill="#255eab"/>
    <path id="Path_179" data-name="Path 179" d="M894.156,1409.118h7.187a.508.508,0,1,1,0,1.015h-7.187a.508.508,0,1,1,0-1.015Z" fill="#255eab"/>
    <path id="Path_180" data-name="Path 180" d="M894.156,1404.93l7.187,0a.508.508,0,1,1,0,1.017h-7.187a.508.508,0,0,1,0-1.017Z" fill="#255eab"/>
    <path id="Path_181" data-name="Path 181" d="M894.156,1400.747h7.187a.508.508,0,1,1,0,1.015h-7.187a.508.508,0,1,1,0-1.015" fill="#255eab"/>
  </g>
</svg>
