<svg xmlns="http://www.w3.org/2000/svg" width="25.928" height="26.833" viewBox="0 0 25.928 26.833">
  <g id="icon-4" transform="translate(-11215.332 -522.41)">
    <path id="Path_810" data-name="Path 810" d="M11216.175,546.445h4.063V534.394h-4.063Zm4.9-.848a4.827,4.827,0,0,1,1.517.575c1.109.648,2.308,1.339,3.767,2.173a.4.4,0,0,0,.174.055c2.021,0,3.846,0,5.73,0h3.06a1.906,1.906,0,0,0,1.882-1.441,1.3,1.3,0,0,0-.878-1.573.421.421,0,0,1-.284-.489.417.417,0,0,1,.461-.329,1.522,1.522,0,0,0,1.755-1.179,1.417,1.417,0,0,0-.941-1.687.425.425,0,0,1-.274-.436.418.418,0,0,1,.345-.376c1.1-.182,1.71-.6,1.866-1.277a1.832,1.832,0,0,0-.893-1.912.419.419,0,0,1,.223-.769c.472-.01,1.717-.294,1.823-1.466a1.611,1.611,0,0,0-.331-1.275,1.126,1.126,0,0,0-.772-.37l-7.641.006a1.067,1.067,0,0,1-.849-.383,1.2,1.2,0,0,1-.233-1c.042-.388.131-1.071.224-1.794.164-1.264.367-2.838.367-3.216a12.07,12.07,0,0,0-.23-2.057,3.117,3.117,0,0,0-.767-1.64,1.309,1.309,0,0,0-1.473-.4,1.188,1.188,0,0,0-.956,1.138c-.029.628-.049,1.256-.068,1.884-.014.463-.027.925-.047,1.389a1.39,1.39,0,0,1-.167.62q-.586,1.038-1.177,2.07c-.694,1.217-1.411,2.474-2.1,3.719a1.764,1.764,0,0,1-1.355.912.361.361,0,0,1-.047.008c-.332.038-.853.085-1.324.128l-.387.035Zm8.334,3.646-2.878,0a1.245,1.245,0,0,1-.59-.166c-1.463-.835-2.661-1.526-3.774-2.176a4.3,4.3,0,0,0-1.093-.445v.412a.422.422,0,0,1-.421.421h-4.9a.422.422,0,0,1-.421-.421V533.975a.422.422,0,0,1,.421-.421h4.9a.422.422,0,0,1,.421.421v.419l.311-.028c.452-.041.951-.087,1.278-.124.49-.115.624-.2.786-.495.691-1.25,1.41-2.51,2.105-3.729q.589-1.032,1.177-2.068a.577.577,0,0,0,.059-.241c.02-.459.033-.919.046-1.38.021-.633.04-1.267.069-1.9a2.035,2.035,0,0,1,1.535-1.9,2.136,2.136,0,0,1,2.348.629,3.968,3.968,0,0,1,.979,2.066,12.739,12.739,0,0,1,.243,2.205c0,.4-.154,1.631-.374,3.324-.094.729-.183,1.419-.224,1.795l-.006.041a.376.376,0,0,0,.055.315.208.208,0,0,0,.169.077h0l.08-.005,7.588,0a1.958,1.958,0,0,1,1.393.645,6.015,6.015,0,0,0-.624,6.178,2.324,2.324,0,0,1-1.584,1.666,2.22,2.22,0,0,1,.6,2.069,2.128,2.128,0,0,1-1.475,1.734,2.033,2.033,0,0,1,.411,1.883,2.739,2.739,0,0,1-2.7,2.085l-3.058,0-2.853,0Z" fill="#fff"/>
  </g>
</svg>
