<svg xmlns="http://www.w3.org/2000/svg" width="32.417" height="32.502" viewBox="0 0 32.417 32.502">
  <g id="icon-8" transform="translate(-11212.721 -790.434)">
    <circle id="Ellipse_50" data-name="Ellipse 50" cx="7.385" cy="7.385" r="7.385" transform="translate(11219.688 790.934)" fill="none" stroke="#fff" stroke-linecap="round" stroke-linejoin="round" stroke-width="1"/>
    <path id="Path_793" data-name="Path 793" d="M11214.095,822.436h26a.876.876,0,0,0,.874-.874,13.875,13.875,0,1,0-27.75,0A.85.85,0,0,0,11214.095,822.436Z" fill="none" stroke="#fff" stroke-linecap="round" stroke-linejoin="round" stroke-width="1"/>
    <path id="Path_813" data-name="Path 813" d="M11244.971,800.3l-3.946,4.105a.541.541,0,0,1-.791,0l-1.97-2.066a.6.6,0,0,1,0-.826.541.541,0,0,1,.791,0l1.582,1.653,3.552-3.692a.542.542,0,0,1,.792,0,.608.608,0,0,1-.01.826Z" fill="#fff" fill-rule="evenodd"/>
  </g>
</svg>
