<svg xmlns="http://www.w3.org/2000/svg" width="14.902" height="16.861" viewBox="0 0 14.902 16.861">
  <path id="Path_410" data-name="Path 410" d="M2218.969,2642.777a4.552,4.552,0,1,1,4.552-4.552A4.557,4.557,0,0,1,2218.969,2642.777Zm3.344-.519a5.242,5.242,0,1,0-6.69,0,7.558,7.558,0,0,0-3.856,6.741.345.345,0,0,0,.69,0,6.825,6.825,0,0,1,3.814-6.287,5.194,5.194,0,0,0,5.389,0,6.808,6.808,0,0,1,3.819,6.284.345.345,0,0,0,.69,0,7.544,7.544,0,0,0-3.856-6.741Z" transform="translate(-2211.517 -2632.733)" fill="#0f0e71" stroke="#0f0e71" stroke-miterlimit="10" stroke-width="0.5"/>
</svg>
