<svg xmlns="http://www.w3.org/2000/svg" width="26.387" height="23.719" viewBox="0 0 26.387 23.719">
  <g id="icon-3" transform="translate(-11215.456 -452.437)">
    <path id="Path_807" data-name="Path 807" d="M11238.338,475.656h-19.379a2.968,2.968,0,0,1-2.57-4.453l9.689-16.782a2.968,2.968,0,0,1,5.141,0l9.689,16.782a2.979,2.979,0,0,1,0,2.968h0a2.98,2.98,0,0,1-2.571,1.484" fill="none" stroke="#fff" stroke-miterlimit="10" stroke-width="1"/>
    <g id="Group_316" data-name="Group 316">
      <path id="Path_808" data-name="Path 808" d="M11228.469,466.951h.229a1.048,1.048,0,0,0,1.045-1.017l.363-7.8a.888.888,0,0,0-.76-.908,5.851,5.851,0,0,0-1.526,0,.889.889,0,0,0-.76.908l.363,7.8a1.048,1.048,0,0,0,1.045,1.017" fill="#fff"/>
      <path id="Path_809" data-name="Path 809" d="M11228.648,468.086a1.667,1.667,0,1,0,1.666,1.666,1.666,1.666,0,0,0-1.666-1.666" fill="#fff"/>
    </g>
  </g>
</svg>
