<svg xmlns="http://www.w3.org/2000/svg" width="49.208" height="32.891" viewBox="0 0 49.208 32.891">
  <g id="r3" transform="translate(-795.551 -1127.322)">
    <path id="Path_190" data-name="Path 190" d="M837.766,1127.322H802.544a6.964,6.964,0,0,0-6.993,6.993v18.906a6.963,6.963,0,0,0,6.993,6.992h35.222a6.963,6.963,0,0,0,6.993-6.992v-18.906a7,7,0,0,0-6.993-6.993" fill="#00bbd8"/>
    <path id="Path_191" data-name="Path 191" d="M826.992,1144.986l-10.2,6.372a1.4,1.4,0,0,1-2.124-1.192v-12.744a1.4,1.4,0,0,1,2.124-1.191l10.2,6.372a1.453,1.453,0,0,1,0,2.383" fill="#273c88"/>
  </g>
</svg>
