<svg xmlns="http://www.w3.org/2000/svg" width="49.207" height="32.891" viewBox="0 0 49.207 32.891">
  <g id="_15" data-name="15" transform="translate(-7473.538 -4493.698)">
    <path id="Path_147" data-name="Path 147" d="M7515.753,4493.7H7480.53a6.963,6.963,0,0,0-6.992,6.992V4519.6a6.963,6.963,0,0,0,6.992,6.993h35.223a6.964,6.964,0,0,0,6.992-6.993V4500.69A7,7,0,0,0,7515.753,4493.7Z" fill="#4cb7bf"/>
    <path id="Path_148" data-name="Path 148" d="M7504.978,4511.362l-10.2,6.371a1.4,1.4,0,0,1-2.125-1.192V4503.8a1.4,1.4,0,0,1,2.125-1.192l10.2,6.372A1.452,1.452,0,0,1,7504.978,4511.362Z" fill="#0f0e71"/>
  </g>
</svg>
