<svg width="24" height="24" viewBox="0 0 24 24" fill="none" xmlns="http://www.w3.org/2000/svg">
<path d="M20.6344 15.3036L20.1504 14.6576V10.36C20.1504 5.88233 16.7437 2.21563 12.393 2.01065C10.1572 1.89666 8.0034 2.70159 6.37553 4.25446C4.74667 5.80733 3.85074 7.90116 3.85074 10.151V14.6576L3.36778 15.3036C2.65784 16.2485 2.26587 17.4224 2.26587 18.6083C2.26587 19.0222 2.60184 19.3582 3.01581 19.3582H8.30737C8.84833 20.9271 10.3102 22 12.0001 22C13.6719 22 15.1528 20.9211 15.6948 19.3572H20.9843C21.3983 19.3572 21.7343 19.0212 21.7343 18.6073C21.7343 17.4224 21.3433 16.2485 20.6344 15.3036ZM7.41045 5.33937C8.73734 4.07348 10.4812 3.43153 12.322 3.50952C15.8707 3.67651 18.6495 6.68626 18.6495 10.361V14.1586H5.35062V10.151C5.35062 8.31513 6.08155 6.60627 7.41045 5.33937ZM12.0001 20.5001C11.1431 20.5001 10.3782 20.0532 9.94624 19.3572H14.0489C13.6139 20.0512 12.846 20.5001 12.0001 20.5001ZM3.83674 17.8573C3.95173 17.2594 4.20071 16.6894 4.56668 16.2035L4.97565 15.6575H19.0235L19.4335 16.2035C19.7984 16.6904 20.0474 17.2604 20.1624 17.8573H3.83674Z" fill="#00253E"/>
</svg>
