<svg xmlns="http://www.w3.org/2000/svg" width="80" height="80" viewBox="0 0 80 80">
  <g id="alert" transform="translate(-1257 -1313)">
    <rect id="Rectangle_2645" data-name="Rectangle 2645" width="80" height="80" transform="translate(1257 1313)" fill="none"/>
    <path id="alert-2" d="M57.371,41.911l-1.452-1.938V27.08c0-13.433-10.22-24.433-23.272-25.048A24.453,24.453,0,0,0,7.02,26.453v13.52L5.572,41.911a16.608,16.608,0,0,0-3.306,9.914,2.251,2.251,0,0,0,2.25,2.25H20.39a11.709,11.709,0,0,0,22.162,0H58.421a2.251,2.251,0,0,0,2.25-2.25A16.621,16.621,0,0,0,57.371,41.911ZM17.7,12.018a19.9,19.9,0,0,1,14.735-5.49c10.646.5,18.983,9.53,18.983,20.554V38.476H11.52V26.453A19.764,19.764,0,0,1,17.7,12.018ZM31.469,57.5a7.238,7.238,0,0,1-6.162-3.429H37.615A7.28,7.28,0,0,1,31.469,57.5ZM6.978,49.572a12.045,12.045,0,0,1,2.19-4.961L10.4,42.973H52.539l1.23,1.638a12.117,12.117,0,0,1,2.187,4.961Z" transform="translate(1265.734 1321)" fill="#00253e"/>
  </g>
</svg>
