<?xml version="1.0" encoding="utf-8"?>
<!-- Generator: Adobe Illustrator 22.0.1, SVG Export Plug-In . SVG Version: 6.00 Build 0)  -->
<svg version="1.1" id="Layer_1" xmlns="http://www.w3.org/2000/svg" xmlns:xlink="http://www.w3.org/1999/xlink" x="0px" y="0px"
	 viewBox="0 0 22 28" style="enable-background:new 0 0 22 28;" xml:space="preserve">
<style type="text/css">
	.st0{fill:#5d176a;}
</style>
<path class="st0" d="M20.4,25.1c0,0.4-0.3,0.7-0.7,0.7H2.8c-0.4,0-0.7-0.3-0.7-0.7V7.5l5-4.2v4.4H4.7v1.6h4l0-6.7h11
	c0.4,0,0.7,0.3,0.7,0.7L20.4,25.1z M19.7,1H7.2l-0.2,0v0c-0.1,0-0.2,0.1-0.3,0.2L0.8,6.2C0.6,6.3,0.5,6.5,0.5,6.8h0v18.3
	c0,1.2,1,2.3,2.3,2.3h16.9c1.3,0,2.3-1,2.3-2.3V3.3C22,2,21,1,19.7,1L19.7,1L19.7,1z"/>
<path class="st0" d="M16.4,18.4H6c-0.4,0-0.8-0.4-0.8-0.8c0-0.4,0.4-0.8,0.8-0.8h10.5c0.4,0,0.8,0.4,0.8,0.8
	C17.2,18,16.9,18.4,16.4,18.4z"/>
<path class="st0" d="M16.4,22H6c-0.4,0-0.8-0.4-0.8-0.8c0-0.4,0.4-0.8,0.8-0.8h10.5c0.4,0,0.8,0.4,0.8,0.8
	C17.2,21.7,16.9,22,16.4,22z"/>
<path class="st0" d="M16.4,14.7H6c-0.4,0-0.8-0.4-0.8-0.8s0.4-0.8,0.8-0.8h10.5c0.4,0,0.8,0.4,0.8,0.8
	C17.2,14.4,16.9,14.7,16.4,14.7z"/>
</svg>
