<svg xmlns="http://www.w3.org/2000/svg" width="300" height="300" viewBox="0 0 300 300" xmlns:xlink="http://www.w3.org/1999/xlink"><defs><path id="a" d="M195.376.012H.018v230.495h195.358z"/><path id="c" d="M195.376.012H.018v230.495h195.358z"/><path id="e" d="M.018.012v230.495h195.358V.012z"/><path id="g" d="M.018.259v40.087h133.417V.259z"/><path id="i" d="M177.235.012H.201v67.987h177.034z"/></defs><g fill="none" fill-rule="evenodd"><path fill="#000" fill-opacity=".15" fill-rule="nonzero" d="M7.645 142.355H0v2.4h5.245v10.49H0v2.4h7.645v-15.29m70.059 118.881v-15.29h15.29v15.29h-15.29zm2.4-2.4h10.49v-10.49h-10.49v10.49zM31.528 47.177V35.71h11.467v11.467H31.528zm1.8-1.8h7.867V37.51h-7.867v7.867zM268.328 0h-2.4v5.245h-10.489V0h-2.4v7.645h15.289zM63.801 122.382a6.726 6.726 0 0 1-6.718-6.718 6.726 6.726 0 0 1 6.718-6.719 6.726 6.726 0 0 1 6.719 6.719 6.726 6.726 0 0 1-6.719 6.718zm0-15.837c-5.028 0-9.118 4.091-9.118 9.119s4.09 9.118 9.118 9.118c5.028 0 9.119-4.09 9.119-9.118 0-5.028-4.09-9.119-9.119-9.119zm169.557 71.85a6.726 6.726 0 0 1-6.718-6.72 6.726 6.726 0 0 1 6.718-6.718 6.726 6.726 0 0 1 6.72 6.719 6.726 6.726 0 0 1-6.72 6.718zm0-15.838c-5.027 0-9.118 4.09-9.118 9.119 0 5.028 4.09 9.118 9.118 9.118 5.028 0 9.12-4.09 9.12-9.118 0-5.028-4.092-9.119-9.12-9.119z"/><mask id="b" fill="#fff"><use xlink:href="#a"/></mask><path fill="#000" fill-opacity=".15" fill-rule="nonzero" d="M173.665 85.092a6.726 6.726 0 0 1-6.719-6.719 6.726 6.726 0 0 1 6.719-6.718 6.726 6.726 0 0 1 6.718 6.718 6.726 6.726 0 0 1-6.718 6.719zm0-15.837c-5.028 0-9.119 4.09-9.119 9.118 0 5.028 4.09 9.119 9.119 9.119 5.028 0 9.118-4.091 9.118-9.119s-4.09-9.118-9.118-9.118z" mask="url(#b)"/><mask id="d" fill="#fff"><use xlink:href="#c"/></mask><path fill="#000" fill-opacity=".15" fill-rule="nonzero" mask="url(#d)" d="M179.077 5.687l.477 13.984-13.813-.448.447 14.014-13.783-.447.087 15.632 2.4-.013-.073-13.14 13.849.45-.447-14.015 13.819.449-.477-13.984 13.813.449L195.101 0H192.7l.195 6.136-13.818-.449"/><mask id="f" fill="#fff"><use xlink:href="#e"/></mask><path fill="#000" fill-opacity=".15" fill-rule="nonzero" mask="url(#f)" d="M14.918 219.697l9.143 10.372 9.858-9.93 9.138 10.368 9.936-9.965 9.073 9.499 1.735-1.658-10.771-11.277L43.165 227l-9.142-10.372-9.858 9.929-9.139-10.367-9.901 9.929L0 220.304v3.63l5.017 5.691 9.901-9.928"/><path fill="#000" fill-opacity=".15" fill-rule="nonzero" d="M259.231 95.867c-1.882-1.617-4.014-3.45-6.616-1.976-2.754 1.56-2.472 4.86-2.223 7.771.262 3.062.313 4.982-1.184 5.83-1.416.802-2.881-.217-5.126-1.993-2.223-1.759-4.99-3.949-8.039-2.221-3.039 1.721-2.662 5.262-2.358 8.107.306 2.875.39 4.678-1.012 5.473-1.497.847-3.221-.27-5.681-2.074-2.301-1.687-4.909-3.599-7.484-2.14-2.592 1.468-2.427 4.853-2.282 7.84.125 2.564.243 4.985-1.126 5.76-1.153.654-2.566-.307-4.755-1.967-2.357-1.787-5.29-4.012-8.41-2.246-2.911 1.649-2.5 4.71-2.138 7.41.425 3.164.521 5.177-1.724 6.448l1.183 2.088c3.818-2.162 3.32-5.873 2.92-8.855-.388-2.888-.416-4.234.942-5.003 1.625-.921 3.267.168 5.777 2.07 2.24 1.699 4.777 3.623 7.388 2.144 2.655-1.504 2.488-4.937 2.34-7.966-.122-2.517-.238-4.895 1.068-5.635 1.138-.646 2.672.368 4.882 1.988 2.371 1.739 5.323 3.902 8.283 2.226 2.875-1.628 2.524-4.915 2.215-7.816-.32-2.998-.401-4.883 1.155-5.764 1.532-.868 3.05.182 5.367 2.015 2.171 1.718 4.873 3.857 7.798 2.2 2.944-1.669 2.651-5.098 2.392-8.123-.248-2.91-.304-4.732 1.015-5.479 1.03-.584 1.925.038 3.87 1.709 2.3 1.976 5.45 4.682 9.975 2.12l-1.183-2.088c-2.85 1.614-4.632.377-7.229-1.853m-92.768 97.317c-2.377-2.131-3.757-3.6-2.875-6.024l-2.256-.82c-1.5 4.124 1.288 6.622 3.529 8.63 2.17 1.946 3.063 2.952 2.532 4.417-.64 1.757-2.595 1.994-5.74 2.176-2.805.163-5.985.347-7.01 3.166-1.043 2.868 1.313 5.37 3.391 7.578 1.728 1.836 3.36 3.57 2.847 4.98-.448 1.23-2.272 1.455-5.004 1.657-2.933.218-6.583.488-7.746 3.684-1.129 3.104 1.272 5.378 3.39 7.383 2.19 2.073 3.474 3.453 2.864 5.134-.603 1.656-2.44 1.842-5.391 1.952-2.767.103-6.21.23-7.359 3.39-1.157 3.179 1.293 5.597 3.453 7.73 2.08 2.053 3.305 3.403 2.786 4.827-.405 1.113-1.49 1.22-4.053 1.212-3.033-.009-7.187-.022-8.964 4.864l2.255.82c1.12-3.079 3.279-3.294 6.702-3.283 2.48.007 5.293.016 6.315-2.792 1.082-2.975-1.275-5.302-3.354-7.355-2.187-2.16-3.472-3.586-2.884-5.203.556-1.53 2.332-1.705 5.192-1.812 2.833-.105 6.359-.236 7.557-3.53 1.194-3.283-1.391-5.73-3.47-7.697-2.1-1.988-3.335-3.304-2.783-4.82.588-1.617 2.626-1.885 5.667-2.11 2.845-.211 6.07-.45 7.082-3.23 1.02-2.8-1.304-5.268-3.354-7.446-1.76-1.869-3.421-3.634-2.884-5.113.453-1.245 2.151-1.43 4.894-1.59 2.954-.17 6.63-.384 7.856-3.751 1.144-3.145-1.156-5.206-3.185-7.024"/><g transform="translate(0 44.1)"><mask id="h" fill="#fff"><use xlink:href="#g"/></mask><path fill="#000" fill-opacity=".15" fill-rule="nonzero" d="M120.924 23.879c-2.13 2.019-3.53 3.2-5.055 2.588-1.442-.579-1.554-2.279-1.565-5.01-.012-2.707-.026-6.076-3.132-7.322-3.095-1.242-5.51 1.148-7.453 3.07-1.962 1.94-3.257 3.077-4.685 2.504-1.525-.612-1.717-2.565-1.837-5.473-.112-2.722-.239-5.807-2.86-6.86-2.639-1.06-5.067 1.08-7.208 2.968-1.84 1.62-3.575 3.15-4.97 2.59-1.173-.47-1.298-2.097-1.364-4.718-.07-2.824-.158-6.339-3.333-7.613-2.965-1.19-5.002.94-6.802 2.818-2.107 2.202-3.551 3.472-5.837 2.555l-.853 2.126c3.888 1.561 6.359-1.022 8.346-3.097 1.924-2.009 2.911-2.83 4.293-2.276 1.656.665 1.821 2.538 1.896 5.544.067 2.681.143 5.721 2.801 6.789 2.703 1.084 5.165-1.085 7.337-3 1.806-1.59 3.511-3.092 4.84-2.56 1.16.466 1.317 2.214 1.425 4.828.115 2.804.258 6.295 3.272 7.505 2.927 1.175 5.17-1.044 7.15-3.002 2.047-2.024 3.405-3.207 4.989-2.572 1.56.627 1.68 2.385 1.694 5.205.01 2.643.025 5.932 3.003 7.127 2.996 1.204 5.38-1.057 7.485-3.052 2.024-1.92 3.35-3.046 4.692-2.506 1.05.421 1.118 1.46 1.03 3.905-.104 2.893-.248 6.857 4.358 8.705l.855-2.126c-2.903-1.165-3.042-3.232-2.923-6.497.084-2.367.181-5.05-2.467-6.113-2.804-1.126-5.098 1.05-7.122 2.97M39.907 39.145a1.2 1.2 0 0 0-1.2-1.2H0v2.4h38.708a1.2 1.2 0 0 0 1.2-1.2" mask="url(#h)"/></g><path fill="#000" fill-opacity=".15" fill-rule="nonzero" d="M294.755 155.245v-10.49H300v-2.4h-7.645v15.29H300v-2.4h-5.245m1.251 60.529l-11.326 10.775 1.655 1.739 9.52-9.057 4.145 4.703v-3.63l-3.994-4.53m-2.451-133.728a1.2 1.2 0 0 0 0 2.4H300v-2.4h-6.445m-155.082 28.74a1.2 1.2 0 1 0-1.876 1.497l29.74 37.265a1.197 1.197 0 0 0 1.686.19 1.2 1.2 0 0 0 .19-1.687l-29.74-37.265m-70.04 65.21c12.873-10.725 10.762-28.607 10.666-29.363a1.266 1.266 0 0 0-2.512.318c.021.172 2.016 17.275-9.775 27.1-6.137 5.105-13.957 6.09-19.44 6.01-6.033-.086-10.654-1.435-10.7-1.448a1.266 1.266 0 1 0-.721 2.427c.795.236 19.629 5.675 32.482-5.043"/><g transform="translate(66)"><mask id="j" fill="#fff"><use xlink:href="#i"/></mask><path fill="#000" fill-opacity=".15" fill-rule="nonzero" d="M176.913 65.31a1.199 1.199 0 0 0-1.144-.353c-.16.037-16.103 3.515-26.469-6.687-5.388-5.31-7.046-12.594-7.483-17.771-.482-5.699.359-10.182.367-10.226a1.2 1.2 0 0 0-2.356-.454c-.149.772-3.52 19.04 7.789 30.16 11.316 11.14 27.983 7.48 28.687 7.318a1.2 1.2 0 0 0 .609-1.987M43.722 0h-3.487c-4.056 3.715-10.28 7.758-18.171 7.784C14.498 7.803 8.195 3.796 4.24.425A42.807 42.807 0 0 1 3.75 0H.2c4.616 4.585 12.25 10.219 21.87 10.184C32.141 10.15 39.55 4.376 43.722 0" mask="url(#j)"/></g><path fill="#000" fill-opacity=".15" fill-rule="nonzero" d="M218.366 256.707c14.574 6.301 28.795-3.13 29.393-3.534a1.2 1.2 0 0 0-1.343-1.989c-.136.092-13.748 9.092-27.098 3.32-6.942-3.002-11.117-9.2-13.395-13.87-2.506-5.14-3.341-9.624-3.35-9.669a1.2 1.2 0 1 0-2.36.427c.139.774 3.591 19.03 18.153 25.315m-104.209-99.019a1.2 1.2 0 0 0-1.475.839l-12.974 47.161a1.2 1.2 0 1 0 2.314.636l12.974-47.16a1.2 1.2 0 0 0-.839-1.476M23.52 7.545a1.2 1.2 0 0 0 .621-1.58L21.543 0h-2.618l3.015 6.924a1.2 1.2 0 0 0 1.58.62m229.519 284.811V300h2.4v-5.245h10.489V300h2.4v-7.645h-15.289m-44.977 2.099l-.018-2.399-15.593.116.249 7.829h2.401l-.173-5.447 13.134-.099m-144.757-1.552a1.2 1.2 0 0 0-1.994 1.336c.172.256 1.897 2.789 4.89 5.762h3.549c-4.053-3.568-6.42-7.062-6.445-7.098m49.925.636a1.2 1.2 0 0 0-1.656.37c-.04.062-1.92 2.96-5.34 6.092h3.488c2.407-2.524 3.737-4.584 3.879-4.807a1.2 1.2 0 0 0-.37-1.655m-110.2-33.039a1.2 1.2 0 0 0-.62 1.58L18.924 300h2.618l-16.93-38.88a1.2 1.2 0 0 0-1.58-.621M253.04 44.7a1.2 1.2 0 0 1-.539-2.273l29.262-14.654a1.2 1.2 0 0 1 1.074 2.146l-29.261 14.654a1.198 1.198 0 0 1-.536.127"/></g></svg>