<?xml version="1.0" encoding="UTF-8"?>
<svg width="142px" height="143px" viewBox="0 0 142 143" version="1.1" xmlns="http://www.w3.org/2000/svg" xmlns:xlink="http://www.w3.org/1999/xlink">
    <!-- Generator: sketchtool 52.5 (67469) - http://www.bohemiancoding.com/sketch -->
    <title>40847D31-46D2-49E7-A3CA-A698B997C568</title>
    <desc>Created with sketchtool.</desc>
    <defs>
        <path d="M0.000843373494,69.925024 C0.000843373494,108.394383 31.1508434,139.580713 69.5783133,139.580713 C108.005783,139.580713 139.15747,108.394383 139.15747,69.925024 C139.15747,31.4548204 108.005783,0.269335329 69.5783133,0.269335329 C31.1508434,0.269335329 0.000843373494,31.4548204 0.000843373494,69.925024 Z" id="path-1"></path>
    </defs>
    <g id="Page-1" stroke="none" stroke-width="1" fill="none" fill-rule="evenodd">
        <g id="Careers_page" transform="translate(-183.000000, -3099.000000)">
            <g id="Group-123" transform="translate(184.000000, 3100.000000)">
                <g id="Group-120" transform="translate(0.000000, 0.574976)">
                    <mask id="mask-2" fill="white">
                        <use xlink:href="#path-1"></use>
                    </mask>
                    <g id="Clip-2"></g>
                    <polygon id="Fill-1" fill="#FFFFFF" mask="url(#mask-2)" points="34.4610843 140.556737 141.431205 140.556737 141.431205 90.5523952 34.4610843 90.5523952"></polygon>
                    <path d="M33.6177108,141.401048 L142.274578,141.401048 L142.274578,89.7080838 L33.6177108,89.7080838 L33.6177108,141.401048 Z M35.3044578,139.712425 L140.587831,139.712425 L140.587831,91.3967066 L35.3044578,91.3967066 L35.3044578,139.712425 Z" id="Fill-3" fill="#000000" mask="url(#mask-2)"></path>
                    <polygon id="Fill-4" fill="#FFFFFF" mask="url(#mask-2)" points="34.4610843 98.2280299 141.431205 98.2280299 141.431205 89.0478323 34.4610843 89.0478323"></polygon>
                    <path d="M33.6177108,99.071497 L142.274578,99.071497 L142.274578,88.203521 L33.6177108,88.203521 L33.6177108,99.071497 Z M35.3044578,97.3828743 L140.587831,97.3828743 L140.587831,89.8921437 L35.3044578,89.8921437 L35.3044578,97.3828743 Z" id="Fill-5" fill="#000000" mask="url(#mask-2)"></path>
                    <polygon id="Fill-6" fill="#FFFFFF" mask="url(#mask-2)" points="76.7449639 142.688454 76.7449639 47.8461126 90.887494 25.5757114 104.466651 47.8385138 104.466651 142.688454"></polygon>
                    <path d="M90.9010723,23.979794 L75.9016747,47.6010934 L75.9016747,143.533441 L105.310108,143.533441 L105.310108,47.6010934 L90.9010723,23.979794 Z M90.8723976,27.1721353 L103.623361,48.0755964 L103.623361,141.844818 L77.5884217,141.844818 L77.5884217,48.0924826 L90.8723976,27.1721353 Z" id="Fill-7" fill="#000000" mask="url(#mask-2)"></path>
                    <polygon id="Fill-8" fill="#FFFFFF" mask="url(#mask-2)" points="43.7381928 121.563952 76.8287952 121.563952 76.8287952 118.155467 43.7381928 118.155467"></polygon>
                    <path d="M42.8948193,122.408263 L77.6721687,122.408263 L77.6721687,117.311156 L42.8948193,117.311156 L42.8948193,122.408263 Z M44.5815663,120.719641 L75.9854217,120.719641 L75.9854217,118.999778 L44.5815663,118.999778 L44.5815663,120.719641 Z" id="Fill-9" fill="#000000" mask="url(#mask-2)"></path>
                    <polygon id="Fill-10" fill="#FFFFFF" mask="url(#mask-2)" points="105.130723 121.445749 141.431205 121.445749 141.431205 118.155467 105.130723 118.155467"></polygon>
                    <path d="M104.287349,122.29006 L142.274578,122.29006 L142.274578,117.311156 L104.287349,117.311156 L104.287349,122.29006 Z M105.974096,120.601437 L140.587831,120.601437 L140.587831,118.999778 L105.974096,118.999778 L105.974096,120.601437 Z" id="Fill-11" fill="#000000" mask="url(#mask-2)"></path>
                    <path d="M82.7004458,112.909507 L82.7004458,98.4751599 C82.7004458,96.9376689 83.9494819,95.6872437 85.4861084,95.6872437 C87.1028554,95.6872437 88.3518916,96.9376689 88.3518916,98.4751599 L88.3518916,112.909507 L82.7004458,112.909507 Z" id="Fill-12" fill="#FFFFFF" mask="url(#mask-2)"></path>
                    <path d="M85.5665663,94.8434389 L85.4856024,94.8434389 C83.481747,94.8434389 81.8574096,96.4695826 81.8574096,98.4756665 L81.8574096,113.753481 L89.1956024,113.753481 L89.1956024,98.4756665 C89.1956024,96.4695826 87.5704217,94.8434389 85.5665663,94.8434389 M85.5665663,96.5320617 C86.6376506,96.5320617 87.5088554,97.403391 87.5088554,98.4756665 L87.5088554,112.064858 L83.5441566,112.064858 L83.5441566,98.4756665 C83.5441566,97.403391 84.4153614,96.5320617 85.4856024,96.5320617 L85.5665663,96.5320617" id="Fill-13" fill="#000000" mask="url(#mask-2)"></path>
                    <path d="M92.959241,112.909507 L92.959241,98.4751599 C92.959241,96.9376689 94.2082771,95.6872437 95.7449036,95.6872437 C97.3608072,95.6872437 98.6098434,96.9376689 98.6098434,98.4751599 L98.6098434,112.909507 L92.959241,112.909507 Z" id="Fill-14" fill="#FFFFFF" mask="url(#mask-2)"></path>
                    <path d="M95.8254458,94.8434389 L95.7444819,94.8434389 C93.7406265,94.8434389 92.1162892,96.4695826 92.1162892,98.4756665 L92.1162892,113.753481 L99.4536386,113.753481 L99.4536386,98.4756665 C99.4536386,96.4695826 97.8293012,94.8434389 95.8254458,94.8434389 M95.8254458,96.5320617 C96.8965301,96.5320617 97.7668916,97.403391 97.7668916,98.4756665 L97.7668916,112.064858 L93.8030361,112.064858 L93.8030361,98.4756665 C93.8030361,97.403391 94.674241,96.5320617 95.7444819,96.5320617 L95.8254458,96.5320617" id="Fill-15" fill="#000000" mask="url(#mask-2)"></path>
                    <path d="M50.4241205,140.556652 L50.4241205,133.997197 C50.4241205,132.316173 51.7903855,130.948389 53.4695422,130.948389 L53.5564096,130.948389 C55.2355663,130.948389 56.6018313,132.316173 56.6018313,133.997197 L56.6018313,140.556652 L50.4241205,140.556652 Z" id="Fill-16" fill="#FFFFFF" mask="url(#mask-2)"></path>
                    <path d="M53.556241,130.10374 L53.4693735,130.10374 C51.3221446,130.10374 49.5805783,131.847243 49.5805783,133.997704 L49.5805783,141.400626 L57.4450361,141.400626 L57.4450361,133.997704 C57.4450361,131.847243 55.7043133,130.10374 53.556241,130.10374 M53.556241,131.792362 C54.7706988,131.792362 55.7582892,132.781051 55.7582892,133.997704 L55.7582892,139.712003 L51.2673253,139.712003 L51.2673253,133.997704 C51.2673253,132.781051 52.2549157,131.792362 53.4693735,131.792362 L53.556241,131.792362" id="Fill-17" fill="#000000" mask="url(#mask-2)"></path>
                    <path d="M64.4970723,140.556652 L64.4970723,133.997197 C64.4970723,132.316173 65.8633373,130.948389 67.542494,130.948389 L67.6293614,130.948389 C69.3085181,130.948389 70.6747831,132.316173 70.6747831,133.997197 L70.6747831,140.556652 L64.4970723,140.556652 Z" id="Fill-18" fill="#FFFFFF" mask="url(#mask-2)"></path>
                    <path d="M67.6292771,130.10374 L67.5424096,130.10374 C65.3951807,130.10374 63.6536145,131.847243 63.6536145,133.997704 L63.6536145,141.400626 L71.5180723,141.400626 L71.5180723,133.997704 C71.5180723,131.847243 69.7773494,130.10374 67.6292771,130.10374 M67.6292771,131.792362 C68.8437349,131.792362 69.8313253,132.781051 69.8313253,133.997704 L69.8313253,139.712003 L65.3403614,139.712003 L65.3403614,133.997704 C65.3403614,132.781051 66.3279518,131.792362 67.5424096,131.792362 L67.6292771,131.792362" id="Fill-19" fill="#000000" mask="url(#mask-2)"></path>
                    <path d="M53.8000602,127.43808 C53.0696988,127.43808 52.4759639,126.84284 52.4759639,126.112511 C52.4759639,125.380493 53.0696988,124.786098 53.8000602,124.786098 C54.5304217,124.786098 55.1241566,125.380493 55.1241566,126.112511 C55.1241566,126.84284 54.5304217,127.43808 53.8000602,127.43808" id="Fill-20" fill="#FFFFFF" mask="url(#mask-2)"></path>
                    <path d="M53.8000602,123.941617 C52.6024699,123.941617 51.6325904,124.91342 51.6325904,126.111498 C51.6325904,127.31042 52.6024699,128.282222 53.8000602,128.282222 C54.9976506,128.282222 55.9675301,127.31042 55.9675301,126.111498 C55.9675301,124.91342 54.9976506,123.941617 53.8000602,123.941617 M53.8000602,125.63024 C54.0648795,125.63024 54.2807831,125.846384 54.2807831,126.111498 C54.2807831,126.377456 54.0648795,126.593599 53.8000602,126.593599 C53.535241,126.593599 53.3193373,126.377456 53.3193373,126.111498 C53.3193373,125.846384 53.535241,125.63024 53.8000602,125.63024" id="Fill-21" fill="#000000" mask="url(#mask-2)"></path>
                    <path d="M67.4101687,127.43808 C66.6798072,127.43808 66.0860723,126.84284 66.0860723,126.112511 C66.0860723,125.380493 66.6798072,124.786098 67.4101687,124.786098 C68.1405301,124.786098 68.7351084,125.380493 68.7351084,126.112511 C68.7351084,126.84284 68.1405301,127.43808 67.4101687,127.43808" id="Fill-22" fill="#FFFFFF" mask="url(#mask-2)"></path>
                    <path d="M67.4101687,123.941617 C66.2125783,123.941617 65.2426988,124.91342 65.2426988,126.111498 C65.2426988,127.31042 66.2125783,128.282222 67.4101687,128.282222 C68.607759,128.282222 69.5776386,127.31042 69.5776386,126.111498 C69.5776386,124.91342 68.607759,123.941617 67.4101687,123.941617 M67.4101687,125.63024 C67.674988,125.63024 67.8908916,125.846384 67.8908916,126.111498 C67.8908916,126.377456 67.674988,126.593599 67.4101687,126.593599 C67.1453494,126.593599 66.9294458,126.377456 66.9294458,126.111498 C66.9294458,125.846384 67.1453494,125.63024 67.4101687,125.63024" id="Fill-23" fill="#000000" mask="url(#mask-2)"></path>
                    <path d="M52.6017108,113.810303 L52.6017108,108.064764 C52.6017108,106.764525 53.6584578,105.706602 54.957253,105.706602 C56.2560482,105.706602 57.3127952,106.764525 57.3127952,108.064764 L57.3127952,113.810303 L52.6017108,113.810303 Z" id="Fill-24" fill="#FFFFFF" mask="url(#mask-2)"></path>
                    <path d="M54.957253,104.863051 C53.1903855,104.863051 51.7583373,106.296692 51.7583373,108.06468 L51.7583373,114.655374 L58.1561687,114.655374 L58.1561687,108.06468 C58.1561687,106.296692 56.7241205,104.863051 54.957253,104.863051 M54.957253,106.551674 C55.790506,106.551674 56.4694217,107.2305 56.4694217,108.06468 L56.4694217,112.966751 L53.4450843,112.966751 L53.4450843,108.06468 C53.4450843,107.2305 54.124,106.551674 54.957253,106.551674" id="Fill-25" fill="#000000" mask="url(#mask-2)"></path>
                    <path d="M63.3234337,113.810303 L63.3234337,108.064764 C63.3234337,106.764525 64.3801807,105.706602 65.6789759,105.706602 C66.9769277,105.706602 68.0336747,106.764525 68.0336747,108.064764 L68.0336747,113.810303 L63.3234337,113.810303 Z" id="Fill-26" fill="#FFFFFF" mask="url(#mask-2)"></path>
                    <path d="M65.6789759,104.863051 C63.9112651,104.863051 62.4800602,106.296692 62.4800602,108.06468 L62.4800602,114.655374 L68.8778916,114.655374 L68.8778916,108.06468 C68.8778916,106.296692 67.445,104.863051 65.6789759,104.863051 M65.6789759,106.551674 C66.5122289,106.551674 67.1911446,107.2305 67.1911446,108.06468 L67.1911446,112.966751 L64.1668072,112.966751 L64.1668072,108.06468 C64.1668072,107.2305 64.8448795,106.551674 65.6789759,106.551674" id="Fill-27" fill="#000000" mask="url(#mask-2)"></path>
                    <path d="M60.2983373,107.475097 C60.2983373,104.780899 62.4801446,102.59751 65.1713494,102.59751 L65.8679759,102.59751 C68.5591807,102.59751 70.740988,104.780899 70.740988,107.475097" id="Stroke-28" stroke="#000000" stroke-width="2" stroke-linecap="round" mask="url(#mask-2)"></path>
                    <path d="M49.8401687,107.475097 C49.8401687,104.780899 52.0211325,102.59751 54.7123373,102.59751 L55.4098072,102.59751 C58.1001687,102.59751 60.2819759,104.780899 60.2819759,107.475097" id="Stroke-29" stroke="#000000" stroke-width="2" stroke-linecap="round" mask="url(#mask-2)"></path>
                    <path d="M60.2818916,106.396658 L60.2818916,113.89161" id="Stroke-30" stroke="#000000" stroke-width="2" stroke-linecap="round" mask="url(#mask-2)"></path>
                    <path d="M110.626482,140.556652 L110.626482,133.997197 C110.626482,132.316173 111.992747,130.948389 113.671904,130.948389 L113.758771,130.948389 C115.437928,130.948389 116.804193,132.316173 116.804193,133.997197 L116.804193,140.556652 L110.626482,140.556652 Z" id="Fill-31" fill="#FFFFFF" mask="url(#mask-2)"></path>
                    <path d="M113.758602,130.10374 L113.671735,130.10374 C111.524506,130.10374 109.78294,131.847243 109.78294,133.997704 L109.78294,141.400626 L117.647398,141.400626 L117.647398,133.997704 C117.647398,131.847243 115.906675,130.10374 113.758602,130.10374 M113.758602,131.792362 C114.97306,131.792362 115.960651,132.781051 115.960651,133.997704 L115.960651,139.712003 L111.469687,139.712003 L111.469687,133.997704 C111.469687,132.781051 112.457277,131.792362 113.671735,131.792362 L113.758602,131.792362" id="Fill-32" fill="#000000" mask="url(#mask-2)"></path>
                    <path d="M124.699434,140.556652 L124.699434,133.997197 C124.699434,132.316173 126.065699,130.948389 127.744855,130.948389 L127.831723,130.948389 C129.51088,130.948389 130.877145,132.316173 130.877145,133.997197 L130.877145,140.556652 L124.699434,140.556652 Z" id="Fill-33" fill="#FFFFFF" mask="url(#mask-2)"></path>
                    <path d="M127.831639,130.10374 L127.744771,130.10374 C125.597542,130.10374 123.855976,131.847243 123.855976,133.997704 L123.855976,141.400626 L131.720434,141.400626 L131.720434,133.997704 C131.720434,131.847243 129.979711,130.10374 127.831639,130.10374 M127.831639,131.792362 C129.046096,131.792362 130.033687,132.781051 130.033687,133.997704 L130.033687,139.712003 L125.542723,139.712003 L125.542723,133.997704 C125.542723,132.781051 126.530313,131.792362 127.744771,131.792362 L127.831639,131.792362" id="Fill-34" fill="#000000" mask="url(#mask-2)"></path>
                    <path d="M113.715,127.43808 C113.143193,127.43808 112.678494,126.97202 112.678494,126.399577 L112.678494,125.824601 C112.678494,125.252157 113.143193,124.786098 113.715,124.786098 L114.290181,124.786098 C114.861145,124.786098 115.326687,125.252157 115.326687,125.824601 L115.326687,126.399577 C115.326687,126.97202 114.861145,127.43808 114.290181,127.43808 L113.715,127.43808 Z" id="Fill-35" fill="#FFFFFF" mask="url(#mask-2)"></path>
                    <path d="M114.289843,123.941617 L113.714663,123.941617 C112.67647,123.941617 111.834783,124.785084 111.834783,125.824432 L111.834783,126.399408 C111.834783,127.439599 112.67647,128.282222 113.714663,128.282222 L114.289843,128.282222 C115.328036,128.282222 116.169723,127.439599 116.169723,126.399408 L116.169723,125.824432 C116.169723,124.785084 115.328036,123.941617 114.289843,123.941617 M114.289843,125.63024 C114.396952,125.63024 114.482976,125.718049 114.482976,125.824432 L114.482976,126.399408 C114.482976,126.506635 114.396952,126.593599 114.289843,126.593599 L113.714663,126.593599 C113.608398,126.593599 113.52153,126.506635 113.52153,126.399408 L113.52153,125.824432 C113.52153,125.718049 113.608398,125.63024 113.714663,125.63024 L114.289843,125.63024" id="Fill-36" fill="#000000" mask="url(#mask-2)"></path>
                    <path d="M127.325952,127.43808 C126.753301,127.43808 126.288602,126.97202 126.288602,126.399577 L126.288602,125.824601 C126.288602,125.252157 126.753301,124.786098 127.325952,124.786098 L127.900289,124.786098 C128.472096,124.786098 128.937639,125.252157 128.937639,125.824601 L128.937639,126.399577 C128.937639,126.97202 128.472096,127.43808 127.900289,127.43808 L127.325952,127.43808 Z" id="Fill-37" fill="#FFFFFF" mask="url(#mask-2)"></path>
                    <path d="M127.899952,123.941617 L127.325614,123.941617 C126.286578,123.941617 125.444892,124.785084 125.444892,125.824432 L125.444892,126.399408 C125.444892,127.439599 126.286578,128.282222 127.325614,128.282222 L127.899952,128.282222 C128.938145,128.282222 129.780675,127.439599 129.780675,126.399408 L129.780675,125.824432 C129.780675,124.785084 128.938145,123.941617 127.899952,123.941617 M127.899952,125.63024 C128.00706,125.63024 128.093928,125.718049 128.093928,125.824432 L128.093928,126.399408 C128.093928,126.506635 128.00706,126.593599 127.899952,126.593599 L127.325614,126.593599 C127.218506,126.593599 127.131639,126.506635 127.131639,126.399408 L127.131639,125.824432 C127.131639,125.718049 127.218506,125.63024 127.325614,125.63024 L127.899952,125.63024" id="Fill-38" fill="#000000" mask="url(#mask-2)"></path>
                    <path d="M112.804072,113.810303 L112.804072,108.064764 C112.804072,106.764525 113.860819,105.706602 115.159614,105.706602 C116.45841,105.706602 117.515157,106.764525 117.515157,108.064764 L117.515157,113.810303 L112.804072,113.810303 Z" id="Fill-39" fill="#FFFFFF" mask="url(#mask-2)"></path>
                    <path d="M115.159614,104.863051 C113.392747,104.863051 111.960699,106.296692 111.960699,108.06468 L111.960699,114.655374 L118.35853,114.655374 L118.35853,108.06468 C118.35853,106.296692 116.926482,104.863051 115.159614,104.863051 M115.159614,106.551674 C115.992867,106.551674 116.671783,107.2305 116.671783,108.06468 L116.671783,112.966751 L113.647446,112.966751 L113.647446,108.06468 C113.647446,107.2305 114.326361,106.551674 115.159614,106.551674" id="Fill-40" fill="#000000" mask="url(#mask-2)"></path>
                    <path d="M123.525795,113.810303 L123.525795,108.064764 C123.525795,106.764525 124.582542,105.706602 125.881337,105.706602 C127.180133,105.706602 128.23688,106.764525 128.23688,108.064764 L128.23688,113.810303 L123.525795,113.810303 Z" id="Fill-41" fill="#FFFFFF" mask="url(#mask-2)"></path>
                    <path d="M125.881337,104.863051 C124.11447,104.863051 122.682422,106.296692 122.682422,108.06468 L122.682422,114.655374 L129.080253,114.655374 L129.080253,108.06468 C129.080253,106.296692 127.648205,104.863051 125.881337,104.863051 M125.881337,106.551674 C126.71459,106.551674 127.393506,107.2305 127.393506,108.06468 L127.393506,112.966751 L124.369169,112.966751 L124.369169,108.06468 C124.369169,107.2305 125.047241,106.551674 125.881337,106.551674" id="Fill-42" fill="#000000" mask="url(#mask-2)"></path>
                    <path d="M120.500699,107.475097 C120.500699,104.780899 122.682506,102.59751 125.373711,102.59751 L126.070337,102.59751 C128.761542,102.59751 130.943349,104.780899 130.943349,107.475097" id="Stroke-43" stroke="#000000" stroke-width="2" stroke-linecap="round" mask="url(#mask-2)"></path>
                    <path d="M110.04253,107.475097 C110.04253,104.780899 112.224337,102.59751 114.914699,102.59751 L115.612169,102.59751 C118.30253,102.59751 120.484337,104.780899 120.484337,107.475097" id="Stroke-44" stroke="#000000" stroke-width="2" stroke-linecap="round" mask="url(#mask-2)"></path>
                    <path d="M120.484169,106.396658 L120.484169,113.89161" id="Stroke-45" stroke="#000000" stroke-width="2" stroke-linecap="round" mask="url(#mask-2)"></path>
                    <g id="Group-48" mask="url(#mask-2)">
                        <g transform="translate(86.867470, 14.353293)">
                            <path d="M0.78939759,0.534871257 L0.78939759,7.34255389" id="Fill-46" stroke="none" fill="#FFFFFF" fill-rule="evenodd"></path>
                            <path d="M0.78939759,0.534871257 L0.78939759,7.34255389" id="Stroke-47" stroke="#000000" stroke-width="2" fill="none" stroke-linecap="round"></path>
                        </g>
                    </g>
                    <g id="Group-51" mask="url(#mask-2)">
                        <g transform="translate(94.457831, 14.353293)">
                            <path d="M1.06366265,0.534871257 L1.06366265,7.34255389" id="Fill-49" stroke="none" fill="#FFFFFF" fill-rule="evenodd"></path>
                            <path d="M1.06366265,0.534871257 L1.06366265,7.34255389" id="Stroke-50" stroke="#000000" stroke-width="2" fill="none" stroke-linecap="round"></path>
                        </g>
                    </g>
                    <g id="Group-54" mask="url(#mask-2)">
                        <g transform="translate(87.710843, 16.886228)">
                            <path d="M0.319975904,0.474756287 L7.42877108,0.474756287" id="Fill-52" stroke="none" fill="#FFFFFF" fill-rule="evenodd"></path>
                            <path d="M0.319975904,0.474756287 L7.42877108,0.474756287" id="Stroke-53" stroke="#000000" stroke-width="2" fill="none" stroke-linecap="round"></path>
                        </g>
                    </g>
                    <g id="Group-57" mask="url(#mask-2)">
                        <g transform="translate(91.084337, 10.976048)">
                            <path d="M0.43939759,0.161854491 L0.43939759,10.7199683" id="Fill-55" stroke="none" fill="#FFFFFF" fill-rule="evenodd"></path>
                            <path d="M0.43939759,0.161854491 L0.43939759,10.7199683" id="Stroke-56" stroke="#000000" stroke-width="2" fill="none" stroke-linecap="round"></path>
                        </g>
                    </g>
                    <polygon id="Fill-58" fill="#FFFFFF" mask="url(#mask-2)" points="18.4475301 140.937943 18.4475301 90.052985 31.0011446 77.224518 43.4333133 90.0504521 43.4333133 140.937943"></polygon>
                    <path d="M31.0034217,76.0146198 L17.6039036,89.708506 L17.6039036,141.782254 L44.2764337,141.782254 L44.2764337,89.708506 L31.0034217,76.0146198 Z M30.9975181,78.4335719 L42.5896867,90.3923982 L42.5896867,140.093632 L19.2906506,140.093632 L19.2906506,90.3974641 L30.9975181,78.4335719 Z" id="Fill-59" fill="#000000" mask="url(#mask-2)"></path>
                    <polygon id="Fill-60" fill="#FFFFFF" mask="url(#mask-2)" points="35.0284217 89.3578635 31.3192651 82.6498096 27.2255301 89.3578635 19.0220361 89.3578635 26.6545663 75.2992347 35.5580602 75.2992347 42.8852892 89.3578635"></polygon>
                    <path d="M36.0694819,74.4545856 L26.1530964,74.4545856 L17.6038193,90.2018371 L27.6981566,90.2018371 L31.2816506,84.3271186 L34.532012,90.2018371 L44.2763494,90.2018371 L36.0694819,74.4545856 Z M35.0473133,76.1432084 L41.4949036,88.5132144 L35.5246627,88.5132144 L32.7575542,83.5098251 L31.3533373,80.9709808 L29.8428554,83.4473461 L26.7518916,88.5132144 L20.4409277,88.5132144 L27.1558675,76.1432084 L35.0473133,76.1432084 Z" id="Fill-61" fill="#000000" mask="url(#mask-2)"></path>
                    <path d="M31.1006627,99.8754503 L31.1006627,95.6530491 C31.1006627,94.4887437 32.0427108,93.5456479 33.2048795,93.5456479 C34.3670482,93.5456479 35.3090964,94.4887437 35.3090964,95.6530491 L35.3090964,99.8754503" id="Stroke-62" stroke="#000000" stroke-width="2" stroke-linecap="round" mask="url(#mask-2)"></path>
                    <path d="M35.3759759,99.8754503 L35.3759759,95.6530491 C35.3759759,94.4887437 36.3180241,93.5456479 37.4810361,93.5456479 C38.6432048,93.5456479 39.585253,94.4887437 39.585253,95.6530491 L39.585253,99.8754503" id="Stroke-63" stroke="#000000" stroke-width="2" stroke-linecap="round" mask="url(#mask-2)"></path>
                    <path d="M22.1916867,99.8754503 L22.1916867,95.6530491 C22.1916867,94.4887437 23.1337349,93.5456479 24.2959036,93.5456479 C25.4580723,93.5456479 26.4001205,94.4887437 26.4001205,95.6530491 L26.4001205,99.8754503" id="Stroke-64" stroke="#000000" stroke-width="2" stroke-linecap="round" mask="url(#mask-2)"></path>
                    <path d="M26.467,99.8754503 L26.467,95.6530491 C26.467,94.4887437 27.4090482,93.5456479 28.5712169,93.5456479 C29.7342289,93.5456479 30.6762771,94.4887437 30.6762771,95.6530491 L30.6762771,99.8754503" id="Stroke-65" stroke="#000000" stroke-width="2" stroke-linecap="round" mask="url(#mask-2)"></path>
                    <path d="M24.2605663,122.568851 L24.2605663,110.069666 C24.2605663,106.521869 27.1440602,103.635169 30.6879157,103.635169 L30.8498434,103.635169 C34.3945422,103.635169 37.2780361,106.521869 37.2780361,110.069666 L37.2780361,122.568851 L24.2605663,122.568851 Z" id="Fill-66" fill="#FFFFFF" mask="url(#mask-2)"></path>
                    <path d="M30.8502651,102.790604 L30.6883373,102.790604 C26.6730361,102.790604 23.4176145,106.049646 23.4176145,110.070257 L23.4176145,123.41291 L38.120988,123.41291 L38.120988,110.070257 C38.120988,106.049646 34.8664096,102.790604 30.8502651,102.790604 M30.8502651,104.479227 C33.9294217,104.479227 36.434241,106.986832 36.434241,110.070257 L36.434241,121.724287 L25.1043614,121.724287 L25.1043614,110.070257 C25.1043614,106.986832 27.6091807,104.479227 30.6883373,104.479227 L30.8502651,104.479227" id="Fill-67" fill="#000000" mask="url(#mask-2)"></path>
                    <path d="M24.6023855,140.937943 L24.6023855,137.510039 C24.6023855,134.335428 27.1831084,131.75268 30.3533494,131.75268 L30.5009398,131.75268 C33.6720241,131.75268 36.2519036,134.335428 36.2519036,137.510039 L36.2519036,140.937943 L24.6023855,140.937943 Z" id="Fill-68" fill="#FFFFFF" mask="url(#mask-2)"></path>
                    <path d="M30.5010241,130.908031 L30.3534337,130.908031 C26.711747,130.908031 23.7590964,133.863965 23.7590964,137.509701 L23.7590964,141.781917 L37.0953614,141.781917 L37.0953614,137.509701 C37.0953614,133.863965 34.1427108,130.908031 30.5010241,130.908031 M30.5010241,132.596653 C33.2074096,132.596653 35.4086145,134.800306 35.4086145,137.509701 L35.4086145,140.093294 L25.4458434,140.093294 L25.4458434,137.509701 C25.4458434,134.800306 27.6478916,132.596653 30.3534337,132.596653 L30.5010241,132.596653" id="Fill-69" fill="#000000" mask="url(#mask-2)"></path>
                    <g id="Group-72" mask="url(#mask-2)">
                        <g transform="translate(23.614458, 110.604790)">
                            <path d="M0.734240964,0.487505389 L13.5231566,0.487505389" id="Fill-70" stroke="none" fill="#FFFFFF" fill-rule="evenodd"></path>
                            <path d="M0.734240964,0.487505389 L13.5231566,0.487505389" id="Stroke-71" stroke="#000000" stroke-width="2" fill="none" stroke-linecap="round"></path>
                        </g>
                    </g>
                    <g id="Group-75" mask="url(#mask-2)">
                        <g transform="translate(22.771084, 74.299401)">
                            <path d="M15.895988,0.591355689 L0.784421687,0.591355689" id="Fill-73" stroke="none" fill="#FFFFFF" fill-rule="evenodd"></path>
                            <path d="M15.895988,0.591355689 L0.784421687,0.591355689" id="Stroke-74" stroke="#000000" stroke-width="2" fill="none" stroke-linecap="round"></path>
                        </g>
                    </g>
                    <g id="Group-78" mask="url(#mask-2)">
                        <g transform="translate(26.987952, 68.389222)">
                            <path d="M0.532421687,0.0117359281 L0.532421687,5.83157425" id="Fill-76" stroke="none" fill="#FFFFFF" fill-rule="evenodd"></path>
                            <path d="M0.532421687,0.0117359281 L0.532421687,5.83157425" id="Stroke-77" stroke="#000000" stroke-width="2" fill="none" stroke-linecap="round"></path>
                        </g>
                    </g>
                    <g id="Group-81" mask="url(#mask-2)">
                        <g transform="translate(33.734940, 68.389222)">
                            <path d="M1.15761446,0.0117359281 L1.15761446,5.83157425" id="Fill-79" stroke="none" fill="#FFFFFF" fill-rule="evenodd"></path>
                            <path d="M1.15761446,0.0117359281 L1.15761446,5.83157425" id="Stroke-80" stroke="#000000" stroke-width="2" fill="none" stroke-linecap="round"></path>
                        </g>
                    </g>
                    <g id="Group-84" mask="url(#mask-2)">
                        <g transform="translate(27.831325, 69.233533)">
                            <path d="M0.0638433735,1.1458994 L6.67842169,1.1458994" id="Fill-82" stroke="none" fill="#FFFFFF" fill-rule="evenodd"></path>
                            <path d="M0.0638433735,1.1458994 L6.67842169,1.1458994" id="Stroke-83" stroke="#000000" stroke-width="2" fill="none" stroke-linecap="round"></path>
                        </g>
                    </g>
                    <g id="Group-87" mask="url(#mask-2)">
                        <g transform="translate(30.361446, 70.077844)">
                            <path d="M1.02663855,0.684145509 L1.02663855,4.14244491" id="Fill-85" stroke="none" fill="#FFFFFF" fill-rule="evenodd"></path>
                            <path d="M1.02663855,0.684145509 L1.02663855,4.14244491" id="Stroke-86" stroke="#000000" stroke-width="2" fill="none" stroke-linecap="round"></path>
                        </g>
                    </g>
                    <polygon id="Fill-88" fill="#FFFFFF" mask="url(#mask-2)" points="136.878928 140.937943 136.878928 90.052985 149.432542 77.224518 161.864711 90.0504521 161.864711 140.937943"></polygon>
                    <path d="M149.434819,76.0146198 L136.034458,89.708506 L136.034458,141.782254 L162.707831,141.782254 L162.707831,89.708506 L149.434819,76.0146198 Z M149.428916,78.4335719 L161.021084,90.3923982 L161.021084,140.093632 L137.721205,140.093632 L137.721205,90.3974641 L149.428916,78.4335719 Z" id="Fill-89" fill="#000000" mask="url(#mask-2)"></path>
                    <polygon id="Fill-90" fill="#FFFFFF" mask="url(#mask-2)" points="153.459819 89.3578635 149.748976 82.6498096 145.656928 89.3578635 137.453434 89.3578635 145.08512 75.2992347 153.989458 75.2992347 161.316687 89.3578635"></polygon>
                    <path d="M154.500795,74.4545856 L144.583566,74.4545856 L136.034289,90.2018371 L146.12947,90.2018371 L149.712964,84.3271186 L152.962482,90.2018371 L162.707663,90.2018371 L154.500795,74.4545856 Z M153.478627,76.1432084 L159.925373,88.5132144 L153.955976,88.5132144 L151.188867,83.5098251 L149.784651,80.9709808 L148.273325,83.4473461 L145.183205,88.5132144 L138.871398,88.5132144 L145.587181,76.1432084 L153.478627,76.1432084 Z" id="Fill-91" fill="#000000" mask="url(#mask-2)"></path>
                    <path d="M76.417988,119.838855 L104.754494,119.838855" id="Stroke-92" stroke="#000000" stroke-width="2" stroke-linecap="square" mask="url(#mask-2)"></path>
                    <path d="M83.0430241,88.5214042 L83.0430241,67.6652246 C83.0430241,66.1285778 84.2920602,64.8773084 85.8278434,64.8773084 C87.4445904,64.8773084 88.6936265,66.1285778 88.6936265,67.6652246 L88.6936265,88.5214042 L83.0430241,88.5214042 Z" id="Fill-93" fill="#FFFFFF" mask="url(#mask-2)"></path>
                    <path d="M85.9083855,64.0326593 L85.8274217,64.0326593 C83.8235663,64.0326593 82.1992289,65.6596473 82.1992289,67.6657311 L82.1992289,89.3653778 L89.5374217,89.3653778 L89.5374217,67.6657311 C89.5374217,65.6596473 87.9130843,64.0326593 85.9083855,64.0326593 M85.9083855,65.721282 C86.9794699,65.721282 87.8506747,66.5934557 87.8506747,67.6657311 L87.8506747,87.6767551 L83.8859759,87.6767551 L83.8859759,67.6657311 C83.8859759,66.5934557 84.7571807,65.721282 85.8274217,65.721282 L85.9083855,65.721282" id="Fill-94" fill="#000000" mask="url(#mask-2)"></path>
                    <path d="M93.3010602,88.5214042 L93.3010602,67.6652246 C93.3010602,66.1285778 94.5500964,64.8773084 96.0867229,64.8773084 C97.7034699,64.8773084 98.952506,66.1285778 98.952506,67.6652246 L98.952506,88.5214042 L93.3010602,88.5214042 Z" id="Fill-95" fill="#FFFFFF" mask="url(#mask-2)"></path>
                    <path d="M96.1672651,64.0326593 L96.0863012,64.0326593 C94.0824458,64.0326593 92.4581084,65.6596473 92.4581084,67.6657311 L92.4581084,89.3653778 L99.7963012,89.3653778 L99.7963012,67.6657311 C99.7963012,65.6596473 98.1711205,64.0326593 96.1672651,64.0326593 M96.1672651,65.721282 C97.2383494,65.721282 98.1095542,66.5934557 98.1095542,67.6657311 L98.1095542,87.6767551 L94.1448554,87.6767551 L94.1448554,67.6657311 C94.1448554,66.5934557 95.0160602,65.721282 96.0863012,65.721282 L96.1672651,65.721282" id="Fill-96" fill="#000000" mask="url(#mask-2)"></path>
                    <polygon id="Fill-97" fill="#FFFFFF" mask="url(#mask-2)" points="98.4288554 46.6038772 98.4288554 42.0302425 94.2929518 42.0302425 90.7356024 36.3015898 87.1622289 42.0302425 82.7969277 42.0302425 82.7969277 46.6038772 77.2576506 46.6038772 87.3064458 22.3797395 95.6457229 22.3797395 104.046566 46.6038772"></polygon>
                    <path d="M96.2446867,21.5350904 L86.743241,21.5350904 L75.9944458,47.4478509 L83.6404699,47.4478509 L83.6404699,42.8742162 L87.6296265,42.8742162 L90.7349277,37.8986892 L93.8242048,42.8742162 L97.5856506,42.8742162 L97.5856506,47.4478509 L105.231675,47.4478509 L96.2446867,21.5350904 Z M95.0454096,23.2237132 L102.860952,45.7592281 L99.2723976,45.7592281 L99.2723976,42.8742162 L99.2723976,41.1855934 L97.5856506,41.1855934 L94.7620361,41.1855934 L92.1669759,37.0070964 L90.7383012,34.7055036 L89.3037229,37.0037192 L86.6951687,41.1855934 L83.6404699,41.1855934 L81.9537229,41.1855934 L81.9537229,42.8742162 L81.9537229,45.7592281 L78.5211928,45.7592281 L87.8691446,23.2237132 L95.0454096,23.2237132 Z" id="Fill-98" fill="#000000" mask="url(#mask-2)"></path>
                    <g id="Group-101" mask="url(#mask-2)">
                        <g transform="translate(83.493976, 21.107784)">
                            <path d="M14.7240361,0.921650299 L0.782228916,0.921650299" id="Fill-99" stroke="none" fill="#FFFFFF" fill-rule="evenodd"></path>
                            <path d="M14.7240361,0.921650299 L0.782228916,0.921650299" id="Stroke-100" stroke="#000000" stroke-width="2" fill="none" stroke-linecap="round"></path>
                        </g>
                    </g>
                    <path d="M90.9052048,53.7665084 C88.8811084,53.7665084 87.2331566,52.1175683 87.2331566,50.0903766 C87.2331566,48.063185 88.8811084,46.4142449 90.9052048,46.4142449 C92.9293012,46.4142449 94.577253,48.063185 94.577253,50.0903766 C94.577253,52.1175683 92.9293012,53.7665084 90.9052048,53.7665084" id="Fill-102" fill="#FFFFFF" mask="url(#mask-2)"></path>
                    <path d="M90.9052048,45.5699335 C88.4113494,45.5699335 86.3897831,47.5937479 86.3897831,50.0903766 C86.3897831,52.5870054 88.4113494,54.6108198 90.9052048,54.6108198 C93.3990602,54.6108198 95.4206265,52.5870054 95.4206265,50.0903766 C95.4206265,47.5937479 93.3990602,45.5699335 90.9052048,45.5699335 M90.9052048,47.2585563 C92.4654458,47.2585563 93.7338795,48.5292449 93.7338795,50.0903766 C93.7338795,51.6515084 92.4654458,52.922197 90.9052048,52.922197 C89.3449639,52.922197 88.0765301,51.6515084 88.0765301,50.0903766 C88.0765301,48.5292449 89.3449639,47.2585563 90.9052048,47.2585563" id="Fill-103" fill="#000000" mask="url(#mask-2)"></path>
                    <g id="Group-106" mask="url(#mask-2)">
                        <g transform="translate(76.746988, 56.568862)">
                            <path d="M0.269710843,0.88162994 L27.362241,0.88162994" id="Fill-104" stroke="none" fill="#FFFFFF" fill-rule="evenodd"></path>
                            <path d="M0.269710843,0.88162994 L27.362241,0.88162994" id="Stroke-105" stroke="#000000" stroke-width="2" fill="none" stroke-linecap="round"></path>
                        </g>
                    </g>
                    <path d="M80.7344578,142.688454 L80.7344578,133.873843 C80.7344578,128.393418 85.1874699,123.93461 90.6618072,123.93461 C96.136988,123.93461 100.590843,128.393418 100.590843,133.873843 L100.590843,142.688454 L80.7344578,142.688454 Z" id="Fill-107" fill="#FFFFFF" mask="url(#mask-2)"></path>
                    <path d="M90.6622289,123.09072 C84.7231928,123.09072 79.891506,127.92778 79.891506,133.873421 L79.891506,143.533187 L101.433795,143.533187 L101.433795,133.873421 C101.433795,127.92778 96.6021084,123.09072 90.6622289,123.09072 M90.6622289,124.779343 C95.6718675,124.779343 99.7470482,128.859056 99.7470482,133.873421 L99.7470482,141.844565 L81.578253,141.844565 L81.578253,133.873421 C81.578253,128.859056 85.6534337,124.779343 90.6622289,124.779343" id="Fill-108" fill="#000000" mask="url(#mask-2)"></path>
                    <polygon id="Fill-109" fill="#FFFFFF" mask="url(#mask-2)" points="79.7822892 89.3931557 102.008554 89.3931557 102.008554 83.2313713 79.7822892 83.2313713"></polygon>
                    <polygon id="Stroke-110" stroke="#000000" stroke-width="2" stroke-linecap="round" mask="url(#mask-2)" points="79.7822892 89.3931557 102.008554 89.3931557 102.008554 83.2313713 79.7822892 83.2313713"></polygon>
                    <g id="Group-113" mask="url(#mask-2)">
                        <g transform="translate(84.337349, 82.742515)">
                            <path d="M1.04308434,0.806570659 L1.04308434,6.24140299" id="Fill-111" stroke="none" fill="#FFFFFF" fill-rule="evenodd"></path>
                            <path d="M1.04308434,0.806570659 L1.04308434,6.24140299" id="Stroke-112" stroke="#000000" stroke-width="2" fill="none" stroke-linecap="round"></path>
                        </g>
                    </g>
                    <g id="Group-116" mask="url(#mask-2)">
                        <g transform="translate(90.240964, 82.742515)">
                            <path d="M0.685662651,0.806570659 L0.685662651,6.24140299" id="Fill-114" stroke="none" fill="#FFFFFF" fill-rule="evenodd"></path>
                            <path d="M0.685662651,0.806570659 L0.685662651,6.24140299" id="Stroke-115" stroke="#000000" stroke-width="2" fill="none" stroke-linecap="round"></path>
                        </g>
                    </g>
                    <g id="Group-119" mask="url(#mask-2)">
                        <g transform="translate(96.144578, 82.742515)">
                            <path d="M0.48139759,0.806570659 L0.48139759,6.24140299" id="Fill-117" stroke="none" fill="#FFFFFF" fill-rule="evenodd"></path>
                            <path d="M0.48139759,0.806570659 L0.48139759,6.24140299" id="Stroke-118" stroke="#000000" stroke-width="2" fill="none" stroke-linecap="round"></path>
                        </g>
                    </g>
                </g>
                <path d="M139.157048,70.5000844 C139.157048,108.969444 108.005361,140.155773 69.5787349,140.155773 C31.1512651,140.155773 0.000421686747,108.969444 0.000421686747,70.5000844 C0.000421686747,32.0307251 31.1512651,0.844395808 69.5787349,0.844395808 C108.005361,0.844395808 139.157048,32.0307251 139.157048,70.5000844 Z" id="Stroke-121" stroke="#7D65D9" stroke-width="2"></path>
            </g>
        </g>
    </g>
</svg>