<?xml version="1.0" encoding="UTF-8"?>
<svg width="142px" height="144px" viewBox="0 0 142 144" version="1.1" xmlns="http://www.w3.org/2000/svg" xmlns:xlink="http://www.w3.org/1999/xlink">
    <!-- Generator: sketchtool 52.5 (67469) - http://www.bohemiancoding.com/sketch -->
    <title>F572A3B5-B46A-4FD6-8551-FDDC26C300EF</title>
    <desc>Created with sketchtool.</desc>
    <defs>
        <path d="M0,70.7797725 C0,109.521964 31.3396364,140.928623 69.9991515,140.928623 C108.659515,140.928623 140,109.521964 140,70.7797725 C140,32.0367305 108.659515,0.629221557 69.9991515,0.629221557 C31.3396364,0.629221557 0,32.0367305 0,70.7797725 Z" id="path-1"></path>
    </defs>
    <g id="Page-1" stroke="none" stroke-width="1" fill="none" fill-rule="evenodd">
        <g id="Careers_page" transform="translate(-929.000000, -3099.000000)">
            <g id="Group-105" transform="translate(930.000000, 3100.000000)">
                <g id="Group-102" transform="translate(0.000000, 0.221078)">
                    <mask id="mask-2" fill="white">
                        <use xlink:href="#path-1"></use>
                    </mask>
                    <g id="Clip-2"></g>
                    <polygon id="Fill-1" fill="#FFFFFF" mask="url(#mask-2)" points="41.553697 93.5933054 97.3551515 93.5933054 97.3551515 73.5194371 41.553697 73.5194371"></polygon>
                    <polygon id="Stroke-3" stroke="#000000" stroke-width="2" mask="url(#mask-2)" points="41.553697 93.5933054 97.3551515 93.5933054 97.3551515 73.5194371 41.553697 73.5194371"></polygon>
                    <polygon id="Fill-4" fill="#FFFFFF" mask="url(#mask-2)" points="28.1993939 102.196635 110.709455 102.196635 110.709455 93.5933054 28.1993939 93.5933054"></polygon>
                    <polygon id="Stroke-5" stroke="#000000" stroke-width="2" mask="url(#mask-2)" points="28.1993939 102.196635 110.709455 102.196635 110.709455 93.5933054 28.1993939 93.5933054"></polygon>
                    <polygon id="Fill-6" fill="#FFFFFF" mask="url(#mask-2)" points="28.1993939 128.723425 110.709455 128.723425 110.709455 123.22709 28.1993939 123.22709"></polygon>
                    <polygon id="Stroke-7" stroke="#000000" stroke-width="2" mask="url(#mask-2)" points="28.1993939 128.723425 110.709455 128.723425 110.709455 123.22709 28.1993939 123.22709"></polygon>
                    <polygon id="Fill-8" fill="#FFFFFF" mask="url(#mask-2)" points="110.709539 148.31951 28.1994788 148.797378 28.1994788 128.72351 110.709539 128.245642"></polygon>
                    <polygon id="Stroke-9" stroke="#000000" stroke-width="2" mask="url(#mask-2)" points="110.709539 148.31951 28.1994788 148.797378 28.1994788 128.72351 110.709539 128.245642"></polygon>
                    <polygon id="Fill-10" fill="#FFFFFF" mask="url(#mask-2)" points="42.2689697 123.22709 96.6398788 123.22709 96.6398788 102.197485 42.2689697 102.197485"></polygon>
                    <polygon id="Stroke-11" stroke="#000000" stroke-width="2" mask="url(#mask-2)" points="42.2689697 123.22709 96.6398788 123.22709 96.6398788 102.197485 42.2689697 102.197485"></polygon>
                    <polygon id="Fill-12" fill="#FFFFFF" mask="url(#mask-2)" points="61.5847273 102.196635 77.3232727 102.196635 77.3232727 93.5933054 61.5847273 93.5933054"></polygon>
                    <polygon id="Stroke-13" stroke="#000000" stroke-width="2" mask="url(#mask-2)" points="61.5847273 102.196635 77.3232727 102.196635 77.3232727 93.5933054 61.5847273 93.5933054"></polygon>
                    <polygon id="Fill-14" fill="#FFFFFF" mask="url(#mask-2)" points="38.6917576 73.5194371 100.217091 73.5194371 100.217091 67.3054491 38.6917576 67.3054491"></polygon>
                    <polygon id="Stroke-15" stroke="#000000" stroke-width="2" mask="url(#mask-2)" points="38.6917576 73.5194371 100.217091 73.5194371 100.217091 67.3054491 38.6917576 67.3054491"></polygon>
                    <path d="M52.0464,86.9024695 L45.3696727,86.9024695 L45.3696727,80.2106132 C45.3696727,78.3637629 46.8638545,76.8655353 48.7076121,76.8655353 C50.5513697,76.8655353 52.0464,78.3637629 52.0464,80.2106132 L52.0464,86.9024695 Z" id="Fill-16" fill="#FFFFFF" mask="url(#mask-2)"></path>
                    <path d="M52.0464,86.9024695 L45.3696727,86.9024695 L45.3696727,80.2106132 C45.3696727,78.3637629 46.8638545,76.8655353 48.7076121,76.8655353 C50.5513697,76.8655353 52.0464,78.3637629 52.0464,80.2106132 L52.0464,86.9024695 Z" id="Stroke-17" stroke="#000000" stroke-width="2" mask="url(#mask-2)"></path>
                    <path d="M43.6999394,144.017846 L37.0232121,144.017846 L37.0232121,136.370253 C37.0232121,134.522552 38.5182424,133.025175 40.3611515,133.025175 C42.2049091,133.025175 43.6999394,134.522552 43.6999394,136.370253 L43.6999394,144.017846 Z" id="Fill-18" fill="#FFFFFF" mask="url(#mask-2)"></path>
                    <path d="M43.6999394,144.017846 L37.0232121,144.017846 L37.0232121,136.370253 C37.0232121,134.522552 38.5182424,133.025175 40.3611515,133.025175 C42.2049091,133.025175 43.6999394,134.522552 43.6999394,136.370253 L43.6999394,144.017846 Z" id="Stroke-19" stroke="#000000" stroke-width="2" mask="url(#mask-2)"></path>
                    <path d="M55.5281576,144.017846 L48.8505818,144.017846 L48.8505818,136.370253 C48.8505818,134.522552 50.3456121,133.025175 52.1885212,133.025175 L52.1893697,133.025175 C54.0331273,133.025175 55.5281576,134.522552 55.5281576,136.370253 L55.5281576,144.017846 Z" id="Fill-20" fill="#FFFFFF" mask="url(#mask-2)"></path>
                    <path d="M55.5281576,144.017846 L48.8505818,144.017846 L48.8505818,136.370253 C48.8505818,134.522552 50.3456121,133.025175 52.1885212,133.025175 L52.1893697,133.025175 C54.0331273,133.025175 55.5281576,134.522552 55.5281576,136.370253 L55.5281576,144.017846 Z" id="Stroke-21" stroke="#000000" stroke-width="2" mask="url(#mask-2)"></path>
                    <path d="M67.3556121,144.017846 L60.6788848,144.017846 L60.6788848,136.370253 C60.6788848,134.522552 62.1739152,133.025175 64.0168242,133.025175 C65.8605818,133.025175 67.3556121,134.522552 67.3556121,136.370253 L67.3556121,144.017846 Z" id="Fill-22" fill="#FFFFFF" mask="url(#mask-2)"></path>
                    <path d="M67.3556121,144.017846 L60.6788848,144.017846 L60.6788848,136.370253 C60.6788848,134.522552 62.1739152,133.025175 64.0168242,133.025175 C65.8605818,133.025175 67.3556121,134.522552 67.3556121,136.370253 L67.3556121,144.017846 Z" id="Stroke-23" stroke="#000000" stroke-width="2" mask="url(#mask-2)"></path>
                    <path d="M79.1838303,144.017846 L72.507103,144.017846 L72.507103,136.370253 C72.507103,134.522552 74.0021333,133.025175 75.8450424,133.025175 C77.6888,133.025175 79.1838303,134.522552 79.1838303,136.370253 L79.1838303,144.017846 Z" id="Fill-24" fill="#FFFFFF" mask="url(#mask-2)"></path>
                    <path d="M79.1838303,144.017846 L72.507103,144.017846 L72.507103,136.370253 C72.507103,134.522552 74.0021333,133.025175 75.8450424,133.025175 C77.6888,133.025175 79.1838303,134.522552 79.1838303,136.370253 L79.1838303,144.017846 Z" id="Stroke-25" stroke="#000000" stroke-width="2" mask="url(#mask-2)"></path>
                    <path d="M91.0121333,144.017846 L84.3345576,144.017846 L84.3345576,136.370253 C84.3345576,134.522552 85.8295879,133.025175 87.6733455,133.025175 C89.517103,133.025175 91.0121333,134.522552 91.0121333,136.370253 L91.0121333,144.017846 Z" id="Fill-26" fill="#FFFFFF" mask="url(#mask-2)"></path>
                    <path d="M91.0121333,144.017846 L84.3345576,144.017846 L84.3345576,136.370253 C84.3345576,134.522552 85.8295879,133.025175 87.6733455,133.025175 C89.517103,133.025175 91.0121333,134.522552 91.0121333,136.370253 L91.0121333,144.017846 Z" id="Stroke-27" stroke="#000000" stroke-width="2" mask="url(#mask-2)"></path>
                    <path d="M102.839503,144.017846 L96.1627758,144.017846 L96.1627758,136.370253 C96.1627758,134.522552 97.6578061,133.025175 99.5007152,133.025175 C101.344473,133.025175 102.839503,134.522552 102.839503,136.370253 L102.839503,144.017846 Z" id="Fill-28" fill="#FFFFFF" mask="url(#mask-2)"></path>
                    <path d="M102.839503,144.017846 L96.1627758,144.017846 L96.1627758,136.370253 C96.1627758,134.522552 97.6578061,133.025175 99.5007152,133.025175 C101.344473,133.025175 102.839503,134.522552 102.839503,136.370253 L102.839503,144.017846 Z" id="Stroke-29" stroke="#000000" stroke-width="2" mask="url(#mask-2)"></path>
                    <path d="M62.3003394,86.9024695 L55.6236121,86.9024695 L55.6236121,80.2106132 C55.6236121,78.3637629 57.1186424,76.8655353 58.9615515,76.8655353 C60.8053091,76.8655353 62.3003394,78.3637629 62.3003394,80.2106132 L62.3003394,86.9024695 Z" id="Fill-30" fill="#FFFFFF" mask="url(#mask-2)"></path>
                    <path d="M62.3003394,86.9024695 L55.6236121,86.9024695 L55.6236121,80.2106132 C55.6236121,78.3637629 57.1186424,76.8655353 58.9615515,76.8655353 C60.8053091,76.8655353 62.3003394,78.3637629 62.3003394,80.2106132 L62.3003394,86.9024695 Z" id="Stroke-31" stroke="#000000" stroke-width="2" mask="url(#mask-2)"></path>
                    <path d="M72.5541939,86.9024695 L65.8774667,86.9024695 L65.8774667,80.2106132 C65.8774667,78.3637629 67.372497,76.8655353 69.2154061,76.8655353 C71.0591636,76.8655353 72.5541939,78.3637629 72.5541939,80.2106132 L72.5541939,86.9024695 Z" id="Fill-32" fill="#FFFFFF" mask="url(#mask-2)"></path>
                    <path d="M72.5541939,86.9024695 L65.8774667,86.9024695 L65.8774667,80.2106132 C65.8774667,78.3637629 67.372497,76.8655353 69.2154061,76.8655353 C71.0591636,76.8655353 72.5541939,78.3637629 72.5541939,80.2106132 L72.5541939,86.9024695 Z" id="Stroke-33" stroke="#000000" stroke-width="2" mask="url(#mask-2)"></path>
                    <path d="M53.000097,117.49165 L46.3233697,117.49165 L46.3233697,110.799794 C46.3233697,108.952944 47.8184,107.454716 49.6613091,107.454716 C51.5050667,107.454716 53.000097,108.952944 53.000097,110.799794 L53.000097,117.49165 Z" id="Fill-34" fill="#FFFFFF" mask="url(#mask-2)"></path>
                    <path d="M53.000097,117.49165 L46.3233697,117.49165 L46.3233697,110.799794 C46.3233697,108.952944 47.8184,107.454716 49.6613091,107.454716 C51.5050667,107.454716 53.000097,108.952944 53.000097,110.799794 L53.000097,117.49165 Z" id="Stroke-35" stroke="#000000" stroke-width="2" mask="url(#mask-2)"></path>
                    <path d="M72.7928727,117.49165 L66.1161455,117.49165 L66.1161455,110.799794 C66.1161455,108.952944 67.6111758,107.454716 69.4540848,107.454716 C71.2978424,107.454716 72.7928727,108.952944 72.7928727,110.799794 L72.7928727,117.49165 Z" id="Fill-36" fill="#FFFFFF" mask="url(#mask-2)"></path>
                    <path d="M72.7928727,117.49165 L66.1161455,117.49165 L66.1161455,110.799794 C66.1161455,108.952944 67.6111758,107.454716 69.4540848,107.454716 C71.2978424,107.454716 72.7928727,108.952944 72.7928727,110.799794 L72.7928727,117.49165 Z" id="Stroke-37" stroke="#000000" stroke-width="2" mask="url(#mask-2)"></path>
                    <path d="M92.5855636,117.49165 L85.9088364,117.49165 L85.9088364,110.799794 C85.9088364,108.952944 87.4038667,107.454716 89.2467758,107.454716 C91.0905333,107.454716 92.5855636,108.952944 92.5855636,110.799794 L92.5855636,117.49165 Z" id="Fill-38" fill="#FFFFFF" mask="url(#mask-2)"></path>
                    <path d="M92.5855636,117.49165 L85.9088364,117.49165 L85.9088364,110.799794 C85.9088364,108.952944 87.4038667,107.454716 89.2467758,107.454716 C91.0905333,107.454716 92.5855636,108.952944 92.5855636,110.799794 L92.5855636,117.49165 Z" id="Stroke-39" stroke="#000000" stroke-width="2" mask="url(#mask-2)"></path>
                    <path d="M82.8081333,86.9024695 L76.1314061,86.9024695 L76.1314061,80.2106132 C76.1314061,78.3637629 77.6264364,76.8655353 79.4693455,76.8655353 C81.3139515,76.8655353 82.8081333,78.3637629 82.8081333,80.2106132 L82.8081333,86.9024695 Z" id="Fill-40" fill="#FFFFFF" mask="url(#mask-2)"></path>
                    <path d="M82.8081333,86.9024695 L76.1314061,86.9024695 L76.1314061,80.2106132 C76.1314061,78.3637629 77.6264364,76.8655353 79.4693455,76.8655353 C81.3139515,76.8655353 82.8081333,78.3637629 82.8081333,80.2106132 L82.8081333,86.9024695 Z" id="Stroke-41" stroke="#000000" stroke-width="2" mask="url(#mask-2)"></path>
                    <path d="M93.0628364,86.9024695 L86.3852606,86.9024695 L86.3852606,80.2106132 C86.3852606,78.3637629 87.8802909,76.8655353 89.7240485,76.8655353 C91.5678061,76.8655353 93.0628364,78.3637629 93.0628364,80.2106132 L93.0628364,86.9024695 Z" id="Fill-42" fill="#FFFFFF" mask="url(#mask-2)"></path>
                    <path d="M93.0628364,86.9024695 L86.3852606,86.9024695 L86.3852606,80.2106132 C86.3852606,78.3637629 87.8802909,76.8655353 89.7240485,76.8655353 C91.5678061,76.8655353 93.0628364,78.3637629 93.0628364,80.2106132 L93.0628364,86.9024695 Z" id="Stroke-43" stroke="#000000" stroke-width="2" mask="url(#mask-2)"></path>
                    <polygon id="Fill-44" fill="#FFFFFF" mask="url(#mask-2)" points="32.5707879 123.22709 36.5459394 123.22709 36.5459394 105.064695 32.5707879 105.064695"></polygon>
                    <polygon id="Stroke-45" stroke="#000000" stroke-width="2" mask="url(#mask-2)" points="32.5707879 123.22709 36.5459394 123.22709 36.5459394 105.064695 32.5707879 105.064695"></polygon>
                    <polygon id="Fill-46" fill="#FFFFFF" mask="url(#mask-2)" points="30.5038788 123.22709 38.612 123.22709 38.612 119.403293 30.5038788 119.403293"></polygon>
                    <polygon id="Stroke-47" stroke="#000000" stroke-width="2" mask="url(#mask-2)" points="30.5038788 123.22709 38.612 123.22709 38.612 119.403293 30.5038788 119.403293"></polygon>
                    <path d="M80.1856364,98.3731784 L58.7232121,98.3731784 C58.7232121,93.8861485 62.3530303,90.2477174 66.8313333,90.2477174 L72.0775152,90.2477174 C76.5558182,90.2477174 80.1856364,93.8861485 80.1856364,98.3731784" id="Fill-48" fill="#FFFFFF" mask="url(#mask-2)"></path>
                    <path d="M80.1856364,98.3731784 L58.7232121,98.3731784 C58.7232121,93.8861485 62.3530303,90.2477174 66.8313333,90.2477174 L72.0775152,90.2477174 C76.5558182,90.2477174 80.1856364,93.8861485 80.1856364,98.3731784 Z" id="Stroke-49" stroke="#000000" stroke-width="2" mask="url(#mask-2)"></path>
                    <polygon id="Fill-50" fill="#FFFFFF" mask="url(#mask-2)" points="30.5038788 106.259365 38.612 106.259365 38.612 102.435569 30.5038788 102.435569"></polygon>
                    <polygon id="Stroke-51" stroke="#000000" stroke-width="2" mask="url(#mask-2)" points="30.5038788 106.259365 38.612 106.259365 38.612 102.435569 30.5038788 102.435569"></polygon>
                    <polygon id="Fill-52" fill="#FFFFFF" mask="url(#mask-2)" points="57.3711515 123.22709 61.346303 123.22709 61.346303 105.064695 57.3711515 105.064695"></polygon>
                    <polygon id="Stroke-53" stroke="#000000" stroke-width="2" mask="url(#mask-2)" points="57.3711515 123.22709 61.346303 123.22709 61.346303 105.064695 57.3711515 105.064695"></polygon>
                    <polygon id="Fill-54" fill="#FFFFFF" mask="url(#mask-2)" points="55.3050909 123.22709 63.4132121 123.22709 63.4132121 119.403293 55.3050909 119.403293"></polygon>
                    <polygon id="Stroke-55" stroke="#000000" stroke-width="2" mask="url(#mask-2)" points="55.3050909 123.22709 63.4132121 123.22709 63.4132121 119.403293 55.3050909 119.403293"></polygon>
                    <polygon id="Fill-56" fill="#FFFFFF" mask="url(#mask-2)" points="55.3050909 106.259365 63.4132121 106.259365 63.4132121 102.435569 55.3050909 102.435569"></polygon>
                    <polygon id="Stroke-57" stroke="#000000" stroke-width="2" mask="url(#mask-2)" points="55.3050909 106.259365 63.4132121 106.259365 63.4132121 102.435569 55.3050909 102.435569"></polygon>
                    <polygon id="Fill-58" fill="#FFFFFF" mask="url(#mask-2)" points="77.4030303 123.22709 81.3781818 123.22709 81.3781818 105.064695 77.4030303 105.064695"></polygon>
                    <polygon id="Stroke-59" stroke="#000000" stroke-width="2" mask="url(#mask-2)" points="77.4030303 123.22709 81.3781818 123.22709 81.3781818 105.064695 77.4030303 105.064695"></polygon>
                    <polygon id="Fill-60" fill="#FFFFFF" mask="url(#mask-2)" points="75.3361212 123.22709 83.4442424 123.22709 83.4442424 119.403293 75.3361212 119.403293"></polygon>
                    <polygon id="Stroke-61" stroke="#000000" stroke-width="2" mask="url(#mask-2)" points="75.3361212 123.22709 83.4442424 123.22709 83.4442424 119.403293 75.3361212 119.403293"></polygon>
                    <polygon id="Fill-62" fill="#FFFFFF" mask="url(#mask-2)" points="75.3361212 106.259365 83.4442424 106.259365 83.4442424 102.435569 75.3361212 102.435569"></polygon>
                    <polygon id="Stroke-63" stroke="#000000" stroke-width="2" mask="url(#mask-2)" points="75.3361212 106.259365 83.4442424 106.259365 83.4442424 102.435569 75.3361212 102.435569"></polygon>
                    <polygon id="Fill-64" fill="#FFFFFF" mask="url(#mask-2)" points="102.203394 123.22709 106.178545 123.22709 106.178545 105.064695 102.203394 105.064695"></polygon>
                    <polygon id="Stroke-65" stroke="#000000" stroke-width="2" mask="url(#mask-2)" points="102.203394 123.22709 106.178545 123.22709 106.178545 105.064695 102.203394 105.064695"></polygon>
                    <polygon id="Fill-66" fill="#FFFFFF" mask="url(#mask-2)" points="100.137333 123.22709 108.245455 123.22709 108.245455 119.403293 100.137333 119.403293"></polygon>
                    <polygon id="Stroke-67" stroke="#000000" stroke-width="2" mask="url(#mask-2)" points="100.137333 123.22709 108.245455 123.22709 108.245455 119.403293 100.137333 119.403293"></polygon>
                    <polygon id="Fill-68" fill="#FFFFFF" mask="url(#mask-2)" points="100.137333 106.259365 108.245455 106.259365 108.245455 102.435569 100.137333 102.435569"></polygon>
                    <polygon id="Stroke-69" stroke="#000000" stroke-width="2" mask="url(#mask-2)" points="100.137333 106.259365 108.245455 106.259365 108.245455 102.435569 100.137333 102.435569"></polygon>
                    <path d="M46.5619636,61.3315856 C46.5619636,62.8876335 46.0851152,64.405418 45.1984485,65.6817174 L44.1106909,67.2445677 L93.667297,67.2445677 L92.6100848,65.606891 C91.815903,64.3765078 91.3933576,62.9420527 91.3933576,61.4761365 L91.3933576,61.3315856 L46.5619636,61.3315856 Z" id="Fill-70" fill="#FFFFFF" mask="url(#mask-2)"></path>
                    <path d="M46.5619636,61.3315856 C46.5619636,62.8876335 46.0851152,64.405418 45.1984485,65.6817174 L44.1106909,67.2445677 L93.667297,67.2445677 L92.6100848,65.606891 C91.815903,64.3765078 91.3933576,62.9420527 91.3933576,61.4761365 L91.3933576,61.3315856 L46.5619636,61.3315856 Z" id="Stroke-71" stroke="#000000" stroke-width="2" mask="url(#mask-2)"></path>
                    <path d="M68.8206061,29.4727377 C66.0333333,30.7898515 47.881697,40.1558994 46.562303,61.3317557 L69.1795152,61.3317557 L69.1795152,61.3011449 L91.393697,61.3632168 C90.1328485,40.1839593 71.961697,30.7975042 69.1795152,29.4727377 L68.8206061,29.4727377 Z" id="Fill-72" fill="#FFFFFF" mask="url(#mask-2)"></path>
                    <path d="M68.8206061,29.4727377 C66.0333333,30.7898515 47.881697,40.1558994 46.562303,61.3317557 L69.1795152,61.3317557 L69.1795152,61.3011449 L91.393697,61.3632168 C90.1328485,40.1839593 71.961697,30.7975042 69.1795152,29.4727377 L68.8206061,29.4727377 Z" id="Stroke-73" stroke="#000000" stroke-width="2" mask="url(#mask-2)"></path>
                    <g id="Group-76" mask="url(#mask-2)">
                        <g transform="translate(56.000000, 32.311377)">
                            <path d="M10.1160606,0.342925749 C10.1160606,0.342925749 1.25278788,12.2828299 0.438242424,29.0158719" id="Fill-74" stroke="none" fill="#FFFFFF" fill-rule="evenodd"></path>
                            <path d="M10.1160606,0.342925749 C10.1160606,0.342925749 1.25278788,12.2828299 0.438242424,29.0158719" id="Stroke-75" stroke="#000000" stroke-width="2" fill="none"></path>
                        </g>
                    </g>
                    <g id="Group-79" mask="url(#mask-2)">
                        <g transform="translate(71.272727, 32.311377)">
                            <path d="M0.427212121,0.342925749 C0.427212121,0.342925749 9.28963636,12.2828299 10.1050303,29.0158719" id="Fill-77" stroke="none" fill="#FFFFFF" fill-rule="evenodd"></path>
                            <path d="M0.427212121,0.342925749 C0.427212121,0.342925749 9.28963636,12.2828299 10.1050303,29.0158719" id="Stroke-78" stroke="#000000" stroke-width="2" fill="none"></path>
                        </g>
                    </g>
                    <g id="Group-82" mask="url(#mask-2)">
                        <g transform="translate(67.878788, 32.311377)">
                            <path d="M1.09836364,0.342925749 L1.09836364,29.0201234" id="Fill-80" stroke="none" fill="#FFFFFF" fill-rule="evenodd"></path>
                            <path d="M1.09836364,0.342925749 L1.09836364,29.0201234" id="Stroke-81" stroke="#000000" stroke-width="2" fill="none"></path>
                        </g>
                    </g>
                    <polygon id="Fill-83" fill="#FFFFFF" mask="url(#mask-2)" points="61.7052121 33.1327665 76.6088485 33.1327665 76.6088485 27.8753653 61.7052121 27.8753653"></polygon>
                    <polygon id="Stroke-84" stroke="#000000" stroke-width="2" mask="url(#mask-2)" points="61.7052121 33.1327665 76.6088485 33.1327665 76.6088485 27.8753653 61.7052121 27.8753653"></polygon>
                    <polygon id="Fill-85" fill="#FFFFFF" mask="url(#mask-2)" points="63.6711515 27.8753653 74.6403636 27.8753653 74.6403636 16.8818443 63.6711515 16.8818443"></polygon>
                    <polygon id="Stroke-86" stroke="#000000" stroke-width="2" mask="url(#mask-2)" points="63.6711515 27.8753653 74.6403636 27.8753653 74.6403636 16.8818443 63.6711515 16.8818443"></polygon>
                    <path d="M69.1561818,12.1026515 C66.654,12.1026515 64.6252727,14.1357174 64.6252727,16.6432503 L64.6252727,16.8821844 L73.6870909,16.8821844 L73.6870909,16.6432503 C73.6870909,14.1357174 71.6583636,12.1026515 69.1561818,12.1026515" id="Fill-87" fill="#FFFFFF" mask="url(#mask-2)"></path>
                    <path d="M69.1561818,12.1026515 C66.654,12.1026515 64.6252727,14.1357174 64.6252727,16.6432503 L64.6252727,16.8821844 L73.6870909,16.8821844 L73.6870909,16.6432503 C73.6870909,14.1357174 71.6583636,12.1026515 69.1561818,12.1026515 Z" id="Stroke-88" stroke="#000000" stroke-width="2" mask="url(#mask-2)"></path>
                    <path d="M71.5408485,9.71288503 C71.5408485,11.0325497 70.4734545,12.1030766 69.1557576,12.1030766 C67.8397576,12.1030766 66.7715152,11.0325497 66.7715152,9.71288503 C66.7715152,8.39322036 67.8397576,7.32269341 69.1557576,7.32269341 C70.4734545,7.32269341 71.5408485,8.39322036 71.5408485,9.71288503" id="Fill-89" fill="#FFFFFF" mask="url(#mask-2)"></path>
                    <path d="M71.5408485,9.71288503 C71.5408485,11.0325497 70.4734545,12.1030766 69.1557576,12.1030766 C67.8397576,12.1030766 66.7715152,11.0325497 66.7715152,9.71288503 C66.7715152,8.39322036 67.8397576,7.32269341 69.1557576,7.32269341 C70.4734545,7.32269341 71.5408485,8.39322036 71.5408485,9.71288503 Z" id="Stroke-90" stroke="#000000" stroke-width="2" mask="url(#mask-2)"></path>
                    <g id="Group-93" mask="url(#mask-2)">
                        <g transform="translate(45.818182, 112.239521)">
                            <path d="M0.36510303,0.661362874 L6.78643636,0.661362874" id="Fill-91" stroke="none" fill="#FFFFFF" fill-rule="evenodd"></path>
                            <path d="M0.36510303,0.661362874 L6.78643636,0.661362874" id="Stroke-92" stroke="#000000" stroke-width="2" fill="none"></path>
                        </g>
                    </g>
                    <g id="Group-96" mask="url(#mask-2)">
                        <g transform="translate(66.181818, 112.239521)">
                            <path d="M0.0319878788,0.661362874 L6.4541697,0.661362874" id="Fill-94" stroke="none" fill="#FFFFFF" fill-rule="evenodd"></path>
                            <path d="M0.0319878788,0.661362874 L6.4541697,0.661362874" id="Stroke-95" stroke="#000000" stroke-width="2" fill="none"></path>
                        </g>
                    </g>
                    <g id="Group-99" mask="url(#mask-2)">
                        <g transform="translate(85.696970, 112.239521)">
                            <path d="M0.548206061,0.661362874 L6.97038788,0.661362874" id="Fill-97" stroke="none" fill="#FFFFFF" fill-rule="evenodd"></path>
                            <path d="M0.548206061,0.661362874 L6.97038788,0.661362874" id="Stroke-98" stroke="#000000" stroke-width="2" fill="none"></path>
                        </g>
                    </g>
                    <polygon id="Fill-100" fill="#FFFFFF" mask="url(#mask-2)" points="76.8471879 70.6520575 61.5854909 70.6520575 61.5854909 66.8282611 69.1013697 63.9602012 76.8471879 66.8282611"></polygon>
                    <polygon id="Stroke-101" stroke="#000000" stroke-width="2" mask="url(#mask-2)" points="76.8471879 70.6520575 61.5854909 70.6520575 61.5854909 66.8282611 69.1013697 63.9602012 76.8471879 66.8282611"></polygon>
                </g>
                <path d="M139.999661,71.0001701 C139.999661,109.742362 108.659176,141.149871 69.9996606,141.149871 C31.3401455,141.149871 -0.000339393939,109.742362 -0.000339393939,71.0001701 C-0.000339393939,32.2579784 31.3401455,0.850469461 69.9996606,0.850469461 C108.659176,0.850469461 139.999661,32.2579784 139.999661,71.0001701 Z" id="Stroke-103" stroke="#EC5B30" stroke-width="2"></path>
            </g>
        </g>
    </g>
</svg>