<?xml version="1.0" encoding="UTF-8"?>
<svg width="142px" height="144px" viewBox="0 0 142 144" version="1.1" xmlns="http://www.w3.org/2000/svg" xmlns:xlink="http://www.w3.org/1999/xlink">
    <!-- Generator: sketchtool 52.5 (67469) - http://www.bohemiancoding.com/sketch -->
    <title>78E16BE3-AD2D-49BC-9301-94BC2E2958CF</title>
    <desc>Created with sketchtool.</desc>
    <defs>
        <path d="M0,70.4983234 C0,109.241365 31.3404848,140.648874 70,140.648874 C108.660364,140.648874 140,109.241365 140,70.4983234 C140,31.7561317 108.660364,0.349473054 70,0.349473054 C31.3404848,0.349473054 0,31.7561317 0,70.4983234 Z" id="path-1"></path>
    </defs>
    <g id="Page-1" stroke="none" stroke-width="1" fill="none" fill-rule="evenodd">
        <g id="Careers_page" transform="translate(-370.000000, -3099.000000)">
            <g id="Group-107" transform="translate(371.000000, 3100.000000)">
                <g id="Group-104" transform="translate(0.000000, 0.500826)">
                    <mask id="mask-2" fill="white">
                        <use xlink:href="#path-1"></use>
                    </mask>
                    <g id="Clip-2"></g>
                    <polygon id="Fill-1" fill="#FFFFFF" mask="url(#mask-2)" points="29.4704242 142 112.807758 142 112.807758 101.511293 29.4704242 101.511293"></polygon>
                    <path d="M28.6227879,142.850299 L113.656242,142.850299 L113.656242,100.660994 L28.6227879,100.660994 L28.6227879,142.850299 Z M30.3197576,141.149701 L111.959273,141.149701 L111.959273,102.361593 L30.3197576,102.361593 L30.3197576,141.149701 Z" id="Fill-3" fill="#000000" mask="url(#mask-2)"></path>
                    <polygon id="Fill-4" fill="#FFFFFF" mask="url(#mask-2)" points="35.9477576 142 106.330424 142 106.330424 101.511293 35.9477576 101.511293"></polygon>
                    <path d="M35.0992727,142.850299 L107.178909,142.850299 L107.178909,100.660994 L35.0992727,100.660994 L35.0992727,142.850299 Z M36.7962424,141.149701 L105.481939,141.149701 L105.481939,102.361593 L36.7962424,102.361593 L36.7962424,141.149701 Z" id="Fill-5" fill="#000000" mask="url(#mask-2)"></path>
                    <polygon id="Fill-6" fill="#FFFFFF" mask="url(#mask-2)" points="43.3745455 142 98.9044848 142 98.9044848 101.511293 43.3745455 101.511293"></polygon>
                    <path d="M42.5260606,142.850299 L99.7529697,142.850299 L99.7529697,100.660994 L42.5260606,100.660994 L42.5260606,142.850299 Z M44.2230303,141.149701 L98.056,141.149701 L98.056,102.361593 L44.2230303,102.361593 L44.2230303,141.149701 Z" id="Fill-7" fill="#000000" mask="url(#mask-2)"></path>
                    <polygon id="Fill-8" fill="#FFFFFF" mask="url(#mask-2)" points="26.2071515 101.838659 116.046424 101.838659 116.046424 95.5787545 26.2071515 95.5787545"></polygon>
                    <path d="M25.3586667,102.688108 L116.894909,102.688108 L116.894909,94.7284551 L25.3586667,94.7284551 L25.3586667,102.688108 Z M27.0556364,100.987509 L115.197939,100.987509 L115.197939,96.4290539 L27.0556364,96.4290539 L27.0556364,100.987509 Z" id="Fill-9" fill="#000000" mask="url(#mask-2)"></path>
                    <polygon id="Fill-10" fill="#FFFFFF" mask="url(#mask-2)" points="45.7876364 95.5353892 95.3688485 95.5353892 95.3688485 82.4756407 45.7876364 82.4756407"></polygon>
                    <path d="M44.938303,96.3856886 L96.2164848,96.3856886 L96.2164848,81.6253413 L44.938303,81.6253413 L44.938303,96.3856886 Z M46.6352727,94.6850898 L94.5195152,94.6850898 L94.5195152,83.3259401 L46.6352727,83.3259401 L46.6352727,94.6850898 Z" id="Fill-11" fill="#000000" mask="url(#mask-2)"></path>
                    <polygon id="Fill-12" fill="#FFFFFF" mask="url(#mask-2)" points="43.2141818 82.4203713 98.0390303 82.4203713 98.0390303 72.2329341 43.2141818 72.2329341"></polygon>
                    <path d="M42.365697,83.2706707 L98.8875152,83.2706707 L98.8875152,71.3826347 L42.365697,71.3826347 L42.365697,83.2706707 Z M44.0626667,81.5700719 L97.1905455,81.5700719 L97.1905455,73.0832335 L44.0626667,73.0832335 L44.0626667,81.5700719 Z" id="Fill-13" fill="#000000" mask="url(#mask-2)"></path>
                    <polygon id="Fill-14" fill="#FFFFFF" mask="url(#mask-2)" points="29.3660606 95.5353892 45.6374545 95.5353892 45.6374545 82.5768263 29.3660606 82.5768263"></polygon>
                    <path d="M28.5175758,96.3856886 L46.4859394,96.3856886 L46.4859394,81.7265269 L28.5175758,81.7265269 L28.5175758,96.3856886 Z M30.2145455,94.6850898 L44.7889697,94.6850898 L44.7889697,83.4271257 L30.2145455,83.4271257 L30.2145455,94.6850898 Z" id="Fill-15" fill="#000000" mask="url(#mask-2)"></path>
                    <polygon id="Fill-16" fill="#FFFFFF" mask="url(#mask-2)" points="32.2916364 82.4203713 42.9214545 82.4203713 42.9214545 67.1362395 32.2916364 67.1362395"></polygon>
                    <path d="M31.444,83.2706707 L43.7699394,83.2706707 L43.7699394,66.2867904 L31.444,66.2867904 L31.444,83.2706707 Z M33.1409697,81.5700719 L42.0729697,81.5700719 L42.0729697,67.9873892 L33.1409697,67.9873892 L33.1409697,81.5700719 Z" id="Fill-17" fill="#000000" mask="url(#mask-2)"></path>
                    <polygon id="Fill-18" fill="#FFFFFF" mask="url(#mask-2)" points="98.2562424 82.4203713 110.030667 82.4203713 110.030667 67.1515449 98.2562424 67.1515449"></polygon>
                    <path d="M97.4077576,83.2706707 L110.879152,83.2706707 L110.879152,66.3012455 L97.4077576,66.3012455 L97.4077576,83.2706707 Z M99.1047273,81.5700719 L109.182182,81.5700719 L109.182182,68.0018443 L99.1047273,68.0018443 L99.1047273,81.5700719 Z" id="Fill-19" fill="#000000" mask="url(#mask-2)"></path>
                    <polygon id="Fill-20" fill="#FFFFFF" mask="url(#mask-2)" points="34.3814545 58.387509 40.8333333 58.387509 40.8333333 46.425497 34.3814545 46.425497"></polygon>
                    <path d="M33.5321212,59.2378084 L41.6801212,59.2378084 L41.6801212,45.5751976 L33.5321212,45.5751976 L33.5321212,59.2378084 Z M35.2290909,57.5372096 L39.9831515,57.5372096 L39.9831515,47.2757964 L35.2290909,47.2757964 L35.2290909,57.5372096 Z" id="Fill-21" fill="#000000" mask="url(#mask-2)"></path>
                    <path d="M35.3214909,38.4054731 L35.3214909,33.2424551 L34.6325212,33.1106587 C33.0942182,32.8156048 31.9784606,31.4610778 31.9784606,29.8905749 C31.9784606,28.7690299 32.5401576,27.7376168 33.4819758,27.1313533 L37.6293697,24.4597126 L41.7402788,27.1279521 C42.6761576,27.7350659 43.2344606,28.7647784 43.2344606,29.8820719 C43.2344606,31.4610778 42.118703,32.8156048 40.5804,33.1106587 L39.8922788,33.2424551 L39.8922788,38.4054731 L35.3214909,38.4054731 Z" id="Fill-22" fill="#FFFFFF" mask="url(#mask-2)"></path>
                    <path d="M37.6308121,23.4480263 L33.0226909,26.4164216 C31.843297,27.1757389 31.1297212,28.4852 31.1297212,29.8907449 C31.1297212,31.9051042 32.5687515,33.580194 34.4727515,33.9458228 L34.4727515,39.2559425 L40.7405091,39.2559425 L40.7405091,33.9458228 C42.6436606,33.580194 44.0826909,31.9051042 44.0826909,29.8907449 L44.0826909,29.8813916 C44.0826909,28.4809485 43.375903,27.1757389 42.2024485,26.414721 L37.6308121,23.4480263 Z M37.6274182,25.4717389 L41.279297,27.8415234 C41.9725091,28.292182 42.3857212,29.0540503 42.3857212,29.8907449 C42.3857212,31.0539545 41.5601455,32.0573078 40.4214788,32.2749844 L39.0435394,32.5394275 L39.0435394,33.9458228 L39.0435394,37.5553437 L36.1697212,37.5553437 L36.1697212,33.9458228 L36.1697212,32.5394275 L34.7917818,32.2749844 C33.6531152,32.0573078 32.8266909,31.0539545 32.8266909,29.8907449 C32.8266909,29.0600024 33.243297,28.2964335 33.939903,27.8466251 L37.6274182,25.4717389 Z" id="Fill-23" fill="#000000" mask="url(#mask-2)"></path>
                    <path d="M102.230036,38.8409964 L102.230036,33.6779784 L101.541067,33.546182 C100.003612,33.2511281 98.8878545,31.8966012 98.8878545,30.3260982 C98.8878545,29.2045533 99.4495515,28.1731401 100.39137,27.5668766 L104.538764,24.8952359 L108.649673,27.5634754 C109.585552,28.1714395 110.143855,29.2003018 110.143855,30.3175952 C110.143855,31.8966012 109.028097,33.2511281 107.489794,33.546182 L106.801673,33.6779784 L106.801673,38.8409964 L102.230036,38.8409964 Z" id="Fill-24" fill="#FFFFFF" mask="url(#mask-2)"></path>
                    <path d="M104.540121,23.8835497 L99.932,26.8519449 C98.7526061,27.6121126 98.0390303,28.9207234 98.0390303,30.3262683 C98.0390303,32.3406275 99.4780606,34.0157174 101.381212,34.3813461 L101.381212,39.6914659 L107.649818,39.6914659 L107.649818,34.3813461 C109.55297,34.0157174 110.992,32.3406275 110.992,30.3262683 L110.992,30.316915 C110.992,28.9164719 110.284364,27.6112623 109.111758,26.8502443 L104.540121,23.8835497 Z M104.536727,25.9072623 L108.188606,28.2770467 C108.88097,28.7268551 109.29503,29.4895737 109.29503,30.3262683 C109.29503,31.4894778 108.469455,32.4919808 107.330788,32.7105078 L105.952848,32.9749509 L105.952848,34.3813461 L105.952848,37.9908671 L103.078182,37.9908671 L103.078182,34.3813461 L103.078182,32.9749509 L101.700242,32.7105078 C100.562424,32.4919808 99.736,31.4894778 99.736,30.3262683 C99.736,29.4955257 100.152606,28.7311066 100.849212,28.2821485 L104.536727,25.9072623 Z" id="Fill-25" fill="#000000" mask="url(#mask-2)"></path>
                    <polygon id="Fill-26" fill="#FFFFFF" mask="url(#mask-2)" points="101.290424 58.387509 107.741455 58.387509 107.741455 46.425497 101.290424 46.425497"></polygon>
                    <path d="M100.440242,59.2378084 L108.589091,59.2378084 L108.589091,45.5751976 L100.440242,45.5751976 L100.440242,59.2378084 Z M102.137212,57.5372096 L106.892121,57.5372096 L106.892121,47.2757964 L102.137212,47.2757964 L102.137212,57.5372096 Z" id="Fill-27" fill="#000000" mask="url(#mask-2)"></path>
                    <polygon id="Fill-28" fill="#FFFFFF" mask="url(#mask-2)" points="95.6488485 95.4852216 112.704242 95.4852216 112.704242 82.4756407 95.6488485 82.4756407"></polygon>
                    <path d="M94.7995152,96.335521 L113.551879,96.335521 L113.551879,81.6253413 L94.7995152,81.6253413 L94.7995152,96.335521 Z M96.4964848,94.6340719 L111.854909,94.6340719 L111.854909,83.3250898 L96.4964848,83.3250898 L96.4964848,94.6340719 Z" id="Fill-29" fill="#000000" mask="url(#mask-2)"></path>
                    <polygon id="Fill-30" fill="#FFFFFF" mask="url(#mask-2)" points="29.4704242 67.0120958 45.7418182 67.0120958 45.7418182 58.762491 29.4704242 58.762491"></polygon>
                    <path d="M28.6227879,67.8623952 L46.590303,67.8623952 L46.590303,57.9121916 L28.6227879,57.9121916 L28.6227879,67.8623952 Z M30.3197576,66.1617964 L44.8933333,66.1617964 L44.8933333,59.6127904 L30.3197576,59.6127904 L30.3197576,66.1617964 Z" id="Fill-31" fill="#000000" mask="url(#mask-2)"></path>
                    <polygon id="Fill-32" fill="#FFFFFF" mask="url(#mask-2)" points="96.432 66.8811497 112.703394 66.8811497 112.703394 58.5558683 96.432 58.5558683"></polygon>
                    <path d="M95.5835152,67.7314491 L113.551879,67.7314491 L113.551879,57.7055689 L95.5835152,57.7055689 L95.5835152,67.7314491 Z M97.2804848,66.0308503 L111.854909,66.0308503 L111.854909,59.4061677 L97.2804848,59.4061677 L97.2804848,66.0308503 Z" id="Fill-33" fill="#000000" mask="url(#mask-2)"></path>
                    <polygon id="Fill-34" fill="#FFFFFF" mask="url(#mask-2)" points="97.3203636 46.3294132 111.710667 46.3294132 111.710667 38.5058084 97.3203636 38.5058084"></polygon>
                    <path d="M96.4718788,47.1797126 L112.559152,47.1797126 L112.559152,37.655509 L96.4718788,37.655509 L96.4718788,47.1797126 Z M98.1688485,45.4782635 L110.862182,45.4782635 L110.862182,39.3552575 L98.1688485,39.3552575 L98.1688485,45.4782635 Z" id="Fill-35" fill="#000000" mask="url(#mask-2)"></path>
                    <polygon id="Fill-36" fill="#FFFFFF" mask="url(#mask-2)" points="30.4113939 46.3294132 44.801697 46.3294132 44.801697 38.5058084 30.4113939 38.5058084"></polygon>
                    <path d="M29.5629091,47.1797126 L45.6501818,47.1797126 L45.6501818,37.655509 L29.5629091,37.655509 L29.5629091,47.1797126 Z M31.2598788,45.4782635 L43.9532121,45.4782635 L43.9532121,39.3552575 L31.2598788,39.3552575 L31.2598788,45.4782635 Z" id="Fill-37" fill="#000000" mask="url(#mask-2)"></path>
                    <polygon id="Fill-38" fill="#FFFFFF" mask="url(#mask-2)" points="53.6021818 142 88.6768485 142 88.6768485 101.84291 53.6021818 101.84291"></polygon>
                    <path d="M52.753697,142.850299 L89.5253333,142.850299 L89.5253333,100.992611 L52.753697,100.992611 L52.753697,142.850299 Z M54.4506667,141.149701 L87.8283636,141.149701 L87.8283636,102.69321 L54.4506667,102.69321 L54.4506667,141.149701 Z" id="Fill-39" fill="#000000" mask="url(#mask-2)"></path>
                    <path d="M59.3972485,141.910293 L59.3972485,125.670425 C59.3972485,119.338246 62.7521576,113.361491 68.1527636,110.073383 L69.0368848,109.535144 C69.6868242,109.139754 70.4317939,108.930581 71.1911879,108.930581 C71.9582182,108.930581 72.7082788,109.143156 73.3616121,109.545347 L74.1982182,110.059778 C79.5538545,113.354689 82.8816121,119.314437 82.8816121,125.612605 L82.8816121,141.910293 L59.3972485,141.910293 Z" id="Fill-40" fill="#FFFFFF" mask="url(#mask-2)"></path>
                    <path d="M71.1915273,108.080622 C70.2921333,108.080622 69.3935879,108.322957 68.5960121,108.808478 L67.7118909,109.346717 C62.0228,112.809987 58.549103,118.999316 58.549103,125.670765 L58.549103,142.760933 L83.7295879,142.760933 L83.7295879,125.612095 C83.7295879,118.972107 80.2889818,112.809137 74.6414667,109.334813 L73.8065576,108.820382 C73.0047394,108.327208 72.0977091,108.080622 71.1915273,108.080622 M71.1915273,109.78122 C71.8015879,109.78122 72.3989212,109.95043 72.9181939,110.270143 L73.7539515,110.783723 C78.8609818,113.92558 82.0326182,119.60728 82.0326182,125.612095 L82.0326182,141.060334 L60.2460727,141.060334 L60.2460727,125.670765 C60.2460727,119.632789 63.4448606,113.934933 68.5934667,110.799879 L69.4775879,110.26164 C69.9943152,109.947029 70.5865576,109.78122 71.1915273,109.78122" id="Fill-41" fill="#000000" mask="url(#mask-2)"></path>
                    <path d="M46.3940485,136.647025 L46.3940485,134.58675 C46.3940485,133.42439 47.0100485,132.327504 48.0019273,131.723792 L48.1962303,131.6056 C48.2344121,131.581792 48.2793818,131.569037 48.3252,131.569037 C48.3718667,131.569037 48.4176848,131.581792 48.4575636,131.60645 L48.6408364,131.71954 C49.6233818,132.324103 50.2334424,133.418438 50.2334424,134.573995 L50.2334424,136.647025 L46.3940485,136.647025 Z" id="Fill-42" fill="#FFFFFF" mask="url(#mask-2)"></path>
                    <path d="M48.3255394,130.718993 C48.1286909,130.718993 47.9301455,130.771711 47.7553576,130.878849 L47.5610545,130.997041 C46.3095394,131.758909 45.545903,133.119388 45.545903,134.587005 L45.545903,137.49758 L51.0822667,137.49758 L51.0822667,134.5734 C51.0822667,133.113436 50.3254182,131.758909 49.0849333,130.99449 L48.9008121,130.8814 C48.7243273,130.772562 48.5240848,130.718993 48.3255394,130.718993 M48.3229939,132.52758 C48.9814182,132.991843 49.385297,133.762214 49.385297,134.5734 L49.385297,135.796981 L47.2428727,135.796981 L47.2428727,134.587005 C47.2428727,133.766466 47.6535394,132.990143 48.3229939,132.52758" id="Fill-43" fill="#000000" mask="url(#mask-2)"></path>
                    <path d="M46.3940485,122.843775 L46.3940485,120.783499 C46.3940485,119.62114 47.0100485,118.524254 48.0019273,117.920541 L48.1962303,117.801499 C48.2344121,117.778541 48.2793818,117.765787 48.3243515,117.765787 C48.3718667,117.765787 48.4176848,117.778541 48.4575636,117.8032 L48.6408364,117.91629 C49.6233818,118.520853 50.2334424,119.614338 50.2334424,120.770745 L50.2334424,122.843775 L46.3940485,122.843775 Z" id="Fill-44" fill="#FFFFFF" mask="url(#mask-2)"></path>
                    <path d="M48.3255394,116.915743 C48.1286909,116.915743 47.9301455,116.968461 47.7553576,117.075599 L47.5610545,117.19379 C46.3095394,117.955659 45.545903,119.316138 45.545903,120.783754 L45.545903,123.694329 L51.0822667,123.694329 L51.0822667,120.77015 C51.0822667,119.310186 50.3254182,117.955659 49.0849333,117.19124 L48.9008121,117.07815 C48.7243273,116.969311 48.5240848,116.915743 48.3255394,116.915743 M48.3229939,118.724329 C48.9814182,119.188593 49.385297,119.958964 49.385297,120.77015 L49.385297,121.993731 L47.2428727,121.993731 L47.2428727,120.783754 C47.2428727,119.963216 47.6535394,119.186892 48.3229939,118.724329" id="Fill-45" fill="#000000" mask="url(#mask-2)"></path>
                    <path d="M46.3940485,110.812123 L46.3940485,108.751848 C46.3940485,107.589489 47.0100485,106.492602 48.0019273,105.88889 L48.1962303,105.770698 C48.2344121,105.74689 48.2793818,105.734986 48.3252,105.734986 C48.3718667,105.734986 48.4168364,105.74774 48.4567152,105.771549 L48.6408364,105.885489 C49.6233818,106.490051 50.2334424,107.583537 50.2334424,108.739093 L50.2334424,110.812123 L46.3940485,110.812123 Z" id="Fill-46" fill="#FFFFFF" mask="url(#mask-2)"></path>
                    <path d="M48.3255394,104.884516 C48.1286909,104.884516 47.9301455,104.937235 47.7553576,105.044372 L47.5610545,105.162564 C46.3095394,105.924432 45.545903,107.284911 45.545903,108.751678 L45.545903,111.663103 L51.0822667,111.663103 L51.0822667,108.738923 C51.0822667,107.278959 50.3254182,105.924432 49.0849333,105.160013 L48.9008121,105.046923 C48.7243273,104.938085 48.5240848,104.884516 48.3255394,104.884516 M48.3229939,106.693103 C48.9814182,107.157366 49.385297,107.927738 49.385297,108.738923 L49.385297,109.962504 L47.2428727,109.962504 L47.2428727,108.751678 C47.2428727,107.931989 47.6526909,107.156516 48.3229939,106.693103" id="Fill-47" fill="#000000" mask="url(#mask-2)"></path>
                    <path d="M50.2354788,92.4671689 L50.2354788,88.136594 C50.2354788,86.9767856 50.925297,85.9147617 52.0817818,85.2974443 L52.3032364,85.1792527 C52.3762061,85.1401389 52.4627515,85.1188814 52.5535394,85.1188814 C52.6443273,85.1188814 52.7308727,85.1401389 52.8046909,85.1792527 L53.0142667,85.2923425 C54.1605697,85.9122108 54.845297,86.9699832 54.845297,88.1238395 L54.845297,92.4671689 L50.2354788,92.4671689 Z" id="Fill-48" fill="#FFFFFF" mask="url(#mask-2)"></path>
                    <path d="M52.5530303,84.2689222 C52.3273333,84.2689222 52.1033333,84.3216407 51.9030909,84.4287784 L51.6816364,84.5469701 C50.2570303,85.3088383 49.3873333,86.6693174 49.3873333,88.1360838 L49.3873333,93.3178084 L55.6932727,93.3178084 L55.6932727,88.1233293 C55.6932727,86.6633653 54.8320606,85.3088383 53.4176364,84.5444192 L53.2072121,84.4313293 C53.0069697,84.322491 52.7804242,84.2689222 52.5530303,84.2689222 M52.5521818,86.009485 L52.6115758,86.0409461 C53.4787273,86.5094611 53.996303,87.2883353 53.996303,88.1233293 L53.996303,91.6172096 L51.084303,91.6172096 L51.084303,88.1360838 C51.084303,87.295988 51.6061212,86.5154132 52.4800606,86.0477485 L52.5521818,86.009485" id="Fill-49" fill="#000000" mask="url(#mask-2)"></path>
                    <path d="M59.3052727,92.4671689 L59.3052727,88.136594 C59.3052727,86.9767856 59.9950909,85.9147617 61.1515758,85.2974443 L61.3730303,85.1792527 C61.446,85.1401389 61.5325455,85.1188814 61.6233333,85.1188814 C61.7141212,85.1188814 61.8006667,85.1401389 61.8744848,85.1792527 L62.0840606,85.2923425 C63.2303636,85.9122108 63.9150909,86.9699832 63.9150909,88.1238395 L63.9150909,92.4671689 L59.3052727,92.4671689 Z" id="Fill-50" fill="#FFFFFF" mask="url(#mask-2)"></path>
                    <path d="M61.6229091,84.2689222 C61.3972121,84.2689222 61.1732121,84.3216407 60.9729697,84.4287784 L60.7523636,84.5469701 C59.3269091,85.3088383 58.4572121,86.6693174 58.4572121,88.1360838 L58.4572121,93.3178084 L64.7631515,93.3178084 L64.7631515,88.1233293 C64.7631515,86.6633653 63.9019394,85.3088383 62.4875152,84.5444192 L62.2770909,84.4313293 C62.0768485,84.322491 61.850303,84.2689222 61.6229091,84.2689222 M61.6220606,86.009485 L61.6814545,86.0409461 C62.5486061,86.5094611 63.0661818,87.2883353 63.0661818,88.1233293 L63.0661818,91.6172096 L60.1541818,91.6172096 L60.1541818,88.1360838 C60.1541818,87.295988 60.676,86.5154132 61.5499394,86.0477485 L61.6220606,86.009485" id="Fill-51" fill="#000000" mask="url(#mask-2)"></path>
                    <path d="M68.3751515,92.4671689 L68.3751515,88.136594 C68.3751515,86.9767856 69.0649697,85.9147617 70.2214545,85.2974443 L70.4429091,85.1792527 C70.5158788,85.1401389 70.6024242,85.1188814 70.6932121,85.1188814 C70.7848485,85.1188814 70.8713939,85.1401389 70.9460606,85.180103 L71.1522424,85.2923425 C72.3002424,85.9122108 72.9849697,86.9699832 72.9849697,88.1238395 L72.9849697,92.4671689 L68.3751515,92.4671689 Z" id="Fill-52" fill="#FFFFFF" mask="url(#mask-2)"></path>
                    <path d="M70.692703,84.2689222 C70.4678545,84.2689222 70.2430061,84.3216407 70.0427636,84.4287784 L69.8221576,84.5469701 C68.396703,85.3088383 67.5270061,86.6693174 67.5270061,88.1360838 L67.5270061,93.3178084 L73.8329455,93.3178084 L73.8329455,88.1233293 C73.8329455,86.6633653 72.9717333,85.3088383 71.5573091,84.5444192 L71.3468848,84.4313293 C71.1466424,84.322491 70.920097,84.2689222 70.692703,84.2689222 M70.692703,86.009485 L70.752097,86.0409461 C71.6192485,86.5094611 72.1359758,87.2883353 72.1359758,88.1233293 L72.1359758,91.6172096 L69.2239758,91.6172096 L69.2239758,88.1360838 C69.2239758,87.295988 69.7457939,86.5154132 70.6197333,86.0477485 L70.692703,86.009485" id="Fill-53" fill="#000000" mask="url(#mask-2)"></path>
                    <path d="M77.4449455,92.4671689 L77.4449455,88.136594 C77.4449455,86.9767856 78.1347636,85.9147617 79.2912485,85.2974443 L79.512703,85.1792527 C79.5856727,85.1401389 79.6722182,85.1188814 79.7630061,85.1188814 C79.8546424,85.1188814 79.9411879,85.1401389 80.0158545,85.180103 L80.2220364,85.2923425 C81.3700364,85.9122108 82.0547636,86.9699832 82.0547636,88.1238395 L82.0547636,92.4671689 L77.4449455,92.4671689 Z" id="Fill-54" fill="#FFFFFF" mask="url(#mask-2)"></path>
                    <path d="M79.7625818,84.2689222 C79.5377333,84.2689222 79.3128848,84.3216407 79.1126424,84.4287784 L78.8920364,84.5469701 C77.4665818,85.3088383 76.5968848,86.6693174 76.5968848,88.1360838 L76.5968848,93.3178084 L82.9028242,93.3178084 L82.9028242,88.1233293 C82.9028242,86.6633653 82.0416121,85.3088383 80.6271879,84.5444192 L80.4176121,84.4313293 C80.2165212,84.322491 79.9899758,84.2689222 79.7625818,84.2689222 M79.7625818,86.009485 L79.8219758,86.0409461 C80.6891273,86.5094611 81.2058545,87.2883353 81.2058545,88.1233293 L81.2058545,91.6172096 L78.2938545,91.6172096 L78.2938545,88.1360838 C78.2938545,87.295988 78.8156727,86.5154132 79.6904606,86.0477485 L79.7625818,86.009485" id="Fill-55" fill="#000000" mask="url(#mask-2)"></path>
                    <path d="M86.5148242,92.4671689 L86.5148242,88.136594 C86.5148242,86.9767856 87.2046424,85.9147617 88.3611273,85.2974443 L88.5825818,85.1792527 C88.6555515,85.1401389 88.742097,85.1188814 88.8328848,85.1188814 C88.9245212,85.1188814 89.0110667,85.1401389 89.0857333,85.180103 L89.2919152,85.2923425 C90.4399152,85.9122108 91.1246424,86.9699832 91.1246424,88.1238395 L91.1246424,92.4671689 L86.5148242,92.4671689 Z" id="Fill-56" fill="#FFFFFF" mask="url(#mask-2)"></path>
                    <path d="M88.8323758,84.2689222 C88.6075273,84.2689222 88.3826788,84.3216407 88.1824364,84.4287784 L87.9618303,84.5469701 C86.5363758,85.3088383 85.6675273,86.6693174 85.6675273,88.1360838 L85.6675273,93.3178084 L91.9726182,93.3178084 L91.9726182,88.1233293 C91.9726182,86.6633653 91.1114061,85.3088383 89.6969818,84.5444192 L89.4874061,84.4313293 C89.2863152,84.322491 89.0597697,84.2689222 88.8323758,84.2689222 M88.8323758,86.009485 L88.8917697,86.0409461 C89.7589212,86.5094611 90.2756485,87.2883353 90.2756485,88.1233293 L90.2756485,91.6172096 L87.364497,91.6172096 L87.364497,88.1360838 C87.364497,87.295988 87.8863152,86.5154132 88.7594061,86.0477485 L88.8323758,86.009485" id="Fill-57" fill="#000000" mask="url(#mask-2)"></path>
                    <path d="M91.9404606,136.647025 L91.9404606,134.58675 C91.9404606,133.42439 92.5564606,132.327504 93.5483394,131.723792 L93.7426424,131.6056 C93.7808242,131.581792 93.8257939,131.569037 93.8716121,131.569037 C93.9182788,131.569037 93.964097,131.581792 94.0039758,131.60645 L94.1855515,131.71869 C95.1697939,132.324103 95.7798545,133.417588 95.7798545,134.573995 L95.7798545,136.647025 L91.9404606,136.647025 Z" id="Fill-58" fill="#FFFFFF" mask="url(#mask-2)"></path>
                    <path d="M93.8719515,130.718993 C93.675103,130.718993 93.4765576,130.771711 93.3009212,130.878849 L93.1074667,130.997041 C91.8559515,131.758909 91.0923152,133.119388 91.0923152,134.587005 L91.0923152,137.49758 L96.6286788,137.49758 L96.6286788,134.5734 C96.6286788,133.113436 95.8718303,131.758909 94.630497,130.99449 L94.4472242,130.8814 C94.2707394,130.772562 94.070497,130.718993 93.8719515,130.718993 M93.8694061,132.52758 C94.5278303,132.991843 94.9317091,133.762214 94.9317091,134.5734 L94.9317091,135.796981 L92.7892848,135.796981 L92.7892848,134.587005 C92.7892848,133.766466 93.199103,132.990993 93.8694061,132.52758" id="Fill-59" fill="#000000" mask="url(#mask-2)"></path>
                    <path d="M91.9404606,122.843775 L91.9404606,120.783499 C91.9404606,119.62114 92.5564606,118.524254 93.5483394,117.920541 L93.7426424,117.801499 C93.7808242,117.778541 93.8257939,117.765787 93.8707636,117.765787 C93.9182788,117.765787 93.964097,117.778541 94.0039758,117.8032 L94.1855515,117.91544 C95.1697939,118.520853 95.7798545,119.614338 95.7798545,120.770745 L95.7798545,122.843775 L91.9404606,122.843775 Z" id="Fill-60" fill="#FFFFFF" mask="url(#mask-2)"></path>
                    <path d="M93.8719515,116.915743 C93.6742545,116.915743 93.4765576,116.968461 93.3009212,117.075599 L93.1074667,117.19379 C91.8559515,117.955659 91.0923152,119.316138 91.0923152,120.783754 L91.0923152,123.694329 L96.6286788,123.694329 L96.6286788,120.77015 C96.6286788,119.310186 95.8718303,117.955659 94.630497,117.19124 L94.4472242,117.07815 C94.2707394,116.969311 94.070497,116.915743 93.8719515,116.915743 M93.8694061,118.724329 C94.5278303,119.188593 94.9317091,119.958964 94.9317091,120.77015 L94.9317091,121.993731 L92.7892848,121.993731 L92.7892848,120.783754 C92.7892848,119.963216 93.199103,119.186892 93.8694061,118.724329" id="Fill-61" fill="#000000" mask="url(#mask-2)"></path>
                    <path d="M91.9404606,110.812123 L91.9404606,108.751848 C91.9404606,107.589489 92.5564606,106.492602 93.5483394,105.88889 L93.7426424,105.770698 C93.7808242,105.74689 93.8257939,105.734986 93.8716121,105.734986 C93.9182788,105.734986 93.9632485,105.74774 94.0031273,105.771549 L94.1855515,105.884638 C95.1697939,106.490051 95.7798545,107.583537 95.7798545,108.739093 L95.7798545,110.812123 L91.9404606,110.812123 Z" id="Fill-62" fill="#FFFFFF" mask="url(#mask-2)"></path>
                    <path d="M93.8719515,104.884516 C93.6742545,104.884516 93.4765576,104.937235 93.3009212,105.044372 L93.1074667,105.162564 C91.8559515,105.924432 91.0923152,107.284911 91.0923152,108.751678 L91.0923152,111.663103 L96.6286788,111.663103 L96.6286788,108.738923 C96.6286788,107.278959 95.8718303,105.924432 94.630497,105.160013 L94.4472242,105.046923 C94.2707394,104.938085 94.070497,104.884516 93.8719515,104.884516 M93.8694061,106.693103 C94.5278303,107.157366 94.9317091,107.927738 94.9317091,108.738923 L94.9317091,109.962504 L92.7892848,109.962504 L92.7892848,108.751678 C92.7892848,107.93284 93.199103,107.156516 93.8694061,106.693103" id="Fill-63" fill="#000000" mask="url(#mask-2)"></path>
                    <path d="M83.0322182,109.499261 C82.1175515,109.499261 81.3734303,108.753549 81.3734303,107.836926 C81.3734303,106.920303 82.1175515,106.17459 83.0322182,106.17459 C83.9468848,106.17459 84.6910061,106.920303 84.6910061,107.836926 C84.6910061,108.753549 83.9468848,109.499261 83.0322182,109.499261" id="Fill-64" fill="#FFFFFF" mask="url(#mask-2)"></path>
                    <path d="M83.0322182,105.324631 C81.6474909,105.324631 80.5249455,106.449577 80.5249455,107.837266 C80.5249455,109.224954 81.6474909,110.349901 83.0322182,110.349901 C84.4169455,110.349901 85.5394909,109.224954 85.5394909,107.837266 C85.5394909,106.449577 84.4169455,105.324631 83.0322182,105.324631 M83.0322182,107.02523 C83.4785212,107.02523 83.8425212,107.389158 83.8425212,107.837266 C83.8425212,108.284523 83.4785212,108.649302 83.0322182,108.649302 C82.5850667,108.649302 82.2219152,108.284523 82.2219152,107.837266 C82.2219152,107.389158 82.5850667,107.02523 83.0322182,107.02523" id="Fill-65" fill="#000000" mask="url(#mask-2)"></path>
                    <path d="M59.5761939,109.499261 C58.6623758,109.499261 57.9182545,108.753549 57.9182545,107.836926 C57.9182545,106.920303 58.6623758,106.17459 59.5761939,106.17459 C60.4908606,106.17459 61.2349818,106.920303 61.2349818,107.836926 C61.2349818,108.753549 60.4908606,109.499261 59.5761939,109.499261" id="Fill-66" fill="#FFFFFF" mask="url(#mask-2)"></path>
                    <path d="M59.5761939,105.324631 C58.1914667,105.324631 57.0689212,106.449577 57.0689212,107.837266 C57.0689212,109.224954 58.1914667,110.349901 59.5761939,110.349901 C60.9617697,110.349901 62.0834667,109.224954 62.0834667,107.837266 C62.0834667,106.449577 60.9617697,105.324631 59.5761939,105.324631 M59.5761939,107.02523 C60.0233455,107.02523 60.386497,107.389158 60.386497,107.837266 C60.386497,108.284523 60.0233455,108.649302 59.5761939,108.649302 C59.1298909,108.649302 58.7658909,108.284523 58.7658909,107.837266 C58.7658909,107.389158 59.1298909,107.02523 59.5761939,107.02523" id="Fill-67" fill="#000000" mask="url(#mask-2)"></path>
                    <g id="Group-70" mask="url(#mask-2)">
                        <g transform="translate(36.484848, 18.706587)">
                            <path d="M1.12195152,0.465879042 L1.12195152,5.28197485" id="Fill-68" stroke="none" fill="#FFFFFF" fill-rule="evenodd"></path>
                            <path d="M1.12195152,0.465879042 L1.12195152,5.28197485" id="Stroke-69" stroke="#000000" stroke-width="2" fill="none" stroke-linecap="round"></path>
                        </g>
                    </g>
                    <g id="Group-73" mask="url(#mask-2)">
                        <g transform="translate(103.515152, 18.706587)">
                            <path d="M1.00010909,0.570891018 L1.00010909,5.38613653" id="Fill-71" stroke="none" fill="#FFFFFF" fill-rule="evenodd"></path>
                            <path d="M1.00010909,0.570891018 L1.00010909,5.38613653" id="Stroke-72" stroke="#000000" stroke-width="2" fill="none" stroke-linecap="round"></path>
                        </g>
                    </g>
                    <g id="Group-76" mask="url(#mask-2)">
                        <g transform="translate(33.939394, 32.311377)">
                            <path d="M0.533612121,0.773517365 L6.8013697,0.773517365" id="Fill-74" stroke="none" fill="#FFFFFF" fill-rule="evenodd"></path>
                            <path d="M0.533612121,0.773517365 L6.8013697,0.773517365" id="Stroke-75" stroke="#000000" stroke-width="2" fill="none" stroke-linecap="round"></path>
                        </g>
                    </g>
                    <polygon id="Fill-77" fill="#FFFFFF" mask="url(#mask-2)" points="53.9924848 71.9047186 58.9612121 71.9047186 58.9612121 62.4919042 53.9924848 62.4919042"></polygon>
                    <path d="M53.1431515,72.755018 L59.809697,72.755018 L59.809697,61.6416048 L53.1431515,61.6416048 L53.1431515,72.755018 Z M54.8401212,71.0535689 L58.1127273,71.0535689 L58.1127273,63.3413533 L54.8401212,63.3413533 L54.8401212,71.0535689 Z" id="Fill-78" fill="#000000" mask="url(#mask-2)"></path>
                    <path d="M54.7612121,55.9378814 L54.7612121,51.7399533 L54.0722424,51.6081569 C52.8869091,51.3811269 52.025697,50.3369593 52.025697,49.1261329 C52.025697,48.2613784 52.4592727,47.4654982 53.1855758,46.9978335 L56.4955152,44.8661329 L59.7749091,46.9952826 C60.4969697,47.4629473 60.928,48.2562766 60.928,49.1176299 C60.928,50.3369593 60.0667879,51.3811269 58.8806061,51.6081569 L58.1924848,51.7399533 L58.1924848,55.9378814 L54.7612121,55.9378814 Z" id="Fill-79" fill="#FFFFFF" mask="url(#mask-2)"></path>
                    <path d="M56.4971273,43.8543617 L52.7273091,46.2828168 C51.7608848,46.9043856 51.1771273,47.9757629 51.1771273,49.126218 C51.1771273,50.7732479 52.3548242,52.1447808 53.9126424,52.4432359 L53.9126424,56.7874156 L59.0408848,56.7874156 L59.0408848,52.4432359 C60.598703,52.1447808 61.7764,50.7732479 61.7764,49.126218 L61.7764,49.1185653 C61.7764,47.9723617 61.1968848,46.9043856 60.2364,46.2811162 L56.4971273,43.8543617 Z M56.4937333,45.8780743 L59.314097,47.7087689 C59.7934909,48.0199784 60.0794303,48.5463138 60.0794303,49.126218 C60.0794303,49.9297509 59.5084,50.6218946 58.7218545,50.7723976 L57.3439152,51.0368407 L57.3439152,52.4432359 L57.3439152,55.0868168 L55.6096121,55.0868168 L55.6096121,52.4432359 L55.6096121,51.0368407 L54.2316727,50.7723976 C53.4451273,50.6218946 52.874097,49.9297509 52.874097,49.126218 C52.874097,48.5514156 53.1617333,48.0242299 53.6445212,47.7138707 L56.4937333,45.8780743 Z" id="Fill-80" fill="#000000" mask="url(#mask-2)"></path>
                    <polygon id="Fill-81" fill="#FFFFFF" mask="url(#mask-2)" points="50.7444848 62.0148862 62.2100606 62.0148862 62.2100606 56.2728144 50.7444848 56.2728144"></polygon>
                    <path d="M49.8951515,62.8643353 L63.057697,62.8643353 L63.057697,55.422515 L49.8951515,55.422515 L49.8951515,62.8643353 Z M51.5921212,61.1637365 L61.3607273,61.1637365 L61.3607273,57.1231138 L51.5921212,57.1231138 L51.5921212,61.1637365 Z" id="Fill-82" fill="#000000" mask="url(#mask-2)"></path>
                    <g id="Group-85" mask="url(#mask-2)">
                        <g transform="translate(56.000000, 39.964072)">
                            <path d="M0.476424242,0.471235928 L0.476424242,4.41152335" id="Fill-83" stroke="none" fill="#FFFFFF" fill-rule="evenodd"></path>
                            <path d="M0.476424242,0.471235928 L0.476424242,4.41152335" id="Stroke-84" stroke="#000000" stroke-width="2" fill="none" stroke-linecap="round"></path>
                        </g>
                    </g>
                    <g id="Group-88" mask="url(#mask-2)">
                        <g transform="translate(53.454545, 51.017964)">
                            <path d="M0.458181818,0.550568862 L5.58642424,0.550568862" id="Fill-86" stroke="none" fill="#FFFFFF" fill-rule="evenodd"></path>
                            <path d="M0.458181818,0.550568862 L5.58642424,0.550568862" id="Stroke-87" stroke="#000000" stroke-width="2" fill="none" stroke-linecap="round"></path>
                        </g>
                    </g>
                    <polygon id="Fill-89" fill="#FFFFFF" mask="url(#mask-2)" points="83.1252121 71.9047186 88.0947879 71.9047186 88.0947879 62.4919042 83.1252121 62.4919042"></polygon>
                    <path d="M82.2767273,72.755018 L88.9432727,72.755018 L88.9432727,61.6416048 L82.2767273,61.6416048 L82.2767273,72.755018 Z M83.973697,71.0535689 L87.246303,71.0535689 L87.246303,63.3413533 L83.973697,63.3413533 L83.973697,71.0535689 Z" id="Fill-90" fill="#000000" mask="url(#mask-2)"></path>
                    <path d="M83.8939394,55.9378814 L83.8939394,51.7399533 L83.2049697,51.6081569 C82.0196364,51.3802766 81.1584242,50.3369593 81.1584242,49.1261329 C81.1584242,48.2613784 81.592,47.4663485 82.3191515,46.9978335 L85.6282424,44.8661329 L88.9084848,46.9952826 C89.6305455,47.4629473 90.0607273,48.2571269 90.0607273,49.1176299 C90.0607273,50.3369593 89.1995152,51.3811269 88.0133333,51.6081569 L87.3252121,51.7399533 L87.3252121,55.9378814 L83.8939394,55.9378814 Z" id="Fill-91" fill="#FFFFFF" mask="url(#mask-2)"></path>
                    <path d="M85.6298545,43.8543617 L81.8600364,46.2828168 C80.8944606,46.9043856 80.310703,47.9757629 80.310703,49.126218 C80.310703,50.7732479 81.4875515,52.1447808 83.0453697,52.4432359 L83.0453697,56.7874156 L88.1736121,56.7874156 L88.1736121,52.4432359 C89.7314303,52.1447808 90.9091273,50.7732479 90.9091273,49.126218 L90.9091273,49.1185653 C90.9091273,47.9723617 90.3296121,46.9043856 89.3691273,46.2811162 L85.6298545,43.8543617 Z M85.6264606,45.8780743 L88.4468242,47.7087689 C88.9262182,48.0199784 89.2121576,48.5463138 89.2121576,49.126218 C89.2121576,49.9297509 88.6419758,50.6218946 87.8545818,50.7723976 L86.4766424,51.0368407 L86.4766424,52.4432359 L86.4766424,55.0868168 L84.7423394,55.0868168 L84.7423394,52.4432359 L84.7423394,51.0368407 L83.3644,50.7723976 C82.5778545,50.6218946 82.0076727,49.9297509 82.0076727,49.126218 C82.0076727,48.5514156 82.2953091,48.0233796 82.7772485,47.7138707 L85.6264606,45.8780743 Z" id="Fill-92" fill="#000000" mask="url(#mask-2)"></path>
                    <polygon id="Fill-93" fill="#FFFFFF" mask="url(#mask-2)" points="79.8772121 62.3694611 91.3427879 62.3694611 91.3427879 56.0491856 79.8772121 56.0491856"></polygon>
                    <path d="M79.0278788,63.2197605 L92.1912727,63.2197605 L92.1912727,55.1988862 L79.0278788,55.1988862 L79.0278788,63.2197605 Z M80.7248485,61.5191617 L90.494303,61.5191617 L90.494303,56.899485 L80.7248485,56.899485 L80.7248485,61.5191617 Z" id="Fill-94" fill="#000000" mask="url(#mask-2)"></path>
                    <g id="Group-97" mask="url(#mask-2)">
                        <g transform="translate(84.848485, 39.964072)">
                            <path d="M0.761515152,0.471235928 L0.761515152,4.41152335" id="Fill-95" stroke="none" fill="#FFFFFF" fill-rule="evenodd"></path>
                            <path d="M0.761515152,0.471235928 L0.761515152,4.41152335" id="Stroke-96" stroke="#000000" stroke-width="2" fill="none" stroke-linecap="round"></path>
                        </g>
                    </g>
                    <g id="Group-100" mask="url(#mask-2)">
                        <g transform="translate(82.303030, 51.017964)">
                            <path d="M0.742424242,0.550568862 L5.87066667,0.550568862" id="Fill-98" stroke="none" fill="#FFFFFF" fill-rule="evenodd"></path>
                            <path d="M0.742424242,0.550568862 L5.87066667,0.550568862" id="Stroke-99" stroke="#000000" stroke-width="2" fill="none" stroke-linecap="round"></path>
                        </g>
                    </g>
                    <g id="Group-103" mask="url(#mask-2)">
                        <g transform="translate(100.969697, 32.311377)">
                            <path d="M0.411854545,1.20904072 L6.68046061,1.20904072" id="Fill-101" stroke="none" fill="#FFFFFF" fill-rule="evenodd"></path>
                            <path d="M0.411854545,1.20904072 L6.68046061,1.20904072" id="Stroke-102" stroke="#000000" stroke-width="2" fill="none" stroke-linecap="round"></path>
                        </g>
                    </g>
                </g>
                <path d="M140,70.9996599 C140,109.741851 108.659515,141.14936 70,141.14936 C31.3404848,141.14936 0,109.741851 0,70.9996599 C0,32.2574683 31.3404848,0.849959281 70,0.849959281 C108.659515,0.849959281 140,32.2574683 140,70.9996599 Z" id="Stroke-105" stroke="#2D80F4" stroke-width="2"></path>
            </g>
        </g>
    </g>
</svg>