<?xml version="1.0" encoding="UTF-8"?>
<svg width="142px" height="143px" viewBox="0 0 142 143" version="1.1" xmlns="http://www.w3.org/2000/svg" xmlns:xlink="http://www.w3.org/1999/xlink">
    <!-- Generator: sketchtool 52.5 (67469) - http://www.bohemiancoding.com/sketch -->
    <title>612CB31C-329A-460E-8AF6-2164B9DAB2A8</title>
    <desc>Created with sketchtool.</desc>
    <defs>
        <path d="M0,70.8843593 C0,109.627401 31.3404848,141.03406 70,141.03406 C108.660364,141.03406 140,109.627401 140,70.8843593 C140,32.1421677 108.660364,0.734658683 70,0.734658683 C31.3404848,0.734658683 0,32.1421677 0,70.8843593 Z" id="path-1"></path>
    </defs>
    <g id="Page-1" stroke="none" stroke-width="1" fill="none" fill-rule="evenodd">
        <g id="Careers_page" transform="translate(-751.000000, -3351.000000)">
            <g id="Group-67" transform="translate(752.000000, 3351.000000)">
                <g id="Group-64" transform="translate(2.000000, 0.115641)">
                    <mask id="mask-2" fill="white">
                        <use xlink:href="#path-1"></use>
                    </mask>
                    <g id="Clip-2"></g>
                    <polygon id="Fill-1" fill="#FFFFFF" mask="url(#mask-2)" points="53.8855758 69.8571976 85.8522424 69.8571976 85.8522424 55.9071856 53.8855758 55.9071856"></polygon>
                    <polygon id="Stroke-3" stroke="#000000" stroke-width="2" mask="url(#mask-2)" points="53.8855758 69.8571976 85.8522424 69.8571976 85.8522424 55.9071856 53.8855758 55.9071856"></polygon>
                    <polygon id="Fill-4" fill="#FFFFFF" mask="url(#mask-2)" points="51.9230303 102.257006 87.8716364 102.257006 87.8716364 69.8571976 51.9230303 69.8571976"></polygon>
                    <polygon id="Stroke-5" stroke="#000000" stroke-width="2" mask="url(#mask-2)" points="51.9230303 102.257006 87.8716364 102.257006 87.8716364 69.8571976 51.9230303 69.8571976"></polygon>
                    <polygon id="Fill-6" fill="#FFFFFF" mask="url(#mask-2)" points="54.2733333 165.808383 85.9803636 165.808383 85.9803636 102.257856 54.2733333 102.257856"></polygon>
                    <polygon id="Stroke-7" stroke="#000000" stroke-width="2" mask="url(#mask-2)" points="54.2733333 165.808383 85.9803636 165.808383 85.9803636 102.257856 54.2733333 102.257856"></polygon>
                    <polygon id="Fill-8" fill="#FFFFFF" mask="url(#mask-2)" points="62.9054788 39.1879186 62.9054788 29.2615234 76.6085091 29.2615234 76.7306909 39.1879186"></polygon>
                    <path d="M77.4465576,28.411394 L62.0567394,28.411394 L62.0567394,40.038388 L77.5899515,40.038388 L77.4465576,28.411394 Z M75.7699515,30.1119928 L75.8726182,38.3377892 L63.7537091,38.3377892 L63.7537091,30.1119928 L75.7699515,30.1119928 Z" id="Fill-9" fill="#000000" mask="url(#mask-2)"></path>
                    <path d="M58.7110788,59.4842251 C57.7785939,59.4842251 57.020897,60.2426922 57.020897,61.1780216 L57.020897,66.2942731 L60.4012606,66.2942731 L60.4012606,61.1780216 C60.4012606,60.2426922 59.6452606,59.4842251 58.7110788,59.4842251" id="Fill-10" fill="#FFFFFF" mask="url(#mask-2)"></path>
                    <path d="M58.7110788,59.4842251 C57.7785939,59.4842251 57.020897,60.2426922 57.020897,61.1780216 L57.020897,66.2942731 L60.4012606,66.2942731 L60.4012606,61.1780216 C60.4012606,60.2426922 59.6452606,59.4842251 58.7110788,59.4842251 Z" id="Stroke-11" stroke="#000000" stroke-width="2" mask="url(#mask-2)"></path>
                    <path d="M66.0582788,59.4842251 C65.1257939,59.4842251 64.368097,60.2426922 64.368097,61.1780216 L64.368097,66.2942731 L67.7484606,66.2942731 L67.7484606,61.1780216 C67.7484606,60.2426922 66.9916121,59.4842251 66.0582788,59.4842251" id="Fill-12" fill="#FFFFFF" mask="url(#mask-2)"></path>
                    <path d="M66.0582788,59.4842251 C65.1257939,59.4842251 64.368097,60.2426922 64.368097,61.1780216 L64.368097,66.2942731 L67.7484606,66.2942731 L67.7484606,61.1780216 C67.7484606,60.2426922 66.9916121,59.4842251 66.0582788,59.4842251 Z" id="Stroke-13" stroke="#000000" stroke-width="2" mask="url(#mask-2)"></path>
                    <path d="M73.4046303,59.4842251 C72.4729939,59.4842251 71.715297,60.2426922 71.715297,61.1780216 L71.715297,66.2942731 L75.0948121,66.2942731 L75.0948121,61.1780216 C75.0948121,60.2426922 74.3388121,59.4842251 73.4046303,59.4842251" id="Fill-14" fill="#FFFFFF" mask="url(#mask-2)"></path>
                    <path d="M73.4046303,59.4842251 C72.4729939,59.4842251 71.715297,60.2426922 71.715297,61.1780216 L71.715297,66.2942731 L75.0948121,66.2942731 L75.0948121,61.1780216 C75.0948121,60.2426922 74.3388121,59.4842251 73.4046303,59.4842251 Z" id="Stroke-15" stroke="#000000" stroke-width="2" mask="url(#mask-2)"></path>
                    <path d="M80.7518303,59.4842251 C79.8193455,59.4842251 79.0616485,60.2426922 79.0616485,61.1780216 L79.0616485,66.2942731 L82.4420121,66.2942731 L82.4420121,61.1780216 C82.4420121,60.2426922 81.6860121,59.4842251 80.7518303,59.4842251" id="Fill-16" fill="#FFFFFF" mask="url(#mask-2)"></path>
                    <path d="M80.7518303,59.4842251 C79.8193455,59.4842251 79.0616485,60.2426922 79.0616485,61.1780216 L79.0616485,66.2942731 L82.4420121,66.2942731 L82.4420121,61.1780216 C82.4420121,60.2426922 81.6860121,59.4842251 80.7518303,59.4842251 Z" id="Stroke-17" stroke="#000000" stroke-width="2" mask="url(#mask-2)"></path>
                    <path d="M59.0980727,106.297204 C58.1655879,106.297204 57.4078909,107.055671 57.4078909,107.991 L57.4078909,116.982066 L60.7882545,116.982066 L60.7882545,107.991 C60.7882545,107.055671 60.0314061,106.297204 59.0980727,106.297204" id="Fill-18" fill="#FFFFFF" mask="url(#mask-2)"></path>
                    <path d="M59.0980727,106.297204 C58.1655879,106.297204 57.4078909,107.055671 57.4078909,107.991 L57.4078909,116.982066 L60.7882545,116.982066 L60.7882545,107.991 C60.7882545,107.055671 60.0314061,106.297204 59.0980727,106.297204 Z" id="Stroke-19" stroke="#000000" stroke-width="2" mask="url(#mask-2)"></path>
                    <path d="M66.4444242,106.297204 C65.5127879,106.297204 64.7550909,107.055671 64.7550909,107.991 L64.7550909,116.982066 L68.1346061,116.982066 L68.1346061,107.991 C68.1346061,107.055671 67.3786061,106.297204 66.4444242,106.297204" id="Fill-20" fill="#FFFFFF" mask="url(#mask-2)"></path>
                    <path d="M66.4444242,106.297204 C65.5127879,106.297204 64.7550909,107.055671 64.7550909,107.991 L64.7550909,116.982066 L68.1346061,116.982066 L68.1346061,107.991 C68.1346061,107.055671 67.3786061,106.297204 66.4444242,106.297204 Z" id="Stroke-21" stroke="#000000" stroke-width="2" mask="url(#mask-2)"></path>
                    <path d="M73.7915394,106.297204 C72.8590545,106.297204 72.1013576,107.055671 72.1013576,107.991 L72.1013576,116.982066 L75.4817212,116.982066 L75.4817212,107.991 C75.4817212,107.055671 74.7257212,106.297204 73.7915394,106.297204" id="Fill-22" fill="#FFFFFF" mask="url(#mask-2)"></path>
                    <path d="M73.7915394,106.297204 C72.8590545,106.297204 72.1013576,107.055671 72.1013576,107.991 L72.1013576,116.982066 L75.4817212,116.982066 L75.4817212,107.991 C75.4817212,107.055671 74.7257212,106.297204 73.7915394,106.297204 Z" id="Stroke-23" stroke="#000000" stroke-width="2" mask="url(#mask-2)"></path>
                    <path d="M81.1387394,106.297204 C80.2062545,106.297204 79.4485576,107.055671 79.4485576,107.991 L79.4485576,116.982066 L82.8289212,116.982066 L82.8289212,107.991 C82.8289212,107.055671 82.0720727,106.297204 81.1387394,106.297204" id="Fill-24" fill="#FFFFFF" mask="url(#mask-2)"></path>
                    <path d="M81.1387394,106.297204 C80.2062545,106.297204 79.4485576,107.055671 79.4485576,107.991 L79.4485576,116.982066 L82.8289212,116.982066 L82.8289212,107.991 C82.8289212,107.055671 82.0720727,106.297204 81.1387394,106.297204 Z" id="Stroke-25" stroke="#000000" stroke-width="2" mask="url(#mask-2)"></path>
                    <path d="M59.0980727,121.797737 C58.1655879,121.797737 57.4078909,122.556204 57.4078909,123.491533 L57.4078909,132.482599 L60.7882545,132.482599 L60.7882545,123.491533 C60.7882545,122.556204 60.0314061,121.797737 59.0980727,121.797737" id="Fill-26" fill="#FFFFFF" mask="url(#mask-2)"></path>
                    <path d="M59.0980727,121.797737 C58.1655879,121.797737 57.4078909,122.556204 57.4078909,123.491533 L57.4078909,132.482599 L60.7882545,132.482599 L60.7882545,123.491533 C60.7882545,122.556204 60.0314061,121.797737 59.0980727,121.797737 Z" id="Stroke-27" stroke="#000000" stroke-width="2" mask="url(#mask-2)"></path>
                    <path d="M66.4444242,121.797737 C65.5127879,121.797737 64.7550909,122.556204 64.7550909,123.491533 L64.7550909,132.482599 L68.1346061,132.482599 L68.1346061,123.491533 C68.1346061,122.556204 67.3786061,121.797737 66.4444242,121.797737" id="Fill-28" fill="#FFFFFF" mask="url(#mask-2)"></path>
                    <path d="M66.4444242,121.797737 C65.5127879,121.797737 64.7550909,122.556204 64.7550909,123.491533 L64.7550909,132.482599 L68.1346061,132.482599 L68.1346061,123.491533 C68.1346061,122.556204 67.3786061,121.797737 66.4444242,121.797737 Z" id="Stroke-29" stroke="#000000" stroke-width="2" mask="url(#mask-2)"></path>
                    <path d="M73.7915394,121.797737 C72.8590545,121.797737 72.1013576,122.556204 72.1013576,123.491533 L72.1013576,132.482599 L75.4817212,132.482599 L75.4817212,123.491533 C75.4817212,122.556204 74.7257212,121.797737 73.7915394,121.797737" id="Fill-30" fill="#FFFFFF" mask="url(#mask-2)"></path>
                    <path d="M73.7915394,121.797737 C72.8590545,121.797737 72.1013576,122.556204 72.1013576,123.491533 L72.1013576,132.482599 L75.4817212,132.482599 L75.4817212,123.491533 C75.4817212,122.556204 74.7257212,121.797737 73.7915394,121.797737 Z" id="Stroke-31" stroke="#000000" stroke-width="2" mask="url(#mask-2)"></path>
                    <path d="M81.1387394,121.797737 C80.2062545,121.797737 79.4485576,122.556204 79.4485576,123.491533 L79.4485576,132.482599 L82.8289212,132.482599 L82.8289212,123.491533 C82.8289212,122.556204 82.0720727,121.797737 81.1387394,121.797737" id="Fill-32" fill="#FFFFFF" mask="url(#mask-2)"></path>
                    <path d="M81.1387394,121.797737 C80.2062545,121.797737 79.4485576,122.556204 79.4485576,123.491533 L79.4485576,132.482599 L82.8289212,132.482599 L82.8289212,123.491533 C82.8289212,122.556204 82.0720727,121.797737 81.1387394,121.797737 Z" id="Stroke-33" stroke="#000000" stroke-width="2" mask="url(#mask-2)"></path>
                    <path d="M59.0980727,138.073062 C58.1655879,138.073062 57.4078909,138.831529 57.4078909,139.766859 L57.4078909,148.757925 L60.7882545,148.757925 L60.7882545,139.766859 C60.7882545,138.831529 60.0314061,138.073062 59.0980727,138.073062" id="Fill-34" fill="#FFFFFF" mask="url(#mask-2)"></path>
                    <path d="M59.0980727,138.073062 C58.1655879,138.073062 57.4078909,138.831529 57.4078909,139.766859 L57.4078909,148.757925 L60.7882545,148.757925 L60.7882545,139.766859 C60.7882545,138.831529 60.0314061,138.073062 59.0980727,138.073062 Z" id="Stroke-35" stroke="#000000" stroke-width="2" mask="url(#mask-2)"></path>
                    <path d="M66.4444242,138.073062 C65.5127879,138.073062 64.7550909,138.831529 64.7550909,139.766859 L64.7550909,148.757925 L68.1346061,148.757925 L68.1346061,139.766859 C68.1346061,138.831529 67.3786061,138.073062 66.4444242,138.073062" id="Fill-36" fill="#FFFFFF" mask="url(#mask-2)"></path>
                    <path d="M66.4444242,138.073062 C65.5127879,138.073062 64.7550909,138.831529 64.7550909,139.766859 L64.7550909,148.757925 L68.1346061,148.757925 L68.1346061,139.766859 C68.1346061,138.831529 67.3786061,138.073062 66.4444242,138.073062 Z" id="Stroke-37" stroke="#000000" stroke-width="2" mask="url(#mask-2)"></path>
                    <path d="M73.7915394,138.073062 C72.8590545,138.073062 72.1013576,138.831529 72.1013576,139.766859 L72.1013576,148.757925 L75.4817212,148.757925 L75.4817212,139.766859 C75.4817212,138.831529 74.7257212,138.073062 73.7915394,138.073062" id="Fill-38" fill="#FFFFFF" mask="url(#mask-2)"></path>
                    <path d="M73.7915394,138.073062 C72.8590545,138.073062 72.1013576,138.831529 72.1013576,139.766859 L72.1013576,148.757925 L75.4817212,148.757925 L75.4817212,139.766859 C75.4817212,138.831529 74.7257212,138.073062 73.7915394,138.073062 Z" id="Stroke-39" stroke="#000000" stroke-width="2" mask="url(#mask-2)"></path>
                    <path d="M81.1387394,138.073062 C80.2062545,138.073062 79.4485576,138.831529 79.4485576,139.766859 L79.4485576,148.757925 L82.8289212,148.757925 L82.8289212,139.766859 C82.8289212,138.831529 82.0720727,138.073062 81.1387394,138.073062" id="Fill-40" fill="#FFFFFF" mask="url(#mask-2)"></path>
                    <path d="M81.1387394,138.073062 C80.2062545,138.073062 79.4485576,138.831529 79.4485576,139.766859 L79.4485576,148.757925 L82.8289212,148.757925 L82.8289212,139.766859 C82.8289212,138.831529 82.0720727,138.073062 81.1387394,138.073062 Z" id="Stroke-41" stroke="#000000" stroke-width="2" mask="url(#mask-2)"></path>
                    <polygon id="Fill-42" fill="#FFFFFF" mask="url(#mask-2)" points="53.7079879 55.0567162 62.5619273 38.7139617 77.0879879 38.7139617 86.0250788 55.0567162"></polygon>
                    <path d="M77.5898667,37.8634922 L62.0566545,37.8634922 L52.2821091,55.9068455 L87.4577455,55.9068455 L77.5898667,37.8634922 Z M76.5844121,39.564091 L84.5924121,54.2062467 L55.1338667,54.2062467 L63.0663515,39.564091 L76.5844121,39.564091 Z" id="Fill-43" fill="#000000" mask="url(#mask-2)"></path>
                    <polygon id="Fill-44" fill="#FFFFFF" mask="url(#mask-2)" points="51.9230303 55.9071856 87.8147879 55.9071856 87.8147879 52.1939281 51.9230303 52.1939281"></polygon>
                    <polygon id="Stroke-45" stroke="#000000" stroke-width="2" mask="url(#mask-2)" points="51.9230303 55.9071856 87.8147879 55.9071856 87.8147879 52.1939281 51.9230303 52.1939281"></polygon>
                    <path d="M63.4547879,27.6711234 C64.8827879,24.8744886 68.262303,18.0040695 69.8574545,12.6225246 C71.4050909,18.0057701 74.6861818,24.881291 76.0683636,27.6711234 L63.4547879,27.6711234 Z" id="Fill-46" fill="#FFFFFF" mask="url(#mask-2)"></path>
                    <path d="M69.9336485,28.5209976 L69.8063758,28.5209976 L69.9336485,28.5209976 Z M69.8700121,7.96500958 C69.8700121,13.8116683 62.0571636,28.5209976 62.0571636,28.5209976 L69.9336485,28.5209976 L77.4461333,28.5209976 C77.4461333,28.5209976 69.8700121,13.8116683 69.8700121,7.96500958 Z M69.8454061,15.3889737 C71.2963152,19.5783988 73.3691636,24.0722311 74.7029818,26.8203988 L69.9336485,26.8203988 L69.8063758,26.8203988 L64.838497,26.8203988 C66.2164364,24.0671293 68.3503758,19.5766982 69.8454061,15.3889737 Z" id="Fill-47" fill="#000000" mask="url(#mask-2)"></path>
                    <path d="M69.8557576,95.2823401 C64.3592727,95.2823401 59.8894545,90.8012623 59.8894545,85.2947234 C59.8894545,79.7873341 64.3592727,75.3071066 69.8557576,75.3071066 C75.349697,75.3071066 79.8203636,79.7873341 79.8203636,85.2947234 C79.8203636,90.8012623 75.349697,95.2823401 69.8557576,95.2823401" id="Fill-48" fill="#FFFFFF" mask="url(#mask-2)"></path>
                    <path d="M69.8557576,95.2823401 C64.3592727,95.2823401 59.8894545,90.8012623 59.8894545,85.2947234 C59.8894545,79.7873341 64.3592727,75.3071066 69.8557576,75.3071066 C75.349697,75.3071066 79.8203636,79.7873341 79.8203636,85.2947234 C79.8203636,90.8012623 75.349697,95.2823401 69.8557576,95.2823401 Z" id="Stroke-49" stroke="#000000" stroke-width="2" mask="url(#mask-2)"></path>
                    <g id="Group-52" mask="url(#mask-2)">
                        <g transform="translate(69.575758, 79.077844)">
                            <polyline id="Fill-50" stroke="none" fill="#FFFFFF" fill-rule="evenodd" points="0.487115152 0.51051976 0.487115152 7.09778922 7.06117576 7.09778922"></polyline>
                            <polyline id="Stroke-51" stroke="#000000" stroke-width="2" fill="none" stroke-linecap="round" points="0.487115152 0.51051976 0.487115152 7.09778922 7.06117576 7.09778922"></polyline>
                        </g>
                    </g>
                    <g id="Group-55" mask="url(#mask-2)">
                        <g transform="translate(65.333333, 32.311377)">
                            <path d="M0.446557576,0.721053892 L0.446557576,4.14010778" id="Fill-53" stroke="none" fill="#FFFFFF" fill-rule="evenodd"></path>
                            <path d="M0.446557576,0.721053892 L0.446557576,4.14010778" id="Stroke-54" stroke="#000000" stroke-width="2" fill="none"></path>
                        </g>
                    </g>
                    <g id="Group-58" mask="url(#mask-2)">
                        <g transform="translate(68.727273, 32.311377)">
                            <path d="M1.02488485,0.721053892 L1.02488485,4.14010778" id="Fill-56" stroke="none" fill="#FFFFFF" fill-rule="evenodd"></path>
                            <path d="M1.02488485,0.721053892 L1.02488485,4.14010778" id="Stroke-57" stroke="#000000" stroke-width="2" fill="none"></path>
                        </g>
                    </g>
                    <g id="Group-61" mask="url(#mask-2)">
                        <g transform="translate(72.969697, 32.311377)">
                            <path d="M0.753963636,0.721053892 L0.753963636,4.14010778" id="Fill-59" stroke="none" fill="#FFFFFF" fill-rule="evenodd"></path>
                            <path d="M0.753963636,0.721053892 L0.753963636,4.14010778" id="Stroke-60" stroke="#000000" stroke-width="2" fill="none"></path>
                        </g>
                    </g>
                    <polygon id="Fill-62" fill="#FFFFFF" mask="url(#mask-2)" points="61.6500606 30.5852695 78.0877576 30.5852695 78.0877576 27.4553174 61.6500606 27.4553174"></polygon>
                    <path d="M60.8024242,31.4355689 L78.9362424,31.4355689 L78.9362424,26.605018 L60.8024242,26.605018 L60.8024242,31.4355689 Z M62.4993939,29.7349701 L77.2392727,29.7349701 L77.2392727,28.3056168 L62.4993939,28.3056168 L62.4993939,29.7349701 Z" id="Fill-63" fill="#000000" mask="url(#mask-2)"></path>
                </g>
                <path d="M140,71.1497006 C140,109.891892 108.659515,141.299401 70,141.299401 C31.3404848,141.299401 0,109.891892 0,71.1497006 C0,32.407509 31.3404848,1 70,1 C108.659515,1 140,32.407509 140,71.1497006 Z" id="Stroke-65" stroke="#4BBF76" stroke-width="2"></path>
            </g>
        </g>
    </g>
</svg>