<?xml version="1.0" encoding="UTF-8"?>
<svg width="142px" height="143px" viewBox="0 0 142 143" version="1.1" xmlns="http://www.w3.org/2000/svg" xmlns:xlink="http://www.w3.org/1999/xlink">
    <!-- Generator: sketchtool 52.5 (67469) - http://www.bohemiancoding.com/sketch -->
    <title>0E5AC6D8-E83A-4B3A-B99D-A2811127AD08</title>
    <desc>Created with sketchtool.</desc>
    <defs>
        <path d="M0,69.898006 C0,108.367365 31.1508434,139.553695 69.5774699,139.553695 C108.00494,139.553695 139.156627,108.367365 139.156627,69.898006 C139.156627,31.4286467 108.00494,0.243161677 69.5774699,0.243161677 C31.1508434,0.243161677 0,31.4286467 0,69.898006 Z" id="path-1"></path>
        <path d="M0,69.898006 C0,108.367365 31.1508434,139.553695 69.5774699,139.553695 C108.00494,139.553695 139.156627,108.367365 139.156627,69.898006 C139.156627,31.4286467 108.00494,0.243161677 69.5774699,0.243161677 C31.1508434,0.243161677 0,31.4286467 0,69.898006 Z" id="path-3"></path>
        <path d="M0,69.898006 C0,108.367365 31.1508434,139.553695 69.5774699,139.553695 C108.00494,139.553695 139.156627,108.367365 139.156627,69.898006 C139.156627,31.4286467 108.00494,0.243161677 69.5774699,0.243161677 C31.1508434,0.243161677 0,31.4286467 0,69.898006 Z" id="path-5"></path>
        <path d="M0,69.898006 C0,108.367365 31.1508434,139.553695 69.5774699,139.553695 C108.00494,139.553695 139.156627,108.367365 139.156627,69.898006 C139.156627,31.4286467 108.00494,0.243161677 69.5774699,0.243161677 C31.1508434,0.243161677 0,31.4286467 0,69.898006 Z" id="path-7"></path>
        <path d="M0,69.898006 C0,108.367365 31.1508434,139.553695 69.5774699,139.553695 C108.00494,139.553695 139.156627,108.367365 139.156627,69.898006 C139.156627,31.4286467 108.00494,0.243161677 69.5774699,0.243161677 C31.1508434,0.243161677 0,31.4286467 0,69.898006 Z" id="path-9"></path>
    </defs>
    <g id="Page-1" stroke="none" stroke-width="1" fill="none" fill-rule="evenodd">
        <g id="Careers_page" transform="translate(-1114.000000, -3099.000000)">
            <g id="Group-139" transform="translate(1115.000000, 3100.000000)">
                <g id="Group-136" transform="translate(0.000000, 0.601994)">
                    <g id="Group-3">
                        <mask id="mask-2" fill="white">
                            <use xlink:href="#path-1"></use>
                        </mask>
                        <g id="Clip-2"></g>
                        <path d="M43.155,79.8528593 L43.155,79.3513383 C43.155,72.2346377 37.3922289,66.4646138 30.281747,66.4646138 C23.1729518,66.4646138 17.4101807,72.2346377 17.4101807,79.3513383 L17.4101807,79.8528593 L23.645241,78.198009 L37.2505422,78.198009 L43.155,79.8528593 Z" id="Fill-1" fill="#FFFFFF" mask="url(#mask-2)"></path>
                    </g>
                    <g id="Group-6">
                        <mask id="mask-4" fill="white">
                            <use xlink:href="#path-3"></use>
                        </mask>
                        <g id="Clip-5"></g>
                        <path d="M43.155,79.8528593 L43.155,79.3513383 C43.155,72.2346377 37.3922289,66.4646138 30.281747,66.4646138 C23.1729518,66.4646138 17.4101807,72.2346377 17.4101807,79.3513383 L17.4101807,79.8528593 L23.645241,78.198009 L37.2505422,78.198009 L43.155,79.8528593 Z" id="Stroke-4" stroke="#000000" stroke-width="2" mask="url(#mask-4)"></path>
                    </g>
                    <g id="Group-9">
                        <mask id="mask-6" fill="white">
                            <use xlink:href="#path-5"></use>
                        </mask>
                        <g id="Clip-8"></g>
                        <polygon id="Fill-7" fill="#FFFFFF" mask="url(#mask-6)" points="17.4098434 85.8788784 17.4098434 79.8057467 23.645747 78.1973335 37.2502048 78.1973335 43.1082771 79.8057467 43.1082771 85.8788784"></polygon>
                    </g>
                    <g id="Group-12">
                        <mask id="mask-8" fill="white">
                            <use xlink:href="#path-7"></use>
                        </mask>
                        <g id="Clip-11"></g>
                        <polygon id="Stroke-10" stroke="#000000" stroke-width="2" mask="url(#mask-8)" points="17.4098434 85.8788784 17.4098434 79.8057467 23.645747 78.1973335 37.2502048 78.1973335 43.1082771 79.8057467 43.1082771 85.8788784"></polygon>
                    </g>
                    <mask id="mask-10" fill="white">
                        <use xlink:href="#path-9"></use>
                    </mask>
                    <g id="Clip-14"></g>
                    <polygon id="Fill-13" fill="#FFFFFF" mask="url(#mask-10)" points="25.156988 67.5406886 34.9822892 67.5406886 34.9822892 64.2605389 25.156988 64.2605389"></polygon>
                    <polygon id="Stroke-15" stroke="#000000" stroke-width="2" mask="url(#mask-10)" points="25.156988 67.5406886 34.9822892 67.5406886 34.9822892 64.2605389 25.156988 64.2605389"></polygon>
                    <polyline id="Stroke-16" stroke="#000000" stroke-width="2" mask="url(#mask-10)" points="25.7974458 64.2607078 30.0691325 59.4743066 34.3576867 64.2607078"></polyline>
                    <path d="M30.0694699,56.6152994 L30.0694699,64.2605389" id="Stroke-17" stroke="#000000" stroke-width="2" stroke-linecap="round" mask="url(#mask-10)"></path>
                    <path d="M23.6454096,78.1976713 L23.6454096,85.8792162" id="Stroke-18" stroke="#000000" stroke-width="2" mask="url(#mask-10)"></path>
                    <path d="M37.2505422,78.2450371 L37.2505422,85.8793006" id="Stroke-19" stroke="#000000" stroke-width="2" mask="url(#mask-10)"></path>
                    <path d="M33.1283855,67.365494 C33.1283855,67.365494 37.6033253,71.0652665 37.0340482,78.2452904" id="Stroke-20" stroke="#000000" stroke-width="2" mask="url(#mask-10)"></path>
                    <path d="M26.9677952,67.365494 C26.9677952,67.365494 22.4936988,71.0652665 23.0621325,78.2452904" id="Stroke-21" stroke="#000000" stroke-width="2" mask="url(#mask-10)"></path>
                    <path d="M122.526819,79.8528593 L122.526819,79.3513383 C122.526819,72.2346377 116.763205,66.4646138 109.653566,66.4646138 C102.544771,66.4646138 96.782,72.2346377 96.782,79.3513383 L96.782,79.8528593 L103.01706,78.198009 L116.621518,78.198009 L122.526819,79.8528593 Z" id="Fill-22" fill="#FFFFFF" mask="url(#mask-10)"></path>
                    <path d="M122.526819,79.8528593 L122.526819,79.3513383 C122.526819,72.2346377 116.763205,66.4646138 109.653566,66.4646138 C102.544771,66.4646138 96.782,72.2346377 96.782,79.3513383 L96.782,79.8528593 L103.01706,78.198009 L116.621518,78.198009 L122.526819,79.8528593 Z" id="Stroke-23" stroke="#000000" stroke-width="2" mask="url(#mask-10)"></path>
                    <polygon id="Fill-24" fill="#FFFFFF" mask="url(#mask-10)" points="96.7816627 85.8788784 96.7816627 79.8057467 103.017566 78.1973335 116.621181 78.1973335 122.480096 79.8057467 122.480096 85.8788784"></polygon>
                    <polygon id="Stroke-25" stroke="#000000" stroke-width="2" mask="url(#mask-10)" points="96.7816627 85.8788784 96.7816627 79.8057467 103.017566 78.1973335 116.621181 78.1973335 122.480096 79.8057467 122.480096 85.8788784"></polygon>
                    <polygon id="Fill-26" fill="#FFFFFF" mask="url(#mask-10)" points="104.528554 67.5406886 114.353855 67.5406886 114.353855 64.7544611 104.528554 64.7544611"></polygon>
                    <polygon id="Stroke-27" stroke="#000000" stroke-width="2" mask="url(#mask-10)" points="104.528554 67.5406886 114.353855 67.5406886 114.353855 64.7544611 104.528554 64.7544611"></polygon>
                    <polyline id="Stroke-28" stroke="#000000" stroke-width="2" mask="url(#mask-10)" points="105.169265 64.7546299 109.440952 59.4743066 113.728663 64.7546299"></polyline>
                    <path d="M109.441289,57.1096437 L109.441289,64.7548832" id="Stroke-29" stroke="#000000" stroke-width="2" stroke-linecap="round" mask="url(#mask-10)"></path>
                    <path d="M103.017229,78.1976713 L103.017229,85.8792162" id="Stroke-30" stroke="#000000" stroke-width="2" mask="url(#mask-10)"></path>
                    <path d="M116.621518,78.2450371 L116.621518,85.8793006" id="Stroke-31" stroke="#000000" stroke-width="2" mask="url(#mask-10)"></path>
                    <path d="M112.500205,67.365494 C112.500205,67.365494 116.975145,71.0652665 116.405867,78.2452904" id="Stroke-32" stroke="#000000" stroke-width="2" mask="url(#mask-10)"></path>
                    <path d="M106.339614,67.365494 C106.339614,67.365494 101.864675,71.0652665 102.433952,78.2452904" id="Stroke-33" stroke="#000000" stroke-width="2" mask="url(#mask-10)"></path>
                    <polygon id="Fill-34" fill="#FFFFFF" mask="url(#mask-10)" points="114.205084 85.4023491 130.617133 80.3896725 130.617133 87.5570317 114.299542 92.0023311 25.2679759 92.7816305 6.75508434 87.367906 6.75508434 80.3896725 25.2679759 85.4023491"></polygon>
                    <polygon id="Stroke-35" stroke="#000000" stroke-width="2" mask="url(#mask-10)" points="114.205084 85.4023491 130.617133 80.3896725 130.617133 87.5570317 114.299542 92.0023311 25.2679759 92.7816305 6.75508434 87.367906 6.75508434 80.3896725 25.2679759 85.4023491"></polygon>
                    <polygon id="Fill-36" fill="#FFFFFF" mask="url(#mask-10)" points="45.6331687 71.7832689 57.3956988 68.2835982 82.810759 68.2835982 94.1473855 71.2158916 94.1473855 90.3429216 45.5859398 90.3429216"></polygon>
                    <polygon id="Stroke-37" stroke="#000000" stroke-width="2" mask="url(#mask-10)" points="45.6331687 71.7832689 57.3956988 68.2835982 82.810759 68.2835982 94.1473855 71.2158916 94.1473855 90.3429216 45.5859398 90.3429216"></polygon>
                    <path d="M45.5862771,80.2169263 C45.7751928,80.2008844 57.8683253,77.2694353 57.8683253,77.2694353 L82.8110964,77.2694353 L94.3374819,79.7280701" id="Stroke-38" stroke="#000000" stroke-width="2" mask="url(#mask-10)"></path>
                    <polygon id="Fill-39" fill="#FFFFFF" mask="url(#mask-10)" points="95.8962892 140.592957 43.554 140.592957 44.3324337 90.9145204 95.8962892 90.9145204"></polygon>
                    <polygon id="Stroke-40" stroke="#000000" stroke-width="2" mask="url(#mask-10)" points="95.8962892 140.592957 43.554 140.592957 44.3324337 90.9145204 95.8962892 90.9145204"></polygon>
                    <path d="M83.8502169,140.592957 L55.6005783,140.592957 L55.6005783,129.187999 C55.6005783,121.378963 61.9241928,115.047472 69.7253976,115.047472 C77.525759,115.047472 83.8502169,121.378963 83.8502169,129.187999 L83.8502169,140.592957 Z" id="Fill-41" fill="#FFFFFF" mask="url(#mask-10)"></path>
                    <path d="M83.8502169,140.592957 L55.6005783,140.592957 L55.6005783,129.187999 C55.6005783,121.378963 61.9241928,115.047472 69.7253976,115.047472 C77.525759,115.047472 83.8502169,121.378963 83.8502169,129.187999 L83.8502169,140.592957 Z" id="Stroke-42" stroke="#000000" stroke-width="2" mask="url(#mask-10)"></path>
                    <path d="M80.778988,140.592957 L58.6707952,140.592957 L58.6707952,129.326466 C58.6707952,123.214496 63.6197108,118.260077 69.7257349,118.260077 C75.8300723,118.260077 80.778988,123.214496 80.778988,129.326466 L80.778988,140.592957 Z" id="Fill-43" fill="#FFFFFF" mask="url(#mask-10)"></path>
                    <path d="M80.778988,140.592957 L58.6707952,140.592957 L58.6707952,129.326466 C58.6707952,123.214496 63.6197108,118.260077 69.7257349,118.260077 C75.8300723,118.260077 80.778988,123.214496 80.778988,129.326466 L80.778988,140.592957 Z" id="Stroke-44" stroke="#000000" stroke-width="2" mask="url(#mask-10)"></path>
                    <path d="M45.5862771,71.7832689 L45.5862771,70.8376401 C45.5862771,57.4122449 56.4573614,46.5290713 69.867,46.5290713 C83.2766386,46.5290713 94.1477229,57.4122449 94.1477229,70.8376401 L94.1477229,71.7832689" id="Stroke-45" stroke="#000000" stroke-width="2" mask="url(#mask-10)"></path>
                    <path d="M51.9634458,74.9989132 C51.9634458,76.1226916 51.0542892,77.0328593 49.931759,77.0328593 C48.8100723,77.0328593 47.9009157,76.1226916 47.9009157,74.9989132 C47.9009157,73.875979 48.8100723,72.9658114 49.931759,72.9658114 C51.0542892,72.9658114 51.9634458,73.875979 51.9634458,74.9989132" id="Fill-46" fill="#FFFFFF" mask="url(#mask-10)"></path>
                    <path d="M51.9634458,74.9989132 C51.9634458,76.1226916 51.0542892,77.0328593 49.931759,77.0328593 C48.8100723,77.0328593 47.9009157,76.1226916 47.9009157,74.9989132 C47.9009157,73.875979 48.8100723,72.9658114 49.931759,72.9658114 C51.0542892,72.9658114 51.9634458,73.875979 51.9634458,74.9989132 Z" id="Stroke-47" stroke="#000000" stroke-width="2" mask="url(#mask-10)"></path>
                    <path d="M91.8803976,75.046279 C91.8803976,76.1692132 90.971241,77.0802251 89.8495542,77.0802251 C88.7278675,77.0802251 87.8187108,76.1692132 87.8187108,75.046279 C87.8187108,73.9233449 88.7278675,73.0123329 89.8495542,73.0123329 C90.971241,73.0123329 91.8803976,73.9233449 91.8803976,75.046279" id="Fill-48" fill="#FFFFFF" mask="url(#mask-10)"></path>
                    <path d="M91.8803976,75.046279 C91.8803976,76.1692132 90.971241,77.0802251 89.8495542,77.0802251 C88.7278675,77.0802251 87.8187108,76.1692132 87.8187108,75.046279 C87.8187108,73.9233449 88.7278675,73.0123329 89.8495542,73.0123329 C90.971241,73.0123329 91.8803976,73.9233449 91.8803976,75.046279 Z" id="Stroke-49" stroke="#000000" stroke-width="2" mask="url(#mask-10)"></path>
                    <path d="M58.6165663,73.2492467 C58.6165663,74.3721808 57.7065663,75.2831928 56.5848795,75.2831928 C55.4631928,75.2831928 54.5540361,74.3721808 54.5540361,73.2492467 C54.5540361,72.1263126 55.4631928,71.2153006 56.5848795,71.2153006 C57.7065663,71.2153006 58.6165663,72.1263126 58.6165663,73.2492467" id="Fill-50" fill="#FFFFFF" mask="url(#mask-10)"></path>
                    <path d="M58.6165663,73.2492467 C58.6165663,74.3721808 57.7065663,75.2831928 56.5848795,75.2831928 C55.4631928,75.2831928 54.5540361,74.3721808 54.5540361,73.2492467 C54.5540361,72.1263126 55.4631928,71.2153006 56.5848795,71.2153006 C57.7065663,71.2153006 58.6165663,72.1263126 58.6165663,73.2492467 Z" id="Stroke-51" stroke="#000000" stroke-width="2" mask="url(#mask-10)"></path>
                    <path d="M85.2281205,73.2492467 C85.2281205,74.3721808 84.3181205,75.2831928 83.1964337,75.2831928 C82.074747,75.2831928 81.1655904,74.3721808 81.1655904,73.2492467 C81.1655904,72.1263126 82.074747,71.2153006 83.1964337,71.2153006 C84.3181205,71.2153006 85.2281205,72.1263126 85.2281205,73.2492467" id="Fill-52" fill="#FFFFFF" mask="url(#mask-10)"></path>
                    <path d="M85.2281205,73.2492467 C85.2281205,74.3721808 84.3181205,75.2831928 83.1964337,75.2831928 C82.074747,75.2831928 81.1655904,74.3721808 81.1655904,73.2492467 C81.1655904,72.1263126 82.074747,71.2153006 83.1964337,71.2153006 C84.3181205,71.2153006 85.2281205,72.1263126 85.2281205,73.2492467 Z" id="Stroke-53" stroke="#000000" stroke-width="2" mask="url(#mask-10)"></path>
                    <path d="M65.2688434,72.8708263 C65.2688434,73.9946048 64.3596867,74.9047725 63.238,74.9047725 C62.1163133,74.9047725 61.2071566,73.9946048 61.2071566,72.8708263 C61.2071566,71.7478922 62.1163133,70.8377246 63.238,70.8377246 C64.3596867,70.8377246 65.2688434,71.7478922 65.2688434,72.8708263" id="Fill-54" fill="#FFFFFF" mask="url(#mask-10)"></path>
                    <path d="M65.2688434,72.8708263 C65.2688434,73.9946048 64.3596867,74.9047725 63.238,74.9047725 C62.1163133,74.9047725 61.2071566,73.9946048 61.2071566,72.8708263 C61.2071566,71.7478922 62.1163133,70.8377246 63.238,70.8377246 C64.3596867,70.8377246 65.2688434,71.7478922 65.2688434,72.8708263 Z" id="Stroke-55" stroke="#000000" stroke-width="2" mask="url(#mask-10)"></path>
                    <path d="M71.9218795,72.8708263 C71.9218795,73.9946048 71.0127229,74.9047725 69.8910361,74.9047725 C68.7693494,74.9047725 67.8593494,73.9946048 67.8593494,72.8708263 C67.8593494,71.7478922 68.7693494,70.8377246 69.8910361,70.8377246 C71.0127229,70.8377246 71.9218795,71.7478922 71.9218795,72.8708263" id="Fill-56" fill="#FFFFFF" mask="url(#mask-10)"></path>
                    <path d="M71.9218795,72.8708263 C71.9218795,73.9946048 71.0127229,74.9047725 69.8910361,74.9047725 C68.7693494,74.9047725 67.8593494,73.9946048 67.8593494,72.8708263 C67.8593494,71.7478922 68.7693494,70.8377246 69.8910361,70.8377246 C71.0127229,70.8377246 71.9218795,71.7478922 71.9218795,72.8708263 Z" id="Stroke-57" stroke="#000000" stroke-width="2" mask="url(#mask-10)"></path>
                    <path d="M78.575,72.8708263 C78.575,73.9946048 77.6658434,74.9047725 76.5433133,74.9047725 C75.4216265,74.9047725 74.5124699,73.9946048 74.5124699,72.8708263 C74.5124699,71.7478922 75.4216265,70.8377246 76.5433133,70.8377246 C77.6658434,70.8377246 78.575,71.7478922 78.575,72.8708263" id="Fill-58" fill="#FFFFFF" mask="url(#mask-10)"></path>
                    <path d="M78.575,72.8708263 C78.575,73.9946048 77.6658434,74.9047725 76.5433133,74.9047725 C75.4216265,74.9047725 74.5124699,73.9946048 74.5124699,72.8708263 C74.5124699,71.7478922 75.4216265,70.8377246 76.5433133,70.8377246 C77.6658434,70.8377246 78.575,71.7478922 78.575,72.8708263 Z" id="Stroke-59" stroke="#000000" stroke-width="2" mask="url(#mask-10)"></path>
                    <path d="M69.3003373,58.635821 C67.5258795,58.635821 66.0870843,60.0762162 66.0870843,61.851803 L66.0870843,68.2837671 L72.512747,68.2837671 L72.512747,61.851803 C72.512747,60.0762162 71.0747952,58.635821 69.3003373,58.635821" id="Fill-60" fill="#FFFFFF" mask="url(#mask-10)"></path>
                    <path d="M69.3003373,58.635821 C67.5258795,58.635821 66.0870843,60.0762162 66.0870843,61.851803 L66.0870843,68.2837671 L72.512747,68.2837671 L72.512747,61.851803 C72.512747,60.0762162 71.0747952,58.635821 69.3003373,58.635821 Z" id="Stroke-61" stroke="#000000" stroke-width="2" mask="url(#mask-10)"></path>
                    <polygon id="Fill-62" fill="#FFFFFF" mask="url(#mask-10)" points="50.4050602 99.212497 88.9050602 99.212497 88.9050602 91.6457784 50.4050602 91.6457784"></polygon>
                    <polygon id="Stroke-63" stroke="#000000" stroke-width="2" mask="url(#mask-10)" points="50.4050602 99.212497 88.9050602 99.212497 88.9050602 91.6457784 50.4050602 91.6457784"></polygon>
                    <polygon id="Fill-64" fill="#FFFFFF" mask="url(#mask-10)" points="55.5066265 110.327856 83.8026506 110.327856 83.8026506 103.186671 55.5066265 103.186671"></polygon>
                    <polygon id="Stroke-65" stroke="#000000" stroke-width="2" mask="url(#mask-10)" points="55.5066265 110.327856 83.8026506 110.327856 83.8026506 103.186671 55.5066265 103.186671"></polygon>
                    <g id="Group-68" mask="url(#mask-10)">
                        <g transform="translate(60.722892, 103.005988)">
                            <path d="M0.49953012,0.416667665 L0.49953012,7.03775749" id="Fill-66" stroke="none" fill="#FFFFFF" fill-rule="evenodd"></path>
                            <path d="M0.49953012,0.416667665 L0.49953012,7.03775749" id="Stroke-67" stroke="#000000" stroke-width="2" fill="none"></path>
                        </g>
                    </g>
                    <g id="Group-71" mask="url(#mask-10)">
                        <g transform="translate(65.783133, 103.005988)">
                            <path d="M0.918771084,0.416667665 L0.918771084,7.03775749" id="Fill-69" stroke="none" fill="#FFFFFF" fill-rule="evenodd"></path>
                            <path d="M0.918771084,0.416667665 L0.918771084,7.03775749" id="Stroke-70" stroke="#000000" stroke-width="2" fill="none"></path>
                        </g>
                    </g>
                    <g id="Group-74" mask="url(#mask-10)">
                        <g transform="translate(71.686747, 103.005988)">
                            <path d="M0.589349398,0.416667665 L0.589349398,7.03775749" id="Fill-72" stroke="none" fill="#FFFFFF" fill-rule="evenodd"></path>
                            <path d="M0.589349398,0.416667665 L0.589349398,7.03775749" id="Stroke-73" stroke="#000000" stroke-width="2" fill="none"></path>
                        </g>
                    </g>
                    <g id="Group-77" mask="url(#mask-10)">
                        <g transform="translate(77.590361, 103.005988)">
                            <path d="M0.732638554,0.416667665 L0.732638554,7.03775749" id="Fill-75" stroke="none" fill="#FFFFFF" fill-rule="evenodd"></path>
                            <path d="M0.732638554,0.416667665 L0.732638554,7.03775749" id="Stroke-76" stroke="#000000" stroke-width="2" fill="none"></path>
                        </g>
                    </g>
                    <polyline id="Stroke-78" stroke="#000000" stroke-width="2" mask="url(#mask-10)" points="73.9768434 46.8765054 73.9768434 43.9281701 66.0406988 43.9281701 66.0406988 46.8765054"></polyline>
                    <path d="M73.0320964,43.9444653 C73.0320964,42.3157886 71.7139036,40.9961299 70.0870361,40.9961299 L69.9301687,40.9961299 C68.3041446,40.9961299 66.9851084,42.3157886 66.9851084,43.9444653" id="Stroke-79" stroke="#000000" stroke-width="2" mask="url(#mask-10)"></path>
                    <path d="M69.8201084,22.4685611 L69.8201084,40.9961299" id="Stroke-80" stroke="#000000" stroke-width="2" mask="url(#mask-10)"></path>
                    <path d="M69.8201084,22.2611982 C69.8201084,22.2611982 77.7604699,18.8729766 84.4636024,22.2611982 L84.4636024,30.7321743 C84.4636024,30.7321743 76.6539639,27.9957611 69.8201084,30.7321743 L69.8201084,22.2611982 Z" id="Stroke-81" stroke="#000000" stroke-width="2" mask="url(#mask-10)"></path>
                    <polygon id="Fill-82" fill="#FFFFFF" mask="url(#mask-10)" points="6.11783133 88.7464132 11.5348193 88.7464132 11.5348193 81.0116766 6.11783133 81.0116766"></polygon>
                    <polygon id="Stroke-83" stroke="#000000" stroke-width="2" mask="url(#mask-10)" points="6.11783133 88.7464132 11.5348193 88.7464132 11.5348193 81.0116766 6.11783133 81.0116766"></polygon>
                    <polygon id="Fill-84" fill="#FFFFFF" mask="url(#mask-10)" points="23.2096386 96.4600419 28.6257831 96.4600419 28.6257831 85.999024 23.2096386 85.999024"></polygon>
                    <polygon id="Stroke-85" stroke="#000000" stroke-width="2" mask="url(#mask-10)" points="23.2096386 96.4600419 28.6257831 96.4600419 28.6257831 85.999024 23.2096386 85.999024"></polygon>
                    <path d="M25.9177108,81.5064431 C23.5706024,81.5064431 21.6671084,83.4112096 21.6671084,85.7617725 L21.6671084,87.7163533 L30.1674699,87.7163533 L30.1674699,85.7617725 C30.1674699,83.4112096 28.2648193,81.5064431 25.9177108,81.5064431" id="Fill-86" fill="#FFFFFF" mask="url(#mask-10)"></path>
                    <path d="M25.9177108,81.5064431 C23.5706024,81.5064431 21.6671084,83.4112096 21.6671084,85.7617725 L21.6671084,87.7163533 L30.1674699,87.7163533 L30.1674699,85.7617725 C30.1674699,83.4112096 28.2648193,81.5064431 25.9177108,81.5064431 Z" id="Stroke-87" stroke="#000000" stroke-width="2" mask="url(#mask-10)"></path>
                    <polygon id="Fill-88" fill="#FFFFFF" mask="url(#mask-10)" points="111.301687 95.9661198 116.717831 95.9661198 116.717831 85.5042575 111.301687 85.5042575"></polygon>
                    <polygon id="Stroke-89" stroke="#000000" stroke-width="2" mask="url(#mask-10)" points="111.301687 95.9661198 116.717831 95.9661198 116.717831 85.5042575 111.301687 85.5042575"></polygon>
                    <path d="M114.009843,81.012521 C111.662735,81.012521 109.760084,82.9172874 109.760084,85.267006 L109.760084,87.2215868 L118.260446,87.2215868 L118.260446,85.267006 C118.260446,82.9172874 116.356952,81.012521 114.009843,81.012521" id="Fill-90" fill="#FFFFFF" mask="url(#mask-10)"></path>
                    <path d="M114.009843,81.012521 C111.662735,81.012521 109.760084,82.9172874 109.760084,85.267006 L109.760084,87.2215868 L118.260446,87.2215868 L118.260446,85.267006 C118.260446,82.9172874 116.356952,81.012521 114.009843,81.012521 Z" id="Stroke-91" stroke="#000000" stroke-width="2" mask="url(#mask-10)"></path>
                    <polygon id="Fill-92" fill="#FFFFFF" mask="url(#mask-10)" points="126.343253 89.5257126 131.759398 89.5257126 131.759398 79.0638503 126.343253 79.0638503"></polygon>
                    <polygon id="Stroke-93" stroke="#000000" stroke-width="2" mask="url(#mask-10)" points="126.343253 89.5257126 131.759398 89.5257126 131.759398 79.0638503 126.343253 79.0638503"></polygon>
                    <polygon id="Fill-94" fill="#FFFFFF" mask="url(#mask-10)" points="95.8856627 140.593042 114.113494 140.593042 114.113494 91.6930599 95.8856627 91.6930599"></polygon>
                    <polygon id="Stroke-95" stroke="#000000" stroke-width="2" mask="url(#mask-10)" points="95.8856627 140.593042 114.113494 140.593042 114.113494 91.6930599 95.8856627 91.6930599"></polygon>
                    <polygon id="Fill-96" fill="#FFFFFF" mask="url(#mask-10)" points="135.455735 132.08061 114.150434 140.592957 114.150434 91.7875383 135.455735 85.1672928"></polygon>
                    <polygon id="Stroke-97" stroke="#000000" stroke-width="2" mask="url(#mask-10)" points="135.455735 132.08061 114.150434 140.592957 114.150434 91.7875383 135.455735 85.1672928"></polygon>
                    <path d="M111.163458,120.781782 L99.1985181,120.781782 L99.1985181,110.493848 C99.1985181,107.185836 101.877072,104.505147 105.180566,104.505147 C108.484904,104.505147 111.163458,107.185836 111.163458,110.493848 L111.163458,120.781782 Z" id="Fill-98" fill="#FFFFFF" mask="url(#mask-10)"></path>
                    <path d="M111.163458,120.781782 L99.1985181,120.781782 L99.1985181,110.493848 C99.1985181,107.185836 101.877072,104.505147 105.180566,104.505147 C108.484904,104.505147 111.163458,107.185836 111.163458,110.493848 L111.163458,120.781782 Z" id="Stroke-99" stroke="#000000" stroke-width="2" mask="url(#mask-10)"></path>
                    <polygon id="Fill-100" fill="#FFFFFF" mask="url(#mask-10)" points="99.1984337 115.243437 111.163373 115.243437 111.163373 111.952311 99.1984337 111.952311"></polygon>
                    <polygon id="Stroke-101" stroke="#000000" stroke-width="2" mask="url(#mask-10)" points="99.1984337 115.243437 111.163373 115.243437 111.163373 111.952311 99.1984337 111.952311"></polygon>
                    <path d="M130.600602,117.583868 L119.263133,121.15615 L119.263133,105.164048 C119.263133,97.9831796 121.578193,96.3747665 124.789759,95.9019521 L124.978675,95.9019521 C128.11012,95.9019521 130.600602,97.9831796 130.600602,102.326317 L130.600602,117.583868 Z" id="Fill-102" fill="#FFFFFF" mask="url(#mask-10)"></path>
                    <path d="M130.600602,117.583868 L119.263133,121.15615 L119.263133,105.164048 C119.263133,97.9831796 121.578193,96.3747665 124.789759,95.9019521 L124.978675,95.9019521 C128.11012,95.9019521 130.600602,97.9831796 130.600602,102.326317 L130.600602,117.583868 Z" id="Stroke-103" stroke="#000000" stroke-width="2" mask="url(#mask-10)"></path>
                    <polygon id="Fill-104" fill="#FFFFFF" mask="url(#mask-10)" points="130.600602 109.799486 119.263133 113.204594 119.263133 109.39675 130.600602 105.991642"></polygon>
                    <polygon id="Stroke-105" stroke="#000000" stroke-width="2" mask="url(#mask-10)" points="130.600602 109.799486 119.263133 113.204594 119.263133 109.39675 130.600602 105.991642"></polygon>
                    <path d="M71.9218795,46.6155287 C71.9218795,46.6155287 85.2665783,54.0015647 84.4636867,68.7111575" id="Stroke-106" stroke="#000000" stroke-width="2" mask="url(#mask-10)"></path>
                    <path d="M67.9298554,46.6155287 C67.9298554,46.6155287 55.8839518,54.0961275 55.482506,68.8057204" id="Stroke-107" stroke="#000000" stroke-width="2" mask="url(#mask-10)"></path>
                    <polygon id="Fill-108" fill="#FFFFFF" mask="url(#mask-10)" points="88.4116867 140.593042 95.780241 140.593042 95.780241 90.5583054 88.4116867 90.5583054"></polygon>
                    <polygon id="Stroke-109" stroke="#000000" stroke-width="2" mask="url(#mask-10)" points="88.4116867 140.593042 95.780241 140.593042 95.780241 90.5583054 88.4116867 90.5583054"></polygon>
                    <polygon id="Fill-110" fill="#FFFFFF" mask="url(#mask-10)" points="87.7343735 90.624415 96.4261807 90.624415 98.3583494 87.7816186 98.3583494 83.9087623 85.834253 83.9087623 85.834253 87.7816186"></polygon>
                    <polygon id="Stroke-111" stroke="#000000" stroke-width="2" mask="url(#mask-10)" points="87.7343735 90.624415 96.4261807 90.624415 98.3583494 87.7816186 98.3583494 83.9087623 85.834253 83.9087623 85.834253 87.7816186"></polygon>
                    <polygon id="Fill-112" fill="#FFFFFF" mask="url(#mask-10)" points="43.7171084 140.593042 51.5798795 140.593042 51.5798795 90.5583054 43.7171084 90.5583054"></polygon>
                    <polygon id="Stroke-113" stroke="#000000" stroke-width="2" mask="url(#mask-10)" points="43.7171084 140.593042 51.5798795 140.593042 51.5798795 90.5583054 43.7171084 90.5583054"></polygon>
                    <polygon id="Fill-114" fill="#FFFFFF" mask="url(#mask-10)" points="43.533 90.624415 52.2256506 90.624415 54.1569759 87.7816186 54.1569759 83.9087623 41.6328795 83.9087623 41.6328795 87.7816186"></polygon>
                    <polygon id="Stroke-115" stroke="#000000" stroke-width="2" mask="url(#mask-10)" points="43.533 90.624415 52.2256506 90.624415 54.1569759 87.7816186 54.1569759 83.9087623 41.6328795 83.9087623 41.6328795 87.7816186"></polygon>
                    <polygon id="Fill-116" fill="#FFFFFF" mask="url(#mask-10)" points="47.4080482 94.2943832 91.8538313 94.2943832 69.5837108 81.0158982"></polygon>
                    <polygon id="Stroke-117" stroke="#000000" stroke-width="2" mask="url(#mask-10)" points="47.4080482 94.2943832 91.8538313 94.2943832 69.5837108 81.0158982"></polygon>
                    <path d="M69.2526024,96.818621 C66.6440482,96.818621 64.5288675,94.701088 64.5288675,92.0896329 C64.5288675,89.4773335 66.6440482,87.3606449 69.2526024,87.3606449 C71.862,87.3606449 73.9771807,89.4773335 73.9771807,92.0896329 C73.9771807,94.701088 71.862,96.818621 69.2526024,96.818621" id="Fill-118" fill="#FFFFFF" mask="url(#mask-10)"></path>
                    <path d="M69.2526024,96.818621 C66.6440482,96.818621 64.5288675,94.701088 64.5288675,92.0896329 C64.5288675,89.4773335 66.6440482,87.3606449 69.2526024,87.3606449 C71.862,87.3606449 73.9771807,89.4773335 73.9771807,92.0896329 C73.9771807,94.701088 71.862,96.818621 69.2526024,96.818621 Z" id="Stroke-119" stroke="#000000" stroke-width="2" mask="url(#mask-10)"></path>
                    <polygon id="Fill-120" fill="#FFFFFF" mask="url(#mask-10)" points="25.2893976 140.593042 43.6091566 140.593042 43.6091566 92.8615868 25.2893976 92.8615868"></polygon>
                    <polygon id="Stroke-121" stroke="#000000" stroke-width="2" mask="url(#mask-10)" points="25.2893976 140.593042 43.6091566 140.593042 43.6091566 92.8615868 25.2893976 92.8615868"></polygon>
                    <polygon id="Fill-122" fill="#FFFFFF" mask="url(#mask-10)" points="3.948 131.985794 25.2533012 140.592704 25.2533012 92.8620934 3.948 86.2410036"></polygon>
                    <polygon id="Stroke-123" stroke="#000000" stroke-width="2" mask="url(#mask-10)" points="3.948 131.985794 25.2533012 140.592704 25.2533012 92.8620934 3.948 86.2410036"></polygon>
                    <path d="M40.7599036,120.781782 L28.7949639,120.781782 L28.7949639,110.493848 C28.7949639,107.185836 31.4735181,104.505147 34.7778554,104.505147 C38.0813494,104.505147 40.7599036,107.185836 40.7599036,110.493848 L40.7599036,120.781782 Z" id="Fill-124" fill="#FFFFFF" mask="url(#mask-10)"></path>
                    <path d="M40.7599036,120.781782 L28.7949639,120.781782 L28.7949639,110.493848 C28.7949639,107.185836 31.4735181,104.505147 34.7778554,104.505147 C38.0813494,104.505147 40.7599036,107.185836 40.7599036,110.493848 L40.7599036,120.781782 Z" id="Stroke-125" stroke="#000000" stroke-width="2" mask="url(#mask-10)"></path>
                    <polygon id="Fill-126" fill="#FFFFFF" mask="url(#mask-10)" points="28.7953012 115.243437 40.760241 115.243437 40.760241 111.952311 28.7953012 111.952311"></polygon>
                    <polygon id="Stroke-127" stroke="#000000" stroke-width="2" mask="url(#mask-10)" points="28.7953012 115.243437 40.760241 115.243437 40.760241 111.952311 28.7953012 111.952311"></polygon>
                    <path d="M8.90037349,117.583868 L20.2378434,121.15615 L20.2378434,105.164048 C20.2378434,97.9831796 17.9227831,96.3747665 14.7112169,95.9019521 L14.5223012,95.9019521 C11.3916988,95.9019521 8.90037349,97.9831796 8.90037349,102.326317 L8.90037349,117.583868 Z" id="Fill-128" fill="#FFFFFF" mask="url(#mask-10)"></path>
                    <path d="M8.90037349,117.583868 L20.2378434,121.15615 L20.2378434,105.164048 C20.2378434,97.9831796 17.9227831,96.3747665 14.7112169,95.9019521 L14.5223012,95.9019521 C11.3916988,95.9019521 8.90037349,97.9831796 8.90037349,102.326317 L8.90037349,117.583868 Z" id="Stroke-129" stroke="#000000" stroke-width="2" mask="url(#mask-10)"></path>
                    <polygon id="Fill-130" fill="#FFFFFF" mask="url(#mask-10)" points="8.90037349 109.799486 20.2378434 113.204594 20.2378434 109.39675 8.90037349 105.991642"></polygon>
                    <polygon id="Stroke-131" stroke="#000000" stroke-width="2" mask="url(#mask-10)" points="8.90037349 109.799486 20.2378434 113.204594 20.2378434 109.39675 8.90037349 105.991642"></polygon>
                    <path d="M8.82624096,76.9084922 C6.47913253,76.9084922 4.57648193,78.8132587 4.57648193,81.1629772 L4.57648193,83.1175581 L13.0768434,83.1175581 L13.0768434,81.1629772 C13.0768434,78.8132587 11.1733494,76.9084922 8.82624096,76.9084922" id="Fill-132" fill="#FFFFFF" mask="url(#mask-10)"></path>
                    <path d="M8.82624096,76.9084922 C6.47913253,76.9084922 4.57648193,78.8132587 4.57648193,81.1629772 L4.57648193,83.1175581 L13.0768434,83.1175581 L13.0768434,81.1629772 C13.0768434,78.8132587 11.1733494,76.9084922 8.82624096,76.9084922 Z" id="Stroke-133" stroke="#000000" stroke-width="2" mask="url(#mask-10)"></path>
                    <path d="M129.05141,76.9084922 C126.704301,76.9084922 124.801651,78.8132587 124.801651,81.1629772 L124.801651,83.1175581 L133.301169,83.1175581 L133.301169,81.1629772 C133.301169,78.8132587 131.398518,76.9084922 129.05141,76.9084922" id="Fill-134" fill="#FFFFFF" mask="url(#mask-10)"></path>
                    <path d="M129.05141,76.9084922 C126.704301,76.9084922 124.801651,78.8132587 124.801651,81.1629772 L124.801651,83.1175581 L133.301169,83.1175581 L133.301169,81.1629772 C133.301169,78.8132587 131.398518,76.9084922 129.05141,76.9084922 Z" id="Stroke-135" stroke="#000000" stroke-width="2" mask="url(#mask-10)"></path>
                </g>
                <path d="M139.156205,70.5004222 C139.156205,108.969781 108.004518,140.156111 69.5778916,140.156111 C31.1512651,140.156111 -0.000421686747,108.969781 -0.000421686747,70.5004222 C-0.000421686747,32.0310629 31.1512651,0.844733533 69.5778916,0.844733533 C108.004518,0.844733533 139.156205,32.0310629 139.156205,70.5004222 Z" id="Stroke-137" stroke="#4BA6EA" stroke-width="2"></path>
            </g>
        </g>
    </g>
</svg>