<?xml version="1.0" encoding="UTF-8"?>
<svg width="142px" height="141px" viewBox="0 0 142 141" version="1.1" xmlns="http://www.w3.org/2000/svg" xmlns:xlink="http://www.w3.org/1999/xlink">
    <!-- Generator: sketchtool 52.5 (67469) - http://www.bohemiancoding.com/sketch -->
    <title>DF75C1CD-1E37-4A45-8E29-FBEC15F83D28</title>
    <desc>Created with sketchtool.</desc>
    <defs>
        <path d="M0.17373494,69.5 C0.17373494,107.883376 31.3254217,139 69.7528916,139 C108.179518,139 139.331205,107.883376 139.331205,69.5 C139.331205,31.1157818 108.179518,0 69.7528916,0 C31.3254217,0 0.17373494,31.1157818 0.17373494,69.5" id="path-1"></path>
        <path d="M0.17373494,69.5 C0.17373494,107.883376 31.3254217,139 69.7528916,139 C108.179518,139 139.331205,107.883376 139.331205,69.5 C139.331205,31.1157818 108.179518,0 69.7528916,0 C31.3254217,0 0.17373494,31.1157818 0.17373494,69.5 Z" id="path-3"></path>
        <path d="M0.17373494,69.5 C0.17373494,107.883376 31.3254217,139 69.7528916,139 C108.179518,139 139.331205,107.883376 139.331205,69.5 C139.331205,31.1157818 108.179518,0 69.7528916,0 C31.3254217,0 0.17373494,31.1157818 0.17373494,69.5 Z" id="path-5"></path>
        <path d="M0.17373494,69.5 C0.17373494,107.883376 31.3254217,139 69.7528916,139 C108.179518,139 139.331205,107.883376 139.331205,69.5 C139.331205,31.1157818 108.179518,0 69.7528916,0 C31.3254217,0 0.17373494,31.1157818 0.17373494,69.5 Z" id="path-7"></path>
        <path d="M0.17373494,69.5 C0.17373494,107.883376 31.3254217,139 69.7528916,139 C108.179518,139 139.331205,107.883376 139.331205,69.5 C139.331205,31.1157818 108.179518,0 69.7528916,0 C31.3254217,0 0.17373494,31.1157818 0.17373494,69.5" id="path-9"></path>
        <path d="M0.17373494,69.5 C0.17373494,107.883376 31.3254217,139 69.7528916,139 C108.179518,139 139.331205,107.883376 139.331205,69.5 C139.331205,31.1157818 108.179518,0 69.7528916,0 C31.3254217,0 0.17373494,31.1157818 0.17373494,69.5" id="path-11"></path>
        <path d="M0.17373494,69.5 C0.17373494,107.883376 31.3254217,139 69.7528916,139 C108.179518,139 139.331205,107.883376 139.331205,69.5 C139.331205,31.1157818 108.179518,0 69.7528916,0 C31.3254217,0 0.17373494,31.1157818 0.17373494,69.5 Z" id="path-13"></path>
        <path d="M0.17373494,69.5 C0.17373494,107.883376 31.3254217,139 69.7528916,139 C108.179518,139 139.331205,107.883376 139.331205,69.5 C139.331205,31.1157818 108.179518,0 69.7528916,0 C31.3254217,0 0.17373494,31.1157818 0.17373494,69.5 Z" id="path-15"></path>
        <path d="M0.17373494,69.5 C0.17373494,107.883376 31.3254217,139 69.7528916,139 C108.179518,139 139.331205,107.883376 139.331205,69.5 C139.331205,31.1157818 108.179518,0 69.7528916,0 C31.3254217,0 0.17373494,31.1157818 0.17373494,69.5" id="path-17"></path>
        <path d="M0.17373494,69.5 C0.17373494,107.883376 31.3254217,139 69.7528916,139 C108.179518,139 139.331205,107.883376 139.331205,69.5 C139.331205,31.1157818 108.179518,0 69.7528916,0 C31.3254217,0 0.17373494,31.1157818 0.17373494,69.5 Z" id="path-19"></path>
        <path d="M0.17373494,69.5 C0.17373494,107.883376 31.3254217,139 69.7528916,139 C108.179518,139 139.331205,107.883376 139.331205,69.5 C139.331205,31.1157818 108.179518,0 69.7528916,0 C31.3254217,0 0.17373494,31.1157818 0.17373494,69.5" id="path-21"></path>
        <path d="M0.17373494,69.5 C0.17373494,107.883376 31.3254217,139 69.7528916,139 C108.179518,139 139.331205,107.883376 139.331205,69.5 C139.331205,31.1157818 108.179518,0 69.7528916,0 C31.3254217,0 0.17373494,31.1157818 0.17373494,69.5 Z" id="path-23"></path>
        <path d="M0.17373494,69.5 C0.17373494,107.883376 31.3254217,139 69.7528916,139 C108.179518,139 139.331205,107.883376 139.331205,69.5 C139.331205,31.1157818 108.179518,0 69.7528916,0 C31.3254217,0 0.17373494,31.1157818 0.17373494,69.5" id="path-25"></path>
        <path d="M0.17373494,69.5 C0.17373494,107.883376 31.3254217,139 69.7528916,139 C108.179518,139 139.331205,107.883376 139.331205,69.5 C139.331205,31.1157818 108.179518,0 69.7528916,0 C31.3254217,0 0.17373494,31.1157818 0.17373494,69.5 Z" id="path-27"></path>
        <path d="M0.17373494,69.5 C0.17373494,107.883376 31.3254217,139 69.7528916,139 C108.179518,139 139.331205,107.883376 139.331205,69.5 C139.331205,31.1157818 108.179518,0 69.7528916,0 C31.3254217,0 0.17373494,31.1157818 0.17373494,69.5" id="path-29"></path>
        <path d="M0.17373494,69.5 C0.17373494,107.883376 31.3254217,139 69.7528916,139 C108.179518,139 139.331205,107.883376 139.331205,69.5 C139.331205,31.1157818 108.179518,0 69.7528916,0 C31.3254217,0 0.17373494,31.1157818 0.17373494,69.5" id="path-31"></path>
        <path d="M0.17373494,69.5 C0.17373494,107.883376 31.3254217,139 69.7528916,139 C108.179518,139 139.331205,107.883376 139.331205,69.5 C139.331205,31.1157818 108.179518,0 69.7528916,0 C31.3254217,0 0.17373494,31.1157818 0.17373494,69.5 Z" id="path-33"></path>
        <path d="M0.17373494,69.5 C0.17373494,107.883376 31.3254217,139 69.7528916,139 C108.179518,139 139.331205,107.883376 139.331205,69.5 C139.331205,31.1157818 108.179518,0 69.7528916,0 C31.3254217,0 0.17373494,31.1157818 0.17373494,69.5 Z" id="path-35"></path>
        <path d="M0.17373494,69.5 C0.17373494,107.883376 31.3254217,139 69.7528916,139 C108.179518,139 139.331205,107.883376 139.331205,69.5 C139.331205,31.1157818 108.179518,0 69.7528916,0 C31.3254217,0 0.17373494,31.1157818 0.17373494,69.5" id="path-37"></path>
        <path d="M0.17373494,69.5 C0.17373494,107.883376 31.3254217,139 69.7528916,139 C108.179518,139 139.331205,107.883376 139.331205,69.5 C139.331205,31.1157818 108.179518,0 69.7528916,0 C31.3254217,0 0.17373494,31.1157818 0.17373494,69.5" id="path-39"></path>
        <path d="M0.17373494,69.5 C0.17373494,107.883376 31.3254217,139 69.7528916,139 C108.179518,139 139.331205,107.883376 139.331205,69.5 C139.331205,31.1157818 108.179518,0 69.7528916,0 C31.3254217,0 0.17373494,31.1157818 0.17373494,69.5" id="path-41"></path>
        <path d="M0.17373494,69.5 C0.17373494,107.883376 31.3254217,139 69.7528916,139 C108.179518,139 139.331205,107.883376 139.331205,69.5 C139.331205,31.1157818 108.179518,0 69.7528916,0 C31.3254217,0 0.17373494,31.1157818 0.17373494,69.5" id="path-43"></path>
        <path d="M0.17373494,69.5 C0.17373494,107.883376 31.3254217,139 69.7528916,139 C108.179518,139 139.331205,107.883376 139.331205,69.5 C139.331205,31.1157818 108.179518,0 69.7528916,0 C31.3254217,0 0.17373494,31.1157818 0.17373494,69.5" id="path-45"></path>
        <path d="M0.17373494,69.5 C0.17373494,107.883376 31.3254217,139 69.7528916,139 C108.179518,139 139.331205,107.883376 139.331205,69.5 C139.331205,31.1157818 108.179518,0 69.7528916,0 C31.3254217,0 0.17373494,31.1157818 0.17373494,69.5" id="path-47"></path>
        <path d="M0.17373494,69.5 C0.17373494,107.883376 31.3254217,139 69.7528916,139 C108.179518,139 139.331205,107.883376 139.331205,69.5 C139.331205,31.1157818 108.179518,0 69.7528916,0 C31.3254217,0 0.17373494,31.1157818 0.17373494,69.5 Z" id="path-49"></path>
        <path d="M0.17373494,69.5 C0.17373494,107.883376 31.3254217,139 69.7528916,139 C108.179518,139 139.331205,107.883376 139.331205,69.5 C139.331205,31.1157818 108.179518,0 69.7528916,0 C31.3254217,0 0.17373494,31.1157818 0.17373494,69.5 Z" id="path-51"></path>
    </defs>
    <g id="Page-1" stroke="none" stroke-width="1" fill="none" fill-rule="evenodd">
        <g id="Careers_page" transform="translate(-557.000000, -3353.000000)">
            <g id="Group-121" transform="translate(558.000000, 3354.000000)">
                <g id="Group-118">
                    <g id="Group-3">
                        <mask id="mask-2" fill="white">
                            <use xlink:href="#path-1"></use>
                        </mask>
                        <g id="Clip-2"></g>
                        <path d="M0.311795181,131.616825 L0.280590361,111.388535 L13.013,111.368316 L21.083241,109.352395 L25.0403494,109.345656 L38.9248072,115.119632 L61.8426386,115.08425 L69.6640843,116.488571 L159.793723,116.349571 L181.555289,121.022498 L181.571313,131.337141 C181.571313,131.337141 0.520108434,131.407904 0.311795181,131.616825" id="Fill-1" fill="#FFFFFF" mask="url(#mask-2)"></path>
                    </g>
                    <g id="Group-6">
                        <mask id="mask-4" fill="white">
                            <use xlink:href="#path-3"></use>
                        </mask>
                        <g id="Clip-5"></g>
                        <path d="M0.311795181,131.616825 L0.280590361,111.388535 L13.013,111.368316 L21.083241,109.352395 L25.0403494,109.345656 L38.9248072,115.119632 L61.8426386,115.08425 L69.6640843,116.488571 L159.793723,116.349571 L181.555289,121.022498 L181.571313,131.337141 C181.571313,131.337141 0.520108434,131.407904 0.311795181,131.616825 Z" id="Stroke-4" stroke="#000000" stroke-width="2" mask="url(#mask-4)"></path>
                    </g>
                    <g id="Group-9">
                        <mask id="mask-6" fill="white">
                            <use xlink:href="#path-5"></use>
                        </mask>
                        <g id="Clip-8"></g>
                        <polygon id="Fill-7" fill="#FFFFFF" mask="url(#mask-6)" points="116.689916 116.355721 116.689916 112.049248 120.700157 89.3172721 113.581241 111.949842 113.581241 116.355721"></polygon>
                    </g>
                    <g id="Group-12">
                        <mask id="mask-8" fill="white">
                            <use xlink:href="#path-7"></use>
                        </mask>
                        <g id="Clip-11"></g>
                        <polygon id="Stroke-10" stroke="#000000" stroke-width="2" mask="url(#mask-8)" points="116.689916 116.355721 116.689916 112.049248 120.700157 89.3172721 113.581241 111.949842 113.581241 116.355721"></polygon>
                    </g>
                    <g id="Group-16">
                        <mask id="mask-10" fill="white">
                            <use xlink:href="#path-9"></use>
                        </mask>
                        <g id="Clip-14"></g>
                        <path d="M94.9813133,107.286855 C94.9813133,107.286855 109.27059,109.646485 113.581916,111.949673 L117.191554,112.249576" id="Fill-13" fill="#FFFFFF" mask="url(#mask-10)"></path>
                        <path d="M94.9813133,107.286855 C94.9813133,107.286855 109.27059,109.646485 113.581916,111.949673 L117.191554,112.249576" id="Stroke-15" stroke="#000000" stroke-width="2" mask="url(#mask-10)"></path>
                    </g>
                    <g id="Group-20">
                        <mask id="mask-12" fill="white">
                            <use xlink:href="#path-11"></use>
                        </mask>
                        <g id="Clip-18"></g>
                        <path d="M139.564819,109.244481 C139.564819,109.244481 120.483494,110.595729 116.83253,112.474335" id="Fill-17" fill="#FFFFFF" mask="url(#mask-12)"></path>
                        <path d="M139.564819,109.244481 C139.564819,109.244481 120.483494,110.595729 116.83253,112.474335" id="Stroke-19" stroke="#000000" stroke-width="2" mask="url(#mask-12)"></path>
                    </g>
                    <g id="Group-23">
                        <mask id="mask-14" fill="white">
                            <use xlink:href="#path-13"></use>
                        </mask>
                        <g id="Clip-22"></g>
                        <path d="M42.9508193,81.4477661 C42.9508193,81.4477661 25.1573253,73.0942873 10.0187711,78.8025539 L21.9499759,109.14499 L25.999012,109.14499 L43.832988,86.3414085 L42.9508193,81.4477661 Z" id="Fill-21" fill="#FFFFFF" mask="url(#mask-14)"></path>
                    </g>
                    <g id="Group-26">
                        <mask id="mask-16" fill="white">
                            <use xlink:href="#path-15"></use>
                        </mask>
                        <g id="Clip-25"></g>
                        <path d="M42.9508193,81.4477661 C42.9508193,81.4477661 25.1573253,73.0942873 10.0187711,78.8025539 L21.9499759,109.14499 L25.999012,109.14499 L43.832988,86.3414085 L42.9508193,81.4477661 Z" id="Stroke-24" stroke="#000000" stroke-width="2" mask="url(#mask-16)"></path>
                    </g>
                    <g id="Group-29">
                        <mask id="mask-18" fill="white">
                            <use xlink:href="#path-17"></use>
                        </mask>
                        <g id="Clip-28"></g>
                        <path d="M45.3088072,83.7096752 C45.3088072,83.7096752 28.4657952,93.4228267 25.0568795,108.744839 C25.0568795,108.744839 38.6916988,116.055396 44.3068795,115.053754 C44.3068795,115.053754 37.6897711,95.826263 45.3088072,83.7096752" id="Fill-27" fill="#FFFFFF" mask="url(#mask-18)"></path>
                    </g>
                    <g id="Group-32">
                        <mask id="mask-20" fill="white">
                            <use xlink:href="#path-19"></use>
                        </mask>
                        <g id="Clip-31"></g>
                        <path d="M45.3088072,83.7096752 C45.3088072,83.7096752 28.4657952,93.4228267 25.0568795,108.744839 C25.0568795,108.744839 38.6916988,116.055396 44.3068795,115.053754 C44.3068795,115.053754 37.6897711,95.826263 45.3088072,83.7096752 Z" id="Stroke-30" stroke="#000000" stroke-width="2" mask="url(#mask-20)"></path>
                    </g>
                    <g id="Group-35">
                        <mask id="mask-22" fill="white">
                            <use xlink:href="#path-21"></use>
                        </mask>
                        <g id="Clip-34"></g>
                        <path d="M71.3751205,74.1962624 C71.3751205,74.1962624 52.2263253,100.933965 50.1212651,115.154087 L46.7123494,115.154087 L41.1983735,64.7830139 C41.1983735,64.7830139 61.2487349,65.2834139 71.3751205,74.1962624" id="Fill-33" fill="#FFFFFF" mask="url(#mask-22)"></path>
                    </g>
                    <g id="Group-38">
                        <mask id="mask-24" fill="white">
                            <use xlink:href="#path-23"></use>
                        </mask>
                        <g id="Clip-37"></g>
                        <path d="M71.3751205,74.1962624 C71.3751205,74.1962624 52.2263253,100.933965 50.1212651,115.154087 L46.7123494,115.154087 L41.1983735,64.7830139 C41.1983735,64.7830139 61.2487349,65.2834139 71.3751205,74.1962624 Z" id="Stroke-36" stroke="#000000" stroke-width="2" mask="url(#mask-24)"></path>
                    </g>
                    <g id="Group-41">
                        <mask id="mask-26" fill="white">
                            <use xlink:href="#path-25"></use>
                        </mask>
                        <g id="Clip-40"></g>
                        <path d="M61.6499277,44.8545418 C61.6499277,44.8545418 70.5728193,61.1773539 77.1899277,115.654402 L83.4553494,115.654402 L120.750169,89.3673964 C120.750169,89.3673964 107.014988,47.8089236 61.6499277,44.8545418" id="Fill-39" fill="#FFFFFF" mask="url(#mask-26)"></path>
                    </g>
                    <g id="Group-44">
                        <mask id="mask-28" fill="white">
                            <use xlink:href="#path-27"></use>
                        </mask>
                        <g id="Clip-43"></g>
                        <path d="M61.6499277,44.8545418 C61.6499277,44.8545418 70.5728193,61.1773539 77.1899277,115.654402 L83.4553494,115.654402 L120.750169,89.3673964 C120.750169,89.3673964 107.014988,47.8089236 61.6499277,44.8545418 Z" id="Stroke-42" stroke="#000000" stroke-width="2" mask="url(#mask-28)"></path>
                    </g>
                    <g id="Group-48">
                        <mask id="mask-30" fill="white">
                            <use xlink:href="#path-29"></use>
                        </mask>
                        <g id="Clip-46"></g>
                        <path d="M72.0529398,81.7739527 C72.0529398,81.7739527 68.5672771,105.040025 74.2828193,115.855068" id="Fill-45" fill="#FFFFFF" mask="url(#mask-30)"></path>
                        <path d="M72.0529398,81.7739527 C72.0529398,81.7739527 68.5672771,105.040025 74.2828193,115.855068" id="Stroke-47" stroke="#000000" stroke-width="2" mask="url(#mask-30)"></path>
                    </g>
                    <g id="Group-52">
                        <mask id="mask-32" fill="white">
                            <use xlink:href="#path-31"></use>
                        </mask>
                        <g id="Clip-50"></g>
                        <path d="M52.0632169,107.874278 L72.1827349,109.701496" id="Fill-49" fill="#FFFFFF" mask="url(#mask-32)"></path>
                        <path d="M52.0632169,107.874278 L72.1827349,109.701496" id="Stroke-51" stroke="#000000" stroke-width="2" mask="url(#mask-32)"></path>
                    </g>
                    <g id="Group-55">
                        <mask id="mask-34" fill="white">
                            <use xlink:href="#path-33"></use>
                        </mask>
                        <g id="Clip-54"></g>
                        <path d="M150.876229,116.455632 C150.876229,116.455632 158.095506,93.9241533 171.428398,78.5018927 C171.428398,78.5018927 142.15406,70.9916806 120.700325,89.3177776 L146.565747,116.455632 L150.876229,116.455632 Z" id="Fill-53" fill="#FFFFFF" mask="url(#mask-34)"></path>
                    </g>
                    <g id="Group-58">
                        <mask id="mask-36" fill="white">
                            <use xlink:href="#path-35"></use>
                        </mask>
                        <g id="Clip-57"></g>
                        <path d="M150.876229,116.455632 C150.876229,116.455632 158.095506,93.9241533 171.428398,78.5018927 C171.428398,78.5018927 142.15406,70.9916806 120.700325,89.3177776 L146.565747,116.455632 L150.876229,116.455632 Z" id="Stroke-56" stroke="#000000" stroke-width="2" mask="url(#mask-36)"></path>
                    </g>
                    <g id="Group-62">
                        <mask id="mask-38" fill="white">
                            <use xlink:href="#path-37"></use>
                        </mask>
                        <g id="Clip-60"></g>
                        <path d="M12.8265301,111.949421 L12.8265301,131.625081" id="Fill-59" fill="#FFFFFF" mask="url(#mask-38)"></path>
                        <path d="M12.8265301,111.949421 L12.8265301,131.625081" id="Stroke-61" stroke="#000000" stroke-width="2" mask="url(#mask-38)"></path>
                    </g>
                    <g id="Group-66">
                        <mask id="mask-40" fill="white">
                            <use xlink:href="#path-39"></use>
                        </mask>
                        <g id="Clip-64"></g>
                        <path d="M39.193506,114.653181 L39.193506,131.625502" id="Fill-63" fill="#FFFFFF" mask="url(#mask-40)"></path>
                        <path d="M39.193506,114.653181 L39.193506,131.625502" id="Stroke-65" stroke="#000000" stroke-width="2" mask="url(#mask-40)"></path>
                    </g>
                    <g id="Group-70">
                        <mask id="mask-42" fill="white">
                            <use xlink:href="#path-41"></use>
                        </mask>
                        <g id="Clip-68"></g>
                        <path d="M47.5143976,114.653181 L47.5143976,131.625502" id="Fill-67" fill="#FFFFFF" mask="url(#mask-42)"></path>
                        <path d="M47.5143976,114.653181 L47.5143976,131.625502" id="Stroke-69" stroke="#000000" stroke-width="2" mask="url(#mask-42)"></path>
                    </g>
                    <g id="Group-74">
                        <mask id="mask-44" fill="white">
                            <use xlink:href="#path-43"></use>
                        </mask>
                        <g id="Clip-72"></g>
                        <path d="M61.2489036,114.653181 L61.2489036,131.625502" id="Fill-71" fill="#FFFFFF" mask="url(#mask-44)"></path>
                        <path d="M61.2489036,114.653181 L61.2489036,131.625502" id="Stroke-73" stroke="#000000" stroke-width="2" mask="url(#mask-44)"></path>
                    </g>
                    <g id="Group-78">
                        <mask id="mask-46" fill="white">
                            <use xlink:href="#path-45"></use>
                        </mask>
                        <g id="Clip-76"></g>
                        <path d="M69.2699759,116.455632 L69.2699759,131.625165" id="Fill-75" fill="#FFFFFF" mask="url(#mask-46)"></path>
                        <path d="M69.2699759,116.455632 L69.2699759,131.625165" id="Stroke-77" stroke="#000000" stroke-width="2" mask="url(#mask-46)"></path>
                    </g>
                    <g id="Group-81">
                        <mask id="mask-48" fill="white">
                            <use xlink:href="#path-47"></use>
                        </mask>
                        <g id="Clip-80"></g>
                        <path d="M-4.21720482,116.055396 L-4.21720482,131.977215 L28.1649639,131.977215 L3.30231325,116.255051 C3.30231325,116.255051 -4.21720482,116.455548 -4.21720482,116.055396" id="Fill-79" fill="#FFFFFF" mask="url(#mask-48)"></path>
                    </g>
                    <g id="Group-84">
                        <mask id="mask-50" fill="white">
                            <use xlink:href="#path-49"></use>
                        </mask>
                        <g id="Clip-83"></g>
                        <path d="M-4.21720482,116.055396 L-4.21720482,131.977215 L28.1649639,131.977215 L3.30231325,116.255051 C3.30231325,116.255051 -4.21720482,116.455548 -4.21720482,116.055396 Z" id="Stroke-82" stroke="#000000" stroke-width="2" mask="url(#mask-50)"></path>
                    </g>
                    <mask id="mask-52" fill="white">
                        <use xlink:href="#path-51"></use>
                    </mask>
                    <g id="Clip-86"></g>
                    <polygon id="Fill-85" fill="#FFFFFF" mask="url(#mask-52)" points="129.823012 123.165794 166.215422 123.165794 166.215422 120.061461 129.823012 120.061461"></polygon>
                    <polygon id="Stroke-87" stroke="#000000" stroke-width="2" mask="url(#mask-52)" points="129.823012 123.165794 166.215422 123.165794 166.215422 120.061461 129.823012 120.061461"></polygon>
                    <polygon id="Fill-88" fill="#FFFFFF" mask="url(#mask-52)" points="72.5773494 123.165794 108.969759 123.165794 108.969759 120.061461 72.5773494 120.061461"></polygon>
                    <polygon id="Stroke-89" stroke="#000000" stroke-width="2" mask="url(#mask-52)" points="72.5773494 123.165794 108.969759 123.165794 108.969759 120.061461 72.5773494 120.061461"></polygon>
                    <polygon id="Fill-90" fill="#FFFFFF" mask="url(#mask-52)" points="81.3998795 131.264018 102.754096 131.264018 102.754096 126.369533 81.3998795 126.369533"></polygon>
                    <polygon id="Stroke-91" stroke="#000000" stroke-width="2" mask="url(#mask-52)" points="81.3998795 131.264018 102.754096 131.264018 102.754096 126.369533 81.3998795 126.369533"></polygon>
                    <g id="Group-94" mask="url(#mask-52)">
                        <g transform="translate(85.180723, 126.363636)">
                            <path d="M0.530903614,0.00614969697 L0.530903614,4.90316182" id="Fill-92" stroke="none" fill="#FFFFFF" fill-rule="evenodd"></path>
                            <path d="M0.530903614,0.00614969697 L0.530903614,4.90316182" id="Stroke-93" stroke="#000000" stroke-width="2" fill="none"></path>
                        </g>
                    </g>
                    <g id="Group-97" mask="url(#mask-52)">
                        <g transform="translate(89.397590, 126.363636)">
                            <path d="M0.725301205,0.00614969697 L0.725301205,4.90316182" id="Fill-95" stroke="none" fill="#FFFFFF" fill-rule="evenodd"></path>
                            <path d="M0.725301205,0.00614969697 L0.725301205,4.90316182" id="Stroke-96" stroke="#000000" stroke-width="2" fill="none"></path>
                        </g>
                    </g>
                    <g id="Group-100" mask="url(#mask-52)">
                        <g transform="translate(93.614458, 126.363636)">
                            <path d="M0.918855422,0.00614969697 L0.918855422,4.90316182" id="Fill-98" stroke="none" fill="#FFFFFF" fill-rule="evenodd"></path>
                            <path d="M0.918855422,0.00614969697 L0.918855422,4.90316182" id="Stroke-99" stroke="#000000" stroke-width="2" fill="none"></path>
                        </g>
                    </g>
                    <g id="Group-103" mask="url(#mask-52)">
                        <g transform="translate(97.831325, 126.363636)">
                            <path d="M1.01356627,0.00614969697 L1.01356627,4.90316182" id="Fill-101" stroke="none" fill="#FFFFFF" fill-rule="evenodd"></path>
                            <path d="M1.01356627,0.00614969697 L1.01356627,4.90316182" id="Stroke-102" stroke="#000000" stroke-width="2" fill="none"></path>
                        </g>
                    </g>
                    <polygon id="Fill-104" fill="#FFFFFF" mask="url(#mask-52)" points="109.672289 131.264018 131.026506 131.264018 131.026506 126.369533 109.672289 126.369533"></polygon>
                    <polygon id="Stroke-105" stroke="#000000" stroke-width="2" mask="url(#mask-52)" points="109.672289 131.264018 131.026506 131.264018 131.026506 126.369533 109.672289 126.369533"></polygon>
                    <g id="Group-108" mask="url(#mask-52)">
                        <g transform="translate(113.012048, 126.363636)">
                            <path d="M0.970722892,0.00614969697 L0.970722892,4.90316182" id="Fill-106" stroke="none" fill="#FFFFFF" fill-rule="evenodd"></path>
                            <path d="M0.970722892,0.00614969697 L0.970722892,4.90316182" id="Stroke-107" stroke="#000000" stroke-width="2" fill="none"></path>
                        </g>
                    </g>
                    <g id="Group-111" mask="url(#mask-52)">
                        <g transform="translate(117.228916, 126.363636)">
                            <path d="M1.16512048,0.00614969697 L1.16512048,4.90316182" id="Fill-109" stroke="none" fill="#FFFFFF" fill-rule="evenodd"></path>
                            <path d="M1.16512048,0.00614969697 L1.16512048,4.90316182" id="Stroke-110" stroke="#000000" stroke-width="2" fill="none"></path>
                        </g>
                    </g>
                    <g id="Group-114" mask="url(#mask-52)">
                        <g transform="translate(122.289157, 126.363636)">
                            <path d="M0.516060241,0.00614969697 L0.516060241,4.90316182" id="Fill-112" stroke="none" fill="#FFFFFF" fill-rule="evenodd"></path>
                            <path d="M0.516060241,0.00614969697 L0.516060241,4.90316182" id="Stroke-113" stroke="#000000" stroke-width="2" fill="none"></path>
                        </g>
                    </g>
                    <g id="Group-117" mask="url(#mask-52)">
                        <g transform="translate(126.506024, 126.363636)">
                            <path d="M0.610012048,0.00614969697 L0.610012048,4.90316182" id="Fill-115" stroke="none" fill="#FFFFFF" fill-rule="evenodd"></path>
                            <path d="M0.610012048,0.00614969697 L0.610012048,4.90316182" id="Stroke-116" stroke="#000000" stroke-width="2" fill="none"></path>
                        </g>
                    </g>
                </g>
                <path d="M139.330867,69.5 C139.330867,107.883376 108.179181,139 69.7525542,139 C31.3259277,139 0.174240964,107.883376 0.174240964,69.5 C0.174240964,31.1166242 31.3259277,0 69.7525542,0 C108.179181,0 139.330867,31.1166242 139.330867,69.5 Z" id="Stroke-119" stroke="#25C8F9" stroke-width="2"></path>
            </g>
        </g>
    </g>
</svg>