<?xml version="1.0" encoding="UTF-8"?>
<svg width="142px" height="144px" viewBox="0 0 142 144" version="1.1" xmlns="http://www.w3.org/2000/svg" xmlns:xlink="http://www.w3.org/1999/xlink">
    <!-- Generator: sketchtool 52.5 (67469) - http://www.bohemiancoding.com/sketch -->
    <title>E1D00C1F-AC9A-4C1B-933A-099581ED176E</title>
    <desc>Created with sketchtool.</desc>
    <defs>
        <path d="M69.578303,0.180263473 C30.9187879,0.414095808 -0.232484848,32.009521 0.0016969697,70.7517126 C0.234181818,109.493904 31.7621818,140.710946 70.421697,140.477114 C109.080364,140.244132 140.231636,108.647856 139.998303,69.906515 C139.765818,31.3054731 108.473697,0.176011976 70.0084848,0.179413174 C69.8667879,0.179413174 69.7191515,0.179413174 69.578303,0.180263473" id="path-1"></path>
        <path d="M69.578303,0.180263473 C30.9187879,0.414095808 -0.232484848,32.009521 0.0016969697,70.7517126 C0.234181818,109.493904 31.7621818,140.710946 70.421697,140.477114 C109.080364,140.244132 140.231636,108.647856 139.998303,69.906515 C139.765818,31.3054731 108.473697,0.176011976 70.0084848,0.179413174 C69.8667879,0.179413174 69.7191515,0.179413174 69.578303,0.180263473 Z" id="path-3"></path>
        <path d="M69.578303,0.180263473 C30.9187879,0.414095808 -0.232484848,32.009521 0.0016969697,70.7517126 C0.234181818,109.493904 31.7621818,140.710946 70.421697,140.477114 C109.080364,140.244132 140.231636,108.647856 139.998303,69.906515 C139.765818,31.3054731 108.473697,0.176011976 70.0084848,0.179413174 C69.8667879,0.179413174 69.7191515,0.179413174 69.578303,0.180263473 Z" id="path-5"></path>
        <path d="M69.578303,0.180263473 C30.9187879,0.414095808 -0.232484848,32.009521 0.0016969697,70.7517126 C0.234181818,109.493904 31.7621818,140.710946 70.421697,140.477114 C109.080364,140.244132 140.231636,108.647856 139.998303,69.906515 C139.765818,31.3054731 108.473697,0.176011976 70.0084848,0.179413174 C69.8667879,0.179413174 69.7191515,0.179413174 69.578303,0.180263473 Z" id="path-7"></path>
        <path d="M69.578303,0.180263473 C30.9187879,0.414095808 -0.232484848,32.009521 0.0016969697,70.7517126 C0.234181818,109.493904 31.7621818,140.710946 70.421697,140.477114 C109.080364,140.244132 140.231636,108.647856 139.998303,69.906515 C139.765818,31.3054731 108.473697,0.176011976 70.0084848,0.179413174 C69.8667879,0.179413174 69.7191515,0.179413174 69.578303,0.180263473 Z" id="path-9"></path>
        <path d="M69.578303,0.180263473 C30.9187879,0.414095808 -0.232484848,32.009521 0.0016969697,70.7517126 C0.234181818,109.493904 31.7621818,140.710946 70.421697,140.477114 C109.080364,140.244132 140.231636,108.647856 139.998303,69.906515 C139.765818,31.3054731 108.473697,0.176011976 70.0084848,0.179413174 C69.8667879,0.179413174 69.7191515,0.179413174 69.578303,0.180263473 Z" id="path-11"></path>
        <path d="M69.578303,0.180263473 C30.9187879,0.414095808 -0.232484848,32.009521 0.0016969697,70.7517126 C0.234181818,109.493904 31.7621818,140.710946 70.421697,140.477114 C109.080364,140.244132 140.231636,108.647856 139.998303,69.906515 C139.765818,31.3054731 108.473697,0.176011976 70.0084848,0.179413174 C69.8667879,0.179413174 69.7191515,0.179413174 69.578303,0.180263473 Z" id="path-13"></path>
        <path d="M69.578303,0.180263473 C30.9187879,0.414095808 -0.232484848,32.009521 0.0016969697,70.7517126 C0.234181818,109.493904 31.7621818,140.710946 70.421697,140.477114 C109.080364,140.244132 140.231636,108.647856 139.998303,69.906515 C139.765818,31.3054731 108.473697,0.176011976 70.0084848,0.179413174 C69.8667879,0.179413174 69.7191515,0.179413174 69.578303,0.180263473 Z" id="path-15"></path>
        <path d="M69.578303,0.180263473 C30.9187879,0.414095808 -0.232484848,32.009521 0.0016969697,70.7517126 C0.234181818,109.493904 31.7621818,140.710946 70.421697,140.477114 C109.080364,140.244132 140.231636,108.647856 139.998303,69.906515 C139.765818,31.3054731 108.473697,0.176011976 70.0084848,0.179413174 C69.8667879,0.179413174 69.7191515,0.179413174 69.578303,0.180263473 Z" id="path-17"></path>
        <path d="M69.578303,0.180263473 C30.9187879,0.414095808 -0.232484848,32.009521 0.0016969697,70.7517126 C0.234181818,109.493904 31.7621818,140.710946 70.421697,140.477114 C109.080364,140.244132 140.231636,108.647856 139.998303,69.906515 C139.765818,31.3054731 108.473697,0.176011976 70.0084848,0.179413174 C69.8667879,0.179413174 69.7191515,0.179413174 69.578303,0.180263473 Z" id="path-19"></path>
        <path d="M69.578303,0.180263473 C30.9187879,0.414095808 -0.232484848,32.009521 0.0016969697,70.7517126 C0.234181818,109.493904 31.7621818,140.710946 70.421697,140.477114 C109.080364,140.244132 140.231636,108.647856 139.998303,69.906515 C139.765818,31.3054731 108.473697,0.176011976 70.0084848,0.179413174 C69.8667879,0.179413174 69.7191515,0.179413174 69.578303,0.180263473 Z" id="path-21"></path>
        <path d="M69.578303,0.180263473 C30.9187879,0.414095808 -0.232484848,32.009521 0.0016969697,70.7517126 C0.234181818,109.493904 31.7621818,140.710946 70.421697,140.477114 C109.080364,140.244132 140.231636,108.647856 139.998303,69.906515 C139.765818,31.3054731 108.473697,0.176011976 70.0084848,0.179413174 C69.8667879,0.179413174 69.7191515,0.179413174 69.578303,0.180263473" id="path-23"></path>
        <path d="M69.578303,0.180263473 C30.9187879,0.414095808 -0.232484848,32.009521 0.0016969697,70.7517126 C0.234181818,109.493904 31.7621818,140.710946 70.421697,140.477114 C109.080364,140.244132 140.231636,108.647856 139.998303,69.906515 C139.765818,31.3054731 108.473697,0.176011976 70.0084848,0.179413174 C69.8667879,0.179413174 69.7191515,0.179413174 69.578303,0.180263473 Z" id="path-25"></path>
        <path d="M69.578303,0.180263473 C30.9187879,0.414095808 -0.232484848,32.009521 0.0016969697,70.7517126 C0.234181818,109.493904 31.7621818,140.710946 70.421697,140.477114 C109.080364,140.244132 140.231636,108.647856 139.998303,69.906515 C139.765818,31.3054731 108.473697,0.176011976 70.0084848,0.179413174 C69.8667879,0.179413174 69.7191515,0.179413174 69.578303,0.180263473 Z" id="path-27"></path>
        <path d="M69.578303,0.180263473 C30.9187879,0.414095808 -0.232484848,32.009521 0.0016969697,70.7517126 C0.234181818,109.493904 31.7621818,140.710946 70.421697,140.477114 C109.080364,140.244132 140.231636,108.647856 139.998303,69.906515 C139.765818,31.3054731 108.473697,0.176011976 70.0084848,0.179413174 C69.8667879,0.179413174 69.7191515,0.179413174 69.578303,0.180263473 Z" id="path-29"></path>
        <path d="M69.578303,0.180263473 C30.9187879,0.414095808 -0.232484848,32.009521 0.0016969697,70.7517126 C0.234181818,109.493904 31.7621818,140.710946 70.421697,140.477114 C109.080364,140.244132 140.231636,108.647856 139.998303,69.906515 C139.765818,31.3054731 108.473697,0.176011976 70.0084848,0.179413174 C69.8667879,0.179413174 69.7191515,0.179413174 69.578303,0.180263473 Z" id="path-31"></path>
        <path d="M69.578303,0.180263473 C30.9187879,0.414095808 -0.232484848,32.009521 0.0016969697,70.7517126 C0.234181818,109.493904 31.7621818,140.710946 70.421697,140.477114 C109.080364,140.244132 140.231636,108.647856 139.998303,69.906515 C139.765818,31.3054731 108.473697,0.176011976 70.0084848,0.179413174 C69.8667879,0.179413174 69.7191515,0.179413174 69.578303,0.180263473 Z" id="path-33"></path>
        <path d="M69.578303,0.180263473 C30.9187879,0.414095808 -0.232484848,32.009521 0.0016969697,70.7517126 C0.234181818,109.493904 31.7621818,140.710946 70.421697,140.477114 C109.080364,140.244132 140.231636,108.647856 139.998303,69.906515 C139.765818,31.3054731 108.473697,0.176011976 70.0084848,0.179413174 C69.8667879,0.179413174 69.7191515,0.179413174 69.578303,0.180263473 Z" id="path-35"></path>
        <path d="M69.578303,0.180263473 C30.9187879,0.414095808 -0.232484848,32.009521 0.0016969697,70.7517126 C0.234181818,109.493904 31.7621818,140.710946 70.421697,140.477114 C109.080364,140.244132 140.231636,108.647856 139.998303,69.906515 C139.765818,31.3054731 108.473697,0.176011976 70.0084848,0.179413174 C69.8667879,0.179413174 69.7191515,0.179413174 69.578303,0.180263473 Z" id="path-37"></path>
        <path d="M69.578303,0.180263473 C30.9187879,0.414095808 -0.232484848,32.009521 0.0016969697,70.7517126 C0.234181818,109.493904 31.7621818,140.710946 70.421697,140.477114 C109.080364,140.244132 140.231636,108.647856 139.998303,69.906515 C139.765818,31.3054731 108.473697,0.176011976 70.0084848,0.179413174 C69.8667879,0.179413174 69.7191515,0.179413174 69.578303,0.180263473 Z" id="path-39"></path>
        <path d="M69.578303,0.180263473 C30.9187879,0.414095808 -0.232484848,32.009521 0.0016969697,70.7517126 C0.234181818,109.493904 31.7621818,140.710946 70.421697,140.477114 C109.080364,140.244132 140.231636,108.647856 139.998303,69.906515 C139.765818,31.3054731 108.473697,0.176011976 70.0084848,0.179413174 C69.8667879,0.179413174 69.7191515,0.179413174 69.578303,0.180263473 Z" id="path-41"></path>
        <path d="M69.578303,0.180263473 C30.9187879,0.414095808 -0.232484848,32.009521 0.0016969697,70.7517126 C0.234181818,109.493904 31.7621818,140.710946 70.421697,140.477114 C109.080364,140.244132 140.231636,108.647856 139.998303,69.906515 C139.765818,31.3054731 108.473697,0.176011976 70.0084848,0.179413174 C69.8667879,0.179413174 69.7191515,0.179413174 69.578303,0.180263473 Z" id="path-43"></path>
        <path d="M69.578303,0.180263473 C30.9187879,0.414095808 -0.232484848,32.009521 0.0016969697,70.7517126 C0.234181818,109.493904 31.7621818,140.710946 70.421697,140.477114 C109.080364,140.244132 140.231636,108.647856 139.998303,69.906515 C139.765818,31.3054731 108.473697,0.176011976 70.0084848,0.179413174 C69.8667879,0.179413174 69.7191515,0.179413174 69.578303,0.180263473 Z" id="path-45"></path>
        <path d="M69.578303,0.180263473 C30.9187879,0.414095808 -0.232484848,32.009521 0.0016969697,70.7517126 C0.234181818,109.493904 31.7621818,140.710946 70.421697,140.477114 C109.080364,140.244132 140.231636,108.647856 139.998303,69.906515 C139.765818,31.3054731 108.473697,0.176011976 70.0084848,0.179413174 C69.8667879,0.179413174 69.7191515,0.179413174 69.578303,0.180263473 Z" id="path-47"></path>
        <path d="M69.578303,0.180263473 C30.9187879,0.414095808 -0.232484848,32.009521 0.0016969697,70.7517126 C0.234181818,109.493904 31.7621818,140.710946 70.421697,140.477114 C109.080364,140.244132 140.231636,108.647856 139.998303,69.906515 C139.765818,31.3054731 108.473697,0.176011976 70.0084848,0.179413174 C69.8667879,0.179413174 69.7191515,0.179413174 69.578303,0.180263473 Z" id="path-49"></path>
        <path d="M69.578303,0.180263473 C30.9187879,0.414095808 -0.232484848,32.009521 0.0016969697,70.7517126 C0.234181818,109.493904 31.7621818,140.710946 70.421697,140.477114 C109.080364,140.244132 140.231636,108.647856 139.998303,69.906515 C139.765818,31.3054731 108.473697,0.176011976 70.0084848,0.179413174 C69.8667879,0.179413174 69.7191515,0.179413174 69.578303,0.180263473 Z" id="path-51"></path>
        <path d="M69.578303,0.180263473 C30.9187879,0.414095808 -0.232484848,32.009521 0.0016969697,70.7517126 C0.234181818,109.493904 31.7621818,140.710946 70.421697,140.477114 C109.080364,140.244132 140.231636,108.647856 139.998303,69.906515 C139.765818,31.3054731 108.473697,0.176011976 70.0084848,0.179413174 C69.8667879,0.179413174 69.7191515,0.179413174 69.578303,0.180263473 Z" id="path-53"></path>
        <path d="M69.578303,0.180263473 C30.9187879,0.414095808 -0.232484848,32.009521 0.0016969697,70.7517126 C0.234181818,109.493904 31.7621818,140.710946 70.421697,140.477114 C109.080364,140.244132 140.231636,108.647856 139.998303,69.906515 C139.765818,31.3054731 108.473697,0.176011976 70.0084848,0.179413174 C69.8667879,0.179413174 69.7191515,0.179413174 69.578303,0.180263473 Z" id="path-55"></path>
        <path d="M69.578303,0.180263473 C30.9187879,0.414095808 -0.232484848,32.009521 0.0016969697,70.7517126 C0.234181818,109.493904 31.7621818,140.710946 70.421697,140.477114 C109.080364,140.244132 140.231636,108.647856 139.998303,69.906515 C139.765818,31.3054731 108.473697,0.176011976 70.0084848,0.179413174 C69.8667879,0.179413174 69.7191515,0.179413174 69.578303,0.180263473 Z" id="path-57"></path>
        <path d="M69.578303,0.180263473 C30.9187879,0.414095808 -0.232484848,32.009521 0.0016969697,70.7517126 C0.234181818,109.493904 31.7621818,140.710946 70.421697,140.477114 C109.080364,140.244132 140.231636,108.647856 139.998303,69.906515 C139.765818,31.3054731 108.473697,0.176011976 70.0084848,0.179413174 C69.8667879,0.179413174 69.7191515,0.179413174 69.578303,0.180263473 Z" id="path-59"></path>
        <path d="M69.578303,0.180263473 C30.9187879,0.414095808 -0.232484848,32.009521 0.0016969697,70.7517126 C0.234181818,109.493904 31.7621818,140.710946 70.421697,140.477114 C109.080364,140.244132 140.231636,108.647856 139.998303,69.906515 C139.765818,31.3054731 108.473697,0.176011976 70.0084848,0.179413174 C69.8667879,0.179413174 69.7191515,0.179413174 69.578303,0.180263473 Z" id="path-61"></path>
        <path d="M69.578303,0.180263473 C30.9187879,0.414095808 -0.232484848,32.009521 0.0016969697,70.7517126 C0.234181818,109.493904 31.7621818,140.710946 70.421697,140.477114 C109.080364,140.244132 140.231636,108.647856 139.998303,69.906515 C139.765818,31.3054731 108.473697,0.176011976 70.0084848,0.179413174 C69.8667879,0.179413174 69.7191515,0.179413174 69.578303,0.180263473 Z" id="path-63"></path>
        <path d="M69.578303,0.180263473 C30.9187879,0.414095808 -0.232484848,32.009521 0.0016969697,70.7517126 C0.234181818,109.493904 31.7621818,140.710946 70.421697,140.477114 C109.080364,140.244132 140.231636,108.647856 139.998303,69.906515 C139.765818,31.3054731 108.473697,0.176011976 70.0084848,0.179413174 C69.8667879,0.179413174 69.7191515,0.179413174 69.578303,0.180263473 Z" id="path-65"></path>
        <path d="M69.578303,0.180263473 C30.9187879,0.414095808 -0.232484848,32.009521 0.0016969697,70.7517126 C0.234181818,109.493904 31.7621818,140.710946 70.421697,140.477114 C109.080364,140.244132 140.231636,108.647856 139.998303,69.906515 C139.765818,31.3054731 108.473697,0.176011976 70.0084848,0.179413174 C69.8667879,0.179413174 69.7191515,0.179413174 69.578303,0.180263473 Z" id="path-67"></path>
        <path d="M69.578303,0.180263473 C30.9187879,0.414095808 -0.232484848,32.009521 0.0016969697,70.7517126 C0.234181818,109.493904 31.7621818,140.710946 70.421697,140.477114 C109.080364,140.244132 140.231636,108.647856 139.998303,69.906515 C139.765818,31.3054731 108.473697,0.176011976 70.0084848,0.179413174 C69.8667879,0.179413174 69.7191515,0.179413174 69.578303,0.180263473 Z" id="path-69"></path>
        <path d="M69.578303,0.180263473 C30.9187879,0.414095808 -0.232484848,32.009521 0.0016969697,70.7517126 C0.234181818,109.493904 31.7621818,140.710946 70.421697,140.477114 C109.080364,140.244132 140.231636,108.647856 139.998303,69.906515 C139.765818,31.3054731 108.473697,0.176011976 70.0084848,0.179413174 C69.8667879,0.179413174 69.7191515,0.179413174 69.578303,0.180263473 Z" id="path-71"></path>
        <path d="M69.578303,0.180263473 C30.9187879,0.414095808 -0.232484848,32.009521 0.0016969697,70.7517126 C0.234181818,109.493904 31.7621818,140.710946 70.421697,140.477114 C109.080364,140.244132 140.231636,108.647856 139.998303,69.906515 C139.765818,31.3054731 108.473697,0.176011976 70.0084848,0.179413174 C69.8667879,0.179413174 69.7191515,0.179413174 69.578303,0.180263473 Z" id="path-73"></path>
        <path d="M69.578303,0.180263473 C30.9187879,0.414095808 -0.232484848,32.009521 0.0016969697,70.7517126 C0.234181818,109.493904 31.7621818,140.710946 70.421697,140.477114 C109.080364,140.244132 140.231636,108.647856 139.998303,69.906515 C139.765818,31.3054731 108.473697,0.176011976 70.0084848,0.179413174 C69.8667879,0.179413174 69.7191515,0.179413174 69.578303,0.180263473 Z" id="path-75"></path>
        <path d="M69.578303,0.180263473 C30.9187879,0.414095808 -0.232484848,32.009521 0.0016969697,70.7517126 C0.234181818,109.493904 31.7621818,140.710946 70.421697,140.477114 C109.080364,140.244132 140.231636,108.647856 139.998303,69.906515 C139.765818,31.3054731 108.473697,0.176011976 70.0084848,0.179413174 C69.8667879,0.179413174 69.7191515,0.179413174 69.578303,0.180263473 Z" id="path-77"></path>
        <path d="M69.578303,0.180263473 C30.9187879,0.414095808 -0.232484848,32.009521 0.0016969697,70.7517126 C0.234181818,109.493904 31.7621818,140.710946 70.421697,140.477114 C109.080364,140.244132 140.231636,108.647856 139.998303,69.906515 C139.765818,31.3054731 108.473697,0.176011976 70.0084848,0.179413174 C69.8667879,0.179413174 69.7191515,0.179413174 69.578303,0.180263473 Z" id="path-79"></path>
        <path d="M69.578303,0.180263473 C30.9187879,0.414095808 -0.232484848,32.009521 0.0016969697,70.7517126 C0.234181818,109.493904 31.7621818,140.710946 70.421697,140.477114 C109.080364,140.244132 140.231636,108.647856 139.998303,69.906515 C139.765818,31.3054731 108.473697,0.176011976 70.0084848,0.179413174 C69.8667879,0.179413174 69.7191515,0.179413174 69.578303,0.180263473 Z" id="path-81"></path>
        <path d="M69.578303,0.180263473 C30.9187879,0.414095808 -0.232484848,32.009521 0.0016969697,70.7517126 C0.234181818,109.493904 31.7621818,140.710946 70.421697,140.477114 C109.080364,140.244132 140.231636,108.647856 139.998303,69.906515 C139.765818,31.3054731 108.473697,0.176011976 70.0084848,0.179413174 C69.8667879,0.179413174 69.7191515,0.179413174 69.578303,0.180263473" id="path-83"></path>
        <path d="M69.578303,0.180263473 C30.9187879,0.414095808 -0.232484848,32.009521 0.0016969697,70.7517126 C0.234181818,109.493904 31.7621818,140.710946 70.421697,140.477114 C109.080364,140.244132 140.231636,108.647856 139.998303,69.906515 C139.765818,31.3054731 108.473697,0.176011976 70.0084848,0.179413174 C69.8667879,0.179413174 69.7191515,0.179413174 69.578303,0.180263473" id="path-85"></path>
        <path d="M69.578303,0.180263473 C30.9187879,0.414095808 -0.232484848,32.009521 0.0016969697,70.7517126 C0.234181818,109.493904 31.7621818,140.710946 70.421697,140.477114 C109.080364,140.244132 140.231636,108.647856 139.998303,69.906515 C139.765818,31.3054731 108.473697,0.176011976 70.0084848,0.179413174 C69.8667879,0.179413174 69.7191515,0.179413174 69.578303,0.180263473 Z" id="path-87"></path>
        <path d="M69.578303,0.180263473 C30.9187879,0.414095808 -0.232484848,32.009521 0.0016969697,70.7517126 C0.234181818,109.493904 31.7621818,140.710946 70.421697,140.477114 C109.080364,140.244132 140.231636,108.647856 139.998303,69.906515 C139.765818,31.3054731 108.473697,0.176011976 70.0084848,0.179413174 C69.8667879,0.179413174 69.7191515,0.179413174 69.578303,0.180263473 Z" id="path-89"></path>
    </defs>
    <g id="Page-1" stroke="none" stroke-width="1" fill="none" fill-rule="evenodd">
        <g id="Careers_page" transform="translate(-370.000000, -3350.000000)">
            <g id="Group-142" transform="translate(371.000000, 3351.000000)">
                <g id="Group-139" transform="translate(0.000000, 0.670886)">
                    <g id="Group-4">
                        <mask id="mask-2" fill="white">
                            <use xlink:href="#path-1"></use>
                        </mask>
                        <g id="Clip-2"></g>
                        <polyline id="Fill-1" fill="#FFFFFF" mask="url(#mask-2)" points="59.6292242 30.1162443 69.2561333 18.1763401 78.8287394 29.9997533"></polyline>
                        <polyline id="Stroke-3" stroke="#000000" stroke-width="2" mask="url(#mask-2)" points="59.6292242 30.1162443 69.2561333 18.1763401 78.8287394 29.9997533"></polyline>
                    </g>
                    <g id="Group-7">
                        <mask id="mask-4" fill="white">
                            <use xlink:href="#path-3"></use>
                        </mask>
                        <g id="Clip-6"></g>
                        <polygon id="Fill-5" fill="#FFFFFF" mask="url(#mask-4)" points="82.5831152 57.5060036 56.0951152 57.6658599 55.9305091 30.3168299 82.4185091 30.1569737"></polygon>
                    </g>
                    <g id="Group-10">
                        <mask id="mask-6" fill="white">
                            <use xlink:href="#path-5"></use>
                        </mask>
                        <g id="Clip-9"></g>
                        <polygon id="Stroke-8" stroke="#000000" stroke-width="2" mask="url(#mask-6)" points="82.5831152 57.5060036 56.0951152 57.6658599 55.9305091 30.3168299 82.4185091 30.1569737"></polygon>
                    </g>
                    <g id="Group-13">
                        <mask id="mask-8" fill="white">
                            <use xlink:href="#path-7"></use>
                        </mask>
                        <g id="Clip-12"></g>
                        <polygon id="Fill-11" fill="#FFFFFF" mask="url(#mask-8)" points="88.8464606 108.433411 50.4440364 108.665543 50.1453697 58.9833988 88.5469455 58.7512671"></polygon>
                    </g>
                    <g id="Group-16">
                        <mask id="mask-10" fill="white">
                            <use xlink:href="#path-9"></use>
                        </mask>
                        <g id="Clip-15"></g>
                        <polygon id="Stroke-14" stroke="#000000" stroke-width="2" mask="url(#mask-10)" points="88.8464606 108.433411 50.4440364 108.665543 50.1453697 58.9833988 88.5469455 58.7512671"></polygon>
                    </g>
                    <g id="Group-19">
                        <mask id="mask-12" fill="white">
                            <use xlink:href="#path-11"></use>
                        </mask>
                        <g id="Clip-18"></g>
                        <polygon id="Fill-17" fill="#FFFFFF" mask="url(#mask-12)" points="85.7235273 53.0701617 52.9007394 53.2682814 52.9346788 58.966988 85.7583152 58.7688683"></polygon>
                    </g>
                    <g id="Group-22">
                        <mask id="mask-14" fill="white">
                            <use xlink:href="#path-13"></use>
                        </mask>
                        <g id="Clip-21"></g>
                        <polygon id="Stroke-20" stroke="#000000" stroke-width="2" mask="url(#mask-14)" points="85.7235273 53.0701617 52.9007394 53.2682814 52.9346788 58.966988 85.7583152 58.7688683"></polygon>
                    </g>
                    <g id="Group-25">
                        <mask id="mask-16" fill="white">
                            <use xlink:href="#path-15"></use>
                        </mask>
                        <g id="Clip-24"></g>
                        <polygon id="Fill-23" fill="#FFFFFF" mask="url(#mask-16)" points="72.8106061 69.9968168 73.0422424 108.528984 66.3638182 108.568949 66.1321818 70.0367808"></polygon>
                    </g>
                    <g id="Group-28">
                        <mask id="mask-18" fill="white">
                            <use xlink:href="#path-17"></use>
                        </mask>
                        <g id="Clip-27"></g>
                        <polygon id="Stroke-26" stroke="#000000" stroke-width="2" mask="url(#mask-18)" points="72.8106061 69.9968168 73.0422424 108.528984 66.3638182 108.568949 66.1321818 70.0367808"></polygon>
                    </g>
                    <g id="Group-31">
                        <mask id="mask-20" fill="white">
                            <use xlink:href="#path-19"></use>
                        </mask>
                        <g id="Clip-30"></g>
                        <polygon id="Fill-29" fill="#FFFFFF" mask="url(#mask-20)" points="74.7718788 59.0392635 74.8380606 69.9843174 64.1590303 70.0489401 64.0928485 59.1038862"></polygon>
                    </g>
                    <g id="Group-34">
                        <mask id="mask-22" fill="white">
                            <use xlink:href="#path-21"></use>
                        </mask>
                        <g id="Clip-33"></g>
                        <polygon id="Stroke-32" stroke="#000000" stroke-width="2" mask="url(#mask-22)" points="74.7718788 59.0392635 74.8380606 69.9843174 64.1590303 70.0489401 64.0928485 59.1038862"></polygon>
                    </g>
                    <g id="Group-37">
                        <mask id="mask-24" fill="white">
                            <use xlink:href="#path-23"></use>
                        </mask>
                        <g id="Clip-36"></g>
                        <path d="M72.6167273,64.5225892 L72.6167273,64.527691 C72.6277576,66.2716551 71.2243636,67.694206 69.4849697,67.7044096 C67.7438788,67.7146132 66.3243636,66.3099186 66.3141818,64.5659545 L66.3141818,64.5600024 C66.304,62.8160383 67.7065455,61.3934874 69.4467879,61.3832838 C71.1861818,61.3730802 72.605697,62.7786251 72.6167273,64.5225892" id="Fill-35" fill="#FFFFFF" mask="url(#mask-24)"></path>
                    </g>
                    <g id="Group-40">
                        <mask id="mask-26" fill="white">
                            <use xlink:href="#path-25"></use>
                        </mask>
                        <g id="Clip-39"></g>
                        <path d="M72.6167273,64.5225892 L72.6167273,64.527691 C72.6277576,66.2716551 71.2243636,67.694206 69.4849697,67.7044096 C67.7438788,67.7146132 66.3243636,66.3099186 66.3141818,64.5659545 L66.3141818,64.5600024 C66.304,62.8160383 67.7065455,61.3934874 69.4467879,61.3832838 C71.1861818,61.3730802 72.605697,62.7786251 72.6167273,64.5225892 Z" id="Stroke-38" stroke="#000000" stroke-width="2" mask="url(#mask-26)"></path>
                    </g>
                    <g id="Group-43">
                        <mask id="mask-28" fill="white">
                            <use xlink:href="#path-27"></use>
                        </mask>
                        <g id="Clip-42"></g>
                        <path d="M84.5518545,108.4596 L77.7037333,108.500414 L77.5323394,79.9269533 C77.5145212,77.0384862 78.7465212,74.2835162 80.9101576,72.374594 C83.096703,74.2571569 84.3626424,76.9968216 84.3804606,79.8861389 L84.5518545,108.4596 Z" id="Fill-41" fill="#FFFFFF" mask="url(#mask-28)"></path>
                    </g>
                    <g id="Group-46">
                        <mask id="mask-30" fill="white">
                            <use xlink:href="#path-29"></use>
                        </mask>
                        <g id="Clip-45"></g>
                        <path d="M84.5518545,108.4596 L77.7037333,108.500414 L77.5323394,79.9269533 C77.5145212,77.0384862 78.7465212,74.2835162 80.9101576,72.374594 C83.096703,74.2571569 84.3626424,76.9968216 84.3804606,79.8861389 L84.5518545,108.4596 Z" id="Stroke-44" stroke="#000000" stroke-width="2" mask="url(#mask-30)"></path>
                    </g>
                    <g id="Group-49">
                        <mask id="mask-32" fill="white">
                            <use xlink:href="#path-31"></use>
                        </mask>
                        <g id="Clip-48"></g>
                        <path d="M61.7156485,108.597434 L54.8675273,108.638248 L54.6952848,80.0647868 C54.6774667,77.1763198 55.9103152,74.4213497 58.0739515,72.5124275 C60.260497,74.3949904 61.5255879,77.1346551 61.5434061,80.0239725 L61.7156485,108.597434 Z" id="Fill-47" fill="#FFFFFF" mask="url(#mask-32)"></path>
                    </g>
                    <g id="Group-52">
                        <mask id="mask-34" fill="white">
                            <use xlink:href="#path-33"></use>
                        </mask>
                        <g id="Clip-51"></g>
                        <path d="M61.7156485,108.597434 L54.8675273,108.638248 L54.6952848,80.0647868 C54.6774667,77.1763198 55.9103152,74.4213497 58.0739515,72.5124275 C60.260497,74.3949904 61.5255879,77.1346551 61.5434061,80.0239725 L61.7156485,108.597434 Z" id="Stroke-50" stroke="#000000" stroke-width="2" mask="url(#mask-34)"></path>
                    </g>
                    <g id="Group-55">
                        <mask id="mask-36" fill="white">
                            <use xlink:href="#path-35"></use>
                        </mask>
                        <g id="Clip-54"></g>
                        <path d="M76.7290788,46.0821461 L71.9580485,46.1110563 L71.9173212,39.3239665 C71.9045939,37.3113078 72.7632606,35.392182 74.2718667,34.0623138 C75.7940485,35.3734754 76.6764727,37.2823976 76.6883515,39.2950563 L76.7290788,46.0821461 Z" id="Fill-53" fill="#FFFFFF" mask="url(#mask-36)"></path>
                    </g>
                    <g id="Group-58">
                        <mask id="mask-38" fill="white">
                            <use xlink:href="#path-37"></use>
                        </mask>
                        <g id="Clip-57"></g>
                        <path d="M76.7290788,46.0821461 L71.9580485,46.1110563 L71.9173212,39.3239665 C71.9045939,37.3113078 72.7632606,35.392182 74.2718667,34.0623138 C75.7940485,35.3734754 76.6764727,37.2823976 76.6883515,39.2950563 L76.7290788,46.0821461 Z" id="Stroke-56" stroke="#000000" stroke-width="2" mask="url(#mask-38)"></path>
                    </g>
                    <g id="Group-61">
                        <mask id="mask-40" fill="white">
                            <use xlink:href="#path-39"></use>
                        </mask>
                        <g id="Clip-60"></g>
                        <path d="M66.5149333,46.1440479 L61.7430545,46.1729581 L61.6955394,38.257521 C61.6896,37.3732096 62.5491152,35.4540838 64.0568727,34.1242156 C65.579903,35.4353772 66.4623273,37.3442994 66.4733576,39.3569581 L66.5149333,46.1440479 Z" id="Fill-59" fill="#FFFFFF" mask="url(#mask-40)"></path>
                    </g>
                    <g id="Group-64">
                        <mask id="mask-42" fill="white">
                            <use xlink:href="#path-41"></use>
                        </mask>
                        <g id="Clip-63"></g>
                        <path d="M66.5149333,46.1440479 L61.7430545,46.1729581 L61.6955394,38.257521 C61.6896,37.3732096 62.5491152,35.4540838 64.0568727,34.1242156 C65.579903,35.4353772 66.4623273,37.3442994 66.4733576,39.3569581 L66.5149333,46.1440479 Z" id="Stroke-62" stroke="#000000" stroke-width="2" mask="url(#mask-42)"></path>
                    </g>
                    <g id="Group-67">
                        <mask id="mask-44" fill="white">
                            <use xlink:href="#path-43"></use>
                        </mask>
                        <g id="Clip-66"></g>
                        <polygon id="Fill-65" fill="#FFFFFF" mask="url(#mask-44)" points="92.9181697 173.178268 46.9201091 173.456316 46.5552606 112.904795 92.5541697 112.627598"></polygon>
                    </g>
                    <g id="Group-70">
                        <mask id="mask-46" fill="white">
                            <use xlink:href="#path-45"></use>
                        </mask>
                        <g id="Clip-69"></g>
                        <polygon id="Stroke-68" stroke="#000000" stroke-width="2" mask="url(#mask-46)" points="92.9181697 173.178268 46.9201091 173.456316 46.5552606 112.904795 92.5541697 112.627598"></polygon>
                    </g>
                    <g id="Group-73">
                        <mask id="mask-48" fill="white">
                            <use xlink:href="#path-47"></use>
                        </mask>
                        <g id="Clip-72"></g>
                        <polygon id="Fill-71" fill="#FFFFFF" mask="url(#mask-48)" points="92.5288 108.380267 46.5307394 108.658315 46.5850424 117.723357 92.583103 117.445309"></polygon>
                    </g>
                    <g id="Group-76">
                        <mask id="mask-50" fill="white">
                            <use xlink:href="#path-49"></use>
                        </mask>
                        <g id="Clip-75"></g>
                        <polygon id="Stroke-74" stroke="#000000" stroke-width="2" mask="url(#mask-50)" points="92.5288 108.380267 46.5307394 108.658315 46.5850424 117.723357 92.583103 117.445309"></polygon>
                    </g>
                    <g id="Group-79">
                        <mask id="mask-52" fill="white">
                            <use xlink:href="#path-51"></use>
                        </mask>
                        <g id="Clip-78"></g>
                        <path d="M87.8703636,140.976069 L79.9429697,141.023686 L79.8657576,128.16971 C79.8564242,126.503974 80.5674545,124.915614 81.8138788,123.814477 L83.7925455,122.069662 L85.7924242,123.790668 C87.0532727,124.876501 87.7829697,126.456357 87.7931515,128.122093 L87.8703636,140.976069 Z" id="Fill-77" fill="#FFFFFF" mask="url(#mask-52)"></path>
                    </g>
                    <g id="Group-82">
                        <mask id="mask-54" fill="white">
                            <use xlink:href="#path-53"></use>
                        </mask>
                        <g id="Clip-81"></g>
                        <path d="M87.8703636,140.976069 L79.9429697,141.023686 L79.8657576,128.16971 C79.8564242,126.503974 80.5674545,124.915614 81.8138788,123.814477 L83.7925455,122.069662 L85.7924242,123.790668 C87.0532727,124.876501 87.7829697,126.456357 87.7931515,128.122093 L87.8703636,140.976069 Z" id="Stroke-80" stroke="#000000" stroke-width="2" mask="url(#mask-54)"></path>
                    </g>
                    <g id="Group-85">
                        <mask id="mask-56" fill="white">
                            <use xlink:href="#path-55"></use>
                        </mask>
                        <g id="Clip-84"></g>
                        <path d="M59.7138182,141.146299 L51.7864242,141.193916 L51.7092121,128.33994 C51.6998788,126.674204 52.4100606,125.085844 53.6573333,123.984707 L55.636,122.239892 L57.6358788,123.960898 C58.8967273,125.04588 59.6264242,126.625737 59.6366061,128.292323 L59.7138182,141.146299 Z" id="Fill-83" fill="#FFFFFF" mask="url(#mask-56)"></path>
                    </g>
                    <g id="Group-88">
                        <mask id="mask-58" fill="white">
                            <use xlink:href="#path-57"></use>
                        </mask>
                        <g id="Clip-87"></g>
                        <path d="M59.7138182,141.146299 L51.7864242,141.193916 L51.7092121,128.33994 C51.6998788,126.674204 52.4100606,125.085844 53.6573333,123.984707 L55.636,122.239892 L57.6358788,123.960898 C58.8967273,125.04588 59.6264242,126.625737 59.6366061,128.292323 L59.7138182,141.146299 Z" id="Stroke-86" stroke="#000000" stroke-width="2" mask="url(#mask-58)"></path>
                    </g>
                    <g id="Group-91">
                        <mask id="mask-60" fill="white">
                            <use xlink:href="#path-59"></use>
                        </mask>
                        <g id="Clip-90"></g>
                        <polygon id="Fill-89" fill="#FFFFFF" mask="url(#mask-60)" points="92.5196364 106.936289 88.6912727 104.486576 84.8926061 106.982205 84.9553939 117.491905 92.5832727 117.445139"></polygon>
                    </g>
                    <g id="Group-94">
                        <mask id="mask-62" fill="white">
                            <use xlink:href="#path-61"></use>
                        </mask>
                        <g id="Clip-93"></g>
                        <polygon id="Stroke-92" stroke="#000000" stroke-width="2" mask="url(#mask-62)" points="92.5196364 106.936289 88.6912727 104.486576 84.8926061 106.982205 84.9553939 117.491905 92.5832727 117.445139"></polygon>
                    </g>
                    <g id="Group-97">
                        <mask id="mask-64" fill="white">
                            <use xlink:href="#path-63"></use>
                        </mask>
                        <g id="Clip-96"></g>
                        <polygon id="Fill-95" fill="#FFFFFF" mask="url(#mask-64)" points="54.1497091 107.167995 50.320497 104.718283 46.5218303 107.213911 46.5846182 117.723612 54.212497 117.676846"></polygon>
                    </g>
                    <g id="Group-100">
                        <mask id="mask-66" fill="white">
                            <use xlink:href="#path-65"></use>
                        </mask>
                        <g id="Clip-99"></g>
                        <polygon id="Stroke-98" stroke="#000000" stroke-width="2" mask="url(#mask-66)" points="54.1497091 107.167995 50.320497 104.718283 46.5218303 107.213911 46.5846182 117.723612 54.212497 117.676846"></polygon>
                    </g>
                    <g id="Group-103">
                        <mask id="mask-68" fill="white">
                            <use xlink:href="#path-67"></use>
                        </mask>
                        <g id="Clip-102"></g>
                        <polygon id="Fill-101" fill="#FFFFFF" mask="url(#mask-68)" points="74.4329939 107.045467 69.6789333 104.600856 64.9554182 107.102437 65.0190545 117.612138 74.4957818 117.554317"></polygon>
                    </g>
                    <g id="Group-106">
                        <mask id="mask-70" fill="white">
                            <use xlink:href="#path-69"></use>
                        </mask>
                        <g id="Clip-105"></g>
                        <polygon id="Stroke-104" stroke="#000000" stroke-width="2" mask="url(#mask-70)" points="74.4329939 107.045467 69.6789333 104.600856 64.9554182 107.102437 65.0190545 117.612138 74.4957818 117.554317"></polygon>
                    </g>
                    <g id="Group-109">
                        <mask id="mask-72" fill="white">
                            <use xlink:href="#path-71"></use>
                        </mask>
                        <g id="Clip-108"></g>
                        <polygon id="Fill-107" fill="#FFFFFF" mask="url(#mask-72)" points="85.7168242 51.8964084 82.624097 50.2162168 79.5525818 51.9338216 79.5941576 58.8059413 85.7584 58.7685281"></polygon>
                    </g>
                    <g id="Group-112">
                        <mask id="mask-74" fill="white">
                            <use xlink:href="#path-73"></use>
                        </mask>
                        <g id="Clip-111"></g>
                        <polygon id="Stroke-110" stroke="#000000" stroke-width="2" mask="url(#mask-74)" points="85.7168242 51.8964084 82.624097 50.2162168 79.5525818 51.9338216 79.5941576 58.8059413 85.7584 58.7685281"></polygon>
                    </g>
                    <g id="Group-115">
                        <mask id="mask-76" fill="white">
                            <use xlink:href="#path-75"></use>
                        </mask>
                        <g id="Clip-114"></g>
                        <polygon id="Fill-113" fill="#FFFFFF" mask="url(#mask-76)" points="72.3101697 51.9773569 69.2174424 50.2971653 66.1459273 52.0147701 66.187503 58.8868898 72.3517455 58.8494766"></polygon>
                    </g>
                    <g id="Group-118">
                        <mask id="mask-78" fill="white">
                            <use xlink:href="#path-77"></use>
                        </mask>
                        <g id="Clip-117"></g>
                        <polygon id="Stroke-116" stroke="#000000" stroke-width="2" mask="url(#mask-78)" points="72.3101697 51.9773569 69.2174424 50.2971653 66.1459273 52.0147701 66.187503 58.8868898 72.3517455 58.8494766"></polygon>
                    </g>
                    <g id="Group-121">
                        <mask id="mask-80" fill="white">
                            <use xlink:href="#path-79"></use>
                        </mask>
                        <g id="Clip-120"></g>
                        <polygon id="Fill-119" fill="#FFFFFF" mask="url(#mask-80)" points="59.0575152 52.0575401 55.9647879 50.3773485 52.8932727 52.0949533 52.9348485 58.9662228 59.0990909 58.9296599"></polygon>
                    </g>
                    <g id="Group-124">
                        <mask id="mask-82" fill="white">
                            <use xlink:href="#path-81"></use>
                        </mask>
                        <g id="Clip-123"></g>
                        <polygon id="Stroke-122" stroke="#000000" stroke-width="2" mask="url(#mask-82)" points="59.0575152 52.0575401 55.9647879 50.3773485 52.8932727 52.0949533 52.9348485 58.9662228 59.0990909 58.9296599"></polygon>
                    </g>
                    <g id="Group-128">
                        <mask id="mask-84" fill="white">
                            <use xlink:href="#path-83"></use>
                        </mask>
                        <g id="Clip-126"></g>
                        <path d="M69.1001818,8.64116766 L69.1595758,18.5301497" id="Fill-125" fill="#FFFFFF" mask="url(#mask-84)"></path>
                        <path d="M69.1001818,8.64116766 L69.1595758,18.5301497" id="Stroke-127" stroke="#000000" stroke-width="2" mask="url(#mask-84)"></path>
                    </g>
                    <g id="Group-132">
                        <mask id="mask-86" fill="white">
                            <use xlink:href="#path-85"></use>
                        </mask>
                        <g id="Clip-130"></g>
                        <path d="M65.3905212,12.5488886 L72.8563394,12.5038228" id="Fill-129" fill="#FFFFFF" mask="url(#mask-86)"></path>
                        <path d="M65.3905212,12.5488886 L72.8563394,12.5038228" id="Stroke-131" stroke="#000000" stroke-width="2" mask="url(#mask-86)"></path>
                    </g>
                    <g id="Group-135">
                        <mask id="mask-88" fill="white">
                            <use xlink:href="#path-87"></use>
                        </mask>
                        <g id="Clip-134"></g>
                        <path d="M74.6642061,166.15539 L64.9719636,166.214061 L64.7369333,127.109642 C64.7208121,124.426947 66.8768121,122.239977 69.5537818,122.223822 C72.229903,122.207666 74.4122061,124.368277 74.4291758,127.050971 L74.6642061,166.15539 Z" id="Fill-133" fill="#FFFFFF" mask="url(#mask-88)"></path>
                    </g>
                    <g id="Group-138">
                        <mask id="mask-90" fill="white">
                            <use xlink:href="#path-89"></use>
                        </mask>
                        <g id="Clip-137"></g>
                        <path d="M74.6642061,166.15539 L64.9719636,166.214061 L64.7369333,127.109642 C64.7208121,124.426947 66.8768121,122.239977 69.5537818,122.223822 C72.229903,122.207666 74.4122061,124.368277 74.4291758,127.050971 L74.6642061,166.15539 Z" id="Stroke-136" stroke="#000000" stroke-width="2" mask="url(#mask-90)"></path>
                    </g>
                </g>
                <path d="M140,70.9998299 C140,109.742022 108.659515,141.149531 70,141.149531 C31.3404848,141.149531 0,109.742022 0,70.9998299 C0,32.2576383 31.3404848,0.850129341 70,0.850129341 C108.659515,0.850129341 140,32.2576383 140,70.9998299 Z" id="Stroke-140" stroke="#CA4A83" stroke-width="2"></path>
            </g>
        </g>
    </g>
</svg>