<?xml version="1.0" encoding="UTF-8"?>
<svg width="142px" height="144px" viewBox="0 0 142 144" version="1.1" xmlns="http://www.w3.org/2000/svg" xmlns:xlink="http://www.w3.org/1999/xlink">
    <!-- Generator: sketchtool 52.5 (67469) - http://www.bohemiancoding.com/sketch -->
    <title>4DD1892B-D5ED-4DB7-8F9C-2D575260CDDA</title>
    <desc>Created with sketchtool.</desc>
    <defs>
        <path d="M0,70.5246826 C0,109.267725 31.3404848,140.675234 70,140.675234 C108.660364,140.675234 140,109.267725 140,70.5246826 C140,31.782491 108.660364,0.374982036 70,0.374982036 C31.3404848,0.374982036 0,31.782491 0,70.5246826 Z" id="path-1"></path>
    </defs>
    <g id="Page-1" stroke="none" stroke-width="1" fill="none" fill-rule="evenodd">
        <g id="Careers_page" transform="translate(-557.000000, -3099.000000)">
            <g id="Group-176" transform="translate(558.000000, 3100.000000)">
                <g id="Group-173" transform="translate(0.000000, 0.475317)">
                    <mask id="mask-2" fill="white">
                        <use xlink:href="#path-1"></use>
                    </mask>
                    <g id="Clip-2"></g>
                    <polygon id="Fill-1" fill="#FFFFFF" mask="url(#mask-2)" points="15.5187879 145.401198 125.773455 145.401198 125.773455 94.1995689 15.5187879 94.1995689"></polygon>
                    <polygon id="Stroke-3" stroke="#000000" stroke-width="2" mask="url(#mask-2)" points="15.5187879 145.401198 125.773455 145.401198 125.773455 94.1995689 15.5187879 94.1995689"></polygon>
                    <polygon id="Fill-4" fill="#FFFFFF" mask="url(#mask-2)" points="98.7517576 145.401198 125.773455 145.401198 125.773455 93.2047186 98.7517576 93.2047186"></polygon>
                    <polygon id="Stroke-5" stroke="#000000" stroke-width="2" mask="url(#mask-2)" points="98.7517576 145.401198 125.773455 145.401198 125.773455 93.2047186 98.7517576 93.2047186"></polygon>
                    <path d="M118.157285,121.034423 L107.348436,121.034423 L107.348436,103.280171 C107.348436,102.275968 107.7608,101.31683 108.4888,100.627237 L111.444073,97.8289018 C112.178012,97.1342072 113.326861,97.1342072 114.061648,97.8289018 L117.016073,100.627237 C117.744921,101.31683 118.157285,102.275968 118.157285,103.280171 L118.157285,121.034423 Z" id="Fill-6" fill="#FFFFFF" mask="url(#mask-2)"></path>
                    <path d="M118.157285,121.034423 L107.348436,121.034423 L107.348436,103.280171 C107.348436,102.275968 107.7608,101.31683 108.4888,100.627237 L111.444073,97.8289018 C112.178012,97.1342072 113.326861,97.1342072 114.061648,97.8289018 L117.016073,100.627237 C117.744921,101.31683 118.157285,102.275968 118.157285,103.280171 L118.157285,121.034423 Z" id="Stroke-7" stroke="#000000" stroke-width="2" mask="url(#mask-2)"></path>
                    <path d="M112.795455,60.1981365 L108.178,63.1376216 C103.759939,65.950412 102.099455,70.9816335 104.139212,75.379382 L112.795455,75.379382 L121.451697,75.379382 C123.490606,70.9816335 121.83097,65.950412 117.412909,63.1376216 L112.795455,60.1981365 Z" id="Fill-8" fill="#FFFFFF" mask="url(#mask-2)"></path>
                    <path d="M112.795455,60.1981365 L108.178,63.1376216 C103.759939,65.950412 102.099455,70.9816335 104.139212,75.379382 L112.795455,75.379382 L121.451697,75.379382 C123.490606,70.9816335 121.83097,65.950412 117.412909,63.1376216 L112.795455,60.1981365 Z" id="Stroke-9" stroke="#000000" stroke-width="2" mask="url(#mask-2)"></path>
                    <path d="M104.454764,79.5159186 C102.361552,81.1289365 101.135491,83.6254156 101.135491,86.270697 L101.135491,88.2153317 L124.3704,88.2153317 L124.3704,86.270697 C124.3704,83.6254156 123.142642,81.1289365 121.051127,79.5159186 L104.454764,79.5159186 Z" id="Fill-10" fill="#FFFFFF" mask="url(#mask-2)"></path>
                    <path d="M104.454764,79.5159186 C102.361552,81.1289365 101.135491,83.6254156 101.135491,86.270697 L101.135491,88.2153317 L124.3704,88.2153317 L124.3704,86.270697 C124.3704,83.6254156 123.142642,81.1289365 121.051127,79.5159186 L104.454764,79.5159186 Z" id="Stroke-11" stroke="#000000" stroke-width="2" mask="url(#mask-2)"></path>
                    <polygon id="Fill-12" fill="#FFFFFF" mask="url(#mask-2)" points="127.943879 93.2045485 97.5604848 93.2045485 100.114424 88.3433868 125.390788 88.3433868"></polygon>
                    <polygon id="Stroke-13" stroke="#000000" stroke-width="2" mask="url(#mask-2)" points="127.943879 93.2045485 97.5604848 93.2045485 100.114424 88.3433868 125.390788 88.3433868"></polygon>
                    <polygon id="Fill-14" fill="#FFFFFF" mask="url(#mask-2)" points="125.177988 79.3291078 100.327564 79.3291078 102.415685 75.3531078 123.089867 75.3531078"></polygon>
                    <polygon id="Stroke-15" stroke="#000000" stroke-width="2" mask="url(#mask-2)" points="125.177988 79.3291078 100.327564 79.3291078 102.415685 75.3531078 123.089867 75.3531078"></polygon>
                    <polygon id="Fill-16" fill="#FFFFFF" mask="url(#mask-2)" points="121.859479 110.269547 103.645903 110.269547 105.17657 107.355571 120.327964 107.355571"></polygon>
                    <polygon id="Stroke-17" stroke="#000000" stroke-width="2" mask="url(#mask-2)" points="121.859479 110.269547 103.645903 110.269547 105.17657 107.355571 120.327964 107.355571"></polygon>
                    <polygon id="Fill-18" fill="#FFFFFF" mask="url(#mask-2)" points="107.475879 107.198946 118.029333 107.198946 118.029333 104.28497 107.475879 104.28497"></polygon>
                    <polygon id="Stroke-19" stroke="#000000" stroke-width="2" mask="url(#mask-2)" points="107.475879 107.198946 118.029333 107.198946 118.029333 104.28497 107.475879 104.28497"></polygon>
                    <g id="Group-22" mask="url(#mask-2)">
                        <g transform="translate(106.909091, 117.341317)">
                            <path d="M0.524533333,0.55431018 L11.2485333,0.55431018" id="Fill-20" stroke="none" fill="#FFFFFF" fill-rule="evenodd"></path>
                            <path d="M0.524533333,0.55431018 L11.2485333,0.55431018" id="Stroke-21" stroke="#000000" stroke-width="2" fill="none"></path>
                        </g>
                    </g>
                    <path d="M112.795455,132.991758 C110.539333,132.991758 108.710848,131.158513 108.710848,128.898417 C108.710848,126.63662 110.539333,124.804225 112.795455,124.804225 C115.051576,124.804225 116.880061,126.63662 116.880061,128.898417 C116.880061,131.158513 115.051576,132.991758 112.795455,132.991758" id="Fill-23" fill="#FFFFFF" mask="url(#mask-2)"></path>
                    <path d="M112.795455,132.991758 C110.539333,132.991758 108.710848,131.158513 108.710848,128.898417 C108.710848,126.63662 110.539333,124.804225 112.795455,124.804225 C115.051576,124.804225 116.880061,126.63662 116.880061,128.898417 C116.880061,131.158513 115.051576,132.991758 112.795455,132.991758 Z" id="Stroke-24" stroke="#000000" stroke-width="2" mask="url(#mask-2)"></path>
                    <g id="Group-27" mask="url(#mask-2)">
                        <g transform="translate(112.000000, 57.820359)">
                            <path d="M0.795454545,0.714591617 L0.795454545,2.25023234" id="Fill-25" stroke="none" fill="#FFFFFF" fill-rule="evenodd"></path>
                            <path d="M0.795454545,0.714591617 L0.795454545,2.25023234" id="Stroke-26" stroke="#000000" stroke-width="2" fill="none" stroke-linecap="round"></path>
                        </g>
                    </g>
                    <path d="M101.561345,65.1874383 L102.431891,66.4968994 C103.196376,67.6448036 103.603648,68.9942287 103.603648,70.3742647 L103.603648,72.1522407 C103.603648,72.6173545 103.734315,73.0722647 103.980376,73.4659533 L104.880618,74.910612 L103.842921,74.910612 C102.582921,74.910612 101.561345,73.8860012 101.561345,72.6233066 L101.561345,65.1874383 Z" id="Fill-28" fill="#FFFFFF" mask="url(#mask-2)"></path>
                    <path d="M101.561345,65.1874383 L102.431891,66.4968994 C103.196376,67.6448036 103.603648,68.9942287 103.603648,70.3742647 L103.603648,72.1522407 C103.603648,72.6173545 103.734315,73.0722647 103.980376,73.4659533 L104.880618,74.910612 L103.842921,74.910612 C102.582921,74.910612 101.561345,73.8860012 101.561345,72.6233066 L101.561345,65.1874383 Z" id="Stroke-29" stroke="#000000" stroke-width="2" mask="url(#mask-2)"></path>
                    <path d="M124.284788,65.1874383 L123.413394,66.4968994 C122.649758,67.6448036 122.242485,68.9942287 122.242485,70.3742647 L122.242485,72.1522407 C122.242485,72.6173545 122.11097,73.0722647 121.865758,73.4659533 L120.965515,74.910612 L122.003212,74.910612 C123.263212,74.910612 124.284788,73.8860012 124.284788,72.6233066 L124.284788,65.1874383 Z" id="Fill-30" fill="#FFFFFF" mask="url(#mask-2)"></path>
                    <path d="M124.284788,65.1874383 L123.413394,66.4968994 C122.649758,67.6448036 122.242485,68.9942287 122.242485,70.3742647 L122.242485,72.1522407 C122.242485,72.6173545 122.11097,73.0722647 121.865758,73.4659533 L120.965515,74.910612 L122.003212,74.910612 C123.263212,74.910612 124.284788,73.8860012 124.284788,72.6233066 L124.284788,65.1874383 Z" id="Stroke-31" stroke="#000000" stroke-width="2" mask="url(#mask-2)"></path>
                    <path d="M115.6036,75.2943521 L110.242024,75.2943521 L110.242024,71.8404359 C110.242024,70.3558132 111.44263,69.1534898 112.923236,69.1534898 C114.403842,69.1534898 115.6036,70.3558132 115.6036,71.8404359 L115.6036,75.2943521 Z" id="Fill-32" fill="#FFFFFF" mask="url(#mask-2)"></path>
                    <path d="M115.6036,75.2943521 L110.242024,75.2943521 L110.242024,71.8404359 C110.242024,70.3558132 111.44263,69.1534898 112.923236,69.1534898 C114.403842,69.1534898 115.6036,70.3558132 115.6036,71.8404359 L115.6036,75.2943521 Z" id="Stroke-33" stroke="#000000" stroke-width="2" mask="url(#mask-2)"></path>
                    <polygon id="Fill-34" fill="#FFFFFF" mask="url(#mask-2)" points="15.4755152 145.401198 42.0721212 145.401198 42.0721212 93.2047186 15.4755152 93.2047186"></polygon>
                    <polygon id="Stroke-35" stroke="#000000" stroke-width="2" mask="url(#mask-2)" points="15.4755152 145.401198 42.0721212 145.401198 42.0721212 93.2047186 15.4755152 93.2047186"></polygon>
                    <path d="M33.901297,121.034423 L23.093297,121.034423 L23.093297,103.280171 C23.093297,102.275968 23.5056606,101.31683 24.2328121,100.627237 L27.1889333,97.8289018 C27.9228727,97.1342072 29.0717212,97.1342072 29.8065091,97.8289018 L32.7609333,100.627237 C33.4897818,101.31683 33.901297,102.275968 33.901297,103.280171 L33.901297,121.034423 Z" id="Fill-36" fill="#FFFFFF" mask="url(#mask-2)"></path>
                    <path d="M33.901297,121.034423 L23.093297,121.034423 L23.093297,103.280171 C23.093297,102.275968 23.5056606,101.31683 24.2328121,100.627237 L27.1889333,97.8289018 C27.9228727,97.1342072 29.0717212,97.1342072 29.8065091,97.8289018 L32.7609333,100.627237 C33.4897818,101.31683 33.901297,102.275968 33.901297,103.280171 L33.901297,121.034423 Z" id="Stroke-37" stroke="#000000" stroke-width="2" mask="url(#mask-2)"></path>
                    <path d="M28.5402303,60.1981365 L23.9227758,63.1376216 C19.5038667,65.950412 17.8442303,70.9816335 19.8839879,75.379382 L28.5402303,75.379382 L37.1964727,75.379382 C39.2353818,70.9816335 37.5757455,65.950412 33.1576848,63.1376216 L28.5402303,60.1981365 Z" id="Fill-38" fill="#FFFFFF" mask="url(#mask-2)"></path>
                    <path d="M28.5402303,60.1981365 L23.9227758,63.1376216 C19.5038667,65.950412 17.8442303,70.9816335 19.8839879,75.379382 L28.5402303,75.379382 L37.1964727,75.379382 C39.2353818,70.9816335 37.5757455,65.950412 33.1576848,63.1376216 L28.5402303,60.1981365 Z" id="Stroke-39" stroke="#000000" stroke-width="2" mask="url(#mask-2)"></path>
                    <path d="M20.1995394,79.5159186 C18.1063273,81.1289365 16.8802667,83.6254156 16.8802667,86.270697 L16.8802667,88.2153317 L40.1143273,88.2153317 L40.1143273,86.270697 C40.1143273,83.6254156 38.8874182,81.1289365 36.795903,79.5159186 L20.1995394,79.5159186 Z" id="Fill-40" fill="#FFFFFF" mask="url(#mask-2)"></path>
                    <path d="M20.1995394,79.5159186 C18.1063273,81.1289365 16.8802667,83.6254156 16.8802667,86.270697 L16.8802667,88.2153317 L40.1143273,88.2153317 L40.1143273,86.270697 C40.1143273,83.6254156 38.8874182,81.1289365 36.795903,79.5159186 L20.1995394,79.5159186 Z" id="Stroke-41" stroke="#000000" stroke-width="2" mask="url(#mask-2)"></path>
                    <polygon id="Fill-42" fill="#FFFFFF" mask="url(#mask-2)" points="43.6886545 93.2045485 13.3052606 93.2045485 15.8592 88.3433868 41.1355636 88.3433868"></polygon>
                    <polygon id="Stroke-43" stroke="#000000" stroke-width="2" mask="url(#mask-2)" points="43.6886545 93.2045485 13.3052606 93.2045485 15.8592 88.3433868 41.1355636 88.3433868"></polygon>
                    <polygon id="Fill-44" fill="#FFFFFF" mask="url(#mask-2)" points="40.9228485 79.3291078 16.0715758 79.3291078 18.1605455 75.3531078 38.8347273 75.3531078"></polygon>
                    <polygon id="Stroke-45" stroke="#000000" stroke-width="2" mask="url(#mask-2)" points="40.9228485 79.3291078 16.0715758 79.3291078 18.1605455 75.3531078 38.8347273 75.3531078"></polygon>
                    <polygon id="Fill-46" fill="#FFFFFF" mask="url(#mask-2)" points="37.6034909 110.269547 19.3907636 110.269547 20.9214303 107.355571 36.0728242 107.355571"></polygon>
                    <polygon id="Stroke-47" stroke="#000000" stroke-width="2" mask="url(#mask-2)" points="37.6034909 110.269547 19.3907636 110.269547 20.9214303 107.355571 36.0728242 107.355571"></polygon>
                    <polygon id="Fill-48" fill="#FFFFFF" mask="url(#mask-2)" points="23.2204848 107.198946 33.7739394 107.198946 33.7739394 104.28497 23.2204848 104.28497"></polygon>
                    <polygon id="Stroke-49" stroke="#000000" stroke-width="2" mask="url(#mask-2)" points="23.2204848 107.198946 33.7739394 107.198946 33.7739394 104.28497 23.2204848 104.28497"></polygon>
                    <g id="Group-52" mask="url(#mask-2)">
                        <g transform="translate(22.909091, 117.341317)">
                            <path d="M0.269309091,0.55431018 L10.9924606,0.55431018" id="Fill-50" stroke="none" fill="#FFFFFF" fill-rule="evenodd"></path>
                            <path d="M0.269309091,0.55431018 L10.9924606,0.55431018" id="Stroke-51" stroke="#000000" stroke-width="2" fill="none"></path>
                        </g>
                    </g>
                    <path d="M28.5402303,132.991758 C26.2841091,132.991758 24.4556242,131.158513 24.4556242,128.898417 C24.4556242,126.63662 26.2841091,124.804225 28.5402303,124.804225 C30.795503,124.804225 32.6248364,126.63662 32.6248364,128.898417 C32.6248364,131.158513 30.795503,132.991758 28.5402303,132.991758" id="Fill-53" fill="#FFFFFF" mask="url(#mask-2)"></path>
                    <path d="M28.5402303,132.991758 C26.2841091,132.991758 24.4556242,131.158513 24.4556242,128.898417 C24.4556242,126.63662 26.2841091,124.804225 28.5402303,124.804225 C30.795503,124.804225 32.6248364,126.63662 32.6248364,128.898417 C32.6248364,131.158513 30.795503,132.991758 28.5402303,132.991758 Z" id="Stroke-54" stroke="#000000" stroke-width="2" mask="url(#mask-2)"></path>
                    <g id="Group-57" mask="url(#mask-2)">
                        <g transform="translate(28.000000, 57.820359)">
                            <path d="M0.540230303,0.714591617 L0.540230303,2.25023234" id="Fill-55" stroke="none" fill="#FFFFFF" fill-rule="evenodd"></path>
                            <path d="M0.540230303,0.714591617 L0.540230303,2.25023234" id="Stroke-56" stroke="#000000" stroke-width="2" fill="none" stroke-linecap="round"></path>
                        </g>
                    </g>
                    <path d="M17.3061212,65.1874383 L18.1766667,66.4968994 C18.9411515,67.6448036 19.3484242,68.9942287 19.3484242,70.3742647 L19.3484242,72.1522407 C19.3484242,72.6173545 19.4790909,73.0722647 19.7251515,73.4659533 L20.6245455,74.910612 L19.587697,74.910612 C18.327697,74.910612 17.3061212,73.8860012 17.3061212,72.6233066 L17.3061212,65.1874383 Z" id="Fill-58" fill="#FFFFFF" mask="url(#mask-2)"></path>
                    <path d="M17.3061212,65.1874383 L18.1766667,66.4968994 C18.9411515,67.6448036 19.3484242,68.9942287 19.3484242,70.3742647 L19.3484242,72.1522407 C19.3484242,72.6173545 19.4790909,73.0722647 19.7251515,73.4659533 L20.6245455,74.910612 L19.587697,74.910612 C18.327697,74.910612 17.3061212,73.8860012 17.3061212,72.6233066 L17.3061212,65.1874383 Z" id="Stroke-59" stroke="#000000" stroke-width="2" mask="url(#mask-2)"></path>
                    <path d="M40.0295636,65.1874383 L39.1581697,66.4968994 C38.3945333,67.6448036 37.9872606,68.9942287 37.9872606,70.3742647 L37.9872606,72.1522407 C37.9872606,72.6173545 37.8557455,73.0722647 37.6105333,73.4659533 L36.7102909,74.910612 L37.7479879,74.910612 C39.0079879,74.910612 40.0295636,73.8860012 40.0295636,72.6233066 L40.0295636,65.1874383 Z" id="Fill-60" fill="#FFFFFF" mask="url(#mask-2)"></path>
                    <path d="M40.0295636,65.1874383 L39.1581697,66.4968994 C38.3945333,67.6448036 37.9872606,68.9942287 37.9872606,70.3742647 L37.9872606,72.1522407 C37.9872606,72.6173545 37.8557455,73.0722647 37.6105333,73.4659533 L36.7102909,74.910612 L37.7479879,74.910612 C39.0079879,74.910612 40.0295636,73.8860012 40.0295636,72.6233066 L40.0295636,65.1874383 Z" id="Stroke-61" stroke="#000000" stroke-width="2" mask="url(#mask-2)"></path>
                    <path d="M31.3483758,75.2943521 L25.9868,75.2943521 L25.9868,71.8404359 C25.9868,70.3558132 27.1874061,69.1534898 28.6680121,69.1534898 C30.1486182,69.1534898 31.3483758,70.3558132 31.3483758,71.8404359 L31.3483758,75.2943521 Z" id="Fill-62" fill="#FFFFFF" mask="url(#mask-2)"></path>
                    <path d="M31.3483758,75.2943521 L25.9868,75.2943521 L25.9868,71.8404359 C25.9868,70.3558132 27.1874061,69.1534898 28.6680121,69.1534898 C30.1486182,69.1534898 31.3483758,70.3558132 31.3483758,71.8404359 L31.3483758,75.2943521 Z" id="Stroke-63" stroke="#000000" stroke-width="2" mask="url(#mask-2)"></path>
                    <polygon id="Fill-64" fill="#FFFFFF" mask="url(#mask-2)" points="102.199321 86.040521 39.1356848 86.040521 34.029503 94.483994 107.306352 94.483994"></polygon>
                    <polygon id="Stroke-65" stroke="#000000" stroke-width="2" mask="url(#mask-2)" points="102.199321 86.040521 39.1356848 86.040521 34.029503 94.483994 107.306352 94.483994"></polygon>
                    <polygon id="Fill-66" fill="#FFFFFF" mask="url(#mask-2)" points="39.1355152 99.0896407 101.943758 99.0896407 101.943758 94.4844192 39.1355152 94.4844192"></polygon>
                    <polygon id="Stroke-67" stroke="#000000" stroke-width="2" mask="url(#mask-2)" points="39.1355152 99.0896407 101.943758 99.0896407 101.943758 94.4844192 39.1355152 94.4844192"></polygon>
                    <polygon id="Fill-68" fill="#FFFFFF" mask="url(#mask-2)" points="42.3266667 85.9125509 99.008 85.9125509 99.008 81.306479 42.3266667 81.306479"></polygon>
                    <polygon id="Stroke-69" stroke="#000000" stroke-width="2" mask="url(#mask-2)" points="42.3266667 85.9125509 99.008 85.9125509 99.008 81.306479 42.3266667 81.306479"></polygon>
                    <polygon id="Fill-70" fill="#FFFFFF" mask="url(#mask-2)" points="48.7098182 81.3073293 92.6248485 81.3073293 92.6248485 71.4566108 48.7098182 71.4566108"></polygon>
                    <polygon id="Stroke-71" stroke="#000000" stroke-width="2" mask="url(#mask-2)" points="48.7098182 81.3073293 92.6248485 81.3073293 92.6248485 71.4566108 48.7098182 71.4566108"></polygon>
                    <polygon id="Fill-72" fill="#FFFFFF" mask="url(#mask-2)" points="46.1575758 71.8400958 95.1787879 71.8400958 95.1787879 63.908503 46.1575758 63.908503"></polygon>
                    <polygon id="Stroke-73" stroke="#000000" stroke-width="2" mask="url(#mask-2)" points="46.1575758 71.8400958 95.1787879 71.8400958 95.1787879 63.908503 46.1575758 63.908503"></polygon>
                    <polygon id="Fill-74" fill="#FFFFFF" mask="url(#mask-2)" points="51.518303 63.908503 89.8163636 63.908503 89.8163636 59.9427066 51.518303 59.9427066"></polygon>
                    <polygon id="Stroke-75" stroke="#000000" stroke-width="2" mask="url(#mask-2)" points="51.518303 63.908503 89.8163636 63.908503 89.8163636 59.9427066 51.518303 59.9427066"></polygon>
                    <polygon id="Fill-76" fill="#FFFFFF" mask="url(#mask-2)" points="89.8167879 60.0703365 51.5187273 60.0703365 48.9656364 56.1045401 92.3698788 56.1045401"></polygon>
                    <polygon id="Stroke-77" stroke="#000000" stroke-width="2" mask="url(#mask-2)" points="89.8167879 60.0703365 51.5187273 60.0703365 48.9656364 56.1045401 92.3698788 56.1045401"></polygon>
                    <polygon id="Fill-78" fill="#FFFFFF" mask="url(#mask-2)" points="36.1997576 136.062359 105.135758 136.062359 105.135758 131.456287 36.1997576 131.456287"></polygon>
                    <polygon id="Stroke-79" stroke="#000000" stroke-width="2" mask="url(#mask-2)" points="36.1997576 136.062359 105.135758 136.062359 105.135758 131.456287 36.1997576 131.456287"></polygon>
                    <polygon id="Fill-80" fill="#FFFFFF" mask="url(#mask-2)" points="30.5827879 140.667581 110.752727 140.667581 110.752727 136.061509 30.5827879 136.061509"></polygon>
                    <polygon id="Stroke-81" stroke="#000000" stroke-width="2" mask="url(#mask-2)" points="30.5827879 140.667581 110.752727 140.667581 110.752727 136.061509 30.5827879 136.061509"></polygon>
                    <polygon id="Fill-82" fill="#FFFFFF" mask="url(#mask-2)" points="23.1789091 145.273653 118.157455 145.273653 118.157455 140.667581 23.1789091 140.667581"></polygon>
                    <polygon id="Stroke-83" stroke="#000000" stroke-width="2" mask="url(#mask-2)" points="23.1789091 145.273653 118.157455 145.273653 118.157455 140.667581 23.1789091 140.667581"></polygon>
                    <polygon id="Fill-84" fill="#FFFFFF" mask="url(#mask-2)" points="52.6926061 131.456287 56.2672727 131.456287 56.2672727 99.2171856 52.6926061 99.2171856"></polygon>
                    <polygon id="Stroke-85" stroke="#000000" stroke-width="2" mask="url(#mask-2)" points="52.6926061 131.456287 56.2672727 131.456287 56.2672727 99.2171856 52.6926061 99.2171856"></polygon>
                    <polygon id="Fill-86" fill="#FFFFFF" mask="url(#mask-2)" points="51.0329697 102.771437 57.9269091 102.771437 57.9269091 99.2180359 51.0329697 99.2180359"></polygon>
                    <polygon id="Stroke-87" stroke="#000000" stroke-width="2" mask="url(#mask-2)" points="51.0329697 102.771437 57.9269091 102.771437 57.9269091 99.2180359 51.0329697 99.2180359"></polygon>
                    <polygon id="Fill-88" fill="#FFFFFF" mask="url(#mask-2)" points="51.1610909 131.456287 58.0550303 131.456287 58.0550303 127.902886 51.1610909 127.902886"></polygon>
                    <polygon id="Stroke-89" stroke="#000000" stroke-width="2" mask="url(#mask-2)" points="51.1610909 131.456287 58.0550303 131.456287 58.0550303 127.902886 51.1610909 127.902886"></polygon>
                    <polygon id="Fill-90" fill="#FFFFFF" mask="url(#mask-2)" points="42.0721212 131.456287 45.6467879 131.456287 45.6467879 99.2171856 42.0721212 99.2171856"></polygon>
                    <polygon id="Stroke-91" stroke="#000000" stroke-width="2" mask="url(#mask-2)" points="42.0721212 131.456287 45.6467879 131.456287 45.6467879 99.2171856 42.0721212 99.2171856"></polygon>
                    <polygon id="Fill-92" fill="#FFFFFF" mask="url(#mask-2)" points="40.4124848 102.771437 47.3055758 102.771437 47.3055758 99.2180359 40.4124848 99.2180359"></polygon>
                    <polygon id="Stroke-93" stroke="#000000" stroke-width="2" mask="url(#mask-2)" points="40.4124848 102.771437 47.3055758 102.771437 47.3055758 99.2180359 40.4124848 99.2180359"></polygon>
                    <polygon id="Fill-94" fill="#FFFFFF" mask="url(#mask-2)" points="40.5397576 131.456287 47.433697 131.456287 47.433697 127.902886 40.5397576 127.902886"></polygon>
                    <polygon id="Stroke-95" stroke="#000000" stroke-width="2" mask="url(#mask-2)" points="40.5397576 131.456287 47.433697 131.456287 47.433697 127.902886 40.5397576 127.902886"></polygon>
                    <polygon id="Fill-96" fill="#FFFFFF" mask="url(#mask-2)" points="63.3139394 131.456287 66.8886061 131.456287 66.8886061 99.2171856 63.3139394 99.2171856"></polygon>
                    <polygon id="Stroke-97" stroke="#000000" stroke-width="2" mask="url(#mask-2)" points="63.3139394 131.456287 66.8886061 131.456287 66.8886061 99.2171856 63.3139394 99.2171856"></polygon>
                    <polygon id="Fill-98" fill="#FFFFFF" mask="url(#mask-2)" points="61.6551515 102.771437 68.5482424 102.771437 68.5482424 99.2180359 61.6551515 99.2180359"></polygon>
                    <polygon id="Stroke-99" stroke="#000000" stroke-width="2" mask="url(#mask-2)" points="61.6551515 102.771437 68.5482424 102.771437 68.5482424 99.2180359 61.6551515 99.2180359"></polygon>
                    <polygon id="Fill-100" fill="#FFFFFF" mask="url(#mask-2)" points="61.7824242 131.456287 68.6755152 131.456287 68.6755152 127.902886 61.7824242 127.902886"></polygon>
                    <polygon id="Stroke-101" stroke="#000000" stroke-width="2" mask="url(#mask-2)" points="61.7824242 131.456287 68.6755152 131.456287 68.6755152 127.902886 61.7824242 127.902886"></polygon>
                    <polygon id="Fill-102" fill="#FFFFFF" mask="url(#mask-2)" points="84.5566061 131.456287 88.1312727 131.456287 88.1312727 99.2171856 84.5566061 99.2171856"></polygon>
                    <polygon id="Stroke-103" stroke="#000000" stroke-width="2" mask="url(#mask-2)" points="84.5566061 131.456287 88.1312727 131.456287 88.1312727 99.2171856 84.5566061 99.2171856"></polygon>
                    <polygon id="Fill-104" fill="#FFFFFF" mask="url(#mask-2)" points="82.8969697 102.771437 89.7909091 102.771437 89.7909091 99.2180359 82.8969697 99.2180359"></polygon>
                    <polygon id="Stroke-105" stroke="#000000" stroke-width="2" mask="url(#mask-2)" points="82.8969697 102.771437 89.7909091 102.771437 89.7909091 99.2180359 82.8969697 99.2180359"></polygon>
                    <polygon id="Fill-106" fill="#FFFFFF" mask="url(#mask-2)" points="83.0250909 131.456287 89.9190303 131.456287 89.9190303 127.902886 83.0250909 127.902886"></polygon>
                    <polygon id="Stroke-107" stroke="#000000" stroke-width="2" mask="url(#mask-2)" points="83.0250909 131.456287 89.9190303 131.456287 89.9190303 127.902886 83.0250909 127.902886"></polygon>
                    <polygon id="Fill-108" fill="#FFFFFF" mask="url(#mask-2)" points="73.9361212 131.456287 77.5107879 131.456287 77.5107879 99.2171856 73.9361212 99.2171856"></polygon>
                    <polygon id="Stroke-109" stroke="#000000" stroke-width="2" mask="url(#mask-2)" points="73.9361212 131.456287 77.5107879 131.456287 77.5107879 99.2171856 73.9361212 99.2171856"></polygon>
                    <polygon id="Fill-110" fill="#FFFFFF" mask="url(#mask-2)" points="72.2764848 102.771437 79.1704242 102.771437 79.1704242 99.2180359 72.2764848 99.2180359"></polygon>
                    <polygon id="Stroke-111" stroke="#000000" stroke-width="2" mask="url(#mask-2)" points="72.2764848 102.771437 79.1704242 102.771437 79.1704242 99.2180359 72.2764848 99.2180359"></polygon>
                    <polygon id="Fill-112" fill="#FFFFFF" mask="url(#mask-2)" points="72.4037576 131.456287 79.297697 131.456287 79.297697 127.902886 72.4037576 127.902886"></polygon>
                    <polygon id="Stroke-113" stroke="#000000" stroke-width="2" mask="url(#mask-2)" points="72.4037576 131.456287 79.297697 131.456287 79.297697 127.902886 72.4037576 127.902886"></polygon>
                    <polygon id="Fill-114" fill="#FFFFFF" mask="url(#mask-2)" points="95.1787879 131.456287 98.7526061 131.456287 98.7526061 99.2171856 95.1787879 99.2171856"></polygon>
                    <polygon id="Stroke-115" stroke="#000000" stroke-width="2" mask="url(#mask-2)" points="95.1787879 131.456287 98.7526061 131.456287 98.7526061 99.2171856 95.1787879 99.2171856"></polygon>
                    <polygon id="Fill-116" fill="#FFFFFF" mask="url(#mask-2)" points="93.5191515 102.771437 100.412242 102.771437 100.412242 99.2180359 93.5191515 99.2180359"></polygon>
                    <polygon id="Stroke-117" stroke="#000000" stroke-width="2" mask="url(#mask-2)" points="93.5191515 102.771437 100.412242 102.771437 100.412242 99.2180359 93.5191515 99.2180359"></polygon>
                    <polygon id="Fill-118" fill="#FFFFFF" mask="url(#mask-2)" points="93.6464242 131.456287 100.539515 131.456287 100.539515 127.902886 93.6464242 127.902886"></polygon>
                    <polygon id="Stroke-119" stroke="#000000" stroke-width="2" mask="url(#mask-2)" points="93.6464242 131.456287 100.539515 131.456287 100.539515 127.902886 93.6464242 127.902886"></polygon>
                    <path d="M70.5667879,32.5646814 L61.4922424,37.0984778 C52.808,41.4358551 49.5464242,49.1939868 53.5546667,55.9759749 L70.5667879,55.9759749 L87.5797576,55.9759749 C91.5871515,49.1939868 88.3255758,41.4358551 79.6421818,37.0984778 L70.5667879,32.5646814 Z" id="Fill-120" fill="#FFFFFF" mask="url(#mask-2)"></path>
                    <path d="M70.5667879,32.5646814 L61.4922424,37.0984778 C52.808,41.4358551 49.5464242,49.1939868 53.5546667,55.9759749 L70.5667879,55.9759749 L87.5797576,55.9759749 C91.5871515,49.1939868 88.3255758,41.4358551 79.6421818,37.0984778 L70.5667879,32.5646814 Z" id="Stroke-121" stroke="#000000" stroke-width="2" mask="url(#mask-2)"></path>
                    <g id="Group-124" mask="url(#mask-2)">
                        <g transform="translate(53.454545, 42.514970)">
                            <path d="M0.258533333,0.96619521 L33.6812,0.96619521" id="Fill-122" stroke="none" fill="#FFFFFF" fill-rule="evenodd"></path>
                            <path d="M0.258533333,0.96619521 L33.6812,0.96619521" id="Stroke-123" stroke="#000000" stroke-width="2" fill="none"></path>
                        </g>
                    </g>
                    <polygon id="Fill-125" fill="#FFFFFF" mask="url(#mask-2)" points="63.1357576 35.6351976 77.1781818 35.6351976 77.1781818 30.9015808 63.1357576 30.9015808"></polygon>
                    <polygon id="Stroke-126" stroke="#000000" stroke-width="2" mask="url(#mask-2)" points="63.1357576 35.6351976 77.1781818 35.6351976 77.1781818 30.9015808 63.1357576 30.9015808"></polygon>
                    <polygon id="Fill-127" fill="#FFFFFF" mask="url(#mask-2)" points="65.3053333 30.5180958 75.0077576 30.5180958 75.0077576 27.5760599 65.3053333 27.5760599"></polygon>
                    <polygon id="Stroke-128" stroke="#000000" stroke-width="2" mask="url(#mask-2)" points="65.3053333 30.5180958 75.0077576 30.5180958 75.0077576 27.5760599 65.3053333 27.5760599"></polygon>
                    <path d="M65.0052242,30.4351916 L65.0052242,27.1912994 C65.0052242,26.5314671 65.5406182,25.9949281 66.1990424,25.9949281 L73.8591636,25.9949281 C74.5175879,25.9949281 75.0529818,26.5314671 75.0529818,27.1912994 L75.0529818,30.4351916 L65.0052242,30.4351916 Z" id="Fill-129" fill="#FFFFFF" mask="url(#mask-2)"></path>
                    <path d="M73.8595879,25.1445437 L66.1994667,25.1445437 C65.0718303,25.1445437 64.1563152,26.0611665 64.1563152,27.1920647 L64.1563152,31.285406 L75.9010424,31.285406 L75.9010424,27.1920647 C75.9010424,26.0611665 74.9872242,25.1445437 73.8595879,25.1445437 M73.8595879,26.8451425 C74.050497,26.8451425 74.2040727,27.0007473 74.2040727,27.1920647 L74.2040727,29.5848072 L65.8532848,29.5848072 L65.8532848,27.1920647 C65.8532848,27.0007473 66.0085576,26.8451425 66.1994667,26.8451425 L73.8595879,26.8451425" id="Fill-130" fill="#000000" mask="url(#mask-2)"></path>
                    <path d="M76.1572848,18.8760515 C76.1572848,20.3632251 74.9541333,21.5680994 73.4709818,21.5680994 C71.9869818,21.5680994 70.7846788,20.3632251 70.7846788,18.8760515 C70.7846788,17.3888778 71.9869818,16.1840036 73.4709818,16.1840036 C74.9541333,16.1840036 76.1572848,17.3888778 76.1572848,18.8760515" id="Fill-131" fill="#FFFFFF" mask="url(#mask-2)"></path>
                    <path d="M76.1572848,18.8760515 C76.1572848,20.3632251 74.9541333,21.5680994 73.4709818,21.5680994 C71.9869818,21.5680994 70.7846788,20.3632251 70.7846788,18.8760515 C70.7846788,17.3888778 71.9869818,16.1840036 73.4709818,16.1840036 C74.9541333,16.1840036 76.1572848,17.3888778 76.1572848,18.8760515 Z" id="Stroke-132" stroke="#000000" stroke-width="2" mask="url(#mask-2)"></path>
                    <path d="M68.5085333,18.8760515 C68.5085333,20.3632251 67.3053818,21.5680994 65.8222303,21.5680994 C64.3382303,21.5680994 63.1359273,20.3632251 63.1359273,18.8760515 C63.1359273,17.3888778 64.3382303,16.1840036 65.8222303,16.1840036 C67.3053818,16.1840036 68.5085333,17.3888778 68.5085333,18.8760515" id="Fill-133" fill="#FFFFFF" mask="url(#mask-2)"></path>
                    <path d="M68.5085333,18.8760515 C68.5085333,20.3632251 67.3053818,21.5680994 65.8222303,21.5680994 C64.3382303,21.5680994 63.1359273,20.3632251 63.1359273,18.8760515 C63.1359273,17.3888778 64.3382303,16.1840036 65.8222303,16.1840036 C67.3053818,16.1840036 68.5085333,17.3888778 68.5085333,18.8760515 Z" id="Stroke-134" stroke="#000000" stroke-width="2" mask="url(#mask-2)"></path>
                    <path d="M72.9655394,17.9805162 C72.9655394,19.8171629 71.4789939,21.3068874 69.6462667,21.3068874 C67.8135394,21.3068874 66.3269939,19.8171629 66.3269939,17.9805162 C66.3269939,16.1430192 67.8135394,14.6541449 69.6462667,14.6541449 C71.4789939,14.6541449 72.9655394,16.1430192 72.9655394,17.9805162" id="Fill-135" fill="#FFFFFF" mask="url(#mask-2)"></path>
                    <path d="M72.9655394,17.9805162 C72.9655394,19.8171629 71.4789939,21.3068874 69.6462667,21.3068874 C67.8135394,21.3068874 66.3269939,19.8171629 66.3269939,17.9805162 C66.3269939,16.1430192 67.8135394,14.6541449 69.6462667,14.6541449 C71.4789939,14.6541449 72.9655394,16.1430192 72.9655394,17.9805162 Z" id="Stroke-136" stroke="#000000" stroke-width="2" mask="url(#mask-2)"></path>
                    <path d="M71.305903,12.8629042 C71.305903,13.8526527 70.5057818,14.6536347 69.5189939,14.6536347 C68.5313576,14.6536347 67.7312364,13.8526527 67.7312364,12.8629042 C67.7312364,11.874006 68.5313576,11.0721737 69.5189939,11.0721737 C70.5057818,11.0721737 71.305903,11.874006 71.305903,12.8629042" id="Fill-137" fill="#FFFFFF" mask="url(#mask-2)"></path>
                    <path d="M71.305903,12.8629042 C71.305903,13.8526527 70.5057818,14.6536347 69.5189939,14.6536347 C68.5313576,14.6536347 67.7312364,13.8526527 67.7312364,12.8629042 C67.7312364,11.874006 68.5313576,11.0721737 69.5189939,11.0721737 C70.5057818,11.0721737 71.305903,11.874006 71.305903,12.8629042 Z" id="Stroke-138" stroke="#000000" stroke-width="2" mask="url(#mask-2)"></path>
                    <path d="M75.1356242,14.9097449 C75.1356242,15.6163437 74.5637455,16.1894455 73.8586545,16.1894455 C73.1535636,16.1894455 72.5825333,15.6163437 72.5825333,14.9097449 C72.5825333,14.2031461 73.1535636,13.6308946 73.8586545,13.6308946 C74.5637455,13.6308946 75.1356242,14.2031461 75.1356242,14.9097449" id="Fill-139" fill="#FFFFFF" mask="url(#mask-2)"></path>
                    <path d="M75.1356242,14.9097449 C75.1356242,15.6163437 74.5637455,16.1894455 73.8586545,16.1894455 C73.1535636,16.1894455 72.5825333,15.6163437 72.5825333,14.9097449 C72.5825333,14.2031461 73.1535636,13.6308946 73.8586545,13.6308946 C74.5637455,13.6308946 75.1356242,14.2031461 75.1356242,14.9097449 Z" id="Stroke-140" stroke="#000000" stroke-width="2" mask="url(#mask-2)"></path>
                    <path d="M66.7104242,14.9097449 C66.7104242,15.6163437 66.1385455,16.1894455 65.4334545,16.1894455 C64.7283636,16.1894455 64.1564848,15.6163437 64.1564848,14.9097449 C64.1564848,14.2031461 64.7283636,13.6308946 65.4334545,13.6308946 C66.1385455,13.6308946 66.7104242,14.2031461 66.7104242,14.9097449" id="Fill-141" fill="#FFFFFF" mask="url(#mask-2)"></path>
                    <path d="M66.7104242,14.9097449 C66.7104242,15.6163437 66.1385455,16.1894455 65.4334545,16.1894455 C64.7283636,16.1894455 64.1564848,15.6163437 64.1564848,14.9097449 C64.1564848,14.2031461 64.7283636,13.6308946 65.4334545,13.6308946 C66.1385455,13.6308946 66.7104242,14.2031461 66.7104242,14.9097449 Z" id="Stroke-142" stroke="#000000" stroke-width="2" mask="url(#mask-2)"></path>
                    <g id="Group-145" mask="url(#mask-2)">
                        <g transform="translate(65.333333, 21.257485)">
                            <path d="M0.865878788,0.0490622754 L0.865878788,4.39919401" id="Fill-143" stroke="none" fill="#FFFFFF" fill-rule="evenodd"></path>
                            <path d="M0.865878788,0.0490622754 L0.865878788,4.39919401" id="Stroke-144" stroke="#000000" stroke-width="2" fill="none"></path>
                        </g>
                    </g>
                    <g id="Group-148" mask="url(#mask-2)">
                        <g transform="translate(68.727273, 20.407186)">
                            <path d="M1.01835152,0.643591617 L1.01835152,5.24966347" id="Fill-146" stroke="none" fill="#FFFFFF" fill-rule="evenodd"></path>
                            <path d="M1.01835152,0.643591617 L1.01835152,5.24966347" id="Stroke-147" stroke="#000000" stroke-width="2" fill="none"></path>
                        </g>
                    </g>
                    <g id="Group-151" mask="url(#mask-2)">
                        <g transform="translate(72.121212, 21.257485)">
                            <path d="M1.22716364,0.0490622754 L1.22716364,4.39919401" id="Fill-149" stroke="none" fill="#FFFFFF" fill-rule="evenodd"></path>
                            <path d="M1.22716364,0.0490622754 L1.22716364,4.39919401" id="Stroke-150" stroke="#000000" stroke-width="2" fill="none"></path>
                        </g>
                    </g>
                    <g id="Group-154" mask="url(#mask-2)">
                        <g transform="translate(54.303030, 73.976048)">
                            <path d="M0.555163636,0.280343713 L0.555163636,4.75802036" id="Fill-152" stroke="none" fill="#FFFFFF" fill-rule="evenodd"></path>
                            <path d="M0.555163636,0.280343713 L0.555163636,4.75802036" id="Stroke-153" stroke="#000000" stroke-width="2" fill="none"></path>
                        </g>
                    </g>
                    <g id="Group-157" mask="url(#mask-2)">
                        <g transform="translate(59.393939, 73.976048)">
                            <path d="M0.677006061,0.280343713 L0.677006061,4.75802036" id="Fill-155" stroke="none" fill="#FFFFFF" fill-rule="evenodd"></path>
                            <path d="M0.677006061,0.280343713 L0.677006061,4.75802036" id="Stroke-156" stroke="#000000" stroke-width="2" fill="none"></path>
                        </g>
                    </g>
                    <g id="Group-160" mask="url(#mask-2)">
                        <g transform="translate(64.484848, 73.976048)">
                            <path d="M0.798763636,0.280343713 L0.798763636,4.75802036" id="Fill-158" stroke="none" fill="#FFFFFF" fill-rule="evenodd"></path>
                            <path d="M0.798763636,0.280343713 L0.798763636,4.75802036" id="Stroke-159" stroke="#000000" stroke-width="2" fill="none"></path>
                        </g>
                    </g>
                    <g id="Group-163" mask="url(#mask-2)">
                        <g transform="translate(69.575758, 73.976048)">
                            <path d="M0.920606061,0.280343713 L0.920606061,4.75802036" id="Fill-161" stroke="none" fill="#FFFFFF" fill-rule="evenodd"></path>
                            <path d="M0.920606061,0.280343713 L0.920606061,4.75802036" id="Stroke-162" stroke="#000000" stroke-width="2" fill="none"></path>
                        </g>
                    </g>
                    <g id="Group-166" mask="url(#mask-2)">
                        <g transform="translate(74.666667, 73.976048)">
                            <path d="M1.04236364,0.280343713 L1.04236364,4.75802036" id="Fill-164" stroke="none" fill="#FFFFFF" fill-rule="evenodd"></path>
                            <path d="M1.04236364,0.280343713 L1.04236364,4.75802036" id="Stroke-165" stroke="#000000" stroke-width="2" fill="none"></path>
                        </g>
                    </g>
                    <g id="Group-169" mask="url(#mask-2)">
                        <g transform="translate(79.757576, 73.976048)">
                            <path d="M1.16420606,0.280343713 L1.16420606,4.75802036" id="Fill-167" stroke="none" fill="#FFFFFF" fill-rule="evenodd"></path>
                            <path d="M1.16420606,0.280343713 L1.16420606,4.75802036" id="Stroke-168" stroke="#000000" stroke-width="2" fill="none"></path>
                        </g>
                    </g>
                    <g id="Group-172" mask="url(#mask-2)">
                        <g transform="translate(85.696970, 73.976048)">
                            <path d="M0.437478788,0.280343713 L0.437478788,4.75802036" id="Fill-170" stroke="none" fill="#FFFFFF" fill-rule="evenodd"></path>
                            <path d="M0.437478788,0.280343713 L0.437478788,4.75802036" id="Stroke-171" stroke="#000000" stroke-width="2" fill="none"></path>
                        </g>
                    </g>
                </g>
                <path d="M140,71.0004251 C140,109.742617 108.659515,141.150126 70,141.150126 C31.3404848,141.150126 0,109.742617 0,71.0004251 C0,32.2582335 31.3404848,0.850724551 70,0.850724551 C108.659515,0.850724551 140,32.2582335 140,71.0004251 Z" id="Stroke-174" stroke="#FD5B6C" stroke-width="2"></path>
            </g>
        </g>
    </g>
</svg>