<?xml version="1.0" encoding="UTF-8"?>
<svg width="142px" height="143px" viewBox="0 0 142 143" version="1.1" xmlns="http://www.w3.org/2000/svg" xmlns:xlink="http://www.w3.org/1999/xlink">
    <!-- Generator: sketchtool 52.5 (67469) - http://www.bohemiancoding.com/sketch -->
    <title>E1E45630-CBDA-4083-812A-FAD8023518B7</title>
    <desc>Created with sketchtool.</desc>
    <defs>
        <path d="M1.62630326e-19,70.1825389 C-0.129036145,108.652743 30.9163855,139.943766 69.3421687,140.07379 C107.770482,140.203814 139.026747,109.123024 139.156627,70.6536647 C139.286506,32.1843054 108.240241,0.893281437 69.8136145,0.762413174 C69.7318072,0.762413174 69.6559036,0.762413174 69.5740964,0.762413174 C31.2596386,0.765790419 0.129879518,31.7950778 1.62630326e-19,70.1825389" id="path-1"></path>
        <path d="M1.62630326e-19,70.1825389 C-0.129036145,108.652743 30.9163855,139.943766 69.3421687,140.07379 C107.770482,140.203814 139.026747,109.123024 139.156627,70.6536647 C139.286506,32.1843054 108.240241,0.893281437 69.8136145,0.762413174 C69.7318072,0.762413174 69.6559036,0.762413174 69.5740964,0.762413174 C31.2596386,0.765790419 0.129879518,31.7950778 1.62630326e-19,70.1825389" id="path-3"></path>
        <path d="M1.62630326e-19,70.1825389 C-0.129036145,108.652743 30.9163855,139.943766 69.3421687,140.07379 C107.770482,140.203814 139.026747,109.123024 139.156627,70.6536647 C139.286506,32.1843054 108.240241,0.893281437 69.8136145,0.762413174 C69.7318072,0.762413174 69.6559036,0.762413174 69.5740964,0.762413174 C31.2596386,0.765790419 0.129879518,31.7950778 1.62630326e-19,70.1825389" id="path-5"></path>
        <path d="M1.62630326e-19,70.1825389 C-0.129036145,108.652743 30.9163855,139.943766 69.3421687,140.07379 C107.770482,140.203814 139.026747,109.123024 139.156627,70.6536647 C139.286506,32.1843054 108.240241,0.893281437 69.8136145,0.762413174 C69.7318072,0.762413174 69.6559036,0.762413174 69.5740964,0.762413174 C31.2596386,0.765790419 0.129879518,31.7950778 1.62630326e-19,70.1825389" id="path-7"></path>
        <path d="M1.62630326e-19,70.1825389 C-0.129036145,108.652743 30.9163855,139.943766 69.3421687,140.07379 C107.770482,140.203814 139.026747,109.123024 139.156627,70.6536647 C139.286506,32.1843054 108.240241,0.893281437 69.8136145,0.762413174 C69.7318072,0.762413174 69.6559036,0.762413174 69.5740964,0.762413174 C31.2596386,0.765790419 0.129879518,31.7950778 1.62630326e-19,70.1825389 Z" id="path-9"></path>
        <path d="M1.62630326e-19,70.1825389 C-0.129036145,108.652743 30.9163855,139.943766 69.3421687,140.07379 C107.770482,140.203814 139.026747,109.123024 139.156627,70.6536647 C139.286506,32.1843054 108.240241,0.893281437 69.8136145,0.762413174 C69.7318072,0.762413174 69.6559036,0.762413174 69.5740964,0.762413174 C31.2596386,0.765790419 0.129879518,31.7950778 1.62630326e-19,70.1825389 Z" id="path-11"></path>
        <path d="M1.62630326e-19,70.1825389 C-0.129036145,108.652743 30.9163855,139.943766 69.3421687,140.07379 C107.770482,140.203814 139.026747,109.123024 139.156627,70.6536647 C139.286506,32.1843054 108.240241,0.893281437 69.8136145,0.762413174 C69.7318072,0.762413174 69.6559036,0.762413174 69.5740964,0.762413174 C31.2596386,0.765790419 0.129879518,31.7950778 1.62630326e-19,70.1825389 Z" id="path-13"></path>
        <path d="M1.62630326e-19,70.1825389 C-0.129036145,108.652743 30.9163855,139.943766 69.3421687,140.07379 C107.770482,140.203814 139.026747,109.123024 139.156627,70.6536647 C139.286506,32.1843054 108.240241,0.893281437 69.8136145,0.762413174 C69.7318072,0.762413174 69.6559036,0.762413174 69.5740964,0.762413174 C31.2596386,0.765790419 0.129879518,31.7950778 1.62630326e-19,70.1825389 Z" id="path-15"></path>
        <path d="M1.62630326e-19,70.1825389 C-0.129036145,108.652743 30.9163855,139.943766 69.3421687,140.07379 C107.770482,140.203814 139.026747,109.123024 139.156627,70.6536647 C139.286506,32.1843054 108.240241,0.893281437 69.8136145,0.762413174 C69.7318072,0.762413174 69.6559036,0.762413174 69.5740964,0.762413174 C31.2596386,0.765790419 0.129879518,31.7950778 1.62630326e-19,70.1825389 Z" id="path-17"></path>
        <path d="M1.62630326e-19,70.1825389 C-0.129036145,108.652743 30.9163855,139.943766 69.3421687,140.07379 C107.770482,140.203814 139.026747,109.123024 139.156627,70.6536647 C139.286506,32.1843054 108.240241,0.893281437 69.8136145,0.762413174 C69.7318072,0.762413174 69.6559036,0.762413174 69.5740964,0.762413174 C31.2596386,0.765790419 0.129879518,31.7950778 1.62630326e-19,70.1825389 Z" id="path-19"></path>
        <path d="M1.62630326e-19,70.1825389 C-0.129036145,108.652743 30.9163855,139.943766 69.3421687,140.07379 C107.770482,140.203814 139.026747,109.123024 139.156627,70.6536647 C139.286506,32.1843054 108.240241,0.893281437 69.8136145,0.762413174 C69.7318072,0.762413174 69.6559036,0.762413174 69.5740964,0.762413174 C31.2596386,0.765790419 0.129879518,31.7950778 1.62630326e-19,70.1825389 Z" id="path-21"></path>
        <path d="M1.62630326e-19,70.1825389 C-0.129036145,108.652743 30.9163855,139.943766 69.3421687,140.07379 C107.770482,140.203814 139.026747,109.123024 139.156627,70.6536647 C139.286506,32.1843054 108.240241,0.893281437 69.8136145,0.762413174 C69.7318072,0.762413174 69.6559036,0.762413174 69.5740964,0.762413174 C31.2596386,0.765790419 0.129879518,31.7950778 1.62630326e-19,70.1825389 Z" id="path-23"></path>
        <path d="M1.62630326e-19,70.1825389 C-0.129036145,108.652743 30.9163855,139.943766 69.3421687,140.07379 C107.770482,140.203814 139.026747,109.123024 139.156627,70.6536647 C139.286506,32.1843054 108.240241,0.893281437 69.8136145,0.762413174 C69.7318072,0.762413174 69.6559036,0.762413174 69.5740964,0.762413174 C31.2596386,0.765790419 0.129879518,31.7950778 1.62630326e-19,70.1825389 Z" id="path-25"></path>
        <path d="M1.62630326e-19,70.1825389 C-0.129036145,108.652743 30.9163855,139.943766 69.3421687,140.07379 C107.770482,140.203814 139.026747,109.123024 139.156627,70.6536647 C139.286506,32.1843054 108.240241,0.893281437 69.8136145,0.762413174 C69.7318072,0.762413174 69.6559036,0.762413174 69.5740964,0.762413174 C31.2596386,0.765790419 0.129879518,31.7950778 1.62630326e-19,70.1825389 Z" id="path-27"></path>
        <path d="M1.62630326e-19,70.1825389 C-0.129036145,108.652743 30.9163855,139.943766 69.3421687,140.07379 C107.770482,140.203814 139.026747,109.123024 139.156627,70.6536647 C139.286506,32.1843054 108.240241,0.893281437 69.8136145,0.762413174 C69.7318072,0.762413174 69.6559036,0.762413174 69.5740964,0.762413174 C31.2596386,0.765790419 0.129879518,31.7950778 1.62630326e-19,70.1825389 Z" id="path-29"></path>
        <path d="M1.62630326e-19,70.1825389 C-0.129036145,108.652743 30.9163855,139.943766 69.3421687,140.07379 C107.770482,140.203814 139.026747,109.123024 139.156627,70.6536647 C139.286506,32.1843054 108.240241,0.893281437 69.8136145,0.762413174 C69.7318072,0.762413174 69.6559036,0.762413174 69.5740964,0.762413174 C31.2596386,0.765790419 0.129879518,31.7950778 1.62630326e-19,70.1825389 Z" id="path-31"></path>
        <path d="M1.62630326e-19,70.1825389 C-0.129036145,108.652743 30.9163855,139.943766 69.3421687,140.07379 C107.770482,140.203814 139.026747,109.123024 139.156627,70.6536647 C139.286506,32.1843054 108.240241,0.893281437 69.8136145,0.762413174 C69.7318072,0.762413174 69.6559036,0.762413174 69.5740964,0.762413174 C31.2596386,0.765790419 0.129879518,31.7950778 1.62630326e-19,70.1825389" id="path-33"></path>
        <path d="M1.62630326e-19,70.1825389 C-0.129036145,108.652743 30.9163855,139.943766 69.3421687,140.07379 C107.770482,140.203814 139.026747,109.123024 139.156627,70.6536647 C139.286506,32.1843054 108.240241,0.893281437 69.8136145,0.762413174 C69.7318072,0.762413174 69.6559036,0.762413174 69.5740964,0.762413174 C31.2596386,0.765790419 0.129879518,31.7950778 1.62630326e-19,70.1825389 Z" id="path-35"></path>
        <path d="M1.62630326e-19,70.1825389 C-0.129036145,108.652743 30.9163855,139.943766 69.3421687,140.07379 C107.770482,140.203814 139.026747,109.123024 139.156627,70.6536647 C139.286506,32.1843054 108.240241,0.893281437 69.8136145,0.762413174 C69.7318072,0.762413174 69.6559036,0.762413174 69.5740964,0.762413174 C31.2596386,0.765790419 0.129879518,31.7950778 1.62630326e-19,70.1825389" id="path-37"></path>
        <path d="M1.62630326e-19,70.1825389 C-0.129036145,108.652743 30.9163855,139.943766 69.3421687,140.07379 C107.770482,140.203814 139.026747,109.123024 139.156627,70.6536647 C139.286506,32.1843054 108.240241,0.893281437 69.8136145,0.762413174 C69.7318072,0.762413174 69.6559036,0.762413174 69.5740964,0.762413174 C31.2596386,0.765790419 0.129879518,31.7950778 1.62630326e-19,70.1825389 Z" id="path-39"></path>
        <path d="M1.62630326e-19,70.1825389 C-0.129036145,108.652743 30.9163855,139.943766 69.3421687,140.07379 C107.770482,140.203814 139.026747,109.123024 139.156627,70.6536647 C139.286506,32.1843054 108.240241,0.893281437 69.8136145,0.762413174 C69.7318072,0.762413174 69.6559036,0.762413174 69.5740964,0.762413174 C31.2596386,0.765790419 0.129879518,31.7950778 1.62630326e-19,70.1825389" id="path-41"></path>
        <path d="M1.62630326e-19,70.1825389 C-0.129036145,108.652743 30.9163855,139.943766 69.3421687,140.07379 C107.770482,140.203814 139.026747,109.123024 139.156627,70.6536647 C139.286506,32.1843054 108.240241,0.893281437 69.8136145,0.762413174 C69.7318072,0.762413174 69.6559036,0.762413174 69.5740964,0.762413174 C31.2596386,0.765790419 0.129879518,31.7950778 1.62630326e-19,70.1825389 Z" id="path-43"></path>
        <path d="M1.62630326e-19,70.1825389 C-0.129036145,108.652743 30.9163855,139.943766 69.3421687,140.07379 C107.770482,140.203814 139.026747,109.123024 139.156627,70.6536647 C139.286506,32.1843054 108.240241,0.893281437 69.8136145,0.762413174 C69.7318072,0.762413174 69.6559036,0.762413174 69.5740964,0.762413174 C31.2596386,0.765790419 0.129879518,31.7950778 1.62630326e-19,70.1825389" id="path-45"></path>
        <path d="M1.62630326e-19,70.1825389 C-0.129036145,108.652743 30.9163855,139.943766 69.3421687,140.07379 C107.770482,140.203814 139.026747,109.123024 139.156627,70.6536647 C139.286506,32.1843054 108.240241,0.893281437 69.8136145,0.762413174 C69.7318072,0.762413174 69.6559036,0.762413174 69.5740964,0.762413174 C31.2596386,0.765790419 0.129879518,31.7950778 1.62630326e-19,70.1825389 Z" id="path-47"></path>
        <path d="M1.62630326e-19,70.1825389 C-0.129036145,108.652743 30.9163855,139.943766 69.3421687,140.07379 C107.770482,140.203814 139.026747,109.123024 139.156627,70.6536647 C139.286506,32.1843054 108.240241,0.893281437 69.8136145,0.762413174 C69.7318072,0.762413174 69.6559036,0.762413174 69.5740964,0.762413174 C31.2596386,0.765790419 0.129879518,31.7950778 1.62630326e-19,70.1825389" id="path-49"></path>
        <path d="M1.62630326e-19,70.1825389 C-0.129036145,108.652743 30.9163855,139.943766 69.3421687,140.07379 C107.770482,140.203814 139.026747,109.123024 139.156627,70.6536647 C139.286506,32.1843054 108.240241,0.893281437 69.8136145,0.762413174 C69.7318072,0.762413174 69.6559036,0.762413174 69.5740964,0.762413174 C31.2596386,0.765790419 0.129879518,31.7950778 1.62630326e-19,70.1825389 Z" id="path-51"></path>
        <path d="M1.62630326e-19,70.1825389 C-0.129036145,108.652743 30.9163855,139.943766 69.3421687,140.07379 C107.770482,140.203814 139.026747,109.123024 139.156627,70.6536647 C139.286506,32.1843054 108.240241,0.893281437 69.8136145,0.762413174 C69.7318072,0.762413174 69.6559036,0.762413174 69.5740964,0.762413174 C31.2596386,0.765790419 0.129879518,31.7950778 1.62630326e-19,70.1825389 Z" id="path-53"></path>
        <path d="M1.62630326e-19,70.1825389 C-0.129036145,108.652743 30.9163855,139.943766 69.3421687,140.07379 C107.770482,140.203814 139.026747,109.123024 139.156627,70.6536647 C139.286506,32.1843054 108.240241,0.893281437 69.8136145,0.762413174 C69.7318072,0.762413174 69.6559036,0.762413174 69.5740964,0.762413174 C31.2596386,0.765790419 0.129879518,31.7950778 1.62630326e-19,70.1825389 Z" id="path-55"></path>
        <path d="M1.62630326e-19,70.1825389 C-0.129036145,108.652743 30.9163855,139.943766 69.3421687,140.07379 C107.770482,140.203814 139.026747,109.123024 139.156627,70.6536647 C139.286506,32.1843054 108.240241,0.893281437 69.8136145,0.762413174 C69.7318072,0.762413174 69.6559036,0.762413174 69.5740964,0.762413174 C31.2596386,0.765790419 0.129879518,31.7950778 1.62630326e-19,70.1825389" id="path-57"></path>
        <path d="M1.62630326e-19,70.1825389 C-0.129036145,108.652743 30.9163855,139.943766 69.3421687,140.07379 C107.770482,140.203814 139.026747,109.123024 139.156627,70.6536647 C139.286506,32.1843054 108.240241,0.893281437 69.8136145,0.762413174 C69.7318072,0.762413174 69.6559036,0.762413174 69.5740964,0.762413174 C31.2596386,0.765790419 0.129879518,31.7950778 1.62630326e-19,70.1825389 Z" id="path-59"></path>
        <path d="M1.62630326e-19,70.1825389 C-0.129036145,108.652743 30.9163855,139.943766 69.3421687,140.07379 C107.770482,140.203814 139.026747,109.123024 139.156627,70.6536647 C139.286506,32.1843054 108.240241,0.893281437 69.8136145,0.762413174 C69.7318072,0.762413174 69.6559036,0.762413174 69.5740964,0.762413174 C31.2596386,0.765790419 0.129879518,31.7950778 1.62630326e-19,70.1825389 Z" id="path-61"></path>
        <path d="M1.62630326e-19,70.1825389 C-0.129036145,108.652743 30.9163855,139.943766 69.3421687,140.07379 C107.770482,140.203814 139.026747,109.123024 139.156627,70.6536647 C139.286506,32.1843054 108.240241,0.893281437 69.8136145,0.762413174 C69.7318072,0.762413174 69.6559036,0.762413174 69.5740964,0.762413174 C31.2596386,0.765790419 0.129879518,31.7950778 1.62630326e-19,70.1825389 Z" id="path-63"></path>
        <path d="M1.62630326e-19,70.1825389 C-0.129036145,108.652743 30.9163855,139.943766 69.3421687,140.07379 C107.770482,140.203814 139.026747,109.123024 139.156627,70.6536647 C139.286506,32.1843054 108.240241,0.893281437 69.8136145,0.762413174 C69.7318072,0.762413174 69.6559036,0.762413174 69.5740964,0.762413174 C31.2596386,0.765790419 0.129879518,31.7950778 1.62630326e-19,70.1825389" id="path-65"></path>
        <path d="M1.62630326e-19,70.1825389 C-0.129036145,108.652743 30.9163855,139.943766 69.3421687,140.07379 C107.770482,140.203814 139.026747,109.123024 139.156627,70.6536647 C139.286506,32.1843054 108.240241,0.893281437 69.8136145,0.762413174 C69.7318072,0.762413174 69.6559036,0.762413174 69.5740964,0.762413174 C31.2596386,0.765790419 0.129879518,31.7950778 1.62630326e-19,70.1825389 Z" id="path-67"></path>
        <path d="M1.62630326e-19,70.1825389 C-0.129036145,108.652743 30.9163855,139.943766 69.3421687,140.07379 C107.770482,140.203814 139.026747,109.123024 139.156627,70.6536647 C139.286506,32.1843054 108.240241,0.893281437 69.8136145,0.762413174 C69.7318072,0.762413174 69.6559036,0.762413174 69.5740964,0.762413174 C31.2596386,0.765790419 0.129879518,31.7950778 1.62630326e-19,70.1825389" id="path-69"></path>
        <path d="M1.62630326e-19,70.1825389 C-0.129036145,108.652743 30.9163855,139.943766 69.3421687,140.07379 C107.770482,140.203814 139.026747,109.123024 139.156627,70.6536647 C139.286506,32.1843054 108.240241,0.893281437 69.8136145,0.762413174 C69.7318072,0.762413174 69.6559036,0.762413174 69.5740964,0.762413174 C31.2596386,0.765790419 0.129879518,31.7950778 1.62630326e-19,70.1825389 Z" id="path-71"></path>
        <path d="M1.62630326e-19,70.1825389 C-0.129036145,108.652743 30.9163855,139.943766 69.3421687,140.07379 C107.770482,140.203814 139.026747,109.123024 139.156627,70.6536647 C139.286506,32.1843054 108.240241,0.893281437 69.8136145,0.762413174 C69.7318072,0.762413174 69.6559036,0.762413174 69.5740964,0.762413174 C31.2596386,0.765790419 0.129879518,31.7950778 1.62630326e-19,70.1825389" id="path-73"></path>
        <path d="M1.62630326e-19,70.1825389 C-0.129036145,108.652743 30.9163855,139.943766 69.3421687,140.07379 C107.770482,140.203814 139.026747,109.123024 139.156627,70.6536647 C139.286506,32.1843054 108.240241,0.893281437 69.8136145,0.762413174 C69.7318072,0.762413174 69.6559036,0.762413174 69.5740964,0.762413174 C31.2596386,0.765790419 0.129879518,31.7950778 1.62630326e-19,70.1825389 Z" id="path-75"></path>
        <path d="M1.62630326e-19,70.1825389 C-0.129036145,108.652743 30.9163855,139.943766 69.3421687,140.07379 C107.770482,140.203814 139.026747,109.123024 139.156627,70.6536647 C139.286506,32.1843054 108.240241,0.893281437 69.8136145,0.762413174 C69.7318072,0.762413174 69.6559036,0.762413174 69.5740964,0.762413174 C31.2596386,0.765790419 0.129879518,31.7950778 1.62630326e-19,70.1825389" id="path-77"></path>
        <path d="M1.62630326e-19,70.1825389 C-0.129036145,108.652743 30.9163855,139.943766 69.3421687,140.07379 C107.770482,140.203814 139.026747,109.123024 139.156627,70.6536647 C139.286506,32.1843054 108.240241,0.893281437 69.8136145,0.762413174 C69.7318072,0.762413174 69.6559036,0.762413174 69.5740964,0.762413174 C31.2596386,0.765790419 0.129879518,31.7950778 1.62630326e-19,70.1825389 Z" id="path-79"></path>
        <path d="M1.62630326e-19,70.1825389 C-0.129036145,108.652743 30.9163855,139.943766 69.3421687,140.07379 C107.770482,140.203814 139.026747,109.123024 139.156627,70.6536647 C139.286506,32.1843054 108.240241,0.893281437 69.8136145,0.762413174 C69.7318072,0.762413174 69.6559036,0.762413174 69.5740964,0.762413174 C31.2596386,0.765790419 0.129879518,31.7950778 1.62630326e-19,70.1825389" id="path-81"></path>
        <path d="M1.62630326e-19,70.1825389 C-0.129036145,108.652743 30.9163855,139.943766 69.3421687,140.07379 C107.770482,140.203814 139.026747,109.123024 139.156627,70.6536647 C139.286506,32.1843054 108.240241,0.893281437 69.8136145,0.762413174 C69.7318072,0.762413174 69.6559036,0.762413174 69.5740964,0.762413174 C31.2596386,0.765790419 0.129879518,31.7950778 1.62630326e-19,70.1825389" id="path-83"></path>
    </defs>
    <g id="Page-1" stroke="none" stroke-width="1" fill="none" fill-rule="evenodd">
        <g id="Careers_page" transform="translate(-183.000000, -3351.000000)">
            <g id="Group-132" transform="translate(184.000000, 3352.000000)">
                <g id="Group-129" transform="translate(0.000000, 0.081898)">
                    <g id="Group-3">
                        <mask id="mask-2" fill="white">
                            <use xlink:href="#path-1"></use>
                        </mask>
                        <g id="Clip-2"></g>
                        <path d="M41.630012,72.7070299 C41.420012,72.4908862 41.1324217,72.3541078 40.8153133,72.3372216 C40.8153133,72.3372216 40.5918193,72.3262455 40.5892892,72.3262455 C40.4720602,72.3262455 40.3624217,72.3380659 40.2612169,72.360018 C40.0992892,71.8804491 40.2241084,71.7014551 40.4130241,71.4304311 L40.5176024,71.2767665 C40.6053133,71.1391437 40.6685663,70.9635269 40.7073614,70.7507605 C40.7436265,70.8022635 40.7773614,70.8495449 40.8094096,70.8917605 C41.0345904,71.1965569 41.3845904,71.3780838 41.7691687,71.3882156 C42.1798916,71.3991916 42.4649518,71.4878443 42.5518193,71.6330659 C42.6631446,71.8196587 42.6260361,72.2359042 42.4750723,72.6901437 C42.4160361,72.6639701 42.3519398,72.6428623 42.2853133,72.6276647 L42.1942289,72.6074012 L42.077,72.604024 C41.9024217,72.604024 41.753988,72.642018 41.630012,72.7070299" id="Fill-1" fill="#FFFFFF" mask="url(#mask-2)"></path>
                    </g>
                    <g id="Group-6">
                        <mask id="mask-4" fill="white">
                            <use xlink:href="#path-3"></use>
                        </mask>
                        <g id="Clip-5"></g>
                        <path d="M39.4515783,67.3888814 C39.2390482,67.3888814 39.0138675,67.5163725 38.8013373,67.8709832 L38.813988,67.8456539 L38.4083253,67.6278216 L38.633506,68.1960431 L38.773506,68.480576 C38.773506,68.480576 38.4901325,68.6494383 38.7262771,68.9626778 C38.7557952,69.0015162 38.7810964,69.0428874 38.7954337,69.0901689 C38.8443494,69.2615641 38.9430241,69.6989174 38.7684458,69.9969593 C38.7684458,69.9969593 38.8941084,70.2789593 39.0998916,70.2789593 C39.2027831,70.2789593 39.3259157,70.2088814 39.4625422,69.9994922 L39.8125422,69.2033066 C39.8125422,69.2033066 40.0292892,70.4748395 39.8066386,70.8218515 C39.5924217,71.1553545 39.1150723,71.6357677 39.4718193,72.6607617 C39.500494,72.7401269 39.5038675,72.827091 39.4777229,72.9073006 C39.4161566,73.095582 39.283747,73.4282407 39.1041084,73.4729892 C38.8510964,73.5354683 39.2491687,75.6530012 39.2491687,75.6530012 C39.2491687,75.6530012 39.2753133,76.0616479 39.5553133,76.0616479 C39.5957952,76.0616479 39.6421807,76.0532048 39.6944699,76.0337856 C40.1051928,75.8767437 39.8901325,75.3076778 39.8901325,75.3076778 C39.8901325,75.3076778 39.5477229,75.1362826 39.5148313,74.1247976 C39.5106145,74.0133485 39.5603735,73.9052766 39.6438675,73.8318216 L40.2823012,73.2644443 C40.3514578,73.2028096 40.4416988,73.1690371 40.5336265,73.1690371 L40.5538675,73.1690371 L40.7714578,73.1808575 C40.9451928,73.1893006 41.090253,73.315103 41.1248313,73.4856539 C41.1982048,73.8512407 41.300253,74.4650551 41.2133855,74.7428335 C41.0851928,75.1540132 41.2707349,76.5437497 41.0489277,76.8907617 C40.9747108,77.0064323 40.9991687,77.0452707 41.0649518,77.0452707 C41.1956747,77.0452707 41.490012,76.8924503 41.490012,76.8924503 L41.7801325,74.508115 C41.7818193,74.4988275 41.7826627,74.4895401 41.783506,74.4794084 C41.7877229,74.3603605 41.8324217,73.4485042 42.0778434,73.4485042 C42.0854337,73.4485042 42.0930241,73.4493485 42.1014578,73.4510371 C42.3418193,73.5059174 42.5501325,74.4076419 42.6083253,74.6837317 C42.6201325,74.7377677 42.6192892,74.790115 42.6074819,74.8441509 C42.6074819,74.8441509 42.0323012,75.9738395 42.3131446,76.1604323 C42.3392892,76.1781629 42.3654337,76.1857617 42.3907349,76.1857617 C42.5594096,76.1857617 42.7314578,75.8497257 43.0333855,75.5516838 C43.1194096,75.4672527 43.1556747,75.3448275 43.1354337,75.2257796 C43.0671205,74.7994024 42.9153133,73.7794743 43.0156747,73.5802168 C43.140494,73.3345222 44.4806145,70.6133066 41.7919398,70.5440731 C41.6721807,70.5415401 41.5591687,70.4866599 41.4874819,70.3904084 C41.2471205,70.0645042 40.7048313,69.2522766 40.4594096,68.2551449 C40.4509759,68.2179952 40.4366386,68.1842228 40.417241,68.1521389 C40.3076024,67.9748335 39.9078434,67.3888814 39.4515783,67.3888814" id="Fill-4" fill="#000000" mask="url(#mask-4)"></path>
                    </g>
                    <g id="Group-9">
                        <mask id="mask-6" fill="white">
                            <use xlink:href="#path-5"></use>
                        </mask>
                        <g id="Clip-8"></g>
                        <path d="M56.469759,72.7569287 C56.3440964,72.6902281 56.1931325,72.6513898 56.0151807,72.6513898 L55.9240964,72.6513898 L55.8110843,72.6741862 C55.7461446,72.6876952 55.6828916,72.7079587 55.6238554,72.733288 C55.4762651,72.2782042 55.4416867,71.8619587 55.5546988,71.6770545 C55.6424096,71.5326772 55.9266265,71.4448689 56.336506,71.4381144 C56.7227711,71.4313599 57.0753012,71.2515216 57.303012,70.9450365 C57.3342169,70.9036653 57.3679518,70.8572281 57.4033735,70.8074138 C57.4404819,71.0193359 57.5028916,71.195797 57.589759,71.3342641 L57.693494,71.4896174 C57.8798795,71.759797 58.0038554,71.9404796 57.8419277,72.4149826 C57.75,72.3930305 57.6546988,72.3820545 57.5593976,72.3820545 L57.2878313,72.3930305 C56.9698795,72.4073838 56.6806024,72.5424737 56.469759,72.7569287" id="Fill-7" fill="#FFFFFF" mask="url(#mask-6)"></path>
                    </g>
                    <g id="Group-12">
                        <mask id="mask-8" fill="white">
                            <use xlink:href="#path-7"></use>
                        </mask>
                        <g id="Clip-11"></g>
                        <path d="M58.6787229,67.4535557 C58.224988,67.4535557 57.8226988,68.0344419 57.7122169,68.210903 C57.6919759,68.2429868 57.6784819,68.2767593 57.6692048,68.3130647 C57.4170361,69.3085078 56.8688434,70.1173581 56.6259518,70.4415737 C56.5542651,70.5378251 56.441253,70.5910168 56.3206506,70.5935497 C53.6328193,70.6442084 54.9543855,73.3738671 55.0766747,73.6220946 C55.1753494,73.8205078 55.0167952,74.8395916 54.9451084,75.2659689 C54.9257108,75.3850168 54.9611325,75.5074419 55.0463133,75.5927174 C55.3465542,75.8932922 55.5160723,76.2310168 55.6839036,76.2310168 C55.7100482,76.2310168 55.7361928,76.223418 55.7623373,76.2056874 C56.0440241,76.0207832 55.4764337,74.8877174 55.4764337,74.8877174 C55.4646265,74.8336814 55.4637831,74.7813341 55.4764337,74.7272982 C55.5363133,74.4512084 55.7513735,73.5511725 55.9917349,73.4979808 C56.0001687,73.4962922 56.007759,73.4954479 56.0153494,73.4954479 C56.2607711,73.4954479 56.3004096,74.4098371 56.3037831,74.528885 C56.3046265,74.5390168 56.3054699,74.5474599 56.3063133,74.5575916 L56.5804096,76.9436156 C56.5804096,76.9436156 56.874747,77.0989689 57.0054699,77.0989689 C57.071253,77.0989689 57.0948675,77.0609749 57.021494,76.9444599 C56.8022169,76.5966036 56.9961928,75.2077114 56.8713735,74.7965317 C56.7861928,74.5170647 56.8916145,73.9040946 56.9683614,73.5393521 C57.0046265,73.3688012 57.1505301,73.2438431 57.3242651,73.2362443 L57.5418554,73.2269569 C57.5469157,73.2261126 57.5528193,73.2261126 57.5587229,73.2261126 C57.651494,73.2261126 57.7425783,73.2607293 57.8125783,73.3240527 L58.4484819,73.8956515 C58.5302892,73.9699509 58.5783614,74.0780228 58.5741446,74.1894719 C58.534506,75.2001126 58.191253,75.3689749 58.191253,75.3689749 C58.191253,75.3689749 57.9719759,75.9371964 58.381012,76.0967713 C58.4341446,76.1170347 58.4813735,76.1254778 58.5218554,76.1254778 C58.801012,76.1254778 58.8296867,75.7193641 58.8296867,75.7193641 C58.8296867,75.7193641 59.2420964,73.6043641 58.9899277,73.5401964 C58.8094458,73.4946036 58.6795663,73.1602563 58.6196867,72.9719749 C58.5926988,72.8917653 58.597759,72.8048012 58.6264337,72.7254359 C58.9907711,71.7029749 58.5159518,71.2200287 58.3051084,70.8839928 C58.084988,70.5361365 58.3101687,69.2654479 58.3101687,69.2654479 L58.6542651,70.0641665 C58.7908916,70.2760886 58.9131807,70.3461665 59.0160723,70.3461665 C59.2218554,70.3461665 59.3483614,70.0666994 59.3483614,70.0666994 C59.1754699,69.7669689 59.2775181,69.3304599 59.3281205,69.159909 C59.3424578,69.1126275 59.367759,69.0712563 59.3981205,69.032418 C59.6351084,68.7208671 59.3534217,68.5503162 59.3534217,68.5503162 L59.4951084,68.2666275 L59.724506,67.6992503 L59.318,67.9145497 L59.3298072,67.9407234 C59.1181205,67.581891 58.8929398,67.4535557 58.6787229,67.4535557" id="Fill-10" fill="#000000" mask="url(#mask-8)"></path>
                    </g>
                    <g id="Group-15">
                        <mask id="mask-10" fill="white">
                            <use xlink:href="#path-9"></use>
                        </mask>
                        <g id="Clip-14"></g>
                        <path d="M52.6647108,68.3580665 L52.7633855,68.3065635 L52.7979639,68.324294 L52.6723012,68.3597551 L52.6647108,68.3580665 Z M49.0154337,72.9460545 C48.5414578,72.9452102 48.0986867,72.8818868 47.6812169,72.7594617 L46.6278434,72.4495994 L46.620253,72.7535515 L46.3689277,72.6826293 L46.1538675,72.3330844 L45.3965181,72.3322401 L45.2582048,72.4369347 L45.0920602,72.4369347 L45.0051928,72.5205216 C44.9984458,72.5070126 44.9925422,72.4926593 44.9866386,72.4791503 C44.7901325,72.0451743 44.9478434,71.5900904 45.1755542,71.1789108 L45.1898916,71.4524677 L46.4929036,70.3320665 C46.7745904,70.0905934 47.1524217,69.8904916 47.5859157,69.7528689 L48.5448313,69.4497611 L48.0792892,68.557324 C47.830494,68.0785994 47.6938675,67.4664737 47.6955542,66.8323958 C47.7006145,65.4004437 48.4014578,64.3298569 49.0255542,64.3298569 C49.3047108,64.3298569 49.6041084,64.5485335 49.847,64.9284737 C50.1624217,65.4207072 50.3420602,66.1181084 50.3395301,66.8416832 C50.3378434,67.4757611 50.197,68.0870425 49.943988,68.5623898 L49.4716988,69.4514497 L50.4289277,69.7621563 C50.9045904,69.9166653 51.3060361,70.1404078 51.5894096,70.4105874 L52.8907349,71.6517251 L52.9219398,71.1831323 C53.1538675,71.6019108 53.3157952,72.0671263 53.1142289,72.5061683 C53.1091687,72.5171443 53.1041084,72.5281204 53.0990482,72.5399407 L53.0383253,72.4766174 L52.850253,72.4690186 L52.7355542,72.3828988 L52.4133855,72.3550365 L51.9444699,72.3550365 L51.730253,72.7012042 L51.4806145,72.7687491 L51.4755542,72.4386234 L50.3985663,72.7408868 C49.960012,72.8776653 49.4944699,72.9460545 49.0154337,72.9460545 Z" id="Fill-13" fill="#FFFFFF" mask="url(#mask-10)"></path>
                    </g>
                    <g id="Group-18">
                        <mask id="mask-12" fill="white">
                            <use xlink:href="#path-11"></use>
                        </mask>
                        <g id="Clip-17"></g>
                        <path d="M49.0243735,63.4851234 C47.8301566,63.4851234 46.8594337,64.9812431 46.8526867,66.830285 C46.8501566,67.6332251 47.0297952,68.3694647 47.3317229,68.947818 C46.7843735,69.1209018 46.3095542,69.3767281 45.9435301,69.6925006 C45.9325663,69.4839557 45.9325663,69.3015844 45.9570241,69.2239078 C46.0287108,68.9950994 46.2201566,68.4741593 46.0548554,68.1187042 L46.3711205,67.6543329 C45.9502771,67.8088419 45.9426867,67.8974946 45.9536506,67.9262012 C45.8069036,67.6729078 45.6289518,67.5015126 45.4189518,67.5006683 C45.4189518,67.5006683 45.0866627,67.6644647 44.8994337,67.9549078 L44.9087108,67.9338 L44.5705181,67.6484228 L44.7881084,68.2166443 L44.7897952,68.2124228 C44.777988,68.2715246 44.771241,68.3331593 44.7763012,68.3981713 C44.8226867,68.9672371 44.8184699,70.1281653 44.6514819,70.4118539 C44.484494,70.6955425 43.7237711,71.7348898 44.217988,72.8265844 C44.7105181,73.918279 44.4963012,74.4620156 44.4963012,74.4620156 C44.4963012,74.4620156 44.3284699,74.9829557 44.6126867,75.1028479 C44.8952169,75.2218958 44.3689518,76.7129497 44.7122048,76.8556383 C44.8269036,76.9046084 44.9416024,76.919806 45.0428072,76.919806 C45.241,76.919806 45.387747,76.8581713 45.387747,76.8581713 C45.387747,76.8581713 45.6719639,76.5981234 45.6255783,76.3608719 C45.5783494,76.1244647 45.2983494,75.0336144 45.3464217,74.867285 C45.3936506,74.7026443 45.2570241,73.2816683 45.4467831,73.2816683 L45.4476265,73.2816683 C45.5724458,73.2816683 45.667747,73.1769737 45.681241,73.1769737 C45.6888313,73.1769737 45.6753373,73.2031473 45.6356988,73.2816683 C45.5167831,73.5180754 45.6795542,74.3480335 45.6787108,74.4425964 C45.6787108,74.5371593 45.3919639,75.3890695 46.0995542,75.959824 C46.3103976,76.1303749 46.4436506,76.1911653 46.5263012,76.1911653 C46.7211205,76.1911653 46.6308795,75.8525964 46.5971446,75.8196683 C46.5499157,75.7723868 46.1020843,75.1543509 46.1518434,74.6815365 C46.200759,74.2078778 46.6553373,73.6405006 46.6553373,73.6405006 L46.9117229,73.7122671 C46.9117229,73.7122671 46.8872651,74.1859257 46.9091928,74.446818 C46.9328072,74.7077102 46.5296747,74.8715066 46.7649759,75.1568838 C47.0011205,75.4422611 46.9766627,76.2950156 46.9024458,76.6504707 C46.8526867,76.8978539 47.1014819,76.9350036 47.2566627,76.9350036 C47.3241325,76.9350036 47.3747349,76.9282491 47.3747349,76.9282491 C47.3747349,76.9282491 47.4708795,76.4149078 47.3772651,76.2485784 C47.2836506,76.0830934 47.487747,75.2776204 47.4236506,74.945806 C47.3587108,74.6139916 47.4464217,74.3775844 47.4405181,73.8093629 C47.4396747,73.7511054 47.4413614,73.6692072 47.4438916,73.5687341 C47.9178675,73.7088898 48.4424458,73.7882551 48.9948554,73.790788 L49.014253,73.790788 C49.6003976,73.790788 50.1528072,73.7021353 50.6487108,73.5476263 C50.6503976,73.6624527 50.6520843,73.7561713 50.6503976,73.8194946 C50.6402771,74.3885605 50.7271446,74.625812 50.6596747,74.956782 C50.5930482,75.2877521 50.7937711,76.0949138 50.6976265,76.2603988 C50.6023253,76.4258838 50.6950964,76.9392251 50.6950964,76.9392251 C50.6950964,76.9392251 50.7490723,76.946824 50.8199157,76.946824 C50.9750964,76.946824 51.217988,76.9088299 51.1690723,76.6639796 C51.0982289,76.3085246 51.0796747,75.4557701 51.3166627,75.1729257 C51.554494,74.8892371 51.1522048,74.7220635 51.177506,74.4611713 C51.2019639,74.200279 51.1800361,73.7266204 51.1800361,73.7266204 L51.4364217,73.6565425 C51.4364217,73.6565425 51.8884699,74.227297 51.9331687,74.7009557 C51.9795542,75.1746144 51.5283494,75.7892731 51.4802771,75.8365545 C51.4465422,75.8694826 51.3537711,76.2072072 51.5494337,76.2072072 C51.6320843,76.2072072 51.7653373,76.1481054 51.9761807,75.9800874 C52.6888313,75.4135545 52.407988,74.5599557 52.407988,74.4653928 C52.407988,74.3708299 52.5766627,73.5417162 52.4585904,73.3044647 C52.4197952,73.2259437 52.4071446,73.1989257 52.4138916,73.1989257 C52.4273855,73.1989257 52.5218434,73.305309 52.6483494,73.305309 C52.8372651,73.3061533 52.6913614,74.7271293 52.7369036,74.8934587 C52.7841325,75.0589437 52.4965422,76.1481054 52.4493133,76.3845126 C52.4003976,76.6217641 52.6837711,76.8826563 52.6837711,76.8826563 C52.6837711,76.8826563 52.8322048,76.946824 53.0337711,76.946824 C53.1324458,76.946824 53.2446145,76.9316263 53.3584699,76.8851892 C53.7025663,76.7441892 53.1864217,75.2497581 53.4697952,75.1323988 C53.7548554,75.0150395 53.5903976,74.4932551 53.5903976,74.4932551 C53.5903976,74.4932551 53.3795542,73.9478299 53.8805181,72.8595126 C54.3814819,71.7711952 53.6266627,70.726782 53.4630482,70.4414048 C53.297747,70.1568719 53.3019639,68.9959437 53.3508795,68.4277222 C53.3567831,68.3618659 53.3508795,68.3002311 53.3382289,68.2411293 L53.340759,68.2461952 L53.5625663,67.678818 L53.2218434,67.9616623 L53.2311205,67.9827701 C53.0464217,67.6906383 52.7149759,67.5251533 52.7149759,67.5251533 L52.7141325,67.5251533 C52.5041325,67.5251533 52.3253373,67.6957042 52.1760602,67.9464647 C52.1887108,67.9177581 52.1802771,67.8299497 51.7619639,67.6729078 L52.074012,68.1389677 C51.9070241,68.4935784 52.0950964,69.0153629 52.1650964,69.2450156 C52.1920843,69.3336683 52.1870241,69.5565665 52.1701566,69.7997281 C51.7948554,69.4417401 51.2854578,69.1521413 50.6900361,68.958794 C50.9953373,68.3829737 51.1808795,67.6475784 51.1834096,66.8446383 C51.1884699,64.9930635 50.2253373,63.4893449 49.0294337,63.4851234 L49.0243735,63.4851234 Z M49.0066627,70.1889557 L50.1696747,70.5663629 C50.5196747,70.6795006 50.8182289,70.8416084 51.0088313,71.0231353 L51.5190723,71.5094587 L51.5114819,71.5111473 L51.4735301,71.5111473 L51.4650964,71.5255006 L50.1485904,71.9349916 C49.7918434,72.0455964 49.4106386,72.1021653 48.9999157,72.1021653 C48.6220843,72.1004766 48.2594337,72.049818 47.9195542,71.9493449 L46.684012,71.5854467 L46.6241325,71.4883509 L46.4428072,71.4883509 L47.0424458,70.9724766 C47.2347349,70.8069916 47.5181084,70.6600814 47.8402771,70.5579198 L49.0066627,70.1889557 Z M49.0226867,65.2294707 C49.2116024,65.4321054 49.4983494,65.9969497 49.4966627,66.8395725 C49.4949759,67.3377162 49.3895542,67.8096862 49.1997952,68.1668299 L49.0117229,68.5205964 L48.8270241,68.1651413 C48.6397952,67.8071533 48.537747,67.3351832 48.5394337,66.8361952 C48.5419639,65.9935725 48.8329277,65.4312611 49.0226867,65.2294707 Z" id="Fill-16" fill="#000000" mask="url(#mask-12)"></path>
                    </g>
                    <g id="Group-21">
                        <mask id="mask-14" fill="white">
                            <use xlink:href="#path-13"></use>
                        </mask>
                        <g id="Clip-20"></g>
                        <polygon id="Fill-19" fill="#FFFFFF" mask="url(#mask-14)" points="20.0350964 86.0024856 20.0494337 81.7893719 76.2754578 81.9793419 76.2602771 86.1924557"></polygon>
                    </g>
                    <g id="Group-24">
                        <mask id="mask-16" fill="white">
                            <use xlink:href="#path-15"></use>
                        </mask>
                        <g id="Clip-23"></g>
                        <path d="M19.2081687,80.9419365 L19.1887711,86.8436731 L77.1015422,87.0395533 L77.1209398,81.1378168 L19.2081687,80.9419365 Z M20.8898554,82.6364695 L75.4291325,82.8205293 L75.4198554,85.3450204 L20.8805783,85.1609605 L20.8898554,82.6364695 Z" id="Fill-22" fill="#000000" mask="url(#mask-16)"></path>
                    </g>
                    <g id="Group-27">
                        <mask id="mask-18" fill="white">
                            <use xlink:href="#path-17"></use>
                        </mask>
                        <g id="Clip-26"></g>
                        <polygon id="Fill-25" fill="#FFFFFF" mask="url(#mask-18)" points="16.8493373 95.0841521 16.8788554 86.5219904 79.4141566 86.7330683 79.3837952 95.2960743"></polygon>
                    </g>
                    <g id="Group-30">
                        <mask id="mask-20" fill="white">
                            <use xlink:href="#path-19"></use>
                        </mask>
                        <g id="Clip-29"></g>
                        <path d="M16.0380964,85.674724 L16.0035181,95.9263527 L80.2247229,96.1424964 L80.2593012,85.891712 L16.0380964,85.674724 Z M17.7189398,87.3692569 L78.567494,87.5744246 L78.5438795,94.4488078 L17.6961687,94.2427958 L17.7189398,87.3692569 Z" id="Fill-28" fill="#000000" mask="url(#mask-20)"></path>
                    </g>
                    <g id="Group-33">
                        <mask id="mask-22" fill="white">
                            <use xlink:href="#path-21"></use>
                        </mask>
                        <g id="Clip-32"></g>
                        <polygon id="Fill-31" fill="#FFFFFF" mask="url(#mask-22)" points="40.2306867 80.3428976 40.242494 77.0914545 57.1015301 77.1488677 57.0897229 80.3994665"></polygon>
                    </g>
                    <g id="Group-36">
                        <mask id="mask-24" fill="white">
                            <use xlink:href="#path-23"></use>
                        </mask>
                        <g id="Clip-35"></g>
                        <path d="M39.4013976,76.2446102 L39.3845301,81.184676 L57.9311566,81.2471551 L57.9471807,76.3070892 L39.4013976,76.2446102 Z M41.082241,77.9391431 L56.2553735,77.9898018 L56.2503133,79.5526222 L41.0771807,79.5011192 L41.082241,77.9391431 Z" id="Fill-34" fill="#000000" mask="url(#mask-24)"></path>
                    </g>
                    <g id="Group-39">
                        <mask id="mask-26" fill="white">
                            <use xlink:href="#path-25"></use>
                        </mask>
                        <g id="Clip-38"></g>
                        <polygon id="Fill-37" fill="#FFFFFF" mask="url(#mask-26)" points="37.5054096 89.7202419 37.5366145 80.5400443 59.7831205 80.6160323 59.7519157 89.7953856"></polygon>
                    </g>
                    <g id="Group-42">
                        <mask id="mask-28" fill="white">
                            <use xlink:href="#path-27"></use>
                        </mask>
                        <g id="Clip-41"></g>
                        <path d="M36.6966145,79.6932 L36.659506,90.5620204 L60.592759,90.6422299 L60.6290241,79.7742539 L36.6966145,79.6932 Z M38.3766145,81.3877329 L58.9372169,81.4569665 L58.9119157,88.947697 L38.3521566,88.8784635 L38.3766145,81.3877329 Z" id="Fill-40" fill="#000000" mask="url(#mask-28)"></path>
                    </g>
                    <g id="Group-45">
                        <mask id="mask-30" fill="white">
                            <use xlink:href="#path-29"></use>
                        </mask>
                        <g id="Clip-44"></g>
                        <polygon id="Fill-43" fill="#FFFFFF" mask="url(#mask-30)" points="14.1495301 99.3267323 14.1655542 94.7877144 82.0706145 95.0173671 82.0562771 99.556385"></polygon>
                    </g>
                    <g id="Group-48">
                        <mask id="mask-32" fill="white">
                            <use xlink:href="#path-31"></use>
                        </mask>
                        <g id="Clip-47"></g>
                        <path d="M13.3242892,93.9405323 L13.3040482,100.168173 L82.8958554,100.403736 L82.9177831,94.1760952 L13.3242892,93.9405323 Z M15.0059759,95.6350653 L81.2251325,95.8588078 L81.215012,98.709203 L14.9958554,98.4854605 L15.0059759,95.6350653 Z" id="Fill-46" fill="#000000" mask="url(#mask-32)"></path>
                    </g>
                    <g id="Group-51">
                        <mask id="mask-34" fill="white">
                            <use xlink:href="#path-33"></use>
                        </mask>
                        <g id="Clip-50"></g>
                        <path d="M24.8943614,99.3923353 L24.3318313,99.3906467 L18.304241,99.3703832 L17.7417108,99.3686946 C17.5721928,99.3678503 17.4347229,99.5046287 17.4347229,99.673491 L17.4229157,103.312473 C17.4220723,103.481335 17.5586988,103.618958 17.7273735,103.619802 L18.2899036,103.621491 L18.1667711,139.954743 L24.1952048,139.975006 L24.317494,103.642599 L24.8800241,103.644287 C25.0495422,103.645132 25.187012,103.508353 25.1878554,103.338647 L25.1988193,99.6996647 C25.1996627,99.5308024 25.0630361,99.3931796 24.8943614,99.3923353" id="Fill-49" fill="#FFFFFF" mask="url(#mask-34)"></path>
                    </g>
                    <g id="Group-54">
                        <mask id="mask-36" fill="white">
                            <use xlink:href="#path-35"></use>
                        </mask>
                        <g id="Clip-53"></g>
                        <path d="M24.8943614,99.3923353 L24.3318313,99.3906467 L18.304241,99.3703832 L17.7417108,99.3686946 C17.5721928,99.3678503 17.4347229,99.5046287 17.4347229,99.673491 L17.4229157,103.312473 C17.4220723,103.481335 17.5586988,103.618958 17.7273735,103.619802 L18.2899036,103.621491 L18.1667711,139.954743 L24.1952048,139.975006 L24.317494,103.642599 L24.8800241,103.644287 C25.0495422,103.645132 25.187012,103.508353 25.1878554,103.338647 L25.1988193,99.6996647 C25.1996627,99.5308024 25.0630361,99.3931796 24.8943614,99.3923353 Z" id="Stroke-52" stroke="#000000" stroke-width="2" stroke-linejoin="round" mask="url(#mask-36)"></path>
                    </g>
                    <g id="Group-57">
                        <mask id="mask-38" fill="white">
                            <use xlink:href="#path-37"></use>
                        </mask>
                        <g id="Clip-56"></g>
                        <path d="M38.2178072,99.4376749 L37.6552771,99.4359862 L31.6276867,99.4157228 L31.0651566,99.4131898 C30.8956386,99.4131898 30.7581687,99.549124 30.7573253,99.7188305 L30.7463614,103.357813 C30.7455181,103.526675 30.8821446,103.664298 31.0508193,103.665142 L31.612506,103.666831 L31.4902169,140.000082 L37.5186506,140.020346 L37.6409398,103.687094 L38.2034699,103.689627 C38.372988,103.689627 38.5104578,103.552849 38.5104578,103.383986 L38.5222651,99.7450042 C38.5231084,99.5761419 38.3864819,99.4376749 38.2178072,99.4376749" id="Fill-55" fill="#FFFFFF" mask="url(#mask-38)"></path>
                    </g>
                    <g id="Group-60">
                        <mask id="mask-40" fill="white">
                            <use xlink:href="#path-39"></use>
                        </mask>
                        <g id="Clip-59"></g>
                        <path d="M38.2178072,99.4376749 L37.6552771,99.4359862 L31.6276867,99.4157228 L31.0651566,99.4131898 C30.8956386,99.4131898 30.7581687,99.549124 30.7573253,99.7188305 L30.7463614,103.357813 C30.7455181,103.526675 30.8821446,103.664298 31.0508193,103.665142 L31.612506,103.666831 L31.4902169,140.000082 L37.5186506,140.020346 L37.6409398,103.687094 L38.2034699,103.689627 C38.372988,103.689627 38.5104578,103.552849 38.5104578,103.383986 L38.5222651,99.7450042 C38.5231084,99.5761419 38.3864819,99.4376749 38.2178072,99.4376749 Z" id="Stroke-58" stroke="#000000" stroke-width="2" stroke-linejoin="round" mask="url(#mask-40)"></path>
                    </g>
                    <g id="Group-63">
                        <mask id="mask-42" fill="white">
                            <use xlink:href="#path-41"></use>
                        </mask>
                        <g id="Clip-62"></g>
                        <path d="M51.5413373,99.4825922 L50.9788072,99.4809036 L44.9512169,99.4606401 L44.3886867,99.4581072 C44.2191687,99.4581072 44.0816988,99.5948856 44.0808554,99.7637479 L44.0690482,103.40273 C44.0690482,103.571592 44.2056747,103.709215 44.3743494,103.710059 L44.9360361,103.711748 L44.8129036,140.044999 L50.8421807,140.065263 L50.9644699,103.732011 L51.527,103.734544 C51.6965181,103.734544 51.833988,103.59861 51.833988,103.428904 L51.8457952,99.7899216 C51.8466386,99.6210593 51.710012,99.4825922 51.5413373,99.4825922" id="Fill-61" fill="#FFFFFF" mask="url(#mask-42)"></path>
                    </g>
                    <g id="Group-66">
                        <mask id="mask-44" fill="white">
                            <use xlink:href="#path-43"></use>
                        </mask>
                        <g id="Clip-65"></g>
                        <path d="M51.5413373,99.4825922 L50.9788072,99.4809036 L44.9512169,99.4606401 L44.3886867,99.4581072 C44.2191687,99.4581072 44.0816988,99.5948856 44.0808554,99.7637479 L44.0690482,103.40273 C44.0690482,103.571592 44.2056747,103.709215 44.3743494,103.710059 L44.9360361,103.711748 L44.8129036,140.044999 L50.8421807,140.065263 L50.9644699,103.732011 L51.527,103.734544 C51.6965181,103.734544 51.833988,103.59861 51.833988,103.428904 L51.8457952,99.7899216 C51.8466386,99.6210593 51.710012,99.4825922 51.5413373,99.4825922 Z" id="Stroke-64" stroke="#000000" stroke-width="2" stroke-linejoin="round" mask="url(#mask-44)"></path>
                    </g>
                    <g id="Group-69">
                        <mask id="mask-46" fill="white">
                            <use xlink:href="#path-45"></use>
                        </mask>
                        <g id="Clip-68"></g>
                        <path d="M64.8647831,99.5275096 L64.302253,99.525821 L58.2746627,99.5055575 L57.7121325,99.5038689 C57.5426145,99.5030246 57.4051446,99.639803 57.4043012,99.8086653 L57.392494,103.447647 C57.392494,103.61651 57.5282771,103.754132 57.6977952,103.754977 L58.2594819,103.756665 L58.1363494,140.089917 L64.1656265,140.11018 L64.2879157,103.777773 L64.8504458,103.779462 C65.0199639,103.780306 65.1574337,103.643528 65.1574337,103.473821 L65.169241,99.8348389 C65.1700843,99.6659766 65.0334578,99.5283539 64.8647831,99.5275096" id="Fill-67" fill="#FFFFFF" mask="url(#mask-46)"></path>
                    </g>
                    <g id="Group-72">
                        <mask id="mask-48" fill="white">
                            <use xlink:href="#path-47"></use>
                        </mask>
                        <g id="Clip-71"></g>
                        <path d="M64.8647831,99.5275096 L64.302253,99.525821 L58.2746627,99.5055575 L57.7121325,99.5038689 C57.5426145,99.5030246 57.4051446,99.639803 57.4043012,99.8086653 L57.392494,103.447647 C57.392494,103.61651 57.5282771,103.754132 57.6977952,103.754977 L58.2594819,103.756665 L58.1363494,140.089917 L64.1656265,140.11018 L64.2879157,103.777773 L64.8504458,103.779462 C65.0199639,103.780306 65.1574337,103.643528 65.1574337,103.473821 L65.169241,99.8348389 C65.1700843,99.6659766 65.0334578,99.5283539 64.8647831,99.5275096 Z" id="Stroke-70" stroke="#000000" stroke-width="2" stroke-linejoin="round" mask="url(#mask-48)"></path>
                    </g>
                    <g id="Group-75">
                        <mask id="mask-50" fill="white">
                            <use xlink:href="#path-49"></use>
                        </mask>
                        <g id="Clip-74"></g>
                        <path d="M78.1883133,99.5728491 L77.6257831,99.5711605 L71.5981928,99.550897 L71.0356627,99.5483641 C70.8661446,99.5483641 70.7286747,99.6842982 70.7278313,99.8540048 L70.7160241,103.492987 C70.7160241,103.661849 70.8518072,103.799472 71.0213253,103.800316 L71.583012,103.802005 L71.4598795,140.135256 L77.4891566,140.15552 L77.6114458,103.822268 L78.1731325,103.824801 C78.343494,103.824801 78.4809639,103.688867 78.4809639,103.51916 L78.4927711,99.8801784 C78.4936145,99.7113162 78.356988,99.5728491 78.1883133,99.5728491" id="Fill-73" fill="#FFFFFF" mask="url(#mask-50)"></path>
                    </g>
                    <g id="Group-78">
                        <mask id="mask-52" fill="white">
                            <use xlink:href="#path-51"></use>
                        </mask>
                        <g id="Clip-77"></g>
                        <path d="M78.1883133,99.5728491 L77.6257831,99.5711605 L71.5981928,99.550897 L71.0356627,99.5483641 C70.8661446,99.5483641 70.7286747,99.6842982 70.7278313,99.8540048 L70.7160241,103.492987 C70.7160241,103.661849 70.8518072,103.799472 71.0213253,103.800316 L71.583012,103.802005 L71.4598795,140.135256 L77.4891566,140.15552 L77.6114458,103.822268 L78.1731325,103.824801 C78.343494,103.824801 78.4809639,103.688867 78.4809639,103.51916 L78.4927711,99.8801784 C78.4936145,99.7113162 78.356988,99.5728491 78.1883133,99.5728491 Z" id="Stroke-76" stroke="#000000" stroke-width="2" stroke-linejoin="round" mask="url(#mask-52)"></path>
                    </g>
                    <g id="Group-81">
                        <mask id="mask-54" fill="white">
                            <use xlink:href="#path-53"></use>
                        </mask>
                        <g id="Clip-80"></g>
                        <polygon id="Fill-79" fill="#FFFFFF" mask="url(#mask-54)" points="102.121482 139.251009 81.2850964 139.180931 81.3196747 128.998536 102.15606 129.069458"></polygon>
                    </g>
                    <g id="Group-84">
                        <mask id="mask-56" fill="white">
                            <use xlink:href="#path-55"></use>
                        </mask>
                        <g id="Clip-83"></g>
                        <polygon id="Stroke-82" stroke="#000000" stroke-width="2" stroke-linejoin="round" mask="url(#mask-56)" points="102.121482 139.251009 81.2850964 139.180931 81.3196747 128.998536 102.15606 129.069458"></polygon>
                    </g>
                    <g id="Group-87">
                        <mask id="mask-58" fill="white">
                            <use xlink:href="#path-57"></use>
                        </mask>
                        <g id="Clip-86"></g>
                        <path d="M98.0668795,129.055358 L82.2991687,129.002166 C80.900012,128.997101 79.7690482,127.858125 79.7741084,126.456568 C79.7774819,125.055855 80.9160361,123.923634 82.3160361,123.928699 L98.0845904,123.981891 C99.483747,123.986957 100.614711,125.125933 100.609651,126.52749 C100.60459,127.928202 99.4660361,129.060424 98.0668795,129.055358" id="Fill-85" fill="#FFFFFF" mask="url(#mask-58)"></path>
                    </g>
                    <g id="Group-90">
                        <mask id="mask-60" fill="white">
                            <use xlink:href="#path-59"></use>
                        </mask>
                        <g id="Clip-89"></g>
                        <path d="M98.0668795,129.055358 L82.2991687,129.002166 C80.900012,128.997101 79.7690482,127.858125 79.7741084,126.456568 C79.7774819,125.055855 80.9160361,123.923634 82.3160361,123.928699 L98.0845904,123.981891 C99.483747,123.986957 100.614711,125.125933 100.609651,126.52749 C100.60459,127.928202 99.4660361,129.060424 98.0668795,129.055358 Z" id="Stroke-88" stroke="#000000" stroke-width="2" stroke-linejoin="round" mask="url(#mask-60)"></path>
                    </g>
                    <g id="Group-93">
                        <mask id="mask-62" fill="white">
                            <use xlink:href="#path-61"></use>
                        </mask>
                        <g id="Clip-92"></g>
                        <path d="M90.9262048,139.213015 L96.565,13.2789072 C96.5970482,12.5232485 97.7136747,12.5224042 97.7474096,13.2780629 L103.521145,139.256075 L90.9262048,139.213015 Z" id="Fill-91" fill="#FFFFFF" mask="url(#mask-62)"></path>
                    </g>
                    <g id="Group-96">
                        <mask id="mask-64" fill="white">
                            <use xlink:href="#path-63"></use>
                        </mask>
                        <g id="Clip-95"></g>
                        <path d="M90.9262048,139.213015 L96.565,13.2789072 C96.5970482,12.5232485 97.7136747,12.5224042 97.7474096,13.2780629 L103.521145,139.256075 L90.9262048,139.213015 Z" id="Stroke-94" stroke="#000000" stroke-width="2" stroke-linejoin="round" mask="url(#mask-64)"></path>
                    </g>
                    <g id="Group-99">
                        <mask id="mask-66" fill="white">
                            <use xlink:href="#path-65"></use>
                        </mask>
                        <g id="Clip-98"></g>
                        <path d="M107.235277,53.3423263 C107.216723,58.8894521 102.709735,63.3710569 97.1679277,63.3516377 C91.6278072,63.3330629 87.1520241,58.8210629 87.1705783,53.2747814 C87.1882892,47.7276557 91.6952771,43.2460509 97.2370843,43.2646257 C102.777205,43.2840449 107.252988,47.7960449 107.235277,53.3423263" id="Fill-97" fill="#FFFFFF" mask="url(#mask-66)"></path>
                    </g>
                    <g id="Group-102">
                        <mask id="mask-68" fill="white">
                            <use xlink:href="#path-67"></use>
                        </mask>
                        <g id="Clip-101"></g>
                        <path d="M107.235277,53.3423263 C107.216723,58.8894521 102.709735,63.3710569 97.1679277,63.3516377 C91.6278072,63.3330629 87.1520241,58.8210629 87.1705783,53.2747814 C87.1882892,47.7276557 91.6952771,43.2460509 97.2370843,43.2646257 C102.777205,43.2840449 107.252988,47.7960449 107.235277,53.3423263 Z" id="Stroke-100" stroke="#000000" stroke-width="2" stroke-linejoin="round" mask="url(#mask-68)"></path>
                    </g>
                    <g id="Group-105">
                        <mask id="mask-70" fill="white">
                            <use xlink:href="#path-69"></use>
                        </mask>
                        <g id="Clip-104"></g>
                        <path d="M101.836506,38.9275671 L92.3553012,38.8954832 C91.3904819,38.892106 90.6112048,38.1068964 90.6145783,37.1410042 C90.6179518,36.175112 91.4022892,35.3949683 92.3671084,35.3983455 L101.848313,35.4304293 C102.812289,35.4338066 103.591566,36.2190162 103.588193,37.1849084 C103.584819,38.1508006 102.801325,38.9309443 101.836506,38.9275671" id="Fill-103" fill="#FFFFFF" mask="url(#mask-70)"></path>
                    </g>
                    <g id="Group-108">
                        <mask id="mask-72" fill="white">
                            <use xlink:href="#path-71"></use>
                        </mask>
                        <g id="Clip-107"></g>
                        <path d="M101.836506,38.9275671 L92.3553012,38.8954832 C91.3904819,38.892106 90.6112048,38.1068964 90.6145783,37.1410042 C90.6179518,36.175112 91.4022892,35.3949683 92.3671084,35.3983455 L101.848313,35.4304293 C102.812289,35.4338066 103.591566,36.2190162 103.588193,37.1849084 C103.584819,38.1508006 102.801325,38.9309443 101.836506,38.9275671 Z" id="Stroke-106" stroke="#000000" stroke-width="2" stroke-linejoin="round" mask="url(#mask-72)"></path>
                    </g>
                    <g id="Group-111">
                        <mask id="mask-74" fill="white">
                            <use xlink:href="#path-73"></use>
                        </mask>
                        <g id="Clip-110"></g>
                        <path d="M104.327072,73.7109162 L90.252012,73.6636347 C88.8199639,73.6585689 87.6628554,72.4925749 87.6679157,71.0589341 C87.6729759,69.6252934 88.8376747,68.4677425 90.2697229,68.4719641 L104.344783,68.5200898 C105.775988,68.5243114 106.933096,69.6911497 106.928036,71.1247904 C106.922976,72.5575868 105.758277,73.715982 104.327072,73.7109162" id="Fill-109" fill="#FFFFFF" mask="url(#mask-74)"></path>
                    </g>
                    <g id="Group-114">
                        <mask id="mask-76" fill="white">
                            <use xlink:href="#path-75"></use>
                        </mask>
                        <g id="Clip-113"></g>
                        <path d="M104.327072,73.7109162 L90.252012,73.6636347 C88.8199639,73.6585689 87.6628554,72.4925749 87.6679157,71.0589341 C87.6729759,69.6252934 88.8376747,68.4677425 90.2697229,68.4719641 L104.344783,68.5200898 C105.775988,68.5243114 106.933096,69.6911497 106.928036,71.1247904 C106.922976,72.5575868 105.758277,73.715982 104.327072,73.7109162 Z" id="Stroke-112" stroke="#000000" stroke-width="2" stroke-linejoin="round" mask="url(#mask-76)"></path>
                    </g>
                    <g id="Group-117">
                        <mask id="mask-78" fill="white">
                            <use xlink:href="#path-77"></use>
                        </mask>
                        <g id="Clip-116"></g>
                        <path d="M99.9694458,32.0086042 L94.268241,31.989185 C93.3498072,31.9866521 92.6084819,31.2385922 92.611012,30.3191371 C92.6143855,29.399682 93.3616145,28.656688 94.2800482,28.6600653 L99.981253,28.6794844 C100.899687,28.6828617 101.640169,29.4300772 101.638482,30.3495323 C101.635108,31.2689874 100.88788,32.0111371 99.9694458,32.0086042" id="Fill-115" fill="#FFFFFF" mask="url(#mask-78)"></path>
                    </g>
                    <g id="Group-120">
                        <mask id="mask-80" fill="white">
                            <use xlink:href="#path-79"></use>
                        </mask>
                        <g id="Clip-119"></g>
                        <path d="M99.9694458,32.0086042 L94.268241,31.989185 C93.3498072,31.9866521 92.6084819,31.2385922 92.611012,30.3191371 C92.6143855,29.399682 93.3616145,28.656688 94.2800482,28.6600653 L99.981253,28.6794844 C100.899687,28.6828617 101.640169,29.4300772 101.638482,30.3495323 C101.635108,31.2689874 100.88788,32.0111371 99.9694458,32.0086042 Z" id="Stroke-118" stroke="#000000" stroke-width="2" stroke-linejoin="round" mask="url(#mask-80)"></path>
                    </g>
                    <g id="Group-124">
                        <mask id="mask-82" fill="white">
                            <use xlink:href="#path-81"></use>
                        </mask>
                        <g id="Clip-122"></g>
                        <path d="M87.29,54.9773353 L107.10759,55.0448802" id="Fill-121" fill="#FFFFFF" mask="url(#mask-82)"></path>
                        <path d="M87.29,54.9773353 L107.10759,55.0448802" id="Stroke-123" stroke="#000000" stroke-width="2" stroke-linejoin="round" mask="url(#mask-82)"></path>
                    </g>
                    <g id="Group-128">
                        <mask id="mask-84" fill="white">
                            <use xlink:href="#path-83"></use>
                        </mask>
                        <g id="Clip-126"></g>
                        <path d="M88.6959036,58.8266353 L105.817229,58.8840485" id="Fill-125" fill="#FFFFFF" mask="url(#mask-84)"></path>
                        <path d="M88.6959036,58.8266353 L105.817229,58.8840485" id="Stroke-127" stroke="#000000" stroke-width="2" stroke-linejoin="round" mask="url(#mask-84)"></path>
                    </g>
                </g>
                <path d="M139.156627,70.5000844 C139.156627,108.969444 108.00494,140.155773 69.5783133,140.155773 C31.1516867,140.155773 0,108.969444 0,70.5000844 C0,32.0307251 31.1516867,0.844395808 69.5783133,0.844395808 C108.00494,0.844395808 139.156627,32.0307251 139.156627,70.5000844 Z" id="Stroke-130" stroke="#1CB3B2" stroke-width="2"></path>
            </g>
        </g>
    </g>
</svg>