<?xml version="1.0" encoding="UTF-8"?>
<svg width="142px" height="144px" viewBox="0 0 142 144" version="1.1" xmlns="http://www.w3.org/2000/svg" xmlns:xlink="http://www.w3.org/1999/xlink">
    <!-- Generator: sketchtool 52.5 (67469) - http://www.bohemiancoding.com/sketch -->
    <title>0FDE79D3-FF61-4211-9018-19B70E3A800A</title>
    <desc>Created with sketchtool.</desc>
    <defs>
        <path d="M0,70.8326429 C0,109.55469 31.3203614,140.945143 69.956988,140.945143 C108.593614,140.945143 139.914819,109.55469 139.914819,70.8326429 C139.914819,32.1114405 108.593614,0.721833333 69.956988,0.721833333 C31.3203614,0.721833333 0,32.1114405 0,70.8326429" id="path-1"></path>
        <path d="M0,70.8326429 C0,109.55469 31.3203614,140.945143 69.956988,140.945143 C108.593614,140.945143 139.914819,109.55469 139.914819,70.8326429 C139.914819,32.1114405 108.593614,0.721833333 69.956988,0.721833333 C31.3203614,0.721833333 0,32.1114405 0,70.8326429 Z" id="path-3"></path>
        <path d="M0,70.8326429 C0,109.55469 31.3203614,140.945143 69.956988,140.945143 C108.593614,140.945143 139.914819,109.55469 139.914819,70.8326429 C139.914819,32.1114405 108.593614,0.721833333 69.956988,0.721833333 C31.3203614,0.721833333 0,32.1114405 0,70.8326429 Z" id="path-5"></path>
        <path d="M0,70.8326429 C0,109.55469 31.3203614,140.945143 69.956988,140.945143 C108.593614,140.945143 139.914819,109.55469 139.914819,70.8326429 C139.914819,32.1114405 108.593614,0.721833333 69.956988,0.721833333 C31.3203614,0.721833333 0,32.1114405 0,70.8326429 Z" id="path-7"></path>
        <path d="M0,70.8326429 C0,109.55469 31.3203614,140.945143 69.956988,140.945143 C108.593614,140.945143 139.914819,109.55469 139.914819,70.8326429 C139.914819,32.1114405 108.593614,0.721833333 69.956988,0.721833333 C31.3203614,0.721833333 0,32.1114405 0,70.8326429 Z" id="path-9"></path>
        <path d="M0,70.8326429 C0,109.55469 31.3203614,140.945143 69.956988,140.945143 C108.593614,140.945143 139.914819,109.55469 139.914819,70.8326429 C139.914819,32.1114405 108.593614,0.721833333 69.956988,0.721833333 C31.3203614,0.721833333 0,32.1114405 0,70.8326429 Z" id="path-11"></path>
        <path d="M0,70.8326429 C0,109.55469 31.3203614,140.945143 69.956988,140.945143 C108.593614,140.945143 139.914819,109.55469 139.914819,70.8326429 C139.914819,32.1114405 108.593614,0.721833333 69.956988,0.721833333 C31.3203614,0.721833333 0,32.1114405 0,70.8326429 Z" id="path-13"></path>
        <path d="M0,70.8326429 C0,109.55469 31.3203614,140.945143 69.956988,140.945143 C108.593614,140.945143 139.914819,109.55469 139.914819,70.8326429 C139.914819,32.1114405 108.593614,0.721833333 69.956988,0.721833333 C31.3203614,0.721833333 0,32.1114405 0,70.8326429 Z" id="path-15"></path>
        <path d="M0,70.8326429 C0,109.55469 31.3203614,140.945143 69.956988,140.945143 C108.593614,140.945143 139.914819,109.55469 139.914819,70.8326429 C139.914819,32.1114405 108.593614,0.721833333 69.956988,0.721833333 C31.3203614,0.721833333 0,32.1114405 0,70.8326429 Z" id="path-17"></path>
        <path d="M0,70.8326429 C0,109.55469 31.3203614,140.945143 69.956988,140.945143 C108.593614,140.945143 139.914819,109.55469 139.914819,70.8326429 C139.914819,32.1114405 108.593614,0.721833333 69.956988,0.721833333 C31.3203614,0.721833333 0,32.1114405 0,70.8326429" id="path-19"></path>
        <path d="M0,70.8326429 C0,109.55469 31.3203614,140.945143 69.956988,140.945143 C108.593614,140.945143 139.914819,109.55469 139.914819,70.8326429 C139.914819,32.1114405 108.593614,0.721833333 69.956988,0.721833333 C31.3203614,0.721833333 0,32.1114405 0,70.8326429" id="path-21"></path>
        <path d="M0,70.8326429 C0,109.55469 31.3203614,140.945143 69.956988,140.945143 C108.593614,140.945143 139.914819,109.55469 139.914819,70.8326429 C139.914819,32.1114405 108.593614,0.721833333 69.956988,0.721833333 C31.3203614,0.721833333 0,32.1114405 0,70.8326429" id="path-23"></path>
        <path d="M0,70.8326429 C0,109.55469 31.3203614,140.945143 69.956988,140.945143 C108.593614,140.945143 139.914819,109.55469 139.914819,70.8326429 C139.914819,32.1114405 108.593614,0.721833333 69.956988,0.721833333 C31.3203614,0.721833333 0,32.1114405 0,70.8326429" id="path-25"></path>
        <path d="M0,70.8326429 C0,109.55469 31.3203614,140.945143 69.956988,140.945143 C108.593614,140.945143 139.914819,109.55469 139.914819,70.8326429 C139.914819,32.1114405 108.593614,0.721833333 69.956988,0.721833333 C31.3203614,0.721833333 0,32.1114405 0,70.8326429" id="path-27"></path>
        <path d="M0,70.8326429 C0,109.55469 31.3203614,140.945143 69.956988,140.945143 C108.593614,140.945143 139.914819,109.55469 139.914819,70.8326429 C139.914819,32.1114405 108.593614,0.721833333 69.956988,0.721833333 C31.3203614,0.721833333 0,32.1114405 0,70.8326429" id="path-29"></path>
        <path d="M0,70.8326429 C0,109.55469 31.3203614,140.945143 69.956988,140.945143 C108.593614,140.945143 139.914819,109.55469 139.914819,70.8326429 C139.914819,32.1114405 108.593614,0.721833333 69.956988,0.721833333 C31.3203614,0.721833333 0,32.1114405 0,70.8326429" id="path-31"></path>
        <path d="M0,70.8326429 C0,109.55469 31.3203614,140.945143 69.956988,140.945143 C108.593614,140.945143 139.914819,109.55469 139.914819,70.8326429 C139.914819,32.1114405 108.593614,0.721833333 69.956988,0.721833333 C31.3203614,0.721833333 0,32.1114405 0,70.8326429 Z" id="path-33"></path>
        <path d="M0,70.8326429 C0,109.55469 31.3203614,140.945143 69.956988,140.945143 C108.593614,140.945143 139.914819,109.55469 139.914819,70.8326429 C139.914819,32.1114405 108.593614,0.721833333 69.956988,0.721833333 C31.3203614,0.721833333 0,32.1114405 0,70.8326429 Z" id="path-35"></path>
        <path d="M0,70.8326429 C0,109.55469 31.3203614,140.945143 69.956988,140.945143 C108.593614,140.945143 139.914819,109.55469 139.914819,70.8326429 C139.914819,32.1114405 108.593614,0.721833333 69.956988,0.721833333 C31.3203614,0.721833333 0,32.1114405 0,70.8326429 Z" id="path-37"></path>
        <path d="M0,70.8326429 C0,109.55469 31.3203614,140.945143 69.956988,140.945143 C108.593614,140.945143 139.914819,109.55469 139.914819,70.8326429 C139.914819,32.1114405 108.593614,0.721833333 69.956988,0.721833333 C31.3203614,0.721833333 0,32.1114405 0,70.8326429 Z" id="path-39"></path>
        <path d="M0,70.8326429 C0,109.55469 31.3203614,140.945143 69.956988,140.945143 C108.593614,140.945143 139.914819,109.55469 139.914819,70.8326429 C139.914819,32.1114405 108.593614,0.721833333 69.956988,0.721833333 C31.3203614,0.721833333 0,32.1114405 0,70.8326429" id="path-41"></path>
        <path d="M0,70.8326429 C0,109.55469 31.3203614,140.945143 69.956988,140.945143 C108.593614,140.945143 139.914819,109.55469 139.914819,70.8326429 C139.914819,32.1114405 108.593614,0.721833333 69.956988,0.721833333 C31.3203614,0.721833333 0,32.1114405 0,70.8326429" id="path-43"></path>
    </defs>
    <g id="Page-1" stroke="none" stroke-width="1" fill="none" fill-rule="evenodd">
        <g id="Careers_page" transform="translate(-929.000000, -3350.000000)">
            <g id="Group-70" transform="translate(930.000000, 3351.000000)">
                <g id="Group-67" transform="translate(0.000000, 0.124250)">
                    <g id="Group-3">
                        <mask id="mask-2" fill="white">
                            <use xlink:href="#path-1"></use>
                        </mask>
                        <g id="Clip-2"></g>
                        <path d="M55.4006988,129.226762 C65.3305783,125.735929 76.1316627,125.609988 86.1399759,128.867536 L86.3432289,128.933464" id="Stroke-1" stroke="#000000" stroke-width="2" mask="url(#mask-2)"></path>
                    </g>
                    <g id="Group-6">
                        <mask id="mask-4" fill="white">
                            <use xlink:href="#path-3"></use>
                        </mask>
                        <g id="Clip-5"></g>
                        <path d="M72.8949639,29.3661071 C72.8949639,29.3661071 74.9359277,98.0729762 107.320627,154.823952 L94.1918313,154.948202 C94.1918313,154.948202 71.6973735,110.130298 68.9791807,29.4032976 L72.8949639,29.3661071 Z" id="Fill-4" fill="#FFFFFF" mask="url(#mask-4)"></path>
                    </g>
                    <g id="Group-9">
                        <mask id="mask-6" fill="white">
                            <use xlink:href="#path-5"></use>
                        </mask>
                        <g id="Clip-8"></g>
                        <path d="M72.8949639,29.3661071 C72.8949639,29.3661071 74.9359277,98.0729762 107.320627,154.823952 L94.1918313,154.948202 C94.1918313,154.948202 71.6973735,110.130298 68.9791807,29.4032976 L72.8949639,29.3661071 Z" id="Stroke-7" stroke="#000000" stroke-width="2" mask="url(#mask-6)"></path>
                    </g>
                    <g id="Group-12">
                        <mask id="mask-8" fill="white">
                            <use xlink:href="#path-7"></use>
                        </mask>
                        <g id="Clip-11"></g>
                        <path d="M67.0193494,29.4218083 C67.0193494,29.4218083 66.2763373,98.1548798 34.9703133,155.510201 L48.0991084,155.385106 C48.0991084,155.385106 69.7426024,110.148808 70.9351325,29.3846179 L67.0193494,29.4218083 Z" id="Fill-10" fill="#FFFFFF" mask="url(#mask-8)"></path>
                    </g>
                    <g id="Group-15">
                        <mask id="mask-10" fill="white">
                            <use xlink:href="#path-9"></use>
                        </mask>
                        <g id="Clip-14"></g>
                        <path d="M67.0193494,29.4218083 C67.0193494,29.4218083 66.2763373,98.1548798 34.9703133,155.510201 L48.0991084,155.385106 C48.0991084,155.385106 69.7426024,110.148808 70.9351325,29.3846179 L67.0193494,29.4218083 Z" id="Stroke-13" stroke="#000000" stroke-width="2" mask="url(#mask-10)"></path>
                    </g>
                    <g id="Group-18">
                        <mask id="mask-12" fill="white">
                            <use xlink:href="#path-11"></use>
                        </mask>
                        <g id="Clip-17"></g>
                        <polygon id="Fill-16" fill="#FFFFFF" mask="url(#mask-12)" points="54.7154578 79.4959952 86.7999157 79.1917095 84.9048554 83.4136738 57.2691928 83.6765429"></polygon>
                    </g>
                    <g id="Group-21">
                        <mask id="mask-14" fill="white">
                            <use xlink:href="#path-13"></use>
                        </mask>
                        <g id="Clip-20"></g>
                        <polygon id="Stroke-19" stroke="#000000" stroke-width="2" mask="url(#mask-14)" points="54.7154578 79.4959952 86.7999157 79.1917095 84.9048554 83.4136738 57.2691928 83.6765429"></polygon>
                    </g>
                    <g id="Group-24">
                        <mask id="mask-16" fill="white">
                            <use xlink:href="#path-15"></use>
                        </mask>
                        <g id="Clip-23"></g>
                        <polygon id="Fill-22" fill="#FFFFFF" mask="url(#mask-16)" points="46.5172771 112.706245 95.9195663 112.237138 90.6130602 118.001662 51.9511325 118.368495"></polygon>
                    </g>
                    <g id="Group-27">
                        <mask id="mask-18" fill="white">
                            <use xlink:href="#path-17"></use>
                        </mask>
                        <g id="Clip-26"></g>
                        <polygon id="Stroke-25" stroke="#000000" stroke-width="2" mask="url(#mask-18)" points="46.5172771 112.706245 95.9195663 112.237138 90.6130602 118.001662 51.9511325 118.368495"></polygon>
                    </g>
                    <g id="Group-30">
                        <mask id="mask-20" fill="white">
                            <use xlink:href="#path-19"></use>
                        </mask>
                        <g id="Clip-29"></g>
                        <path d="M55.4534096,134.820294 C65.3832892,131.329461 76.1843735,131.20352 86.1926867,134.461068 L86.3959398,134.526996" id="Stroke-28" stroke="#000000" stroke-width="2" mask="url(#mask-20)"></path>
                    </g>
                    <g id="Group-33">
                        <mask id="mask-22" fill="white">
                            <use xlink:href="#path-21"></use>
                        </mask>
                        <g id="Clip-32"></g>
                        <polyline id="Stroke-31" stroke="#000000" stroke-width="2" mask="url(#mask-22)" points="35.8507952 154.862073 49.6745301 149.363799 44.9145301 136.833989 57.1206747 128.243835 50.7683855 120.64937"></polyline>
                    </g>
                    <g id="Group-36">
                        <mask id="mask-24" fill="white">
                            <use xlink:href="#path-23"></use>
                        </mask>
                        <g id="Clip-35"></g>
                        <polyline id="Stroke-34" stroke="#000000" stroke-width="2" mask="url(#mask-24)" points="48.0310482 154.764279 40.5832169 146.078612 53.2582771 139.673398 48.1550241 126.68885 59.5076747 120.870231"></polyline>
                    </g>
                    <g id="Group-39">
                        <mask id="mask-26" fill="white">
                            <use xlink:href="#path-25"></use>
                        </mask>
                        <g id="Clip-38"></g>
                        <polyline id="Stroke-37" stroke="#000000" stroke-width="2" mask="url(#mask-26)" points="52.8401325 112.753748 62.3407349 104.707926 58.0083253 97.8099381 65.1921807 91.1722833 60.0197711 84.8676524"></polyline>
                    </g>
                    <g id="Group-42">
                        <mask id="mask-28" fill="white">
                            <use xlink:href="#path-27"></use>
                        </mask>
                        <g id="Clip-41"></g>
                        <polyline id="Stroke-40" stroke="#000000" stroke-width="2" mask="url(#mask-28)" points="88.5616386 112.414892 78.5642892 104.561785 83.9559759 97.555606 75.8039277 91.0717845 80.8565783 84.6699512"></polyline>
                    </g>
                    <g id="Group-45">
                        <mask id="mask-30" fill="white">
                            <use xlink:href="#path-29"></use>
                        </mask>
                        <g id="Clip-44"></g>
                        <polyline id="Stroke-43" stroke="#000000" stroke-width="2" mask="url(#mask-30)" points="106.463506 154.192306 92.5377229 148.956901 97.0607349 136.339187 84.6943494 127.982318 90.9015783 120.268675"></polyline>
                    </g>
                    <g id="Group-48">
                        <mask id="mask-32" fill="white">
                            <use xlink:href="#path-31"></use>
                        </mask>
                        <g id="Clip-47"></g>
                        <polyline id="Stroke-46" stroke="#000000" stroke-width="2" mask="url(#mask-32)" points="94.2831687 154.325177 101.566542 145.500046 88.7708795 139.33657 93.6287108 126.256511 82.1681084 120.655963"></polyline>
                    </g>
                    <g id="Group-51">
                        <mask id="mask-34" fill="white">
                            <use xlink:href="#path-33"></use>
                        </mask>
                        <g id="Clip-50"></g>
                        <polygon id="Fill-49" fill="#FFFFFF" mask="url(#mask-34)" points="71.7773253 29.8691929 68.145759 29.9038476 67.9821446 12.5519548 71.6137108 12.5173"></polygon>
                    </g>
                    <g id="Group-54">
                        <mask id="mask-36" fill="white">
                            <use xlink:href="#path-35"></use>
                        </mask>
                        <g id="Clip-53"></g>
                        <polygon id="Stroke-52" stroke="#000000" stroke-width="2" mask="url(#mask-36)" points="71.7773253 29.8691929 68.145759 29.9038476 67.9821446 12.5519548 71.6137108 12.5173"></polygon>
                    </g>
                    <g id="Group-57">
                        <mask id="mask-38" fill="white">
                            <use xlink:href="#path-37"></use>
                        </mask>
                        <g id="Clip-56"></g>
                        <polygon id="Fill-55" fill="#FFFFFF" mask="url(#mask-38)" points="75.6886386 29.8320869 64.2356265 29.9402774 64.1951446 25.7335274 75.6481566 25.6244917"></polygon>
                    </g>
                    <g id="Group-60">
                        <mask id="mask-40" fill="white">
                            <use xlink:href="#path-39"></use>
                        </mask>
                        <g id="Clip-59"></g>
                        <polygon id="Stroke-58" stroke="#000000" stroke-width="2" mask="url(#mask-40)" points="75.6886386 29.8320869 64.2356265 29.9402774 64.1951446 25.7335274 75.6481566 25.6244917"></polygon>
                    </g>
                    <g id="Group-63">
                        <mask id="mask-42" fill="white">
                            <use xlink:href="#path-41"></use>
                        </mask>
                        <g id="Clip-62"></g>
                        <polyline id="Stroke-61" stroke="#000000" stroke-width="2" mask="url(#mask-42)" points="61.6074217 76.4456155 68.0179036 71.6911512 64.3660964 60.397925 70.1027229 51.7655083 66.1607952 45.168425 70.2933253 38.8122345 67.1534458 30.4316988"></polyline>
                    </g>
                    <g id="Group-66">
                        <mask id="mask-44" fill="white">
                            <use xlink:href="#path-43"></use>
                        </mask>
                        <g id="Clip-65"></g>
                        <polyline id="Stroke-64" stroke="#000000" stroke-width="2" mask="url(#mask-44)" points="73.2523855 77.6849881 77.8479277 72.824869 71.7174458 64.5635119 75.0993735 55.167 70.6767229 48.9299881 73.2405783 41.0735 67.0653976 29.976369"></polyline>
                    </g>
                </g>
                <path d="M139.914313,70.9574 C139.914313,109.679448 108.593108,141.069055 69.9573253,141.069055 C31.3206988,141.069055 0.000337349398,109.679448 0.000337349398,70.9574 C0.000337349398,32.2353524 31.3206988,0.845745238 69.9573253,0.845745238 C108.593108,0.845745238 139.914313,32.2353524 139.914313,70.9574 Z" id="Stroke-68" stroke="#FDA728" stroke-width="2"></path>
            </g>
        </g>
    </g>
</svg>