<?xml version="1.0" encoding="UTF-8"?>
<svg width="142px" height="143px" viewBox="0 0 142 143" version="1.1" xmlns="http://www.w3.org/2000/svg" xmlns:xlink="http://www.w3.org/1999/xlink">
    <!-- Generator: sketchtool 52.5 (67469) - http://www.bohemiancoding.com/sketch -->
    <title>D0FCA821-6AAA-4434-9B95-7B4DCE552DA2</title>
    <desc>Created with sketchtool.</desc>
    <defs>
        <path d="M69.1937349,0.249916168 C30.7671084,0.462682635 -0.210843373,31.8204072 0.000843373494,70.2897665 C0.213373494,108.759126 31.5354217,139.771527 69.9628916,139.559605 C108.388675,139.346838 139.368313,107.989958 139.155783,69.5197545 C138.944096,31.1804192 107.837108,0.245694611 69.586747,0.249071856 C69.4577108,0.249071856 69.3227711,0.249916168 69.1937349,0.249916168 Z" id="path-1"></path>
        <path d="M69.1937349,0.249916168 C30.7671084,0.462682635 -0.210843373,31.8204072 0.000843373494,70.2897665 C0.213373494,108.759126 31.5354217,139.771527 69.9628916,139.559605 C108.388675,139.346838 139.368313,107.989958 139.155783,69.5197545 C138.944096,31.1804192 107.837108,0.245694611 69.586747,0.249071856 C69.4577108,0.249071856 69.3227711,0.249916168 69.1937349,0.249916168" id="path-3"></path>
        <path d="M69.1937349,0.249916168 C30.7671084,0.462682635 -0.210843373,31.8204072 0.000843373494,70.2897665 C0.213373494,108.759126 31.5354217,139.771527 69.9628916,139.559605 C108.388675,139.346838 139.368313,107.989958 139.155783,69.5197545 C138.944096,31.1804192 107.837108,0.245694611 69.586747,0.249071856 C69.4577108,0.249071856 69.3227711,0.249916168 69.1937349,0.249916168 Z" id="path-5"></path>
        <path d="M69.1937349,0.249916168 C30.7671084,0.462682635 -0.210843373,31.8204072 0.000843373494,70.2897665 C0.213373494,108.759126 31.5354217,139.771527 69.9628916,139.559605 C108.388675,139.346838 139.368313,107.989958 139.155783,69.5197545 C138.944096,31.1804192 107.837108,0.245694611 69.586747,0.249071856 C69.4577108,0.249071856 69.3227711,0.249916168 69.1937349,0.249916168 Z" id="path-7"></path>
        <path d="M69.1937349,0.249916168 C30.7671084,0.462682635 -0.210843373,31.8204072 0.000843373494,70.2897665 C0.213373494,108.759126 31.5354217,139.771527 69.9628916,139.559605 C108.388675,139.346838 139.368313,107.989958 139.155783,69.5197545 C138.944096,31.1804192 107.837108,0.245694611 69.586747,0.249071856 C69.4577108,0.249071856 69.3227711,0.249916168 69.1937349,0.249916168 Z" id="path-9"></path>
        <path d="M69.1937349,0.249916168 C30.7671084,0.462682635 -0.210843373,31.8204072 0.000843373494,70.2897665 C0.213373494,108.759126 31.5354217,139.771527 69.9628916,139.559605 C108.388675,139.346838 139.368313,107.989958 139.155783,69.5197545 C138.944096,31.1804192 107.837108,0.245694611 69.586747,0.249071856 C69.4577108,0.249071856 69.3227711,0.249916168 69.1937349,0.249916168 Z" id="path-11"></path>
        <path d="M69.1937349,0.249916168 C30.7671084,0.462682635 -0.210843373,31.8204072 0.000843373494,70.2897665 C0.213373494,108.759126 31.5354217,139.771527 69.9628916,139.559605 C108.388675,139.346838 139.368313,107.989958 139.155783,69.5197545 C138.944096,31.1804192 107.837108,0.245694611 69.586747,0.249071856 C69.4577108,0.249071856 69.3227711,0.249916168 69.1937349,0.249916168" id="path-13"></path>
        <path d="M69.1937349,0.249916168 C30.7671084,0.462682635 -0.210843373,31.8204072 0.000843373494,70.2897665 C0.213373494,108.759126 31.5354217,139.771527 69.9628916,139.559605 C108.388675,139.346838 139.368313,107.989958 139.155783,69.5197545 C138.944096,31.1804192 107.837108,0.245694611 69.586747,0.249071856 C69.4577108,0.249071856 69.3227711,0.249916168 69.1937349,0.249916168" id="path-15"></path>
        <path d="M69.1937349,0.249916168 C30.7671084,0.462682635 -0.210843373,31.8204072 0.000843373494,70.2897665 C0.213373494,108.759126 31.5354217,139.771527 69.9628916,139.559605 C108.388675,139.346838 139.368313,107.989958 139.155783,69.5197545 C138.944096,31.1804192 107.837108,0.245694611 69.586747,0.249071856 C69.4577108,0.249071856 69.3227711,0.249916168 69.1937349,0.249916168" id="path-17"></path>
        <path d="M69.1937349,0.249916168 C30.7671084,0.462682635 -0.210843373,31.8204072 0.000843373494,70.2897665 C0.213373494,108.759126 31.5354217,139.771527 69.9628916,139.559605 C108.388675,139.346838 139.368313,107.989958 139.155783,69.5197545 C138.944096,31.1804192 107.837108,0.245694611 69.586747,0.249071856 C69.4577108,0.249071856 69.3227711,0.249916168 69.1937349,0.249916168" id="path-19"></path>
        <path d="M69.1937349,0.249916168 C30.7671084,0.462682635 -0.210843373,31.8204072 0.000843373494,70.2897665 C0.213373494,108.759126 31.5354217,139.771527 69.9628916,139.559605 C108.388675,139.346838 139.368313,107.989958 139.155783,69.5197545 C138.944096,31.1804192 107.837108,0.245694611 69.586747,0.249071856 C69.4577108,0.249071856 69.3227711,0.249916168 69.1937349,0.249916168 Z" id="path-21"></path>
        <path d="M69.1937349,0.249916168 C30.7671084,0.462682635 -0.210843373,31.8204072 0.000843373494,70.2897665 C0.213373494,108.759126 31.5354217,139.771527 69.9628916,139.559605 C108.388675,139.346838 139.368313,107.989958 139.155783,69.5197545 C138.944096,31.1804192 107.837108,0.245694611 69.586747,0.249071856 C69.4577108,0.249071856 69.3227711,0.249916168 69.1937349,0.249916168 Z" id="path-23"></path>
        <path d="M69.1937349,0.249916168 C30.7671084,0.462682635 -0.210843373,31.8204072 0.000843373494,70.2897665 C0.213373494,108.759126 31.5354217,139.771527 69.9628916,139.559605 C108.388675,139.346838 139.368313,107.989958 139.155783,69.5197545 C138.944096,31.1804192 107.837108,0.245694611 69.586747,0.249071856 C69.4577108,0.249071856 69.3227711,0.249916168 69.1937349,0.249916168 Z" id="path-25"></path>
        <path d="M69.1937349,0.249916168 C30.7671084,0.462682635 -0.210843373,31.8204072 0.000843373494,70.2897665 C0.213373494,108.759126 31.5354217,139.771527 69.9628916,139.559605 C108.388675,139.346838 139.368313,107.989958 139.155783,69.5197545 C138.944096,31.1804192 107.837108,0.245694611 69.586747,0.249071856 C69.4577108,0.249071856 69.3227711,0.249916168 69.1937349,0.249916168 Z" id="path-27"></path>
        <path d="M69.1937349,0.249916168 C30.7671084,0.462682635 -0.210843373,31.8204072 0.000843373494,70.2897665 C0.213373494,108.759126 31.5354217,139.771527 69.9628916,139.559605 C108.388675,139.346838 139.368313,107.989958 139.155783,69.5197545 C138.944096,31.1804192 107.837108,0.245694611 69.586747,0.249071856 C69.4577108,0.249071856 69.3227711,0.249916168 69.1937349,0.249916168 Z" id="path-29"></path>
        <path d="M69.1937349,0.249916168 C30.7671084,0.462682635 -0.210843373,31.8204072 0.000843373494,70.2897665 C0.213373494,108.759126 31.5354217,139.771527 69.9628916,139.559605 C108.388675,139.346838 139.368313,107.989958 139.155783,69.5197545 C138.944096,31.1804192 107.837108,0.245694611 69.586747,0.249071856 C69.4577108,0.249071856 69.3227711,0.249916168 69.1937349,0.249916168 Z" id="path-31"></path>
        <path d="M69.1937349,0.249916168 C30.7671084,0.462682635 -0.210843373,31.8204072 0.000843373494,70.2897665 C0.213373494,108.759126 31.5354217,139.771527 69.9628916,139.559605 C108.388675,139.346838 139.368313,107.989958 139.155783,69.5197545 C138.944096,31.1804192 107.837108,0.245694611 69.586747,0.249071856 C69.4577108,0.249071856 69.3227711,0.249916168 69.1937349,0.249916168 Z" id="path-33"></path>
        <path d="M69.1937349,0.249916168 C30.7671084,0.462682635 -0.210843373,31.8204072 0.000843373494,70.2897665 C0.213373494,108.759126 31.5354217,139.771527 69.9628916,139.559605 C108.388675,139.346838 139.368313,107.989958 139.155783,69.5197545 C138.944096,31.1804192 107.837108,0.245694611 69.586747,0.249071856 C69.4577108,0.249071856 69.3227711,0.249916168 69.1937349,0.249916168" id="path-35"></path>
        <path d="M69.1937349,0.249916168 C30.7671084,0.462682635 -0.210843373,31.8204072 0.000843373494,70.2897665 C0.213373494,108.759126 31.5354217,139.771527 69.9628916,139.559605 C108.388675,139.346838 139.368313,107.989958 139.155783,69.5197545 C138.944096,31.1804192 107.837108,0.245694611 69.586747,0.249071856 C69.4577108,0.249071856 69.3227711,0.249916168 69.1937349,0.249916168 Z" id="path-37"></path>
        <path d="M69.1937349,0.249916168 C30.7671084,0.462682635 -0.210843373,31.8204072 0.000843373494,70.2897665 C0.213373494,108.759126 31.5354217,139.771527 69.9628916,139.559605 C108.388675,139.346838 139.368313,107.989958 139.155783,69.5197545 C138.944096,31.1804192 107.837108,0.245694611 69.586747,0.249071856 C69.4577108,0.249071856 69.3227711,0.249916168 69.1937349,0.249916168" id="path-39"></path>
        <path d="M69.1937349,0.249916168 C30.7671084,0.462682635 -0.210843373,31.8204072 0.000843373494,70.2897665 C0.213373494,108.759126 31.5354217,139.771527 69.9628916,139.559605 C108.388675,139.346838 139.368313,107.989958 139.155783,69.5197545 C138.944096,31.1804192 107.837108,0.245694611 69.586747,0.249071856 C69.4577108,0.249071856 69.3227711,0.249916168 69.1937349,0.249916168 Z" id="path-41"></path>
        <path d="M69.1937349,0.249916168 C30.7671084,0.462682635 -0.210843373,31.8204072 0.000843373494,70.2897665 C0.213373494,108.759126 31.5354217,139.771527 69.9628916,139.559605 C108.388675,139.346838 139.368313,107.989958 139.155783,69.5197545 C138.944096,31.1804192 107.837108,0.245694611 69.586747,0.249071856 C69.4577108,0.249071856 69.3227711,0.249916168 69.1937349,0.249916168" id="path-43"></path>
        <path d="M69.1937349,0.249916168 C30.7671084,0.462682635 -0.210843373,31.8204072 0.000843373494,70.2897665 C0.213373494,108.759126 31.5354217,139.771527 69.9628916,139.559605 C108.388675,139.346838 139.368313,107.989958 139.155783,69.5197545 C138.944096,31.1804192 107.837108,0.245694611 69.586747,0.249071856 C69.4577108,0.249071856 69.3227711,0.249916168 69.1937349,0.249916168 Z" id="path-45"></path>
        <path d="M69.1937349,0.249916168 C30.7671084,0.462682635 -0.210843373,31.8204072 0.000843373494,70.2897665 C0.213373494,108.759126 31.5354217,139.771527 69.9628916,139.559605 C108.388675,139.346838 139.368313,107.989958 139.155783,69.5197545 C138.944096,31.1804192 107.837108,0.245694611 69.586747,0.249071856 C69.4577108,0.249071856 69.3227711,0.249916168 69.1937349,0.249916168" id="path-47"></path>
        <path d="M69.1937349,0.249916168 C30.7671084,0.462682635 -0.210843373,31.8204072 0.000843373494,70.2897665 C0.213373494,108.759126 31.5354217,139.771527 69.9628916,139.559605 C108.388675,139.346838 139.368313,107.989958 139.155783,69.5197545 C138.944096,31.1804192 107.837108,0.245694611 69.586747,0.249071856 C69.4577108,0.249071856 69.3227711,0.249916168 69.1937349,0.249916168 Z" id="path-49"></path>
        <path d="M69.1937349,0.249916168 C30.7671084,0.462682635 -0.210843373,31.8204072 0.000843373494,70.2897665 C0.213373494,108.759126 31.5354217,139.771527 69.9628916,139.559605 C108.388675,139.346838 139.368313,107.989958 139.155783,69.5197545 C138.944096,31.1804192 107.837108,0.245694611 69.586747,0.249071856 C69.4577108,0.249071856 69.3227711,0.249916168 69.1937349,0.249916168" id="path-51"></path>
        <path d="M69.1937349,0.249916168 C30.7671084,0.462682635 -0.210843373,31.8204072 0.000843373494,70.2897665 C0.213373494,108.759126 31.5354217,139.771527 69.9628916,139.559605 C108.388675,139.346838 139.368313,107.989958 139.155783,69.5197545 C138.944096,31.1804192 107.837108,0.245694611 69.586747,0.249071856 C69.4577108,0.249071856 69.3227711,0.249916168 69.1937349,0.249916168 Z" id="path-53"></path>
        <path d="M69.1937349,0.249916168 C30.7671084,0.462682635 -0.210843373,31.8204072 0.000843373494,70.2897665 C0.213373494,108.759126 31.5354217,139.771527 69.9628916,139.559605 C108.388675,139.346838 139.368313,107.989958 139.155783,69.5197545 C138.944096,31.1804192 107.837108,0.245694611 69.586747,0.249071856 C69.4577108,0.249071856 69.3227711,0.249916168 69.1937349,0.249916168 Z" id="path-55"></path>
        <path d="M69.1937349,0.249916168 C30.7671084,0.462682635 -0.210843373,31.8204072 0.000843373494,70.2897665 C0.213373494,108.759126 31.5354217,139.771527 69.9628916,139.559605 C108.388675,139.346838 139.368313,107.989958 139.155783,69.5197545 C138.944096,31.1804192 107.837108,0.245694611 69.586747,0.249071856 C69.4577108,0.249071856 69.3227711,0.249916168 69.1937349,0.249916168 Z" id="path-57"></path>
        <path d="M69.1937349,0.249916168 C30.7671084,0.462682635 -0.210843373,31.8204072 0.000843373494,70.2897665 C0.213373494,108.759126 31.5354217,139.771527 69.9628916,139.559605 C108.388675,139.346838 139.368313,107.989958 139.155783,69.5197545 C138.944096,31.1804192 107.837108,0.245694611 69.586747,0.249071856 C69.4577108,0.249071856 69.3227711,0.249916168 69.1937349,0.249916168" id="path-59"></path>
        <path d="M69.1937349,0.249916168 C30.7671084,0.462682635 -0.210843373,31.8204072 0.000843373494,70.2897665 C0.213373494,108.759126 31.5354217,139.771527 69.9628916,139.559605 C108.388675,139.346838 139.368313,107.989958 139.155783,69.5197545 C138.944096,31.1804192 107.837108,0.245694611 69.586747,0.249071856 C69.4577108,0.249071856 69.3227711,0.249916168 69.1937349,0.249916168" id="path-61"></path>
        <path d="M69.1937349,0.249916168 C30.7671084,0.462682635 -0.210843373,31.8204072 0.000843373494,70.2897665 C0.213373494,108.759126 31.5354217,139.771527 69.9628916,139.559605 C108.388675,139.346838 139.368313,107.989958 139.155783,69.5197545 C138.944096,31.1804192 107.837108,0.245694611 69.586747,0.249071856 C69.4577108,0.249071856 69.3227711,0.249916168 69.1937349,0.249916168" id="path-63"></path>
        <path d="M69.1937349,0.249916168 C30.7671084,0.462682635 -0.210843373,31.8204072 0.000843373494,70.2897665 C0.213373494,108.759126 31.5354217,139.771527 69.9628916,139.559605 C108.388675,139.346838 139.368313,107.989958 139.155783,69.5197545 C138.944096,31.1804192 107.837108,0.245694611 69.586747,0.249071856 C69.4577108,0.249071856 69.3227711,0.249916168 69.1937349,0.249916168 Z" id="path-65"></path>
        <path d="M69.1937349,0.249916168 C30.7671084,0.462682635 -0.210843373,31.8204072 0.000843373494,70.2897665 C0.213373494,108.759126 31.5354217,139.771527 69.9628916,139.559605 C108.388675,139.346838 139.368313,107.989958 139.155783,69.5197545 C138.944096,31.1804192 107.837108,0.245694611 69.586747,0.249071856 C69.4577108,0.249071856 69.3227711,0.249916168 69.1937349,0.249916168" id="path-67"></path>
        <path d="M69.1937349,0.249916168 C30.7671084,0.462682635 -0.210843373,31.8204072 0.000843373494,70.2897665 C0.213373494,108.759126 31.5354217,139.771527 69.9628916,139.559605 C108.388675,139.346838 139.368313,107.989958 139.155783,69.5197545 C138.944096,31.1804192 107.837108,0.245694611 69.586747,0.249071856 C69.4577108,0.249071856 69.3227711,0.249916168 69.1937349,0.249916168 Z" id="path-69"></path>
        <path d="M69.1937349,0.249916168 C30.7671084,0.462682635 -0.210843373,31.8204072 0.000843373494,70.2897665 C0.213373494,108.759126 31.5354217,139.771527 69.9628916,139.559605 C108.388675,139.346838 139.368313,107.989958 139.155783,69.5197545 C138.944096,31.1804192 107.837108,0.245694611 69.586747,0.249071856 C69.4577108,0.249071856 69.3227711,0.249916168 69.1937349,0.249916168" id="path-71"></path>
        <path d="M69.1937349,0.249916168 C30.7671084,0.462682635 -0.210843373,31.8204072 0.000843373494,70.2897665 C0.213373494,108.759126 31.5354217,139.771527 69.9628916,139.559605 C108.388675,139.346838 139.368313,107.989958 139.155783,69.5197545 C138.944096,31.1804192 107.837108,0.245694611 69.586747,0.249071856 C69.4577108,0.249071856 69.3227711,0.249916168 69.1937349,0.249916168 Z" id="path-73"></path>
        <path d="M69.1937349,0.249916168 C30.7671084,0.462682635 -0.210843373,31.8204072 0.000843373494,70.2897665 C0.213373494,108.759126 31.5354217,139.771527 69.9628916,139.559605 C108.388675,139.346838 139.368313,107.989958 139.155783,69.5197545 C138.944096,31.1804192 107.837108,0.245694611 69.586747,0.249071856 C69.4577108,0.249071856 69.3227711,0.249916168 69.1937349,0.249916168" id="path-75"></path>
        <path d="M69.1937349,0.249916168 C30.7671084,0.462682635 -0.210843373,31.8204072 0.000843373494,70.2897665 C0.213373494,108.759126 31.5354217,139.771527 69.9628916,139.559605 C108.388675,139.346838 139.368313,107.989958 139.155783,69.5197545 C138.944096,31.1804192 107.837108,0.245694611 69.586747,0.249071856 C69.4577108,0.249071856 69.3227711,0.249916168 69.1937349,0.249916168 Z" id="path-77"></path>
        <path d="M69.1937349,0.249916168 C30.7671084,0.462682635 -0.210843373,31.8204072 0.000843373494,70.2897665 C0.213373494,108.759126 31.5354217,139.771527 69.9628916,139.559605 C108.388675,139.346838 139.368313,107.989958 139.155783,69.5197545 C138.944096,31.1804192 107.837108,0.245694611 69.586747,0.249071856 C69.4577108,0.249071856 69.3227711,0.249916168 69.1937349,0.249916168 Z" id="path-79"></path>
        <path d="M69.1937349,0.249916168 C30.7671084,0.462682635 -0.210843373,31.8204072 0.000843373494,70.2897665 C0.213373494,108.759126 31.5354217,139.771527 69.9628916,139.559605 C108.388675,139.346838 139.368313,107.989958 139.155783,69.5197545 C138.944096,31.1804192 107.837108,0.245694611 69.586747,0.249071856 C69.4577108,0.249071856 69.3227711,0.249916168 69.1937349,0.249916168 Z" id="path-81"></path>
        <path d="M69.1937349,0.249916168 C30.7671084,0.462682635 -0.210843373,31.8204072 0.000843373494,70.2897665 C0.213373494,108.759126 31.5354217,139.771527 69.9628916,139.559605 C108.388675,139.346838 139.368313,107.989958 139.155783,69.5197545 C138.944096,31.1804192 107.837108,0.245694611 69.586747,0.249071856 C69.4577108,0.249071856 69.3227711,0.249916168 69.1937349,0.249916168 Z" id="path-83"></path>
        <path d="M69.1937349,0.249916168 C30.7671084,0.462682635 -0.210843373,31.8204072 0.000843373494,70.2897665 C0.213373494,108.759126 31.5354217,139.771527 69.9628916,139.559605 C108.388675,139.346838 139.368313,107.989958 139.155783,69.5197545 C138.944096,31.1804192 107.837108,0.245694611 69.586747,0.249071856 C69.4577108,0.249071856 69.3227711,0.249916168 69.1937349,0.249916168 Z" id="path-85"></path>
        <path d="M69.1937349,0.249916168 C30.7671084,0.462682635 -0.210843373,31.8204072 0.000843373494,70.2897665 C0.213373494,108.759126 31.5354217,139.771527 69.9628916,139.559605 C108.388675,139.346838 139.368313,107.989958 139.155783,69.5197545 C138.944096,31.1804192 107.837108,0.245694611 69.586747,0.249071856 C69.4577108,0.249071856 69.3227711,0.249916168 69.1937349,0.249916168" id="path-87"></path>
        <path d="M69.1937349,0.249916168 C30.7671084,0.462682635 -0.210843373,31.8204072 0.000843373494,70.2897665 C0.213373494,108.759126 31.5354217,139.771527 69.9628916,139.559605 C108.388675,139.346838 139.368313,107.989958 139.155783,69.5197545 C138.944096,31.1804192 107.837108,0.245694611 69.586747,0.249071856 C69.4577108,0.249071856 69.3227711,0.249916168 69.1937349,0.249916168 Z" id="path-89"></path>
        <path d="M69.1937349,0.249916168 C30.7671084,0.462682635 -0.210843373,31.8204072 0.000843373494,70.2897665 C0.213373494,108.759126 31.5354217,139.771527 69.9628916,139.559605 C108.388675,139.346838 139.368313,107.989958 139.155783,69.5197545 C138.944096,31.1804192 107.837108,0.245694611 69.586747,0.249071856 C69.4577108,0.249071856 69.3227711,0.249916168 69.1937349,0.249916168 Z" id="path-91"></path>
        <path d="M69.1937349,0.249916168 C30.7671084,0.462682635 -0.210843373,31.8204072 0.000843373494,70.2897665 C0.213373494,108.759126 31.5354217,139.771527 69.9628916,139.559605 C108.388675,139.346838 139.368313,107.989958 139.155783,69.5197545 C138.944096,31.1804192 107.837108,0.245694611 69.586747,0.249071856 C69.4577108,0.249071856 69.3227711,0.249916168 69.1937349,0.249916168 Z" id="path-93"></path>
        <path d="M69.1937349,0.249916168 C30.7671084,0.462682635 -0.210843373,31.8204072 0.000843373494,70.2897665 C0.213373494,108.759126 31.5354217,139.771527 69.9628916,139.559605 C108.388675,139.346838 139.368313,107.989958 139.155783,69.5197545 C138.944096,31.1804192 107.837108,0.245694611 69.586747,0.249071856 C69.4577108,0.249071856 69.3227711,0.249916168 69.1937349,0.249916168 Z" id="path-95"></path>
        <path d="M69.1937349,0.249916168 C30.7671084,0.462682635 -0.210843373,31.8204072 0.000843373494,70.2897665 C0.213373494,108.759126 31.5354217,139.771527 69.9628916,139.559605 C108.388675,139.346838 139.368313,107.989958 139.155783,69.5197545 C138.944096,31.1804192 107.837108,0.245694611 69.586747,0.249071856 C69.4577108,0.249071856 69.3227711,0.249916168 69.1937349,0.249916168" id="path-97"></path>
        <path d="M69.1937349,0.249916168 C30.7671084,0.462682635 -0.210843373,31.8204072 0.000843373494,70.2897665 C0.213373494,108.759126 31.5354217,139.771527 69.9628916,139.559605 C108.388675,139.346838 139.368313,107.989958 139.155783,69.5197545 C138.944096,31.1804192 107.837108,0.245694611 69.586747,0.249071856 C69.4577108,0.249071856 69.3227711,0.249916168 69.1937349,0.249916168 Z" id="path-99"></path>
        <path d="M69.1937349,0.249916168 C30.7671084,0.462682635 -0.210843373,31.8204072 0.000843373494,70.2897665 C0.213373494,108.759126 31.5354217,139.771527 69.9628916,139.559605 C108.388675,139.346838 139.368313,107.989958 139.155783,69.5197545 C138.944096,31.1804192 107.837108,0.245694611 69.586747,0.249071856 C69.4577108,0.249071856 69.3227711,0.249916168 69.1937349,0.249916168" id="path-101"></path>
        <path d="M69.1937349,0.249916168 C30.7671084,0.462682635 -0.210843373,31.8204072 0.000843373494,70.2897665 C0.213373494,108.759126 31.5354217,139.771527 69.9628916,139.559605 C108.388675,139.346838 139.368313,107.989958 139.155783,69.5197545 C138.944096,31.1804192 107.837108,0.245694611 69.586747,0.249071856 C69.4577108,0.249071856 69.3227711,0.249916168 69.1937349,0.249916168 Z" id="path-103"></path>
        <path d="M69.1937349,0.249916168 C30.7671084,0.462682635 -0.210843373,31.8204072 0.000843373494,70.2897665 C0.213373494,108.759126 31.5354217,139.771527 69.9628916,139.559605 C108.388675,139.346838 139.368313,107.989958 139.155783,69.5197545 C138.944096,31.1804192 107.837108,0.245694611 69.586747,0.249071856 C69.4577108,0.249071856 69.3227711,0.249916168 69.1937349,0.249916168 Z" id="path-105"></path>
        <path d="M69.1937349,0.249916168 C30.7671084,0.462682635 -0.210843373,31.8204072 0.000843373494,70.2897665 C0.213373494,108.759126 31.5354217,139.771527 69.9628916,139.559605 C108.388675,139.346838 139.368313,107.989958 139.155783,69.5197545 C138.944096,31.1804192 107.837108,0.245694611 69.586747,0.249071856 C69.4577108,0.249071856 69.3227711,0.249916168 69.1937349,0.249916168 Z" id="path-107"></path>
        <path d="M69.1937349,0.249916168 C30.7671084,0.462682635 -0.210843373,31.8204072 0.000843373494,70.2897665 C0.213373494,108.759126 31.5354217,139.771527 69.9628916,139.559605 C108.388675,139.346838 139.368313,107.989958 139.155783,69.5197545 C138.944096,31.1804192 107.837108,0.245694611 69.586747,0.249071856 C69.4577108,0.249071856 69.3227711,0.249916168 69.1937349,0.249916168 Z" id="path-109"></path>
        <path d="M69.1937349,0.249916168 C30.7671084,0.462682635 -0.210843373,31.8204072 0.000843373494,70.2897665 C0.213373494,108.759126 31.5354217,139.771527 69.9628916,139.559605 C108.388675,139.346838 139.368313,107.989958 139.155783,69.5197545 C138.944096,31.1804192 107.837108,0.245694611 69.586747,0.249071856 C69.4577108,0.249071856 69.3227711,0.249916168 69.1937349,0.249916168 Z" id="path-111"></path>
        <path d="M69.1937349,0.249916168 C30.7671084,0.462682635 -0.210843373,31.8204072 0.000843373494,70.2897665 C0.213373494,108.759126 31.5354217,139.771527 69.9628916,139.559605 C108.388675,139.346838 139.368313,107.989958 139.155783,69.5197545 C138.944096,31.1804192 107.837108,0.245694611 69.586747,0.249071856 C69.4577108,0.249071856 69.3227711,0.249916168 69.1937349,0.249916168 Z" id="path-113"></path>
        <path d="M69.1937349,0.249916168 C30.7671084,0.462682635 -0.210843373,31.8204072 0.000843373494,70.2897665 C0.213373494,108.759126 31.5354217,139.771527 69.9628916,139.559605 C108.388675,139.346838 139.368313,107.989958 139.155783,69.5197545 C138.944096,31.1804192 107.837108,0.245694611 69.586747,0.249071856 C69.4577108,0.249071856 69.3227711,0.249916168 69.1937349,0.249916168 Z" id="path-115"></path>
        <path d="M69.1937349,0.249916168 C30.7671084,0.462682635 -0.210843373,31.8204072 0.000843373494,70.2897665 C0.213373494,108.759126 31.5354217,139.771527 69.9628916,139.559605 C108.388675,139.346838 139.368313,107.989958 139.155783,69.5197545 C138.944096,31.1804192 107.837108,0.245694611 69.586747,0.249071856 C69.4577108,0.249071856 69.3227711,0.249916168 69.1937349,0.249916168 Z" id="path-117"></path>
        <path d="M69.1937349,0.249916168 C30.7671084,0.462682635 -0.210843373,31.8204072 0.000843373494,70.2897665 C0.213373494,108.759126 31.5354217,139.771527 69.9628916,139.559605 C108.388675,139.346838 139.368313,107.989958 139.155783,69.5197545 C138.944096,31.1804192 107.837108,0.245694611 69.586747,0.249071856 C69.4577108,0.249071856 69.3227711,0.249916168 69.1937349,0.249916168" id="path-119"></path>
        <path d="M69.1937349,0.249916168 C30.7671084,0.462682635 -0.210843373,31.8204072 0.000843373494,70.2897665 C0.213373494,108.759126 31.5354217,139.771527 69.9628916,139.559605 C108.388675,139.346838 139.368313,107.989958 139.155783,69.5197545 C138.944096,31.1804192 107.837108,0.245694611 69.586747,0.249071856 C69.4577108,0.249071856 69.3227711,0.249916168 69.1937349,0.249916168 Z" id="path-121"></path>
        <path d="M69.1937349,0.249916168 C30.7671084,0.462682635 -0.210843373,31.8204072 0.000843373494,70.2897665 C0.213373494,108.759126 31.5354217,139.771527 69.9628916,139.559605 C108.388675,139.346838 139.368313,107.989958 139.155783,69.5197545 C138.944096,31.1804192 107.837108,0.245694611 69.586747,0.249071856 C69.4577108,0.249071856 69.3227711,0.249916168 69.1937349,0.249916168 Z" id="path-123"></path>
    </defs>
    <g id="Page-1" stroke="none" stroke-width="1" fill="none" fill-rule="evenodd">
        <g id="Careers_page" transform="translate(-743.000000, -3099.000000)">
            <g id="Group-198" transform="translate(744.000000, 3100.000000)">
                <g id="Group-195" transform="translate(0.000000, 0.595240)">
                    <g id="Group-3">
                        <mask id="mask-2" fill="white">
                            <use xlink:href="#path-1"></use>
                        </mask>
                        <g id="Clip-2"></g>
                        <path d="M91.8864699,19.5628635 C90.7597229,19.5628635 89.838759,18.645097 89.832012,17.517097 C89.8294819,16.9682946 90.0403253,16.4498874 90.4265904,16.0598156 C90.812012,15.6688994 91.3264699,15.4519114 91.875506,15.4493784 C93.0140602,15.4493784 93.9350241,16.3671449 93.9417711,17.4951449 C93.9443012,18.0439473 93.7334578,18.5615102 93.3471928,18.9524263 C92.9617711,19.3433425 92.4473133,19.5603305 91.8982771,19.5628635 L91.8864699,19.5628635 Z" id="Fill-1" fill="#FFFFFF" mask="url(#mask-2)"></path>
                    </g>
                    <g id="Group-6">
                        <mask id="mask-4" fill="white">
                            <use xlink:href="#path-3"></use>
                        </mask>
                        <g id="Clip-5"></g>
                        <path d="M91.8873133,14.6049826 L91.8704458,14.6049826 C90.2705663,14.6134257 88.9802048,15.9204198 88.9886386,17.5220784 C88.9979157,19.1195156 90.2933373,20.4070904 91.8864699,20.4070904 L91.9033373,20.4070904 C93.5032169,20.397803 94.7935783,19.0916533 94.7851446,17.4899946 C94.7758675,15.8925575 93.4804458,14.6049826 91.8873133,14.6049826" id="Fill-4" fill="#000000" mask="url(#mask-4)"></path>
                    </g>
                    <g id="Group-9">
                        <mask id="mask-6" fill="white">
                            <use xlink:href="#path-5"></use>
                        </mask>
                        <g id="Clip-8"></g>
                        <polygon id="Fill-7" fill="#FFFFFF" mask="url(#mask-6)" points="21.3511807 82.0888491 158.442386 81.3306575 158.796602 145.727975 21.706241 146.486166"></polygon>
                    </g>
                    <g id="Group-12">
                        <mask id="mask-8" fill="white">
                            <use xlink:href="#path-7"></use>
                        </mask>
                        <g id="Clip-11"></g>
                        <path d="M159.280614,80.4814491 L20.5026627,81.2489281 L20.8678434,147.335713 L159.644952,146.567389 L159.280614,80.4814491 Z M157.603145,82.1793593 L157.948928,144.888898 L22.5453133,145.636958 L22.1986867,82.9282635 L157.603145,82.1793593 Z" id="Fill-10" fill="#000000" mask="url(#mask-8)"></path>
                    </g>
                    <g id="Group-15">
                        <mask id="mask-10" fill="white">
                            <use xlink:href="#path-9"></use>
                        </mask>
                        <g id="Clip-14"></g>
                        <path d="M85.2449036,26.9179976 C85.8833373,26.1479856 86.485506,25.1778719 86.5276747,24.2288659 C86.5453855,24.0600036 87.0767108,19.1309138 92.0214096,19.0802551 L92.0593614,19.0802551 C96.999,19.0802551 97.5843012,23.9983689 97.6070723,24.2086024 C97.6576747,25.134812 98.2665904,26.0855066 98.9117711,26.8428539 L85.2449036,26.9179976 Z" id="Fill-13" fill="#FFFFFF" mask="url(#mask-10)"></path>
                    </g>
                    <g id="Group-18">
                        <mask id="mask-12" fill="white">
                            <use xlink:href="#path-11"></use>
                        </mask>
                        <g id="Clip-17"></g>
                        <path d="M92.0528675,18.2353527 L92.0334699,18.2353527 L92.0123855,18.2353527 L92.0123855,18.236197 C86.2175663,18.2952988 85.6853976,24.1911251 85.6853976,24.1911251 C85.6137108,25.8138916 83.1940723,27.7735383 83.1940723,27.7735383 L100.976602,27.6755982 C100.976602,27.6755982 98.5358795,25.7421251 98.4456386,24.1210473 C98.4456386,24.1210473 97.8476867,18.2353527 92.0596145,18.2353527 L92.0528675,18.2353527 Z M92.056241,19.9239754 L92.0596145,19.9239754 C96.0943133,19.9239754 96.7015422,23.7453287 96.7647952,24.2713347 C96.8086506,24.8707958 97.019494,25.4592808 97.3138313,26.0072389 L86.8374458,26.0646521 C87.1267229,25.5124725 87.3308193,24.9197659 87.3679277,24.3186162 C87.4084096,23.9302329 87.9279277,19.9670353 92.0334699,19.9239754 L92.056241,19.9239754 Z" id="Fill-16" fill="#000000" mask="url(#mask-12)"></path>
                    </g>
                    <g id="Group-22">
                        <mask id="mask-14" fill="white">
                            <use xlink:href="#path-13"></use>
                        </mask>
                        <g id="Clip-20"></g>
                        <polyline id="Fill-19" fill="#FFFFFF" mask="url(#mask-14)" points="85.324012 32.1417521 83.3319639 30.8144946 83.4770241 27.6508599 88.6502771 25.6751713 95.7801566 25.6354886 100.653169 27.7175605 100.669193 30.7182431 98.6923253 32.0674527"></polyline>
                        <polyline id="Stroke-21" stroke="#000000" stroke-width="2" mask="url(#mask-14)" points="85.324012 32.1417521 83.3319639 30.8144946 83.4770241 27.6508599 88.6502771 25.6751713 95.7801566 25.6354886 100.653169 27.7175605 100.669193 30.7182431 98.6923253 32.0674527"></polyline>
                    </g>
                    <g id="Group-26">
                        <mask id="mask-16" fill="white">
                            <use xlink:href="#path-15"></use>
                        </mask>
                        <g id="Clip-24"></g>
                        <polyline id="Fill-23" fill="#FFFFFF" mask="url(#mask-16)" points="85.3544578 37.5790329 85.3139759 30.2765838 89.3157831 28.8345 94.7445783 28.8049491 98.6814458 30.2022844 98.7219277 37.5047335"></polyline>
                        <polyline id="Stroke-25" stroke="#000000" stroke-width="2" mask="url(#mask-16)" points="85.3544578 37.5790329 85.3139759 30.2765838 89.3157831 28.8345 94.7445783 28.8049491 98.6814458 30.2022844 98.7219277 37.5047335"></polyline>
                    </g>
                    <g id="Group-30">
                        <mask id="mask-18" fill="white">
                            <use xlink:href="#path-17"></use>
                        </mask>
                        <g id="Clip-28"></g>
                        <path d="M89.3555904,28.6317808 L89.4053494,37.5561521" id="Fill-27" fill="#FFFFFF" mask="url(#mask-18)"></path>
                        <path d="M89.3555904,28.6317808 L89.4053494,37.5561521" id="Stroke-29" stroke="#000000" stroke-width="2" mask="url(#mask-18)"></path>
                    </g>
                    <g id="Group-34">
                        <mask id="mask-20" fill="white">
                            <use xlink:href="#path-19"></use>
                        </mask>
                        <g id="Clip-32"></g>
                        <path d="M94.7839639,28.6016389 L94.8337229,37.5268545" id="Fill-31" fill="#FFFFFF" mask="url(#mask-20)"></path>
                        <path d="M94.7839639,28.6016389 L94.8337229,37.5268545" id="Stroke-33" stroke="#000000" stroke-width="2" mask="url(#mask-20)"></path>
                    </g>
                    <g id="Group-37">
                        <mask id="mask-22" fill="white">
                            <use xlink:href="#path-21"></use>
                        </mask>
                        <g id="Clip-36"></g>
                        <polygon id="Fill-35" fill="#FFFFFF" mask="url(#mask-22)" points="84.7013494 38.0676359 89.3441205 36.348618 95.1946024 36.3156898 99.5421928 37.9730731 99.5582169 40.961091 84.7182169 41.0429892"></polygon>
                    </g>
                    <g id="Group-40">
                        <mask id="mask-24" fill="white">
                            <use xlink:href="#path-23"></use>
                        </mask>
                        <g id="Clip-39"></g>
                        <path d="M95.3480964,35.4707874 L89.1914699,35.5054042 L83.8546024,37.4810928 L83.8790602,41.8917754 L100.405807,41.8014341 L100.382193,37.3890629 L95.3480964,35.4707874 Z M95.0427952,37.1610988 L98.7021928,38.5559012 L98.7097831,40.1212545 L85.5565301,40.1938653 L85.5480964,38.6546856 L89.4976145,37.1923383 L95.0427952,37.1610988 Z" id="Fill-38" fill="#000000" mask="url(#mask-24)"></path>
                    </g>
                    <g id="Group-43">
                        <mask id="mask-26" fill="white">
                            <use xlink:href="#path-25"></use>
                        </mask>
                        <g id="Clip-42"></g>
                        <polygon id="Fill-41" fill="#FFFFFF" mask="url(#mask-26)" points="132.922747 77.6125635 160.969133 77.4572102 161.309012 139.193258 133.262627 139.347767"></polygon>
                    </g>
                    <g id="Group-46">
                        <mask id="mask-28" fill="white">
                            <use xlink:href="#path-27"></use>
                        </mask>
                        <g id="Clip-45"></g>
                        <path d="M161.807446,76.6082551 L132.074313,76.7728958 L132.424313,140.196722 L162.156602,140.032081 L161.807446,76.6082551 Z M160.129976,78.3061653 L160.460578,138.352746 L134.101783,138.498812 L133.770337,78.4522311 L160.129976,78.3061653 Z" id="Fill-44" fill="#000000" mask="url(#mask-28)"></path>
                    </g>
                    <g id="Group-49">
                        <mask id="mask-30" fill="white">
                            <use xlink:href="#path-29"></use>
                        </mask>
                        <g id="Clip-48"></g>
                        <polygon id="Fill-47" fill="#FFFFFF" mask="url(#mask-30)" points="132.922747 77.6125635 165.667566 77.4310365 165.697928 83.1233838 132.953952 83.3040665"></polygon>
                    </g>
                    <g id="Group-52">
                        <mask id="mask-32" fill="white">
                            <use xlink:href="#path-31"></use>
                        </mask>
                        <g id="Clip-51"></g>
                        <path d="M166.506133,76.5823347 L132.074566,76.7731491 L132.115892,84.1532749 L166.546614,83.9633048 L166.506133,76.5823347 Z M164.828663,78.2802449 L164.85059,82.2831251 L133.793361,82.4553647 L133.77059,78.4516401 L164.828663,78.2802449 Z" id="Fill-50" fill="#000000" mask="url(#mask-32)"></path>
                    </g>
                    <g id="Group-55">
                        <mask id="mask-34" fill="white">
                            <use xlink:href="#path-33"></use>
                        </mask>
                        <g id="Clip-54"></g>
                        <polygon id="Fill-53" fill="#FFFFFF" mask="url(#mask-34)" points="58.6358795 90.3609054 56.9988916 90.3701928 56.9803373 87.0655581 64.3126265 87.0250311 64.3311807 90.3288216 62.6941928 90.338109 62.9640723 139.428061 58.9066024 139.450857"></polygon>
                    </g>
                    <g id="Group-58">
                        <mask id="mask-36" fill="white">
                            <use xlink:href="#path-35"></use>
                        </mask>
                        <g id="Clip-57"></g>
                        <path d="M64.861494,86.1776802 L64.8598072,86.1776802 L63.5137831,86.185279 L57.7695663,86.2173629 L56.4235422,86.2249617 C56.2633012,86.225806 56.1325783,86.3566743 56.1334217,86.5179377 L56.1587229,90.9269317 C56.1595663,91.0873509 56.2894458,91.2173749 56.4496867,91.2173749 L56.4513735,91.2173749 L57.7973976,91.209776 L58.0681205,140.299728 L63.8131807,140.2668 L63.5416145,91.1776922 L64.8876386,91.1709377 C65.0487229,91.1692491 65.1786024,91.0383808 65.177759,90.8771174 L65.1533012,86.4681234 C65.1524578,86.3068599 65.0217349,86.1776802 64.861494,86.1776802 M63.4733012,87.8739018 L63.4834217,89.4899138 L61.8455904,89.4992012 L61.8548675,91.187824 L62.1163133,138.588309 L59.7464337,138.600974 L59.4841446,91.2004886 L59.4748675,89.5118659 L57.8370361,89.5211533 L57.8286024,87.9051413 L63.4733012,87.8739018" id="Fill-56" fill="#000000" mask="url(#mask-36)"></path>
                    </g>
                    <g id="Group-61">
                        <mask id="mask-38" fill="white">
                            <use xlink:href="#path-37"></use>
                        </mask>
                        <g id="Clip-60"></g>
                        <polygon id="Fill-59" fill="#FFFFFF" mask="url(#mask-38)" points="76.620988 90.2615299 74.984 90.2708174 74.9662892 86.9661826 82.2985783 86.9256557 82.3162892 90.2294461 80.6793012 90.2395778 80.9500241 139.327841 76.8917108 139.350638"></polygon>
                    </g>
                    <g id="Group-64">
                        <mask id="mask-40" fill="white">
                            <use xlink:href="#path-39"></use>
                        </mask>
                        <g id="Clip-63"></g>
                        <path d="M82.8466024,86.0783048 L82.8449157,86.0783048 L81.4988916,86.0859036 L75.7555181,86.1171431 L74.409494,86.1247419 C74.2484096,86.1255862 74.1176867,86.2572988 74.1193735,86.4185623 L74.1438313,90.8275563 C74.1446747,90.9879754 74.2745542,91.1171551 74.4347952,91.1171551 L74.4364819,91.1171551 L75.782506,91.1095563 L76.0532289,140.199508 L81.7982892,140.167425 L81.5275663,91.0783168 L82.872747,91.0715623 C83.0346747,91.070718 83.1637108,90.9381611 83.1628675,90.7777419 L83.1384096,86.3687479 C83.1384096,86.2074844 83.0068434,86.0783048 82.8466024,86.0783048 M81.459253,87.7745263 L81.4685301,89.389694 L79.8306988,89.3989814 L79.8408193,91.0876042 L80.1022651,138.488934 L77.7315422,138.501598 L77.469253,91.1011132 L77.4599759,89.4124904 L75.822988,89.4209335 L75.8137108,87.8057659 L81.459253,87.7745263" id="Fill-62" fill="#000000" mask="url(#mask-40)"></path>
                    </g>
                    <g id="Group-67">
                        <mask id="mask-42" fill="white">
                            <use xlink:href="#path-41"></use>
                        </mask>
                        <g id="Clip-66"></g>
                        <polygon id="Fill-65" fill="#FFFFFF" mask="url(#mask-42)" points="102.545614 90.1180814 100.908627 90.1273689 100.890916 86.8227341 108.223205 86.7822072 108.240916 90.0859976 106.603928 90.095285 106.874651 139.184393 102.816337 139.208034"></polygon>
                    </g>
                    <g id="Group-70">
                        <mask id="mask-44" fill="white">
                            <use xlink:href="#path-43"></use>
                        </mask>
                        <g id="Clip-69"></g>
                        <path d="M108.772072,85.9348563 L108.770386,85.9348563 L107.424361,85.9424551 L101.680145,85.9736946 L100.33412,85.9812934 C100.173036,85.9821377 100.043157,86.1138503 100.044,86.2751138 L100.068458,90.6841078 C100.069301,90.8445269 100.200024,90.9745509 100.359422,90.9745509 L100.361108,90.9745509 L101.707133,90.9669521 L101.977855,140.05606 L107.722916,140.02482 L107.452193,90.9348683 L108.797373,90.9281138 C108.959301,90.9272695 109.088337,90.7955569 109.087494,90.6342934 L109.06388,86.2252994 C109.062193,86.0648802 108.93147,85.9348563 108.772072,85.9348563 M107.38388,87.6310778 L107.393157,89.2462455 L105.756169,89.2563772 L105.765446,90.9441557 L106.026892,138.345485 L103.656169,138.35815 L103.39388,90.9576647 L103.384602,89.2690419 L101.747614,89.277485 L101.738337,87.6623174 L107.38388,87.6310778" id="Fill-68" fill="#000000" mask="url(#mask-44)"></path>
                    </g>
                    <g id="Group-73">
                        <mask id="mask-46" fill="white">
                            <use xlink:href="#path-45"></use>
                        </mask>
                        <g id="Clip-72"></g>
                        <polygon id="Fill-71" fill="#FFFFFF" mask="url(#mask-46)" points="119.397398 90.0248695 117.759566 90.0341569 117.741855 86.7295222 125.074145 86.6889952 125.091855 89.9927856 123.454867 90.0020731 123.72559 139.091181 119.66812 139.113977"></polygon>
                    </g>
                    <g id="Group-76">
                        <mask id="mask-48" fill="white">
                            <use xlink:href="#path-47"></use>
                        </mask>
                        <g id="Clip-75"></g>
                        <path d="M125.623096,85.8417287 L125.62141,85.8417287 L124.275386,85.8493275 L118.531169,85.8805671 L117.185145,85.8881659 C117.024904,85.8890102 116.894181,86.0207228 116.895024,86.1819862 L116.919482,90.5909802 C116.921169,90.7513994 117.051048,90.8814234 117.211289,90.8814234 L117.212133,90.8814234 L118.558157,90.8729802 L118.829723,139.962932 L124.57394,139.931693 L124.303217,90.8417407 L125.648398,90.8349862 C125.810325,90.8341419 125.939361,90.701585 125.939361,90.5411659 L125.914904,86.1321719 C125.91406,85.9709084 125.782494,85.8417287 125.623096,85.8417287 M124.234904,87.5379503 L124.244181,89.153118 L122.607193,89.1624054 L122.61647,90.8510281 L122.877916,138.252357 L120.507193,138.265022 L120.244904,90.8645371 L120.235627,89.1759144 L118.598639,89.1843575 L118.589361,87.5691898 L124.234904,87.5379503" id="Fill-74" fill="#000000" mask="url(#mask-48)"></path>
                    </g>
                    <g id="Group-79">
                        <mask id="mask-50" fill="white">
                            <use xlink:href="#path-49"></use>
                        </mask>
                        <g id="Clip-78"></g>
                        <polygon id="Fill-77" fill="#FFFFFF" mask="url(#mask-50)" points="130.550759 89.9630659 128.913771 89.9723533 128.895217 86.6685629 136.227506 86.6271916 136.24606 89.930982 134.608229 89.9402695 134.878952 139.030222 130.821482 139.053018"></polygon>
                    </g>
                    <g id="Group-82">
                        <mask id="mask-52" fill="white">
                            <use xlink:href="#path-51"></use>
                        </mask>
                        <g id="Clip-81"></g>
                        <path d="M136.776373,85.7802629 L136.774687,85.7802629 L135.428663,85.7878617 L129.684446,85.8191012 L128.338422,85.8267 C128.178181,85.8275443 128.047458,85.9592569 128.048301,86.119676 L128.073602,90.5295144 C128.074446,90.6890892 128.204325,90.8191132 128.363723,90.8191132 L128.366253,90.8191132 L129.712277,90.8115144 L129.983,139.901466 L135.727217,139.869383 L135.457337,90.7802749 L136.802518,90.772676 C136.963602,90.7718317 137.093482,90.6401192 137.092639,90.4788557 L137.068181,86.070706 C137.067337,85.9094425 136.935771,85.7802629 136.776373,85.7802629 M135.389024,87.4764844 L135.397458,89.0916521 L133.76047,89.1009395 L133.77059,90.7895623 L134.031193,138.190047 L131.66047,138.203556 L131.399024,90.8022269 L131.389747,89.1136042 L129.751916,89.1228916 L129.742639,87.507724 L135.389024,87.4764844" id="Fill-80" fill="#000000" mask="url(#mask-52)"></path>
                    </g>
                    <g id="Group-85">
                        <mask id="mask-54" fill="white">
                            <use xlink:href="#path-53"></use>
                        </mask>
                        <g id="Clip-84"></g>
                        <polygon id="Fill-83" fill="#FFFFFF" mask="url(#mask-54)" points="49.8874819 64.2833353 132.375313 63.8265629 132.427602 73.3596826 49.9397711 73.8164551"></polygon>
                    </g>
                    <g id="Group-88">
                        <mask id="mask-56" fill="white">
                            <use xlink:href="#path-55"></use>
                        </mask>
                        <g id="Clip-87"></g>
                        <path d="M133.213458,62.9781144 L49.0388795,63.4441743 L49.1012892,74.6650725 L133.275867,74.1990126 L133.213458,62.9781144 Z M131.536831,64.6760246 L131.579843,72.5196772 L50.778759,72.9671623 L50.7349036,65.1235096 L131.536831,64.6760246 Z" id="Fill-86" fill="#000000" mask="url(#mask-56)"></path>
                    </g>
                    <g id="Group-91">
                        <mask id="mask-58" fill="white">
                            <use xlink:href="#path-57"></use>
                        </mask>
                        <g id="Clip-90"></g>
                        <path d="M66.1092651,63.7601156 C67.4325181,59.284421 73.7476988,41.7632713 91.8768554,39.9986605 C91.9156506,39.9952832 91.9586627,39.9935946 92.0016747,39.9927503 C92.0016747,39.9927503 92.5076988,39.9902174 92.5085422,39.9902174 C92.5549277,39.9902174 92.5928795,39.991906 92.6308313,39.9944389 C110.802157,41.5606365 117.292759,59.0091754 118.660711,63.4696725 L66.1092651,63.7601156 Z" id="Fill-89" fill="#FFFFFF" mask="url(#mask-58)"></path>
                    </g>
                    <g id="Group-94">
                        <mask id="mask-60" fill="white">
                            <use xlink:href="#path-59"></use>
                        </mask>
                        <g id="Clip-93"></g>
                        <path d="M92.5157108,39.1456527 L92.5013735,39.1456527 L91.9970361,39.1481856 C91.9295663,39.1481856 91.8620964,39.1515629 91.7954699,39.1583174 C70.2211325,41.2581198 65.0057108,64.6109281 65.0057108,64.6109281 L92.0358313,64.4606407 L92.7425783,64.4572635 L119.771855,64.3078204 C119.771855,64.3078204 114.299205,41.0141138 92.7037831,39.1532515 C92.6405301,39.1481856 92.5781205,39.1456527 92.5157108,39.1456527 M92.5157108,39.1456527 L92.5157108,40.8342754 L92.5587229,40.8359641 C100.946072,41.5586946 107.782458,45.746479 112.877277,53.2819581 C115.322217,56.8998323 116.767759,60.4729581 117.505711,62.6318623 L92.7333012,62.7686407 L92.0265542,62.772018 L67.2541446,62.9096407 C67.9684819,60.7422934 69.3743855,57.1539701 71.7796867,53.5090778 C76.7901687,45.9178743 83.5793253,41.6549461 91.9607711,40.8393413 C91.9759518,40.8376527 91.9919759,40.8368084 92.0063133,40.8368084 L92.5131807,40.8342754 L92.5157108,39.1456527" id="Fill-92" fill="#000000" mask="url(#mask-60)"></path>
                    </g>
                    <g id="Group-98">
                        <mask id="mask-62" fill="white">
                            <use xlink:href="#path-61"></use>
                        </mask>
                        <g id="Clip-96"></g>
                        <path d="M89.8826988,40.0282958 C89.8826988,40.0282958 80.1417349,47.3400323 80.2311325,64.196709" id="Fill-95" fill="#FFFFFF" mask="url(#mask-62)"></path>
                        <path d="M89.8826988,40.0282958 C89.8826988,40.0282958 80.1417349,47.3400323 80.2311325,64.196709" id="Stroke-97" stroke="#000000" stroke-width="2" mask="url(#mask-62)"></path>
                    </g>
                    <g id="Group-102">
                        <mask id="mask-64" fill="white">
                            <use xlink:href="#path-63"></use>
                        </mask>
                        <g id="Clip-100"></g>
                        <path d="M94.4364096,40.0031353 C94.4364096,40.0031353 103.739663,47.2101772 103.836651,64.0660096" id="Fill-99" fill="#FFFFFF" mask="url(#mask-64)"></path>
                        <path d="M94.4364096,40.0031353 C94.4364096,40.0031353 103.739663,47.2101772 103.836651,64.0660096" id="Stroke-101" stroke="#000000" stroke-width="2" mask="url(#mask-64)"></path>
                    </g>
                    <g id="Group-105">
                        <mask id="mask-66" fill="white">
                            <use xlink:href="#path-65"></use>
                        </mask>
                        <g id="Clip-104"></g>
                        <path d="M85.7365904,100.815422 C85.7273133,99.1766138 86.3564699,97.6323683 87.5076747,96.4672186 C88.6588795,95.3020689 90.1938193,94.6553263 91.8316506,94.6460389 C95.2253855,94.6460389 97.9739398,97.3832964 97.992494,100.747033 L98.0658675,114.011165 L85.8091205,114.07871 L85.7365904,100.815422 Z" id="Fill-103" fill="#FFFFFF" mask="url(#mask-66)"></path>
                    </g>
                    <g id="Group-108">
                        <mask id="mask-68" fill="white">
                            <use xlink:href="#path-67"></use>
                        </mask>
                        <g id="Clip-107"></g>
                        <path d="M91.8658916,93.8020653 L91.826253,93.8020653 C87.976253,93.8231731 84.8717952,96.9657 84.8928795,100.819981 L84.9713133,114.92758 L98.9139639,114.850748 L98.8363735,100.743149 C98.8144458,96.9015323 95.6981807,93.8020653 91.8658916,93.8020653 M91.8658916,93.8020653 L91.8658916,95.490688 C94.7637229,95.490688 97.1336024,97.8505383 97.1496265,100.751592 L97.2187831,113.171413 L86.6479398,113.22967 L86.5796265,100.810694 C86.5728795,99.3973168 87.1143253,98.0658377 88.1069759,97.0611072 C89.0996265,96.0563766 90.4237229,95.4982868 91.8355301,95.490688 L91.8658916,93.8020653" id="Fill-106" fill="#000000" mask="url(#mask-68)"></path>
                    </g>
                    <g id="Group-111">
                        <mask id="mask-70" fill="white">
                            <use xlink:href="#path-69"></use>
                        </mask>
                        <g id="Clip-110"></g>
                        <path d="M110.438241,99.9715329 C110.429807,98.534515 111.591133,97.3583892 113.027398,97.3507904 C114.469566,97.3507904 115.637639,98.5134072 115.646072,99.9428263 L115.700892,110.08385 L110.493904,110.113401 L110.438241,99.9715329 Z" id="Fill-109" fill="#FFFFFF" mask="url(#mask-70)"></path>
                    </g>
                    <g id="Group-114">
                        <mask id="mask-72" fill="white">
                            <use xlink:href="#path-71"></use>
                        </mask>
                        <g id="Clip-113"></g>
                        <path d="M113.042494,96.5060569 L113.023096,96.5060569 C111.119602,96.5161886 109.583819,98.0705659 109.594783,99.9761766 L109.654663,110.962356 L116.549241,110.923518 L116.489361,99.9381826 C116.478398,98.038482 114.937554,96.5060569 113.042494,96.5060569 M113.042494,96.5060569 L113.042494,98.1946796 C114.008157,98.1946796 114.796711,98.9807335 114.802614,99.9474701 L114.853217,109.244183 L111.332976,109.263602 L111.28153,99.9668892 C111.279,99.4966078 111.459482,99.0525 111.790928,98.7181527 C112.120687,98.3829611 112.562614,98.1972126 113.03153,98.1946796 L113.042494,96.5060569" id="Fill-112" fill="#000000" mask="url(#mask-72)"></path>
                    </g>
                    <g id="Group-117">
                        <mask id="mask-74" fill="white">
                            <use xlink:href="#path-73"></use>
                        </mask>
                        <g id="Clip-116"></g>
                        <path d="M67.0950843,100.211064 C67.0908675,99.5145072 67.3582169,98.8584772 67.8482169,98.3637108 C68.3365301,97.8689443 68.9884578,97.5936988 69.684241,97.5903216 C71.1264096,97.5903216 72.2944819,98.7529383 72.3029157,100.182357 L72.3577349,110.324226 L67.150747,110.352932 L67.0950843,100.211064 Z" id="Fill-115" fill="#FFFFFF" mask="url(#mask-74)"></path>
                    </g>
                    <g id="Group-120">
                        <mask id="mask-76" fill="white">
                            <use xlink:href="#path-75"></use>
                        </mask>
                        <g id="Clip-119"></g>
                        <path d="M69.6993373,96.745588 L69.6799398,96.745588 C67.7764458,96.7565641 66.2406627,98.310097 66.2516265,100.215708 L66.3123494,111.201887 L73.2060843,111.163049 L73.1462048,100.177714 C73.135241,98.2780132 71.5943976,96.745588 69.6993373,96.745588 M69.6993373,96.745588 L69.6993373,98.4342108 C70.665,98.4342108 71.4535542,99.221109 71.4594578,100.187001 L71.5100602,109.483714 L67.9906627,109.503133 L67.9383735,100.20642 C67.9358434,99.7361389 68.1163253,99.2920311 68.4477711,98.9576838 C68.7775301,98.6233365 69.2194578,98.4367437 69.6883735,98.4342108 L69.6993373,96.745588" id="Fill-118" fill="#000000" mask="url(#mask-76)"></path>
                    </g>
                    <g id="Group-123">
                        <mask id="mask-78" fill="white">
                            <use xlink:href="#path-77"></use>
                        </mask>
                        <g id="Clip-122"></g>
                        <polygon id="Fill-121" fill="#FFFFFF" mask="url(#mask-78)" points="18.8539518 78.2432641 47.7909398 78.0828449 48.1308193 139.818893 19.1938313 139.979312"></polygon>
                    </g>
                    <g id="Group-126">
                        <mask id="mask-80" fill="white">
                            <use xlink:href="#path-79"></use>
                        </mask>
                        <g id="Clip-125"></g>
                        <path d="M48.629,77.2340587 L18.0052651,77.4037653 L18.3552651,140.827592 L48.979,140.658729 L48.629,77.2340587 Z M46.9523735,78.9319689 L47.2829759,138.979394 L20.0335783,139.129681 L19.7012892,79.0822563 L46.9523735,78.9319689 Z" id="Fill-124" fill="#000000" mask="url(#mask-80)"></path>
                    </g>
                    <g id="Group-129">
                        <mask id="mask-82" fill="white">
                            <use xlink:href="#path-81"></use>
                        </mask>
                        <g id="Clip-128"></g>
                        <polygon id="Fill-127" fill="#FFFFFF" mask="url(#mask-82)" points="14.1552651 78.2692689 45.1981566 78.0970293 45.2293614 83.7893766 14.1856265 83.9616162"></polygon>
                    </g>
                    <g id="Group-132">
                        <mask id="mask-84" fill="white">
                            <use xlink:href="#path-83"></use>
                        </mask>
                        <g id="Clip-131"></g>
                        <path d="M46.0363012,77.2484964 L13.3058193,77.429179 L13.3471446,84.8101491 L46.0776265,84.6294665 L46.0363012,77.2484964 Z M44.3596747,78.9464066 L44.3816024,82.9492868 L15.0246145,83.1122389 L15.0026867,79.1093587 L44.3596747,78.9464066 Z" id="Fill-130" fill="#000000" mask="url(#mask-84)"></path>
                    </g>
                    <g id="Group-135">
                        <mask id="mask-86" fill="white">
                            <use xlink:href="#path-85"></use>
                        </mask>
                        <g id="Clip-134"></g>
                        <path d="M29.7453614,99.3593228 C29.7343976,97.3878557 31.3283735,95.7743766 33.2976506,95.7634006 C35.2762048,95.7634006 36.8786145,97.3591491 36.8895783,99.3196401 L36.938494,108.29467 L29.7951205,108.334353 L29.7453614,99.3593228 Z" id="Fill-133" fill="#FFFFFF" mask="url(#mask-86)"></path>
                    </g>
                    <g id="Group-138">
                        <mask id="mask-88" fill="white">
                            <use xlink:href="#path-87"></use>
                        </mask>
                        <g id="Clip-137"></g>
                        <path d="M33.3173012,94.9192581 L33.2928434,94.9192581 C30.8538072,94.9327671 28.888747,96.922809 28.902241,99.3645575 L28.9562169,109.183899 L37.7871807,109.134929 L37.7323614,99.3155874 C37.7197108,96.882282 35.7445301,94.9192581 33.3173012,94.9192581 M33.3181446,94.9192581 L33.3181446,96.6078808 C34.8134458,96.6078808 36.0380241,97.8262222 36.0456145,99.3248749 L36.0903133,107.455593 L30.6328434,107.485989 L30.588988,99.3544257 C30.5805542,97.8490186 31.7975422,96.616324 33.3012771,96.6078808 L33.3181446,94.9192581" id="Fill-136" fill="#000000" mask="url(#mask-88)"></path>
                    </g>
                    <g id="Group-141">
                        <mask id="mask-90" fill="white">
                            <use xlink:href="#path-89"></use>
                        </mask>
                        <g id="Clip-140"></g>
                        <polygon id="Fill-139" fill="#FFFFFF" mask="url(#mask-90)" points="27.1814217 119.156567 40.0774458 119.085645 40.1491325 132.231573 27.2531084 132.30334"></polygon>
                    </g>
                    <g id="Group-144">
                        <mask id="mask-92" fill="white">
                            <use xlink:href="#path-91"></use>
                        </mask>
                        <g id="Clip-143"></g>
                        <path d="M40.9159277,118.23593 L26.3331566,118.316984 L26.4149639,133.152379 L40.9977349,133.071325 L40.9159277,118.23593 Z M39.2384578,119.93384 L39.3017108,131.39199 L28.0924337,131.454469 L28.0291807,119.996319 L39.2384578,119.93384 Z" id="Fill-142" fill="#000000" mask="url(#mask-92)"></path>
                    </g>
                    <g id="Group-147">
                        <mask id="mask-94" fill="white">
                            <use xlink:href="#path-93"></use>
                        </mask>
                        <g id="Clip-146"></g>
                        <polygon id="Fill-145" fill="#FFFFFF" mask="url(#mask-94)" points="26.2005783 117.588259 41.0414217 117.505516 41.0591325 120.930043 26.2182892 121.011941"></polygon>
                    </g>
                    <g id="Group-150">
                        <mask id="mask-96" fill="white">
                            <use xlink:href="#path-95"></use>
                        </mask>
                        <g id="Clip-149"></g>
                        <path d="M41.8787229,116.656983 L25.3519759,116.748169 L25.3806506,121.860474 L41.9073976,121.769289 L41.8787229,116.656983 Z M40.2020964,118.354893 L40.2113735,120.089953 L27.0581205,120.162564 L27.048,118.428349 L40.2020964,118.354893 Z" id="Fill-148" fill="#000000" mask="url(#mask-96)"></path>
                    </g>
                    <g id="Group-154">
                        <mask id="mask-98" fill="white">
                            <use xlink:href="#path-97"></use>
                        </mask>
                        <g id="Clip-152"></g>
                        <path d="M33.635253,132.594205 L33.5703133,120.791576" id="Fill-151" fill="#FFFFFF" mask="url(#mask-98)"></path>
                        <path d="M33.635253,132.594205 L33.5703133,120.791576" id="Stroke-153" stroke="#000000" stroke-width="2" mask="url(#mask-98)"></path>
                    </g>
                    <g id="Group-157">
                        <mask id="mask-100" fill="white">
                            <use xlink:href="#path-99"></use>
                        </mask>
                        <g id="Clip-156"></g>
                        <polygon id="Fill-155" fill="#FFFFFF" mask="url(#mask-100)" points="47.6991807 90.4215269 46.0613494 90.4308144 46.0436386 87.1261796 53.3759277 87.0856527 53.3936386 90.3894431 51.7566506 90.3987305 52.0273735 139.487838 47.9690602 139.510635"></polygon>
                    </g>
                    <g id="Group-160">
                        <mask id="mask-102" fill="white">
                            <use xlink:href="#path-101"></use>
                        </mask>
                        <g id="Clip-159"></g>
                        <path d="M53.9247952,86.2383018 L53.9231084,86.2383018 L52.5770843,86.2459006 L46.8328675,86.2771401 L45.4868434,86.2847389 C45.3266024,86.2855832 45.1958795,86.4172958 45.1967229,86.5785593 L45.2211807,90.9875533 C45.2228675,91.1479725 45.352747,91.2771521 45.5121446,91.2771521 L45.5138313,91.2771521 L46.8598554,91.2695533 L47.1314217,140.359505 L52.8756386,140.327422 L52.6049157,91.2383138 L53.9500964,91.2315593 C54.1120241,91.230715 54.2410602,91.0981581 54.2410602,90.9377389 L54.2166024,86.5287449 C54.215759,86.3674814 54.0841928,86.2383018 53.9247952,86.2383018 M52.5366024,87.9345234 L52.5458795,89.549691 L50.9088916,89.5589784 L50.9181687,91.2476012 L51.1796145,138.648931 L48.8088916,138.661595 L48.5466024,91.2611102 L48.5373253,89.5724874 L46.9003373,89.5809305 L46.8910602,87.9657629 L52.5366024,87.9345234" id="Fill-158" fill="#000000" mask="url(#mask-102)"></path>
                    </g>
                    <g id="Group-163">
                        <mask id="mask-104" fill="white">
                            <use xlink:href="#path-103"></use>
                        </mask>
                        <g id="Clip-162"></g>
                        <polygon id="Fill-161" fill="#FFFFFF" mask="url(#mask-104)" points="14.5777952 140.182284 165.279361 139.348105 165.353578 152.826692 14.6511687 153.660027"></polygon>
                    </g>
                    <g id="Group-166">
                        <mask id="mask-106" fill="white">
                            <use xlink:href="#path-105"></use>
                        </mask>
                        <g id="Clip-165"></g>
                        <path d="M166.118181,138.499403 L13.7298675,139.342026 L13.8125181,154.509235 L166.202518,153.665768 L166.118181,138.499403 Z M164.441554,140.197313 L164.505651,151.987277 L15.489988,152.811325 L15.4250482,141.021361 L164.441554,140.197313 Z" id="Fill-164" fill="#000000" mask="url(#mask-106)"></path>
                    </g>
                    <g id="Group-169">
                        <mask id="mask-108" fill="white">
                            <use xlink:href="#path-107"></use>
                        </mask>
                        <g id="Clip-168"></g>
                        <polygon id="Fill-167" fill="#FFFFFF" mask="url(#mask-108)" points="86.1015181 122.886228 97.6203133 122.82206 97.712241 139.462593 86.1926024 139.526761"></polygon>
                    </g>
                    <g id="Group-172">
                        <mask id="mask-110" fill="white">
                            <use xlink:href="#path-109"></use>
                        </mask>
                        <g id="Clip-171"></g>
                        <path d="M98.4588795,121.973528 L85.2533373,122.046138 L85.3545422,140.376138 L98.5600843,140.302683 L98.4588795,121.973528 Z M96.7814096,123.671438 L96.8640602,138.623348 L87.032012,138.678228 L86.9502048,123.725474 L96.7814096,123.671438 Z" id="Fill-170" fill="#000000" mask="url(#mask-110)"></path>
                    </g>
                    <g id="Group-175">
                        <mask id="mask-112" fill="white">
                            <use xlink:href="#path-111"></use>
                        </mask>
                        <g id="Clip-174"></g>
                        <polygon id="Fill-173" fill="#FFFFFF" mask="url(#mask-112)" points="84.140506 119.866042 99.5480964 119.779922 99.5632771 122.744299 84.1565301 122.830419"></polygon>
                    </g>
                    <g id="Group-178">
                        <mask id="mask-114" fill="white">
                            <use xlink:href="#path-113"></use>
                        </mask>
                        <g id="Clip-177"></g>
                        <path d="M100.386157,118.931811 L83.2918193,119.026374 L83.3179639,123.67853 L100.412301,123.584811 L100.386157,118.931811 Z M98.7095301,120.629722 L98.7162771,121.904632 L84.9954337,121.98062 L84.9878434,120.70571 L98.7095301,120.629722 Z" id="Fill-176" fill="#000000" mask="url(#mask-114)"></path>
                    </g>
                    <g id="Group-181">
                        <mask id="mask-116" fill="white">
                            <use xlink:href="#path-115"></use>
                        </mask>
                        <g id="Clip-180"></g>
                        <polygon id="Fill-179" fill="#FFFFFF" mask="url(#mask-116)" points="44.4318675 73.9652228 137.694639 73.4493485 137.764639 86.2778156 44.5018675 86.7945341"></polygon>
                    </g>
                    <g id="Group-184">
                        <mask id="mask-118" fill="white">
                            <use xlink:href="#path-117"></use>
                        </mask>
                        <g id="Clip-183"></g>
                        <path d="M138.53312,72.6002246 L43.5836024,73.1253862 L43.6637229,87.642476 L138.613241,87.1181587 L138.53312,72.6002246 Z M136.855651,74.2981347 L136.917217,85.4388234 L45.3411928,85.9454102 L45.2796265,74.8047216 L136.855651,74.2981347 Z" id="Fill-182" fill="#000000" mask="url(#mask-118)"></path>
                    </g>
                    <g id="Group-188">
                        <mask id="mask-120" fill="white">
                            <use xlink:href="#path-119"></use>
                        </mask>
                        <g id="Clip-186"></g>
                        <path d="M29.1531446,77.5119216 L29.0451928,57.9433168" id="Fill-185" fill="#FFFFFF" mask="url(#mask-120)"></path>
                        <path d="M29.1531446,77.5119216 L29.0451928,57.9433168" id="Stroke-187" stroke="#000000" stroke-width="2" mask="url(#mask-120)"></path>
                    </g>
                    <g id="Group-191">
                        <mask id="mask-122" fill="white">
                            <use xlink:href="#path-121"></use>
                        </mask>
                        <g id="Clip-190"></g>
                        <path d="M29.0395422,56.9070934 C29.0395422,56.9070934 35.5993012,60.1450275 41.7162892,57.2465066 L41.7668916,66.2510874 C41.7668916,66.2510874 34.427012,69.9761892 29.0876145,65.5030275 L29.0395422,56.9070934 Z" id="Fill-189" fill="#FFFFFF" mask="url(#mask-122)"></path>
                    </g>
                    <g id="Group-194">
                        <mask id="mask-124" fill="white">
                            <use xlink:href="#path-123"></use>
                        </mask>
                        <g id="Clip-193"></g>
                        <path d="M29.0395422,56.9070934 C29.0395422,56.9070934 35.5993012,60.1450275 41.7162892,57.2465066 L41.7668916,66.2510874 C41.7668916,66.2510874 34.427012,69.9761892 29.0876145,65.5030275 L29.0395422,56.9070934 Z" id="Stroke-192" stroke="#000000" stroke-width="2" mask="url(#mask-124)"></path>
                    </g>
                </g>
                <path d="M139.156627,70.5001689 C139.156627,108.969528 108.00494,140.155857 69.5783133,140.155857 C31.1516867,140.155857 0,108.969528 0,70.5001689 C0,32.0308096 31.1516867,0.84448024 69.5783133,0.84448024 C108.00494,0.84448024 139.156627,32.0308096 139.156627,70.5001689 Z" id="Stroke-196" stroke="#EB7C23" stroke-width="2"></path>
            </g>
        </g>
    </g>
</svg>