<?xml version="1.0" encoding="UTF-8"?>
<svg width="142px" height="144px" viewBox="0 0 142 144" version="1.1" xmlns="http://www.w3.org/2000/svg" xmlns:xlink="http://www.w3.org/1999/xlink">
    <!-- Generator: sketchtool 52.5 (67469) - http://www.bohemiancoding.com/sketch -->
    <title>DB9B4B2E-B6CB-437F-8F53-0E88B9F46274</title>
    <desc>Created with sketchtool.</desc>
    <defs>
        <path d="M0,70.7261429 C0,109.447345 31.3203614,140.837798 69.956988,140.837798 C108.593614,140.837798 139.914819,109.447345 139.914819,70.7261429 C139.914819,32.0040952 108.593614,0.614488095 69.956988,0.614488095 C31.3203614,0.614488095 0,32.0040952 0,70.7261429" id="path-1"></path>
        <path d="M0,70.7261429 C0,109.447345 31.3203614,140.837798 69.956988,140.837798 C108.593614,140.837798 139.914819,109.447345 139.914819,70.7261429 C139.914819,32.0040952 108.593614,0.614488095 69.956988,0.614488095 C31.3203614,0.614488095 0,32.0040952 0,70.7261429" id="path-3"></path>
        <path d="M0,70.7261429 C0,109.447345 31.3203614,140.837798 69.956988,140.837798 C108.593614,140.837798 139.914819,109.447345 139.914819,70.7261429 C139.914819,32.0040952 108.593614,0.614488095 69.956988,0.614488095 C31.3203614,0.614488095 0,32.0040952 0,70.7261429" id="path-5"></path>
        <path d="M0,70.7261429 C0,109.447345 31.3203614,140.837798 69.956988,140.837798 C108.593614,140.837798 139.914819,109.447345 139.914819,70.7261429 C139.914819,32.0040952 108.593614,0.614488095 69.956988,0.614488095 C31.3203614,0.614488095 0,32.0040952 0,70.7261429" id="path-7"></path>
        <path d="M0,70.7261429 C0,109.447345 31.3203614,140.837798 69.956988,140.837798 C108.593614,140.837798 139.914819,109.447345 139.914819,70.7261429 C139.914819,32.0040952 108.593614,0.614488095 69.956988,0.614488095 C31.3203614,0.614488095 0,32.0040952 0,70.7261429" id="path-9"></path>
        <path d="M0,70.7261429 C0,109.447345 31.3203614,140.837798 69.956988,140.837798 C108.593614,140.837798 139.914819,109.447345 139.914819,70.7261429 C139.914819,32.0040952 108.593614,0.614488095 69.956988,0.614488095 C31.3203614,0.614488095 0,32.0040952 0,70.7261429" id="path-11"></path>
        <path d="M0,70.7261429 C0,109.447345 31.3203614,140.837798 69.956988,140.837798 C108.593614,140.837798 139.914819,109.447345 139.914819,70.7261429 C139.914819,32.0040952 108.593614,0.614488095 69.956988,0.614488095 C31.3203614,0.614488095 0,32.0040952 0,70.7261429" id="path-13"></path>
        <path d="M0,70.7261429 C0,109.447345 31.3203614,140.837798 69.956988,140.837798 C108.593614,140.837798 139.914819,109.447345 139.914819,70.7261429 C139.914819,32.0040952 108.593614,0.614488095 69.956988,0.614488095 C31.3203614,0.614488095 0,32.0040952 0,70.7261429" id="path-15"></path>
        <path d="M0,70.7261429 C0,109.447345 31.3203614,140.837798 69.956988,140.837798 C108.593614,140.837798 139.914819,109.447345 139.914819,70.7261429 C139.914819,32.0040952 108.593614,0.614488095 69.956988,0.614488095 C31.3203614,0.614488095 0,32.0040952 0,70.7261429" id="path-17"></path>
        <path d="M0,70.7261429 C0,109.447345 31.3203614,140.837798 69.956988,140.837798 C108.593614,140.837798 139.914819,109.447345 139.914819,70.7261429 C139.914819,32.0040952 108.593614,0.614488095 69.956988,0.614488095 C31.3203614,0.614488095 0,32.0040952 0,70.7261429" id="path-19"></path>
        <path d="M0,70.7261429 C0,109.447345 31.3203614,140.837798 69.956988,140.837798 C108.593614,140.837798 139.914819,109.447345 139.914819,70.7261429 C139.914819,32.0040952 108.593614,0.614488095 69.956988,0.614488095 C31.3203614,0.614488095 0,32.0040952 0,70.7261429" id="path-21"></path>
        <path d="M0,70.7261429 C0,109.447345 31.3203614,140.837798 69.956988,140.837798 C108.593614,140.837798 139.914819,109.447345 139.914819,70.7261429 C139.914819,32.0040952 108.593614,0.614488095 69.956988,0.614488095 C31.3203614,0.614488095 0,32.0040952 0,70.7261429" id="path-23"></path>
        <path d="M0,70.7261429 C0,109.447345 31.3203614,140.837798 69.956988,140.837798 C108.593614,140.837798 139.914819,109.447345 139.914819,70.7261429 C139.914819,32.0040952 108.593614,0.614488095 69.956988,0.614488095 C31.3203614,0.614488095 0,32.0040952 0,70.7261429" id="path-25"></path>
        <path d="M0,70.7261429 C0,109.447345 31.3203614,140.837798 69.956988,140.837798 C108.593614,140.837798 139.914819,109.447345 139.914819,70.7261429 C139.914819,32.0040952 108.593614,0.614488095 69.956988,0.614488095 C31.3203614,0.614488095 0,32.0040952 0,70.7261429" id="path-27"></path>
        <path d="M0,70.7261429 C0,109.447345 31.3203614,140.837798 69.956988,140.837798 C108.593614,140.837798 139.914819,109.447345 139.914819,70.7261429 C139.914819,32.0040952 108.593614,0.614488095 69.956988,0.614488095 C31.3203614,0.614488095 0,32.0040952 0,70.7261429" id="path-29"></path>
        <path d="M0,70.7261429 C0,109.447345 31.3203614,140.837798 69.956988,140.837798 C108.593614,140.837798 139.914819,109.447345 139.914819,70.7261429 C139.914819,32.0040952 108.593614,0.614488095 69.956988,0.614488095 C31.3203614,0.614488095 0,32.0040952 0,70.7261429" id="path-31"></path>
        <path d="M0,70.7261429 C0,109.447345 31.3203614,140.837798 69.956988,140.837798 C108.593614,140.837798 139.914819,109.447345 139.914819,70.7261429 C139.914819,32.0040952 108.593614,0.614488095 69.956988,0.614488095 C31.3203614,0.614488095 0,32.0040952 0,70.7261429" id="path-33"></path>
        <path d="M0,70.7261429 C0,109.447345 31.3203614,140.837798 69.956988,140.837798 C108.593614,140.837798 139.914819,109.447345 139.914819,70.7261429 C139.914819,32.0040952 108.593614,0.614488095 69.956988,0.614488095 C31.3203614,0.614488095 0,32.0040952 0,70.7261429" id="path-35"></path>
        <path d="M0,70.7261429 C0,109.447345 31.3203614,140.837798 69.956988,140.837798 C108.593614,140.837798 139.914819,109.447345 139.914819,70.7261429 C139.914819,32.0040952 108.593614,0.614488095 69.956988,0.614488095 C31.3203614,0.614488095 0,32.0040952 0,70.7261429" id="path-37"></path>
        <path d="M0,70.7261429 C0,109.447345 31.3203614,140.837798 69.956988,140.837798 C108.593614,140.837798 139.914819,109.447345 139.914819,70.7261429 C139.914819,32.0040952 108.593614,0.614488095 69.956988,0.614488095 C31.3203614,0.614488095 0,32.0040952 0,70.7261429" id="path-39"></path>
        <path d="M0,70.7261429 C0,109.447345 31.3203614,140.837798 69.956988,140.837798 C108.593614,140.837798 139.914819,109.447345 139.914819,70.7261429 C139.914819,32.0040952 108.593614,0.614488095 69.956988,0.614488095 C31.3203614,0.614488095 0,32.0040952 0,70.7261429" id="path-41"></path>
        <path d="M0,70.7261429 C0,109.447345 31.3203614,140.837798 69.956988,140.837798 C108.593614,140.837798 139.914819,109.447345 139.914819,70.7261429 C139.914819,32.0040952 108.593614,0.614488095 69.956988,0.614488095 C31.3203614,0.614488095 0,32.0040952 0,70.7261429" id="path-43"></path>
        <path d="M0,70.7261429 C0,109.447345 31.3203614,140.837798 69.956988,140.837798 C108.593614,140.837798 139.914819,109.447345 139.914819,70.7261429 C139.914819,32.0040952 108.593614,0.614488095 69.956988,0.614488095 C31.3203614,0.614488095 0,32.0040952 0,70.7261429" id="path-45"></path>
        <path d="M0,70.7261429 C0,109.447345 31.3203614,140.837798 69.956988,140.837798 C108.593614,140.837798 139.914819,109.447345 139.914819,70.7261429 C139.914819,32.0040952 108.593614,0.614488095 69.956988,0.614488095 C31.3203614,0.614488095 0,32.0040952 0,70.7261429 Z" id="path-47"></path>
        <path d="M0,70.7261429 C0,109.447345 31.3203614,140.837798 69.956988,140.837798 C108.593614,140.837798 139.914819,109.447345 139.914819,70.7261429 C139.914819,32.0040952 108.593614,0.614488095 69.956988,0.614488095 C31.3203614,0.614488095 0,32.0040952 0,70.7261429" id="path-49"></path>
        <path d="M0,70.7261429 C0,109.447345 31.3203614,140.837798 69.956988,140.837798 C108.593614,140.837798 139.914819,109.447345 139.914819,70.7261429 C139.914819,32.0040952 108.593614,0.614488095 69.956988,0.614488095 C31.3203614,0.614488095 0,32.0040952 0,70.7261429" id="path-51"></path>
        <path d="M0,70.7261429 C0,109.447345 31.3203614,140.837798 69.956988,140.837798 C108.593614,140.837798 139.914819,109.447345 139.914819,70.7261429 C139.914819,32.0040952 108.593614,0.614488095 69.956988,0.614488095 C31.3203614,0.614488095 0,32.0040952 0,70.7261429" id="path-53"></path>
        <path d="M0,70.7261429 C0,109.447345 31.3203614,140.837798 69.956988,140.837798 C108.593614,140.837798 139.914819,109.447345 139.914819,70.7261429 C139.914819,32.0040952 108.593614,0.614488095 69.956988,0.614488095 C31.3203614,0.614488095 0,32.0040952 0,70.7261429" id="path-55"></path>
        <path d="M0,70.7261429 C0,109.447345 31.3203614,140.837798 69.956988,140.837798 C108.593614,140.837798 139.914819,109.447345 139.914819,70.7261429 C139.914819,32.0040952 108.593614,0.614488095 69.956988,0.614488095 C31.3203614,0.614488095 0,32.0040952 0,70.7261429" id="path-57"></path>
        <path d="M0,70.7261429 C0,109.447345 31.3203614,140.837798 69.956988,140.837798 C108.593614,140.837798 139.914819,109.447345 139.914819,70.7261429 C139.914819,32.0040952 108.593614,0.614488095 69.956988,0.614488095 C31.3203614,0.614488095 0,32.0040952 0,70.7261429" id="path-59"></path>
        <path d="M0,70.7261429 C0,109.447345 31.3203614,140.837798 69.956988,140.837798 C108.593614,140.837798 139.914819,109.447345 139.914819,70.7261429 C139.914819,32.0040952 108.593614,0.614488095 69.956988,0.614488095 C31.3203614,0.614488095 0,32.0040952 0,70.7261429" id="path-61"></path>
        <path d="M0,70.7261429 C0,109.447345 31.3203614,140.837798 69.956988,140.837798 C108.593614,140.837798 139.914819,109.447345 139.914819,70.7261429 C139.914819,32.0040952 108.593614,0.614488095 69.956988,0.614488095 C31.3203614,0.614488095 0,32.0040952 0,70.7261429" id="path-63"></path>
        <path d="M0,70.7261429 C0,109.447345 31.3203614,140.837798 69.956988,140.837798 C108.593614,140.837798 139.914819,109.447345 139.914819,70.7261429 C139.914819,32.0040952 108.593614,0.614488095 69.956988,0.614488095 C31.3203614,0.614488095 0,32.0040952 0,70.7261429" id="path-65"></path>
        <path d="M0,70.7261429 C0,109.447345 31.3203614,140.837798 69.956988,140.837798 C108.593614,140.837798 139.914819,109.447345 139.914819,70.7261429 C139.914819,32.0040952 108.593614,0.614488095 69.956988,0.614488095 C31.3203614,0.614488095 0,32.0040952 0,70.7261429" id="path-67"></path>
        <path d="M0,70.7261429 C0,109.447345 31.3203614,140.837798 69.956988,140.837798 C108.593614,140.837798 139.914819,109.447345 139.914819,70.7261429 C139.914819,32.0040952 108.593614,0.614488095 69.956988,0.614488095 C31.3203614,0.614488095 0,32.0040952 0,70.7261429" id="path-69"></path>
        <path d="M0,70.7261429 C0,109.447345 31.3203614,140.837798 69.956988,140.837798 C108.593614,140.837798 139.914819,109.447345 139.914819,70.7261429 C139.914819,32.0040952 108.593614,0.614488095 69.956988,0.614488095 C31.3203614,0.614488095 0,32.0040952 0,70.7261429 Z" id="path-71"></path>
        <path d="M0,70.7261429 C0,109.447345 31.3203614,140.837798 69.956988,140.837798 C108.593614,140.837798 139.914819,109.447345 139.914819,70.7261429 C139.914819,32.0040952 108.593614,0.614488095 69.956988,0.614488095 C31.3203614,0.614488095 0,32.0040952 0,70.7261429" id="path-73"></path>
        <path d="M0,70.7261429 C0,109.447345 31.3203614,140.837798 69.956988,140.837798 C108.593614,140.837798 139.914819,109.447345 139.914819,70.7261429 C139.914819,32.0040952 108.593614,0.614488095 69.956988,0.614488095 C31.3203614,0.614488095 0,32.0040952 0,70.7261429" id="path-75"></path>
        <path d="M0,70.7261429 C0,109.447345 31.3203614,140.837798 69.956988,140.837798 C108.593614,140.837798 139.914819,109.447345 139.914819,70.7261429 C139.914819,32.0040952 108.593614,0.614488095 69.956988,0.614488095 C31.3203614,0.614488095 0,32.0040952 0,70.7261429" id="path-77"></path>
        <path d="M0,70.7261429 C0,109.447345 31.3203614,140.837798 69.956988,140.837798 C108.593614,140.837798 139.914819,109.447345 139.914819,70.7261429 C139.914819,32.0040952 108.593614,0.614488095 69.956988,0.614488095 C31.3203614,0.614488095 0,32.0040952 0,70.7261429" id="path-79"></path>
        <path d="M0,70.7261429 C0,109.447345 31.3203614,140.837798 69.956988,140.837798 C108.593614,140.837798 139.914819,109.447345 139.914819,70.7261429 C139.914819,32.0040952 108.593614,0.614488095 69.956988,0.614488095 C31.3203614,0.614488095 0,32.0040952 0,70.7261429" id="path-81"></path>
        <path d="M0,70.7261429 C0,109.447345 31.3203614,140.837798 69.956988,140.837798 C108.593614,140.837798 139.914819,109.447345 139.914819,70.7261429 C139.914819,32.0040952 108.593614,0.614488095 69.956988,0.614488095 C31.3203614,0.614488095 0,32.0040952 0,70.7261429" id="path-83"></path>
        <path d="M0,70.7261429 C0,109.447345 31.3203614,140.837798 69.956988,140.837798 C108.593614,140.837798 139.914819,109.447345 139.914819,70.7261429 C139.914819,32.0040952 108.593614,0.614488095 69.956988,0.614488095 C31.3203614,0.614488095 0,32.0040952 0,70.7261429" id="path-85"></path>
        <path d="M0,70.7261429 C0,109.447345 31.3203614,140.837798 69.956988,140.837798 C108.593614,140.837798 139.914819,109.447345 139.914819,70.7261429 C139.914819,32.0040952 108.593614,0.614488095 69.956988,0.614488095 C31.3203614,0.614488095 0,32.0040952 0,70.7261429" id="path-87"></path>
        <path d="M0,70.7261429 C0,109.447345 31.3203614,140.837798 69.956988,140.837798 C108.593614,140.837798 139.914819,109.447345 139.914819,70.7261429 C139.914819,32.0040952 108.593614,0.614488095 69.956988,0.614488095 C31.3203614,0.614488095 0,32.0040952 0,70.7261429" id="path-89"></path>
        <path d="M0,70.7261429 C0,109.447345 31.3203614,140.837798 69.956988,140.837798 C108.593614,140.837798 139.914819,109.447345 139.914819,70.7261429 C139.914819,32.0040952 108.593614,0.614488095 69.956988,0.614488095 C31.3203614,0.614488095 0,32.0040952 0,70.7261429" id="path-91"></path>
        <path d="M0,70.7261429 C0,109.447345 31.3203614,140.837798 69.956988,140.837798 C108.593614,140.837798 139.914819,109.447345 139.914819,70.7261429 C139.914819,32.0040952 108.593614,0.614488095 69.956988,0.614488095 C31.3203614,0.614488095 0,32.0040952 0,70.7261429" id="path-93"></path>
        <path d="M0,70.7261429 C0,109.447345 31.3203614,140.837798 69.956988,140.837798 C108.593614,140.837798 139.914819,109.447345 139.914819,70.7261429 C139.914819,32.0040952 108.593614,0.614488095 69.956988,0.614488095 C31.3203614,0.614488095 0,32.0040952 0,70.7261429" id="path-95"></path>
        <path d="M0,70.7261429 C0,109.447345 31.3203614,140.837798 69.956988,140.837798 C108.593614,140.837798 139.914819,109.447345 139.914819,70.7261429 C139.914819,32.0040952 108.593614,0.614488095 69.956988,0.614488095 C31.3203614,0.614488095 0,32.0040952 0,70.7261429 Z" id="path-97"></path>
        <path d="M0,70.7261429 C0,109.447345 31.3203614,140.837798 69.956988,140.837798 C108.593614,140.837798 139.914819,109.447345 139.914819,70.7261429 C139.914819,32.0040952 108.593614,0.614488095 69.956988,0.614488095 C31.3203614,0.614488095 0,32.0040952 0,70.7261429" id="path-99"></path>
        <path d="M0,70.7261429 C0,109.447345 31.3203614,140.837798 69.956988,140.837798 C108.593614,140.837798 139.914819,109.447345 139.914819,70.7261429 C139.914819,32.0040952 108.593614,0.614488095 69.956988,0.614488095 C31.3203614,0.614488095 0,32.0040952 0,70.7261429" id="path-101"></path>
        <path d="M0,70.7261429 C0,109.447345 31.3203614,140.837798 69.956988,140.837798 C108.593614,140.837798 139.914819,109.447345 139.914819,70.7261429 C139.914819,32.0040952 108.593614,0.614488095 69.956988,0.614488095 C31.3203614,0.614488095 0,32.0040952 0,70.7261429" id="path-103"></path>
        <path d="M0,70.7261429 C0,109.447345 31.3203614,140.837798 69.956988,140.837798 C108.593614,140.837798 139.914819,109.447345 139.914819,70.7261429 C139.914819,32.0040952 108.593614,0.614488095 69.956988,0.614488095 C31.3203614,0.614488095 0,32.0040952 0,70.7261429" id="path-105"></path>
        <path d="M0,70.7261429 C0,109.447345 31.3203614,140.837798 69.956988,140.837798 C108.593614,140.837798 139.914819,109.447345 139.914819,70.7261429 C139.914819,32.0040952 108.593614,0.614488095 69.956988,0.614488095 C31.3203614,0.614488095 0,32.0040952 0,70.7261429" id="path-107"></path>
        <path d="M0,70.7261429 C0,109.447345 31.3203614,140.837798 69.956988,140.837798 C108.593614,140.837798 139.914819,109.447345 139.914819,70.7261429 C139.914819,32.0040952 108.593614,0.614488095 69.956988,0.614488095 C31.3203614,0.614488095 0,32.0040952 0,70.7261429" id="path-109"></path>
        <path d="M0,70.7261429 C0,109.447345 31.3203614,140.837798 69.956988,140.837798 C108.593614,140.837798 139.914819,109.447345 139.914819,70.7261429 C139.914819,32.0040952 108.593614,0.614488095 69.956988,0.614488095 C31.3203614,0.614488095 0,32.0040952 0,70.7261429" id="path-111"></path>
        <path d="M0,70.7261429 C0,109.447345 31.3203614,140.837798 69.956988,140.837798 C108.593614,140.837798 139.914819,109.447345 139.914819,70.7261429 C139.914819,32.0040952 108.593614,0.614488095 69.956988,0.614488095 C31.3203614,0.614488095 0,32.0040952 0,70.7261429" id="path-113"></path>
        <path d="M0,70.7261429 C0,109.447345 31.3203614,140.837798 69.956988,140.837798 C108.593614,140.837798 139.914819,109.447345 139.914819,70.7261429 C139.914819,32.0040952 108.593614,0.614488095 69.956988,0.614488095 C31.3203614,0.614488095 0,32.0040952 0,70.7261429" id="path-115"></path>
        <path d="M0,70.7261429 C0,109.447345 31.3203614,140.837798 69.956988,140.837798 C108.593614,140.837798 139.914819,109.447345 139.914819,70.7261429 C139.914819,32.0040952 108.593614,0.614488095 69.956988,0.614488095 C31.3203614,0.614488095 0,32.0040952 0,70.7261429" id="path-117"></path>
        <path d="M0,70.7261429 C0,109.447345 31.3203614,140.837798 69.956988,140.837798 C108.593614,140.837798 139.914819,109.447345 139.914819,70.7261429 C139.914819,32.0040952 108.593614,0.614488095 69.956988,0.614488095 C31.3203614,0.614488095 0,32.0040952 0,70.7261429" id="path-119"></path>
        <path d="M0,70.7261429 C0,109.447345 31.3203614,140.837798 69.956988,140.837798 C108.593614,140.837798 139.914819,109.447345 139.914819,70.7261429 C139.914819,32.0040952 108.593614,0.614488095 69.956988,0.614488095 C31.3203614,0.614488095 0,32.0040952 0,70.7261429" id="path-121"></path>
    </defs>
    <g id="Page-1" stroke="none" stroke-width="1" fill="none" fill-rule="evenodd">
        <g id="Careers_page" transform="translate(-1114.000000, -3350.000000)">
            <g id="Group-187" transform="translate(1115.000000, 3351.000000)">
                <path d="M139.914313,70.9567238 C139.914313,109.678771 108.593108,141.068379 69.9573253,141.068379 C31.3206988,141.068379 0.000337349398,109.678771 0.000337349398,70.9567238 C0.000337349398,32.2346762 31.3206988,0.845069048 69.9573253,0.845069048 C108.593108,0.845069048 139.914313,32.2346762 139.914313,70.9567238 Z" id="Stroke-1" stroke="#FDA728" stroke-width="2"></path>
                <g id="Group-186" transform="translate(0.000000, 0.230750)">
                    <g id="Group-5">
                        <mask id="mask-2" fill="white">
                            <use xlink:href="#path-1"></use>
                        </mask>
                        <g id="Clip-4"></g>
                        <path d="M54.1603494,44.813256 C54.1603494,44.813256 41.6261325,41.4382202 37.5104699,54.749875 C37.5104699,54.749875 35.503241,62.0316012 46.7707108,62.9064226 C48.6876988,63.0551845 51.6344458,63.0932202 54.4403494,62.343494 C54.4403494,62.343494 62.1378193,59.9058274 63.2603494,67.0311845 C63.6305904,69.3826369 62.7315542,72.091625 54.8148072,72.6553988 C51.6142048,72.8836131 42.6542048,72.6553988 43.7767349,79.2178274 C43.7767349,79.2178274 44.1520361,85.0296845 52.3833614,86.1546964 C52.3833614,86.1546964 64.1686627,72.8430417 75.0186627,61.9682083 C75.0186627,61.9682083 86.9920361,49.7815655 78.9479398,35.9069821" id="Stroke-3" stroke="#000000" stroke-width="2" stroke-linecap="round" mask="url(#mask-2)"></path>
                    </g>
                    <g id="Group-8">
                        <mask id="mask-4" fill="white">
                            <use xlink:href="#path-3"></use>
                        </mask>
                        <g id="Clip-7"></g>
                        <path d="M37.4164337,56.1562667 C37.4164337,56.1562667 30.3076386,49.4070405 38.2589639,45.1876119 C41.7598072,43.3306238 46.1158313,42.3755048 54.1607711,43.313719" id="Stroke-6" stroke="#000000" stroke-width="2" stroke-linecap="round" mask="url(#mask-4)"></path>
                    </g>
                    <g id="Group-11">
                        <mask id="mask-6" fill="white">
                            <use xlink:href="#path-5"></use>
                        </mask>
                        <g id="Clip-10"></g>
                        <path d="M55.0021205,41.5322107 C55.0021205,41.5322107 56.1432048,39.4630679 60.2403133,40.4071988 C63.1693494,41.0816988 65.5139277,41.5981393 66.4483855,41.4104964" id="Stroke-9" stroke="#000000" stroke-width="2" stroke-linecap="round" mask="url(#mask-6)"></path>
                    </g>
                    <g id="Group-14">
                        <mask id="mask-8" fill="white">
                            <use xlink:href="#path-7"></use>
                        </mask>
                        <g id="Clip-13"></g>
                        <path d="M55.0021205,41.5322107 C55.0021205,41.5322107 53.0379036,43.5007702 55.0948916,45.3755083 C55.0948916,45.3755083 61.5500723,50.3438179 66.2265783,41.3445679" id="Stroke-12" stroke="#000000" stroke-width="2" stroke-linecap="round" mask="url(#mask-8)"></path>
                    </g>
                    <g id="Group-17">
                        <mask id="mask-10" fill="white">
                            <use xlink:href="#path-9"></use>
                        </mask>
                        <g id="Clip-16"></g>
                        <path d="M50.8865422,43.0320012 C50.8865422,43.0320012 51.4111205,36.9733345 57.5095542,37.9402869" id="Stroke-15" stroke="#000000" stroke-width="2" stroke-linecap="round" mask="url(#mask-10)"></path>
                    </g>
                    <g id="Group-20">
                        <mask id="mask-12" fill="white">
                            <use xlink:href="#path-11"></use>
                        </mask>
                        <g id="Clip-19"></g>
                        <path d="M56.1073614,37.6349869 C56.1073614,37.6349869 57.0595301,33.8449393 67.3486867,35.3452369" id="Stroke-18" stroke="#000000" stroke-width="2" stroke-linecap="round" mask="url(#mask-12)"></path>
                    </g>
                    <g id="Group-23">
                        <mask id="mask-14" fill="white">
                            <use xlink:href="#path-13"></use>
                        </mask>
                        <g id="Clip-22"></g>
                        <path d="M43.1223614,51.375431 C43.1223614,51.375431 51.3545301,52.6880857 55.2829639,49.1254071" id="Stroke-21" stroke="#000000" stroke-width="2" stroke-linecap="round" mask="url(#mask-14)"></path>
                    </g>
                    <g id="Group-26">
                        <mask id="mask-16" fill="white">
                            <use xlink:href="#path-15"></use>
                        </mask>
                        <g id="Clip-25"></g>
                        <path d="M42.8423614,52.5941798 C42.8423614,52.5941798 52.318506,56.6166679 56.8727229,52.218894" id="Stroke-24" stroke="#000000" stroke-width="2" stroke-linecap="round" mask="url(#mask-16)"></path>
                    </g>
                    <g id="Group-29">
                        <mask id="mask-18" fill="white">
                            <use xlink:href="#path-17"></use>
                        </mask>
                        <g id="Clip-28"></g>
                        <path d="M42.4676506,53.906581 C42.4676506,53.906581 53.0941566,61.2779024 59.491988,54.0942238" id="Stroke-27" stroke="#000000" stroke-width="2" stroke-linecap="round" mask="url(#mask-18)"></path>
                    </g>
                    <g id="Group-32">
                        <mask id="mask-20" fill="white">
                            <use xlink:href="#path-19"></use>
                        </mask>
                        <g id="Clip-31"></g>
                        <path d="M40.5972169,57.2813631 C40.5972169,57.2813631 43.839988,61.0291488 49.5766145,60.0934702 C53.242759,59.4958869 61.6444458,56.6237679 63.5158916,65.2477321" id="Stroke-30" stroke="#000000" stroke-width="2" stroke-linecap="round" mask="url(#mask-20)"></path>
                    </g>
                    <g id="Group-35">
                        <mask id="mask-22" fill="white">
                            <use xlink:href="#path-21"></use>
                        </mask>
                        <g id="Clip-34"></g>
                        <path d="M36.4824819,55.2268429 C36.4824819,55.2268429 34.4179036,64.1331167 43.5845301,65.8202119" id="Stroke-33" stroke="#000000" stroke-width="2" stroke-linecap="round" mask="url(#mask-22)"></path>
                    </g>
                    <g id="Group-38">
                        <mask id="mask-24" fill="white">
                            <use xlink:href="#path-23"></use>
                        </mask>
                        <g id="Clip-37"></g>
                        <path d="M42.6117831,62.2392762 C42.6117831,62.2392762 42.8420241,66.0935619 45.0870843,67.5930143 C45.0870843,67.5930143 45.0870843,63.8435381 46.2096145,62.906169" id="Stroke-36" stroke="#000000" stroke-width="2" stroke-linecap="round" mask="url(#mask-24)"></path>
                    </g>
                    <g id="Group-41">
                        <mask id="mask-26" fill="white">
                            <use xlink:href="#path-25"></use>
                        </mask>
                        <g id="Clip-40"></g>
                        <path d="M44.9343185,62.7225833 C44.9343185,62.7225833 44.8997711,66.6554762 47.1448313,68.1557738 C47.1448313,68.1557738 47.2224217,63.6252976 48.7742289,62.9846071" id="Stroke-39" stroke="#000000" stroke-width="2" stroke-linecap="round" mask="url(#mask-26)"></path>
                    </g>
                    <g id="Group-44">
                        <mask id="mask-28" fill="white">
                            <use xlink:href="#path-27"></use>
                        </mask>
                        <g id="Clip-43"></g>
                        <path d="M60.9880482,34.594919 C60.9880482,34.594919 63.9820241,26.128169 74.746,26.5778357" id="Stroke-42" stroke="#000000" stroke-width="2" stroke-linecap="round" mask="url(#mask-28)"></path>
                    </g>
                    <g id="Group-47">
                        <mask id="mask-30" fill="white">
                            <use xlink:href="#path-29"></use>
                        </mask>
                        <g id="Clip-46"></g>
                        <path d="M78.1100482,26.5774976 C78.1100482,26.5774976 102.805711,23.9995214 115.095349,39.5282357 C115.095349,39.5282357 122.443663,48.5756643 124.396916,58.9467357 C125.18294,63.129819 125.878723,68.9078667 125.622337,73.2152 L119.356072,66.6553071 C119.356072,66.6553071 122.658723,48.3947833 106.57053,35.6452119" id="Stroke-45" stroke="#000000" stroke-width="2" stroke-linecap="round" mask="url(#mask-30)"></path>
                    </g>
                    <g id="Group-50">
                        <mask id="mask-32" fill="white">
                            <use xlink:href="#path-31"></use>
                        </mask>
                        <g id="Clip-49"></g>
                        <path d="M110.396241,43.4401667 C110.396241,43.4401667 116.45841,53.832369 115.33588,67.7061071 L118.795398,66.6554762" id="Stroke-48" stroke="#000000" stroke-width="2" stroke-linecap="round" mask="url(#mask-32)"></path>
                    </g>
                    <g id="Group-53">
                        <mask id="mask-34" fill="white">
                            <use xlink:href="#path-33"></use>
                        </mask>
                        <g id="Clip-52"></g>
                        <polyline id="Stroke-51" stroke="#000000" stroke-width="2" stroke-linecap="round" mask="url(#mask-34)" points="115.336217 67.9314476 122.735976 76.4717333 125.717301 74.7178643"></polyline>
                    </g>
                    <g id="Group-56">
                        <mask id="mask-36" fill="white">
                            <use xlink:href="#path-35"></use>
                        </mask>
                        <g id="Clip-55"></g>
                        <path d="M104.678759,51.1385107 C104.678759,51.1385107 106.365506,87.0349274 102.553458,108.385642 L127.263458,100.071035" id="Stroke-54" stroke="#000000" stroke-width="2" stroke-linecap="round" mask="url(#mask-36)"></path>
                    </g>
                    <g id="Group-59">
                        <mask id="mask-38" fill="white">
                            <use xlink:href="#path-37"></use>
                        </mask>
                        <g id="Clip-58"></g>
                        <path d="M101.920506,34.8681 C101.920506,34.8681 111.968458,42.9401238 109.536169,68.4384214 C109.536169,68.4384214 109.553036,89.9286 108.38412,97.8231238 C108.184241,99.1755048 107.711108,102.9926 107.711108,102.9926 L115.614361,100.043564 L118.055928,99.7096952 C120.155928,99.4231595 122.303157,97.8442548 124.334,98.4502905 C126.854843,99.2017071 127.221711,100.124707 127.221711,100.124707 C115.622795,79.1247667 117.578578,70.6284333 117.578578,70.6284333" id="Stroke-57" stroke="#000000" stroke-width="2" stroke-linecap="round" mask="url(#mask-38)"></path>
                    </g>
                    <g id="Group-62">
                        <mask id="mask-40" fill="white">
                            <use xlink:href="#path-39"></use>
                        </mask>
                        <g id="Clip-61"></g>
                        <path d="M94.9453855,30.2077952 C94.9453855,30.2077952 103.828639,40.4072833 100.087434,67.7811643 C100.087434,67.7811643 97.0976747,94.2328905 98.7414096,114.229533 C98.952253,116.794831 99.862253,124.568486 99.862253,124.568486 C99.862253,124.568486 111.686349,131.528176 122.910807,129.652593 C122.910807,129.652593 113.677554,119.858819 112.926108,105.142379" id="Stroke-60" stroke="#000000" stroke-width="2" stroke-linecap="round" mask="url(#mask-40)"></path>
                    </g>
                    <g id="Group-65">
                        <mask id="mask-42" fill="white">
                            <use xlink:href="#path-41"></use>
                        </mask>
                        <g id="Clip-64"></g>
                        <path d="M122.910976,129.652846 L117.111096,134.527335 C117.111096,134.527335 97.9850723,133.006751 96.720012,127.778108 C96.4560361,126.685215 99.8624217,124.567894 99.8624217,124.567894" id="Stroke-63" stroke="#000000" stroke-width="2" stroke-linecap="round" mask="url(#mask-42)"></path>
                    </g>
                    <g id="Group-68">
                        <mask id="mask-44" fill="white">
                            <use xlink:href="#path-43"></use>
                        </mask>
                        <g id="Clip-67"></g>
                        <path d="M96.4987108,127.714715 C96.4987108,127.714715 94.3194337,105.793465 95.2235301,93.4665131 C95.2235301,93.4665131 95.7843735,76.2177393 96.7205181,71.7176917" id="Stroke-66" stroke="#000000" stroke-width="2" stroke-linecap="round" mask="url(#mask-44)"></path>
                    </g>
                    <g id="Group-71">
                        <mask id="mask-46" fill="white">
                            <use xlink:href="#path-45"></use>
                        </mask>
                        <g id="Clip-70"></g>
                        <path d="M68.2844096,36.2825214 C69.0333253,26.1574143 76.1412771,26.5327 76.1412771,26.5327 C76.1412771,26.5327 79.3216386,26.3459024 79.3216386,31.4071881 C79.3216386,31.4071881 79.1344096,37.0322476 76.7021205,40.0328429" id="Stroke-69" stroke="#000000" stroke-width="2" stroke-linecap="round" mask="url(#mask-46)"></path>
                    </g>
                    <g id="Group-74">
                        <mask id="mask-48" fill="white">
                            <use xlink:href="#path-47"></use>
                        </mask>
                        <g id="Clip-73"></g>
                        <path d="M70.903506,35.157425 C70.903506,35.157425 71.0907349,29.157925 75.3927831,28.5949964 C76.223506,28.486806 77.2642289,28.9702821 76.8906145,31.5955917 C76.6409759,33.3418536 75.3927831,37.219806 72.3996506,37.0321631 C72.3996506,37.0321631 70.903506,36.8453655 70.903506,35.157425 Z" id="Stroke-72" stroke="#000000" stroke-width="2" stroke-linecap="round" mask="url(#mask-48)"></path>
                    </g>
                    <g id="Group-77">
                        <mask id="mask-50" fill="white">
                            <use xlink:href="#path-49"></use>
                        </mask>
                        <g id="Clip-76"></g>
                        <path d="M57.7438434,44.1893012 C57.7438434,44.1893012 57.7438434,42.6357536 59.2939639,42.6357536 C59.2939639,42.6357536 60.8440843,42.6357536 60.6138434,44.1554917" id="Stroke-75" stroke="#000000" stroke-width="2" stroke-linecap="round" mask="url(#mask-50)"></path>
                    </g>
                    <g id="Group-80">
                        <mask id="mask-52" fill="white">
                            <use xlink:href="#path-51"></use>
                        </mask>
                        <g id="Clip-79"></g>
                        <path d="M89.5203012,29.4310214 C89.5203012,29.4310214 99.7133133,36.6569619 93.5398193,59.5307952 C93.5398193,59.5307952 85.308494,83.7172833 88.1143976,102.466355 L94.8487349,104.528736" id="Stroke-78" stroke="#000000" stroke-width="2" stroke-linecap="round" mask="url(#mask-52)"></path>
                    </g>
                    <g id="Group-83">
                        <mask id="mask-54" fill="white">
                            <use xlink:href="#path-53"></use>
                        </mask>
                        <g id="Clip-82"></g>
                        <polyline id="Stroke-81" stroke="#000000" stroke-width="2" stroke-linecap="round" mask="url(#mask-54)" points="88.1143976 102.466524 87.3039157 105.91425 95.1531928 108.385726"></polyline>
                    </g>
                    <g id="Group-86">
                        <mask id="mask-56" fill="white">
                            <use xlink:href="#path-55"></use>
                        </mask>
                        <g id="Clip-85"></g>
                        <path d="M87.7528434,99.6208607 C87.7528434,99.6208607 80.2088675,106.326135 74.9706747,106.138492 C74.9706747,106.138492 77.8600723,89.9149917 81.5666988,77.5305631 C83.2509157,71.9055036 86.0568193,64.0312655 87.7401928,54.0938012 C87.7401928,54.0938012 92.6123614,30.0569202 78.1097108,26.701325" id="Stroke-84" stroke="#000000" stroke-width="2" stroke-linecap="round" mask="url(#mask-56)"></path>
                    </g>
                    <g id="Group-89">
                        <mask id="mask-58" fill="white">
                            <use xlink:href="#path-57"></use>
                        </mask>
                        <g id="Clip-88"></g>
                        <path d="M74.8321084,106.403812 L78.3337952,110.184562 C78.3337952,110.184562 86.3694578,107.601514 87.3039157,105.913574" id="Stroke-87" stroke="#000000" stroke-width="2" stroke-linecap="round" mask="url(#mask-58)"></path>
                    </g>
                    <g id="Group-92">
                        <mask id="mask-60" fill="white">
                            <use xlink:href="#path-59"></use>
                        </mask>
                        <g id="Clip-91"></g>
                        <path d="M77.4511205,75.2802012 C77.4511205,75.2802012 65.4937711,98.5614393 73.7090723,120.465785 C73.7090723,120.465785 53.6924458,128.15238 51.821,133.027713 C51.821,133.027713 52.3826867,105.278546 60.801241,93.4671893 C60.801241,93.4671893 81.1931687,67.7804036 84.1854578,53.7190226 C84.1854578,53.7190226 87.4366627,36.8413083 79.450759,29.9999512" id="Stroke-90" stroke="#000000" stroke-width="2" stroke-linecap="round" mask="url(#mask-60)"></path>
                    </g>
                    <g id="Group-95">
                        <mask id="mask-62" fill="white">
                            <use xlink:href="#path-61"></use>
                        </mask>
                        <g id="Clip-94"></g>
                        <path d="M51.6483614,134.68176 L56.357759,136.254748 C56.357759,136.254748 66.9766747,126.8557 78.3875181,124.792474 L73.7093253,120.4657" id="Stroke-93" stroke="#000000" stroke-width="2" stroke-linecap="round" mask="url(#mask-62)"></path>
                    </g>
                    <g id="Group-98">
                        <mask id="mask-64" fill="white">
                            <use xlink:href="#path-63"></use>
                        </mask>
                        <g id="Clip-97"></g>
                        <path d="M78.3340482,109.95939 C78.3340482,109.95939 78.3939277,118.590117 79.6800723,124.568486" id="Stroke-96" stroke="#000000" stroke-width="2" stroke-linecap="round" mask="url(#mask-64)"></path>
                    </g>
                    <g id="Group-101">
                        <mask id="mask-66" fill="white">
                            <use xlink:href="#path-65"></use>
                        </mask>
                        <g id="Clip-100"></g>
                        <path d="M118.829976,103.452071 C118.829976,103.452071 123.701301,123.09625 129.68841,133.782595 L121.615639,130.861452" id="Stroke-99" stroke="#000000" stroke-width="2" stroke-linecap="round" mask="url(#mask-66)"></path>
                    </g>
                    <g id="Group-104">
                        <mask id="mask-68" fill="white">
                            <use xlink:href="#path-67"></use>
                        </mask>
                        <g id="Clip-103"></g>
                        <path d="M119.356241,132.840239 C119.356241,132.840239 122.06347,136.255001 125.652024,138.952156 C125.652024,138.952156 128.198169,136.859346 130.136241,134.45718" id="Stroke-102" stroke="#000000" stroke-width="2" stroke-linecap="round" mask="url(#mask-68)"></path>
                    </g>
                    <g id="Group-107">
                        <mask id="mask-70" fill="white">
                            <use xlink:href="#path-69"></use>
                        </mask>
                        <g id="Clip-106"></g>
                        <path d="M52.3830241,86.1548655 C52.3830241,86.1548655 43.8674819,92.3842702 46.2997711,100.070865" id="Stroke-105" stroke="#000000" stroke-width="2" stroke-linecap="round" mask="url(#mask-70)"></path>
                    </g>
                    <g id="Group-110">
                        <mask id="mask-72" fill="white">
                            <use xlink:href="#path-71"></use>
                        </mask>
                        <g id="Clip-109"></g>
                        <path d="M49.5769518,67.5934369 C49.5769518,67.5934369 49.8451446,71.1476631 50.9271928,72.8389845 L47.838759,73.4906631 C47.838759,73.4906631 47.5191205,69.468175 49.5769518,67.5934369 Z" id="Stroke-108" stroke="#000000" stroke-width="2" stroke-linecap="round" mask="url(#mask-72)"></path>
                    </g>
                    <g id="Group-113">
                        <mask id="mask-74" fill="white">
                            <use xlink:href="#path-73"></use>
                        </mask>
                        <g id="Clip-112"></g>
                        <path d="M47.9207349,70.7214095 C47.9207349,70.7214095 45.1688072,71.3976 45.970012,74.1826595" id="Stroke-111" stroke="#000000" stroke-width="2" stroke-linecap="round" mask="url(#mask-74)"></path>
                    </g>
                    <g id="Group-116">
                        <mask id="mask-76" fill="white">
                            <use xlink:href="#path-75"></use>
                        </mask>
                        <g id="Clip-115"></g>
                        <path d="M53.2840843,62.6585988 C53.2840843,62.6585988 57.4343253,63.4683369 57.4343253,68.5304679 C57.4343253,68.5304679 57.8644458,70.7078012 55.966012,72.4320869" id="Stroke-114" stroke="#000000" stroke-width="2" stroke-linecap="round" mask="url(#mask-76)"></path>
                    </g>
                    <g id="Group-119">
                        <mask id="mask-78" fill="white">
                            <use xlink:href="#path-77"></use>
                        </mask>
                        <g id="Clip-118"></g>
                        <path d="M36.603506,46.2965643 C36.603506,46.2965643 38.8510964,45.2822786 39.3065181,50.7636476" id="Stroke-117" stroke="#000000" stroke-width="2" stroke-linecap="round" mask="url(#mask-78)"></path>
                    </g>
                    <g id="Group-122">
                        <mask id="mask-80" fill="white">
                            <use xlink:href="#path-79"></use>
                        </mask>
                        <g id="Clip-121"></g>
                        <path d="M42.9370723,68.7973095 C42.9370723,68.7973095 41.8339398,68.9350833 40.0071928,69.388131" id="Stroke-120" stroke="#000000" stroke-linecap="round" mask="url(#mask-80)"></path>
                    </g>
                    <g id="Group-125">
                        <mask id="mask-82" fill="white">
                            <use xlink:href="#path-81"></use>
                        </mask>
                        <g id="Clip-124"></g>
                        <path d="M37.2401687,70.1758083 C30.4273976,72.3548321 19.0671566,77.7457607 12.0435422,90.5071655" id="Stroke-123" stroke="#000000" stroke-linecap="round" stroke-dasharray="6.833,3.417" mask="url(#mask-82)"></path>
                    </g>
                    <g id="Group-128">
                        <mask id="mask-84" fill="white">
                            <use xlink:href="#path-83"></use>
                        </mask>
                        <g id="Clip-127"></g>
                        <path d="M11.3641205,91.7912512 C10.9213494,92.6643821 10.4988193,93.5696321 10.0973735,94.5086917" id="Stroke-126" stroke="#000000" stroke-linecap="round" mask="url(#mask-84)"></path>
                    </g>
                    <g id="Group-131">
                        <mask id="mask-86" fill="white">
                            <use xlink:href="#path-85"></use>
                        </mask>
                        <g id="Clip-130"></g>
                        <path d="M42.8810723,69.4968286 C42.8810723,69.4968286 41.809988,69.7960429 40.0709518,70.5153405" id="Stroke-129" stroke="#000000" stroke-linecap="round" mask="url(#mask-86)"></path>
                    </g>
                    <g id="Group-134">
                        <mask id="mask-88" fill="white">
                            <use xlink:href="#path-87"></use>
                        </mask>
                        <g id="Clip-133"></g>
                        <path d="M37.4494096,71.7036607 C31.0330241,74.8665417 20.5920602,81.8811726 15.526759,95.5410655" id="Stroke-132" stroke="#000000" stroke-linecap="round" stroke-dasharray="6.833,3.417" mask="url(#mask-88)"></path>
                    </g>
                    <g id="Group-137">
                        <mask id="mask-90" fill="white">
                            <use xlink:href="#path-89"></use>
                        </mask>
                        <g id="Clip-136"></g>
                        <path d="M15.044012,96.9122107 C14.734494,97.8411274 14.4494337,98.7987821 14.1913614,99.7868655" id="Stroke-135" stroke="#000000" stroke-linecap="round" mask="url(#mask-90)"></path>
                    </g>
                    <g id="Group-140">
                        <mask id="mask-92" fill="white">
                            <use xlink:href="#path-91"></use>
                        </mask>
                        <g id="Clip-139"></g>
                        <path d="M42.9510723,70.1419143 C42.9510723,70.1419143 41.9508313,70.6296167 40.3686627,71.649819" id="Stroke-138" stroke="#000000" stroke-linecap="round" mask="url(#mask-92)"></path>
                    </g>
                    <g id="Group-143">
                        <mask id="mask-94" fill="white">
                            <use xlink:href="#path-93"></use>
                        </mask>
                        <g id="Clip-142"></g>
                        <path d="M38.0028313,73.2909333 C32.2577711,77.5585405 23.2454819,86.3388738 20.711988,100.689326" id="Stroke-141" stroke="#000000" stroke-linecap="round" stroke-dasharray="6.833,3.417" mask="url(#mask-94)"></path>
                    </g>
                    <g id="Group-146">
                        <mask id="mask-96" fill="white">
                            <use xlink:href="#path-95"></use>
                        </mask>
                        <g id="Clip-145"></g>
                        <path d="M20.4830964,102.125217 C20.3447831,103.094705 20.235988,104.088705 20.1600843,105.107217" id="Stroke-144" stroke="#000000" stroke-linecap="round" mask="url(#mask-96)"></path>
                    </g>
                    <g id="Group-149">
                        <mask id="mask-98" fill="white">
                            <use xlink:href="#path-97"></use>
                        </mask>
                        <g id="Clip-148"></g>
                        <path d="M49.7763253,128.594608 C49.7763253,128.594608 54.508494,110.699227 46.3336747,100.565668 C46.3336747,100.565668 41.0769277,94.3776798 36.6525904,100.781204 C35.461747,102.505489 35.7923494,105.740215 39.235,108.758561 C39.235,108.758561 47.1939157,115.658239 49.7763253,128.594608 Z" id="Stroke-147" stroke="#000000" stroke-width="2" stroke-linecap="round" mask="url(#mask-98)"></path>
                    </g>
                    <g id="Group-152">
                        <mask id="mask-100" fill="white">
                            <use xlink:href="#path-99"></use>
                        </mask>
                        <g id="Clip-151"></g>
                        <path d="M38.1840723,98.7756226 C38.1840723,98.7756226 30.275759,91.6189917 25.8969639,98.1940988 C25.8969639,98.1940988 23.3153976,101.42798 28.4785301,106.171456 C28.4785301,106.171456 51.7126265,123.851301 49.1302169,162.228492 C49.1302169,162.228492 50.5774458,128.844123 51.3600964,121.604658" id="Stroke-150" stroke="#000000" stroke-width="2" stroke-linecap="round" mask="url(#mask-100)"></path>
                    </g>
                    <g id="Group-155">
                        <mask id="mask-102" fill="white">
                            <use xlink:href="#path-101"></use>
                        </mask>
                        <g id="Clip-154"></g>
                        <path d="M78.6750241,114.464087 C78.6750241,114.464087 87.0210482,115.861265 85.6362289,107.965896" id="Stroke-153" stroke="#000000" stroke-width="2" stroke-linecap="round" mask="url(#mask-102)"></path>
                    </g>
                    <g id="Group-158">
                        <mask id="mask-104" fill="white">
                            <use xlink:href="#path-103"></use>
                        </mask>
                        <g id="Clip-157"></g>
                        <path d="M85.6781446,111.756282 C85.6781446,111.756282 90.998988,116.975627 93.5291084,108.523246" id="Stroke-156" stroke="#000000" stroke-width="2" stroke-linecap="round" mask="url(#mask-104)"></path>
                    </g>
                    <g id="Group-161">
                        <mask id="mask-106" fill="white">
                            <use xlink:href="#path-105"></use>
                        </mask>
                        <g id="Clip-160"></g>
                        <path d="M79.4269759,119.329193 C84.7225181,119.146621 82.292759,114.804633 82.292759,114.804633" id="Stroke-159" stroke="#000000" stroke-width="2" stroke-linecap="round" mask="url(#mask-106)"></path>
                    </g>
                    <g id="Group-164">
                        <mask id="mask-108" fill="white">
                            <use xlink:href="#path-107"></use>
                        </mask>
                        <g id="Clip-163"></g>
                        <path d="M82.655494,117.745639 C82.655494,117.745639 90.2913976,123.28533 91.9098313,112.100294" id="Stroke-162" stroke="#000000" stroke-width="2" stroke-linecap="round" mask="url(#mask-108)"></path>
                    </g>
                    <g id="Group-167">
                        <mask id="mask-110" fill="white">
                            <use xlink:href="#path-109"></use>
                        </mask>
                        <g id="Clip-166"></g>
                        <path d="M90.9986506,116.130643 C90.9986506,116.130643 92.6853976,117.821119 95.2155181,116.975881" id="Stroke-165" stroke="#000000" stroke-width="2" stroke-linecap="round" mask="url(#mask-110)"></path>
                    </g>
                    <g id="Group-170">
                        <mask id="mask-112" fill="white">
                            <use xlink:href="#path-111"></use>
                        </mask>
                        <g id="Clip-169"></g>
                        <path d="M87.1013373,119.053899 C87.1013373,119.053899 88.5047108,126.416768 96.0773614,122.541351" id="Stroke-168" stroke="#000000" stroke-width="2" stroke-linecap="round" mask="url(#mask-112)"></path>
                    </g>
                    <g id="Group-173">
                        <mask id="mask-114" fill="white">
                            <use xlink:href="#path-113"></use>
                        </mask>
                        <g id="Clip-172"></g>
                        <path d="M90.7647831,123.459618 C90.7647831,123.459618 93.2679157,130.490308 98.4580361,125.84657" id="Stroke-171" stroke="#000000" stroke-width="2" stroke-linecap="round" mask="url(#mask-114)"></path>
                    </g>
                    <g id="Group-176">
                        <mask id="mask-116" fill="white">
                            <use xlink:href="#path-115"></use>
                        </mask>
                        <g id="Clip-175"></g>
                        <path d="M79.1914217,122.892548 C79.1914217,122.892548 83.0363614,126.253214 88.7038313,122.037167" id="Stroke-174" stroke="#000000" stroke-width="2" stroke-linecap="round" mask="url(#mask-116)"></path>
                    </g>
                    <g id="Group-179">
                        <mask id="mask-118" fill="white">
                            <use xlink:href="#path-117"></use>
                        </mask>
                        <g id="Clip-178"></g>
                        <path d="M84.1479277,124.010629 C84.1479277,124.010629 85.9384096,131.34476 78.3480482,133.035236 C78.3480482,133.035236 71.0419036,134.135736 70.4785301,127.2462" id="Stroke-177" stroke="#000000" stroke-width="2" stroke-linecap="round" mask="url(#mask-118)"></path>
                    </g>
                    <g id="Group-182">
                        <mask id="mask-120" fill="white">
                            <use xlink:href="#path-119"></use>
                        </mask>
                        <g id="Clip-181"></g>
                        <path d="M83.1554458,130.737879 C83.1554458,130.737879 90.7449639,136.533676 94.2449639,127.177736" id="Stroke-180" stroke="#000000" stroke-width="2" stroke-linecap="round" mask="url(#mask-120)"></path>
                    </g>
                    <g id="Group-185">
                        <mask id="mask-122" fill="white">
                            <use xlink:href="#path-121"></use>
                        </mask>
                        <g id="Clip-184"></g>
                        <path d="M58.6976145,134.964069 C58.6976145,134.964069 67.9738795,139.914629 71.4738795,130.558688" id="Stroke-183" stroke="#000000" stroke-width="2" stroke-linecap="round" mask="url(#mask-122)"></path>
                    </g>
                </g>
            </g>
        </g>
    </g>
</svg>