<svg xmlns="http://www.w3.org/2000/svg" width="74.383" height="74.694" viewBox="0 0 74.383 74.694">
  <g id="_6" data-name="6" transform="translate(-320.811 -264.743)">
    <path id="Path_77" data-name="Path 77" d="M385.1,339.437H359.317a10.093,10.093,0,0,1-10.093-10.093V298.85a8.227,8.227,0,0,1,1.86-5.21l11.4-13.939a8.229,8.229,0,0,1,6.37-3.019h6.708a8.228,8.228,0,0,1,6.369,3.019l11.4,13.939a8.227,8.227,0,0,1,1.86,5.21v30.494A10.093,10.093,0,0,1,385.1,339.437Z" fill="#235dab"/>
    <path id="Path_78" data-name="Path 78" d="M381,320.147c0,2.771-1.662,4.9-4.558,5.841a10.647,10.647,0,0,1-1.952.426V329.6a1.093,1.093,0,0,1-1.142,1.03h-1.917a1.093,1.093,0,0,1-1.142-1.03v-3.159a.845.845,0,0,1,.007-.113,11.325,11.325,0,0,1-6.42-2.88,1.684,1.684,0,0,1,.265-2.538,2.149,2.149,0,0,1,2.814.238,6.883,6.883,0,0,0,3.457,1.53,9.749,9.749,0,0,0,4.674-.083A2.36,2.36,0,0,0,377,320.147c0-2.35-1.572-3.106-5.431-4.386a19.383,19.383,0,0,1-5.072-2.232,6.531,6.531,0,0,1,.938-11.291,9.81,9.81,0,0,1,2.853-.8V298.26a1.093,1.093,0,0,1,1.142-1.03h1.917a1.093,1.093,0,0,1,1.142,1.03v3.159a.792.792,0,0,1-.006.1,13.982,13.982,0,0,1,5.265,1.772,1.693,1.693,0,0,1,.462,2.516,2.139,2.139,0,0,1-2.788.415c-1.616-1.044-5.848-1.847-8.16-.776a2.682,2.682,0,0,0-1.59,2.771c0,2.192,1.528,2.916,5.277,4.161a19.347,19.347,0,0,1,5.177,2.292A6.421,6.421,0,0,1,381,320.147Z" fill="#efecea"/>
    <path id="Path_79" data-name="Path 79" d="M342,323.645l-18.232-18.232a10.091,10.091,0,0,1,0-14.273l21.562-21.563a8.227,8.227,0,0,1,5-2.369l17.919-1.794a8.232,8.232,0,0,1,6.639,2.369l4.743,4.743A8.232,8.232,0,0,1,382,279.165L380.2,297.084a8.231,8.231,0,0,1-2.37,5l-21.562,21.562A10.091,10.091,0,0,1,342,323.645Z" fill="#0b8ece"/>
    <g id="Group_19" data-name="Group 19">
      <path id="Path_80" data-name="Path 80" d="M332.99,295.656a2.126,2.126,0,0,1,1.508-.625H366a2.133,2.133,0,1,1,0,4.267H334.5a2.133,2.133,0,0,1-1.508-3.642Z" fill="#efecea"/>
      <circle id="Ellipse_2" data-name="Ellipse 2" cx="3.487" cy="3.487" r="3.487" transform="translate(346.966 304.774)" fill="#efecea"/>
      <circle id="Ellipse_3" data-name="Ellipse 3" cx="3.487" cy="3.487" r="3.487" transform="translate(346.761 282.375)" fill="#efecea"/>
    </g>
    <circle id="Ellipse_4" data-name="Ellipse 4" cx="4.092" cy="4.092" r="4.092" transform="translate(367.02 272.043)" fill="#283a89"/>
    <path id="Path_81" data-name="Path 81" d="M382.194,265.509l-.29-.29a1.621,1.621,0,0,0-2.294,0l-9,9.005h0l-.968.968a1.621,1.621,0,0,0,0,2.294l.29.29a1.623,1.623,0,0,0,2.294,0l.968-.968,9.005-9.005A1.623,1.623,0,0,0,382.194,265.509Z" fill="#235dab"/>
  </g>
</svg>
