<svg xmlns="http://www.w3.org/2000/svg" width="77.633" height="73.463" viewBox="0 0 77.633 73.463">
  <g id="_14" data-name="14" transform="translate(-334.313 -689.927)">
    <rect id="Rectangle_13" data-name="Rectangle 13" width="55.743" height="73.463" rx="1.97" transform="translate(334.313 689.927)" fill="#6cc24a"/>
    <rect id="Rectangle_14" data-name="Rectangle 14" width="42.268" height="1.83" rx="0.915" transform="translate(342.335 698.773)" fill="#efecea"/>
    <rect id="Rectangle_15" data-name="Rectangle 15" width="33.857" height="1.83" rx="0.819" transform="translate(350.746 707.98)" fill="#efecea"/>
    <rect id="Rectangle_16" data-name="Rectangle 16" width="33.857" height="1.83" rx="0.819" transform="translate(350.746 720.932)" fill="#efecea"/>
    <rect id="Rectangle_17" data-name="Rectangle 17" width="33.857" height="1.83" rx="0.819" transform="translate(350.746 733.884)" fill="#efecea"/>
    <rect id="Rectangle_18" data-name="Rectangle 18" width="4.954" height="4.954" rx="0.495" transform="translate(342.335 707.014)" fill="#007367"/>
    <rect id="Rectangle_19" data-name="Rectangle 19" width="4.954" height="4.954" rx="0.495" transform="translate(342.335 719.779)" fill="#007367"/>
    <rect id="Rectangle_20" data-name="Rectangle 20" width="4.954" height="4.954" rx="0.495" transform="translate(342.335 732.544)" fill="#007367"/>
    <rect id="Rectangle_21" data-name="Rectangle 21" width="23.626" height="1.83" rx="0.684" transform="translate(350.746 746.836)" fill="#efecea"/>
    <rect id="Rectangle_22" data-name="Rectangle 22" width="4.954" height="4.954" rx="0.495" transform="translate(342.335 745.309)" fill="#007367"/>
    <path id="Path_126" data-name="Path 126" d="M405.258,723.87l2.563-2.563,3.58,3.579a1.848,1.848,0,0,1,.544,1.3h0a1.878,1.878,0,0,1-.545,1.312l-10.786,10.775a1.8,1.8,0,0,1-1.313.545,1.82,1.82,0,0,1-1.312-.545,1.868,1.868,0,0,1,0-2.626l9.444-9.432-2.081-2.08" fill="#a4cd39"/>
    <path id="Path_127" data-name="Path 127" d="M402.085,715.218l-25.9,25.939,6.081,6.081,26.606-26.622Z" fill="#a4cd39"/>
    <path id="Path_128" data-name="Path 128" d="M409.46,720.029a2.478,2.478,0,0,0,0-3.493l-2.6-2.6a2.477,2.477,0,0,0-3.492,0l-1.474,1.473,6.1,6.069Z" fill="#efecea"/>
    <path id="Path_129" data-name="Path 129" d="M405.348,724.138l-2.242,2.293-20.843,20.806-7.319,1.238,1.238-7.319.533-.532,4.062,4.049a1.742,1.742,0,0,0,1.313.545,1.772,1.772,0,0,0,1.312-.545,1.867,1.867,0,0,0,0-2.625l-4.062-4.062,13.078-13.115,6.8-6.8,5.957,5.882" fill="#007367"/>
  </g>
</svg>
