<svg xmlns="http://www.w3.org/2000/svg" width="81.467" height="81.844" viewBox="0 0 81.467 81.844">
  <g id="_12" data-name="12" transform="translate(-876.38 -474.724)">
    <path id="Rectangle_32" data-name="Rectangle 32" d="M0,0H19.37a0,0,0,0,1,0,0V24.854a9.685,9.685,0,0,1-9.685,9.685h0A9.685,9.685,0,0,1,0,24.854V0A0,0,0,0,1,0,0Z" transform="translate(899.642 517.991) rotate(42.337)" fill="#6cc24a"/>
    <rect id="Rectangle_33" data-name="Rectangle 33" width="29.774" height="9.744" rx="4.872" transform="matrix(0.739, 0.673, -0.673, 0.739, 902.358, 507.285)" fill="#e6e7e8"/>
    <path id="Path_135" data-name="Path 135" d="M916.626,520.284l-6.526-5.946,25.357-27.832a23.312,23.312,0,0,0,2.716-3.638h0a18.161,18.161,0,0,1,3.413-4.122l3.968-3.561a1.743,1.743,0,0,1,2.338-.022l4.231,3.855a1.743,1.743,0,0,1,.2,2.33l-3.177,4.281a18.171,18.171,0,0,1-3.787,3.781h0a23.271,23.271,0,0,0-3.371,3.042Z" fill="#e6e7e8"/>
    <path id="Path_136" data-name="Path 136" d="M943.028,521.788a14.923,14.923,0,0,0-4.225.589l-31.652-28.843a15.22,15.22,0,0,0,0-6.075,14.737,14.737,0,0,0-15.376-11.827l-.126.008a1.211,1.211,0,0,0-.724,2.106l2.859,2.6a3.428,3.428,0,0,1,.225,4.843l-5.857,6.426a3.429,3.429,0,0,1-4.843.224l-3.566-3.252a1.215,1.215,0,0,0-2.029.81,14.9,14.9,0,0,0,18.78,15.465l31.834,29a14.749,14.749,0,0,0-.254,3.384,14.89,14.89,0,1,0,14.95-15.466Zm.225,21.207a6.324,6.324,0,1,1,6.021-6.613A6.323,6.323,0,0,1,943.253,542.995Z" fill="#6cc24a"/>
    <rect id="Rectangle_34" data-name="Rectangle 34" width="35.838" height="4.312" rx="2.156" transform="matrix(0.739, 0.673, -0.673, 0.739, 905.142, 499.728)" fill="#02534c"/>
  </g>
</svg>
