<svg xmlns="http://www.w3.org/2000/svg" width="88.17" height="55.954" viewBox="0 0 88.17 55.954">
  <g id="_8" data-name="8" transform="translate(-874.857 -280.485)">
    <path id="Path_116" data-name="Path 116" d="M934.785,284.135H945a7.884,7.884,0,0,1,6.654,3.994L962.207,305.4a5.745,5.745,0,0,1,.82,2.988v10.329c0,2.849-1.986,5.16-4.437,5.16H934.785Z" fill="#ed8b00"/>
    <path id="Rectangle_9" data-name="Rectangle 9" d="M1.547,0H59.928a0,0,0,0,1,0,0V3.268a0,0,0,0,1,0,0H1.547A1.547,1.547,0,0,1,0,1.721V1.547A1.547,1.547,0,0,1,1.547,0Z" transform="translate(874.857 320.61)" fill="#ed8b00"/>
    <circle id="Ellipse_5" data-name="Ellipse 5" cx="7.842" cy="7.842" r="7.842" transform="translate(885.266 320.61)" fill="#d14124"/>
    <circle id="Ellipse_6" data-name="Ellipse 6" cx="7.842" cy="7.842" r="7.842" transform="translate(937.282 320.756)" fill="#d14124"/>
    <circle id="Ellipse_7" data-name="Ellipse 7" cx="3.921" cy="3.921" r="3.921" transform="translate(889.187 324.531)" fill="#efecea"/>
    <circle id="Ellipse_8" data-name="Ellipse 8" cx="3.921" cy="3.921" r="3.921" transform="translate(941.203 324.677)" fill="#efecea"/>
    <path id="Rectangle_10" data-name="Rectangle 10" d="M5.236,0H52.613a5.236,5.236,0,0,1,5.236,5.236V40.125a0,0,0,0,1,0,0H0a0,0,0,0,1,0,0V5.236A5.236,5.236,0,0,1,5.236,0Z" transform="translate(876.936 280.485)" fill="#d14124"/>
    <path id="Path_117" data-name="Path 117" d="M950.255,300.045H939.723a2.619,2.619,0,0,1-2.582-2.655v-7.515a2.619,2.619,0,0,1,2.582-2.654h6.837a2.561,2.561,0,0,1,2.113,1.128l3.7,7.515A2.659,2.659,0,0,1,950.255,300.045Z" fill="#efecea"/>
  </g>
</svg>
