<svg xmlns="http://www.w3.org/2000/svg" width="50.214" height="75.663" viewBox="0 0 50.214 75.663">
  <g id="_10" data-name="10" transform="translate(-338.082 -483.614)">
    <rect id="Rectangle_11" data-name="Rectangle 11" width="50.214" height="75.663" rx="5.451" transform="translate(338.082 483.614)" fill="#c53166"/>
    <rect id="Rectangle_12" data-name="Rectangle 12" width="37.66" height="12.353" rx="1.363" transform="translate(344.359 491.334)" fill="#efecea"/>
    <path id="Path_118" data-name="Path 118" d="M351.891,528.913H346.87a2.607,2.607,0,0,0-2.511,2.688v5.375a2.607,2.607,0,0,0,2.511,2.687h5.021a2.607,2.607,0,0,0,2.511-2.687V531.6A2.607,2.607,0,0,0,351.891,528.913Z" fill="#910048"/>
    <path id="Path_119" data-name="Path 119" d="M351.891,542.351H346.87a2.607,2.607,0,0,0-2.511,2.687v5.375a2.607,2.607,0,0,0,2.511,2.687h5.021a2.607,2.607,0,0,0,2.511-2.687v-5.375A2.607,2.607,0,0,0,351.891,542.351Z" fill="#910048"/>
    <path id="Path_120" data-name="Path 120" d="M365.7,515.476h-5.021a2.607,2.607,0,0,0-2.511,2.688v5.375a2.607,2.607,0,0,0,2.511,2.687H365.7a2.607,2.607,0,0,0,2.511-2.687v-5.375A2.607,2.607,0,0,0,365.7,515.476Z" fill="#910048"/>
    <path id="Path_121" data-name="Path 121" d="M365.7,528.913h-5.021a2.607,2.607,0,0,0-2.511,2.688v5.375a2.607,2.607,0,0,0,2.511,2.687H365.7a2.607,2.607,0,0,0,2.511-2.687V531.6A2.607,2.607,0,0,0,365.7,528.913Z" fill="#910048"/>
    <path id="Path_122" data-name="Path 122" d="M365.7,542.351h-5.021a2.607,2.607,0,0,0-2.511,2.687v5.375a2.607,2.607,0,0,0,2.511,2.687H365.7a2.607,2.607,0,0,0,2.511-2.687v-5.375A2.607,2.607,0,0,0,365.7,542.351Z" fill="#910048"/>
    <path id="Path_123" data-name="Path 123" d="M379.509,515.476h-5.022a2.607,2.607,0,0,0-2.51,2.688v5.375a2.606,2.606,0,0,0,2.51,2.687h5.022a2.606,2.606,0,0,0,2.51-2.687v-5.375A2.607,2.607,0,0,0,379.509,515.476Z" fill="#910048"/>
    <path id="Path_124" data-name="Path 124" d="M379.509,528.913h-5.022a2.607,2.607,0,0,0-2.51,2.688v18.812a2.606,2.606,0,0,0,2.51,2.687h5.022a2.606,2.606,0,0,0,2.51-2.687V531.6A2.607,2.607,0,0,0,379.509,528.913Z" fill="#efecea"/>
    <path id="Path_125" data-name="Path 125" d="M351.891,515.476H346.87a2.607,2.607,0,0,0-2.511,2.688v5.375a2.607,2.607,0,0,0,2.511,2.687h5.021a2.607,2.607,0,0,0,2.511-2.687v-5.375A2.607,2.607,0,0,0,351.891,515.476Z" fill="#910048"/>
  </g>
</svg>
