<svg xmlns="http://www.w3.org/2000/svg" width="101.41" height="65.283" viewBox="0 0 101.41 65.283">
  <g id="category_51000018710" transform="translate(-108.618 -275.869)">
    <path id="Path_1209" data-name="Path 1209" d="M5125.637,294.657a.365.365,0,1,1,.016-.729h.076l.649.027h.021a.366.366,0,1,1-.048.73h-.017l-.621-.028Z" transform="translate(-4960)" fill="#573d83" fill-rule="evenodd"/>
    <path id="Path_1210" data-name="Path 1210" d="M5121.356,295.025a.366.366,0,0,1-.135-.719l.076-.016.621-.108.033-.006a.366.366,0,0,1,.108.725l-.027.005-.6.108-.075.016Z" transform="translate(-4960)" fill="#573d83" fill-rule="evenodd"/>
    <path id="Path_1211" data-name="Path 1211" d="M5117.248,296.29a.367.367,0,0,1-.286-.676l.021-.011.568-.243.086-.032a.364.364,0,1,1,.26.681l-.081.032-.341.13-.227.1-.021.011Z" transform="translate(-4960)" fill="#573d83" fill-rule="evenodd"/>
    <path id="Path_1212" data-name="Path 1212" d="M5113.5,298.4a.364.364,0,1,1-.421-.6l.1-.07.411-.281.1-.065a.367.367,0,0,1,.406.611l-.195.13-.389.281Z" transform="translate(-4960)" fill="#573d83" fill-rule="evenodd"/>
    <path id="Path_1213" data-name="Path 1213" d="M5110.287,301.252a.368.368,0,0,1-.541-.5l.054-.059.432-.459.027-.027a.367.367,0,0,1,.525.513l-.108.108-.244.26-.081.091-.054.06Z" transform="translate(-4960)" fill="#573d83" fill-rule="evenodd"/>
    <path id="Path_1214" data-name="Path 1214" d="M5106.5,304.364l-.016,36.787,31.728-11.518V275.884l.011-.015-31.728,11.518v16.988c0-.005,0-.005,0-.011" transform="translate(-4960)" fill="#911a4b" fill-rule="evenodd"/>
    <path id="Path_1215" data-name="Path 1215" d="M5107.916,304.121" transform="translate(-4960)" fill="#25215a" fill-rule="evenodd"/>
    <path id="Path_1216" data-name="Path 1216" d="M5106.059,308.678a.366.366,0,1,1-.7-.222l.038-.113.173-.5.032-.087a.364.364,0,0,1,.687.243l-.027.081-.087.249-.075.249-.038.113Z" transform="translate(-4960)" fill="#573d83" fill-rule="evenodd"/>
    <path id="Path_1217" data-name="Path 1217" d="M5104.1,313.029a.37.37,0,0,1-.184-.486l.038-.081.054-.114.146-.34.048-.119a.365.365,0,0,1,.676.275v.006l-.1.238-.163.356-.037.081a.371.371,0,0,1-.487.184Z" transform="translate(-4960)" fill="#573d83" fill-rule="evenodd"/>
    <path id="Path_1218" data-name="Path 1218" d="M5101.811,316.759a.37.37,0,0,1-.076-.514l.011-.011.351-.486.06-.087a.365.365,0,0,1,.6.417l-.06.086-.281.411-.076.1-.01.011a.37.37,0,0,1-.514.076Z" transform="translate(-4960)" fill="#573d83" fill-rule="evenodd"/>
    <path id="Path_1219" data-name="Path 1219" d="M5098.778,319.915a.362.362,0,0,1,.038-.513l.071-.06.346-.3.086-.082.032-.027a.368.368,0,0,1,.5.536l-.032.032-.087.081-.367.324-.071.06a.356.356,0,0,1-.513-.038Z" transform="translate(-4960)" fill="#573d83" fill-rule="evenodd"/>
    <path id="Path_1220" data-name="Path 1220" d="M5095.108,322.3a.368.368,0,0,1,.157-.492l.016-.011.514-.27.1-.054.006,0a.364.364,0,1,1,.362.632l-.011.005-.411.238-.205.108-.016.011a.366.366,0,0,1-.492-.157Z" transform="translate(-4960)" fill="#573d83" fill-rule="evenodd"/>
    <path id="Path_1221" data-name="Path 1221" d="M5091.314,323.3l.227-.054.341-.1.07-.022a.366.366,0,0,1,.205.7l-.3.086-.238.065-.119.027-.065.017a.366.366,0,0,1-.178-.709l.064-.016Z" transform="translate(-4960)" fill="#573d83" fill-rule="evenodd"/>
    <path id="Path_1222" data-name="Path 1222" d="M5087.125,323.85h.119l.357-.016.108-.005a.365.365,0,1,1,.038.729l-.114.006-.373.016H5087a.365.365,0,1,1-.006-.73Z" transform="translate(-4960)" fill="#573d83" fill-rule="evenodd"/>
    <path id="Path_1223" data-name="Path 1223" d="M5106.432,287.4,5074.7,275.879v53.753l31.729,11.518Z" transform="translate(-4960)" fill="#c53266" fill-rule="evenodd"/>
    <path id="Path_1224" data-name="Path 1224" d="M5090.638,296.294a11.939,11.939,0,0,0-16.031-4.059.33.33,0,0,1-.173.1,11.98,11.98,0,0,0-5.816,10.253c0,2.638,2.854,7.238,6,11.73l.033.048c1.124,1.606,2.291,3.2,3.373,4.676l2.54,3.524.222-.281,4.972-6.665c.676-.956,1.33-1.908,1.935-2.832,1.746-2.649,4.7-7.427,4.735-10.2a11.848,11.848,0,0,0-1.794-6.292Z" transform="translate(-4960)" fill="#550831" fill-rule="evenodd"/>
    <path id="Path_1225" data-name="Path 1225" d="M5087.319,302.753a6.638,6.638,0,0,1-1.945,4.762,6.794,6.794,0,0,1-10.5-8.535l.843-1.032a6.805,6.805,0,0,1,11.6,4.8Z" transform="translate(-4960)" fill="#efecea" fill-rule="evenodd"/>
    <path id="Path_1226" data-name="Path 1226" d="M5170.028,287.4l-31.739-11.524v53.749l31.739,11.524Z" transform="translate(-4960)" fill="#c53266" fill-rule="evenodd"/>
    <path id="Path_1227" data-name="Path 1227" d="M5129.361,296a.365.365,0,0,1,.017-.73h.075l.649.027h.021a.366.366,0,0,1-.048.73h-.016l-.622-.027Z" transform="translate(-4960)" fill="#efecea" fill-rule="evenodd"/>
    <path id="Path_1228" data-name="Path 1228" d="M5125.08,296.371a.365.365,0,1,1-.135-.718l.076-.017.622-.108.032-.005a.366.366,0,0,1,.108.724l-.027.006-.595.108-.075.016Z" transform="translate(-4960)" fill="#efecea" fill-rule="evenodd"/>
    <path id="Path_1229" data-name="Path 1229" d="M5120.972,297.636a.367.367,0,1,1-.286-.675l.022-.011.567-.243.087-.033a.364.364,0,1,1,.259.681l-.081.033-.341.129-.227.1-.021.01Z" transform="translate(-4960)" fill="#efecea" fill-rule="evenodd"/>
    <path id="Path_1230" data-name="Path 1230" d="M5117.221,299.744a.364.364,0,1,1-.421-.594l.1-.071.411-.281.1-.065a.367.367,0,1,1,.406.611l-.195.13-.389.281Z" transform="translate(-4960)" fill="#efecea" fill-rule="evenodd"/>
    <path id="Path_1231" data-name="Path 1231" d="M5114.011,302.6a.367.367,0,1,1-.541-.5l.054-.06.433-.459.027-.027a.367.367,0,1,1,.524.513l-.108.108-.243.26-.081.092-.055.059Z" transform="translate(-4960)" fill="#efecea" fill-rule="evenodd"/>
    <path id="Path_1232" data-name="Path 1232" d="M5109.783,310.024a.366.366,0,0,1-.7-.221l.038-.114.173-.5.032-.086a.364.364,0,0,1,.687.243l-.027.081-.087.249-.075.248-.038.114Z" transform="translate(-4960)" fill="#efecea" fill-rule="evenodd"/>
    <path id="Path_1233" data-name="Path 1233" d="M5111.4,306.184a.366.366,0,1,1-.646-.344l.058-.105.259-.458.048-.079a.364.364,0,1,1,.631.363l-.041.075-.13.229-.119.231-.058.1Z" transform="translate(-4960)" fill="#efecea" fill-rule="evenodd"/>
    <path id="Path_1234" data-name="Path 1234" d="M5107.827,314.376a.371.371,0,0,1-.184-.487l.038-.081.054-.113.146-.341.048-.119a.365.365,0,0,1,.676.276v.005l-.1.238-.162.357-.038.081a.371.371,0,0,1-.487.184Z" transform="translate(-4960)" fill="#efecea" fill-rule="evenodd"/>
    <path id="Path_1235" data-name="Path 1235" d="M5105.535,318.105a.368.368,0,0,1-.076-.513l.011-.011.351-.487.06-.086a.365.365,0,1,1,.6.416l-.06.086-.281.411-.075.1-.011.01a.369.369,0,0,1-.514.076Z" transform="translate(-4960)" fill="#efecea" fill-rule="evenodd"/>
    <path id="Path_1236" data-name="Path 1236" d="M5102.5,321.262a.362.362,0,0,1,.037-.514l.071-.059.346-.3.086-.081.033-.027a.367.367,0,1,1,.5.535l-.032.032-.087.081-.367.325-.07.059a.358.358,0,0,1-.514-.038Z" transform="translate(-4960)" fill="#efecea" fill-rule="evenodd"/>
    <path id="Path_1237" data-name="Path 1237" d="M5098.833,323.645a.367.367,0,0,1,.156-.492l.017-.01.513-.271.1-.054.006-.005a.364.364,0,1,1,.362.632l-.011.006-.411.238-.205.108-.016.01a.366.366,0,0,1-.492-.156Z" transform="translate(-4960)" fill="#efecea" fill-rule="evenodd"/>
    <path id="Path_1238" data-name="Path 1238" d="M5095.038,324.651l.227-.054.341-.1.07-.021a.366.366,0,1,1,.205.7l-.3.087-.238.065-.119.027-.065.016a.365.365,0,1,1-.178-.708l.065-.016Z" transform="translate(-4960)" fill="#efecea" fill-rule="evenodd"/>
    <path id="Path_1239" data-name="Path 1239" d="M5090.849,325.2h.119l.357-.017.108-.005a.366.366,0,0,1,.038.73l-.114.005-.373.016h-.259a.365.365,0,1,1,0-.729Z" transform="translate(-4960)" fill="#efecea" fill-rule="evenodd"/>
  </g>
</svg>
