<svg xmlns="http://www.w3.org/2000/svg" width="79.685" height="67.703" viewBox="0 0 79.685 67.703">
  <g id="_3" data-name="3" transform="translate(-596.846 -42.561)">
    <path id="Path_53" data-name="Path 53" d="M600.78,72.723h70.983s-6.761,32.219-7.624,34.52-1.582,3.021-4.746,3.021H613.078c-1.582,0-4.315-.144-5.322-4.315S600.78,72.723,600.78,72.723Z" fill="#ed8b00"/>
    <rect id="Rectangle_1" data-name="Rectangle 1" width="79.685" height="8.683" rx="2.59" transform="translate(596.846 64.956)" fill="#d14124"/>
    <circle id="Ellipse_1" data-name="Ellipse 1" cx="5.152" cy="5.152" r="5.152" transform="translate(631.179 60.122)" fill="#efecea"/>
    <path id="Path_54" data-name="Path 54" d="M629.194,102.773h0a2.815,2.815,0,0,1-2.931-2.674l-1.194-16.452a3.4,3.4,0,0,1,3.105-3.145h0a3.412,3.412,0,0,1,3.362,2.889l.331,16.452A2.812,2.812,0,0,1,629.194,102.773Z" fill="#efecea"/>
    <path id="Path_55" data-name="Path 55" d="M643.278,102.773h0a2.814,2.814,0,0,0,2.93-2.674L647.4,83.647a3.394,3.394,0,0,0-3.1-3.145h0a3.412,3.412,0,0,0-3.362,2.889L640.6,99.843A2.813,2.813,0,0,0,643.278,102.773Z" fill="#efecea"/>
    <path id="Path_56" data-name="Path 56" d="M657.05,102.611h0a2.812,2.812,0,0,0,3.251-2.271l3.317-16.158a3.4,3.4,0,0,0-2.671-3.522h0a3.413,3.413,0,0,0-3.708,2.43l-2.461,16.27A2.813,2.813,0,0,0,657.05,102.611Z" fill="#efecea"/>
    <path id="Path_57" data-name="Path 57" d="M615.651,102.611h0a2.812,2.812,0,0,1-3.252-2.271l-3.317-16.158a3.4,3.4,0,0,1,2.672-3.522h0a3.412,3.412,0,0,1,3.707,2.43l2.461,16.27A2.812,2.812,0,0,1,615.651,102.611Z" fill="#efecea"/>
    <rect id="Rectangle_2" data-name="Rectangle 2" width="32.182" height="8.376" rx="4.188" transform="translate(630.56 65.318) rotate(-45)" fill="#ed8b00"/>
  </g>
</svg>
