<svg xmlns="http://www.w3.org/2000/svg" width="81.467" height="81.844" viewBox="0 0 81.467 81.844">
  <g id="category_51000018305" transform="translate(-119.285 -927.454)">
    <path id="Rectangle_500" data-name="Rectangle 500" d="M0,0H19.37a0,0,0,0,1,0,0V24.854a9.685,9.685,0,0,1-9.685,9.685h0A9.685,9.685,0,0,1,0,24.854V0A0,0,0,0,1,0,0Z" transform="translate(142.546 970.722) rotate(42.337)" fill="#70bf4a"/>
    <rect id="Rectangle_501" data-name="Rectangle 501" width="29.774" height="9.744" rx="4.872" transform="matrix(0.739, 0.673, -0.673, 0.739, 145.263, 960.016)" fill="#e6e7e8"/>
    <path id="Path_1366" data-name="Path 1366" d="M5119.531,973.014,5113,967.069l25.358-27.832a23.291,23.291,0,0,0,2.716-3.639h0a18.159,18.159,0,0,1,3.413-4.121l3.968-3.561a1.743,1.743,0,0,1,2.338-.023l4.231,3.856a1.742,1.742,0,0,1,.2,2.329l-3.177,4.282a18.153,18.153,0,0,1-3.787,3.78h0a23.29,23.29,0,0,0-3.371,3.043Z" transform="translate(-4960)" fill="#e6e7e8"/>
    <path id="Path_1367" data-name="Path 1367" d="M5145.933,974.518a14.888,14.888,0,0,0-4.225.59l-31.652-28.843a15.221,15.221,0,0,0,0-6.075,14.738,14.738,0,0,0-15.376-11.827l-.126.007a1.212,1.212,0,0,0-.724,2.106l2.859,2.6a3.429,3.429,0,0,1,.225,4.843l-5.858,6.426a3.428,3.428,0,0,1-4.842.224l-3.566-3.252a1.215,1.215,0,0,0-2.029.81,14.9,14.9,0,0,0,15.54,15.974,15.157,15.157,0,0,0,3.24-.509l31.834,29a14.761,14.761,0,0,0-.254,3.385,14.89,14.89,0,1,0,14.95-15.467Zm.225,21.208a6.324,6.324,0,1,1,6.021-6.614A6.324,6.324,0,0,1,5146.158,995.726Z" transform="translate(-4960)" fill="#70bf4a"/>
    <rect id="Rectangle_502" data-name="Rectangle 502" width="35.838" height="4.312" rx="2.156" transform="matrix(0.739, 0.673, -0.673, 0.739, 148.046, 952.459)" fill="#02534c"/>
  </g>
</svg>
