<?xml version="1.0" standalone="no"?>
<!DOCTYPE svg PUBLIC "-//W3C//DTD SVG 20010904//EN"
 "http://www.w3.org/TR/2001/REC-SVG-20010904/DTD/svg10.dtd">
<svg version="1.0" xmlns="http://www.w3.org/2000/svg"
 width="292.000000pt" height="256.000000pt" viewBox="0 0 292.000000 256.000000"
 preserveAspectRatio="xMidYMid meet">
<metadata>
Created by potrace 1.16, written by Peter Selinger 2001-2019
</metadata>
<g transform="translate(0.000000,256.000000) scale(0.100000,-0.100000)"
fill="#000000" stroke="none">
<path d="M400 1224 c-113 -52 -180 -148 -188 -270 -5 -86 13 -133 111 -282
118 -180 210 -298 230 -294 11 2 16 10 13 17 -3 8 17 42 43 77 82 107 180 259
214 327 63 130 35 278 -70 370 -94 83 -243 106 -353 55z m219 -134 c143 -72
142 -268 -2 -342 -55 -27 -140 -22 -191 13 -42 28 -86 108 -86 154 0 145 152
240 279 175z"/>
</g>
</svg>
