<svg xmlns="http://www.w3.org/2000/svg" width="72.496" height="69.179" viewBox="0 0 72.496 69.179">
  <g id="_2" data-name="2" transform="translate(-320.104 -44.098)">
    <path id="Path_32" data-name="Path 32" d="M392.4,90.981l-2.865-7.588-.513-1.358.008,0L375.492,46.195a3.3,3.3,0,0,0-4.206-1.9L322.233,62.254a3.214,3.214,0,0,0-1.925,4.14l7.747,20.513-.009,0,6.049,16.015,3.117,8.255a3.3,3.3,0,0,0,4.206,1.9L390.47,95.121A3.215,3.215,0,0,0,392.4,90.981Z" fill="#6cc24a"/>
    <g id="Group_1" data-name="Group 1">
      <path id="Path_33" data-name="Path 33" d="M366.083,104.149a.031.031,0,0,1-.04-.013l-.071-.188c0-.013.005-.028.022-.034a.03.03,0,0,1,.04.012l.07.188A.029.029,0,0,1,366.083,104.149Zm-.142-.376a.031.031,0,0,1-.04-.012l-.071-.188a.029.029,0,0,1,.022-.035.031.031,0,0,1,.04.012l.071.188A.03.03,0,0,1,365.941,103.773Zm-.142-.376a.031.031,0,0,1-.04-.012l-.07-.188a.029.029,0,0,1,.021-.035.031.031,0,0,1,.04.012l.071.188A.03.03,0,0,1,365.8,103.4Zm-.142-.376a.029.029,0,0,1-.039-.012l-.071-.188a.029.029,0,0,1,.021-.035.031.031,0,0,1,.04.012l.071.188A.029.029,0,0,1,365.657,103.021Zm-.142-.376a.029.029,0,0,1-.039-.012l-.071-.188a.033.033,0,0,1,.061-.022l.071.188C365.542,102.624,365.532,102.639,365.515,102.645Zm-.142-.376a.029.029,0,0,1-.039-.012l-.071-.188c-.005-.013.005-.028.022-.035a.03.03,0,0,1,.039.013l.071.188C365.4,102.248,365.39,102.263,365.373,102.269Zm-.141-.375a.031.031,0,0,1-.04-.013l-.071-.188c-.005-.013.005-.028.022-.034a.028.028,0,0,1,.039.012l.071.188C365.258,101.872,365.249,101.887,365.232,101.894Zm-.142-.376a.031.031,0,0,1-.04-.013l-.071-.188c-.005-.013.005-.028.022-.034a.031.031,0,0,1,.04.012l.071.188A.03.03,0,0,1,365.09,101.518Zm-.142-.376a.031.031,0,0,1-.04-.012l-.071-.188a.034.034,0,0,1,.062-.023l.071.188A.029.029,0,0,1,364.948,101.142Zm-.142-.376c-.017.006-.035,0-.039-.012l-.071-.188a.029.029,0,0,1,.021-.035.031.031,0,0,1,.04.012l.071.188A.029.029,0,0,1,364.806,100.766Zm-.142-.376a.029.029,0,0,1-.039-.012l-.071-.188a.034.034,0,0,1,.061-.023l.071.188A.029.029,0,0,1,364.664,100.39Zm-.142-.376a.029.029,0,0,1-.039-.012l-.071-.188a.033.033,0,0,1,.061-.022l.071.188C364.549,99.993,364.539,100.008,364.522,100.014Zm-.141-.376a.03.03,0,0,1-.04-.012l-.071-.188c0-.013.005-.028.022-.035a.029.029,0,0,1,.039.013l.071.188A.028.028,0,0,1,364.381,99.638Zm-.142-.375a.031.031,0,0,1-.04-.013l-.071-.188c-.005-.013.005-.028.022-.034a.03.03,0,0,1,.04.012l.071.188A.031.031,0,0,1,364.239,99.263Zm-.142-.376a.031.031,0,0,1-.04-.013l-.071-.188a.029.029,0,0,1,.022-.034.031.031,0,0,1,.04.012l.071.188A.029.029,0,0,1,364.1,98.887Zm-.142-.376c-.017.006-.035,0-.039-.012l-.071-.188a.029.029,0,0,1,.021-.035.031.031,0,0,1,.04.012l.071.188A.029.029,0,0,1,363.955,98.511Zm-.142-.376a.029.029,0,0,1-.039-.012l-.071-.188a.029.029,0,0,1,.022-.035.03.03,0,0,1,.039.012l.071.188A.029.029,0,0,1,363.813,98.135Zm-.142-.376a.029.029,0,0,1-.039-.012l-.071-.188a.034.034,0,0,1,.061-.023l.071.188A.029.029,0,0,1,363.671,97.759Zm-.141-.376a.03.03,0,0,1-.04-.012l-.071-.188a.033.033,0,0,1,.061-.022l.071.188A.029.029,0,0,1,363.53,97.383Zm-.142-.376a.03.03,0,0,1-.04-.012l-.071-.188c-.005-.013.005-.028.022-.035a.031.031,0,0,1,.04.013l.07.188A.028.028,0,0,1,363.388,97.007Zm-.142-.375a.031.031,0,0,1-.04-.013l-.071-.188c-.005-.013.005-.028.022-.034a.03.03,0,0,1,.04.012l.071.188C363.273,96.61,363.263,96.625,363.246,96.632Zm-.142-.376a.031.031,0,0,1-.04-.013l-.07-.188a.028.028,0,0,1,.021-.034.031.031,0,0,1,.04.012l.071.188A.029.029,0,0,1,363.1,96.256Zm-.142-.376a.029.029,0,0,1-.039-.012l-.071-.188a.03.03,0,0,1,.021-.035.031.031,0,0,1,.04.012l.071.188A.029.029,0,0,1,362.962,95.88Zm-.142-.376a.029.029,0,0,1-.039-.012l-.071-.188a.034.034,0,0,1,.061-.023l.071.188A.029.029,0,0,1,362.82,95.5Zm-.142-.376a.03.03,0,0,1-.039-.012l-.071-.188a.034.034,0,0,1,.061-.023l.071.188A.029.029,0,0,1,362.678,95.128Zm-.141-.376a.03.03,0,0,1-.04-.012l-.071-.188c-.005-.013.005-.028.022-.035a.031.031,0,0,1,.04.013l.07.188A.028.028,0,0,1,362.537,94.752Zm-.142-.375a.031.031,0,0,1-.04-.013l-.071-.188c-.005-.013.005-.028.022-.035a.031.031,0,0,1,.04.013l.071.188C362.422,94.355,362.412,94.37,362.395,94.377ZM362.253,94a.031.031,0,0,1-.04-.013l-.071-.188a.029.029,0,0,1,.022-.034.03.03,0,0,1,.04.012l.071.188C362.28,93.979,362.27,93.994,362.253,94Zm-.142-.376a.029.029,0,0,1-.039-.013L362,93.425a.029.029,0,0,1,.021-.035.031.031,0,0,1,.04.012l.071.188A.029.029,0,0,1,362.111,93.625Zm-.142-.376a.029.029,0,0,1-.039-.012l-.071-.188a.034.034,0,0,1,.061-.023l.071.188A.029.029,0,0,1,361.969,93.249Zm-.142-.376a.03.03,0,0,1-.039-.012l-.071-.188a.034.034,0,0,1,.061-.023l.071.188A.029.029,0,0,1,361.827,92.873Zm-.141-.376a.031.031,0,0,1-.04-.012l-.071-.188a.033.033,0,0,1,.061-.022l.071.187A.029.029,0,0,1,361.686,92.5Zm-.142-.376a.03.03,0,0,1-.04-.012l-.071-.188c-.005-.013,0-.028.022-.035a.031.031,0,0,1,.04.013l.071.188A.029.029,0,0,1,361.544,92.121Zm-.142-.375a.031.031,0,0,1-.04-.013l-.071-.188a.034.034,0,0,1,.062-.022l.071.188C361.429,91.724,361.419,91.739,361.4,91.746Zm-.142-.376a.029.029,0,0,1-.039-.013l-.071-.188a.028.028,0,0,1,.021-.034.03.03,0,0,1,.04.012l.071.188C361.287,91.348,361.277,91.363,361.26,91.37Zm-.142-.376a.03.03,0,0,1-.039-.013l-.071-.187a.029.029,0,0,1,.022-.035.03.03,0,0,1,.039.012l.071.188A.03.03,0,0,1,361.118,90.994Zm-.142-.376a.029.029,0,0,1-.039-.012l-.071-.188a.034.034,0,0,1,.061-.023l.071.188A.029.029,0,0,1,360.976,90.618Zm-.141-.376a.031.031,0,0,1-.04-.012l-.071-.188a.029.029,0,0,1,.022-.035c.017-.006.035,0,.039.012l.071.188A.029.029,0,0,1,360.835,90.242Zm-.142-.376a.031.031,0,0,1-.04-.012l-.071-.188a.029.029,0,0,1,.022-.035.031.031,0,0,1,.04.013l.071.187A.03.03,0,0,1,360.693,89.866Zm-.142-.376a.03.03,0,0,1-.04-.012l-.071-.188c-.005-.013.005-.028.022-.035a.031.031,0,0,1,.04.013l.071.188C360.578,89.469,360.568,89.484,360.551,89.49Zm-.142-.375a.031.031,0,0,1-.04-.013l-.07-.188c-.005-.013,0-.028.021-.035a.031.031,0,0,1,.04.013l.071.188C360.436,89.093,360.426,89.108,360.409,89.115Zm-.142-.376a.03.03,0,0,1-.039-.013l-.071-.188a.029.029,0,0,1,.021-.034.03.03,0,0,1,.04.012l.071.188C360.294,88.717,360.284,88.732,360.267,88.739Zm-.142-.376a.03.03,0,0,1-.039-.013l-.071-.187a.034.034,0,0,1,.061-.023l.071.188A.029.029,0,0,1,360.125,88.363Zm-.141-.376a.031.031,0,0,1-.04-.012l-.071-.188a.034.034,0,0,1,.061-.023l.071.188A.03.03,0,0,1,359.984,87.987Zm-.142-.376a.031.031,0,0,1-.04-.012l-.071-.188a.03.03,0,0,1,.022-.035.031.031,0,0,1,.04.012l.07.188A.029.029,0,0,1,359.842,87.611Zm-.142-.376a.031.031,0,0,1-.04-.012l-.071-.188a.03.03,0,0,1,.022-.035.031.031,0,0,1,.04.013l.071.187A.029.029,0,0,1,359.7,87.235Zm-.142-.376a.03.03,0,0,1-.04-.012l-.07-.188c-.005-.013,0-.028.021-.035a.031.031,0,0,1,.04.013l.071.188C359.585,86.838,359.575,86.853,359.558,86.859Zm-.142-.375a.03.03,0,0,1-.039-.013l-.071-.188a.03.03,0,0,1,.021-.035.031.031,0,0,1,.04.013l.071.188C359.443,86.462,359.433,86.477,359.416,86.484Zm-.142-.376a.03.03,0,0,1-.039-.013l-.071-.188c-.005-.013.005-.028.022-.034a.029.029,0,0,1,.039.012l.071.188C359.3,86.086,359.291,86.1,359.274,86.108Zm-.142-.376a.03.03,0,0,1-.039-.013l-.071-.187a.029.029,0,0,1,.022-.035.029.029,0,0,1,.039.012l.071.188A.029.029,0,0,1,359.132,85.732Zm-.141-.376a.031.031,0,0,1-.04-.012l-.071-.188a.029.029,0,0,1,.022-.035c.017-.006.035,0,.039.012l.071.188A.029.029,0,0,1,358.991,85.356Zm-.142-.376a.031.031,0,0,1-.04-.012l-.071-.188a.029.029,0,0,1,.022-.035.031.031,0,0,1,.04.012l.071.188A.03.03,0,0,1,358.849,84.98Zm-.142-.376a.031.031,0,0,1-.04-.012L358.6,84.4a.03.03,0,0,1,.022-.035.031.031,0,0,1,.04.013l.071.187A.029.029,0,0,1,358.707,84.6Zm-.142-.376a.028.028,0,0,1-.039-.012l-.071-.188c0-.013,0-.028.021-.035a.031.031,0,0,1,.04.013l.071.188C358.592,84.207,358.582,84.222,358.565,84.228Zm-.142-.375a.03.03,0,0,1-.039-.013l-.071-.188c0-.013.005-.028.022-.035a.03.03,0,0,1,.039.013l.071.188C358.45,83.831,358.44,83.846,358.423,83.853Zm-.142-.376a.03.03,0,0,1-.039-.013l-.071-.188c-.005-.013.005-.028.022-.034a.029.029,0,0,1,.039.012l.071.188C358.308,83.455,358.3,83.47,358.281,83.477Zm-.141-.376a.031.031,0,0,1-.04-.013l-.071-.187a.029.029,0,0,1,.022-.035c.017-.006.035,0,.039.012l.071.188A.029.029,0,0,1,358.14,83.1ZM358,82.725a.031.031,0,0,1-.04-.012l-.071-.188a.029.029,0,0,1,.022-.035.031.031,0,0,1,.04.012l.071.188A.03.03,0,0,1,358,82.725Zm-.142-.376a.031.031,0,0,1-.04-.012l-.071-.188a.03.03,0,0,1,.022-.035.031.031,0,0,1,.04.012l.071.188A.029.029,0,0,1,357.856,82.349Zm-.142-.376c-.017.006-.035,0-.039-.012l-.071-.188a.029.029,0,0,1,.021-.035.031.031,0,0,1,.04.013l.071.187A.029.029,0,0,1,357.714,81.973Zm-.142-.376a.029.029,0,0,1-.039-.012l-.071-.188c-.005-.013.005-.028.022-.035a.03.03,0,0,1,.039.013l.071.188C357.6,81.576,357.589,81.591,357.572,81.6Zm-.142-.376a.029.029,0,0,1-.039-.012l-.071-.188c-.005-.013.005-.028.022-.035a.03.03,0,0,1,.039.013l.071.188C357.457,81.2,357.447,81.215,357.43,81.221Zm-.141-.375a.031.031,0,0,1-.04-.013l-.071-.188c-.005-.013.005-.028.022-.034a.029.029,0,0,1,.039.012l.071.188A.03.03,0,0,1,357.289,80.846Zm-.142-.376a.031.031,0,0,1-.04-.013l-.071-.187a.029.029,0,0,1,.022-.035.031.031,0,0,1,.04.012l.07.188A.029.029,0,0,1,357.147,80.47Zm-.142-.376a.031.031,0,0,1-.04-.012l-.071-.188a.029.029,0,0,1,.022-.035.031.031,0,0,1,.04.012l.071.188A.029.029,0,0,1,357.005,80.094Zm-.142-.376a.031.031,0,0,1-.04-.012l-.07-.188a.029.029,0,0,1,.021-.035.031.031,0,0,1,.04.012l.071.188A.029.029,0,0,1,356.863,79.718Zm-.142-.376a.029.029,0,0,1-.039-.012l-.071-.188a.03.03,0,0,1,.021-.035.03.03,0,0,1,.04.013l.071.187A.03.03,0,0,1,356.721,79.342Zm-.142-.376a.029.029,0,0,1-.039-.012l-.071-.188c-.005-.013.005-.028.022-.035a.03.03,0,0,1,.039.013l.071.188C356.606,78.945,356.6,78.96,356.579,78.966Zm-.142-.375a.03.03,0,0,1-.039-.013l-.071-.188c-.005-.013.005-.028.022-.035a.03.03,0,0,1,.039.013l.071.188C356.464,78.569,356.454,78.584,356.437,78.591Zm-.141-.376a.031.031,0,0,1-.04-.013l-.071-.188c-.005-.013.005-.028.022-.034a.028.028,0,0,1,.039.012l.071.188C356.322,78.193,356.313,78.208,356.3,78.215Zm-.142-.376a.031.031,0,0,1-.04-.013l-.071-.187a.029.029,0,0,1,.022-.035.031.031,0,0,1,.04.012l.071.188A.03.03,0,0,1,356.154,77.839Zm-.142-.376a.031.031,0,0,1-.04-.012l-.071-.188a.03.03,0,0,1,.022-.035.031.031,0,0,1,.04.012l.071.188A.029.029,0,0,1,356.012,77.463Zm-.142-.376c-.017.006-.035,0-.039-.012l-.071-.188a.029.029,0,0,1,.021-.035.031.031,0,0,1,.04.012l.071.188A.029.029,0,0,1,355.87,77.087Zm-.142-.376a.029.029,0,0,1-.039-.012l-.071-.188a.029.029,0,0,1,.022-.035.03.03,0,0,1,.039.012l.071.188A.029.029,0,0,1,355.728,76.711Zm-.142-.376a.029.029,0,0,1-.039-.012l-.071-.188a.033.033,0,0,1,.061-.022l.071.188C355.613,76.314,355.6,76.329,355.586,76.335Zm-.141-.376a.03.03,0,0,1-.04-.012l-.071-.188c-.005-.013,0-.028.022-.035a.029.029,0,0,1,.039.013l.071.188A.028.028,0,0,1,355.445,75.959Zm-.142-.375a.031.031,0,0,1-.04-.013l-.071-.188c0-.013.005-.028.022-.034a.03.03,0,0,1,.04.012l.071.188A.031.031,0,0,1,355.3,75.584Zm-.142-.376a.031.031,0,0,1-.04-.013l-.071-.188a.029.029,0,0,1,.022-.034.031.031,0,0,1,.04.012l.071.188A.03.03,0,0,1,355.161,75.208Zm-.142-.376c-.017.006-.035,0-.039-.012l-.071-.188a.029.029,0,0,1,.021-.035.031.031,0,0,1,.04.012l.071.188A.029.029,0,0,1,355.019,74.832Zm-.142-.376a.029.029,0,0,1-.039-.012l-.071-.188a.029.029,0,0,1,.022-.035.03.03,0,0,1,.039.012l.071.188A.029.029,0,0,1,354.877,74.456Zm-.142-.376a.029.029,0,0,1-.039-.012l-.071-.188a.034.034,0,0,1,.061-.023l.071.188A.029.029,0,0,1,354.735,74.08Zm-.141-.376a.03.03,0,0,1-.04-.012l-.071-.188a.033.033,0,0,1,.061-.022l.071.188A.029.029,0,0,1,354.594,73.7Zm-.142-.376a.03.03,0,0,1-.04-.012l-.071-.188c-.005-.013.005-.028.022-.035a.031.031,0,0,1,.04.013l.07.188A.028.028,0,0,1,354.452,73.328Zm-.142-.375a.031.031,0,0,1-.04-.013l-.071-.188c-.005-.013.005-.028.022-.034a.03.03,0,0,1,.04.012l.071.188C354.337,72.931,354.327,72.946,354.31,72.953Zm-.142-.376a.031.031,0,0,1-.04-.013l-.07-.188a.028.028,0,0,1,.021-.034.03.03,0,0,1,.04.012l.071.188A.029.029,0,0,1,354.168,72.577Zm-.142-.376a.029.029,0,0,1-.039-.012L353.916,72a.03.03,0,0,1,.021-.035.031.031,0,0,1,.04.012l.071.188A.029.029,0,0,1,354.026,72.2Zm-.142-.376a.029.029,0,0,1-.039-.012l-.071-.188a.034.034,0,0,1,.061-.023l.071.188A.029.029,0,0,1,353.884,71.825Zm-.142-.376a.03.03,0,0,1-.039-.012l-.071-.188a.034.034,0,0,1,.061-.023l.071.188A.029.029,0,0,1,353.742,71.449Zm-.141-.376a.03.03,0,0,1-.04-.012l-.071-.188a.033.033,0,0,1,.061-.022l.071.188A.028.028,0,0,1,353.6,71.073Zm-.142-.376a.03.03,0,0,1-.04-.012l-.071-.188c-.005-.013.005-.028.022-.035a.031.031,0,0,1,.04.013l.071.188A.029.029,0,0,1,353.459,70.7Zm-.142-.375a.031.031,0,0,1-.04-.013l-.071-.188a.029.029,0,0,1,.022-.034.03.03,0,0,1,.04.012l.071.188C353.344,70.3,353.334,70.315,353.317,70.322Zm-.142-.376a.029.029,0,0,1-.039-.013l-.071-.188a.028.028,0,0,1,.021-.034.03.03,0,0,1,.04.012l.071.188A.029.029,0,0,1,353.175,69.946Zm-.142-.376a.029.029,0,0,1-.039-.012l-.071-.188a.034.034,0,0,1,.061-.023l.071.188A.029.029,0,0,1,353.033,69.57Zm-.142-.376a.029.029,0,0,1-.039-.012l-.071-.188a.034.034,0,0,1,.061-.023l.071.188A.029.029,0,0,1,352.891,69.194Zm-.141-.376a.031.031,0,0,1-.04-.012l-.071-.188a.029.029,0,0,1,.022-.035c.017-.006.035,0,.039.012l.071.188A.029.029,0,0,1,352.75,68.818Zm-.142-.376a.031.031,0,0,1-.04-.012l-.071-.188a.029.029,0,0,1,.022-.035.031.031,0,0,1,.04.013l.071.188A.029.029,0,0,1,352.608,68.442Zm-.142-.376a.03.03,0,0,1-.04-.012l-.071-.188a.034.034,0,0,1,.062-.022l.071.188C352.493,68.045,352.483,68.06,352.466,68.066Zm-.142-.375a.031.031,0,0,1-.04-.013l-.07-.188a.028.028,0,0,1,.021-.034.03.03,0,0,1,.04.012l.071.188C352.351,67.669,352.341,67.684,352.324,67.691Zm-.142-.376a.03.03,0,0,1-.039-.013l-.071-.188c-.005-.013.005-.028.022-.034a.029.029,0,0,1,.039.012l.071.188A.029.029,0,0,1,352.182,67.315Zm-.142-.376a.029.029,0,0,1-.039-.012l-.071-.188a.034.034,0,0,1,.061-.023l.071.188A.03.03,0,0,1,352.04,66.939Zm-.141-.376a.031.031,0,0,1-.04-.012l-.071-.188a.034.034,0,0,1,.061-.023l.071.188A.03.03,0,0,1,351.9,66.563Zm-.142-.376a.031.031,0,0,1-.04-.012l-.071-.188a.029.029,0,0,1,.022-.035.031.031,0,0,1,.04.012l.07.188A.029.029,0,0,1,351.757,66.187Zm-.142-.376a.031.031,0,0,1-.04-.012l-.071-.188a.029.029,0,0,1,.022-.035.031.031,0,0,1,.04.013l.071.187A.029.029,0,0,1,351.615,65.811Zm-.142-.376a.03.03,0,0,1-.04-.012l-.07-.188c-.005-.013,0-.028.021-.035a.031.031,0,0,1,.04.013l.071.188C351.5,65.414,351.49,65.429,351.473,65.435Zm-.142-.375a.03.03,0,0,1-.039-.013l-.071-.188a.029.029,0,0,1,.021-.034.03.03,0,0,1,.04.012l.071.188C351.358,65.038,351.348,65.053,351.331,65.06Zm-.142-.376a.03.03,0,0,1-.039-.013l-.071-.188c-.005-.013.005-.028.022-.034a.029.029,0,0,1,.039.012l.071.188A.029.029,0,0,1,351.189,64.684Zm-.142-.376a.029.029,0,0,1-.039-.013l-.071-.187a.034.034,0,0,1,.061-.023l.071.188A.029.029,0,0,1,351.047,64.308Zm-.141-.376a.031.031,0,0,1-.04-.012l-.071-.188a.029.029,0,0,1,.022-.035c.017-.006.035,0,.039.012l.071.188A.029.029,0,0,1,350.906,63.932Zm-.142-.376a.031.031,0,0,1-.04-.012l-.071-.188a.029.029,0,0,1,.022-.035.031.031,0,0,1,.04.012l.071.188A.03.03,0,0,1,350.764,63.556Zm-.142-.376a.031.031,0,0,1-.04-.012l-.071-.188a.03.03,0,0,1,.022-.035.031.031,0,0,1,.04.013l.071.187A.029.029,0,0,1,350.622,63.18Zm-.142-.376a.028.028,0,0,1-.039-.012l-.071-.188c-.005-.013,0-.028.021-.035a.031.031,0,0,1,.04.013l.071.188C350.507,62.783,350.5,62.8,350.48,62.8Zm-.142-.375a.03.03,0,0,1-.039-.013l-.071-.188c-.005-.013.005-.028.022-.035a.03.03,0,0,1,.039.013l.071.188C350.365,62.407,350.355,62.422,350.338,62.429Zm-.142-.376a.03.03,0,0,1-.039-.013l-.071-.188c-.005-.013.005-.028.022-.034a.029.029,0,0,1,.039.012l.071.188C350.223,62.031,350.213,62.046,350.2,62.053Zm-.141-.376a.03.03,0,0,1-.04-.013l-.071-.187a.029.029,0,0,1,.022-.035c.017-.006.035,0,.039.012l.071.188A.029.029,0,0,1,350.055,61.677Zm-.142-.376a.031.031,0,0,1-.04-.012L349.8,61.1a.029.029,0,0,1,.022-.035.031.031,0,0,1,.04.012l.071.188A.03.03,0,0,1,349.913,61.3Zm-.142-.376a.031.031,0,0,1-.04-.012l-.071-.188a.034.034,0,0,1,.062-.023l.071.188A.029.029,0,0,1,349.771,60.925Zm-.142-.376a.031.031,0,0,1-.04-.012l-.07-.188a.029.029,0,0,1,.021-.035.031.031,0,0,1,.04.013l.071.187A.029.029,0,0,1,349.629,60.549Zm-.142-.376a.029.029,0,0,1-.039-.012l-.071-.188a.03.03,0,0,1,.021-.035.031.031,0,0,1,.04.013l.071.188C349.514,60.152,349.5,60.167,349.487,60.173Zm-.142-.375a.03.03,0,0,1-.039-.013l-.071-.188c0-.013.005-.028.022-.035a.03.03,0,0,1,.039.013l.071.188C349.372,59.776,349.362,59.791,349.345,59.8Zm-.141-.376a.031.031,0,0,1-.04-.013l-.071-.188c0-.013.005-.028.022-.034a.029.029,0,0,1,.039.012l.071.188A.03.03,0,0,1,349.2,59.422Zm-.142-.376a.031.031,0,0,1-.04-.013l-.071-.187a.03.03,0,0,1,.022-.035.031.031,0,0,1,.04.012l.07.188A.029.029,0,0,1,349.062,59.046Zm-.142-.376a.031.031,0,0,1-.04-.012l-.071-.188a.029.029,0,0,1,.022-.035.031.031,0,0,1,.04.012l.071.188A.029.029,0,0,1,348.92,58.67Zm-.142-.376a.031.031,0,0,1-.04-.012l-.07-.188a.029.029,0,0,1,.021-.035.031.031,0,0,1,.04.012l.071.188A.029.029,0,0,1,348.778,58.294Zm-.142-.376a.029.029,0,0,1-.039-.012l-.071-.188a.029.029,0,0,1,.021-.035.031.031,0,0,1,.04.013l.071.187A.029.029,0,0,1,348.636,57.918Zm-.142-.376a.029.029,0,0,1-.039-.012l-.071-.188c-.005-.013.005-.028.022-.035a.03.03,0,0,1,.039.013l.071.188C348.521,57.521,348.511,57.536,348.494,57.542Zm-.142-.375a.03.03,0,0,1-.039-.013l-.071-.188c-.005-.013.005-.028.022-.035a.03.03,0,0,1,.039.013l.071.188C348.379,57.145,348.369,57.16,348.352,57.167Zm-.141-.376a.031.031,0,0,1-.04-.013l-.071-.188c-.005-.013.005-.028.022-.034a.028.028,0,0,1,.039.012l.071.188C348.237,56.769,348.228,56.784,348.211,56.791Zm-.142-.376a.031.031,0,0,1-.04-.013l-.071-.187a.029.029,0,0,1,.022-.035.031.031,0,0,1,.04.012l.071.188A.03.03,0,0,1,348.069,56.415Zm-.142-.376a.031.031,0,0,1-.04-.012l-.071-.188a.034.034,0,0,1,.062-.023l.071.188A.029.029,0,0,1,347.927,56.039Zm-.142-.376c-.017.006-.035,0-.039-.012l-.071-.188a.029.029,0,0,1,.021-.035.031.031,0,0,1,.04.012l.071.188A.029.029,0,0,1,347.785,55.663Zm-.142-.376a.029.029,0,0,1-.039-.012l-.071-.188a.03.03,0,0,1,.022-.035.03.03,0,0,1,.039.013l.071.187A.029.029,0,0,1,347.643,55.287Zm-.142-.376a.029.029,0,0,1-.039-.012l-.071-.188c-.005-.013.005-.028.022-.035a.03.03,0,0,1,.039.013l.071.188C347.528,54.89,347.518,54.9,347.5,54.911Zm-.141-.375a.031.031,0,0,1-.04-.013l-.071-.188c-.005-.013.005-.028.022-.035a.029.029,0,0,1,.039.013l.071.188C347.386,54.514,347.377,54.529,347.36,54.536Zm-.142-.376a.031.031,0,0,1-.04-.013l-.071-.188c-.005-.013.005-.028.022-.034a.03.03,0,0,1,.04.012l.071.188A.031.031,0,0,1,347.218,54.16Zm-.142-.376a.031.031,0,0,1-.04-.013l-.071-.188c-.005-.013.005-.028.022-.034a.031.031,0,0,1,.04.012l.071.188A.029.029,0,0,1,347.076,53.784Z" fill="#efecea"/>
      <path id="Path_34" data-name="Path 34" d="M346.934,53.408c-.017.006-.035,0-.039-.012l-.036-.094a.034.034,0,0,1,.061-.023l.036.094A.029.029,0,0,1,346.934,53.408Z" fill="#efecea"/>
    </g>
    <g id="Group_2" data-name="Group 2">
      <path id="Path_35" data-name="Path 35" d="M381.274,61.359l-.123.045a.033.033,0,0,1-.042-.019.033.033,0,0,1,.019-.042l.123-.044a.032.032,0,0,1,.042.018A.033.033,0,0,1,381.274,61.359Z" fill="#efecea"/>
      <path id="Path_36" data-name="Path 36" d="M380.9,61.494l-.246.09a.034.034,0,0,1-.042-.019.033.033,0,0,1,.02-.042l.245-.09a.033.033,0,0,1,.042.019A.032.032,0,0,1,380.9,61.494Zm-.492.18-.245.09a.033.033,0,0,1-.042-.019.032.032,0,0,1,.019-.042l.246-.09a.034.034,0,0,1,.042.019A.034.034,0,0,1,380.413,61.674Zm-.491.18-.246.09a.033.033,0,0,1-.042-.019.033.033,0,0,1,.019-.042l.246-.09a.033.033,0,0,1,.042.019A.033.033,0,0,1,379.922,61.854Zm-.492.18-.246.09a.034.034,0,0,1-.042-.019.033.033,0,0,1,.02-.042l.245-.09a.035.035,0,0,1,.043.019A.034.034,0,0,1,379.43,62.034Zm-.491.18-.246.09a.033.033,0,0,1-.042-.019.032.032,0,0,1,.019-.042l.246-.09a.033.033,0,0,1,.042.019A.033.033,0,0,1,378.939,62.214Zm-.492.179-.246.09a.032.032,0,0,1-.042-.018.033.033,0,0,1,.019-.042l.246-.09a.033.033,0,0,1,.042.019A.031.031,0,0,1,378.447,62.393Zm-.492.18-.245.09a.033.033,0,0,1-.043-.019.032.032,0,0,1,.02-.041l.246-.09a.033.033,0,0,1,.042.019A.032.032,0,0,1,377.955,62.573Zm-.491.18-.246.09a.032.032,0,1,1-.023-.06l.246-.09a.033.033,0,0,1,.042.019A.031.031,0,0,1,377.464,62.753Zm-.492.18-.246.09a.032.032,0,1,1-.022-.06l.245-.09a.033.033,0,0,1,.042.019A.031.031,0,0,1,376.972,62.933Zm-.492.18-.245.09a.033.033,0,0,1-.042-.019.031.031,0,0,1,.019-.041l.246-.09a.033.033,0,0,1,.042.019A.032.032,0,0,1,376.48,63.113Zm-.491.18-.246.09a.033.033,0,0,1-.042-.019.032.032,0,0,1,.019-.041l.246-.09a.033.033,0,0,1,.042.019A.032.032,0,0,1,375.989,63.293Zm-.492.18-.246.09a.033.033,0,0,1-.042-.019.032.032,0,0,1,.02-.041l.245-.09a.034.034,0,0,1,.043.019A.032.032,0,0,1,375.5,63.473Zm-.491.18-.246.09a.033.033,0,0,1-.042-.019.031.031,0,0,1,.019-.041l.246-.09a.033.033,0,0,1,.042.019A.032.032,0,0,1,375.006,63.653Zm-.492.18-.246.09a.033.033,0,0,1-.042-.019.031.031,0,0,1,.019-.041l.246-.09a.033.033,0,0,1,.042.019A.031.031,0,0,1,374.514,63.833Zm-.492.18-.245.09a.034.034,0,0,1-.043-.019.032.032,0,0,1,.02-.041l.246-.09a.032.032,0,1,1,.022.06Zm-.491.18-.246.09a.033.033,0,0,1-.042-.019.031.031,0,0,1,.019-.041l.246-.09a.032.032,0,1,1,.023.06Zm-.492.18-.246.09a.033.033,0,0,1-.042-.019.032.032,0,0,1,.02-.041l.245-.09a.032.032,0,0,1,.042.019A.031.031,0,0,1,373.039,64.373Zm-.491.18-.246.09a.033.033,0,0,1-.042-.019.032.032,0,0,1,.019-.042l.246-.089a.032.032,0,0,1,.042.018A.033.033,0,0,1,372.548,64.553Zm-.492.18-.246.09a.033.033,0,0,1-.042-.019.033.033,0,0,1,.019-.042l.246-.09a.033.033,0,0,1,.042.019A.033.033,0,0,1,372.056,64.733Zm-.492.18-.246.09a.034.034,0,0,1-.042-.019.033.033,0,0,1,.02-.042l.245-.09a.035.035,0,0,1,.043.019A.033.033,0,0,1,371.564,64.913Zm-.491.18-.246.09a.033.033,0,0,1-.042-.019.032.032,0,0,1,.019-.042l.246-.09a.033.033,0,0,1,.042.019A.033.033,0,0,1,371.073,65.093Zm-.492.18-.246.09a.033.033,0,0,1-.042-.019.033.033,0,0,1,.019-.042l.246-.09a.033.033,0,0,1,.042.019A.032.032,0,0,1,370.581,65.273Zm-.492.18-.245.09a.033.033,0,0,1-.042-.019.032.032,0,0,1,.019-.042l.246-.09a.034.034,0,0,1,.042.019A.034.034,0,0,1,370.089,65.453Zm-.491.18-.246.09a.033.033,0,0,1-.042-.019.033.033,0,0,1,.019-.042l.246-.09a.033.033,0,0,1,.042.019A.033.033,0,0,1,369.6,65.633Zm-.492.18-.246.09a.034.034,0,0,1-.042-.019.033.033,0,0,1,.02-.042l.245-.09a.033.033,0,0,1,.042.019A.032.032,0,0,1,369.106,65.813Zm-.491.179-.246.09a.032.032,0,0,1-.042-.019.031.031,0,0,1,.019-.041l.246-.09a.033.033,0,0,1,.042.019A.032.032,0,0,1,368.615,65.992Zm-.492.18-.246.09a.032.032,0,1,1-.023-.06l.246-.09a.033.033,0,0,1,.042.019A.031.031,0,0,1,368.123,66.172Zm-.492.18-.246.09a.032.032,0,1,1-.022-.06l.245-.09a.034.034,0,0,1,.043.019A.032.032,0,0,1,367.631,66.352Zm-.491.18-.246.09a.032.032,0,0,1-.042-.019.031.031,0,0,1,.019-.041l.246-.09a.033.033,0,0,1,.042.019A.031.031,0,0,1,367.14,66.532Zm-.492.18-.246.09a.032.032,0,1,1-.023-.06l.246-.09a.033.033,0,0,1,.042.019A.031.031,0,0,1,366.648,66.712Zm-.492.18-.245.09a.033.033,0,0,1-.042-.019.031.031,0,0,1,.019-.041l.246-.09a.033.033,0,0,1,.042.019A.032.032,0,0,1,366.156,66.892Zm-.491.18-.246.09a.033.033,0,0,1-.042-.019.032.032,0,0,1,.019-.041l.246-.09a.033.033,0,0,1,.042.019A.032.032,0,0,1,365.665,67.072Zm-.492.18-.246.09a.033.033,0,0,1-.042-.019.032.032,0,0,1,.02-.041l.245-.09a.033.033,0,0,1,.042.019A.031.031,0,0,1,365.173,67.252Zm-.491.18-.246.09a.033.033,0,0,1-.042-.019.031.031,0,0,1,.019-.041l.246-.09a.032.032,0,1,1,.023.06Zm-.492.18-.246.09a.033.033,0,0,1-.042-.019.031.031,0,0,1,.019-.041l.246-.09a.032.032,0,1,1,.023.06Zm-.492.18-.246.09a.033.033,0,0,1-.042-.019.032.032,0,0,1,.02-.041l.245-.09a.033.033,0,0,1,.043.019A.032.032,0,0,1,363.7,67.792Zm-.491.18-.246.09a.033.033,0,0,1-.042-.019.031.031,0,0,1,.019-.041l.246-.09a.032.032,0,1,1,.023.06Zm-.492.18-.246.09a.033.033,0,0,1-.042-.019.034.034,0,0,1,.019-.042l.246-.089a.032.032,0,1,1,.023.06Zm-.492.18-.245.09a.033.033,0,0,1-.042-.019.032.032,0,0,1,.019-.042l.246-.09a.034.034,0,0,1,.042.019A.033.033,0,0,1,362.223,68.332Zm-.491.18-.246.09a.033.033,0,0,1-.042-.019.033.033,0,0,1,.019-.042l.246-.09a.033.033,0,0,1,.042.019A.033.033,0,0,1,361.732,68.512Zm-.492.18-.246.09a.034.034,0,0,1-.042-.019.033.033,0,0,1,.02-.042l.245-.09a.033.033,0,0,1,.042.019A.032.032,0,0,1,361.24,68.692Zm-.491.18-.246.09a.033.033,0,0,1-.042-.019.032.032,0,0,1,.019-.042l.246-.09a.033.033,0,0,1,.042.019A.033.033,0,0,1,360.749,68.872Zm-.492.18-.246.09a.033.033,0,0,1-.042-.019.033.033,0,0,1,.019-.042l.246-.09a.033.033,0,0,1,.042.019A.033.033,0,0,1,360.257,69.052Zm-.492.18-.246.09a.034.034,0,0,1-.042-.019.033.033,0,0,1,.02-.042l.245-.09a.035.035,0,0,1,.043.019A.033.033,0,0,1,359.765,69.232Zm-.491.18-.246.089a.032.032,0,1,1-.023-.06l.246-.09a.033.033,0,0,1,.042.019A.033.033,0,0,1,359.274,69.412Zm-.492.179-.246.09a.032.032,0,1,1-.023-.06l.246-.09a.033.033,0,0,1,.042.019A.031.031,0,0,1,358.782,69.591Zm-.492.18-.245.09a.032.032,0,0,1-.042-.019.031.031,0,0,1,.019-.041l.246-.09a.033.033,0,0,1,.042.019A.032.032,0,0,1,358.29,69.771Zm-.491.18-.246.09a.032.032,0,1,1-.023-.06l.246-.09a.033.033,0,0,1,.042.019A.031.031,0,0,1,357.8,69.951Zm-.492.18-.246.09a.033.033,0,0,1-.042-.019.032.032,0,0,1,.02-.041l.245-.09a.033.033,0,0,1,.042.019A.031.031,0,0,1,357.307,70.131Zm-.491.18-.246.09a.033.033,0,0,1-.042-.019.031.031,0,0,1,.019-.041l.246-.09a.032.032,0,1,1,.023.06Zm-.492.18-.246.09a.033.033,0,0,1-.042-.019.032.032,0,0,1,.019-.041l.246-.09a.033.033,0,0,1,.042.019A.032.032,0,0,1,356.324,70.491Zm-.492.18-.246.09a.033.033,0,0,1-.042-.019.032.032,0,0,1,.02-.041l.245-.09a.034.034,0,0,1,.043.019A.032.032,0,0,1,355.832,70.671Zm-.491.18-.246.09a.033.033,0,0,1-.042-.019.031.031,0,0,1,.019-.041l.246-.09a.033.033,0,0,1,.042.019A.032.032,0,0,1,355.341,70.851Zm-.492.18-.246.09a.032.032,0,1,1-.023-.06l.246-.09a.032.032,0,0,1,.042.019A.031.031,0,0,1,354.849,71.031Zm-.492.18-.245.09a.033.033,0,0,1-.042-.019.031.031,0,0,1,.019-.041l.246-.09a.032.032,0,1,1,.022.06Zm-.491.18-.246.09a.033.033,0,0,1-.042-.019.031.031,0,0,1,.019-.041l.246-.09a.032.032,0,1,1,.023.06Zm-.492.18-.246.09a.033.033,0,0,1-.042-.019.032.032,0,0,1,.02-.041l.245-.09a.032.032,0,0,1,.042.019A.031.031,0,0,1,353.374,71.571Zm-.491.18-.246.09a.033.033,0,0,1-.042-.019.032.032,0,0,1,.019-.042l.246-.09a.033.033,0,1,1,.023.061Zm-.492.18-.246.09A.033.033,0,0,1,352.1,72a.033.033,0,0,1,.019-.042l.246-.09a.033.033,0,0,1,.042.019A.033.033,0,0,1,352.391,71.931Zm-.492.18-.246.09a.034.034,0,0,1-.042-.019.034.034,0,0,1,.02-.042l.245-.09a.035.035,0,0,1,.043.019A.033.033,0,0,1,351.9,72.111Zm-.491.18-.246.09a.033.033,0,0,1-.042-.019.033.033,0,0,1,.019-.042l.246-.09a.033.033,0,0,1,.042.019A.033.033,0,0,1,351.408,72.291Zm-.492.18-.246.09a.033.033,0,1,1-.023-.061l.246-.09a.033.033,0,0,1,.042.019A.032.032,0,0,1,350.916,72.471Zm-.492.18-.245.09a.033.033,0,0,1-.042-.019.032.032,0,0,1,.019-.042l.246-.09a.034.034,0,0,1,.042.019A.033.033,0,0,1,350.424,72.651Zm-.491.18-.246.09a.033.033,0,0,1-.042-.019.033.033,0,0,1,.019-.042l.246-.09a.033.033,0,0,1,.042.019A.033.033,0,0,1,349.933,72.831Zm-.492.18-.246.089a.032.032,0,0,1-.042-.018.033.033,0,0,1,.02-.042l.245-.09a.033.033,0,0,1,.042.019A.032.032,0,0,1,349.441,73.011Zm-.491.179-.246.09a.032.032,0,0,1-.042-.019.031.031,0,0,1,.019-.041l.246-.09a.033.033,0,0,1,.042.019A.032.032,0,0,1,348.95,73.19Zm-.492.18-.246.09a.032.032,0,1,1-.023-.06l.246-.09a.033.033,0,0,1,.042.019A.031.031,0,0,1,348.458,73.37Zm-.492.18-.246.09a.032.032,0,1,1-.022-.06l.245-.09a.034.034,0,0,1,.043.019A.032.032,0,0,1,347.966,73.55Zm-.491.18-.246.09a.033.033,0,0,1-.042-.019.031.031,0,0,1,.019-.041l.246-.09a.033.033,0,0,1,.042.019A.031.031,0,0,1,347.475,73.73Zm-.492.18-.246.09a.032.032,0,1,1-.023-.06l.246-.09a.033.033,0,0,1,.042.019A.031.031,0,0,1,346.983,73.91Zm-.492.18-.245.09a.033.033,0,0,1-.042-.019.031.031,0,0,1,.019-.041l.246-.09a.033.033,0,0,1,.042.019A.032.032,0,0,1,346.491,74.09Zm-.491.18-.246.09a.033.033,0,0,1-.042-.019.032.032,0,0,1,.019-.041l.246-.09a.033.033,0,0,1,.042.019A.032.032,0,0,1,346,74.27Zm-.492.18-.246.09a.033.033,0,0,1-.042-.019.032.032,0,0,1,.02-.041l.245-.09a.033.033,0,0,1,.042.019A.031.031,0,0,1,345.508,74.45Zm-.491.18-.246.09a.033.033,0,0,1-.042-.019.031.031,0,0,1,.019-.041l.246-.09a.032.032,0,1,1,.023.06Zm-.492.18-.246.09a.033.033,0,0,1-.042-.019.031.031,0,0,1,.019-.041l.246-.09a.032.032,0,1,1,.023.06Zm-.492.18-.246.09a.033.033,0,0,1-.042-.019.032.032,0,0,1,.02-.041l.245-.09a.033.033,0,0,1,.043.019A.032.032,0,0,1,344.033,74.99Zm-.491.18-.246.09a.033.033,0,0,1-.042-.019.031.031,0,0,1,.019-.041l.246-.09a.032.032,0,1,1,.023.06Zm-.492.18-.246.09a.033.033,0,0,1-.042-.019.033.033,0,0,1,.019-.042l.246-.09a.033.033,0,0,1,.042.019A.032.032,0,0,1,343.05,75.35Zm-.492.18-.245.09a.033.033,0,0,1-.042-.019.032.032,0,0,1,.019-.042l.246-.09a.034.034,0,0,1,.042.019A.033.033,0,0,1,342.558,75.53Zm-.491.18-.246.09a.033.033,0,0,1-.042-.019.033.033,0,0,1,.019-.042l.246-.09a.033.033,0,0,1,.042.019A.033.033,0,0,1,342.067,75.71Zm-.492.18-.246.09a.034.034,0,0,1-.042-.019.034.034,0,0,1,.02-.042l.245-.09a.033.033,0,0,1,.042.019A.032.032,0,0,1,341.575,75.89Zm-.491.18-.246.09a.033.033,0,0,1-.042-.019.032.032,0,0,1,.019-.042l.246-.09a.033.033,0,0,1,.023.061Zm-.492.18-.246.09a.033.033,0,0,1-.042-.019.033.033,0,0,1,.019-.042l.246-.09a.033.033,0,0,1,.042.019A.033.033,0,0,1,340.592,76.25Zm-.492.18-.246.09a.034.034,0,0,1-.042-.019.033.033,0,0,1,.02-.042l.245-.09a.035.035,0,0,1,.043.019A.033.033,0,0,1,340.1,76.43Zm-.491.18-.246.089a.032.032,0,1,1-.023-.06l.246-.09a.033.033,0,0,1,.042.019A.033.033,0,0,1,339.609,76.61Zm-.492.179-.246.09a.032.032,0,1,1-.023-.06l.246-.09a.033.033,0,0,1,.042.019A.031.031,0,0,1,339.117,76.789Zm-.492.18-.245.09a.032.032,0,0,1-.042-.019.031.031,0,0,1,.019-.041l.246-.09a.033.033,0,0,1,.042.019A.032.032,0,0,1,338.625,76.969Zm-.491.18-.246.09a.032.032,0,1,1-.023-.06l.246-.09a.033.033,0,0,1,.042.019A.032.032,0,0,1,338.134,77.149Zm-.492.18-.246.09a.033.033,0,0,1-.042-.019.032.032,0,0,1,.02-.041l.245-.09a.033.033,0,0,1,.042.019A.031.031,0,0,1,337.642,77.329Zm-.492.18-.245.09a.033.033,0,0,1-.042-.019.031.031,0,0,1,.019-.041l.246-.09a.033.033,0,0,1,.042.019A.032.032,0,0,1,337.15,77.509Zm-.491.18-.246.09a.033.033,0,0,1-.042-.019.032.032,0,0,1,.019-.041l.246-.09a.033.033,0,0,1,.042.019A.032.032,0,0,1,336.659,77.689Zm-.492.18-.246.09a.033.033,0,0,1-.042-.019.032.032,0,0,1,.02-.041l.245-.09a.033.033,0,0,1,.042.019A.031.031,0,0,1,336.167,77.869Zm-.491.18-.246.09a.033.033,0,0,1-.042-.019.031.031,0,0,1,.019-.041l.246-.09a.033.033,0,0,1,.042.019A.032.032,0,0,1,335.676,78.049Zm-.492.18-.246.09a.033.033,0,0,1-.042-.019.031.031,0,0,1,.019-.041l.246-.09a.033.033,0,0,1,.042.019A.031.031,0,0,1,335.184,78.229Zm-.492.18-.245.09a.034.034,0,0,1-.043-.019.032.032,0,0,1,.02-.041l.246-.09a.032.032,0,1,1,.022.06Zm-.491.18-.246.09a.033.033,0,0,1-.042-.019.031.031,0,0,1,.019-.041l.246-.09a.032.032,0,1,1,.023.06Zm-.492.18-.246.09a.033.033,0,0,1-.042-.019.032.032,0,0,1,.02-.041l.245-.09a.032.032,0,0,1,.042.019A.031.031,0,0,1,333.709,78.769Zm-.492.18-.245.09a.033.033,0,0,1-.042-.019.032.032,0,0,1,.019-.042l.246-.089a.032.032,0,0,1,.042.018A.033.033,0,0,1,333.217,78.949Zm-.491.18-.246.09a.033.033,0,0,1-.042-.019.033.033,0,0,1,.019-.042l.246-.09a.033.033,0,0,1,.042.019A.033.033,0,0,1,332.726,79.129Zm-.492.18-.246.09a.034.034,0,0,1-.042-.019.033.033,0,0,1,.02-.042l.245-.09a.035.035,0,0,1,.043.019A.033.033,0,0,1,332.234,79.309Zm-.491.18-.246.09a.033.033,0,0,1-.042-.019.032.032,0,0,1,.019-.042l.246-.09a.033.033,0,0,1,.042.019A.033.033,0,0,1,331.743,79.489Zm-.492.18-.246.09a.033.033,0,0,1-.042-.019.033.033,0,0,1,.019-.042l.246-.09a.033.033,0,0,1,.042.019A.032.032,0,0,1,331.251,79.669Zm-.492.18-.245.09a.035.035,0,0,1-.043-.019.033.033,0,0,1,.02-.042l.246-.09a.034.034,0,0,1,.042.019A.033.033,0,0,1,330.759,79.849Zm-.491.18-.246.09a.033.033,0,0,1-.042-.019.033.033,0,0,1,.019-.042l.246-.09a.033.033,0,0,1,.042.019A.033.033,0,0,1,330.268,80.029Zm-.492.18-.246.09a.034.034,0,0,1-.042-.019.033.033,0,0,1,.019-.042l.246-.09a.033.033,0,0,1,.042.019A.032.032,0,0,1,329.776,80.209Zm-.492.179-.245.09a.032.032,0,1,1-.023-.06l.246-.09a.033.033,0,0,1,.042.019A.032.032,0,0,1,329.284,80.388Zm-.491.18-.246.09a.032.032,0,1,1-.023-.06l.246-.09a.033.033,0,0,1,.042.019A.032.032,0,0,1,328.793,80.568Zm-.492.18-.246.09a.032.032,0,1,1-.022-.06l.245-.09a.033.033,0,0,1,.042.019A.031.031,0,0,1,328.3,80.748Zm-.491.18-.246.09a.032.032,0,0,1-.042-.019.031.031,0,0,1,.019-.041l.246-.09a.033.033,0,0,1,.042.019A.032.032,0,0,1,327.81,80.928Zm-.492.18-.246.09a.033.033,0,0,1-.042-.019.032.032,0,0,1,.019-.041l.246-.09a.033.033,0,0,1,.042.019A.032.032,0,0,1,327.318,81.108Zm-.492.18-.245.09a.034.034,0,0,1-.043-.019.032.032,0,0,1,.02-.041l.246-.09a.033.033,0,0,1,.042.019A.032.032,0,0,1,326.826,81.288Z" fill="#efecea"/>
      <path id="Path_37" data-name="Path 37" d="M326.335,81.468l-.123.045a.033.033,0,0,1-.042-.019.031.031,0,0,1,.019-.041l.123-.045a.033.033,0,0,1,.042.019A.032.032,0,0,1,326.335,81.468Z" fill="#efecea"/>
    </g>
    <g id="Group_3" data-name="Group 3">
      <path id="Path_38" data-name="Path 38" d="M386.973,76.45l-.123.044a.032.032,0,0,1-.042-.018.033.033,0,0,1,.02-.042l.122-.045a.033.033,0,0,1,.042.019A.032.032,0,0,1,386.973,76.45Z" fill="#efecea"/>
      <path id="Path_39" data-name="Path 39" d="M386.605,76.584l-.246.09a.032.032,0,0,1-.042-.019.031.031,0,0,1,.019-.041l.246-.09a.033.033,0,0,1,.042.019A.032.032,0,0,1,386.605,76.584Zm-.492.18-.246.09a.032.032,0,1,1-.023-.06l.246-.09a.033.033,0,0,1,.042.019A.031.031,0,0,1,386.113,76.764Zm-.492.18-.246.09a.033.033,0,0,1-.042-.019.032.032,0,0,1,.02-.041l.245-.09a.034.034,0,0,1,.043.019A.032.032,0,0,1,385.621,76.944Zm-.491.18-.246.09a.033.033,0,0,1-.042-.019.031.031,0,0,1,.019-.041l.246-.09a.033.033,0,0,1,.042.019A.031.031,0,0,1,385.13,77.124Zm-.492.18-.246.09a.033.033,0,0,1-.042-.019.032.032,0,0,1,.019-.041l.246-.09a.033.033,0,0,1,.042.019A.031.031,0,0,1,384.638,77.3Zm-.492.18-.245.09a.033.033,0,0,1-.042-.019.031.031,0,0,1,.019-.041l.246-.09a.033.033,0,0,1,.042.019A.032.032,0,0,1,384.146,77.484Zm-.491.18-.246.09a.033.033,0,0,1-.042-.019.032.032,0,0,1,.019-.041l.246-.09a.033.033,0,0,1,.042.019A.032.032,0,0,1,383.655,77.664Zm-.492.18-.246.09a.033.033,0,0,1-.042-.019.032.032,0,0,1,.02-.041l.245-.09a.033.033,0,0,1,.042.019A.031.031,0,0,1,383.163,77.844Zm-.491.18-.246.09a.033.033,0,0,1-.042-.019.031.031,0,0,1,.019-.041l.246-.09a.032.032,0,0,1,.042.019A.033.033,0,0,1,382.672,78.024Zm-.492.18-.246.09a.033.033,0,0,1-.042-.019.031.031,0,0,1,.019-.041l.246-.09a.032.032,0,1,1,.023.06Zm-.492.18-.246.09a.033.033,0,0,1-.042-.019.032.032,0,0,1,.02-.041l.245-.09a.033.033,0,0,1,.043.019A.032.032,0,0,1,381.688,78.384Zm-.491.18-.246.09a.033.033,0,0,1-.042-.019.032.032,0,0,1,.019-.042l.246-.089a.032.032,0,0,1,.042.018A.033.033,0,0,1,381.2,78.564Zm-.492.18-.246.09a.033.033,0,0,1-.042-.019.033.033,0,0,1,.019-.042l.246-.09a.033.033,0,0,1,.042.019A.032.032,0,0,1,380.7,78.744Zm-.492.18-.245.09a.033.033,0,0,1-.042-.019.032.032,0,0,1,.019-.042l.246-.09a.034.034,0,0,1,.042.019A.033.033,0,0,1,380.213,78.924Zm-.491.18-.246.09a.033.033,0,0,1-.042-.019.033.033,0,0,1,.019-.042l.246-.09a.033.033,0,0,1,.042.019A.033.033,0,0,1,379.722,79.1Zm-.492.18-.246.09a.034.034,0,0,1-.042-.019.033.033,0,0,1,.02-.042l.245-.09a.033.033,0,0,1,.042.019A.032.032,0,0,1,379.23,79.284Zm-.491.18-.246.09a.033.033,0,0,1-.042-.019.032.032,0,0,1,.019-.042l.246-.09a.033.033,0,0,1,.023.061Zm-.492.18-.246.09a.033.033,0,0,1-.042-.019.033.033,0,0,1,.019-.042l.246-.09a.033.033,0,0,1,.042.019A.033.033,0,0,1,378.247,79.644Zm-.492.18-.246.089a.032.032,0,1,1-.022-.06l.245-.09a.034.034,0,0,1,.043.019A.033.033,0,0,1,377.755,79.824Zm-.491.179-.246.09a.032.032,0,1,1-.023-.06l.246-.09a.033.033,0,0,1,.042.019A.031.031,0,0,1,377.264,80Zm-.492.18-.246.09a.032.032,0,1,1-.023-.06l.246-.09a.033.033,0,0,1,.042.019A.031.031,0,0,1,376.772,80.183Zm-.492.18-.245.09a.032.032,0,0,1-.042-.019.031.031,0,0,1,.019-.041l.246-.09a.033.033,0,0,1,.042.019A.032.032,0,0,1,376.28,80.363Zm-.491.18-.246.09a.033.033,0,0,1-.042-.019.032.032,0,0,1,.019-.041l.246-.09a.033.033,0,0,1,.042.019A.032.032,0,0,1,375.789,80.543Zm-.492.18-.246.09a.033.033,0,0,1-.042-.019.032.032,0,0,1,.02-.041l.245-.09a.033.033,0,0,1,.042.019A.031.031,0,0,1,375.3,80.723Zm-.491.18-.246.09a.033.033,0,0,1-.042-.019.031.031,0,0,1,.019-.041l.246-.09a.032.032,0,1,1,.023.06Zm-.492.18-.246.09a.033.033,0,0,1-.042-.019.032.032,0,0,1,.019-.041l.246-.09a.033.033,0,0,1,.042.019A.032.032,0,0,1,374.314,81.083Zm-.492.18-.246.09a.033.033,0,0,1-.042-.019.032.032,0,0,1,.02-.041l.245-.09a.034.034,0,0,1,.043.019A.032.032,0,0,1,373.822,81.263Zm-.491.18-.246.09a.033.033,0,0,1-.042-.019.031.031,0,0,1,.019-.041l.246-.09a.033.033,0,0,1,.042.019A.032.032,0,0,1,373.331,81.443Zm-.492.18-.246.09a.033.033,0,0,1-.042-.019.032.032,0,0,1,.019-.041l.246-.09a.032.032,0,0,1,.042.019A.031.031,0,0,1,372.839,81.623Zm-.492.18-.245.09a.033.033,0,0,1-.042-.019.031.031,0,0,1,.019-.041l.246-.09a.032.032,0,1,1,.022.06Zm-.491.18-.246.09a.033.033,0,0,1-.042-.019.032.032,0,0,1,.019-.041l.246-.09a.032.032,0,1,1,.023.06Zm-.492.18-.246.09a.033.033,0,0,1-.042-.019.034.034,0,0,1,.02-.042l.245-.089a.032.032,0,0,1,.042.018A.032.032,0,0,1,371.364,82.163Zm-.491.18-.246.09a.033.033,0,0,1-.042-.019.032.032,0,0,1,.019-.042l.246-.09a.033.033,0,1,1,.023.061Zm-.492.18-.246.09a.033.033,0,0,1-.042-.019.033.033,0,0,1,.019-.042l.246-.09a.033.033,0,0,1,.042.019A.033.033,0,0,1,370.381,82.523Zm-.492.18-.246.09a.034.034,0,0,1-.042-.019.033.033,0,0,1,.02-.042l.245-.09a.035.035,0,0,1,.043.019A.033.033,0,0,1,369.889,82.7Zm-.491.18-.246.09a.033.033,0,0,1-.042-.019.033.033,0,0,1,.019-.042l.246-.09a.033.033,0,0,1,.042.019A.033.033,0,0,1,369.4,82.883Zm-.492.18-.246.09a.033.033,0,0,1-.023-.061l.246-.09a.033.033,0,0,1,.042.019A.032.032,0,0,1,368.906,83.063Zm-.492.18-.245.09a.033.033,0,0,1-.042-.019.032.032,0,0,1,.019-.042l.246-.09a.034.034,0,0,1,.042.019A.033.033,0,0,1,368.414,83.243Zm-.491.18-.246.089a.032.032,0,0,1-.042-.018.033.033,0,0,1,.019-.042l.246-.09a.033.033,0,0,1,.042.019A.033.033,0,0,1,367.923,83.423Zm-.492.179-.246.09a.032.032,0,1,1-.022-.06l.245-.09a.033.033,0,0,1,.042.019A.031.031,0,0,1,367.431,83.6Zm-.491.18-.246.09a.032.032,0,0,1-.042-.019.031.031,0,0,1,.019-.041l.246-.09a.033.033,0,0,1,.042.019A.031.031,0,0,1,366.94,83.782Zm-.492.18-.246.09a.032.032,0,1,1-.023-.06l.246-.09a.033.033,0,0,1,.042.019A.031.031,0,0,1,366.448,83.962Zm-.492.18-.246.09a.033.033,0,0,1-.042-.019.032.032,0,0,1,.02-.041l.246-.09a.033.033,0,0,1,.042.019A.032.032,0,0,1,365.956,84.142Zm-.491.18-.246.09a.033.033,0,0,1-.042-.019.032.032,0,0,1,.019-.041l.246-.09a.033.033,0,0,1,.042.019A.032.032,0,0,1,365.465,84.322Zm-.492.18-.246.09a.032.032,0,1,1-.023-.06l.246-.09a.033.033,0,0,1,.042.019A.031.031,0,0,1,364.973,84.5Zm-.492.18-.245.09a.033.033,0,0,1-.042-.019.031.031,0,0,1,.019-.041l.246-.09a.033.033,0,0,1,.042.019A.032.032,0,0,1,364.481,84.682Zm-.491.18-.246.09a.033.033,0,0,1-.042-.019.032.032,0,0,1,.019-.041l.246-.09a.033.033,0,0,1,.042.019A.032.032,0,0,1,363.99,84.862Zm-.492.18-.246.09a.033.033,0,0,1-.042-.019.032.032,0,0,1,.02-.041l.245-.09a.032.032,0,0,1,.042.019A.031.031,0,0,1,363.5,85.042Zm-.491.18-.246.09a.033.033,0,0,1-.042-.019.031.031,0,0,1,.019-.041l.246-.09a.032.032,0,0,1,.042.019A.033.033,0,0,1,363.007,85.222Zm-.492.18-.246.09a.033.033,0,0,1-.042-.019.032.032,0,0,1,.019-.041l.246-.09a.032.032,0,0,1,.042.019A.031.031,0,0,1,362.515,85.4Zm-.492.18-.245.09a.034.034,0,0,1-.043-.019.032.032,0,0,1,.02-.041l.246-.09a.032.032,0,1,1,.022.06Zm-.491.18-.246.09a.033.033,0,0,1-.042-.019.033.033,0,0,1,.019-.042l.246-.09a.033.033,0,0,1,.042.019A.033.033,0,0,1,361.532,85.762Zm-.492.18-.246.09a.033.033,0,0,1-.042-.019.034.034,0,0,1,.019-.042l.246-.09a.033.033,0,0,1,.042.019A.032.032,0,0,1,361.04,85.942Zm-.492.18-.245.09a.033.033,0,0,1-.042-.019.032.032,0,0,1,.019-.042l.246-.09a.034.034,0,0,1,.042.019A.033.033,0,0,1,360.548,86.122Zm-.491.18-.246.09a.033.033,0,0,1-.042-.019.033.033,0,0,1,.019-.042l.246-.09a.033.033,0,0,1,.042.019A.033.033,0,0,1,360.057,86.3Zm-.492.18-.246.09a.034.034,0,0,1-.042-.019.033.033,0,0,1,.02-.042l.245-.09a.033.033,0,0,1,.042.019A.032.032,0,0,1,359.565,86.482Zm-.491.18-.246.09a.033.033,0,0,1-.042-.019.032.032,0,0,1,.019-.042l.246-.09a.033.033,0,0,1,.042.019A.033.033,0,0,1,359.074,86.662Zm-.492.18-.246.09a.033.033,0,0,1-.042-.019.033.033,0,0,1,.019-.042l.246-.09a.033.033,0,0,1,.042.019A.033.033,0,0,1,358.582,86.842Zm-.492.18-.245.089a.034.034,0,0,1-.043-.018.033.033,0,0,1,.02-.042l.246-.09a.032.032,0,1,1,.022.061Zm-.491.179-.246.09a.032.032,0,1,1-.023-.06l.246-.09a.033.033,0,0,1,.042.019A.031.031,0,0,1,357.6,87.2Zm-.492.18-.246.09a.032.032,0,0,1-.042-.019.033.033,0,0,1,.019-.041l.246-.09a.033.033,0,0,1,.042.019A.031.031,0,0,1,357.107,87.381Zm-.492.18-.245.09a.032.032,0,0,1-.042-.019.031.031,0,0,1,.019-.041l.246-.09a.033.033,0,0,1,.042.019A.032.032,0,0,1,356.615,87.561Zm-.491.18-.246.09a.033.033,0,0,1-.042-.019.032.032,0,0,1,.019-.041l.246-.09a.033.033,0,0,1,.042.019A.031.031,0,0,1,356.124,87.741Zm-.492.18-.246.09a.033.033,0,0,1-.042-.019.032.032,0,0,1,.02-.041l.245-.09a.033.033,0,0,1,.042.019A.031.031,0,0,1,355.632,87.921Zm-.491.18-.246.09a.033.033,0,0,1-.042-.019.031.031,0,0,1,.019-.041l.246-.09a.033.033,0,0,1,.042.019A.032.032,0,0,1,355.141,88.1Zm-.492.18-.246.09a.033.033,0,0,1-.042-.019.032.032,0,0,1,.019-.041l.246-.09a.033.033,0,0,1,.042.019A.032.032,0,0,1,354.649,88.281Zm-.492.18-.245.09a.034.034,0,0,1-.043-.019.032.032,0,0,1,.02-.041l.246-.09a.033.033,0,0,1,.042.019A.032.032,0,0,1,354.157,88.461Zm-.491.18-.246.09a.033.033,0,0,1-.042-.019.032.032,0,0,1,.019-.041l.246-.09a.032.032,0,1,1,.023.06Zm-.492.18-.246.09a.033.033,0,0,1-.042-.019.032.032,0,0,1,.019-.041l.246-.09a.032.032,0,0,1,.042.019A.031.031,0,0,1,353.174,88.821Zm-.492.18-.245.09a.033.033,0,0,1-.042-.019.031.031,0,0,1,.019-.041l.246-.09a.032.032,0,1,1,.022.06Zm-.491.18-.246.09a.033.033,0,0,1-.042-.019.031.031,0,0,1,.019-.041l.246-.09a.032.032,0,1,1,.023.06Zm-.492.18-.246.09a.033.033,0,0,1-.042-.019.033.033,0,0,1,.02-.042l.245-.089a.032.032,0,1,1,.023.06Zm-.491.18-.246.09a.033.033,0,0,1-.042-.019.032.032,0,0,1,.019-.042l.246-.09a.033.033,0,0,1,.042.019A.033.033,0,0,1,351.208,89.541Zm-.492.18-.246.09a.033.033,0,0,1-.042-.019.033.033,0,0,1,.019-.042l.246-.09a.033.033,0,0,1,.042.019A.033.033,0,0,1,350.716,89.721Zm-.492.18-.246.09a.034.034,0,0,1-.042-.019.033.033,0,0,1,.02-.042l.246-.09a.034.034,0,0,1,.042.019A.033.033,0,0,1,350.224,89.9Zm-.491.18-.246.09a.033.033,0,0,1-.042-.019.033.033,0,0,1,.019-.042l.246-.09a.033.033,0,0,1,.042.019A.033.033,0,0,1,349.733,90.081Zm-.492.18-.246.09a.033.033,0,0,1-.042-.019.033.033,0,0,1,.019-.042l.246-.09a.033.033,0,0,1,.042.019A.032.032,0,0,1,349.241,90.261Zm-.492.18-.245.09a.033.033,0,0,1-.042-.019.032.032,0,0,1,.019-.042l.246-.09a.034.034,0,0,1,.042.019A.034.034,0,0,1,348.749,90.441Zm-.491.18-.246.089a.032.032,0,0,1-.042-.018.033.033,0,0,1,.019-.042l.246-.09a.033.033,0,0,1,.042.019A.033.033,0,0,1,348.258,90.621Zm-.492.179-.246.09a.032.032,0,1,1-.022-.06l.245-.09a.033.033,0,0,1,.042.019A.031.031,0,0,1,347.766,90.8Zm-.491.18-.246.09a.032.032,0,0,1-.042-.019.031.031,0,0,1,.019-.041l.246-.09a.032.032,0,1,1,.023.06Zm-.492.18-.246.09a.032.032,0,1,1-.023-.06l.246-.09a.033.033,0,0,1,.042.019A.031.031,0,0,1,346.783,91.16Zm-.492.18-.246.09a.033.033,0,0,1-.042-.019.032.032,0,0,1,.02-.041l.246-.09a.033.033,0,0,1,.042.019A.032.032,0,0,1,346.291,91.34Zm-.491.18-.246.09a.033.033,0,0,1-.042-.019.031.031,0,0,1,.019-.041l.246-.09a.033.033,0,0,1,.042.019A.031.031,0,0,1,345.8,91.52Zm-.492.18-.246.09a.033.033,0,0,1-.042-.019.032.032,0,0,1,.019-.041l.246-.09a.033.033,0,0,1,.042.019A.031.031,0,0,1,345.308,91.7Zm-.492.18-.245.09a.033.033,0,0,1-.042-.019.031.031,0,0,1,.019-.041l.246-.09a.033.033,0,0,1,.042.019A.032.032,0,0,1,344.816,91.88Zm-.491.18-.246.09a.033.033,0,0,1-.042-.019.032.032,0,0,1,.019-.041L344.3,92a.033.033,0,0,1,.042.019A.032.032,0,0,1,344.325,92.06Zm-.492.18-.246.09a.033.033,0,0,1-.042-.019.032.032,0,0,1,.02-.041l.245-.09a.033.033,0,0,1,.042.019A.031.031,0,0,1,343.833,92.24Zm-.491.18-.246.09a.033.033,0,0,1-.042-.019.031.031,0,0,1,.019-.041l.246-.09a.032.032,0,0,1,.042.019A.033.033,0,0,1,343.342,92.42Zm-.492.18-.246.09a.033.033,0,0,1-.042-.019.031.031,0,0,1,.019-.041l.246-.09a.032.032,0,1,1,.023.06Zm-.492.18-.246.09a.033.033,0,0,1-.042-.019.032.032,0,0,1,.02-.041l.245-.09a.033.033,0,0,1,.043.019A.032.032,0,0,1,342.358,92.78Zm-.491.18-.246.09a.033.033,0,0,1-.042-.019.032.032,0,0,1,.019-.042l.246-.089a.032.032,0,0,1,.042.018A.033.033,0,0,1,341.867,92.96Zm-.492.18-.246.09a.033.033,0,0,1-.042-.019.033.033,0,0,1,.019-.042l.246-.09a.033.033,0,0,1,.042.019A.032.032,0,0,1,341.375,93.14Zm-.492.18-.245.09a.033.033,0,0,1-.042-.019.032.032,0,0,1,.019-.042l.246-.09a.034.034,0,0,1,.042.019A.033.033,0,0,1,340.883,93.32Zm-.491.18-.246.09a.033.033,0,0,1-.042-.019.033.033,0,0,1,.019-.042l.246-.09a.033.033,0,0,1,.042.019A.033.033,0,0,1,340.392,93.5Zm-.492.18-.246.09a.034.034,0,0,1-.042-.019.033.033,0,0,1,.02-.042l.245-.09a.033.033,0,0,1,.042.019A.032.032,0,0,1,339.9,93.68Zm-.491.18-.246.09a.033.033,0,0,1-.042-.019.032.032,0,0,1,.019-.042l.246-.09a.033.033,0,1,1,.023.061Zm-.492.18-.246.09a.033.033,0,0,1-.042-.019.033.033,0,0,1,.019-.042l.246-.09a.033.033,0,0,1,.042.019A.033.033,0,0,1,338.917,94.04Zm-.492.18-.246.089a.032.032,0,0,1-.042-.018.033.033,0,0,1,.02-.042l.245-.09a.034.034,0,0,1,.043.019A.034.034,0,0,1,338.425,94.22Zm-.491.179-.246.09a.032.032,0,0,1-.042-.019.031.031,0,0,1,.019-.041l.246-.09a.033.033,0,0,1,.042.019A.031.031,0,0,1,337.934,94.4Zm-.492.18-.246.09a.032.032,0,1,1-.023-.06l.246-.09a.033.033,0,0,1,.042.019A.031.031,0,0,1,337.442,94.579Zm-.492.18-.245.09a.032.032,0,0,1-.042-.019.031.031,0,0,1,.019-.041l.246-.09a.033.033,0,0,1,.042.019A.032.032,0,0,1,336.95,94.759Zm-.491.18-.246.09a.033.033,0,0,1-.042-.019.032.032,0,0,1,.019-.041l.246-.09a.033.033,0,0,1,.042.019A.031.031,0,0,1,336.459,94.939Zm-.492.18-.246.09a.033.033,0,0,1-.042-.019.032.032,0,0,1,.02-.041l.245-.09a.033.033,0,0,1,.042.019A.031.031,0,0,1,335.967,95.119Zm-.491.18-.246.09a.033.033,0,0,1-.042-.019.031.031,0,0,1,.019-.041l.246-.09a.032.032,0,1,1,.023.06Zm-.492.18-.246.09a.033.033,0,0,1-.042-.019.032.032,0,0,1,.019-.041l.246-.09a.033.033,0,0,1,.042.019A.032.032,0,0,1,334.984,95.479Zm-.492.18-.246.09a.033.033,0,0,1-.042-.019.032.032,0,0,1,.02-.041l.245-.09a.034.034,0,0,1,.043.019A.032.032,0,0,1,334.492,95.659Zm-.491.18-.246.09a.033.033,0,0,1-.042-.019.031.031,0,0,1,.019-.041l.246-.09a.033.033,0,0,1,.042.019A.032.032,0,0,1,334,95.839Zm-.492.18-.246.09a.033.033,0,0,1-.042-.019.031.031,0,0,1,.019-.041l.246-.09a.032.032,0,0,1,.042.019A.031.031,0,0,1,333.509,96.019Zm-.492.18-.245.09a.034.034,0,0,1-.043-.019.032.032,0,0,1,.02-.041l.246-.09a.032.032,0,1,1,.022.06Zm-.491.18-.246.09a.033.033,0,0,1-.042-.019.031.031,0,0,1,.019-.041l.246-.09a.032.032,0,1,1,.023.06Z" fill="#efecea"/>
      <path id="Path_40" data-name="Path 40" d="M332.034,96.559l-.122.045a.033.033,0,0,1-.042-.019.032.032,0,0,1,.019-.042l.122-.045a.033.033,0,0,1,.042.019A.032.032,0,0,1,332.034,96.559Z" fill="#efecea"/>
    </g>
    <g id="Group_4" data-name="Group 4">
      <path id="Path_41" data-name="Path 41" d="M344.733,69.716,338.8,71.887l-2.653-7.027,5.93-2.171a3.826,3.826,0,0,1,4.9,2.207,3.693,3.693,0,0,1,.238,1.4A3.758,3.758,0,0,1,344.733,69.716Z" fill="#efecea"/>
      <path id="Path_42" data-name="Path 42" d="M337.141,67.49l-.552-1.463-.441-1.167-5.931,2.171a3.732,3.732,0,0,0-2.242,4.82h0a3.826,3.826,0,0,0,4.9,2.207l5.931-2.171Z" fill="#007367"/>
    </g>
    <g id="Group_5" data-name="Group 5">
      <path id="Path_43" data-name="Path 43" d="M350.518,85.141l-5.93,2.17-2.654-7.026,5.93-2.171a3.826,3.826,0,0,1,4.9,2.207,3.654,3.654,0,0,1,.238,1.4A3.756,3.756,0,0,1,350.518,85.141Z" fill="#efecea"/>
      <path id="Path_44" data-name="Path 44" d="M342.927,82.915l-.553-1.463-.441-1.168L336,82.455a3.732,3.732,0,0,0-2.242,4.82h0a3.824,3.824,0,0,0,4.9,2.207l5.931-2.171Z" fill="#007367"/>
    </g>
    <g id="Group_6" data-name="Group 6">
      <path id="Path_45" data-name="Path 45" d="M356.785,100.091l-5.93,2.17L348.2,95.235l5.93-2.171a3.826,3.826,0,0,1,4.9,2.207,3.654,3.654,0,0,1,.238,1.4A3.755,3.755,0,0,1,356.785,100.091Z" fill="#efecea"/>
      <path id="Path_46" data-name="Path 46" d="M349.194,97.865l-.553-1.463-.441-1.168L342.269,97.4a3.732,3.732,0,0,0-2.242,4.82h0a3.826,3.826,0,0,0,4.9,2.208l5.931-2.171Z" fill="#007367"/>
    </g>
    <g id="Group_7" data-name="Group 7">
      <path id="Path_47" data-name="Path 47" d="M371.73,59.749,365.8,61.92l-2.654-7.027,5.93-2.17a3.826,3.826,0,0,1,4.9,2.206,3.654,3.654,0,0,1,.238,1.4A3.754,3.754,0,0,1,371.73,59.749Z" fill="#efecea"/>
      <path id="Path_48" data-name="Path 48" d="M364.139,57.524l-.553-1.463-.441-1.168-5.931,2.171a3.732,3.732,0,0,0-2.242,4.82h0a3.825,3.825,0,0,0,4.9,2.207L365.8,61.92Z" fill="#007367"/>
    </g>
    <g id="Group_8" data-name="Group 8">
      <path id="Path_49" data-name="Path 49" d="M377.515,75.174l-5.93,2.171-2.654-7.027,5.931-2.171a3.825,3.825,0,0,1,4.9,2.207,3.675,3.675,0,0,1,.239,1.4A3.757,3.757,0,0,1,377.515,75.174Z" fill="#efecea"/>
      <path id="Path_50" data-name="Path 50" d="M369.924,72.948l-.552-1.463-.441-1.167L363,72.489a3.732,3.732,0,0,0-2.242,4.82h0a3.826,3.826,0,0,0,4.9,2.207l5.932-2.171Z" fill="#007367"/>
    </g>
    <g id="Group_9" data-name="Group 9">
      <path id="Path_51" data-name="Path 51" d="M383.783,90.124l-5.931,2.171L375.2,85.268l5.931-2.171a3.827,3.827,0,0,1,4.9,2.207,3.693,3.693,0,0,1,.238,1.4A3.758,3.758,0,0,1,383.783,90.124Z" fill="#efecea"/>
      <path id="Path_52" data-name="Path 52" d="M376.191,87.9l-.552-1.463-.441-1.167-5.931,2.171a3.732,3.732,0,0,0-2.242,4.82h0a3.826,3.826,0,0,0,4.9,2.207l5.931-2.171Z" fill="#007367"/>
    </g>
  </g>
</svg>
