<svg xmlns="http://www.w3.org/2000/svg" width="76.204" height="76.212" viewBox="0 0 76.204 76.212">
  <g id="category_51000018301" transform="translate(-677.683 -927.29)">
    <path id="Path_1371" data-name="Path 1371" d="M5637.734,1003.451a.171.171,0,0,1-.012-.232c5.332-6.414,13.879-16,15.334-17.49,1.7-1.749,3.718-3.881,5.921-3.9a.372.372,0,0,1,.267.113.386.386,0,0,1,.113.283,5.324,5.324,0,0,1-1.022,2.777c-.245.344-1.01,1.182-1.278,1.475-2.491,2.7-3.893,3.675-7.676,7.112-3.831,3.47-7.882,6.94-11.415,9.876a.172.172,0,0,1-.232-.011" transform="translate(-4960)" fill="#573d83"/>
    <path id="Path_1372" data-name="Path 1372" d="M5645.844,1003.4a.115.115,0,0,1-.008-.157c3.621-4.355,9.424-10.863,10.412-11.875,1.168-1.2,2.56-2.673,4.078-2.65a.123.123,0,0,1,.081.035l.084.084a.113.113,0,0,1,.035.081,3.564,3.564,0,0,1-.694,1.955c-.166.233-.686.8-.868,1-1.691,1.834-2.643,2.495-5.212,4.829-2.6,2.355-5.351,4.711-7.75,6.7a.117.117,0,0,1-.158-.008" transform="translate(-4960)" fill="#573d83"/>
    <path id="Path_1373" data-name="Path 1373" d="M5637.78,995.338a.116.116,0,0,1-.008-.158c3.62-4.355,9.423-10.863,10.411-11.875,1.168-1.2,2.56-2.673,4.078-2.65a.121.121,0,0,1,.082.036l.083.083a.112.112,0,0,1,.035.081,3.555,3.555,0,0,1-.694,1.955c-.166.233-.686.8-.868,1-1.691,1.835-2.643,2.5-5.211,4.83-2.6,2.354-5.352,4.711-7.751,6.7a.116.116,0,0,1-.157-.007" transform="translate(-4960)" fill="#573d83"/>
    <path id="Path_1374" data-name="Path 1374" d="M5689.888,973.791c-5.614,3.388-11.9,6.634-14.958,8.175l1.267,15.578,11.893-11.893a7.81,7.81,0,0,0,2.262-6.156Z" transform="translate(-4960)" fill="#7c5da1"/>
    <path id="Path_1375" data-name="Path 1375" d="M5654.313,972.536l14.328,14.328,2.136-4.225L5658.538,970.4Z" transform="translate(-4960)" fill="#7c5da1"/>
    <path id="Path_1376" data-name="Path 1376" d="M5701.253,945.252a.956.956,0,0,0-.143.009v.322h.121c.107,0,.285-.022.285-.165,0-.078-.029-.166-.263-.166" transform="translate(-4960)" fill="#0b8ece"/>
    <path id="Path_1377" data-name="Path 1377" d="M5667.387,951.289l-5.705-.465a7.811,7.811,0,0,0-6.156,2.262l-11.894,11.893,15.579,1.268c1.542-3.059,4.787-9.343,8.176-14.958" transform="translate(-4960)" fill="#7c5da1"/>
    <path id="Path_1378" data-name="Path 1378" d="M5701.594,946.354l-.01-.013a.815.815,0,0,1-.1-.344c-.022-.1-.074-.164-.256-.164h-.114v.521h-.3v-1.309l.029-.005a2.424,2.424,0,0,1,.439-.038.649.649,0,0,1,.414.1.351.351,0,0,1,.141.289.334.334,0,0,1-.211.309.444.444,0,0,1,.173.294.956.956,0,0,0,.085.3l.036.055Zm-.3-1.631h-.007a.944.944,0,0,0,.015,1.888h.013a.849.849,0,0,0,.6-.245.962.962,0,0,0,.279-.7.905.905,0,0,0-.9-.948" transform="translate(-4960)" fill="#0b8ece"/>
    <path id="Path_1379" data-name="Path 1379" d="M5713.649,927.527a40.745,40.745,0,0,0-14.339,1,48.456,48.456,0,0,1,13.339,13.339,40.732,40.732,0,0,0,1-14.339" transform="translate(-4960)" fill="#573d83"/>
    <path id="Path_1380" data-name="Path 1380" d="M5696.579,929.309a48.009,48.009,0,0,0-22.07,15.29c-5.723,6.853-14.317,24.431-14.317,24.431l11.954,11.955s17.578-8.595,24.431-14.318a48.013,48.013,0,0,0,15.291-22.069,45.878,45.878,0,0,0-15.289-15.289" transform="translate(-4960)" fill="#7c5da1"/>
    <g id="Group_493" data-name="Group 493" transform="translate(-4960)">
      <path id="Path_1381" data-name="Path 1381" d="M5701.291,946.9a1.227,1.227,0,1,1,0-2.454h.008a1.214,1.214,0,0,1,1.234,1.219,1.226,1.226,0,0,1-1.242,1.235" fill="#efecea"/>
      <path id="Path_1382" data-name="Path 1382" d="M5698.139,945.351v.026a2.067,2.067,0,0,1-.929,1.7,2.025,2.025,0,0,1-.65.284l-.066.015c-1.514.382-3.969,4.508-4,4.559-.563,1.072-1.421,2.986-3.115,2.965a3.02,3.02,0,0,1-3-3.078c.021-1.694,1.956-2.5,3.043-3.037.051-.026,4.238-2.375,4.659-3.877.007-.023.011-.044.017-.066a2.069,2.069,0,0,1,2-1.529h.026a2.011,2.011,0,0,1,2.01,2.035Z" fill="#efecea"/>
      <path id="Path_1383" data-name="Path 1383" d="M5694.535,957.879a7.812,7.812,0,1,1-5.451-13.408h.1a7.775,7.775,0,0,1,3.336.8,11.793,11.793,0,0,1-1.48,1.2c-.085.061-.171.12-.256.179a5.882,5.882,0,1,0,3.932,3.924l.141-.191a11.5,11.5,0,0,1,1.269-1.476,7.808,7.808,0,0,1-1.59,8.973" fill="#efecea"/>
    </g>
  </g>
</svg>
