<?xml version="1.0" standalone="no"?>
<!DOCTYPE svg PUBLIC "-//W3C//DTD SVG 20010904//EN"
 "http://www.w3.org/TR/2001/REC-SVG-20010904/DTD/svg10.dtd">
<svg version="1.0" xmlns="http://www.w3.org/2000/svg"
 width="344.000000pt" height="313.000000pt" viewBox="0 0 344.000000 313.000000"
 preserveAspectRatio="xMidYMid meet">
<metadata>
Created by potrace 1.16, written by Peter Selinger 2001-2019
</metadata>
<g transform="translate(0.000000,313.000000) scale(0.100000,-0.100000)"
fill="#000000" stroke="none">
<path d="M1807 2684 c-4 -4 -7 -28 -7 -53 0 -25 -7 -89 -15 -141 -49 -326
-221 -581 -522 -773 -62 -40 -113 -75 -113 -80 0 -4 57 -97 128 -207 70 -110
146 -231 170 -270 l43 -69 87 55 c263 167 446 222 699 211 136 -5 254 -30 352
-73 64 -29 97 -30 110 -6 12 23 14 19 -134 250 -65 103 -251 394 -413 647
-161 253 -301 471 -311 485 -18 24 -60 38 -74 24z"/>
<path d="M2243 2290 c-21 -5 -11 -23 128 -240 83 -129 154 -242 159 -250 7
-11 14 -3 32 35 32 69 33 208 2 275 -26 57 -96 126 -153 152 -49 22 -134 37
-168 28z"/>
</g>
</svg>
