<svg xmlns="http://www.w3.org/2000/svg" width="76.203" height="76.211" viewBox="0 0 76.203 76.211">
  <g id="_15" data-name="15" transform="translate(-607.636 -694.694)">
    <path id="Path_140" data-name="Path 140" d="M607.687,770.855a.173.173,0,0,1-.012-.232c5.333-6.414,13.88-16,15.334-17.489,1.7-1.75,3.719-3.882,5.921-3.9a.374.374,0,0,1,.267.113.381.381,0,0,1,.113.283,5.315,5.315,0,0,1-1.022,2.778c-.244.343-1.01,1.182-1.277,1.475-2.491,2.7-3.893,3.674-7.676,7.112-3.832,3.469-7.883,6.939-11.416,9.875a.172.172,0,0,1-.232-.011" fill="#d14124"/>
    <path id="Path_141" data-name="Path 141" d="M615.8,770.807a.116.116,0,0,1-.008-.158c3.62-4.355,9.423-10.863,10.411-11.875,1.168-1.2,2.56-2.673,4.078-2.65a.121.121,0,0,1,.082.036l.083.083a.114.114,0,0,1,.035.081,3.555,3.555,0,0,1-.694,1.955c-.166.233-.686.8-.868,1-1.691,1.835-2.642,2.495-5.211,4.829-2.6,2.355-5.352,4.712-7.751,6.705a.116.116,0,0,1-.157-.007" fill="#d14124"/>
    <path id="Path_142" data-name="Path 142" d="M607.733,762.742a.117.117,0,0,1-.008-.158c3.621-4.354,9.424-10.862,10.411-11.874,1.169-1.2,2.561-2.673,4.079-2.65a.118.118,0,0,1,.081.035l.084.084a.116.116,0,0,1,.035.081,3.56,3.56,0,0,1-.7,1.955c-.165.233-.685.8-.867,1-1.691,1.834-2.643,2.495-5.212,4.829-2.6,2.355-5.351,4.711-7.751,6.705a.116.116,0,0,1-.157-.008" fill="#d14124"/>
    <path id="Path_143" data-name="Path 143" d="M659.842,741.2c-5.614,3.388-11.9,6.634-14.959,8.175l1.267,15.578,11.894-11.893a7.812,7.812,0,0,0,2.262-6.156Z" fill="#ed8b00"/>
    <path id="Path_144" data-name="Path 144" d="M624.266,739.94l14.328,14.328,2.136-4.225L628.492,737.8Z" fill="#ed8b00"/>
    <path id="Path_145" data-name="Path 145" d="M671.207,712.656a.923.923,0,0,0-.143.01v.321h.121c.106,0,.285-.021.285-.165,0-.077-.03-.166-.263-.166" fill="#0b8ece"/>
    <path id="Path_146" data-name="Path 146" d="M637.34,718.693l-5.705-.464a7.81,7.81,0,0,0-6.156,2.262l-11.893,11.893,15.578,1.267c1.542-3.059,4.787-9.343,8.176-14.958" fill="#ed8b00"/>
    <path id="Path_147" data-name="Path 147" d="M671.548,713.758l-.011-.012a.843.843,0,0,1-.1-.344c-.022-.1-.075-.165-.256-.165h-.114v.521h-.3v-1.309l.029-.005a2.425,2.425,0,0,1,.438-.037.656.656,0,0,1,.414.1.351.351,0,0,1,.142.29.333.333,0,0,1-.212.308.448.448,0,0,1,.174.294,1,1,0,0,0,.084.3l.037.054Zm-.3-1.631h-.007a.944.944,0,0,0,.014,1.888h.013a.846.846,0,0,0,.6-.244.968.968,0,0,0,.28-.7.907.907,0,0,0-.9-.948" fill="#0b8ece"/>
    <path id="Path_148" data-name="Path 148" d="M683.6,694.931a40.762,40.762,0,0,0-14.338,1A48.448,48.448,0,0,1,682.6,709.271a40.774,40.774,0,0,0,1-14.34" fill="#d14124"/>
    <path id="Path_149" data-name="Path 149" d="M666.532,696.713A48,48,0,0,0,644.463,712c-5.724,6.853-14.318,24.431-14.318,24.431L642.1,748.39s17.579-8.6,24.431-14.318A48.025,48.025,0,0,0,681.822,712a45.871,45.871,0,0,0-15.29-15.289" fill="#ed8b00"/>
    <g id="Group_20" data-name="Group 20">
      <path id="Path_150" data-name="Path 150" d="M671.245,714.3a1.227,1.227,0,1,1,0-2.453h.007a1.227,1.227,0,1,1-.007,2.453" fill="#efecea"/>
      <path id="Path_151" data-name="Path 151" d="M668.093,712.755v.026a2.063,2.063,0,0,1-.928,1.7,2.036,2.036,0,0,1-.65.284l-.067.016c-1.513.381-3.969,4.507-4,4.558-.562,1.072-1.42,2.986-3.115,2.965a3.019,3.019,0,0,1-3-3.078c.022-1.693,1.957-2.5,3.043-3.037.051-.026,4.239-2.374,4.66-3.877.006-.022.011-.043.017-.066a2.064,2.064,0,0,1,2-1.528h.026a2.009,2.009,0,0,1,2.01,2.035Z" fill="#efecea"/>
      <path id="Path_152" data-name="Path 152" d="M664.488,725.283a7.811,7.811,0,1,1-5.451-13.407h.1a7.779,7.779,0,0,1,3.336.8,11.954,11.954,0,0,1-1.48,1.2l-.257.178a5.889,5.889,0,1,0,3.932,3.925c.046-.064.094-.128.142-.192a11.356,11.356,0,0,1,1.269-1.475,7.809,7.809,0,0,1-1.591,8.972" fill="#efecea"/>
    </g>
  </g>
</svg>
