<svg xmlns="http://www.w3.org/2000/svg" width="48.4" height="48.4" viewBox="0 0 48.4 48.4"><defs><style>.a{fill:#2e2b79;stroke:#2e2b79;stroke-width:0.4px;}</style></defs><g transform="translate(0.2 0.201)"><path class="a" d="M47.13,17.576A23.974,23.974,0,0,0,24,0a24.182,24.182,0,0,0-4.837.487A23.883,23.883,0,0,0,10.582,4.1a24.069,24.069,0,0,0-8.7,10.559,23.881,23.881,0,0,0-1.4,4.506,24.169,24.169,0,0,0,.65,12.156,23.9,23.9,0,0,0,3.177,6.409.723.723,0,0,0,.083.1.712.712,0,0,0,.3.179h0l.007,0a.7.7,0,0,0,.218.026h.01a.682.682,0,0,0,.3-.083h0l.005,0a.694.694,0,0,0,.21-.177l.005-.007a.7.7,0,0,0,.148-.442v0a.7.7,0,0,0-.109-.362c-.007-.01-.014-.022-.023-.033A22.6,22.6,0,0,1,35.246,4.4l.01.006A22.677,22.677,0,0,1,46.594,24,22.594,22.594,0,0,1,11.1,42.551a.714.714,0,0,0-.715-.052L2.293,46.524a.629.629,0,0,1-.279.07h0a.631.631,0,0,1-.606-.609.634.634,0,0,1,.07-.279l2.785-5.541a.7.7,0,1,0-1.256-.631L.221,45.072A2.021,2.021,0,0,0,2.015,48h0a2.033,2.033,0,0,0,.9-.216l7.726-3.842A23.882,23.882,0,0,0,24,48a24.182,24.182,0,0,0,4.837-.487A23.883,23.883,0,0,0,37.419,43.9a24.072,24.072,0,0,0,8.7-10.559A24.107,24.107,0,0,0,47.13,17.576Zm0,0" transform="translate(0)"/><path class="a" d="M105.839,117.462a.7.7,0,0,0-.53.618,14.1,14.1,0,0,0,0,2.6.7.7,0,0,0,.53.618l1.3.326a12.523,12.523,0,0,0,.517,1.934l-.966.935a.7.7,0,0,0-.149.8,14.194,14.194,0,0,0,1.3,2.254.7.7,0,0,0,.767.269l1.3-.371a12.433,12.433,0,0,0,1.412,1.414l-.37,1.293a.7.7,0,0,0,.27.767,14.139,14.139,0,0,0,2.255,1.3.715.715,0,0,0,.8-.15l.935-.967a12.509,12.509,0,0,0,1.93.515l.326,1.3a.7.7,0,0,0,.619.529,14.031,14.031,0,0,0,2.6,0,.7.7,0,0,0,.619-.53l.326-1.3a12.594,12.594,0,0,0,1.927-.516l.934.965a.716.716,0,0,0,.8.149,14.068,14.068,0,0,0,2.257-1.306.7.7,0,0,0,.269-.767l-.371-1.294a12.6,12.6,0,0,0,1.407-1.407l1.293.369a.7.7,0,0,0,.767-.269,14.157,14.157,0,0,0,1.306-2.259.7.7,0,0,0-.15-.8l-.967-.935a12.324,12.324,0,0,0,.514-1.923l1.3-.326a.7.7,0,0,0,.53-.618,14.2,14.2,0,0,0,0-2.608.706.706,0,0,0-.53-.619l-1.3-.326a12.55,12.55,0,0,0-.514-1.923l.967-.935a.7.7,0,0,0,.15-.8,14.19,14.19,0,0,0-1.306-2.26.7.7,0,0,0-.767-.269l-1.293.369a12.767,12.767,0,0,0-1.407-1.407l.371-1.295a.7.7,0,0,0-.269-.766,14.137,14.137,0,0,0-2.257-1.307.717.717,0,0,0-.8.15l-.934.966a12.393,12.393,0,0,0-1.927-.516l-.326-1.3a.7.7,0,0,0-.618-.53,14.079,14.079,0,0,0-2.606,0,.7.7,0,0,0-.618.53l-.326,1.3a12.34,12.34,0,0,0-1.93.515l-.935-.967a.7.7,0,0,0-.8-.15,14.135,14.135,0,0,0-2.256,1.3.7.7,0,0,0-.269.767l.37,1.293a12.591,12.591,0,0,0-1.414,1.413l-1.294-.369a.7.7,0,0,0-.767.269,14.149,14.149,0,0,0-1.3,2.254.7.7,0,0,0,.149.8l.966.935a12.507,12.507,0,0,0-.517,1.934Zm2.094.925a.7.7,0,0,0,.525-.582,10.989,10.989,0,0,1,.675-2.526.7.7,0,0,0-.163-.767l-.933-.9a12.91,12.91,0,0,1,.68-1.174l1.249.357a.717.717,0,0,0,.745-.241,11.148,11.148,0,0,1,1.85-1.848.7.7,0,0,0,.241-.745l-.357-1.249a12.778,12.778,0,0,1,1.176-.679l.9.933a.7.7,0,0,0,.766.164,11.007,11.007,0,0,1,2.523-.673.7.7,0,0,0,.582-.525l.315-1.258a12.387,12.387,0,0,1,1.36,0l.315,1.258a.7.7,0,0,0,.582.526,11.011,11.011,0,0,1,2.519.674.714.714,0,0,0,.767-.163l.9-.933a13.023,13.023,0,0,1,1.178.682l-.357,1.25-.007.022a.707.707,0,0,0,.247.723,11.245,11.245,0,0,1,1.842,1.843.716.716,0,0,0,.745.241l1.249-.357a12.615,12.615,0,0,1,.682,1.179l-.933.9a.709.709,0,0,0-.164.767,10.947,10.947,0,0,1,.672,2.515.7.7,0,0,0,.525.582l1.258.315c.012.228.019.458.019.682s-.007.453-.019.682c-1.411.353-1.241.308-1.326.335h0a.7.7,0,0,0-.445.5,0,0,0,0,1,0,0,11.207,11.207,0,0,1-.667,2.533.094.094,0,0,0-.007.016.707.707,0,0,0,.156.787l.933.9a12.529,12.529,0,0,1-.682,1.18l-1.249-.357a.717.717,0,0,0-.745.241,11.1,11.1,0,0,1-1.842,1.843.7.7,0,0,0-.24.745l.357,1.25a13.035,13.035,0,0,1-1.178.682l-.9-.933a.7.7,0,0,0-.767-.164,11.023,11.023,0,0,1-2.519.675.7.7,0,0,0-.582.525l-.315,1.259a12.96,12.96,0,0,1-1.36,0l-.315-1.258a.7.7,0,0,0-.582-.525,10.985,10.985,0,0,1-2.523-.673.718.718,0,0,0-.766.164l-.9.933a12.863,12.863,0,0,1-1.176-.679l.357-1.249a.7.7,0,0,0-.242-.745,11.27,11.27,0,0,1-1.852-1.853.7.7,0,0,0-.743-.236l-1.249.357a12.948,12.948,0,0,1-.68-1.174l.933-.9a.7.7,0,0,0,.163-.767,10.987,10.987,0,0,1-.675-2.527.7.7,0,0,0-.525-.582l-1.259-.315c-.011-.227-.018-.455-.018-.68s.007-.452.018-.678Zm0,0" transform="translate(-95.382 -95.381)"/><path class="a" d="M186.143,193.38h0a7.225,7.225,0,1,0-3.913-13.295.7.7,0,1,0,.761,1.182,5.815,5.815,0,1,1-1.753,1.766.7.7,0,1,0-1.187-.754,7.226,7.226,0,0,0,6.087,11.1Zm0,0" transform="translate(-162.155 -162.156)"/><path class="a" d="M217.48,221.469a3.984,3.984,0,1,0-3.984-3.984A3.989,3.989,0,0,0,217.48,221.469Zm0-6.563a2.578,2.578,0,1,1-2.578,2.578A2.581,2.581,0,0,1,217.48,214.906Zm0,0" transform="translate(-193.481 -193.485)"/></g></svg>