<svg xmlns="http://www.w3.org/2000/svg" width="48" height="47.438" viewBox="0 0 48 47.438"><defs><style>.a{fill:#2e2b79;}</style></defs><path class="a" d="M44.471,59.838h-.03c0-1.927-1.088-2.234-2.725-2.7l-.033-.01c-.522-.149-1.048-.275-1.592-.382.007-.133.011-.269.011-.409a6.338,6.338,0,0,0-1.826-4.633,6.956,6.956,0,0,0-4.969-1.885A6.94,6.94,0,0,0,28.34,51.7a6.339,6.339,0,0,0-1.827,4.634c0,.231.011.452.03.664a11.768,11.768,0,0,0-2.545.84c-1.67-.821-4.547-1.362-8.37-1.57a.708.708,0,1,0-.077,1.415c4.544.248,6.731.914,7.739,1.387V85.308a26.641,26.641,0,0,0-7.975-1.344A28.392,28.392,0,0,0,4.978,85.355V59.85c0-.638.136-.746.217-.81A5.281,5.281,0,0,1,6.67,58.5l.036-.01a23.725,23.725,0,0,1,5.438-.8.709.709,0,0,0-.077-1.415,25.021,25.021,0,0,0-5.748.852l-.036.01c-1.635.464-2.717.772-2.722,2.7H3.528A3.532,3.532,0,0,0,0,63.366V88.027a4.479,4.479,0,0,0,4.717,4.535L24,92.587h0l7.761-.008a.708.708,0,0,0,0-1.417h0l-7.052.007v-2.16H42.27A2.191,2.191,0,0,0,44.44,86.8V61.254h.03a2.115,2.115,0,0,1,2.113,2.112V88.027a3.076,3.076,0,0,1-3.3,3.118l-8.239.011a.708.708,0,0,0,0,1.417h0l8.239-.011A4.48,4.48,0,0,0,48,88.027V63.366a3.533,3.533,0,0,0-3.53-3.529ZM29.334,52.715A5.522,5.522,0,0,1,33.3,51.237h.021a5.524,5.524,0,0,1,3.965,1.478,4.955,4.955,0,0,1,1.4,3.625,5.6,5.6,0,0,1-1.738,3.939,6.991,6.991,0,0,0-1.925,3.794H34.015V59.165h1.112a.708.708,0,0,0,0-1.417H31.414a.708.708,0,1,0,0,1.417H32.6v4.909h-1a6.992,6.992,0,0,0-1.925-3.794A5.6,5.6,0,0,1,27.93,56.34a4.955,4.955,0,0,1,1.4-3.625ZM31.1,65.49h4.423a1.03,1.03,0,1,1,0,2.059H31.1a1.03,1.03,0,1,1,0-2.059Zm-2.517-4.306a5.62,5.62,0,0,1,1.608,3.065,2.446,2.446,0,0,0,.909,4.718h4.423a2.446,2.446,0,0,0,.909-4.718,5.621,5.621,0,0,1,1.608-3.065,8.3,8.3,0,0,0,1.82-3.038c.49.1.965.211,1.437.346l.035.01a5.293,5.293,0,0,1,1.478.539c.081.064.217.171.217.81v25.5a28.411,28.411,0,0,0-10.34-1.392,26.661,26.661,0,0,0-7.975,1.344V59.074a10.6,10.6,0,0,1,2.128-.685,8.682,8.682,0,0,0,1.743,2.795ZM23.291,86.845v.747H5.728a.767.767,0,0,1-.746-.715c5.863-2.452,15.162-1.519,18.309-.033ZM1.417,88.027V63.366a2.114,2.114,0,0,1,2.11-2.112h.033V86.8a2.189,2.189,0,0,0,2.167,2.206H23.291v2.16L4.719,91.146a3.076,3.076,0,0,1-3.3-3.118Zm40.853-.435H24.708v-.747c3.149-1.486,12.449-2.418,18.312.032a.779.779,0,0,1-.749.715Zm0,0" transform="translate(-0.001 -45.149)"/><path class="a" d="M90.075,292.325a13.939,13.939,0,0,0-5.758-1.184,16.968,16.968,0,0,0-7.19,1.153.708.708,0,1,0,.592,1.287c3.705-1.7,9.937-1.022,11.644-.031a.708.708,0,1,0,.712-1.225Zm0,0" transform="translate(-69.523 -263.834)"/><path class="a" d="M90.075,347.788a13.94,13.94,0,0,0-5.758-1.184,16.962,16.962,0,0,0-7.19,1.153.708.708,0,1,0,.592,1.287c3.705-1.7,9.937-1.022,11.644-.031a.709.709,0,1,0,.712-1.225Zm0,0" transform="translate(-69.523 -314.098)"/><path class="a" d="M90.076,236.851a13.936,13.936,0,0,0-5.758-1.185,16.933,16.933,0,0,0-7.19,1.154.709.709,0,0,0,.593,1.287c3.7-1.706,9.936-1.023,11.644-.031a.708.708,0,1,0,.712-1.225Zm0,0" transform="translate(-69.523 -213.56)"/><path class="a" d="M290.075,293.552c1.705-.992,7.936-1.674,11.641.031a.709.709,0,1,0,.593-1.287,16.947,16.947,0,0,0-7.189-1.153,13.911,13.911,0,0,0-5.757,1.184.708.708,0,1,0,.712,1.225Zm0,0" transform="translate(-261.916 -263.836)"/><path class="a" d="M302.307,347.758a16.955,16.955,0,0,0-7.189-1.153,13.919,13.919,0,0,0-5.757,1.184.708.708,0,1,0,.712,1.225c1.705-.992,7.935-1.674,11.641.031a.708.708,0,1,0,.592-1.287Zm0,0" transform="translate(-261.915 -314.098)"/><path class="a" d="M348.47,3.276a.708.708,0,0,0,.709-.708V.709a.708.708,0,1,0-1.417,0V2.568A.708.708,0,0,0,348.47,3.276Zm0,0" transform="translate(-315.159 0)"/><path class="a" d="M270.924,25.983a.708.708,0,1,0,1-1l-1.318-1.317a.709.709,0,0,0-1,1Zm0,0" transform="translate(-244.143 -21.258)"/><path class="a" d="M412.772,26.191a.705.705,0,0,0,.5-.208l1.315-1.317a.708.708,0,1,0-1-1l-1.315,1.317a.709.709,0,0,0,.5,1.209Zm0,0" transform="translate(-373.433 -21.257)"/><path class="a" d="M76.779,182.286a.708.708,0,0,0,.94.348c3.7-1.7,9.936-1.021,11.645-.031a.708.708,0,1,0,.71-1.226,13.962,13.962,0,0,0-5.757-1.182,16.966,16.966,0,0,0-7.19,1.152.709.709,0,0,0-.348.94Zm0,0" transform="translate(-69.522 -163.289)"/></svg>