<svg xmlns="http://www.w3.org/2000/svg" width="36.642" height="48" viewBox="0 0 36.642 48"><defs><style>.a{fill:#2e2b79;}</style></defs><g transform="translate(0)"><path class="a" d="M85.857,1.241h0a2.213,2.213,0,0,0-2.407.366L80.33,4.369,76.086.573a2.245,2.245,0,0,0-3,0L68.849,4.366,64.608.573a2.246,2.246,0,0,0-3,0l-4.245,3.8L54.243,1.607a2.232,2.232,0,0,0-3.715,1.684V44.709a2.235,2.235,0,0,0,3.72,1.684l3.119-2.762,4.244,3.8a2.245,2.245,0,0,0,3,0l4.241-3.793,4.241,3.793a2.246,2.246,0,0,0,3,0l4.245-3.8,3.122,2.762a2.232,2.232,0,0,0,3.715-1.684V3.291A2.213,2.213,0,0,0,85.857,1.241Zm-4.04,40.705a2.244,2.244,0,0,0-2.985.008l-4.244,3.8-4.241-3.793a2.246,2.246,0,0,0-3,0L63.11,45.751l-4.246-3.8a2.233,2.233,0,0,0-2.976-.008l-3.111,2.761V38.717L52.765,3.291l3.116,2.761a2.244,2.244,0,0,0,2.985-.008l4.244-3.8,4.241,3.793a2.246,2.246,0,0,0,3,0l4.241-3.793,4.246,3.8a2.233,2.233,0,0,0,2.976.008l3.111-2.762V31.762l.011,12.946Z" transform="translate(-50.529)"/></g><g transform="translate(6.542 22.876)"><path class="a" d="M131.169,203.527H109.86a1.124,1.124,0,1,0,0,2.248h21.309a1.124,1.124,0,0,0,0-2.248Z" transform="translate(-108.736 -203.527)"/></g><g transform="translate(6.542 16.132)"><path class="a" d="M121.053,143.527H109.86a1.124,1.124,0,1,0,0,2.248h11.193a1.124,1.124,0,0,0,0-2.248Z" transform="translate(-108.736 -143.527)"/></g><g transform="translate(6.542 29.62)"><path class="a" d="M131.169,263.527H109.86a1.124,1.124,0,1,0,0,2.248h21.309a1.124,1.124,0,0,0,0-2.248Z" transform="translate(-108.736 -263.527)"/></g></svg>