<?xml version="1.0" encoding="UTF-8"?>
<svg width="77px" height="49px" viewBox="0 0 77 49" version="1.1" xmlns="http://www.w3.org/2000/svg" xmlns:xlink="http://www.w3.org/1999/xlink">
    <title>Asset 2</title>
    <g id="Cognito-16---Support-V2" stroke="none" stroke-width="1" fill="none" fill-rule="evenodd">
        <g id="Support-2" transform="translate(-596.000000, -408.000000)">
            <g id="Asset-2" transform="translate(596.000000, 408.000000)">
                <path d="M9.54,0 L66.72,0 C69.0561645,0 70.95,1.89383551 70.95,4.23 L70.95,39.42 C70.95,41.7561645 69.0561645,43.65 66.72,43.65 L9.54,43.65 C7.20383551,43.65 5.31,41.7561645 5.31,39.42 L5.31,4.23 C5.32634699,1.90064025 7.21064025,0.0163469866 9.54,0 Z" id="Path" fill="#2C3E50"></path>
                <path d="M10.35,2.99969669 L66,2.99969669 C67.0487806,2.99969669 67.9036128,3.8413474 67.92,4.89 L67.92,38.49 C67.92,39.5338182 67.0738182,40.38 66.03,40.38 L10.32,40.38 C9.27618182,40.38 8.43,39.5338182 8.43,38.49 L8.43,5.01 C8.39638939,4.48303628 8.584758,3.96604022 8.94948854,3.58421293 C9.31421908,3.20238565 9.8220501,2.99054772 10.35,2.99969669 Z" id="Path" fill="#D2DBE4"></path>
                <path d="M76.41,43.65 L1.04538773e-15,43.65 L1.04538773e-15,43.65 C-0.0240884328,44.9492885 0.473171199,46.2041065 1.38072173,47.1342049 C2.28827225,48.0643032 3.53051159,48.5922016 4.83,48.6 L71.55,48.6 C74.2272917,48.5836247 76.3936247,46.4172917 76.41,43.74 L76.41,43.65 Z" id="Path" fill="#121220"></path>
                <rect id="Rectangle" fill="#ECF0F1" fill-rule="nonzero" x="29.76" y="43.65" width="16.86" height="1"></rect>
                <path d="M38.13,2.99969669 L38.13,40.53 L10.32,40.53 C9.27618182,40.53 8.43,39.6838182 8.43,38.64 L8.43,5.01 C8.39638939,4.48303628 8.584758,3.96604022 8.94948854,3.58421293 C9.31421908,3.20238565 9.8220501,2.99054772 10.35,2.99969669 L38.13,2.99969669 Z" id="Path" fill="#D2DBE4"></path>
                <rect id="Rectangle" fill="#FFFFFF" fill-rule="nonzero" x="18.48" y="11.52" width="39.3" height="23.46"></rect>
                <rect id="Rectangle" fill="#045EB8" fill-rule="nonzero" x="18.48" y="8.16" width="39.3" height="3.39"></rect>
                <path d="M28.44,17.13 L28.44,17.13 C28.9369466,17.1278118 29.3534156,17.5052368 29.4,18 L29.4,18 C29.4,18.5301934 28.9701934,18.96 28.44,18.96 L28.44,18.96 C27.9098066,18.96 27.48,18.5301934 27.48,18 L27.48,18 C27.5265844,17.5052368 27.9430534,17.1278118 28.44,17.13 Z" id="Path" fill="#9B59B6"></path>
                <path d="M28.44,22.29 L28.44,22.29 C28.6998919,22.2898731 28.9487305,22.3951233 29.1296532,22.5816999 C29.310576,22.7682764 29.4081217,23.020235 29.4,23.28 L29.4,23.28 C29.4,23.8101934 28.9701934,24.24 28.44,24.24 L28.44,24.24 C27.9164216,24.2243604 27.4956396,23.8035784 27.48,23.28 L27.48,23.28 C27.4797542,22.7447427 27.9049885,22.3062199 28.44,22.29 L28.44,22.29 Z" id="Path" fill="#FFCB05"></path>
                <path d="M28.44,27.81 L28.44,27.81 C28.9701934,27.81 29.4,28.2398066 29.4,28.77 L29.4,28.77 C29.4,29.3001934 28.9701934,29.73 28.44,29.73 L28.44,29.73 C27.9098066,29.73 27.48,29.3001934 27.48,28.77 L27.48,28.77 C27.48,28.2398066 27.9098066,27.81 28.44,27.81 Z" id="Path" fill="#6699FF"></path>
                <rect id="Rectangle" fill="#95A5A6" fill-rule="nonzero" x="31.38" y="17.61" width="14.94" height="1"></rect>
                <rect id="Rectangle" fill="#95A5A6" fill-rule="nonzero" x="31.38" y="22.77" width="16.17" height="1"></rect>
                <rect id="Rectangle" fill="#95A5A6" fill-rule="nonzero" x="31.38" y="28.29" width="12.72" height="1"></rect>
            </g>
        </g>
    </g>
</svg>