<?xml version="1.0" encoding="UTF-8"?>
<svg width="229px" height="28px" viewBox="0 0 229 28" version="1.1" xmlns="http://www.w3.org/2000/svg" xmlns:xlink="http://www.w3.org/1999/xlink">
    <title>Group 11</title>
    <defs>
        <polygon id="path-1" points="0 25 145 25 145 0 0 0"></polygon>
    </defs>
    <g id="Cognito-16---Support-V2" stroke="none" stroke-width="1" fill="none" fill-rule="evenodd">
        <g id="Group-8">
            <g id="Group-Copy" transform="translate(0.000000, 3.000000)">
                <path d="M70.6941025,17.7206498 C70.3647134,18.1005415 69.9059178,18.4649024 69.3176144,18.8128129 C68.7295135,19.1611321 68.0548379,19.446102 67.2940938,19.6676203 C66.533046,19.8890365 65.7213696,20 64.8588622,20 C63.3841547,20 62.0548524,19.6479003 60.8706514,18.9434965 C59.6861466,18.2393992 58.7448612,17.2458363 58.047099,15.9636252 C57.3489317,14.6816185 57,13.1779912 57,11.4525391 C57,10.2338817 57.2118297,9.11014611 57.6353879,8.08102585 C58.0589461,7.05231429 58.6471482,6.15786247 59.3999942,5.39807908 C60.1530428,4.6382957 61.0154489,4.0488403 61.9883265,3.629202 C62.9606978,3.21007459 63.9882542,3 65.0706919,3 C65.9646902,3 66.7999595,3.13875549 67.5764997,3.41565342 C68.3529386,3.69265352 69.0353098,4.0488403 69.6235119,4.4840094 C70.211714,4.91948503 70.6705096,5.3824461 71,5.87299479 L69.3059698,7.65362215 C68.725362,7.05231429 68.0823798,6.55379585 67.3764158,6.15786247 C66.6706543,5.7623378 65.9018096,5.56432002 65.0706919,5.56432002 C64.1295077,5.56432002 63.2390534,5.80167569 62.4000376,6.2765914 C61.5607181,6.75140492 60.8823972,7.42822111 60.3647712,8.30663125 C59.8471453,9.18504138 59.5883323,10.2338817 59.5883323,11.4525391 C59.5883323,12.78216 59.8507905,13.8902626 60.3766183,14.7765403 C60.9019398,15.6631246 61.6000058,16.323899 62.4706138,16.7590682 C63.3412217,17.1947481 64.2783556,17.4120772 65.2823191,17.4120772 C66.2077071,17.4120772 67.023535,17.2261163 67.7294991,16.85399 C68.4352606,16.4823746 68.9999711,16.0745887 69.4235292,15.6313477 L70.6941025,17.7206498 Z" id="Fill-1" fill="#FFFFFF"></path>
                <path d="M82.448604,13.5000512 C82.4646032,12.658932 82.2985465,11.9166897 81.950434,11.2738365 C81.6020077,10.6308808 81.1279933,10.1309635 80.5290181,9.7738798 C79.9294155,9.4166936 79.2570323,9.23810049 78.5120778,9.23810049 C77.7668096,9.23810049 77.0905574,9.4166936 76.4832166,9.7738798 C75.8756666,10.1309635 75.3976786,10.6308808 75.0494615,11.2738365 C74.7009307,11.9166897 74.5349786,12.658932 74.5512914,13.5000512 C74.5349786,14.3254936 74.7009307,15.0596414 75.0494615,15.7023921 C75.3976786,16.3452453 75.8756666,16.8493635 76.4832166,17.2143369 C77.0905574,17.5796177 77.7668096,17.7618995 78.5120778,17.7618995 C79.2570323,17.7618995 79.9294155,17.5796177 80.5290181,17.2143369 C81.1279933,16.8493635 81.6020077,16.3452453 81.950434,15.7023921 C82.2985465,15.0596414 82.4646032,14.3254936 82.448604,13.5000512 M85,13.5000512 C85,14.7700808 84.7122242,15.8928709 84.1374046,16.8690365 C83.5621667,17.8453044 82.7845864,18.6112158 81.8046638,19.166668 C80.8243229,19.72253 79.7271777,20 78.5120778,20 C77.2970825,20 76.1952316,19.72253 75.2074663,19.166668 C74.2191781,18.6112158 73.437415,17.8453044 72.8625954,16.8690365 C72.2873575,15.8928709 72,14.7700808 72,13.5000512 C72,12.2303291 72.2873575,11.1071291 72.8625954,10.1309635 C73.437415,9.15469557 74.2191781,8.38919409 75.2074663,7.83333202 C76.1952316,7.2778798 77.2970825,7 78.5120778,7 C79.7271777,7 80.8243229,7.2778798 81.8046638,7.83333202 C82.7845864,8.38919409 83.5621667,9.15469557 84.1374046,10.1309635 C84.7122242,11.1071291 85,12.2303291 85,13.5000512" id="Fill-3" fill="#FFFFFF"></path>
                <path d="M93.5605286,9.20887992 C92.7858459,9.20887992 92.0958616,9.39323135 91.4907841,9.76112519 C90.8854981,10.1294235 90.4092913,10.6306005 90.0623718,11.2650606 C89.7151398,11.8996219 89.5418884,12.6162969 89.5418884,13.4151868 C89.5418884,14.2141778 89.7151398,14.9272123 90.0623718,15.5534812 C90.4092913,16.180357 90.8854981,16.6777923 91.4907841,17.0457873 C92.0958616,17.4139845 92.7858459,17.5979314 93.5605286,17.5979314 C94.3672987,17.5979314 95.0735351,17.4180295 95.678821,17.0575178 C96.2838986,16.6973095 96.7559383,16.199773 97.0949401,15.5653129 C97.4338377,14.9308528 97.6033386,14.2141778 97.6033386,13.4151868 C97.6033386,12.6008247 97.4338377,11.8800036 97.0949401,11.2533301 C96.7559383,10.62696 96.2838986,10.1294235 95.678821,9.76112519 C95.0735351,9.39323135 94.3672987,9.20887992 93.5605286,9.20887992 L93.5605286,9.20887992 Z M89.5176144,21.6398085 C90.0018432,21.9999157 90.6070249,22.2896397 91.3333681,22.5091827 C92.059607,22.7283213 92.7695939,22.8382445 93.4637454,22.8382445 C94.7709963,22.8382445 95.771437,22.5285988 96.4655885,21.9100153 C97.1593233,21.2909263 97.5064511,20.3626971 97.5064511,19.1254291 L97.5064511,17.6214936 C97.2803805,17.9973764 96.9576308,18.3539442 96.538202,18.6905903 C96.1182523,19.027742 95.6262101,19.3016905 95.0614502,19.5130424 C94.4962736,19.7246976 93.9073439,19.8302724 93.2942445,19.8302724 C92.1159684,19.8302724 91.0507277,19.5564251 90.0987306,19.0078204 C89.1462127,18.4596201 88.3919493,17.700068 87.8351071,16.7285572 C87.278369,15.7573498 87,14.6528593 87,13.4151868 C87,12.1620421 87.2742018,11.0536076 87.8231264,10.0900858 C88.37153,9.12666506 89.1182924,8.37115794 90.0623718,7.82255319 C91.0064511,7.27435294 92.059607,7 93.2215268,7 C94.1898801,7 95.0492611,7.20791362 95.799774,7.6227296 C96.5501827,8.0380512 97.119214,8.48856441 97.5064511,8.97396585 L97.5064511,7.25847627 L100,7.25847627 L100,18.8433906 C100,20.315775 99.697357,21.5023793 99.0921753,22.4034057 C98.4868893,23.3041287 97.6880369,23.962151 96.6954097,24.3772704 C95.7029908,24.7921875 94.6256651,25 93.4637454,25 C92.5595669,25 91.6600766,24.862773 90.764441,24.5888245 C89.8685969,24.3145727 89.1462127,23.9580049 88.5977048,23.5196267 L89.5176144,21.6398085 Z" id="Fill-5" fill="#FFFFFF"></path>
                <path d="M109.648211,7 C110.792521,7 111.679129,7.23453043 112.30762,7.70338255 C112.936111,8.17244342 113.37515,8.80318103 113.625257,9.59517788 C113.874843,10.3875922 114,11.2687253 114,12.2388901 L114,20 L111.50986,20 L111.50986,12.4084993 C111.50986,11.7943573 111.429023,11.2444059 111.268077,10.7593757 C111.106818,10.2742411 110.832887,9.89452513 110.446075,9.61939286 C110.059264,9.34467808 109.519204,9.2314313 108.826418,9.27986126 C108.181489,9.27986126 107.609282,9.4174274 107.109902,9.69214217 C106.610105,9.96727445 106.215386,10.3312298 105.925329,10.7835907 C105.635168,11.2364734 105.49014,11.7377861 105.49014,12.2872157 L105.49014,20 L103,20 L103,7.26678228 L105.49014,7.26678228 L105.49014,9.27986126 C105.876848,8.68189738 106.440836,8.15209031 107.182416,7.69117069 C107.923476,7.23045981 108.745477,7 109.648211,7" id="Fill-7" fill="#FFFFFF"></path>
                <mask id="mask-2" fill="white">
                    <use xlink:href="#path-1"></use>
                </mask>
                <g id="Clip-10"></g>
                <path d="M118.413029,20 L120.652177,20 L120.652177,7.71130698 L118.413029,7.71130698 L118.413029,20 Z M119.5,5.04286074 C118.992485,5.04286074 118.615848,4.90244271 118.369527,4.62160665 C118.122926,4.34077059 118,3.97421304 118,3.5215311 C118,3.13170486 118.122926,2.78045832 118.369527,2.46819441 C118.615848,2.15623269 118.992485,2 119.5,2 C120.007141,2 120.383872,2.14041803 120.630473,2.42135482 C120.8767,2.70229161 121,3.06905062 121,3.5215311 C121,3.91176026 120.8767,4.26280534 120.630473,4.57486779 C120.383872,4.8871317 120.007141,5.04286074 119.5,5.04286074 L119.5,5.04286074 Z" id="Fill-9" fill="#FFFFFF" mask="url(#mask-2)"></path>
                <polygon id="Fill-11" fill="#FFFFFF" mask="url(#mask-2)" points="128.077809 20 125.6108 20 125.6108 9.68123135 123 9.68123135 123 7.25332881 125.6108 7.25332881 125.6108 4 128.077809 4 128.077809 7.25332881 131 7.25332881 131 9.68123135 128.077809 9.68123135"></polygon>
                <path d="M142.448688,13.5000512 C142.464583,12.658932 142.298629,11.9166897 141.950514,11.2738365 C141.60198,10.6308808 141.128067,10.1309635 140.529087,9.7738798 C139.929479,9.4166936 139.257091,9.23810049 138.512026,9.23810049 C137.766856,9.23810049 137.090598,9.4166936 136.483253,9.7738798 C135.875698,10.1309635 135.397706,10.6308808 135.049486,11.2738365 C134.700952,11.9166897 134.534999,12.658932 134.551312,13.5000512 C134.534999,14.3254936 134.700952,15.0596414 135.049486,15.7023921 C135.397706,16.3452453 135.875698,16.8493635 136.483253,17.2143369 C137.090598,17.5796177 137.766856,17.7618995 138.512026,17.7618995 C139.257091,17.7618995 139.929479,17.5796177 140.529087,17.2143369 C141.128067,16.8493635 141.60198,16.3452453 141.950514,15.7023921 C142.298629,15.0596414 142.464583,14.3254936 142.448688,13.5000512 M145,13.5000512 C145,14.7700808 144.712222,15.8928709 144.137398,16.8690365 C143.562155,17.8453044 142.784673,18.6112158 141.804743,19.166668 C140.824394,19.72253 139.727135,20 138.512026,20 C137.297125,20 136.195265,19.72253 135.207492,19.166668 C134.219196,18.6112158 133.437427,17.8453044 132.862602,16.8690365 C132.287255,15.8928709 132,14.7700808 132,13.5000512 C132,12.2303291 132.287255,11.1071291 132.862602,10.1309635 C133.437427,9.15469557 134.219196,8.38919409 135.207492,7.83333202 C136.195265,7.2778798 137.297125,7 138.512026,7 C139.727135,7 140.824394,7.2778798 141.804743,7.83333202 C142.784673,8.38919409 143.562155,9.15469557 144.137398,10.1309635 C144.712222,11.1071291 145,12.2303291 145,13.5000512" id="Fill-12" fill="#FFFFFF" mask="url(#mask-2)"></path>
                <polygon id="Fill-13" fill="#FFFFFF" mask="url(#mask-2)" points="20 12.5012961 37.8475914 20 40 15.992721 25.7388134 10"></polygon>
                <path d="M15.2511906,23.4296681 C15.4496322,24.7663215 17.01943,25.4405881 18.1710431,24.6839563 L25,20.1969308 L14,15 L15.2511906,23.4296681 Z" id="Fill-14" fill="#FFFFFF" mask="url(#mask-2)"></path>
                <polygon id="Fill-15" fill="#FFFFFF" mask="url(#mask-2)" points="43 2.49578003 46.1240285 4 48 0"></polygon>
                <polygon id="Fill-16" fill="#FFFFFF" mask="url(#mask-2)" points="42 1.70523879 40.212927 1 32 2.26396905 36.3967069 4"></polygon>
                <polygon id="Fill-17" fill="#FFFFFF" mask="url(#mask-2)" points="32 7.50710288 42.8179872 12 45 7.98154883 37.8200459 5"></polygon>
                <polygon id="Fill-18" fill="#FFFFFF" mask="url(#mask-2)" points="31 6.73149279 24.0971676 4 16 5.25101017 25.4728354 9"></polygon>
                <polygon id="Fill-19" fill="#FFFFFF" mask="url(#mask-2)" points="7.70588023 7 0 8.28061567 13.7576197 15 20 12.2405351"></polygon>
            </g>
            <path d="M158.577,22.176 C159.369,22.176 160.073,22.0531667 160.689,21.8075 C161.305,21.5618333 161.825667,21.2263333 162.251,20.801 C162.676333,20.3756667 163.000833,19.8751667 163.2245,19.2995 C163.448167,18.7238333 163.56,18.1096667 163.56,17.457 C163.56,16.819 163.448167,16.2855 163.2245,15.8565 C163.000833,15.4275 162.705667,15.0663333 162.339,14.773 C161.972333,14.4796667 161.556167,14.2358333 161.0905,14.0415 C160.624833,13.8471667 160.146333,13.6693333 159.655,13.508 C159.163667,13.3466667 158.685167,13.1835 158.2195,13.0185 C157.753833,12.8535 157.337667,12.65 156.971,12.408 C156.604333,12.166 156.309167,11.8726667 156.0855,11.528 C155.861833,11.1833333 155.75,10.747 155.75,10.219 C155.75,9.81566667 155.825167,9.43066667 155.9755,9.064 C156.125833,8.69733333 156.345833,8.37466667 156.6355,8.096 C156.925167,7.81733333 157.2845,7.59733333 157.7135,7.436 C158.1425,7.27466667 158.639333,7.194 159.204,7.194 C159.768667,7.194 160.2435,7.26366667 160.6285,7.403 C161.0135,7.54233333 161.334333,7.6945 161.591,7.8595 C161.847667,8.0245 162.051167,8.17483333 162.2015,8.3105 C162.351833,8.44616667 162.474667,8.514 162.57,8.514 C162.694667,8.514 162.79,8.45166667 162.856,8.327 L162.856,8.327 L163.12,7.821 C162.592,7.293 162.007167,6.90066667 161.3655,6.644 C160.723833,6.38733333 159.999667,6.259 159.193,6.259 C158.474333,6.259 157.8345,6.37083333 157.2735,6.5945 C156.7125,6.81816667 156.241333,7.11516667 155.86,7.4855 C155.478667,7.85583333 155.189,8.283 154.991,8.767 C154.793,9.251 154.694,9.75333333 154.694,10.274 C154.694,10.9413333 154.805833,11.4968333 155.0295,11.9405 C155.253167,12.3841667 155.548333,12.7545 155.915,13.0515 C156.281667,13.3485 156.697833,13.5923333 157.1635,13.783 C157.629167,13.9736667 158.107667,14.146 158.599,14.3 C159.090333,14.454 159.568833,14.6116667 160.0345,14.773 C160.500167,14.9343333 160.916333,15.1341667 161.283,15.3725 C161.649667,15.6108333 161.944833,15.9078333 162.1685,16.2635 C162.392167,16.6191667 162.504,17.072 162.504,17.622 C162.504,18.128 162.416,18.6028333 162.24,19.0465 C162.064,19.4901667 161.809167,19.8733333 161.4755,20.196 C161.141833,20.5186667 160.733,20.7735 160.249,20.9605 C159.765,21.1475 159.215,21.241 158.599,21.241 C158.151667,21.241 157.752,21.197 157.4,21.109 C157.048,21.021 156.736333,20.9128333 156.465,20.7845 C156.193667,20.6561667 155.955333,20.5168333 155.75,20.3665 C155.544667,20.2161667 155.368667,20.0768333 155.222,19.9485 C155.075333,19.8201667 154.950667,19.712 154.848,19.624 C154.745333,19.536 154.661,19.492 154.595,19.492 C154.477667,19.492 154.375,19.547 154.287,19.657 L154.287,19.657 L153.979,20.141 C154.536333,20.7716667 155.185333,21.2685 155.926,21.6315 C156.666667,21.9945 157.550333,22.176 158.577,22.176 Z M169.841,22.176 C170.655,22.176 171.393833,21.9853333 172.0575,21.604 C172.721167,21.2226667 173.306,20.7166667 173.812,20.086 L173.812,20.086 L173.911,21.714 C173.940333,21.9046667 174.046667,22 174.23,22 L174.23,22 L174.813,22 L174.813,11.055 L173.757,11.055 L173.757,19.283 C173.273,19.9283333 172.721167,20.4325 172.1015,20.7955 C171.481833,21.1585 170.816333,21.34 170.105,21.34 C169.144333,21.34 168.429333,21.0485 167.96,20.4655 C167.490667,19.8825 167.256,19.0776667 167.256,18.051 L167.256,18.051 L167.256,11.055 L166.2,11.055 L166.2,18.051 C166.2,18.689 166.277,19.261 166.431,19.767 C166.585,20.273 166.812333,20.7056667 167.113,21.065 C167.413667,21.4243333 167.791333,21.6993333 168.246,21.89 C168.700667,22.0806667 169.232333,22.176 169.841,22.176 Z M179.466,25.872 L179.466,20.537 C179.862,21.065 180.331333,21.4646667 180.874,21.736 C181.416667,22.0073333 182.058333,22.143 182.799,22.143 C183.569,22.143 184.249167,21.9963333 184.8395,21.703 C185.429833,21.4096667 185.9285,21.0081667 186.3355,20.4985 C186.7425,19.9888333 187.0505,19.3875 187.2595,18.6945 C187.4685,18.0015 187.573,17.2553333 187.573,16.456 C187.573,14.5933333 187.197167,13.1963333 186.4455,12.265 C185.693833,11.3336667 184.647,10.868 183.305,10.868 C182.498333,10.868 181.7705,11.0623333 181.1215,11.451 C180.4725,11.8396667 179.906,12.364 179.422,13.024 L179.422,13.024 L179.312,11.33 C179.282667,11.1466667 179.176333,11.055 178.993,11.055 L178.993,11.055 L178.41,11.055 L178.41,25.872 L179.466,25.872 Z M182.601,21.318 C182.278333,21.318 181.972167,21.2886667 181.6825,21.23 C181.392833,21.1713333 181.119667,21.0741667 180.863,20.9385 C180.606333,20.8028333 180.3625,20.6268333 180.1315,20.4105 C179.9005,20.1941667 179.678667,19.9283333 179.466,19.613 L179.466,19.613 L179.466,13.838 C179.928,13.1706667 180.452333,12.65 181.039,12.276 C181.625667,11.902 182.282,11.715 183.008,11.715 C184.13,11.715 184.991667,12.0981667 185.593,12.8645 C186.194333,13.6308333 186.495,14.828 186.495,16.456 C186.495,17.1746667 186.4125,17.8328333 186.2475,18.4305 C186.0825,19.0281667 185.836833,19.5415 185.5105,19.9705 C185.184167,20.3995 184.779,20.7313333 184.295,20.966 C183.811,21.2006667 183.246333,21.318 182.601,21.318 Z M191.599,25.872 L191.599,20.537 C191.995,21.065 192.464333,21.4646667 193.007,21.736 C193.549667,22.0073333 194.191333,22.143 194.932,22.143 C195.702,22.143 196.382167,21.9963333 196.9725,21.703 C197.562833,21.4096667 198.0615,21.0081667 198.4685,20.4985 C198.8755,19.9888333 199.1835,19.3875 199.3925,18.6945 C199.6015,18.0015 199.706,17.2553333 199.706,16.456 C199.706,14.5933333 199.330167,13.1963333 198.5785,12.265 C197.826833,11.3336667 196.78,10.868 195.438,10.868 C194.631333,10.868 193.9035,11.0623333 193.2545,11.451 C192.6055,11.8396667 192.039,12.364 191.555,13.024 L191.555,13.024 L191.445,11.33 C191.415667,11.1466667 191.309333,11.055 191.126,11.055 L191.126,11.055 L190.543,11.055 L190.543,25.872 L191.599,25.872 Z M194.734,21.318 C194.411333,21.318 194.105167,21.2886667 193.8155,21.23 C193.525833,21.1713333 193.252667,21.0741667 192.996,20.9385 C192.739333,20.8028333 192.4955,20.6268333 192.2645,20.4105 C192.0335,20.1941667 191.811667,19.9283333 191.599,19.613 L191.599,19.613 L191.599,13.838 C192.061,13.1706667 192.585333,12.65 193.172,12.276 C193.758667,11.902 194.415,11.715 195.141,11.715 C196.263,11.715 197.124667,12.0981667 197.726,12.8645 C198.327333,13.6308333 198.628,14.828 198.628,16.456 C198.628,17.1746667 198.5455,17.8328333 198.3805,18.4305 C198.2155,19.0281667 197.969833,19.5415 197.6435,19.9705 C197.317167,20.3995 196.912,20.7313333 196.428,20.966 C195.944,21.2006667 195.379333,21.318 194.734,21.318 Z M207.01,22.143 C207.794667,22.143 208.496833,22.011 209.1165,21.747 C209.736167,21.483 210.258667,21.1053333 210.684,20.614 C211.109333,20.1226667 211.433833,19.5323333 211.6575,18.843 C211.881167,18.1536667 211.993,17.38 211.993,16.522 C211.993,15.664 211.881167,14.8885 211.6575,14.1955 C211.433833,13.5025 211.109333,12.9103333 210.684,12.419 C210.258667,11.9276667 209.736167,11.5481667 209.1165,11.2805 C208.496833,11.0128333 207.794667,10.879 207.01,10.879 C206.225333,10.879 205.523167,11.0128333 204.9035,11.2805 C204.283833,11.5481667 203.7595,11.9276667 203.3305,12.419 C202.9015,12.9103333 202.575167,13.5025 202.3515,14.1955 C202.127833,14.8885 202.016,15.664 202.016,16.522 C202.016,17.38 202.127833,18.1536667 202.3515,18.843 C202.575167,19.5323333 202.9015,20.1226667 203.3305,20.614 C203.7595,21.1053333 204.283833,21.483 204.9035,21.747 C205.523167,22.011 206.225333,22.143 207.01,22.143 Z M207.01,21.318 C206.357333,21.318 205.787167,21.2061667 205.2995,20.9825 C204.811833,20.7588333 204.404833,20.438 204.0785,20.02 C203.752167,19.602 203.5065,19.0978333 203.3415,18.5075 C203.1765,17.9171667 203.094,17.2553333 203.094,16.522 C203.094,15.796 203.1765,15.136 203.3415,14.542 C203.5065,13.948 203.752167,13.4401667 204.0785,13.0185 C204.404833,12.5968333 204.811833,12.2723333 205.2995,12.045 C205.787167,11.8176667 206.357333,11.704 207.01,11.704 C207.662667,11.704 208.232833,11.8176667 208.7205,12.045 C209.208167,12.2723333 209.615167,12.5968333 209.9415,13.0185 C210.267833,13.4401667 210.511667,13.948 210.673,14.542 C210.834333,15.136 210.915,15.796 210.915,16.522 C210.915,17.2553333 210.834333,17.9171667 210.673,18.5075 C210.511667,19.0978333 210.267833,19.602 209.9415,20.02 C209.615167,20.438 209.208167,20.7588333 208.7205,20.9825 C208.232833,21.2061667 207.662667,21.318 207.01,21.318 Z M216.008,22 L216.008,14.916 C216.169333,14.4246667 216.347167,13.9901667 216.5415,13.6125 C216.735833,13.2348333 216.963167,12.9176667 217.2235,12.661 C217.483833,12.4043333 217.777167,12.2118333 218.1035,12.0835 C218.429833,11.9551667 218.805667,11.891 219.231,11.891 C219.524333,11.891 219.760833,11.9166667 219.9405,11.968 C220.120167,12.0193333 220.254,12.045 220.342,12.045 C220.444667,12.045 220.514333,11.9863333 220.551,11.869 L220.551,11.869 L220.639,11.143 C220.470333,11.0403333 220.276,10.9688333 220.056,10.9285 C219.836,10.8881667 219.612333,10.868 219.385,10.868 C218.959667,10.868 218.572833,10.9321667 218.2245,11.0605 C217.876167,11.1888333 217.560833,11.374 217.2785,11.616 C216.996167,11.858 216.746833,12.1531667 216.5305,12.5015 C216.314167,12.8498333 216.121667,13.2476667 215.953,13.695 L215.953,13.695 L215.876,11.396 C215.861333,11.2713333 215.828333,11.1833333 215.777,11.132 C215.725667,11.0806667 215.637667,11.055 215.513,11.055 L215.513,11.055 L214.952,11.055 L214.952,22 L216.008,22 Z M225.721,22.176 C226.183,22.176 226.6285,22.0825 227.0575,21.8955 C227.4865,21.7085 227.840333,21.461 228.119,21.153 L228.119,21.153 L227.833,20.691 C227.774333,20.6176667 227.715667,20.581 227.657,20.581 C227.605667,20.581 227.536,20.6195 227.448,20.6965 C227.36,20.7735 227.246333,20.8578333 227.107,20.9495 C226.967667,21.0411667 226.802667,21.1255 226.612,21.2025 C226.421333,21.2795 226.194,21.318 225.93,21.318 C225.717333,21.318 225.519333,21.285 225.336,21.219 C225.152667,21.153 224.993167,21.0503333 224.8575,20.911 C224.721833,20.7716667 224.6155,20.5938333 224.5385,20.3775 C224.4615,20.1611667 224.423,19.9026667 224.423,19.602 L224.423,19.602 L224.423,12.177 L227.877,12.177 L227.877,11.396 L224.423,11.396 L224.423,7.216 L223.928,7.216 C223.847333,7.216 223.785,7.24166667 223.741,7.293 C223.697,7.34433333 223.667667,7.403 223.653,7.469 L223.653,7.469 L223.389,11.385 L221.519,11.517 L221.519,11.924 C221.519,12.0046667 221.544667,12.067 221.596,12.111 C221.647333,12.155 221.713333,12.177 221.794,12.177 L221.794,12.177 L223.367,12.177 L223.367,19.657 C223.367,20.515 223.574167,21.1493333 223.9885,21.56 C224.402833,21.9706667 224.980333,22.176 225.721,22.176 Z" id="Support" fill="#FFFFFF" fill-rule="nonzero"></path>
        </g>
    </g>
</svg>