<svg xmlns="http://www.w3.org/2000/svg" width="40.175" height="40.179" viewBox="0 0 40.175 40.179">
  <g id="n3" transform="translate(-597.817 -1390.271)">
    <path id="Path_195" data-name="Path 195" d="M637.992,1410.36a20.087,20.087,0,1,1-20.09-20.089,20.09,20.09,0,0,1,20.09,20.089" fill="#00bbd8"/>
    <path id="Path_196" data-name="Path 196" d="M613.109,1418.67h-3.618v-11.58h3.618Zm-1.9-13.026h-.026a2.232,2.232,0,1,1,.026,0m16.374,13.026h-4.1v-5.991c0-1.571-.644-2.638-2.055-2.638a2.067,2.067,0,0,0-1.956,1.419,2.6,2.6,0,0,0-.091.946v6.264H615.32s.051-10.613,0-11.58h4.061v1.82c.242-.793,1.539-1.93,3.613-1.93,2.567,0,4.589,1.667,4.589,5.253Z" fill="#273c88"/>
  </g>
</svg>
