<svg height="496pt" viewBox="0 0 496 496" width="496pt" xmlns="http://www.w3.org/2000/svg"><path d="m471.191406 52.382812-2.046875-25.398437-25.464843-2.097656-5.175782-24.886719h-33.816406l-119.3125 119.3125 91.3125 91.3125 119.3125-119.3125v-33.839844zm0 0" fill="#d60c34"/><path d="m296 323.3125-123.3125-123.3125 75.3125-75.3125 123.3125 123.3125zm0 0" fill="#d60c34"/><path d="m411.871094 175.441406c7.824218 9.054688 12.128906 20.46875 12.128906 32.558594 0 10.632812-3.34375 20.71875-9.457031 29.167969l-155.710938-155.710938c8.449219-6.113281 18.535157-9.457031 29.167969-9.457031 12.089844 0 23.496094 4.304688 32.558594 12.128906l11.3125-11.3125c-12.09375-10.832031-27.503906-16.816406-43.871094-16.816406-17.617188 0-34.167969 6.855469-46.625 19.3125l-103.800781 103.800781c-10.878907 10.878907-19.285157 23.628907-25 37.910157-4.902344 12.265624-12.117188 23.207031-21.453125 32.542968l-77.457032 77.457032c-8.6875 8.6875-13.664062 20.703124-13.664062 32.976562s4.976562 24.289062 13.65625 32.96875l89.375 89.375c8.800781 8.808594 20.511719 13.65625 32.96875 13.65625s24.167969-4.847656 32.96875-13.65625l77.457031-77.457031c9.335938-9.335938 20.277344-16.550781 32.542969-21.460938 14.289062-5.722656 27.046875-14.136719 37.910156-25.011719l103.800782-103.796874c12.464843-12.449219 19.320312-29 19.320312-46.617188 0-16.367188-5.984375-31.777344-16.816406-43.871094zm-297.527344 295.589844-89.375-89.375c-5.695312-5.703125-8.96875-13.59375-8.96875-21.65625 0-7.601562 2.992188-14.984375 8.097656-20.59375l132.488282 132.488281c-11.707032 10.59375-31 10.371094-42.242188-.863281zm191.230469-123.917969c-9.335938 9.335938-20.277344 16.550781-32.542969 21.460938-14.289062 5.722656-27.046875 14.136719-37.910156 25.011719l-67.121094 67.101562-132.6875-132.6875 67.113281-67.113281c10.878907-10.878907 19.285157-23.640625 25-37.917969 4.902344-12.265625 12.117188-23.207031 21.453125-32.542969l98.144532-98.144531 156.6875 156.6875zm0 0"/><path d="m330.335938 125.65625 11.316406-11.3125 39.996094 39.996094-11.3125 11.316406zm0 0"/><path d="m354.335938 101.65625 11.316406-11.3125 39.996094 39.996094-11.3125 11.316406zm0 0"/><path d="m378.335938 77.65625 11.316406-11.3125 39.996094 40-11.3125 11.3125zm0 0"/><path d="m402.335938 53.65625 11.316406-11.3125 39.996094 40-11.3125 11.3125zm0 0"/><path d="m248 304c-13.230469 0-24 10.769531-24 24s10.769531 24 24 24 24-10.769531 24-24-10.769531-24-24-24zm0 32c-4.40625 0-8-3.585938-8-8s3.59375-8 8-8 8 3.585938 8 8-3.59375 8-8 8zm0 0"/><path d="m208 344c-13.230469 0-24 10.769531-24 24s10.769531 24 24 24 24-10.769531 24-24-10.769531-24-24-24zm0 32c-4.40625 0-8-3.585938-8-8s3.59375-8 8-8 8 3.585938 8 8-3.59375 8-8 8zm0 0"/><path d="m168 384c-13.230469 0-24 10.769531-24 24s10.769531 24 24 24 24-10.769531 24-24-10.769531-24-24-24zm0 32c-4.40625 0-8-3.585938-8-8s3.59375-8 8-8 8 3.585938 8 8-3.59375 8-8 8zm0 0"/><path d="m184 288c0 13.230469 10.769531 24 24 24s24-10.769531 24-24-10.769531-24-24-24-24 10.769531-24 24zm24-8c4.40625 0 8 3.585938 8 8s-3.59375 8-8 8-8-3.585938-8-8 3.59375-8 8-8zm0 0"/><path d="m168 304c-13.230469 0-24 10.769531-24 24s10.769531 24 24 24 24-10.769531 24-24-10.769531-24-24-24zm0 32c-4.40625 0-8-3.585938-8-8s3.59375-8 8-8 8 3.585938 8 8-3.59375 8-8 8zm0 0"/><path d="m152 368c0-13.230469-10.769531-24-24-24s-24 10.769531-24 24 10.769531 24 24 24 24-10.769531 24-24zm-24 8c-4.40625 0-8-3.585938-8-8s3.59375-8 8-8 8 3.585938 8 8-3.59375 8-8 8zm0 0"/><path d="m168 272c13.230469 0 24-10.769531 24-24s-10.769531-24-24-24-24 10.769531-24 24 10.769531 24 24 24zm0-32c4.40625 0 8 3.59375 8 8s-3.59375 8-8 8-8-3.59375-8-8 3.59375-8 8-8zm0 0"/><path d="m128 312c13.230469 0 24-10.769531 24-24s-10.769531-24-24-24-24 10.769531-24 24 10.769531 24 24 24zm0-32c4.40625 0 8 3.585938 8 8s-3.59375 8-8 8-8-3.585938-8-8 3.59375-8 8-8zm0 0"/><path d="m112 328c0-13.230469-10.769531-24-24-24s-24 10.769531-24 24 10.769531 24 24 24 24-10.769531 24-24zm-24 8c-4.40625 0-8-3.585938-8-8s3.59375-8 8-8 8 3.585938 8 8-3.59375 8-8 8zm0 0"/></svg>