<?xml version="1.0" encoding="iso-8859-1"?>
<!-- Generator: Adobe Illustrator 19.0.0, SVG Export Plug-In . SVG Version: 6.00 Build 0)  -->
<svg version="1.1" id="Capa_1" xmlns="http://www.w3.org/2000/svg" xmlns:xlink="http://www.w3.org/1999/xlink" x="0px" y="0px"
	 viewBox="0 0 480.032 480.032" style="enable-background:new 0 0 480.032 480.032;" xml:space="preserve">
<path style="fill:#F4393D;" d="M135.375,416.61v-17.156l-13.776-7.101c-0.908-2.843-2.06-5.601-3.444-8.245l4.729-14.803
	c-3.486-4.572-7.569-8.655-12.141-12.141l-14.803,4.73c-2.644-1.384-5.402-2.537-8.245-3.444l-7.101-13.776H63.438l-7.101,13.775
	c-2.843,0.908-5.601,2.06-8.245,3.444l-14.803-4.729c-4.572,3.486-8.656,7.569-12.142,12.141l4.73,14.803
	c-1.384,2.644-2.537,5.402-3.444,8.245l-13.776,7.101v17.156l13.775,7.101c0.908,2.843,2.06,5.601,3.444,8.245l-4.729,14.803
	c3.485,4.572,7.569,8.655,12.141,12.141l14.803-4.729c2.644,1.384,5.403,2.537,8.246,3.444l7.101,13.776h17.156l7.101-13.775
	c2.843-0.908,5.601-2.06,8.245-3.444l14.803,4.729c4.572-3.486,8.656-7.569,12.141-12.141l-4.73-14.803
	c1.384-2.644,2.537-5.402,3.444-8.245L135.375,416.61z"/>
<circle style="fill:#d60c34;" cx="408.016" cy="408.032" r="64"/>
<circle style="fill:#d60c34;" cx="72.016" cy="408.032" r="24"/>
<g>
	<circle style="fill:#d60c34;" cx="240.016" cy="296.032" r="24"/>
	<path style="fill:#d60c34;" d="M192.016,342.565v57.466h24v72h48v-72h24v-57.466c0-16.863-13.215-22.534-29.516-22.534h-36.969
		C205.23,320.032,192.016,325.702,192.016,342.565L192.016,342.565z"/>
</g>
<path style="fill:#17AFDC;" d="M336.016,64.032c-5.913,0.004-11.787,0.947-17.404,2.792c-6.9-33.448-39.433-58.792-78.596-58.792
	S168.32,33.376,161.42,66.824c-29.39-9.617-61.012,6.412-70.629,35.803s6.412,61.012,35.803,70.629
	c5.624,1.84,11.504,2.777,17.422,2.776h192c30.928,0,56-25.072,56-56S366.944,64.032,336.016,64.032z"/>
<path style="fill:#DBE6FD;" d="M238.905,80.032c-27.855,0-41.781,12.331-54.889,32c11.586,20.476,33.598,32.809,57.111,32
	c27.855,0,41.781-12.331,54.889-32C284.43,91.556,262.418,79.222,238.905,80.032z"/>
<circle style="fill:#F4393D;" cx="240.016" cy="112.032" r="32"/>
<path d="M72.016,440.914c-17.807,0.069-32.298-14.31-32.368-32.117c-0.069-17.807,14.31-32.298,32.117-32.367
	c17.807-0.069,32.298,14.31,32.368,32.117c0,0.042,0,0.084,0,0.125C104.145,426.435,89.779,440.858,72.016,440.914z M72.016,392.43
	c-8.97-0.069-16.298,7.146-16.368,16.117s7.146,16.298,16.117,16.368c8.97,0.069,16.298-7.146,16.368-16.117
	c0-0.042,0-0.084,0-0.125C88.154,399.742,80.946,392.478,72.016,392.43z"/>
<path d="M80.633,480.032H63.391c-2.945,0.001-5.653-1.617-7.047-4.211l-5.664-10.547c-1.109-0.422-2.219-0.891-3.32-1.391
	l-11.82,3.789c-2.498,0.796-5.227,0.324-7.312-1.266c-5.166-3.959-9.778-8.595-13.711-13.781c-1.572-2.072-2.038-4.779-1.25-7.258
	l3.789-11.922c-0.492-1.078-0.945-2.164-1.359-3.258l-11.297-5.711c-2.688-1.366-4.382-4.125-4.383-7.141v-17.328
	c0.001-3.015,1.695-5.775,4.383-7.141l11.297-5.711c0.414-1.094,0.867-2.18,1.359-3.258l-3.789-11.922
	c-0.788-2.479-0.322-5.185,1.25-7.258c3.933-5.187,8.545-9.822,13.711-13.781c2.08-1.6,4.815-2.074,7.312-1.266l11.82,3.789
	c1.047-0.477,2.102-0.922,3.148-1.328l5.695-11.625c1.345-2.742,4.133-4.478,7.187-4.477h17.242c3.052-0.002,5.838,1.736,7.18,4.477
	l5.711,11.625c1.047,0.414,2.102,0.859,3.156,1.336l11.812-3.797c2.498-0.8,5.229-0.327,7.312,1.266
	c5.165,3.961,9.776,8.596,13.711,13.781c1.571,2.073,2.037,4.779,1.25,7.258l-3.789,11.922c0.484,1.078,0.937,2.172,1.359,3.258
	l11.289,5.711c2.692,1.363,4.39,4.123,4.391,7.141v17.328c-0.001,3.017-1.698,5.778-4.391,7.141l-11.289,5.711
	c-0.422,1.086-0.875,2.18-1.359,3.258l3.789,11.922c0.787,2.479,0.321,5.185-1.25,7.258c-3.935,5.185-8.546,9.82-13.711,13.781
	c-2.088,1.584-4.814,2.056-7.312,1.266l-11.82-3.789c-1.109,0.5-2.219,0.969-3.32,1.391l-5.672,10.547
	C86.284,478.414,83.578,480.031,80.633,480.032z M68.172,464.032h7.68l4.875-9.062c0.983-1.832,2.642-3.209,4.625-3.836
	c2.415-0.781,4.76-1.767,7.008-2.945c1.894-0.992,4.106-1.18,6.141-0.523l10.719,3.438c1.764-1.564,3.428-3.237,4.984-5.008
	l-3.445-10.836c-0.64-2.023-0.452-4.217,0.523-6.102c1.176-2.258,2.156-4.613,2.93-7.039c0.645-2.061,2.096-3.775,4.023-4.75
	l9.781-4.945v-7.5l-9.781-4.945c-1.927-0.975-3.378-2.689-4.023-4.75c-0.773-2.426-1.753-4.781-2.93-7.039
	c-0.976-1.884-1.164-4.079-0.523-6.102l3.445-10.836c-1.555-1.769-3.217-3.441-4.977-5.008l-10.719,3.445
	c-2.037,0.654-4.251,0.465-6.148-0.523c-2.246-1.186-4.591-2.174-7.008-2.953c-2.08-0.659-3.799-2.141-4.758-4.102l-4.945-10.078
	h-7.266l-4.938,10.078c-0.964,1.959-2.685,3.44-4.766,4.102c-2.42,0.776-4.768,1.761-7.016,2.945
	c-1.895,0.988-4.106,1.176-6.141,0.523l-10.719-3.437c-1.762,1.566-3.426,3.239-4.984,5.008l3.445,10.836
	c0.641,2.023,0.453,4.217-0.523,6.102c-1.176,2.264-2.156,4.624-2.93,7.055c-0.651,2.052-2.097,3.758-4.016,4.734l-9.781,4.945v7.5
	l9.781,4.945c1.918,0.977,3.365,2.682,4.016,4.734c0.774,2.431,1.754,4.791,2.93,7.055c0.976,1.884,1.165,4.079,0.523,6.102
	l-3.445,10.836c1.558,1.769,3.222,3.442,4.984,5.008l10.719-3.438c2.034-0.657,4.247-0.468,6.141,0.523
	c2.248,1.184,4.596,2.17,7.016,2.945c1.981,0.63,3.64,2.006,4.625,3.836L68.172,464.032z"/>
<path d="M267.253,312.608c3.09-4.979,4.739-10.717,4.763-16.576c0-17.673-14.327-32-32-32c-17.673,0-32,14.327-32,32
	c0.024,5.86,1.673,11.598,4.763,16.577c-18.394,2.474-28.763,13.07-28.763,29.955v57.469c-0.003,4.416,3.575,7.997,7.991,8
	c0.003,0,0.006,0,0.009,0h16v64c-0.003,4.416,3.575,7.997,7.991,8c0.003,0,0.006,0,0.009,0h48c4.416,0.003,7.997-3.575,8-7.991
	c0-0.003,0-0.006,0-0.009v-64h16c4.416,0.003,7.997-3.575,8-7.991c0-0.003,0-0.006,0-0.009v-57.469
	C296.016,325.678,285.648,315.081,267.253,312.608z M240.016,280.032c8.837,0,16,7.163,16,16s-7.163,16-16,16
	c-8.837,0-16-7.163-16-16C224.027,287.2,231.184,280.043,240.016,280.032z M280.016,392.032h-8v-40h-16v112h-8v-72h-16v72h-8v-112
	h-16v40h-8v-49.469c0-4.352,0-14.531,21.516-14.531H258.5c21.516,0,21.516,10.18,21.516,14.531V392.032z"/>
<path d="M408.016,448.032c-16.453,0-29.336-10.539-29.336-24h16c0,3.773,5.703,8,13.336,8s13.336-4.227,13.336-8
	c0-3.758-2.977-5.375-15.172-8.227c-10.945-2.555-27.5-6.429-27.5-23.773c0-13.461,12.883-24,29.336-24s29.336,10.539,29.336,24h-16
	c0-3.773-5.703-8-13.336-8s-13.336,4.227-13.336,8c0,3.742,2.969,5.352,15.148,8.195c10.961,2.563,27.524,6.438,27.524,23.805
	C437.352,437.493,424.469,448.032,408.016,448.032z"/>
<path d="M408.016,480.032c-39.764,0-72-32.236-72-72s32.236-72,72-72s72,32.236,72,72
	C479.972,447.778,447.762,479.988,408.016,480.032z M408.016,352.032c-30.928,0-56,25.072-56,56s25.072,56,56,56s56-25.072,56-56
	C463.978,377.119,438.928,352.069,408.016,352.032z"/>
<path d="M336.016,184.032h-192c-35.346,0.035-64.028-28.591-64.063-63.937c-0.035-35.346,28.591-64.028,63.937-64.063
	c3.973-0.004,7.939,0.362,11.844,1.094c12.95-35.131,46.853-58.098,84.281-57.094c37.428-1.004,71.332,21.963,84.281,57.094
	c34.745-6.475,68.16,16.443,74.635,51.188c6.475,34.745-16.443,68.16-51.188,74.635C343.877,183.669,339.95,184.032,336.016,184.032
	z M144.016,72.032c-26.51,0-48,21.49-48,48s21.49,48,48,48h192c26.51,0.034,48.027-21.429,48.061-47.939
	s-21.429-48.027-47.939-48.061c-5.11-0.007-10.189,0.803-15.044,2.398c-4.203,1.37-8.72-0.926-10.091-5.128
	c-0.092-0.283-0.169-0.572-0.229-0.864c-6.266-30.367-36.024-52.406-70.758-52.406s-64.492,22.039-70.758,52.406
	c-0.893,4.329-5.127,7.115-9.456,6.221c-0.292-0.06-0.58-0.137-0.864-0.229C154.122,72.846,149.085,72.036,144.016,72.032
	L144.016,72.032z"/>
<path d="M310.383,107.188C294.579,84.66,268.571,71.51,241.06,72.137c-0.355-0.009-0.686-0.105-1.044-0.105
	c-0.135,0-0.259,0.039-0.394,0.04c-0.299-0.002-0.57-0.04-0.872-0.04c-35.125,0-53.023,14.055-69.102,35.156
	c-2.18,2.861-2.18,6.826,0,9.688c15.803,22.527,41.81,35.677,69.321,35.05c0.356,0.009,0.688,0.106,1.046,0.106
	c0.135,0,0.26-0.039,0.395-0.04c0.299,0.002,0.57,0.04,0.871,0.04c35.125,0,53.023-14.055,69.102-35.156
	C312.563,114.014,312.563,110.049,310.383,107.188L310.383,107.188z M264.016,112.032c-0.021,13.104-10.547,23.77-23.65,23.965
	c-0.39-0.003-0.748-0.037-1.134-0.044c-13.221-0.405-23.61-11.451-23.204-24.672c0.393-12.819,10.814-23.053,23.638-23.214
	c0.39,0.003,0.748,0.037,1.134,0.044C253.72,88.525,263.988,99.105,264.016,112.032L264.016,112.032z M186.258,111.993
	c4.742-5.921,10.412-11.034,16.79-15.14c-3.958,9.449-4.044,20.075-0.24,29.587C196.576,122.51,190.993,117.637,186.258,111.993z
	 M276.984,127.211c3.958-9.449,4.044-20.075,0.24-29.587c6.232,3.929,11.815,8.803,16.55,14.447
	C289.032,117.992,283.362,123.105,276.984,127.211L276.984,127.211z"/>
<path d="M232.016,200.032h16v16h-16V200.032z"/>
<path d="M160.016,200.032h16v16h-16V200.032z"/>
<path d="M144.016,232.032h16v16h-16V232.032z"/>
<path d="M128.016,264.032h16v16h-16V264.032z"/>
<path d="M112.016,296.032h16v16h-16V296.032z"/>
<path d="M232.016,232.032h16v16h-16V232.032z"/>
<path d="M304.016,200.032h16v16h-16V200.032z"/>
<path d="M320.016,232.032h16v16h-16V232.032z"/>
<path d="M336.016,264.032h16v16h-16V264.032z"/>
<path d="M352.016,296.032h16v16h-16V296.032z"/>
<g>
</g>
<g>
</g>
<g>
</g>
<g>
</g>
<g>
</g>
<g>
</g>
<g>
</g>
<g>
</g>
<g>
</g>
<g>
</g>
<g>
</g>
<g>
</g>
<g>
</g>
<g>
</g>
<g>
</g>
</svg>
