<svg xmlns="http://www.w3.org/2000/svg" xmlns:xlink="http://www.w3.org/1999/xlink" width="17.664" height="16.873" viewBox="0 0 17.664 16.873"><defs><style>.a{fill:none;}.b{clip-path:url(#a);}.c{fill:#fff;}</style><clipPath id="a"><rect class="a" width="17.664" height="16.873"/></clipPath></defs><g class="b"><path class="c" d="M11.841,10.762l-3.33,3.329a.211.211,0,0,1-.361-.149V12.668a.211.211,0,0,0-.211-.212H1.663a.5.5,0,0,1-.5-.495v-3a.5.5,0,0,1,.5-.495H7.939a.211.211,0,0,0,.211-.212V6.985a.211.211,0,0,1,.361-.149l3.33,3.329A.424.424,0,0,1,11.841,10.762ZM6.477,13.879H5.331v3.1a.6.6,0,0,0,.6.6h6.757V16.288H6.777a.3.3,0,0,1-.3-.3ZM5.928,2.722a.6.6,0,0,0-.6.6V7.131H6.477V4.119a.3.3,0,0,1,.3-.3h5.908v-1.1Zm12.9,1.229V16.4a.6.6,0,0,1-.416.572l-4.943,1.608a.6.6,0,0,1-.788-.572V2.342a.6.6,0,0,1,.788-.572l4.943,1.608A.6.6,0,0,1,18.832,3.951Zm-3.6,5.287a.568.568,0,0,0-1.136,0v2.534a.568.568,0,0,0,1.136,0Z" transform="translate(-1.168 -1.74)"/></g></svg>