<svg xmlns="http://www.w3.org/2000/svg" xmlns:xlink="http://www.w3.org/1999/xlink" width="102.086" height="67.657" viewBox="0 0 102.086 67.657"><defs><style>.a{fill:none;}.b{clip-path:url(#a);}.c{fill:url(#b);}.d{fill:#fff;}</style><clipPath id="a"><rect class="a" width="102.086" height="67.657"/></clipPath><linearGradient id="b" x1="0.5" y1="1" x2="0.5" gradientUnits="objectBoundingBox"><stop offset="0" stop-color="#009fb0"/><stop offset="0.251" stop-color="#107495"/><stop offset="0.597" stop-color="#264075"/><stop offset="0.857" stop-color="#332061"/><stop offset="1" stop-color="#38145a"/></linearGradient></defs><g class="b"><path class="c" d="M-72.4,35.838h-67.156a2.606,2.606,0,0,0-2.607,2.606V80.5a2.607,2.607,0,0,0,2.607,2.607h5.362v7.442a1.94,1.94,0,0,0,3.312,1.372l8.812-8.813H-72.4A2.606,2.606,0,0,0-69.794,80.5V38.444A2.605,2.605,0,0,0-72.4,35.838Z" transform="translate(142.163 -35.838)"/><g transform="translate(18.09 19.068)"><circle class="d" cx="3.802" cy="3.802" r="3.802"/><circle class="d" cx="3.802" cy="3.802" r="3.802" transform="translate(15.596)"/><circle class="d" cx="3.802" cy="3.802" r="3.802" transform="translate(30.733)"/></g><path class="c" d="M-96.84,59.78h45.9a1.782,1.782,0,0,1,1.782,1.782V90.3a1.782,1.782,0,0,1-1.782,1.782h-3.665v5.086a1.326,1.326,0,0,1-2.263.938l-6.024-6.024H-96.84A1.782,1.782,0,0,1-98.622,90.3V61.562A1.782,1.782,0,0,1-96.84,59.78Z" transform="translate(151.248 -30.842)"/><g transform="translate(64.607 42.915)"><circle class="d" cx="1.998" cy="1.998" r="1.998"/><circle class="d" cx="1.998" cy="1.998" r="1.998" transform="translate(10.923)"/><circle class="d" cx="1.998" cy="1.998" r="1.998" transform="translate(21.7)"/></g></g></svg>