<svg xmlns="http://www.w3.org/2000/svg" xmlns:xlink="http://www.w3.org/1999/xlink" width="82.862" height="69.773" viewBox="0 0 82.862 69.773"><defs><style>.a,.c{fill:none;}.b{clip-path:url(#a);}.c{stroke:#381459;stroke-linecap:round;stroke-linejoin:round;stroke-width:2px;stroke-dasharray:5;}.d{fill:url(#b);}.e{fill:#fff;}</style><clipPath id="a"><rect class="a" width="82.862" height="69.773"/></clipPath><linearGradient id="b" x1="0.5" y1="1" x2="0.5" gradientUnits="objectBoundingBox"><stop offset="0" stop-color="#009fb0"/><stop offset="0.251" stop-color="#107495"/><stop offset="0.597" stop-color="#264075"/><stop offset="0.857" stop-color="#332061"/><stop offset="1" stop-color="#38145a"/></linearGradient></defs><g class="b"><path class="c" d="M95.35,50.085H65.877A11.588,11.588,0,0,0,54.289,61.673h0A11.588,11.588,0,0,0,65.877,73.262H74.3A11.59,11.59,0,0,1,85.887,84.851h0A11.589,11.589,0,0,1,74.3,96.439H31.869" transform="translate(-18.569 -27.666)"/><g transform="translate(-18.569 -27.666)"><path class="d" d="M45.17,66.041c0,4.736-5.528,17.566-9.457,23.944a4.512,4.512,0,0,1-7.688,0c-3.928-6.378-9.456-19.208-9.456-23.944a13.3,13.3,0,1,1,26.6,0Z"/><circle class="e" cx="7.474" cy="7.474" r="7.474" transform="translate(24.395 59.175)"/></g><g transform="translate(-18.569 -27.666)"><path class="d" d="M101.431,33.747c0,2.165-2.527,8.031-4.323,10.947a2.063,2.063,0,0,1-3.515,0c-1.8-2.916-4.323-8.782-4.323-10.947a6.081,6.081,0,1,1,12.161,0Z"/><circle class="e" cx="3.417" cy="3.417" r="3.417" transform="translate(91.933 30.608)"/></g></g></svg>