<svg xmlns="http://www.w3.org/2000/svg" xmlns:xlink="http://www.w3.org/1999/xlink" width="17.326" height="16.739" viewBox="0 0 17.326 16.739"><defs><style>.a{fill:none;}.b{clip-path:url(#a);}.c{fill:#000;}</style><clipPath id="a"><rect class="a" width="17.326" height="16.739"/></clipPath></defs><g class="b" transform="translate(0)"><path class="c" d="M18.571,8.129,10.411.839a.545.545,0,0,0-.71,0l-8.16,7.29a.444.444,0,0,0,.355.765H3.133a.477.477,0,0,1,.5.448V17a.477.477,0,0,0,.5.448H6.927a.477.477,0,0,0,.5-.448V12.591a.478.478,0,0,1,.5-.448h4.252a.478.478,0,0,1,.5.448V17a.478.478,0,0,0,.5.448h2.79a.478.478,0,0,0,.5-.448V9.342a.476.476,0,0,1,.5-.448h1.238A.444.444,0,0,0,18.571,8.129Z" transform="translate(-1.393 -0.708)"/></g></svg>