<svg xmlns="http://www.w3.org/2000/svg" xmlns:xlink="http://www.w3.org/1999/xlink" width="17.924" height="18.638" viewBox="0 0 17.924 18.638"><defs><style>.a,.d{fill:none;}.b{clip-path:url(#a);}.c{fill:#007D8A;}.d{stroke:#007D8A;stroke-linecap:round;stroke-linejoin:round;stroke-width:1.8px;}</style><clipPath id="a"><rect class="a" width="17.924" height="18.638"/></clipPath></defs><g class="b"><path class="c" d="M32.773,4.717a4.134,4.134,0,0,0-4.134,4.134c0,1.7,2.281,6.244,3.454,7.97a.82.82,0,0,0,1.359,0c1.173-1.726,3.454-6.274,3.454-7.97A4.133,4.133,0,0,0,32.773,4.717Zm0,5.871A1.737,1.737,0,1,1,34.51,8.851,1.738,1.738,0,0,1,32.773,10.588Z" transform="translate(-28.639 -0.631)"/><path class="c" d="M44.5.631A2.067,2.067,0,0,0,42.429,2.7a11.9,11.9,0,0,0,1.727,3.985.411.411,0,0,0,.68,0A11.883,11.883,0,0,0,46.563,2.7,2.066,2.066,0,0,0,44.5.631Zm0,3.038a.971.971,0,1,1,.971-.971A.971.971,0,0,1,44.5,3.669Z" transform="translate(-28.639 -0.631)"/><path class="d" d="M44.5,8.1H41.215a2.568,2.568,0,0,0-2.568,2.569h0a2.568,2.568,0,0,0,2.568,2.568h.713A2.568,2.568,0,0,1,44.5,15.8h0a2.568,2.568,0,0,1-2.568,2.568H32.773" transform="translate(-28.639 -0.631)"/></g></svg>