<svg xmlns="http://www.w3.org/2000/svg" xmlns:xlink="http://www.w3.org/1999/xlink" width="188.75" height="79.402" viewBox="0 0 188.75 79.402"><defs><style>.a{fill:none;}.b{clip-path:url(#a);}.c,.d{fill:#1a1818;}.d{stroke:#1a1818;stroke-linecap:round;stroke-linejoin:round;stroke-width:1.5px;}</style><clipPath id="a"><rect class="a" width="188.75" height="79.402"/></clipPath></defs><g class="b" transform="translate(0)"><path class="c" d="M518.946,261.133l-3.268-9.385a.422.422,0,0,1,.433-.627h.507a.6.6,0,0,1,.613.448l2.685,8.073,2.642-8.073a.6.6,0,0,1,.625-.448h.509c.387,0,.552.254.432.627l-3.283,9.385a.576.576,0,0,1-.612.432h-.672a.577.577,0,0,1-.611-.432" transform="translate(-431.548 -229.785)"/><path class="c" d="M556.4,259.6v-6.4a.5.5,0,0,1,.552-.537h.448a.487.487,0,0,1,.537.537v6.4a.487.487,0,0,1-.537.537h-.448a.5.5,0,0,1-.552-.537m-.268-9.312a1.016,1.016,0,0,1,1.03-1.044,1.03,1.03,0,1,1,0,2.06,1,1,0,0,1-1.03-1.016" transform="translate(-462.388 -228.357)"/><path class="c" d="M569.835,266.869a3.885,3.885,0,0,1,4.209-3.985,4.462,4.462,0,0,1,2.252.612.477.477,0,0,1,.149.761l-.12.149c-.208.283-.432.3-.761.15a3.463,3.463,0,0,0-1.448-.329,2.566,2.566,0,1,0,0,5.119,3.463,3.463,0,0,0,1.448-.329c.328-.164.566-.135.761.148l.1.149c.21.284.1.642-.374.88a4.2,4.2,0,0,1-2.012.493c-2.643,0-4.209-1.686-4.209-3.82" transform="translate(-472.826 -238.744)"/><path class="c" d="M602.962,261.815V257.9h-.91a.279.279,0,0,1-.3-.313v-.582a.267.267,0,0,1,.3-.3h.94l.269-1.716a.452.452,0,0,1,.478-.434h.314a.42.42,0,0,1,.447.464v1.686h2.044a.267.267,0,0,1,.3.3v.582a.279.279,0,0,1-.3.313H604.5v4c0,.8.389,1.118.866,1.118a.8.8,0,0,0,.88-.805,1.082,1.082,0,0,0-.031-.283c-.03-.21.061-.344.269-.344h.686a.3.3,0,0,1,.344.269,2.673,2.673,0,0,1,.061.552,1.967,1.967,0,0,1-2.24,1.939,2.229,2.229,0,0,1-2.372-2.537" transform="translate(-497.134 -232.406)"/><path class="c" d="M635.786,266.8a2.428,2.428,0,1,0-2.433,2.552,2.493,2.493,0,0,0,2.433-2.552m-6.372-.014a3.955,3.955,0,1,1,3.94,3.909,3.916,3.916,0,0,1-3.94-3.909" transform="translate(-518.199 -238.748)"/><path class="c" d="M668.41,269.99v-6.4a.5.5,0,0,1,.552-.537h.448a.487.487,0,0,1,.537.537v1.134a2.1,2.1,0,0,1,2-1.835l.329.015c.314.045.359.3.359.6v.434c0,.373-.149.523-.4.462a1.865,1.865,0,0,0-.4-.043c-.537,0-1.88.268-1.88,3.327v2.313a.488.488,0,0,1-.537.537h-.448a.5.5,0,0,1-.552-.537" transform="translate(-547.897 -238.746)"/><path class="c" d="M690.9,259.6v-6.4a.5.5,0,0,1,.552-.537h.448a.486.486,0,0,1,.536.537v6.4a.486.486,0,0,1-.536.537h-.448a.5.5,0,0,1-.552-.537m-.268-9.312a1.016,1.016,0,0,1,1.029-1.044,1.03,1.03,0,1,1,0,2.06,1,1,0,0,1-1.029-1.016" transform="translate(-564.818 -228.357)"/><path class="c" d="M710.733,266.782a2.442,2.442,0,0,0-2.492-2.566,2.574,2.574,0,0,0,0,5.132,2.443,2.443,0,0,0,2.492-2.566m-6.4,0a3.691,3.691,0,0,1,3.7-3.895,3.087,3.087,0,0,1,2.671,1.344v-.642a.5.5,0,0,1,.552-.538h.448a.488.488,0,0,1,.537.538v6.4a.488.488,0,0,1-.537.537h-.448a.5.5,0,0,1-.552-.537v-.643a3.088,3.088,0,0,1-2.671,1.344,3.7,3.7,0,0,1-3.7-3.91" transform="translate(-575.253 -238.746)"/><path class="c" d="M745.7,269.99v-6.4a.5.5,0,0,1,.552-.537h.448a.487.487,0,0,1,.537.537v.926a2.429,2.429,0,0,1,2.491-1.627c1.657,0,2.865,1.074,2.865,3.417v3.686a.5.5,0,0,1-.552.537H751.6a.488.488,0,0,1-.537-.537v-3.671c0-1.537-.7-2.089-1.491-2.089s-2.329.522-2.329,2.79v2.969a.487.487,0,0,1-.537.537h-.448a.5.5,0,0,1-.552-.537" transform="translate(-606.761 -238.746)"/><path class="c" d="M521.736,314.715l-2.06-5.492-2.028,5.492Zm-6.715,2.79,3.6-9.386a.627.627,0,0,1,.627-.433h.867a.614.614,0,0,1,.625.433l3.627,9.386c.134.373-.016.627-.418.627h-.477a.628.628,0,0,1-.643-.434l-.641-1.7H517.2l-.641,1.7a.609.609,0,0,1-.627.434h-.493c-.4,0-.566-.254-.417-.627" transform="translate(-431.04 -272.863)"/><path class="c" d="M563.027,323.348a2.443,2.443,0,0,0-2.492-2.567,2.575,2.575,0,0,0,0,5.133,2.443,2.443,0,0,0,2.492-2.566m-5.268,6.476a.531.531,0,0,1-.164-.746l.12-.209c.163-.344.417-.373.731-.179a3.962,3.962,0,0,0,2.134.582,2.216,2.216,0,0,0,2.417-2.4v-.954a3.088,3.088,0,0,1-2.671,1.344,3.908,3.908,0,0,1,0-7.8A3.088,3.088,0,0,1,563,320.8v-.658a.494.494,0,0,1,.552-.521h.433a.5.5,0,0,1,.552.536v6.819c0,2.537-1.865,3.627-3.94,3.627a4.9,4.9,0,0,1-2.836-.776" transform="translate(-462.766 -281.825)"/><path class="c" d="M601.934,322.378a2.152,2.152,0,0,0-2.254-1.612,2.4,2.4,0,0,0-2.4,1.612Zm-6.312,1a3.906,3.906,0,0,1,4.028-3.924,3.623,3.623,0,0,1,3.8,3.506c.045.358-.164.553-.521.553h-5.791a2.451,2.451,0,0,0,2.731,2.4,3.508,3.508,0,0,0,2.03-.627.542.542,0,0,1,.76.075l.1.12a.532.532,0,0,1-.1.851,4.345,4.345,0,0,1-2.8.924,3.9,3.9,0,0,1-4.239-3.879" transform="translate(-492.464 -281.825)"/><path class="c" d="M634.048,326.554v-6.4a.5.5,0,0,1,.552-.537h.448a.488.488,0,0,1,.537.537v.926a2.429,2.429,0,0,1,2.491-1.628c1.657,0,2.865,1.075,2.865,3.418v3.686a.5.5,0,0,1-.552.537h-.448a.487.487,0,0,1-.537-.537v-3.671c0-1.537-.7-2.089-1.491-2.089s-2.329.522-2.329,2.79v2.969a.488.488,0,0,1-.537.537H634.6a.5.5,0,0,1-.552-.537" transform="translate(-521.728 -281.822)"/><path class="c" d="M668.411,323.436a3.885,3.885,0,0,1,4.208-3.985,4.464,4.464,0,0,1,2.254.612.477.477,0,0,1,.149.762l-.12.149c-.208.283-.432.3-.761.15a3.46,3.46,0,0,0-1.448-.329,2.566,2.566,0,1,0,0,5.119,3.459,3.459,0,0,0,1.448-.329c.328-.164.566-.135.761.149l.1.149c.21.284.105.642-.372.88a4.219,4.219,0,0,1-2.016.493c-2.641,0-4.208-1.686-4.208-3.82" transform="translate(-547.898 -281.823)"/><path class="c" d="M701.6,330.334l1.149-3-2.865-6.566c-.165-.373.014-.627.417-.627h.6a.585.585,0,0,1,.612.419l2.075,5.056,1.91-5.043a.615.615,0,0,1,.642-.432h.612c.4,0,.581.238.416.627L703,330.542a.6.6,0,0,1-.627.419h-.359c-.4,0-.566-.254-.417-.627" transform="translate(-571.822 -282.35)"/><path class="c" d="M750.371,316.024v-5.746h-.866a.28.28,0,0,1-.3-.313V309.4a.279.279,0,0,1,.3-.313h.866v-.552c0-2.4,1.313-2.91,2.491-2.91,1.463,0,2.284.805,2.284,1.9a1.247,1.247,0,0,1-.03.252.267.267,0,0,1-.269.165h-.731a.278.278,0,0,1-.313-.269v-.1c0-.373-.389-.627-.852-.627-.686,0-1.015.522-1.015,1.344v.806h1.627a.278.278,0,0,1,.3.313v.568a.279.279,0,0,1-.3.313h-1.627v5.746a.487.487,0,0,1-.537.537h-.493a.487.487,0,0,1-.537-.537" transform="translate(-609.428 -271.292)"/><path class="c" d="M776.737,323.36a2.428,2.428,0,1,0-2.433,2.552,2.494,2.494,0,0,0,2.433-2.552m-6.372-.014a3.955,3.955,0,1,1,3.939,3.908,3.919,3.919,0,0,1-3.939-3.908" transform="translate(-625.541 -281.822)"/><path class="c" d="M808.106,326.554v-6.4a.5.5,0,0,1,.552-.537h.448a.488.488,0,0,1,.537.537v1.134a2.1,2.1,0,0,1,2-1.836l.329.016c.313.045.357.3.357.6v.434c0,.372-.149.521-.4.462a1.865,1.865,0,0,0-.4-.043c-.537,0-1.88.268-1.88,3.327v2.313a.488.488,0,0,1-.537.537h-.448a.5.5,0,0,1-.552-.537" transform="translate(-654.284 -281.822)"/><path class="c" d="M518.534,383.96V373.4a.867.867,0,0,1,.963-.963h1.356a.874.874,0,0,1,.963.963v4.211h4.176V373.4a.866.866,0,0,1,.963-.963h1.339a.866.866,0,0,1,.964.963V383.96a.866.866,0,0,1-.964.963h-1.339a.866.866,0,0,1-.963-.963v-3.676h-4.176v3.676a.874.874,0,0,1-.963.963H519.5a.866.866,0,0,1-.963-.963" transform="translate(-433.757 -322.172)"/><path class="c" d="M575.814,388.9a1.869,1.869,0,0,0-2.052-1.5,1.944,1.944,0,0,0-2.087,1.5Zm-7.209,1.052a4.835,4.835,0,0,1,5.139-4.871c2.785,0,4.961,1.677,5.014,4.639.018.554-.375.786-.981.786H571.62c0,.82.947,1.784,2.642,1.784a3.83,3.83,0,0,0,1.837-.464.959.959,0,0,1,1.339.232l.251.321a.882.882,0,0,1-.2,1.392,6.167,6.167,0,0,1-3.479.982c-3.391,0-5.407-2.142-5.407-4.8" transform="translate(-471.889 -331.804)"/><path class="c" d="M622.2,389.917a2.046,2.046,0,1,0-2.034,2.338,2.107,2.107,0,0,0,2.034-2.338m-7.262,0a4.515,4.515,0,0,1,4.407-4.835,3.181,3.181,0,0,1,2.82,1.445v-.285a.866.866,0,0,1,.964-.964h1.284a.866.866,0,0,1,.964.964v7.351a.867.867,0,0,1-.964.964h-1.284a.866.866,0,0,1-.964-.964v-.268a3.2,3.2,0,0,1-2.82,1.427,4.515,4.515,0,0,1-4.407-4.835" transform="translate(-507.175 -331.805)"/><path class="c" d="M665.535,382.653V371.678a.865.865,0,0,1,.963-.962h1.285a.865.865,0,0,1,.963.962v10.975a.866.866,0,0,1-.963.963H666.5a.866.866,0,0,1-.963-.963" transform="translate(-545.707 -320.865)"/><path class="c" d="M685.962,384.52v-3.783h-.839a.452.452,0,0,1-.5-.5v-1.356a.452.452,0,0,1,.5-.5h1.124l.321-1.748a.656.656,0,0,1,.731-.607h1.125a.6.6,0,0,1,.678.66v1.7h1.872a.453.453,0,0,1,.5.5v1.356a.453.453,0,0,1-.5.5H689.1v3.836c0,.554.268.767.59.767.428,0,.641-.375.641-.784a1.876,1.876,0,0,0-.017-.3c-.036-.338.072-.517.41-.517h1.2a.511.511,0,0,1,.554.374,2.9,2.9,0,0,1,.124.714c0,2.284-1.625,3.033-3.265,3.033a3.039,3.039,0,0,1-3.372-3.336" transform="translate(-560.244 -324.909)"/><path class="c" d="M722.868,382.653V371.678a.865.865,0,0,1,.963-.962h1.285a.865.865,0,0,1,.963.962v3.98a2.8,2.8,0,0,1,2.695-1.517c2.678,0,3.3,2.231,3.3,4.086v4.426a.866.866,0,0,1-.963.963h-1.286a.865.865,0,0,1-.962-.963v-4.158c0-1-.322-1.8-1.267-1.8s-1.517.784-1.517,2.016v3.943a.866.866,0,0,1-.963.963h-1.285a.866.866,0,0,1-.963-.963" transform="translate(-589.37 -320.865)"/><path class="c" d="M518.534,452.731V442.167a.867.867,0,0,1,.963-.963h1.356a.874.874,0,0,1,.963.963v10.564a.874.874,0,0,1-.963.963H519.5a.866.866,0,0,1-.963-.963" transform="translate(-433.757 -374.546)"/><path class="c" d="M540.014,462.362V455.01a.866.866,0,0,1,.964-.963h1.285a.866.866,0,0,1,.963.963v.358a2.8,2.8,0,0,1,2.695-1.517c2.678,0,3.3,2.231,3.3,4.086v4.426a.866.866,0,0,1-.964.963h-1.286a.866.866,0,0,1-.963-.963V458.2c0-1-.321-1.8-1.266-1.8s-1.517.786-1.517,2.016v3.944a.866.866,0,0,1-.963.963h-1.285a.866.866,0,0,1-.964-.963" transform="translate(-450.115 -384.176)"/><path class="c" d="M585,450.792v-5.961h-.7a.45.45,0,0,1-.5-.5v-1.179a.451.451,0,0,1,.5-.5h.7v-.536c0-2.784,2-3.462,3.6-3.462,1.535,0,3.213.643,3.213,2.517a1.271,1.271,0,0,1-.019.266.447.447,0,0,1-.481.43h-1.482a.338.338,0,0,1-.374-.34v-.09a.6.6,0,0,0-.66-.517c-.446,0-.7.3-.7.785v.947h1.445a.459.459,0,0,1,.5.5v1.179a.458.458,0,0,1-.5.5h-1.392v5.961a.866.866,0,0,1-.963.963h-1.214a.879.879,0,0,1-.981-.963" transform="translate(-483.463 -372.606)"/><path class="c" d="M620.413,457.866a2.24,2.24,0,1,0-2.248,2.3,2.2,2.2,0,0,0,2.248-2.3m-7.494,0a5.263,5.263,0,1,1,5.246,4.835,4.954,4.954,0,0,1-5.246-4.835" transform="translate(-505.637 -383.553)"/><path class="c" d="M661.568,462.362V455.01a.866.866,0,0,1,.963-.963h1.179a.873.873,0,0,1,.962.963v1.036a2.432,2.432,0,0,1,2.356-2.2,1.368,1.368,0,0,1,.268.019c.464,0,.554.392.554.731v1.6c0,.536-.286.768-.7.715a3.405,3.405,0,0,0-.428-.019c-1.284,0-1.946.858-1.946,2.516v2.945a.866.866,0,0,1-.964.963h-1.285a.866.866,0,0,1-.963-.963" transform="translate(-542.686 -384.176)"/><path class="c" d="M694.425,462.362V455.01a.866.866,0,0,1,.964-.963h1.285a.866.866,0,0,1,.964.963v.358a2.355,2.355,0,0,1,2.319-1.517,2.793,2.793,0,0,1,2.57,1.464,3.184,3.184,0,0,1,2.908-1.464c2.481,0,3.338,2.249,3.338,4.1v4.408a.867.867,0,0,1-.964.963h-1.284a.865.865,0,0,1-.963-.963v-4.229c0-1.017-.322-1.731-1.089-1.731-.75,0-1.25.679-1.269,1.891v4.069a.865.865,0,0,1-.962.963h-1.285a.866.866,0,0,1-.963-.963v-4.229c0-1.017-.322-1.731-1.089-1.731s-1.267.715-1.267,1.946v4.015a.866.866,0,0,1-.964.963h-1.285a.866.866,0,0,1-.964-.963" transform="translate(-567.709 -384.176)"/><path class="c" d="M767.48,457.866a2.046,2.046,0,1,0-2.034,2.338,2.107,2.107,0,0,0,2.034-2.338m-7.262,0a4.515,4.515,0,0,1,4.407-4.835,3.181,3.181,0,0,1,2.82,1.445v-.285a.867.867,0,0,1,.964-.965h1.284a.867.867,0,0,1,.964.965v7.352a.866.866,0,0,1-.964.962h-1.284a.866.866,0,0,1-.964-.962v-.269a3.206,3.206,0,0,1-2.82,1.427,4.515,4.515,0,0,1-4.407-4.835" transform="translate(-617.814 -383.553)"/><path class="c" d="M810.806,452.468v-3.783h-.839a.452.452,0,0,1-.5-.5V446.83a.452.452,0,0,1,.5-.5h1.124l.321-1.748a.657.657,0,0,1,.733-.607h1.124a.6.6,0,0,1,.678.66v1.7h1.874a.452.452,0,0,1,.5.5v1.356a.452.452,0,0,1-.5.5h-1.874v3.836c0,.554.268.767.588.767.43,0,.643-.374.643-.785a1.88,1.88,0,0,0-.017-.3c-.036-.338.072-.517.41-.517h1.2a.512.512,0,0,1,.554.374,2.906,2.906,0,0,1,.125.715c0,2.283-1.624,3.032-3.265,3.032a3.039,3.039,0,0,1-3.372-3.336" transform="translate(-655.321 -376.656)"/><path class="c" d="M846.974,450.507v-7.352a.867.867,0,0,1,.963-.964h1.285a.867.867,0,0,1,.963.964v7.352a.867.867,0,0,1-.963.964h-1.285a.867.867,0,0,1-.963-.964m-.232-10.688c0-.857.625-1.535,1.839-1.535,1.231,0,1.856.678,1.856,1.535,0,.873-.679,1.535-1.856,1.535s-1.839-.662-1.839-1.535" transform="translate(-683.708 -372.322)"/><path class="c" d="M874.819,457.866a2.24,2.24,0,1,0-2.248,2.3,2.2,2.2,0,0,0,2.248-2.3m-7.494,0a5.263,5.263,0,1,1,5.246,4.835,4.954,4.954,0,0,1-5.246-4.835" transform="translate(-699.383 -383.553)"/><path class="c" d="M915.975,462.362V455.01a.866.866,0,0,1,.964-.963h1.285a.866.866,0,0,1,.964.963v.358a2.8,2.8,0,0,1,2.695-1.517c2.678,0,3.3,2.231,3.3,4.086v4.426a.866.866,0,0,1-.963.963h-1.286a.866.866,0,0,1-.963-.963V458.2c0-1-.321-1.8-1.266-1.8s-1.517.786-1.517,2.016v3.944a.866.866,0,0,1-.964.963h-1.285a.866.866,0,0,1-.964-.963" transform="translate(-736.433 -384.176)"/><path class="d" d="M198.534,329.852a32.413,32.413,0,0,1-27.7-49.235l.838-1.377-.177,1.6a32.136,32.136,0,0,0-.2,3.514,31.692,31.692,0,0,0,58.78,16.456l.838-1.376-.177,1.6A32.344,32.344,0,0,1,198.534,329.852Zm-27.891-47.467a31.694,31.694,0,1,0,59.168,20.161,32.409,32.409,0,0,1-59.231-18.189C170.581,283.71,170.6,283.051,170.644,282.385Z" transform="translate(-165.377 -251.2)"/><path class="d" d="M244.161,215.394l.176-1.6a32.342,32.342,0,0,0,.2-3.514,31.692,31.692,0,0,0-58.78-16.456l-.838,1.376.177-1.6A32.406,32.406,0,1,1,245,214.02Zm-31.317-37.52a32.443,32.443,0,0,1,32.406,32.407c0,.645-.021,1.3-.062,1.973a31.694,31.694,0,1,0-59.168-20.162,32.377,32.377,0,0,1,26.824-14.218Z" transform="translate(-179.687 -164.036)"/><path class="c" d="M213.456,296.142a2.988,2.988,0,1,0,3,2.978,2.992,2.992,0,0,0-3-2.978" transform="translate(-199.153 -264.072)"/><path class="c" d="M272.429,310.658l-3.642-8.908q-.259-.676-.428-1.079a4.311,4.311,0,0,0-.44-.808,2.2,2.2,0,0,0-.74-.664,2.557,2.557,0,0,0-2.257.007,2.163,2.163,0,0,0-.737.683,5.031,5.031,0,0,0-.481.964l-3.869,9.924c-.148.371-.252.654-.317.864a2.3,2.3,0,0,0-.108.68,1.493,1.493,0,0,0,.509,1.106,1.624,1.624,0,0,0,1.154.471,1.355,1.355,0,0,0,1.149-.493,6.465,6.465,0,0,0,.7-1.484l.58-1.569,5.184-.018.588,1.53,0,.007c.09.216.2.465.32.747a3.182,3.182,0,0,0,.389.69,1.475,1.475,0,0,0,.5.406,1.575,1.575,0,0,0,.71.15,1.64,1.64,0,0,0,1.191-.5,1.543,1.543,0,0,0,.489-1.109,4.663,4.663,0,0,0-.453-1.6m-4.742-3.061-3.228.012,1.586-4.465Z" transform="translate(-236.419 -266.203)"/><path class="c" d="M395.532,301.016a2.121,2.121,0,0,0-.481-1.494,1.653,1.653,0,0,0-1.26-.518,1.605,1.605,0,0,0-1.233.532,2.157,2.157,0,0,0-.465,1.491l.036,10.9a2.161,2.161,0,0,0,.48,1.492,1.6,1.6,0,0,0,1.232.528,1.64,1.64,0,0,0,1.257-.531,2.147,2.147,0,0,0,.471-1.5Z" transform="translate(-337.465 -266.252)"/><path class="c" d="M235.284,298.836a1.656,1.656,0,0,0-1.549,1.091l0,.01-4.689,11.628-.019.071a1.654,1.654,0,0,0,3.1,1.156l4.723-11.72.019-.069a1.651,1.651,0,0,0-1.577-2.168" transform="translate(-213.208 -266.123)"/><path class="c" d="M338.083,300.85h0v-.015a2.117,2.117,0,0,0-.481-1.491,1.649,1.649,0,0,0-1.257-.517,1.6,1.6,0,0,0-1.238.535,1.484,1.484,0,0,0-.2.3l-.03.073a1.751,1.751,0,0,0-.1.239h0a2.824,2.824,0,0,0-.128.892l.013,3.646-5.415.018-.011-3.647a2.129,2.129,0,0,0-.483-1.493,1.635,1.635,0,0,0-1.258-.516,1.586,1.586,0,0,0-1.251.537,2.187,2.187,0,0,0-.447,1.484l.036,10.9a2.2,2.2,0,0,0,.462,1.487,1.586,1.586,0,0,0,1.249.534,1.649,1.649,0,0,0,1.251-.531,2.134,2.134,0,0,0,.477-1.5l-.015-4.335,5.413-.019.015,4.335a2.2,2.2,0,0,0,.462,1.488,1.587,1.587,0,0,0,1.25.532,1.642,1.642,0,0,0,1.249-.53,2.126,2.126,0,0,0,.477-1.5Z" transform="translate(-286.973 -266.115)"/></g></svg>