<svg xmlns="http://www.w3.org/2000/svg" width="29.972" height="48.446" viewBox="0 0 29.972 48.446"><defs><style>.a{fill:#fff;}.b,.c{fill:#2e2b79;}.b{stroke:#2e2b79;stroke-width:0.4px;}</style></defs><g transform="translate(-218.133 -501.588)"><path class="a" d="M42.126,20.473a14.255,14.255,0,1,0-25.17,9.15,20.57,20.57,0,0,1,4.763,13.3v.765H33.79v-.464A22.325,22.325,0,0,1,39.017,29.36,14.2,14.2,0,0,0,42.126,20.473Z" transform="translate(205.243 496.143)"/><path class="b" d="M35.054,34.28a.414.414,0,0,1-.213,0,.451.451,0,0,1-.2-.627,25.546,25.546,0,0,1,2.883-4.437,13.6,13.6,0,0,0,3.021-8.637A13.818,13.818,0,0,0,23.722,7.067a13.287,13.287,0,0,0-4.9,2.143.476.476,0,0,1-.664-.113.464.464,0,0,1,.125-.652,14.1,14.1,0,0,1,5.24-2.294A14.738,14.738,0,0,1,38.3,29.7a25.684,25.684,0,0,0-2.77,4.325A.451.451,0,0,1,35.054,34.28Z" transform="translate(206.373 496.036)"/><path class="b" d="M33.885,43.025H21.814a.476.476,0,0,1-.464-.476v-.765A20.169,20.169,0,0,0,16.7,28.8a14.739,14.739,0,0,1-.84-17.887.464.464,0,0,1,.652-.113.476.476,0,0,1,.125.652,16.158,16.158,0,0,0-.89,1.454,13.538,13.538,0,0,0-1.253,3.247,13.788,13.788,0,0,0,2.871,12.059,21.1,21.1,0,0,1,4.926,13.575v.3H33.409a20.52,20.52,0,0,1,.84-5.6.476.476,0,1,1,.9.263,19.567,19.567,0,0,0-.765,5.34v.464a.476.476,0,0,1-.5.476Z" transform="translate(205.147 497.282)"/><path class="b" d="M32.832,38.66H19.946a.476.476,0,0,1-.476-.476.464.464,0,0,1,.476-.464H32.832a.464.464,0,0,1,.476.464.476.476,0,0,1-.476.476Z" transform="translate(206.727 504.128)"/><path class="a" d="M31.214,39.59a5.177,5.177,0,1,1-10.354,0Z" transform="translate(207.079 504.602)"/><path class="b" d="M26.141,45.328A5.653,5.653,0,0,1,20.5,39.688v-.476h8.386a.476.476,0,1,1,0,.94H21.453a4.7,4.7,0,0,0,9.376-.464.476.476,0,0,1,.476-.476.464.464,0,0,1,.464.476A5.653,5.653,0,0,1,26.141,45.328Z" transform="translate(206.988 504.505)"/><path class="c" d="M24.97,37.11a.476.476,0,0,1-.476-.476V25.44H21.661a3.171,3.171,0,0,1,0-6.33h.614a3.171,3.171,0,0,1,3.159,3.171V24.5H27.74a.476.476,0,0,1,.476.476.464.464,0,0,1-.476.464H25.434V36.634a.476.476,0,0,1-.464.476ZM21.661,20.05a2.231,2.231,0,0,0,0,4.45h2.833V22.281a2.231,2.231,0,0,0-2.219-2.231Z" transform="translate(206.529 499.411)"/><path class="c" d="M26.949,37.11a.476.476,0,0,1-.476-.476V25.44H24.166a.464.464,0,0,1-.476-.464.476.476,0,0,1,.476-.476h2.306V22.281a3.171,3.171,0,0,1,3.171-3.171h.6a3.171,3.171,0,0,1,0,6.33H27.413V36.634a.476.476,0,0,1-.464.476Zm.464-12.61h2.833a2.231,2.231,0,0,0,0-4.45h-.6a2.231,2.231,0,0,0-2.231,2.231Z" transform="translate(207.797 499.411)"/><path class="c" d="M35.241,16.057a.451.451,0,0,1-.426-.288A10.529,10.529,0,0,0,26.768,8.95a.476.476,0,0,1-.376-.552.451.451,0,0,1,.539-.376A11.419,11.419,0,0,1,35.7,15.405a.464.464,0,0,1-.251.614Z" transform="translate(208.48 496.598)"/></g></svg>