<svg xmlns="http://www.w3.org/2000/svg" width="46.752" height="48.3" viewBox="0 0 46.752 48.3"><defs><style>.a,.b{fill:#2e2b79;}.b{stroke:#2e2b79;stroke-width:0.6px;}</style></defs><g transform="translate(-1104.218 -499.11)"><g transform="translate(1104.218 499.11)"><g transform="translate(0)"><path class="a" d="M76.471.912h0A1.625,1.625,0,0,0,74.7,1.18L72.412,3.208,69.3.421a1.649,1.649,0,0,0-2.2,0L63.982,3.206,60.867.421a1.649,1.649,0,0,0-2.2,0L55.549,3.208,53.256,1.18a1.639,1.639,0,0,0-2.728,1.236V32.831a1.641,1.641,0,0,0,2.732,1.236l2.291-2.028,3.117,2.788a1.649,1.649,0,0,0,2.2,0l3.114-2.785L67.1,34.826a1.649,1.649,0,0,0,2.2,0L72.025,32.3c0-3.059,3.25-8.3,5.22-7.591.354-2.417.193,8.523.19-22.3A1.625,1.625,0,0,0,76.471.912ZM72.177,30.321c-.626-.555-.241-.07-.864.488L68.2,33.6l-3.114-2.785a1.649,1.649,0,0,0-2.2,0L59.767,33.6l-3.118-2.788a1.64,1.64,0,0,0-2.186-.006L52.179,32.83v-4.4L52.171,2.417l2.288,2.028a1.648,1.648,0,0,0,2.192-.006l3.116-2.788,3.114,2.785a1.649,1.649,0,0,0,2.2,0L68.2,1.651l3.118,2.788a1.64,1.64,0,0,0,2.186.006l2.284-2.028V25.334Z" transform="translate(-50.529)"/></g><g transform="translate(4.804 16.798)"><path class="a" d="M125.209,203.527H109.561a.825.825,0,0,0,0,1.651h15.648a.825.825,0,1,0,0-1.651Z" transform="translate(-108.736 -203.527)"/></g><g transform="translate(4.804 11.846)"><path class="a" d="M117.781,143.527h-8.219a.825.825,0,1,0,0,1.651h8.219a.825.825,0,0,0,0-1.651Z" transform="translate(-108.736 -143.527)"/></g><g transform="translate(4.804 21.75)"><path class="a" d="M125.209,263.527H109.561a.825.825,0,1,0,0,1.651h15.648a.825.825,0,1,0,0-1.651Z" transform="translate(-108.736 -263.527)"/></g></g><path class="b" d="M35.058,48.5a12.829,12.829,0,0,1-4.411-.77.371.371,0,1,1,.247-.7A12.257,12.257,0,0,0,44.808,28.112a.365.365,0,0,1,.069-.523.375.375,0,0,1,.523.069A13.007,13.007,0,0,1,35.058,48.5Z" transform="translate(1102.479 498.61)"/><path class="b" d="M28.485,46.678a.345.345,0,0,1-.187-.059A13,13,0,1,1,43.228,25.4a.375.375,0,1,1-.5.553A12.266,12.266,0,1,0,28.673,45.968a.375.375,0,0,1-.187.691Z" transform="translate(1102.589 498.675)"/><path class="a" d="M35.115,37.171a.282.282,0,0,1-.365-.326V26.414a.375.375,0,1,1,.74,0v9.72l4.934-3.069a.375.375,0,0,1,.395.632l-5.5,3.424a.454.454,0,0,1-.207.049Z" transform="translate(1102.422 498.63)"/></g></svg>