<svg id="Layer_1" data-name="Layer 1" xmlns="http://www.w3.org/2000/svg" viewBox="0 0 48 47.44"><defs><style>.cls-1{fill:none;stroke:#2e2b79;stroke-miterlimit:10;stroke-width:1.5px;}.cls-2{fill:#2e2b79;}</style></defs><path class="cls-1" d="M27.11,46.31H43.74a2.85,2.85,0,0,0,2.84-2.84v-.68c0-4.84-5.07-9.36-11.32-9.36S24,38,24,42.79"/><line class="cls-1" x1="23.95" y1="42.79" x2="23.95" y2="44.55"/><circle class="cls-1" cx="35.26" cy="24.05" r="7.58"/><line class="cls-1" x1="21.93" y1="3.67" x2="9.79" y2="3.67"/><path class="cls-1" d="M5.93,3.67A4.94,4.94,0,0,0,1,8.6v8.61a5,5,0,0,0,4.94,4.94H16l5.81,5.17.08-5.17h0a4.94,4.94,0,0,0,4.94-4.94V8.6a4.94,4.94,0,0,0-4.94-4.93"/><path class="cls-2" d="M14.19,17.77a.69.69,0,0,1,0-1.38.69.69,0,0,1,0,1.38Zm.89-7.59c-.05.45-.19,2.42-.37,5.18a.54.54,0,0,1-.52.46.53.53,0,0,1-.53-.46l-.37-5.18a1.55,1.55,0,0,1,0-.22.9.9,0,0,1,1.77,0A.73.73,0,0,1,15.08,10.18Z"/><path class="cls-1" d="M12.91,6.6l-.43.74L11.4,9.22,10,11.67,8.55,14.15l-.59,1-.26.45"/><path class="cls-1" d="M6.73,17.44a1.54,1.54,0,0,0,1.21,1.78H20.47a1.45,1.45,0,0,0,1.05-2.06c-1.81-3.43-3.77-6.55-5.68-10a2.3,2.3,0,0,0-1.26-1.3,1.49,1.49,0,0,0-1.67.71"/><ellipse class="cls-2" cx="5.88" cy="3.66" rx="0.8" ry="0.75"/><ellipse class="cls-2" cx="9.79" cy="3.66" rx="0.8" ry="0.75"/><path class="cls-2" d="M8.42,15.91a.76.76,0,0,1-1.36-.66"/><path class="cls-2" d="M6,17.3a.75.75,0,0,1,.93-.51.74.74,0,0,1,.52.92"/><path class="cls-2" d="M24.7,44.35a.75.75,0,1,1-1.5,0"/><path class="cls-2" d="M27.17,47.06a.75.75,0,0,1,0-1.5"/></svg>