<svg id="Layer_1" data-name="Layer 1" xmlns="http://www.w3.org/2000/svg" viewBox="0 0 48 47.44"><defs><style>.cls-1,.cls-3{fill:none;}.cls-1,.cls-2,.cls-3{stroke:#2e2b79;stroke-miterlimit:10;}.cls-1{stroke-width:1.5px;}.cls-2,.cls-4{fill:#2e2b79;}.cls-2{stroke-width:0.25px;}</style></defs><path class="cls-1" d="M27.11,46.31H43.74a2.85,2.85,0,0,0,2.84-2.84v-.68c0-4.84-5.07-9.36-11.32-9.36S24,38,24,42.79"/><line class="cls-1" x1="23.95" y1="42.79" x2="23.95" y2="44.55"/><circle class="cls-1" cx="35.26" cy="24.05" r="7.58"/><line class="cls-1" x1="21.93" y1="3.67" x2="9.79" y2="3.67"/><path class="cls-1" d="M5.93,3.67A4.94,4.94,0,0,0,1,8.6v8.61a5,5,0,0,0,4.94,4.94H16l5.81,5.17.08-5.17h0a4.94,4.94,0,0,0,4.94-4.94V8.6a4.94,4.94,0,0,0-4.94-4.93"/><path class="cls-2" d="M15,20.7H12.82a.83.83,0,0,1-.83-.83V18.73a7.68,7.68,0,0,1-.79-.32l-.8.8a.81.81,0,0,1-.59.24.78.78,0,0,1-.58-.24L7.66,17.64a.83.83,0,0,1-.25-.59.79.79,0,0,1,.25-.58l.8-.81a5.48,5.48,0,0,1-.33-.79H7a.82.82,0,0,1-.59-.24A.81.81,0,0,1,6.17,14V11.82a.78.78,0,0,1,.24-.58A.83.83,0,0,1,7,11H8.13a5.37,5.37,0,0,1,.33-.78l-.8-.81a.79.79,0,0,1-.25-.58.83.83,0,0,1,.25-.59L9.23,6.66a.78.78,0,0,1,.58-.24.81.81,0,0,1,.59.24l.8.8A5.94,5.94,0,0,1,12,7.14V6a.83.83,0,0,1,.83-.83H15a.83.83,0,0,1,.83.83V7.14a5.44,5.44,0,0,1,.79.32l.8-.8a.85.85,0,0,1,1.18,0l1.57,1.57a.87.87,0,0,1,.24.59.83.83,0,0,1-.24.58l-.81.81a5.37,5.37,0,0,1,.33.78h1.14a.83.83,0,0,1,.82.83V14a.83.83,0,0,1-.82.83H19.73a5.48,5.48,0,0,1-.33.79l.81.81a.83.83,0,0,1,0,1.17l-1.57,1.57a.85.85,0,0,1-1.18,0l-.8-.8a6.86,6.86,0,0,1-.79.32v1.14A.83.83,0,0,1,15,20.7Zm-3.89-2.94a.37.37,0,0,1,.14,0,5.87,5.87,0,0,0,1.07.44.3.3,0,0,1,.21.28v1.35a.25.25,0,0,0,.25.25H15a.25.25,0,0,0,.25-.25V18.52a.3.3,0,0,1,.21-.28,6,6,0,0,0,1.08-.44.29.29,0,0,1,.34.05l.95.95a.27.27,0,0,0,.36,0l1.57-1.57a.25.25,0,0,0,0-.36l-.95-1a.29.29,0,0,1-.05-.34,5.69,5.69,0,0,0,.44-1.08.29.29,0,0,1,.28-.2h1.35a.26.26,0,0,0,.25-.26V11.82a.25.25,0,0,0-.25-.25H19.52a.29.29,0,0,1-.28-.21,5.87,5.87,0,0,0-.44-1.07.29.29,0,0,1,.05-.34L19.8,9a.26.26,0,0,0,.07-.18.24.24,0,0,0-.07-.18L18.23,7.07a.24.24,0,0,0-.36,0L16.92,8a.29.29,0,0,1-.34.05,5.36,5.36,0,0,0-1.08-.45.29.29,0,0,1-.21-.27V6A.25.25,0,0,0,15,5.75H12.82a.25.25,0,0,0-.25.25V7.35a.29.29,0,0,1-.21.27,5.28,5.28,0,0,0-1.07.45A.3.3,0,0,1,10.94,8L10,7.07A.25.25,0,0,0,9.81,7a.23.23,0,0,0-.17.08L8.06,8.64A.29.29,0,0,0,8,8.82.31.31,0,0,0,8.06,9L9,10a.29.29,0,0,1,.05.34,5.28,5.28,0,0,0-.45,1.07.29.29,0,0,1-.28.21H7a.29.29,0,0,0-.18.07.26.26,0,0,0-.07.18V14a.23.23,0,0,0,.07.18A.25.25,0,0,0,7,14.3H8.34a.29.29,0,0,1,.28.2,5.13,5.13,0,0,0,.45,1.08.29.29,0,0,1-.05.34l-1,1a.27.27,0,0,0,0,.36L9.64,18.8a.22.22,0,0,0,.17.07A.24.24,0,0,0,10,18.8l.95-.95A.29.29,0,0,1,11.15,17.76Zm2.78-1.84a3,3,0,1,1,3-3A3,3,0,0,1,13.93,15.92Zm0-5.39a2.41,2.41,0,1,0,2.41,2.4A2.41,2.41,0,0,0,13.93,10.53Z"/><path class="cls-3" d="M13.92,8.51A4.5,4.5,0,1,1,9.42,13"/><path class="cls-3" d="M11.69,9.1a4.59,4.59,0,0,1,2.23-.59"/><path class="cls-3" d="M9.42,13a4.51,4.51,0,0,1,.89-2.68"/><ellipse class="cls-4" cx="5.88" cy="3.66" rx="0.8" ry="0.75"/><ellipse class="cls-4" cx="9.79" cy="3.66" rx="0.8" ry="0.75"/><path class="cls-4" d="M12,9.53a.5.5,0,0,1-.42-.9"/><path class="cls-4" d="M9.89,10.14a.46.46,0,0,1,.65-.09.46.46,0,0,1,.1.65"/><path class="cls-4" d="M24.7,44.35a.75.75,0,1,1-1.5,0"/><path class="cls-4" d="M27.17,47.06a.75.75,0,0,1,0-1.5"/></svg>