<?xml version="1.0" encoding="UTF-8"?>
<svg width="44px" height="63px" viewBox="0 0 44 63" version="1.1" xmlns="http://www.w3.org/2000/svg" xmlns:xlink="http://www.w3.org/1999/xlink">
    <title>Asset 4</title>
    <g id="Cognito-16---Support-V2" stroke="none" stroke-width="1" fill="none" fill-rule="evenodd">
        <g id="Support-2" transform="translate(-206.000000, -401.000000)">
            <g id="Asset-4" transform="translate(206.000000, 401.000000)">
                <path d="M14.76,20.888 L28.128,20.888 L29.544,37.448 C29.6285058,38.5919014 30.5578919,39.4903079 31.704,39.536 L31.944,39.536 L28.464,42.8 L21.6,52.808 L14.76,42.608 L11.184,39.536 L11.664,39.536 C12.7113812,39.3780547 13.5035052,38.5057157 13.56,37.448 L14.76,20.888 Z" id="Path" fill="#E3CCA4"></path>
                <path d="M21.6,52.808 L21.6,52.808 L14.76,42.608 L11.184,39.536 L11.664,39.536 C12.7113812,39.3780547 13.5035052,38.5057157 13.56,37.448 L14.52,24.176 L21.6,24.176 L21.6,52.808 Z" id="Path" fill="#D4C5A3"></path>
                <path d="M13.92,32.528 L29.136,32.528 L29.136,33.248 C28.9349051,33.6217565 28.7104605,33.9824711 28.464,34.328 C27.0648054,36.936943 24.5245083,38.740021 21.6,39.2 C18.6540703,38.7840112 16.0756986,37.0058239 14.64,34.4 C14.3614151,33.9983283 14.1050314,33.5817047 13.872,33.152 L13.92,32.528 Z" id="Path" fill="#CCBC97"></path>
                <path d="M9.264,39.632 L12.792,38.936 L16.32,40.4 C16.8884499,40.6373419 17.3438745,41.0841736 17.592,41.648 L21.6,50.408 L25.584,41.288 C25.8307435,40.7307152 26.3014361,40.3036052 26.88,40.112 L30.216,38.864 L33.288,39.512 L35.52,40.208 L39.36,62.096 L3.864,62.096 L7.2,40.496 L9.264,39.632 Z" id="Path" fill="#ECF0F1"></path>
                <path d="M43.2002976,58.16 C43.2002976,50.24 42.672,41.864 33.408,39.512 C34.176,40.976 33.576,42.296 35.112,46.52 L28.104,42.608 L21.432,58.664 L14.76,42.608 L7.776,46.52 C9.264,42.392 8.736,41.048 9.432,39.632 C0.528,42.08 -7.70253879e-05,50.384 -7.70253879e-05,58.16 C-0.0133596896,60.3112733 1.71284662,62.069645 3.864,62.096 L39.336,62.096 C40.3713656,62.0896879 41.361449,61.6706641 42.0867877,60.9318099 C42.8121263,60.1929556 43.2128018,59.1953057 43.2002976,58.16 Z" id="Path" fill="#045EB8"></path>
                <path d="M11.304,32 C-3.744,7.52 19.776,-1.6 20.688,1.664 C20.928,2.552 20.976,2.12 21.528,1.664 C28.8,-3.328 44.376,12.92 31.776,32 C30.8369552,32.2456401 29.8829471,32.4300283 28.92,32.552 L28.92,32.552 C29.9234782,31.1913778 30.7313338,29.6968449 31.32,28.112 L31.32,28.112 C31.6645545,27.1047552 31.9529972,26.0791812 32.184,25.04 C32.4261427,23.9868767 32.6104187,22.9212805 32.736,21.848 L32.736,21.848 C32.736,21.416 32.736,20.984 32.736,20.528 C32.736,20.072 32.736,19.664 32.736,19.16 C32.736,18.656 32.736,18.512 32.736,18.296 C32.736,18.08 32.736,17.792 32.736,17.504 C32.448,15.104 29.328,14.672 25.992,14.12 C22.056,13.472 17.856,12.776 16.176,9.32 L16.176,9.32 C13.1677199,11.5567578 11.1730162,14.8985343 10.632,18.608 C10.632,19.04 10.632,19.52 10.632,20 C10.632,20.48 10.632,20.96 10.632,21.488 L10.632,21.488 C10.8516356,25.4514108 12.1368202,29.28209 14.352,32.576 C13.3228677,32.461543 12.3039297,32.2689878 11.304,32 Z" id="Path" fill="#2C3E50"></path>
                <path d="M31.2,28.28 C31.5445545,27.2727552 31.8329972,26.2471812 32.064,25.208 C32.3061427,24.1548767 32.4904187,23.0892805 32.616,22.016 L32.616,22.016 C32.616,21.584 32.616,21.152 32.616,20.696 C32.616,20.24 32.616,19.832 32.616,19.328 C32.616,18.824 32.616,18.68 32.616,18.464 C32.616,18.248 32.616,17.96 32.616,17.672 C32.328,15.272 29.208,14.84 25.872,14.288 C21.936,13.64 17.736,12.944 16.056,9.488 L16.056,9.488 C13.130413,11.7066262 11.1847214,14.9781431 10.632,18.608 C10.632,19.04 10.632,19.52 10.632,20 C10.632,20.48 10.632,20.96 10.632,21.488 L10.632,21.488 C10.8352868,25.5064952 12.1387235,29.3918988 14.4,32.72 L14.4,32.72 C15.9775905,35.2182471 18.6522422,36.8141227 21.6,37.016 C23.6263552,36.9680492 25.5613451,36.1632303 27.024,34.76 L27.024,34.76 C28.9186156,32.9687176 30.3514228,30.745396 31.2,28.28 L31.2,28.28 Z" id="Path" fill="#FFE7BD"></path>
                <path d="M21.6,13.4 C19.2820917,12.9478118 17.285539,11.4877776 16.152,9.416 L16.152,9.416 C13.1743355,11.6344489 11.1910196,14.9371011 10.632,18.608 C10.632,19.04 10.632,19.52 10.632,20 C10.632,20.48 10.632,20.984 10.632,21.488 L10.632,21.488 C10.8352868,25.5064952 12.1387235,29.3918988 14.4,32.72 L14.4,32.72 C15.9775905,35.2182471 18.6522422,36.8141227 21.6,37.016 L21.6,13.4 Z" id="Path" fill="#E8D6AC"></path>
            </g>
        </g>
    </g>
</svg>