<?xml version="1.0" encoding="UTF-8"?>
<svg width="54px" height="55px" viewBox="0 0 54 55" version="1.1" xmlns="http://www.w3.org/2000/svg" xmlns:xlink="http://www.w3.org/1999/xlink">
    <title>Asset 9</title>
    <g id="Cognito-16---Support-V2" stroke="none" stroke-width="1" fill="none" fill-rule="evenodd">
        <g id="Support-2" transform="translate(-598.000000, -583.000000)">
            <g id="Asset-9" transform="translate(598.000000, 583.000000)">
                <path d="M42.27,0.96 L44.49,7.92 C44.6886667,8.56579817 45.1942018,9.07133334 45.84,9.27 L52.8,11.52 C53.3717382,11.7143201 53.7562655,12.2511416 53.7562655,12.855 C53.7562655,13.4588584 53.3717382,13.9956799 52.8,14.19 L45.84,16.44 C45.1942018,16.6386667 44.6886667,17.1442018 44.49,17.79 L42.27,24.72 C42.0857942,25.3103418 41.5384109,25.7117562 40.92,25.7101329 C40.3060646,25.7185726 39.7636722,25.3117783 39.6,24.72 L37.35,17.79 C37.1560695,17.1413632 36.6486368,16.6339305 36,16.44 L29.04,14.19 C28.4682618,13.9956799 28.0837345,13.4588584 28.0837345,12.855 C28.0837345,12.2511416 28.4682618,11.7143201 29.04,11.52 L36,9.27 C36.6545239,9.07518331 37.1708469,8.57008465 37.38,7.92 L39.6,0.96 C39.7748414,0.380131089 40.3144709,-0.0123266851 40.92,-1.48205016e-15 C41.5303548,-0.00593677942 42.0752256,0.381526905 42.27,0.96 Z" id="Path" fill="#FFCB05"></path>
                <path d="M45.45,29.7 L47.07,34.68 C47.2163059,35.1532135 47.5867865,35.5236941 48.06,35.67 L53.07,37.29 C53.4867962,37.4224666 53.7672913,37.8127205 53.76,38.25 C53.7776901,38.6904664 53.4931314,39.086374 53.07,39.21 L48,40.83 C47.5267865,40.9763059 47.1563059,41.3467865 47.01,41.82 L45.39,46.83 C45.266374,47.2531314 44.8704664,47.5376901 44.43,47.52 C43.9927205,47.5272913 43.6024666,47.2467962 43.47,46.83 L42,41.82 C41.8536941,41.3467865 41.4832135,40.9763059 41.01,40.83 L36,39.21 C35.5768686,39.086374 35.2923099,38.6904664 35.31,38.25 C35.3027087,37.8127205 35.5832038,37.4224666 36,37.29 L41.01,35.67 C41.4817317,35.5390905 41.854641,35.1774814 42,34.71 L43.62,29.7 C43.7415086,29.271309 44.1344343,28.9766148 44.58,28.9799711 C44.9954225,29.0060141 45.3467547,29.2967717 45.45,29.7 Z" id="Path" fill="#ECF0F1"></path>
                <path d="M19.17,2.55 L20.31,6.15 C20.4087944,6.48817833 20.6663298,6.75691095 21,6.87 L24.57,8.01 C24.862596,8.11743889 25.0631367,8.38875872 25.0800012,8.7 C25.0805751,9.01723914 24.8734463,9.29747229 24.57,9.39 L21,10.56 C20.6548231,10.664705 20.384705,10.9348231 20.28,11.28 L19.17,15 C19.0659568,15.3081233 18.7751896,15.5140833 18.45,15.5100596 C18.1327609,15.5105751 17.8525277,15.3034463 17.76,15 L16.62,11.28 C16.515295,10.9348231 16.2451769,10.664705 15.9,10.56 L12.33,9.39 C12.0202785,9.30650955 11.8089442,9.02058669 11.82,8.7 C11.8194249,8.38276086 12.0265537,8.10252771 12.33,8.01 L15.9,6.87 C16.2451769,6.76529505 16.515295,6.49517694 16.62,6.15 L17.76,2.55 C17.8703138,2.26404115 18.1435269,2.07397984 18.45,2.07 C18.7674108,2.061456 19.0558057,2.25371924 19.17,2.55 L19.17,2.55 Z" id="Path" fill="#ECF0F1"></path>
                <path d="M7.47,52.83 C6.65309886,53.6544347 5.5406119,54.1182358 4.38,54.1182358 C3.2193881,54.1182358 2.10690114,53.6544347 1.29,52.83 C-0.325413169,51.156195 -0.325413169,48.503805 1.29,46.83 C9.51,38.58 17.52,30.63 25.77,22.41 C27.4682756,20.7034401 30.2284401,20.6967244 31.935,22.395 C33.6415599,24.0932756 33.6482756,26.8534401 31.95,28.56 C29.49,30.81 27,33.36 24.33,36 L7.47,52.83 Z" id="Path" fill="#045EB8"></path>
                <path d="M0.27,51.24 C-0.320243956,49.6519381 0.0794112681,47.8652441 1.29,46.68 C9.51,38.43 17.52,30.48 25.77,22.26 C26.9483483,21.082863 28.6923689,20.6759248 30.27,21.21 L0.27,51.24 Z" id="Path" fill="#045EB8"></path>
                <path d="M3,54 C4.58909536,54.5745288 6.36712552,54.1768116 7.56,52.98 C15.81,44.76 23.73,36.72 31.98,28.5 C33.140196,27.311717 33.534441,25.5724008 33,24 L3,54 Z" id="Path" fill="#045EB8"></path>
            </g>
        </g>
    </g>
</svg>