<?xml version="1.0" encoding="UTF-8"?>
<svg width="57px" height="73px" viewBox="0 0 57 73" version="1.1" xmlns="http://www.w3.org/2000/svg" xmlns:xlink="http://www.w3.org/1999/xlink">
    <title>Asset 5</title>
    <g id="Cognito-16---Support-V2" stroke="none" stroke-width="1" fill="none" fill-rule="evenodd">
        <g id="Support-2" transform="translate(-990.000000, -574.000000)">
            <g id="Asset-5" transform="translate(990.000000, 574.000000)">
                <polygon id="Path" fill="#DAE1E6" points="45.18 6.81 44.43 6.06 44.46 6.06"></polygon>
                <path d="M53.1,60.8101231 L14.58,60.8101231 C13.5828147,60.8022506 12.630493,60.3944596 11.9367262,59.6781313 C11.2429594,58.961803 10.8658437,57.9969228 10.89,57 L10.89,3.66 C10.8979242,2.68134097 11.2943114,1.74591686 11.9919538,1.05952676 C12.6895961,0.373136665 13.6313415,-0.00798891911 14.61,-0.000123106375 L40.86,-0.000123106375 L56.79,15.96 L56.79,57.15 C56.79,58.1259126 56.4003113,59.0614234 55.707426,59.7486754 C55.0145408,60.4359275 54.0758798,60.8179993 53.1,60.8101231 Z" id="Path" fill="#045EB8"></path>
                <polygon id="Path" fill="#045EB8" points="51.15 10.32 56.79 15.96 56.79 29.73 41.97 14.91"></polygon>
                <path d="M53.1,60.81 L45.87,60.81 L45.87,27.57 L56.76,38.46 L56.76,57.15 C56.76,59.1713622 55.1213622,60.81 53.1,60.81 Z" id="Path" fill="#045EB8"></path>
                <path d="M56.79,15.96 L44.52,15.96 C42.4937947,15.9435262 40.86,14.2962723 40.86,12.27 L40.86,0 L56.79,15.96 Z" id="Path" fill="#DAE1E6"></path>
                <polygon id="Path" fill="#DAE1E6" points="34.29 18.42 33.54 17.64 33.57 17.64"></polygon>
                <path d="M42.18,72.4201221 L3.69,72.4201221 C2.70613107,72.4201221 1.76298995,72.0271503 1.07011183,71.3286391 C0.377233724,70.6301278 -0.0079989349,69.6838364 -0.000122123167,68.7 L-0.000122123167,15.27 C-0.000122123167,14.2861311 0.392849666,13.3429899 1.09136093,12.6501118 C1.7898722,11.9572337 2.73616359,11.5720011 3.72,11.5798779 L30,11.5798779 L45.9,27.57 L45.9,68.73 C45.9,69.7138689 45.5071503,70.6570101 44.8086391,71.3498882 C44.1101278,72.0427663 43.1638364,72.4279989 42.18,72.4201221 L42.18,72.4201221 Z" id="Path" fill="#DAE1E6"></path>
                <polygon id="Path" fill="#B3B3B3" points="40.26 21.9 45.9 27.57 45.87 41.34 31.08 26.52"></polygon>
                <path d="M45.9,27.54 L33.63,27.54 C31.6725139,27.5097759 30.0793488,25.9561107 30,24 L30,11.61 L45.9,27.54 Z" id="Path" fill="#ECF0F1"></path>
            </g>
        </g>
    </g>
</svg>