<?xml version="1.0" encoding="UTF-8"?>
<svg width="40px" height="39px" viewBox="0 0 40 39" version="1.1" xmlns="http://www.w3.org/2000/svg" xmlns:xlink="http://www.w3.org/1999/xlink">
    <!-- Generator: sketchtool 52.5 (67469) - http://www.bohemiancoding.com/sketch -->
    <title>7F0F5584-B63C-400F-AD00-494E9B42C1A8</title>
    <desc>Created with sketchtool.</desc>
    <g id="Page-1" stroke="none" stroke-width="1" fill="none" fill-rule="evenodd">
        <g id="Careers_page" transform="translate(-756.000000, -1099.000000)">
            <g id="Group-13" transform="translate(757.000000, 1100.000000)">
                <path d="M15.9999095,9.75678571 C15.9999095,13.8725476 12.6631476,17.2093095 8.54738571,17.2093095 C4.43071905,17.2093095 1.09305238,13.8725476 1.09305238,9.75678571 C1.09305238,5.64011905 4.43071905,2.30335714 8.54738571,2.30335714 C12.6631476,2.30335714 15.9999095,5.64011905 15.9999095,9.75678571" id="Fill-1" fill="#FFCEA1"></path>
                <path d="M37.0686381,13.4178905 C37.0686381,20.8278905 31.061019,26.8355095 23.6501143,26.8355095 C16.2401143,26.8355095 10.2324952,20.8278905 10.2324952,13.4178905 C10.2324952,6.00789048 16.2401143,0.000271428571 23.6501143,0.000271428571 C31.061019,0.000271428571 37.0686381,6.00789048 37.0686381,13.4178905 Z" id="Stroke-3" stroke="#2D2D2D" stroke-width="2" stroke-linecap="round"></path>
                <path d="M17.858281,19.7825286 C17.1028048,19.7825286 16.5427571,19.0849571 16.7029,18.3466714 C17.3606619,15.3039571 20.0677095,13.0248619 23.3076619,13.0248619 C26.5476143,13.0248619 29.2546619,15.3039571 29.9124238,18.3466714 C30.0725667,19.0849571 29.512519,19.7825286 28.7570429,19.7825286 L17.858281,19.7825286 Z" id="Stroke-5" stroke="#2D2D2D" stroke-width="2" stroke-linecap="round"></path>
                <path d="M26.9315952,9.49927619 C26.9315952,11.4463238 25.3527857,13.0242286 23.4057381,13.0242286 C21.4586905,13.0242286 19.879881,11.4463238 19.879881,9.49927619 C19.879881,7.55222857 21.4586905,5.97341905 23.4057381,5.97341905 C25.3527857,5.97341905 26.9315952,7.55222857 26.9315952,9.49927619 Z" id="Stroke-7" stroke="#2D2D2D" stroke-width="2" stroke-linecap="round"></path>
                <path d="M13.7109429,22.8674952 L10.3805143,26.0015905" id="Stroke-9" stroke="#2D2D2D" stroke-width="2" stroke-linecap="round"></path>
                <path d="M10.0282,32.2610048 L7.18905714,35.1001476 C5.5442,36.7450048 2.87877143,36.7450048 1.23300952,35.1001476 C-0.410942857,33.4552905 -0.410942857,30.7889571 1.23300952,29.1450048 L4.07305714,26.3049571 C5.71700952,24.6610048 8.38424762,24.6610048 10.0282,26.3049571 C11.6730571,27.9498143 11.6730571,30.6161476 10.0282,32.2610048 Z" id="Stroke-11" stroke="#2D2D2D" stroke-width="2" stroke-linecap="round"></path>
            </g>
        </g>
    </g>
</svg>