<svg id="Layer_1" data-name="Layer 1" xmlns="http://www.w3.org/2000/svg" xmlns:xlink="http://www.w3.org/1999/xlink" viewBox="0 0 50 50"><defs><style>.cls-1,.cls-5{fill:none;}.cls-1{clip-rule:evenodd;}.cls-2{clip-path:url(#clip-path);}.cls-3{clip-path:url(#clip-path-2);}.cls-4{fill:#ffaaa4;}.cls-5{stroke:#2d2d2d;stroke-linecap:round;stroke-miterlimit:10;stroke-width:2px;}</style><clipPath id="clip-path"><path class="cls-1" d="M-378-1261.63l.07.08h.2a1,1,0,0,1-.27-.09"/></clipPath><clipPath id="clip-path-2"><path class="cls-1" d="M-159-909.43l.08.08h.2a1.31,1.31,0,0,1-.28-.09"/></clipPath></defs><title>Locations-illustrations3-latest</title><circle class="cls-4" cx="38.03" cy="12.39" r="8.74"/><path class="cls-5" d="M4.41,17.17l4.33-8a3.25,3.25,0,0,1,2.85-1.69H36.64a3.25,3.25,0,0,1,2.85,1.69l4.34,8"/><rect class="cls-5" x="3.97" y="15.16" width="40.3" height="29.98" rx="3.72"/><path class="cls-5" d="M24.12,24h5.3a1.77,1.77,0,0,1,1.77,1.77v5.3a7.07,7.07,0,0,1-7.07,7.07h0A7.07,7.07,0,0,1,17,31.12v0A7.07,7.07,0,0,1,24.12,24Z"/></svg>