<svg id="Layer_1" data-name="Layer 1" xmlns="http://www.w3.org/2000/svg" xmlns:xlink="http://www.w3.org/1999/xlink" viewBox="0 0 50 50"><defs><style>.cls-1,.cls-5{fill:none;}.cls-1{clip-rule:evenodd;}.cls-2{clip-path:url(#clip-path);}.cls-3{clip-path:url(#clip-path-2);}.cls-4{fill:#d9ffe7;}.cls-5{stroke:#2d2d2d;stroke-linecap:round;stroke-miterlimit:10;stroke-width:2px;}</style><clipPath id="clip-path"><path class="cls-1" d="M-228-1261.63l.07.08h.2a1,1,0,0,1-.27-.09"/></clipPath><clipPath id="clip-path-2"><path class="cls-1" d="M-9-909.43l.08.08h.2a1.31,1.31,0,0,1-.28-.09"/></clipPath></defs><title>Locations-illustrations3-latest</title><circle class="cls-4" cx="36.28" cy="16.34" r="9.48"/><polyline class="cls-5" points="4.25 7.57 4.25 43.14 41.98 43.14"/><path class="cls-5" d="M10.72,33.44l7.66-9.59a1.59,1.59,0,0,1,2.18-.27l6.19,4.64A1.58,1.58,0,0,0,28.92,28l8.74-10.69"/><path class="cls-5" d="M34.19,16.27l3.57-.67a1,1,0,0,1,1.1.76l.66,3.57"/></svg>