<?xml version="1.0" encoding="UTF-8"?>
<svg width="39px" height="35px" viewBox="0 0 39 35" version="1.1" xmlns="http://www.w3.org/2000/svg" xmlns:xlink="http://www.w3.org/1999/xlink">
    <!-- Generator: sketchtool 52.5 (67469) - http://www.bohemiancoding.com/sketch -->
    <title>772E337C-201D-4C2B-881D-F162FB6F6A87</title>
    <desc>Created with sketchtool.</desc>
    <g id="Page-1" stroke="none" stroke-width="1" fill="none" fill-rule="evenodd">
        <g id="Careers_page" transform="translate(-198.000000, -1099.000000)">
            <g id="Group-11" transform="translate(199.000000, 1100.000000)">
                <path d="M37.9996465,26.6009737 C37.9996465,30.5655526 34.8253209,33.7785526 30.9104372,33.7785526 C26.9946698,33.7785526 23.8203442,30.5655526 23.8203442,26.6009737 C23.8203442,22.6363947 26.9946698,19.4233947 30.9104372,19.4233947 C34.8253209,19.4233947 37.9996465,22.6363947 37.9996465,26.6009737" id="Fill-1" fill="#FFEBB8"></path>
                <path d="M33.8511953,27.8674737 L2.11324186,27.8674737 C1.43366047,27.8674737 0.883102326,27.3100526 0.883102326,26.6228947 L0.883102326,6.31147368 C0.883102326,5.62431579 1.43366047,5.06689474 2.11324186,5.06689474 L33.8511953,5.06689474 C34.5307767,5.06689474 35.0813349,5.62431579 35.0813349,6.31147368 L35.0813349,26.6228947 C35.0813349,27.3100526 34.5307767,27.8674737 33.8511953,27.8674737 Z" id="Stroke-3" stroke="#2D2D2D" stroke-width="2"></path>
                <path d="M6.3048186,13.5115105 L29.6597953,13.5115105" id="Stroke-5" stroke="#2D2D2D" stroke-width="2" stroke-linecap="round"></path>
                <path d="M15.0625814,13.5115105 L15.0625814,14.7784579 C15.0625814,16.4104579 16.3696047,17.7337737 17.9823953,17.7337737 C19.5943023,17.7337737 20.9013256,16.4104579 20.9013256,14.7784579 L20.9013256,13.5115105" id="Stroke-7" stroke="#2D2D2D" stroke-width="2" stroke-linecap="round"></path>
                <path d="M12.5607674,5.06698421 L12.5607674,2.96077368 C12.5607674,1.32519474 13.8695581,8.94736842e-05 15.4858837,8.94736842e-05 L20.4797907,8.94736842e-05 C22.0943488,8.94736842e-05 23.4040233,1.32519474 23.4040233,2.96077368 L23.4040233,5.06698421" id="Stroke-9" stroke="#2D2D2D" stroke-width="2" stroke-linecap="round"></path>
            </g>
        </g>
    </g>
</svg>