<?xml version="1.0" encoding="UTF-8"?>
<svg width="39px" height="39px" viewBox="0 0 39 39" version="1.1" xmlns="http://www.w3.org/2000/svg" xmlns:xlink="http://www.w3.org/1999/xlink">
    <!-- Generator: sketchtool 52.5 (67469) - http://www.bohemiancoding.com/sketch -->
    <title>28C1ED2A-B05C-46CC-83DB-F24069E9B5EB</title>
    <desc>Created with sketchtool.</desc>
    <defs>
        <polygon id="path-1" points="0.704357143 9.04761905e-05 16.989619 9.04761905e-05 16.989619 16.2857143 0.704357143 16.2857143"></polygon>
    </defs>
    <g id="Page-1" stroke="none" stroke-width="1" fill="none" fill-rule="evenodd">
        <g id="Careers_page" transform="translate(-1036.000000, -803.000000)">
            <g id="Group-8" transform="translate(1037.000000, 804.000000)">
                <g id="Group-127">
                    <g id="Group-3" transform="translate(20.809524, 21.714286)">
                        <mask id="mask-2" fill="white">
                            <use xlink:href="#path-1"></use>
                        </mask>
                        <g id="Clip-2"></g>
                        <path d="M16.9900714,8.14294762 C16.9900714,12.6396143 13.3447857,16.2858048 8.84721429,16.2858048 C4.34964286,16.2858048 0.704357143,12.6396143 0.704357143,8.14294762 C0.704357143,3.64537619 4.34964286,9.04761905e-05 8.84721429,9.04761905e-05 C13.3447857,9.04761905e-05 16.9900714,3.64537619 16.9900714,8.14294762" id="Fill-1" fill="#F4DEFF" mask="url(#mask-2)"></path>
                    </g>
                    <path d="M25.1329286,18.0953286 C25.1329286,22.0925667 21.8920714,25.3334238 17.8948333,25.3334238 C13.8975952,25.3334238 10.6567381,22.0925667 10.6567381,18.0953286 C10.6567381,14.0980905 13.8975952,10.8572333 17.8948333,10.8572333 C21.8920714,10.8572333 25.1329286,14.0980905 25.1329286,18.0953286 Z" id="Stroke-4" stroke="#000000" stroke-width="2"></path>
                    <path d="M17.994719,25.1328381 C14.0590048,25.1328381 10.8570524,21.9308857 10.8570524,17.9951714 C10.8570524,14.0594571 14.0590048,10.8575048 17.994719,10.8575048 C21.9313381,10.8575048 25.1332905,14.0594571 25.1332905,17.9951714 C25.1332905,21.9308857 21.9313381,25.1328381 17.994719,25.1328381 Z M34.7744333,14.9352667 L32.788481,14.5534571 C31.8991,14.3842667 31.2024333,13.8025048 30.8703857,12.961981 C30.5392429,12.1178381 30.6559571,11.2166952 31.1933857,10.4865524 L32.4392429,8.78650476 C32.8771476,8.19026667 32.8129095,7.36240952 32.2890524,6.84126667 L29.5973857,4.1496 C29.090719,3.64112381 28.2900048,3.56602857 27.6982905,3.96774286 L26.0226714,5.0996 C25.2762429,5.60807619 24.3732905,5.69131429 23.5409095,5.33121905 C22.7112429,4.96840952 22.155719,4.24821905 22.0181952,3.35340952 L21.6979095,1.27155238 C21.585719,0.5396 20.9551,0.000361904762 20.2141,0.000361904762 L16.4086714,0.000361904762 C15.6902905,0.000361904762 15.0723381,0.509742857 14.935719,1.2163619 L14.4426238,3.78045714 C14.2761476,4.64812381 13.712481,5.34117143 12.8945762,5.67864762 C12.0775762,6.01974286 11.1872905,5.92745714 10.4553381,5.43164762 L8.29205238,3.96774286 C7.7003381,3.56602857 6.9023381,3.64112381 6.39295714,4.1496 L3.70129048,6.84126667 C3.17743333,7.36240952 3.11319524,8.19026667 3.5511,8.78650476 L4.79695714,10.4874571 C5.33438571,11.2166952 5.4511,12.1178381 5.11995714,12.961981 C4.78790952,13.8025048 4.09124286,14.3842667 3.20005238,14.5534571 L1.21590952,14.9352667 C0.510195238,15.0718857 -9.04761905e-05,15.6898381 -9.04761905e-05,16.408219 L-9.04761905e-05,20.2145524 C-9.04761905e-05,20.9555524 0.540052381,21.5852667 1.27200476,21.6974571 L3.35295714,22.0186476 C4.24867143,22.1543619 4.9688619,22.7107905 5.33076667,23.5404571 C5.69176667,24.3701238 5.60852857,25.273981 5.10005238,26.0240286 L3.96819524,27.6969333 C3.56467143,28.2913619 3.64157619,29.0893619 4.14914762,29.5978381 L6.84171905,32.2886 C7.36467143,32.8142667 8.19071905,32.873981 8.78605238,32.4387905 L10.4879095,31.1929333 C11.2171476,30.6573143 12.116481,30.5424095 12.9624333,30.8699333 C13.8020524,31.201981 14.3838143,31.8995524 14.5530048,32.7898381 L14.935719,34.773981 C15.0723381,35.4806 15.6902905,35.989981 16.4086714,35.989981 L20.2141,35.989981 C20.9551,35.989981 21.585719,35.4498381 21.6979095,34.7187905 L21.9222905,33.2548857 C22.0634333,32.3383619 22.6352429,31.6109333 23.4893381,31.258981 C24.3389095,30.9043143 25.2599571,31.0137905 26.0081952,31.562981 L27.2042905,32.4387905 C27.7960048,32.873981 28.6256714,32.8142667 29.1486238,32.2895048 L31.8411952,29.5978381 C32.3487667,29.0893619 32.4256714,28.2913619 32.0221476,27.6969333 L30.8902905,26.022219 C30.3809095,25.273981 30.2976714,24.3701238 30.6586714,23.5404571 C31.021481,22.7116952 31.7416714,22.1543619 32.6373857,22.0186476 L34.7183381,21.6974571 C35.4502905,21.5852667 35.9904333,20.9555524 35.9904333,20.2145524 L35.9904333,16.408219 C35.9904333,15.6898381 35.4801476,15.0718857 34.7744333,14.9352667 Z" id="Stroke-6" stroke="#2D2D2D" stroke-width="2"></path>
                </g>
            </g>
        </g>
    </g>
</svg>