<svg id="Layer_1" data-name="Layer 1" xmlns="http://www.w3.org/2000/svg" xmlns:xlink="http://www.w3.org/1999/xlink" viewBox="0 0 50 50"><defs><style>.cls-1,.cls-5{fill:none;}.cls-1{clip-rule:evenodd;}.cls-2{clip-path:url(#clip-path);}.cls-3{clip-path:url(#clip-path-2);}.cls-4{fill:#c2b8ff;}.cls-5{stroke:#2d2d2d;stroke-linecap:round;stroke-miterlimit:10;stroke-width:2px;}</style><clipPath id="clip-path"><path class="cls-1" d="M-302-1261.63l.07.08h.2a1,1,0,0,1-.27-.09"/></clipPath><clipPath id="clip-path-2"><path class="cls-1" d="M-83-909.43l.08.08h.2a1.31,1.31,0,0,1-.28-.09"/></clipPath></defs><title>Locations-illustrations3-latest</title><circle class="cls-4" cx="12.21" cy="14.32" r="8"/><path class="cls-5" d="M4.24,20.8l19.5-6.28a4,4,0,0,1,2.52,0l19.5,6.28a1.41,1.41,0,0,1,0,2.68L26.33,30.12a4.18,4.18,0,0,1-2.66,0L4.21,23.48A1.41,1.41,0,0,1,4.24,20.8Z"/><path class="cls-5" d="M13.18,32l9.9,3.18a6.66,6.66,0,0,0,4.07,0L36.82,32a.93.93,0,0,1,1.23.89v5.05a1.7,1.7,0,0,1-.4,1.13c-1.07,1.27-4.49,4.34-12.77,4.63,0,0-7.56,0-12.33-3.93a1.75,1.75,0,0,1-.6-1.34V32.86A.93.93,0,0,1,13.18,32Z"/><line class="cls-5" x1="43.81" y1="24.87" x2="43.81" y2="31.45"/><circle class="cls-5" cx="43.69" cy="33.75" r="1.52"/></svg>