<svg xmlns="http://www.w3.org/2000/svg" width="70" height="70" viewBox="0 0 70 70">
  <g id="search-sad" transform="translate(-11 -11)">
    <g id="Group_4" data-name="Group 4" transform="translate(11 11)">
      <path id="Path_5" data-name="Path 5" d="M80.143,76.029,63.314,59.2a29.476,29.476,0,1,0-4.129,4.129L76.014,80.143a2.914,2.914,0,1,0,4.129-4.114ZM40.5,64.129A23.636,23.636,0,1,1,64.143,40.5,23.659,23.659,0,0,1,40.5,64.129Z" transform="translate(-11 -11)" fill="#da002a"/>
    </g>
    <g id="Group_5" data-name="Group 5" transform="translate(25.572 26.72)">
      <path id="Path_6" data-name="Path 6" d="M142.3,146.7a1.834,1.834,0,0,1-.99,2.436,1.92,1.92,0,0,1-2.5-.965,12.415,12.415,0,0,0-22.147,0,1.9,1.9,0,0,1-1.756,1.143,1.953,1.953,0,0,1-.729-.142,1.838,1.838,0,0,1-1.027-2.423c2.351-5.519,8.09-9.085,14.618-9.085A15.718,15.718,0,0,1,142.3,146.7Zm-27.746-21.829a3.931,3.931,0,1,1,3.93,3.832A3.882,3.882,0,0,1,114.553,124.874Zm17.821,0a3.932,3.932,0,1,1,3.931,3.832A3.883,3.883,0,0,1,132.374,124.874Z" transform="translate(-113.005 -121.042)" fill="#da002a"/>
    </g>
  </g>
</svg>
