<svg xmlns="http://www.w3.org/2000/svg" width="67.902" height="71.007" viewBox="0 0 67.902 71.007">
  <g id="_11" data-name="11" transform="translate(-601.998 -471.632)">
    <path id="Path_137" data-name="Path 137" d="M632.09,472.515l2.435,2.295a1.447,1.447,0,0,0,2.029-.043l2.633-2.7a1.448,1.448,0,0,1,2.052-.02l2.779,2.739a1.448,1.448,0,0,0,2.028.005l2.812-2.748a1.447,1.447,0,0,1,2.052.029l2.557,2.644a1.445,1.445,0,0,0,2.072.009l2.62-2.663a1.447,1.447,0,0,1,2.052-.011l2.716,2.7a1.448,1.448,0,0,0,2.063-.023l2.419-2.512a1.447,1.447,0,0,1,2.491,1.01c-.056,14.677-1.368,69.413-17.793,69.413-14.12,0-17.029-20.144-17.029-20.144l-14.96-2.372s10.659-2.677,9.531-46.511A1.449,1.449,0,0,1,632.09,472.515Z" fill="#0b8ece" fill-rule="evenodd"/>
    <path id="Path_138" data-name="Path 138" d="M634.435,520.122H604.717a2.721,2.721,0,0,0-2.653,3.313c1.386,6.26,5.129,19.2,12.375,19.2h37.668c-11.275,0-14.239-14.356-14.976-20.142A2.718,2.718,0,0,0,634.435,520.122Z" fill="#e6e7e8" fill-rule="evenodd"/>
    <rect id="Rectangle_35" data-name="Rectangle 35" width="18.261" height="2.369" rx="1.181" transform="translate(635.771 483.387)" fill="#efecea"/>
    <rect id="Rectangle_36" data-name="Rectangle 36" width="18.261" height="2.369" rx="1.181" transform="translate(635.771 489.999)" fill="#efecea"/>
    <rect id="Rectangle_37" data-name="Rectangle 37" width="18.261" height="2.369" rx="1.181" transform="translate(635.771 496.612)" fill="#efecea"/>
    <rect id="Rectangle_38" data-name="Rectangle 38" width="5.249" height="2.369" rx="1.181" transform="translate(657.294 483.492)" fill="#efecea"/>
    <rect id="Rectangle_39" data-name="Rectangle 39" width="5.249" height="2.369" rx="1.181" transform="translate(657.294 490.104)" fill="#efecea"/>
    <rect id="Rectangle_40" data-name="Rectangle 40" width="5.249" height="2.369" rx="1.181" transform="translate(657.294 496.717)" fill="#efecea"/>
    <path id="Path_139" data-name="Path 139" d="M662.086,514.057a2.146,2.146,0,0,1-1.627,2.088,3.893,3.893,0,0,1-.7.152v1.139a.391.391,0,0,1-.408.368h-.684a.391.391,0,0,1-.408-.368v-1.129a.282.282,0,0,1,0-.041,4.039,4.039,0,0,1-2.292-1.029.6.6,0,0,1,.094-.907.768.768,0,0,1,1.005.085,2.451,2.451,0,0,0,1.234.547,3.473,3.473,0,0,0,1.669-.03.843.843,0,0,0,.683-.875c0-.84-.561-1.11-1.938-1.567a6.912,6.912,0,0,1-1.811-.8,2.336,2.336,0,0,1,.335-4.035,3.505,3.505,0,0,1,1.018-.284v-1.137a.391.391,0,0,1,.408-.369h.684a.391.391,0,0,1,.408.369v1.129c0,.012,0,.023,0,.035a5,5,0,0,1,1.879.633.606.606,0,0,1,.165.9.764.764,0,0,1-1,.149,3.813,3.813,0,0,0-2.912-.278.959.959,0,0,0-.568.99c0,.784.546,1.043,1.884,1.487a6.925,6.925,0,0,1,1.848.819A2.3,2.3,0,0,1,662.086,514.057Z" fill="#efecea"/>
  </g>
</svg>
