<svg xmlns="http://www.w3.org/2000/svg" width="117.036" height="71.184" viewBox="0 0 117.036 71.184">
  <g id="_7" data-name="7" transform="translate(-584.486 -260.612)">
    <path id="Path_82" data-name="Path 82" d="M588.117,260.612H697.891a3.642,3.642,0,0,1,3.631,3.631V285a3.642,3.642,0,0,1-3.631,3.631H588.117A3.641,3.641,0,0,1,584.486,285V264.243a3.641,3.641,0,0,1,3.631-3.631" fill="#007367"/>
    <path id="Path_83" data-name="Path 83" d="M605.141,267.5h5.4a2.026,2.026,0,0,1,2.02,2.02v13.513a2.026,2.026,0,0,1-2.02,2.021h-5.4a2.026,2.026,0,0,1-2.021-2.021V269.522a2.026,2.026,0,0,1,2.021-2.02" fill="#007367"/>
    <path id="Path_84" data-name="Path 84" d="M675.562,267.5h5.395a2.026,2.026,0,0,1,2.02,2.02v13.513a2.026,2.026,0,0,1-2.02,2.021h-5.395a2.026,2.026,0,0,1-2.021-2.021V269.522a2.026,2.026,0,0,1,2.021-2.02" fill="#007367"/>
    <path id="Path_85" data-name="Path 85" d="M639.98,267.5h5.4a2.026,2.026,0,0,1,2.02,2.02v13.513a2.026,2.026,0,0,1-2.02,2.021h-5.4a2.026,2.026,0,0,1-2.021-2.021V269.522a2.026,2.026,0,0,1,2.021-2.02" fill="#007367"/>
    <path id="Path_86" data-name="Path 86" d="M642.8,274.62a14.227,14.227,0,0,0-8.675,25.5h0l.015.01c.233.179.469.353.714.518a2.8,2.8,0,0,1,1.191,1.835.464.464,0,0,0,.067.256v.32c0,.489.469.907,1.118,1.062v23.2l5.253,4.24V304.19h.017v-1.119c.1,0,.2.007.3.007a14.229,14.229,0,1,0,0-28.458" fill="#a4cd39"/>
    <path id="Path_87" data-name="Path 87" d="M691.772,283.233l.019-.005-12.419-9.079a1.786,1.786,0,0,0-1.007-.308c-.045,0-.087.006-.13.009s-.086-.009-.129-.009a1.793,1.793,0,0,0-1.009.308l-12.418,9.079.019.005a2.546,2.546,0,0,0-1.406,2.458l2.429,10.967a2.871,2.871,0,0,0,2.862,2.863h.128a2.18,2.18,0,0,1,1.042,1.313v1.778a1.676,1.676,0,0,0,1.672,1.672h.853v23.259l5.848,4.253V299.521h9.761a2.871,2.871,0,0,0,2.862-2.863l2.429-10.967a2.544,2.544,0,0,0-1.406-2.458" fill="#a4cd39"/>
    <path id="Path_88" data-name="Path 88" d="M618.928,279.1l.02-.006-9.974-4.949a1.79,1.79,0,0,0-1.006-.308,1.939,1.939,0,0,0-.242.018l-.02-.01-.041.02a1.789,1.789,0,0,0-.674.261c-.033.021-.063.046-.1.07l-9.732,4.7a2.826,2.826,0,0,0-.384.186l-.029.013,0,0a2.86,2.86,0,0,0-1.41,2.457v15.065a2.866,2.866,0,0,0,2.858,2.858,2.133,2.133,0,0,1,1.129,1.355v1.778A1.677,1.677,0,0,0,601,304.284h.853v25.482l5.849,2.03V299.479h9.768a2.866,2.866,0,0,0,2.858-2.858V281.556a2.858,2.858,0,0,0-1.4-2.453" fill="#a4cd39"/>
    <path id="Path_89" data-name="Path 89" d="M605.515,279.7a2.323,2.323,0,1,1,2.323,2.323,2.324,2.324,0,0,1-2.323-2.323" fill="#a4cd39"/>
    <path id="Path_90" data-name="Path 90" d="M675.936,279.7a2.323,2.323,0,1,1,2.323,2.323,2.324,2.324,0,0,1-2.323-2.323" fill="#a4cd39"/>
    <path id="Path_91" data-name="Path 91" d="M640.474,279.7a2.323,2.323,0,1,1,2.323,2.323,2.324,2.324,0,0,1-2.323-2.323" fill="#a4cd39"/>
    <path id="Path_92" data-name="Path 92" d="M607.838,280.09h0a.96.96,0,0,1-.957-.957v-7.262a.957.957,0,1,1,1.914,0v7.262a.96.96,0,0,1-.957.957" fill="#efecea" stroke="#d8d6d6" stroke-miterlimit="10" stroke-width="0.202"/>
    <path id="Path_93" data-name="Path 93" d="M607.838,280.09h0a.96.96,0,0,1-.957-.957v-7.262a.957.957,0,1,1,1.914,0v7.262A.96.96,0,0,1,607.838,280.09Z" fill="#efecea" stroke="#efecea" stroke-miterlimit="10" stroke-width="0.605"/>
    <path id="Path_94" data-name="Path 94" d="M642.8,280.09h0a.96.96,0,0,1-.957-.957v-7.262a.957.957,0,1,1,1.914,0v7.262a.96.96,0,0,1-.957.957" fill="#efecea" stroke="#efecea" stroke-miterlimit="10" stroke-width="0.605"/>
    <path id="Path_95" data-name="Path 95" d="M642.8,280.09h0a.96.96,0,0,1-.957-.957v-7.262a.957.957,0,1,1,1.914,0v7.262A.96.96,0,0,1,642.8,280.09Z" fill="none" stroke="#efecea" stroke-miterlimit="10" stroke-width="0.605"/>
    <path id="Path_96" data-name="Path 96" d="M678.259,280.09h0a.96.96,0,0,1-.957-.957v-7.262a.957.957,0,1,1,1.914,0v7.262a.96.96,0,0,1-.957.957" fill="#efecea"/>
    <path id="Path_97" data-name="Path 97" d="M678.259,280.09h0a.96.96,0,0,1-.957-.957v-7.262a.957.957,0,1,1,1.914,0v7.262A.96.96,0,0,1,678.259,280.09Z" fill="none" stroke="#efecea" stroke-miterlimit="10" stroke-width="0.605"/>
    <path id="Path_98" data-name="Path 98" d="M652.205,299.521H642.46v4.669h.017v27.29l5.153-4.16.135-.3-2.716-3.894,2.716-3.894-1.314-1.883-1.4-2.008,2.716-3.893-2.644-2.468,1.715-4.788h.34c.919,0,1.671-.507,1.671-1.127v-.32a.452.452,0,0,0,.067-.255,1.428,1.428,0,0,1,.36-.972,14.318,14.318,0,0,0,2.931-1.995" fill="#007367"/>
    <path id="Path_99" data-name="Path 99" d="M617.387,299.521h-9.682V331.8l5.583-2.429v-7.274l-1.861-1.594-.133-2.924,1.994-2.26.132-3.588-2.126-2.924,2.126-2.26V304.4h.987a1.677,1.677,0,0,0,1.672-1.671v-.475a.951.951,0,0,0,.066-.379,2.313,2.313,0,0,1,1.263-2.28Z" fill="#007367"/>
    <path id="Path_100" data-name="Path 100" d="M678.126,299.521V331.8l5.583-4.652v-3.707l-1.861-1.6L681.8,319.3l1.45-1.855-1.536-1.784,1.994-2.259.132-1.672-2.126-2.924,2.126-2.26v-2.259h.987a1.678,1.678,0,0,0,1.672-1.672v-2.676a1.668,1.668,0,0,0-.055-.415Z" fill="#007367"/>
    <path id="Path_101" data-name="Path 101" d="M601.726,299.521v30.131l1.544.6V299.521Z" fill="#efecea"/>
    <path id="Path_102" data-name="Path 102" d="M637.187,299.521V327.2l1.544,1.206V299.521Z" fill="#efecea"/>
    <path id="Path_103" data-name="Path 103" d="M672.273,299.521v27.993l1.544,1.126V299.521Z" fill="#efecea"/>
    <path id="Path_104" data-name="Path 104" d="M607.816,293.518h0a.75.75,0,0,1-.725-.769v-5.835a.726.726,0,1,1,1.449,0v5.835a.75.75,0,0,1-.724.769" fill="#efecea"/>
    <path id="Path_105" data-name="Path 105" d="M607.816,293.518h0a.75.75,0,0,1-.725-.769v-5.835a.726.726,0,1,1,1.449,0v5.835A.75.75,0,0,1,607.816,293.518Z" fill="none" stroke="#efecea" stroke-miterlimit="10" stroke-width="0.605"/>
    <path id="Path_106" data-name="Path 106" d="M611.5,289.832h0a.751.751,0,0,1-.769.725H604.9a.726.726,0,1,1,0-1.45h5.835a.75.75,0,0,1,.769.725" fill="#efecea"/>
    <path id="Path_107" data-name="Path 107" d="M611.5,289.832h0a.751.751,0,0,1-.769.725H604.9a.726.726,0,1,1,0-1.45h5.835A.75.75,0,0,1,611.5,289.832Z" fill="none" stroke="#efecea" stroke-miterlimit="10" stroke-width="0.605"/>
    <path id="Path_108" data-name="Path 108" d="M642.639,293.518h0a.75.75,0,0,1-.725-.769v-5.835a.726.726,0,1,1,1.45,0v5.835a.75.75,0,0,1-.725.769" fill="#efecea"/>
    <path id="Path_109" data-name="Path 109" d="M642.639,293.518h0a.75.75,0,0,1-.725-.769v-5.835a.726.726,0,1,1,1.45,0v5.835A.75.75,0,0,1,642.639,293.518Z" fill="none" stroke="#efecea" stroke-miterlimit="10" stroke-width="0.605"/>
    <path id="Path_110" data-name="Path 110" d="M646.326,289.832h0a.751.751,0,0,1-.769.725h-5.836a.726.726,0,1,1,0-1.45h5.836a.751.751,0,0,1,.769.725" fill="#efecea"/>
    <path id="Path_111" data-name="Path 111" d="M646.326,289.832h0a.751.751,0,0,1-.769.725h-5.836a.726.726,0,1,1,0-1.45h5.836A.751.751,0,0,1,646.326,289.832Z" fill="none" stroke="#efecea" stroke-miterlimit="10" stroke-width="0.605"/>
    <path id="Path_112" data-name="Path 112" d="M678.578,293.518h0a.75.75,0,0,1-.725-.769v-5.835a.726.726,0,1,1,1.449,0v5.835a.75.75,0,0,1-.724.769" fill="#efecea"/>
    <path id="Path_113" data-name="Path 113" d="M678.578,293.518h0a.75.75,0,0,1-.725-.769v-5.835a.726.726,0,1,1,1.449,0v5.835A.75.75,0,0,1,678.578,293.518Z" fill="none" stroke="#efecea" stroke-miterlimit="10" stroke-width="0.605"/>
    <path id="Path_114" data-name="Path 114" d="M682.264,289.832h0a.751.751,0,0,1-.769.725H675.66a.726.726,0,1,1,0-1.45h5.835a.75.75,0,0,1,.769.725" fill="#efecea"/>
    <path id="Path_115" data-name="Path 115" d="M682.264,289.832h0a.751.751,0,0,1-.769.725H675.66a.726.726,0,1,1,0-1.45h5.835A.75.75,0,0,1,682.264,289.832Z" fill="none" stroke="#efecea" stroke-miterlimit="10" stroke-width="0.605"/>
  </g>
</svg>
