<svg xmlns="http://www.w3.org/2000/svg" width="69.769" height="89.288" viewBox="0 0 69.769 89.288">
  <g id="_4" data-name="4" transform="translate(-876.87 -31.996)">
    <path id="Path_58" data-name="Path 58" d="M921.557,47.011" fill="#e7e7e7"/>
    <path id="Path_59" data-name="Path 59" d="M946.639,110.153l-12.067,5.232L932.2,104.311l-1.265,10.916-.421,3.351c-1.827.653-19.846,3.212-21.693,2.618l-18.261-5.426-2.181-10.984-.633,10.6-9.055-5.232-1.82-3.56c.383-1.677.86-9.949,1.432-12.147,1.168-4.485,5.847-5.665,9.986-6.312,1.966-.308,3.812-.5,5.1-.861a38.823,38.823,0,0,0,7.907-3.253h.007a13.189,13.189,0,0,0,1.231-.792,3.4,3.4,0,0,0,1.375-1.532l.013-.044a43.516,43.516,0,0,0,.9-7.606,7.6,7.6,0,0,0-.088-1.225,3.347,3.347,0,0,0-.113-.452h13.567a4.842,4.842,0,0,0-.2,1.388,42.263,42.263,0,0,0,.9,7.895l.025.082a.562.562,0,0,0,.057.144l.037.075a1.565,1.565,0,0,0,.17.264.954.954,0,0,0,.107.132l.081.094a3.3,3.3,0,0,0,.251.252,12.591,12.591,0,0,0,2.532,1.67c.609.327,1.268.647,1.953.955h.006a41.212,41.212,0,0,0,5.32,1.953,29.25,29.25,0,0,0,3.567.635c.346.05.7.1,1.062.15,3.511.528,7.537,1.363,9.509,4.278a6.652,6.652,0,0,1,.942,2.11c.521,1.985,1,10.288,1.42,12.147" fill="#7b5ca1"/>
    <path id="Path_60" data-name="Path 60" d="M927.276,87.219c-.954,2.926-1.344,5.062-3.284,7.819-.873,1.244-2.55,9.59-4.466,11.557,0,0-5.309,3.8-7.418,3.78s-6.618-2.921-7.58-3.78-4.026-9.823-5.345-11.77a31.037,31.037,0,0,1-3.938-7.606,60.332,60.332,0,0,0,6.054-3.2c.446-.283.861-.566,1.225-.836a3.9,3.9,0,0,0,1.382-1.488l.012-.044a36.851,36.851,0,0,0,.917-7.6,7.506,7.506,0,0,0-.1-1.231,3.5,3.5,0,0,0-.113-.452h13.566a5.087,5.087,0,0,0-.2,1.382,41.856,41.856,0,0,0,.9,7.9l.025.081a.647.647,0,0,0,.056.145l.038.075a1.989,1.989,0,0,0,.163.264c.032.044.069.082.107.126l.082.094c.081.088.163.169.257.257a12.81,12.81,0,0,0,2.506,1.659l.019.012c.578.4,1.212.791,1.834,1.149h.006a17.825,17.825,0,0,0,1.979,1.068" fill="#e7e7e7"/>
    <path id="Path_61" data-name="Path 61" d="M921.557,47.011" fill="#e7e7e7"/>
    <path id="Path_62" data-name="Path 62" d="M922.918,46.568c.806,3.543,1.051,10.291.718,16.007l-.025.031c-.509,4.114-1.664,7.217-4.07,9.647-4.88,4.818-5.276,4.686-8.234,4.711-.038,0-.044.013-.044.013h-.056c-2.959-.038-3.354.094-8.235-4.724a16.226,16.226,0,0,1-4.417-8.863,20.172,20.172,0,0,1-.369-2.584c-1.054-.052-2.267.159-3.111-.949a8.856,8.856,0,0,1-1.687-4.9c.1-1.477.21-2.531.791-2.848a3.038,3.038,0,0,1,1.951-.421c1.16.21,1.562,2.263,1.687,1.74.317-1.319,0-4.483,1.846-7.858a24.686,24.686,0,0,1,5.273-6.749,11.63,11.63,0,0,1,6.961-2.479C918.225,36.5,921.663,41.052,922.918,46.568Z" fill="#e7e7e7"/>
    <path id="Path_63" data-name="Path 63" d="M920.332,60.332h-6.653a.548.548,0,0,1-.547-.547l-.626-4.2a.548.548,0,0,1,.547-.547h8.031a.548.548,0,0,1,.547.547l-.752,4.2A.548.548,0,0,1,920.332,60.332Z" fill="none" stroke="#231f5a" stroke-miterlimit="10" stroke-width="0.626"/>
    <line id="Line_1" data-name="Line 1" y1="1.667" x2="2" transform="translate(921.506 53.582)" fill="none" stroke="#231f5a" stroke-miterlimit="10" stroke-width="0.626"/>
    <path id="Path_64" data-name="Path 64" d="M918.1,73.7c-3.4,3.229-4.032,3.128-6.632,3.16-.038,0-.044.006-.044.006h-.113c-2.525-.032-3.178.063-6.369-2.921a22.247,22.247,0,0,1-.1,2.343c3.322,3.134,3.957,3.04,6.525,3.071h.057s.006-.006.044-.006c2.625-.025,3.241.063,6.727-3.253l-.038-.49c-.038-.534-.063-1.056-.063-1.527,0-.131,0-.257.006-.383" fill="#ddddde"/>
    <path id="Path_65" data-name="Path 65" d="M925.766,37.815c-1.509-1.676-4.574-4.518-6.945-5.185-8.36-2.351-7.91,2.637-10.231,2.109-7.987-1.815-11.285,4.114-12.234,8.016-2.877,11.831-2.336,9.4-4.867,13.622,0,0-3.058,5.695-3.586,8.437s-1.371,6.855,1.266,9.492,5.273,5.484,5.168,9.281-1.371,10.019,1.582,12.34,5.589,3.058,8.015,2.531a8.048,8.048,0,0,0,3.481-1.477s-4.325-1.793-4.43-3.8a11.547,11.547,0,0,1,1.582-6.328c1.055-1.476,3.2-8.156,1.09-11.636s-6.82-7.131-6.82-11.039c0-3.028,2.093-11,4.269-13.325,5.441-5.815,14.4-3.949,14.433-3.76,1.068,5.339,2.816,12.417,5.031,14.526s-1.3,7.777-3.238,9.942a8.834,8.834,0,0,0-2.531,7.488c.316,2.742,2.848,7.8,3.8,9.492s3.48,4.43,3.9,5.695,1.055,3.9-.211,4.641a11.247,11.247,0,0,1-2.426,1.054,4.75,4.75,0,0,0,2.743.211c1.054-.422,4.324-2.531,4.64-5.695s-.422-8.437,1.055-10.23a42.729,42.729,0,0,0,5.378-5.906c1.582-2.426,2.743-6.328.317-11.285s-5.484-11.707-6.117-15.715S928.914,41.312,925.766,37.815Z" fill="#573d83"/>
    <path id="Path_66" data-name="Path 66" d="M898.924,65.125s-.247-3.9-.194-4.319c-1.055-.052-2.268.159-3.111-.949a8.864,8.864,0,0,1-1.688-4.9,4.2,4.2,0,0,1,.81-2.662,2.181,2.181,0,0,1,1.932-.607c1.16.21,1.562,2.263,1.688,1.74.316-1.319,4.2-7.279,10.453-8" fill="#e7e7e7"/>
    <g id="Group_10" data-name="Group 10">
      <path id="Path_67" data-name="Path 67" d="M908.749,60.332H902.1a.548.548,0,0,1-.547-.547l-.626-4.2a.548.548,0,0,1,.547-.547H909.5a.548.548,0,0,1,.547.547l-.752,4.2A.548.548,0,0,1,908.749,60.332Z" fill="none" stroke="#231f5a" stroke-miterlimit="10" stroke-width="0.626"/>
      <line id="Line_2" data-name="Line 2" x2="2.583" transform="translate(909.923 55.332)" fill="none" stroke="#231f5a" stroke-miterlimit="10" stroke-width="0.626"/>
    </g>
    <line id="Line_3" data-name="Line 3" x1="2.448" y1="2.196" transform="translate(898.35 53.136)" fill="none" stroke="#231f5a" stroke-miterlimit="10" stroke-width="0.626"/>
  </g>
</svg>
