<svg xmlns="http://www.w3.org/2000/svg" width="101.411" height="65.283" viewBox="0 0 101.411 65.283">
  <g id="_13" data-name="13" transform="translate(-34.571 -699.272)">
    <path id="Path_1" data-name="Path 1" d="M91.591,718.061a.365.365,0,1,1,.016-.73h.075l.649.027h.022a.366.366,0,0,1-.049.73h-.016l-.622-.027Z" fill="#573d83" fill-rule="evenodd"/>
    <path id="Path_2" data-name="Path 2" d="M87.31,718.428a.366.366,0,1,1-.135-.719l.075-.016.622-.108.032-.005a.366.366,0,1,1,.108.724l-.027.005-.594.108-.076.017Z" fill="#573d83" fill-rule="evenodd"/>
    <path id="Path_3" data-name="Path 3" d="M83.2,719.693a.367.367,0,0,1-.287-.676l.022-.011.567-.243.087-.032a.364.364,0,1,1,.259.681l-.081.032-.34.13-.227.1-.022.011Z" fill="#573d83" fill-rule="evenodd"/>
    <path id="Path_4" data-name="Path 4" d="M79.451,721.8a.365.365,0,0,1-.422-.6l.1-.07.411-.281.1-.065a.367.367,0,0,1,.4.611l-.194.13-.39.281Z" fill="#573d83" fill-rule="evenodd"/>
    <path id="Path_5" data-name="Path 5" d="M76.24,724.655a.367.367,0,0,1-.541-.5l.055-.06.432-.459.027-.027a.367.367,0,1,1,.524.513l-.108.108-.243.26-.081.092-.054.059Z" fill="#573d83" fill-rule="evenodd"/>
    <path id="Path_6" data-name="Path 6" d="M72.449,727.767l-.016,36.787,31.729-11.518V699.287l.011-.015L72.444,710.79v16.988c0-.005,0-.005,0-.011" fill="#235dab" fill-rule="evenodd"/>
    <path id="Path_7" data-name="Path 7" d="M73.87,727.524" fill="#231f5a" fill-rule="evenodd"/>
    <path id="Path_8" data-name="Path 8" d="M72.013,732.081a.366.366,0,0,1-.7-.221l.038-.114.173-.5.033-.087a.364.364,0,1,1,.686.244l-.027.081-.086.248-.076.249-.038.113Z" fill="#573d83" fill-rule="evenodd"/>
    <path id="Path_9" data-name="Path 9" d="M70.056,736.432a.37.37,0,0,1-.184-.486l.038-.081.054-.114.146-.34.049-.119a.364.364,0,1,1,.675.275v.006l-.1.238-.162.356-.038.081a.37.37,0,0,1-.486.184Z" fill="#573d83" fill-rule="evenodd"/>
    <path id="Path_10" data-name="Path 10" d="M67.764,740.162a.37.37,0,0,1-.075-.514l.01-.011.352-.486.059-.086a.365.365,0,0,1,.6.416l-.059.086-.281.411-.076.1-.011.011a.369.369,0,0,1-.513.076Z" fill="#573d83" fill-rule="evenodd"/>
    <path id="Path_11" data-name="Path 11" d="M64.732,743.318a.36.36,0,0,1,.038-.513l.07-.06.346-.3.086-.081.033-.027a.367.367,0,1,1,.5.535l-.033.032-.086.081-.368.324-.07.06a.357.357,0,0,1-.514-.038Z" fill="#573d83" fill-rule="evenodd"/>
    <path id="Path_12" data-name="Path 12" d="M61.062,745.7a.366.366,0,0,1,.157-.492l.016-.011.513-.27.1-.054.005-.005a.364.364,0,0,1,.362.632l-.011.005-.41.238-.206.108-.016.011a.366.366,0,0,1-.492-.157Z" fill="#573d83" fill-rule="evenodd"/>
    <path id="Path_13" data-name="Path 13" d="M57.268,746.707l.227-.054.34-.1.07-.022a.366.366,0,0,1,.206.7l-.3.087-.238.064-.119.027-.065.017a.365.365,0,0,1-.178-.708l.065-.017Z" fill="#573d83" fill-rule="evenodd"/>
    <path id="Path_14" data-name="Path 14" d="M53.079,747.253H53.2l.356-.016.108-.005a.365.365,0,1,1,.038.729l-.113.006-.373.016h-.26a.365.365,0,0,1,0-.73Z" fill="#573d83" fill-rule="evenodd"/>
    <path id="Path_15" data-name="Path 15" d="M72.386,710.8,40.657,699.282v53.753l31.729,11.518Z" fill="#0b8ece" fill-rule="evenodd"/>
    <path id="Path_16" data-name="Path 16" d="M56.592,719.7a11.939,11.939,0,0,0-16.032-4.059.326.326,0,0,1-.173.1,11.981,11.981,0,0,0-5.816,10.254c0,2.637,2.854,7.237,6,11.729l.032.048c1.124,1.606,2.292,3.2,3.373,4.676l2.54,3.524.222-.281,4.973-6.665c.675-.956,1.329-1.908,1.935-2.832,1.746-2.648,4.7-7.427,4.735-10.2a11.851,11.851,0,0,0-1.8-6.292Z" fill="#283a89" fill-rule="evenodd"/>
    <path id="Path_17" data-name="Path 17" d="M53.273,726.156a6.638,6.638,0,0,1-1.946,4.762,6.794,6.794,0,0,1-10.5-8.535l.844-1.032a6.8,6.8,0,0,1,11.6,4.8Z" fill="#efecea" fill-rule="evenodd"/>
    <path id="Path_18" data-name="Path 18" d="M135.982,710.806l-31.74-11.524v53.749l31.74,11.524Z" fill="#0b8ece" fill-rule="evenodd"/>
    <path id="Path_19" data-name="Path 19" d="M95.315,719.407a.365.365,0,1,1,.016-.73h.076l.648.027h.022a.366.366,0,0,1-.049.73h-.016l-.622-.027Z" fill="#efecea" fill-rule="evenodd"/>
    <path id="Path_20" data-name="Path 20" d="M91.034,719.775a.366.366,0,0,1-.135-.719l.075-.017.622-.108.032-.005a.366.366,0,1,1,.108.724l-.027.006-.594.108-.076.016Z" fill="#efecea" fill-rule="evenodd"/>
    <path id="Path_21" data-name="Path 21" d="M86.926,721.039a.367.367,0,0,1-.287-.675l.022-.011.568-.243.086-.033a.364.364,0,1,1,.259.681l-.081.033-.34.129-.227.1-.022.01Z" fill="#efecea" fill-rule="evenodd"/>
    <path id="Path_22" data-name="Path 22" d="M83.175,723.147a.364.364,0,1,1-.422-.594l.1-.071.411-.281.1-.064a.366.366,0,1,1,.4.61l-.194.13-.389.281Z" fill="#efecea" fill-rule="evenodd"/>
    <path id="Path_23" data-name="Path 23" d="M79.964,726a.367.367,0,1,1-.54-.5l.054-.06.432-.459.027-.027a.367.367,0,0,1,.524.513l-.108.109-.243.259-.081.092-.054.059Z" fill="#efecea" fill-rule="evenodd"/>
    <path id="Path_24" data-name="Path 24" d="M75.737,733.428a.366.366,0,0,1-.7-.222l.037-.114.173-.5.033-.086a.364.364,0,1,1,.686.243l-.027.081-.086.249-.076.248-.038.114Z" fill="#efecea" fill-rule="evenodd"/>
    <path id="Path_25" data-name="Path 25" d="M77.354,729.587a.365.365,0,1,1-.645-.344l.057-.1.26-.459.047-.079a.364.364,0,0,1,.632.363l-.041.075-.13.229-.119.231-.058.1Z" fill="#efecea" fill-rule="evenodd"/>
    <path id="Path_26" data-name="Path 26" d="M73.78,737.779a.371.371,0,0,1-.184-.487l.038-.081.054-.113.146-.341.049-.119a.365.365,0,1,1,.676.276v.005l-.1.238-.162.357-.038.081a.37.37,0,0,1-.486.184Z" fill="#efecea" fill-rule="evenodd"/>
    <path id="Path_27" data-name="Path 27" d="M71.488,741.508a.368.368,0,0,1-.075-.513l.011-.011.351-.487.059-.086a.365.365,0,1,1,.6.416l-.059.087-.281.41-.076.1-.011.01a.368.368,0,0,1-.513.076Z" fill="#efecea" fill-rule="evenodd"/>
    <path id="Path_28" data-name="Path 28" d="M68.456,744.665a.362.362,0,0,1,.038-.514l.07-.059.346-.3.087-.081.032-.027a.367.367,0,1,1,.5.535l-.033.032-.086.082-.368.324-.07.059a.356.356,0,0,1-.513-.038Z" fill="#efecea" fill-rule="evenodd"/>
    <path id="Path_29" data-name="Path 29" d="M64.786,747.048a.365.365,0,0,1,.157-.491l.016-.011.514-.271.1-.054,0-.005a.364.364,0,1,1,.362.632l-.01.006-.411.238-.206.108-.016.011a.368.368,0,0,1-.492-.157Z" fill="#efecea" fill-rule="evenodd"/>
    <path id="Path_30" data-name="Path 30" d="M60.992,748.054l.227-.054.34-.1.07-.021a.366.366,0,0,1,.206.7l-.3.087-.238.065-.119.027-.064.016a.365.365,0,1,1-.179-.708l.065-.016Z" fill="#efecea" fill-rule="evenodd"/>
    <path id="Path_31" data-name="Path 31" d="M56.8,748.6h.119l.356-.017.108-.005a.365.365,0,1,1,.038.73l-.113.005-.373.016h-.26a.365.365,0,0,1-.005-.729Z" fill="#efecea" fill-rule="evenodd"/>
  </g>
</svg>
