<?xml version="1.0" encoding="UTF-8"?>
<svg width="268px" height="37px" viewBox="0 0 268 37" version="1.1" xmlns="http://www.w3.org/2000/svg" xmlns:xlink="http://www.w3.org/1999/xlink">
    <!-- Generator: sketchtool 52.5 (67469) - http://www.bohemiancoding.com/sketch -->
    <title>641C9AE9-3FE9-4B46-8BBC-DE2B3AABE22C</title>
    <desc>Created with sketchtool.</desc>
    <defs>
        <polygon id="path-1" points="0.061235 6.57252031e-15 13.85206 6.57252031e-15 13.85206 25.6712475 0.061235 25.6712475 0.061235 0"></polygon>
        <polygon id="path-3" points="14.04853 0 0.923705 6.57252031e-15 0.923705 25.6714325 14.04853 25.6714325 14.04853 6.57252031e-15"></polygon>
        <polygon id="path-5" points="8.79342172e-16 21.4498335 8.79342172e-16 0.768675 30.38403 0.768675 30.38403 21.4498335"></polygon>
    </defs>
    <g id="Page-1" stroke="none" stroke-width="1" fill="none" fill-rule="evenodd">
        <g id="Job-Detail-page" transform="translate(-175.000000, -26.000000)">
            <g id="Group" transform="translate(175.000000, 26.000000)">
                <g id="freshworks-light-bg-RGB">
                    <path d="M44.9732225,0.946275 C40.3417475,0.946275 38.6915475,4.1736 38.6915475,7.193725 L38.6915475,9.041875 L37.7184475,9.041875 C37.0061975,9.041875 36.4484225,9.59965 36.4484225,10.312825 C36.4484225,11.025075 37.0061975,11.58285 37.7184475,11.58285 L38.6915475,11.58285 L38.6915475,24.3312 C38.6915475,25.0823 39.2798475,25.671525 40.0318725,25.671525 C40.7829725,25.671525 41.3721975,25.0823 41.3721975,24.3312 L41.3721975,11.58285 L44.3423725,11.58285 C45.0546225,11.58285 45.6133225,11.025075 45.6133225,10.312825 C45.6133225,9.59965 45.0546225,9.041875 44.3423725,9.041875 L41.3721975,9.041875 L41.3721975,7.193725 C41.3721975,5.502825 41.9965725,3.48725 44.9732225,3.48725 C45.6854725,3.48725 46.2432475,2.929475 46.2432475,2.2163 C46.2432475,1.50405 45.6854725,0.946275 44.9732225,0.946275" id="Fill-1" fill="#4D4D4D" fill-rule="nonzero"></path>
                    <path d="M55.451345,8.621555 C53.45427,8.621555 51.74672,9.44018 50.798595,10.80363 L50.798595,10.10248 C50.798595,9.350455 50.210295,8.76123 49.45827,8.76123 C48.70717,8.76123 48.117945,9.350455 48.117945,10.10248 L48.117945,24.33083 C48.117945,25.082855 48.70717,25.67208 49.45827,25.67208 C50.210295,25.67208 50.798595,25.082855 50.798595,24.33083 L50.798595,16.480355 C50.798595,13.194755 52.53852,11.23283 55.451345,11.23283 C56.170995,11.23283 56.75652,10.64638 56.75652,9.92673 C56.75652,9.20708 56.170995,8.621555 55.451345,8.621555" id="Fill-3" fill="#4D4D4D" fill-rule="nonzero"></path>
                    <path d="M64.983655,11.022115 C67.75033,11.022115 69.18408,12.58444 69.247905,15.665615 L60.279105,15.665615 C60.55753,12.668615 62.22068,11.022115 64.983655,11.022115 M71.89618,15.604565 C71.89618,14.83034 71.771305,12.84899 70.613205,11.16919 C69.416255,9.43204 67.521855,8.55144 64.983655,8.55144 C60.25598,8.55144 57.544805,11.697365 57.544805,17.18169 C57.544805,22.85009 60.238405,25.84709 65.33423,25.84709 C68.75673,25.84709 70.61783,24.15804 70.95638,23.820415 C71.18393,23.592865 71.40593,23.33109 71.40593,22.85934 C71.40593,22.177615 70.851855,21.62354 70.17013,21.62354 C69.81678,21.62354 69.62808,21.73084 69.40793,21.877915 C68.420955,22.617915 67.29338,23.341265 65.33423,23.341265 C62.273405,23.341265 60.34663,21.326615 60.264305,18.066915 L70.27558,18.066915 C71.89618,18.066915 71.89618,16.585065 71.89618,15.604565" id="Fill-5" fill="#4D4D4D" fill-rule="nonzero"></path>
                    <path d="M80.96118,15.8249 C78.954855,15.133925 77.223255,14.5373 77.223255,13.0462 C77.223255,11.4071 79.039955,11.161975 80.12313,11.161975 C82.059155,11.161975 83.030405,11.84 83.78798,12.569825 C84.040505,12.82235 84.340205,12.95 84.678755,12.95 C85.36048,12.95 85.914555,12.395925 85.914555,11.7142 C85.914555,11.348825 85.76008,11.0963 85.62503,10.91685 C84.488205,9.413725 82.534605,8.586775 80.12313,8.586775 C76.68028,8.586775 74.54168,10.29525 74.54168,13.0462 C74.54168,16.4095 77.49243,17.407575 80.096305,18.288175 C82.06193,18.95325 83.759305,19.527675 83.759305,20.966975 C83.759305,22.940925 81.568905,23.236 80.262805,23.236 C78.484955,23.236 77.07988,22.694875 75.967105,21.583025 C75.62393,21.23985 75.27428,21.1677 75.04118,21.1677 C74.36038,21.1677 73.806305,21.7227 73.806305,22.4035 C73.806305,22.69025 73.88308,22.90485 74.09768,23.205475 C75.12073,24.502325 77.423055,25.812125 80.262805,25.812125 C84.131155,25.812125 86.439955,24.00005 86.439955,20.966975 C86.439955,17.712825 83.52898,16.710125 80.96118,15.8249" id="Fill-7" fill="#4D4D4D" fill-rule="nonzero"></path>
                    <g id="Group-11" transform="translate(89.725000, 0.000000)">
                        <g id="Fill-9-Clipped">
                            <mask id="mask-2" fill="white">
                                <use xlink:href="#path-1"></use>
                            </mask>
                            <g id="path-1"></g>
                            <path d="M7.18466,8.5513475 C5.33466,8.5513475 3.67521,9.2867225 2.74281,10.4734975 L2.74281,1.3400475 C2.74281,0.5889475 2.153585,-0.0002775 1.402485,-0.0002775 C0.65046,-0.0002775 0.061235,0.5889475 0.061235,1.3400475 L0.061235,24.3309225 C0.061235,25.0829475 0.65046,25.6712475 1.402485,25.6712475 C2.153585,25.6712475 2.74281,25.0829475 2.74281,24.3309225 L2.74281,15.6747725 C2.74281,12.5639975 4.236685,10.9868725 7.18466,10.9868725 C10.016085,10.9868725 11.17141,12.2735475 11.17141,15.4296475 L11.17141,24.3309225 C11.17141,25.0829475 11.75971,25.6712475 12.511735,25.6712475 C13.26376,25.6712475 13.85206,25.0829475 13.85206,24.3309225 L13.85206,14.9736225 C13.85206,10.7121475 11.608935,8.5513475 7.18466,8.5513475" id="Fill-9" fill="#4D4D4D" fill-rule="nonzero" mask="url(#mask-2)"></path>
                        </g>
                    </g>
                    <path d="M125.997395,8.7616 C125.422045,8.7616 124.95307,9.08905 124.739395,9.64405 L120.90157,20.595125 L117.761195,9.6533 C117.627995,9.2093 117.185845,8.7616 116.499495,8.7616 C115.813145,8.7616 115.37192,9.2093 115.237795,9.656075 L112.098345,20.595125 L108.257745,9.637575 C108.046845,9.08905 107.576945,8.7616 107.00252,8.7616 C106.250495,8.7616 105.662195,9.350825 105.662195,10.101925 C105.662195,10.27675 105.704745,10.479325 105.780595,10.668025 L110.932845,24.79555 C111.14467,25.344075 111.613645,25.671525 112.188995,25.671525 C112.790245,25.671525 113.32397,25.2747 113.485845,24.707675 L116.499495,14.3227 L119.513145,24.70675 C119.675945,25.2747 120.20967,25.671525 120.81092,25.671525 C121.38627,25.671525 121.855245,25.344075 122.067995,24.79185 L127.21747,10.6745 C127.29517,10.479325 127.33772,10.27675 127.33772,10.101925 C127.33772,9.350825 126.74942,8.7616 125.997395,8.7616" id="Fill-12" fill="#4D4D4D" fill-rule="nonzero"></path>
                    <path d="M135.77483,23.376045 C132.50218,23.376045 130.912105,21.34937 130.912105,17.18132 C130.912105,13.09467 132.54843,11.021745 135.77483,11.021745 C139.00123,11.021745 140.637555,13.09467 140.637555,17.18132 C140.637555,21.34937 139.04748,23.376045 135.77483,23.376045 M135.77483,8.55107 C130.888055,8.55107 128.196305,11.61652 128.196305,17.18132 C128.196305,22.769245 130.888055,25.84672 135.77483,25.84672 C140.66253,25.84672 143.353355,22.769245 143.353355,17.18132 C143.353355,11.61652 140.66253,8.55107 135.77483,8.55107" id="Fill-14" fill="#4D4D4D" fill-rule="nonzero"></path>
                    <path d="M153.752852,8.621555 C151.755777,8.621555 150.048227,9.44018 149.100102,10.804555 L149.100102,10.10248 C149.100102,9.350455 148.511802,8.76123 147.759777,8.76123 C147.008678,8.76123 146.419453,9.350455 146.419453,10.10248 L146.419453,24.33083 C146.419453,25.082855 147.008678,25.67208 147.759777,25.67208 C148.511802,25.67208 149.100102,25.082855 149.100102,24.33083 L149.100102,16.480355 C149.100102,13.194755 150.840027,11.23283 153.752852,11.23283 C154.472502,11.23283 155.058952,10.64638 155.058952,9.92673 C155.058952,9.20708 154.472502,8.621555 153.752852,8.621555" id="Fill-16" fill="#4D4D4D" fill-rule="nonzero"></path>
                    <g id="Group-20" transform="translate(156.325000, 0.000000)">
                        <g id="Fill-18-Clipped">
                            <mask id="mask-4" fill="white">
                                <use xlink:href="#path-3"></use>
                            </mask>
                            <g id="path-3"></g>
                            <path d="M7.65123,15.6407325 L13.23083,11.1840825 C13.697955,10.8103825 13.768255,10.3460325 13.768255,10.1018325 C13.768255,9.3507325 13.17903,8.7615075 12.427005,8.7615075 C12.19853,8.7615075 11.85443,8.7966575 11.51773,9.0917325 L3.604355,15.5630325 L3.604355,1.3402325 C3.604355,0.5891325 3.016055,-9.25e-05 2.26403,-9.25e-05 C1.512005,-9.25e-05 0.923705,0.5891325 0.923705,1.3402325 L0.923705,24.3311075 C0.923705,25.0831325 1.512005,25.6714325 2.26403,25.6714325 C3.016055,25.6714325 3.604355,25.0831325 3.604355,24.3311075 L3.604355,18.7940575 L5.48673,17.2816825 L11.553805,25.0618575 L11.555655,25.0637075 C11.88218,25.4725575 12.25958,25.6714325 12.70728,25.6714325 C13.459305,25.6714325 14.04853,25.0831325 14.04853,24.3311075 C14.04853,24.1183575 14.01708,23.7992325 13.75623,23.4958325 L7.65123,15.6407325 Z" id="Fill-18" fill="#4D4D4D" fill-rule="nonzero" mask="url(#mask-4)"></path>
                        </g>
                    </g>
                    <path d="M179.1577,15.8249 C177.151375,15.133925 175.419775,14.5373 175.419775,13.0462 C175.419775,11.4071 177.236475,11.161975 178.31965,11.161975 C180.255675,11.161975 181.226,11.84 181.9845,12.569825 C182.2361,12.82235 182.5358,12.95 182.875275,12.95 C183.556075,12.95 184.11015,12.395925 184.11015,11.7142 C184.11015,11.3035 183.9085,11.032475 183.82155,10.91685 C182.684725,9.413725 180.731125,8.586775 178.31965,8.586775 C174.8768,8.586775 172.7382,10.29525 172.7382,13.0462 C172.7382,16.4095 175.68895,17.407575 178.2919,18.288175 C180.257525,18.95325 181.9549,19.527675 181.9549,20.966975 C181.9549,22.940925 179.7645,23.236 178.459325,23.236 C176.681475,23.236 175.275475,22.694875 174.163625,21.583025 C173.82045,21.23985 173.4708,21.1677 173.2377,21.1677 C172.555975,21.1677 172.0019,21.7227 172.0019,22.4035 C172.0019,22.69025 172.0796,22.90485 172.295125,23.205475 C173.31725,24.502325 175.619575,25.812125 178.459325,25.812125 C182.32675,25.812125 184.636475,24.00005 184.636475,20.966975 C184.636475,17.712825 181.7255,16.710125 179.1577,15.8249" id="Fill-21" fill="#4D4D4D" fill-rule="nonzero"></path>
                    <path d="M0.173715,23.568815 C0.682465,26.987615 2.28734,30.047515 4.62019,32.380365 L9.99999,26.99964 C10.00554,21.556015 12.829565,16.26224 17.88284,13.343865 L0.173715,23.568815 Z" id="Fill-23" fill="#9B65C3" fill-rule="nonzero"></path>
                    <path d="M9.99999,27.00001 C7.31934,27.002785 4.60169,26.325685 2.112515,24.88916 C1.424315,24.49141 0.77774,24.04926 0.173715,23.569185 C0.682465,26.98706 2.28734,30.04696 4.62019,32.37981 L9.99999,27.00001 Z" id="Fill-25" fill="#9B65C3" fill-rule="nonzero"></path>
                    <path d="M10.0000825,27.00001 L4.6202825,32.37981 C6.9531325,34.71266 10.0130325,36.317535 13.4309075,36.826285 L23.6558575,19.116235 C20.7374825,24.170435 15.4446325,26.99446 10.0000825,27.00001" id="Fill-27" fill="#BE63C5" fill-rule="nonzero"></path>
                    <path d="M12.1109325,34.887115 C10.6744075,32.39794 9.9973075,29.681215 10.0000825,26.99964 L4.6202825,32.380365 C6.9522075,34.71229 10.0130325,36.31809 13.4309075,36.825915 C12.9508325,36.22189 12.5086825,35.575315 12.1109325,34.887115 Z" id="Fill-29" fill="#BF63C6" fill-rule="nonzero"></path>
                    <g id="Group-33" transform="translate(0.000000, 5.550000)">
                        <g id="Fill-31-Clipped">
                            <mask id="mask-6" fill="white">
                                <use xlink:href="#path-5"></use>
                            </mask>
                            <g id="path-5"></g>
                            <path d="M30.051955,0.768675 L17.88358,7.79405 C12.82938,10.712425 6.83353,10.510775 2.115105,7.793125 C0.77293,10.11395 -0.00037,12.8057 -0.00037,15.679675 C-0.00037,16.47425 0.06068,17.25495 0.17353,18.019 C0.77848,18.499075 1.42413,18.941225 2.11233,19.338975 L2.113255,19.338975 C4.601505,20.7755 7.319155,21.4526 9.999805,21.449825 L30.38403,1.0656 C30.279505,0.96015 30.168505,0.861175 30.051955,0.768675" id="Fill-31" fill="#3278B1" fill-rule="nonzero" mask="url(#mask-6)"></path>
                        </g>
                    </g>
                    <path d="M2.112885,24.8890675 C4.60206,26.3255925 7.318785,27.0026925 10.00036,26.9999175 C10.00591,21.5553675 12.82901,16.2625175 17.88321,13.3441425 L0.174085,23.5690925 C0.77811,24.0491675 1.424685,24.4913175 2.112885,24.8890675 Z" id="Fill-34" fill="#3278B2" fill-rule="nonzero"></path>
                    <path d="M2.115475,13.343495 C0.772375,15.663395 0,18.35607 0,21.22912 C0,22.02462 0.060125,22.80532 0.1739,23.568445 L17.883025,13.34442 C12.828825,16.26187 6.832975,16.06022 2.115475,13.343495" id="Fill-36" fill="#45A4EC" fill-rule="nonzero"></path>
                    <path d="M30.3844,6.6156 C30.27895,6.51015 30.16795,6.411175 30.052325,6.318675 C29.898775,6.196575 29.73505,6.087425 29.56485,5.98845 C28.9858,5.6536 28.315175,5.45935 27.5983,5.45935 L15.770325,5.45935 C9.9345,5.45935 4.842375,8.631175 2.115475,13.343125 C6.832975,16.060775 12.828825,16.262425 17.883025,13.34405 C12.828825,16.262425 10.005725,21.555275 10.000175,26.999825 C15.444725,26.994275 20.737575,24.171175 23.65595,19.116975 L30.681325,6.947675 C30.588825,6.831125 30.48985,6.72105 30.3844,6.6156" id="Fill-38" fill="#19BB7D" fill-rule="nonzero"></path>
                    <path d="M17.8833025,13.344235 L30.0516775,6.31886 C29.8990525,6.19676 29.7353275,6.08761 29.5651275,5.988635 L2.1157525,13.34331 C6.8332525,16.06096 12.8291025,16.26261 17.8833025,13.344235" id="Fill-40" fill="#07C7FB" fill-rule="nonzero"></path>
                    <path d="M27.5983925,5.45898 L15.7704175,5.45898 C9.9345925,5.45898 4.8424675,8.63173 2.1155675,13.34368 L29.5649425,5.98808 C28.9858925,5.65323 28.3152675,5.45898 27.5983925,5.45898" id="Fill-42" fill="#59F2F7" fill-rule="nonzero"></path>
                    <path d="M23.655765,19.1166975 L30.68114,6.9483225 C30.58864,6.8317725 30.489665,6.7207725 30.384215,6.6153225 L9.99999,27.0004725 C9.997215,29.6811225 10.674315,32.3987725 12.11084,34.8870225 C12.50859,35.5761475 12.95074,36.2217975 13.430815,36.8258225 C14.194865,36.9395975 14.975565,36.9997225 15.77014,36.9997225 C18.644115,36.9997225 21.335865,36.2273475 23.65669,34.8842475 C20.93904,30.1667475 20.73739,24.1708975 23.655765,19.1166975" id="Fill-46" fill="#DA3757" fill-rule="nonzero"></path>
                    <path d="M9.99999,27.00001 C9.997215,29.68066 10.674315,32.39831 12.11084,34.887485 C12.50859,35.575685 12.95074,36.22226 13.430815,36.826285 L23.655765,19.116235 C20.73739,24.170435 15.44454,26.99446 9.99999,27.00001" id="Fill-48" fill="#D33C4E" fill-rule="nonzero"></path>
                    <path d="M23.655765,19.1166975 L13.430815,36.8258225 C14.194865,36.9395975 14.975565,36.9997225 15.77014,36.9997225 C18.644115,36.9997225 21.335865,36.2273475 23.65669,34.8842475 C20.93904,30.1667475 20.73739,24.1708975 23.655765,19.1166975" id="Fill-50" fill="#EE5A24" fill-rule="nonzero"></path>
                    <path d="M31.01155,7.4352425 C30.912575,7.2650425 30.803425,7.1013175 30.681325,6.9477675 C30.588825,6.8312175 30.48985,6.7211425 30.3844,6.6156925 C30.27895,6.5102425 30.168875,6.4112675 30.052325,6.3187675 L17.883025,13.3441425 C12.828825,16.2625175 10.005725,21.5553675 10.000175,26.9999175 C15.444725,26.9943675 20.737575,24.1712675 23.65595,19.1170675 C20.737575,24.1712675 20.939225,30.1671175 23.656875,34.8846175 C28.368825,32.1577175 31.54065,27.0655925 31.54065,21.2297675 L31.54065,9.4017925 C31.54065,8.6849175 31.3464,8.0142925 31.01155,7.4352425" id="Fill-52" fill="#8BDF55" fill-rule="nonzero"></path>
                    <path d="M30.051955,6.318675 L17.88358,13.34405 C12.82938,16.262425 10.00628,21.555275 9.999805,26.999825 L30.38403,6.6156 C30.279505,6.51015 30.168505,6.411175 30.051955,6.318675" id="Fill-54" fill="#25C16F" fill-rule="nonzero"></path>
                    <path d="M9.99999,27.00001 C15.44454,26.99446 20.73739,24.170435 23.655765,19.116235 L30.68114,6.94786 C30.58864,6.83131 30.489665,6.72031 30.384215,6.615785 L9.99999,27.00001 Z" id="Fill-56" fill="#8BDF55" fill-rule="nonzero"></path>
                    <path d="M30.681325,6.948045 L23.65595,19.11642 C20.737575,24.17062 20.939225,30.16647 23.656875,34.884895 L31.01155,7.43552 C30.912575,7.264395 30.803425,7.101595 30.681325,6.948045" id="Fill-58" fill="#FFBB00" fill-rule="nonzero"></path>
                    <path d="M23.656505,34.884525 C28.368455,32.157625 31.541205,27.0655 31.541205,21.229675 L31.541205,9.4017 C31.541205,8.684825 31.346955,8.0142 31.01118,7.43515 L23.656505,34.884525 Z" id="Fill-60" fill="#FFA800" fill-rule="nonzero"></path>
                </g>
                <text id="Careers" font-family="Sailec-Regular, Sailec" font-size="20" font-weight="normal" line-spacing="20" letter-spacing="0.5555556" fill="#787878">
                    <tspan x="192" y="20">Career</tspan>
                    <tspan x="259.453334" y="20" letter-spacing="0.5847954">s</tspan>
                </text>
            </g>
        </g>
    </g>
</svg>