<?xml version="1.0" encoding="UTF-8"?>
<svg width="40px" height="39px" viewBox="0 0 40 39" version="1.1" xmlns="http://www.w3.org/2000/svg" xmlns:xlink="http://www.w3.org/1999/xlink">
    <!-- Generator: sketchtool 52.5 (67469) - http://www.bohemiancoding.com/sketch -->
    <title>6AB0D346-0650-4130-AC4F-EB77ACA6322F</title>
    <desc>Created with sketchtool.</desc>
    <g id="Page-1" stroke="none" stroke-width="1" fill="none" fill-rule="evenodd">
        <g id="Careers_page" transform="translate(-198.000000, -803.000000)">
            <g id="Group-23" transform="translate(199.000000, 804.000000)">
                <path d="M36.1904762,29.0728952 C36.1904762,33.5704667 32.5451905,37.2157524 28.047619,37.2157524 C23.5500476,37.2157524 19.9047619,33.5704667 19.9047619,29.0728952 C19.9047619,24.5762286 23.5500476,20.9300381 28.047619,20.9300381 C32.5451905,20.9300381 36.1904762,24.5762286 36.1904762,29.0728952" id="Fill-1" fill="#B3CBFF"></path>
                <path d="M5.42857143,2.71419524 C5.42857143,4.21338571 4.21347619,5.42848095 2.71428571,5.42848095 C1.21509524,5.42848095 0,4.21338571 0,2.71419524 C0,1.21500476 1.21509524,-9.04761905e-05 2.71428571,-9.04761905e-05 C4.21347619,-9.04761905e-05 5.42857143,1.21500476 5.42857143,2.71419524 Z" id="Stroke-3" stroke="#2D2D2D" stroke-width="2"></path>
                <path d="M38,2.71419524 C38,4.21338571 36.7849048,5.42848095 35.2857143,5.42848095 C33.7865238,5.42848095 32.5714286,4.21338571 32.5714286,2.71419524 C32.5714286,1.21500476 33.7865238,-9.04761905e-05 35.2857143,-9.04761905e-05 C36.7849048,-9.04761905e-05 38,1.21500476 38,2.71419524 Z" id="Stroke-5" stroke="#2D2D2D" stroke-width="2"></path>
                <path d="M5.42857143,2.71419524 L16.2857143,2.71419524" id="Stroke-7" stroke="#2D2D2D" stroke-width="2"></path>
                <path d="M21.7142857,2.71419524 L32.5714286,2.71419524" id="Stroke-9" stroke="#2D2D2D" stroke-width="2"></path>
                <path d="M21.6233571,5.30787619 L17.2805,5.30787619 C17.0479762,5.30787619 16.858881,5.11878095 16.858881,4.88535238 L16.858881,0.542495238 C16.858881,0.309971429 17.0479762,0.12087619 17.2805,0.12087619 L21.6233571,0.12087619 C21.8567857,0.12087619 22.045881,0.309971429 22.045881,0.542495238 L22.045881,4.88535238 C22.045881,5.11878095 21.8567857,5.30787619 21.6233571,5.30787619 Z" id="Stroke-11" stroke="#2D2D2D" stroke-width="2"></path>
                <path d="M22.881519,3.1065 C30.4543762,4.5052619 35.2858048,11.1435 35.2858048,19.1207857 L35.2858048,20.0255476" id="Stroke-13" stroke="#2D2D2D" stroke-width="2" stroke-linecap="round"></path>
                <path d="M2.71428571,20.0252762 L2.71428571,19.1205143 C2.71428571,10.7632286 8.10395238,3.87708571 16.210619,2.94246667" id="Stroke-15" stroke="#2D2D2D" stroke-width="2" stroke-linecap="round"></path>
                <path d="M18.5247286,11.362 L11.8222524,23.1899524 C11.6621095,23.4713333 11.6630143,23.8169524 11.8240619,24.0983333 L15.1834429,29.9774762 L23.3263,29.9774762 L26.6865857,24.0983333 C26.8467286,23.8169524 26.8476333,23.4713333 26.6874905,23.1899524 L19.9850143,11.362 C19.6638238,10.7947143 18.845919,10.7947143 18.5247286,11.362 Z" id="Stroke-17" stroke="#2D2D2D" stroke-width="2"></path>
                <path d="M15.183081,29.9776571 L15.183081,34.5910381 C15.183081,35.0416095 15.5486048,35.4062286 15.9991762,35.4062286 L22.5107476,35.4062286 C22.961319,35.4062286 23.3259381,35.0416095 23.3259381,34.5910381 L23.3259381,29.9776571" id="Stroke-19" stroke="#2D2D2D" stroke-width="2"></path>
                <path d="M19.2545095,10.9776571 L19.2545095,20.0252762" id="Stroke-21" stroke="#2D2D2D" stroke-width="2" stroke-linecap="round"></path>
            </g>
        </g>
    </g>
</svg>