<?xml version="1.0" encoding="UTF-8"?>
<svg width="40px" height="36px" viewBox="0 0 40 36" version="1.1" xmlns="http://www.w3.org/2000/svg" xmlns:xlink="http://www.w3.org/1999/xlink">
    <!-- Generator: sketchtool 52.5 (67469) - http://www.bohemiancoding.com/sketch -->
    <title>BA9619D4-794E-4A06-807B-3852A5DED2F6</title>
    <desc>Created with sketchtool.</desc>
    <g id="Page-1" stroke="none" stroke-width="1" fill="none" fill-rule="evenodd">
        <g id="Careers_page" transform="translate(-477.000000, -803.000000)">
            <g id="Group-11" transform="translate(478.000000, 804.000000)">
                <path d="M38,26.8406923 C38,31.1977436 34.4388571,34.7300513 30.0462381,34.7300513 C25.653619,34.7300513 22.093381,31.1977436 22.093381,26.8406923 C22.093381,22.483641 25.653619,18.9513333 30.0462381,18.9513333 C34.4388571,18.9513333 38,22.483641 38,26.8406923" id="Fill-1" fill="#D9FFE7"></path>
                <path d="M32.6977333,0.352782051 L32.6977333,26.9222692 C32.6977333,27.2247051 32.345781,27.3943205 32.1123524,27.2004744 C30.1526381,25.5797051 23.2782571,20.7048333 11.4883048,20.7048333 L11.4883048,6.67970513 C11.4883048,6.67970513 22.5372571,6.67970513 32.1322571,0.0656025641 C32.372019,-0.0986282051 32.6977333,0.0638076923 32.6977333,0.352782051 Z" id="Stroke-3" stroke="#2D2D2D" stroke-width="2"></path>
                <path d="M32.5387667,9.44066667 L33.6480048,9.44066667 C36.0510524,9.44066667 37.9999095,11.3737436 37.9999095,13.7582308 C37.9999095,16.1427179 36.0510524,18.0757949 33.6480048,18.0757949 L32.7305762,18.0757949" id="Stroke-5" stroke="#2D2D2D" stroke-width="2"></path>
                <path d="M11.4880333,6.67997436 L7.06917619,6.67997436 C3.16512857,6.67997436 0.000271428571,9.81920513 0.000271428571,13.6925385 C0.000271428571,17.5649744 3.16512857,20.7051026 7.06917619,20.7051026 L11.8816048,20.7051026" id="Stroke-7" stroke="#2D2D2D" stroke-width="2"></path>
                <path d="M11.4880333,20.7050128 L16.7908429,33.8533462" id="Stroke-9" stroke="#2D2D2D" stroke-width="2" stroke-linecap="round"></path>
            </g>
        </g>
    </g>
</svg>