<?xml version="1.0"?>
<svg xmlns="http://www.w3.org/2000/svg" xmlns:xlink="http://www.w3.org/1999/xlink" version="1.1" id="Capa_1" x="0px" y="0px" viewBox="0 0 512 512" style="enable-background:new 0 0 512 512;" xml:space="preserve" width="512px" height="512px" class=""><g><g>
	<g>
		<path d="M501.333,245.325H10.667C4.779,245.325,0,250.104,0,255.992s4.779,10.667,10.667,10.667h490.667    c5.888,0,10.667-4.779,10.667-10.667S507.221,245.325,501.333,245.325z" data-original="#000000" class="active-path" data-old_color="#000000" fill="#3D76E3"/>
	</g>
</g><g>
	<g>
		<path d="M508.864,248.461L338.197,77.795c-4.16-4.16-10.923-4.16-15.083,0c-4.16,4.16-4.16,10.923,0,15.083l170.667,170.667    c2.091,2.069,4.821,3.115,7.552,3.115c2.731,0,5.461-1.045,7.531-3.115C513.024,259.384,513.024,252.621,508.864,248.461z" data-original="#000000" class="active-path" data-old_color="#000000" fill="#3D76E3"/>
	</g>
</g><g>
	<g>
		<path d="M508.864,248.461c-4.16-4.16-10.923-4.16-15.083,0L323.115,419.128c-4.16,4.16-4.16,10.923,0,15.083    c2.091,2.069,4.821,3.115,7.552,3.115c2.731,0,5.461-1.045,7.531-3.115l170.667-170.667    C513.024,259.384,513.024,252.621,508.864,248.461z" data-original="#000000" class="active-path" data-old_color="#000000" fill="#3D76E3"/>
	</g>
</g></g> </svg>
