<?xml version="1.0" encoding="UTF-8"?>
<svg width="38px" height="39px" viewBox="0 0 38 39" version="1.1" xmlns="http://www.w3.org/2000/svg" xmlns:xlink="http://www.w3.org/1999/xlink">
    <!-- Generator: sketchtool 52.5 (67469) - http://www.bohemiancoding.com/sketch -->
    <title>7E5410A0-D192-4FC9-BD1C-84A775E3F400</title>
    <desc>Created with sketchtool.</desc>
    <defs>
        <polygon id="path-1" points="0.499764286 0.473762791 15.8571429 0.473762791 15.8571429 15.878786 0.499764286 15.878786"></polygon>
    </defs>
    <g id="Page-1" stroke="none" stroke-width="1" fill="none" fill-rule="evenodd">
        <g id="Careers_page" transform="translate(-756.000000, -803.000000)">
            <g id="Group-14" transform="translate(757.000000, 804.000000)">
                <g id="Group-3" transform="translate(21.142857, 21.807140)">
                    <mask id="mask-2" fill="white">
                        <use xlink:href="#path-1"></use>
                    </mask>
                    <g id="Clip-2"></g>
                    <path d="M15.8574071,8.17627442 C15.8574071,12.430507 12.419931,15.878786 8.17814524,15.878786 C3.93812143,15.878786 0.499764286,12.430507 0.499764286,8.17627442 C0.499764286,3.92204186 3.93812143,0.473762791 8.17814524,0.473762791 C12.419931,0.473762791 15.8574071,3.92204186 15.8574071,8.17627442" id="Fill-1" fill="#BDEFFF" mask="url(#mask-2)"></path>
                </g>
                <path d="M29.3211786,26.5598791 L29.3211786,27.4162047 C29.3211786,31.1976465 26.2651548,34.2623907 22.4955595,34.2623907" id="Stroke-4" stroke="#000000" stroke-width="2"></path>
                <path d="M19.9361286,36.8304837 L18.2297238,36.8304837 C16.8157952,36.8304837 15.6696762,35.6807628 15.6696762,34.2623907 C15.6696762,32.8449023 16.8157952,31.6951814 18.2297238,31.6951814 L19.9361286,31.6951814 C21.3491762,31.6951814 22.4952952,32.8449023 22.4952952,34.2623907 C22.4952952,35.6807628 21.3491762,36.8304837 19.9361286,36.8304837 Z" id="Stroke-6" stroke="#000000" stroke-width="2"></path>
                <path d="M7.1244381,26.2461581 L5.54577143,26.2461581 C2.4827,26.2461581 0.000176190476,23.7558326 0.000176190476,20.6831349 C0.000176190476,17.6104372 2.4827,15.1201116 5.54577143,15.1201116 L7.1244381,15.1201116 C7.43100952,15.1201116 7.67855714,15.3684372 7.67855714,15.6759721 L7.67855714,25.6902977 C7.67855714,25.9978326 7.43100952,26.2461581 7.1244381,26.2461581 Z" id="Stroke-8" stroke="#000000" stroke-width="2"></path>
                <path d="M27.3157786,26.5598791 L28.8944452,26.5598791 C31.9575167,26.5598791 34.4409214,24.0695535 34.4409214,20.9968558 C34.4409214,17.9241581 31.9575167,15.4338326 28.8944452,15.4338326 L27.3157786,15.4338326 C27.0092071,15.4338326 26.7616595,15.6821581 26.7616595,15.989693 L26.7616595,26.0049023 C26.7616595,26.3115535 27.0092071,26.5598791 27.3157786,26.5598791 Z" id="Stroke-10" stroke="#000000" stroke-width="2"></path>
                <path d="M5.15868095,15.3523535 L5.15868095,13.0025395 C5.15868095,6.31012093 10.5686095,0.883190698 17.2400619,0.883190698 C23.9123952,0.883190698 29.3214429,6.31012093 29.3214429,13.0025395 L29.3214429,15.4336558" id="Stroke-12" stroke="#000000" stroke-width="2"></path>
            </g>
        </g>
    </g>
</svg>