<?xml version="1.0" encoding="UTF-8"?>
<svg width="40px" height="39px" viewBox="0 0 40 39" version="1.1" xmlns="http://www.w3.org/2000/svg" xmlns:xlink="http://www.w3.org/1999/xlink">
    <!-- Generator: sketchtool 52.5 (67469) - http://www.bohemiancoding.com/sketch -->
    <title>958E8F1C-C152-449E-B83B-AD474FCA704C</title>
    <desc>Created with sketchtool.</desc>
    <g id="Page-1" stroke="none" stroke-width="1" fill="none" fill-rule="evenodd">
        <g id="Careers_page" transform="translate(-477.000000, -1099.000000)">
            <g id="Group-27" transform="translate(478.000000, 1100.000000)">
                <path d="M38.000181,7.21960244 C38.000181,11.206578 34.7593238,14.4391146 30.7620857,14.4391146 C26.7639429,14.4391146 23.5239905,11.206578 23.5239905,7.21960244 C23.5239905,3.23262683 26.7639429,9.02439024e-05 30.7620857,9.02439024e-05 C34.7593238,9.02439024e-05 38.000181,3.23262683 38.000181,7.21960244" id="Fill-1" fill="#FFC5D7"></path>
                <path d="M3.61922857,8.00174634 L16.2858952,8.00174634" id="Stroke-3" stroke="#2D2D2D" stroke-width="2" stroke-linecap="round"></path>
                <path d="M21.7144667,8.00174634 L34.3811333,8.00174634" id="Stroke-5" stroke="#2D2D2D" stroke-width="2" stroke-linecap="round"></path>
                <path d="M9.25010476,29.780578 L4.32186667,29.780578 C1.93510476,29.780578 -0.000180952381,27.850261 -0.000180952381,25.4705293 L-0.000180952381,24.5834317 C-0.000180952381,23.9643585 0.502866667,23.4635049 1.12262857,23.4635049 L12.4484381,23.4635049 C13.0691048,23.4635049 13.5712476,23.9643585 13.5712476,24.5834317 L13.5712476,25.4705293 C13.5712476,27.850261 11.6368667,29.780578 9.25010476,29.780578 Z" id="Stroke-7" stroke="#2D2D2D" stroke-width="2" stroke-linecap="round"></path>
                <path d="M21.4873714,8.00174634 C21.4873714,9.2471122 20.4740381,10.2578439 19.2254667,10.2578439 C17.9759905,10.2578439 16.9635619,9.2471122 16.9635619,8.00174634 C16.9635619,6.75547805 17.9759905,5.74564878 19.2254667,5.74564878 C20.4740381,5.74564878 21.4873714,6.75547805 21.4873714,8.00174634 Z" id="Stroke-9" stroke="#2D2D2D" stroke-width="2" stroke-linecap="round"></path>
                <path d="M19.2254667,10.8293585 L19.2254667,35.1952122" id="Stroke-11" stroke="#2D2D2D" stroke-width="2" stroke-linecap="round"></path>
                <path d="M10.1778476,36.0976512 L28.2730857,36.0976512" id="Stroke-13" stroke="#2D2D2D" stroke-width="2" stroke-linecap="round"></path>
                <path d="M19.2254667,0.902529268 L19.2254667,5.41472439" id="Stroke-15" stroke="#2D2D2D" stroke-width="2" stroke-linecap="round"></path>
                <path d="M6.33351429,8.12204146 L0.000180952381,24.3659439" id="Stroke-17" stroke="#2D2D2D" stroke-width="2" stroke-linecap="round"></path>
                <path d="M7.23827619,8.12204146 L13.5716095,24.3659439" id="Stroke-19" stroke="#2D2D2D" stroke-width="2" stroke-linecap="round"></path>
                <path d="M33.6786762,29.780578 L28.7504381,29.780578 C26.3636762,29.780578 24.4283905,27.850261 24.4283905,25.4705293 L24.4283905,24.5834317 C24.4283905,23.9643585 24.9314381,23.4635049 25.5512,23.4635049 L36.8770095,23.4635049 C37.4976762,23.4635049 37.999819,23.9643585 37.999819,24.5834317 L37.999819,25.4705293 C37.999819,27.850261 36.0654381,29.780578 33.6786762,29.780578 Z" id="Stroke-21" stroke="#2D2D2D" stroke-width="2" stroke-linecap="round"></path>
                <path d="M30.7620857,8.12204146 L24.4287524,24.3659439" id="Stroke-23" stroke="#2D2D2D" stroke-width="2" stroke-linecap="round"></path>
                <path d="M31.6668476,8.12204146 L38.000181,24.3659439" id="Stroke-25" stroke="#2D2D2D" stroke-width="2" stroke-linecap="round"></path>
            </g>
        </g>
    </g>
</svg>