<?xml version="1.0" encoding="UTF-8"?>
<svg width="39px" height="39px" viewBox="0 0 39 39" version="1.1" xmlns="http://www.w3.org/2000/svg" xmlns:xlink="http://www.w3.org/1999/xlink">
    <!-- Generator: sketchtool 52.5 (67469) - http://www.bohemiancoding.com/sketch -->
    <title>BB15E1DF-70BC-4371-B86C-C2CC7A40D15C</title>
    <desc>Created with sketchtool.</desc>
    <defs>
        <polygon id="path-1" points="0.412661905 9.04761905e-05 14.8887619 9.04761905e-05 14.8887619 14.476281 0.412661905 14.476281"></polygon>
    </defs>
    <g id="Page-1" stroke="none" stroke-width="1" fill="none" fill-rule="evenodd">
        <g id="Careers_page" transform="translate(-1036.000000, -1099.000000)">
            <g id="Group-12" transform="translate(1037.000000, 1099.000000)">
                <g id="Group-3" transform="translate(22.619048, 0.000000)">
                    <mask id="mask-2" fill="white">
                        <use xlink:href="#path-1"></use>
                    </mask>
                    <g id="Clip-2"></g>
                    <path d="M14.8888524,7.23818571 C14.8888524,11.2354238 11.6479952,14.476281 7.65075714,14.476281 C3.65351905,14.476281 0.412661905,11.2354238 0.412661905,7.23818571 C0.412661905,3.24094762 3.65351905,9.04761905e-05 7.65075714,9.04761905e-05 C11.6479952,9.04761905e-05 14.8888524,3.24094762 14.8888524,7.23818571" id="Fill-1" fill="#C2B8FF" mask="url(#mask-2)"></path>
                </g>
                <path d="M31.2444143,6.32808571 L16.3384619,0.951990476 C16.1303667,0.888657143 15.9077952,0.888657143 15.6987952,0.951990476 L0.793747619,6.32808571 C0.322366667,6.46922857 0.000271428571,6.90260952 0.000271428571,7.3948 L0.000271428571,21.9813714 C0.000271428571,24.1138952 0.863414286,26.2970857 2.56617619,28.469419 C3.86631905,30.1296571 5.66589048,31.7953238 7.91331905,33.4229905 C11.6897952,36.1562762 15.4074619,37.8328 15.5639857,37.9024667 C15.7087476,37.9676095 15.8634619,38.000181 16.019081,38.000181 C16.1747,38.000181 16.3294143,37.9676095 16.4741762,37.9024667 C16.6307,37.8328 20.3483667,36.1562762 24.1248429,33.4229905 C26.3722714,31.7953238 28.1718429,30.1296571 29.4719857,28.469419 C31.1747476,26.2970857 32.0378905,24.1138952 32.0378905,21.9813714 L32.0378905,7.3948 C32.0378905,6.90260952 31.7157952,6.46922857 31.2444143,6.32808571 Z" id="Stroke-4" stroke="#4D4D4D" stroke-width="2" stroke-linecap="round"></path>
                <path d="M21.2063524,26.0305429 L10.8305429,26.0305429 C10.2496857,26.0305429 9.7774,25.5591619 9.7774,24.9774 L9.7774,18.8521619 C9.7774,18.2704 10.2496857,17.799019 10.8305429,17.799019 L21.2063524,17.799019 C21.789019,17.799019 22.2594952,18.2704 22.2594952,18.8521619 L22.2594952,24.9774 C22.2594952,25.5591619 21.789019,26.0305429 21.2063524,26.0305429 Z" id="Stroke-6" stroke="#4D4D4D" stroke-width="2" stroke-linecap="round"></path>
                <path d="M11.6329762,17.0567524 L11.6329762,13.8855619 C11.6329762,11.4635143 13.5963095,9.50018095 16.0192619,9.50018095 C18.4404048,9.50018095 20.4037381,11.4635143 20.4037381,13.8855619 L20.4037381,13.953419" id="Stroke-8" stroke="#4D4D4D" stroke-width="2" stroke-linecap="round"></path>
                <path d="M17.3142476,22.022719 C17.3142476,22.7383857 16.7342952,23.3183381 16.0186286,23.3183381 C15.3029619,23.3183381 14.7239143,22.7383857 14.7239143,22.022719 C14.7239143,21.3070524 15.3029619,20.7271 16.0186286,20.7271 C16.7342952,20.7271 17.3142476,21.3070524 17.3142476,22.022719" id="Fill-10" fill="#4D4D4D"></path>
            </g>
        </g>
    </g>
</svg>