<?xml version="1.0" encoding="UTF-8"?>
<svg width="16px" height="14px" viewBox="0 0 16 14" version="1.1" xmlns="http://www.w3.org/2000/svg" xmlns:xlink="http://www.w3.org/1999/xlink">
    <!-- Generator: sketchtool 52.5 (67469) - http://www.bohemiancoding.com/sketch -->
    <title>56A7F924-38F6-451F-B64E-06AF905C43A2</title>
    <desc>Created with sketchtool.</desc>
    <g id="Page-1" stroke="none" stroke-width="1" fill="none" fill-rule="evenodd">
        <g id="Job-Listing_expand" transform="translate(-1224.000000, -1118.000000)" fill="#3D76E3" stroke="#3D76E3" stroke-width="0.25">
            <g id="right-arrow-copy-3" transform="translate(1225.000000, 1119.000000)">
                <path d="M8.2842966,0.180471502 C8.04588758,-0.0601571674 7.64909495,-0.0601571674 7.40234995,0.180471502 C7.16394093,0.412970825 7.16394093,0.799927739 7.40234995,1.03188511 L11.8743252,5.39300876 L0.617418228,5.39300876 C0.273420133,5.39355072 0,5.6601933 0,5.99566435 C0,6.3311354 0.273420133,6.60644928 0.617418228,6.60644928 L11.8743252,6.60644928 L7.40234995,10.9594436 C7.16394093,11.2000723 7.16394093,11.5875711 7.40234995,11.8195285 C7.64909495,12.0601572 8.04644332,12.0601572 8.2842966,11.8195285 L13.8149413,6.42597778 C14.0616862,6.19347846 14.0616862,5.80652154 13.8149413,5.57456418 L8.2842966,0.180471502 Z" id="Path"></path>
            </g>
        </g>
    </g>
</svg>